M48
; DRILL file {KiCad 7.0.6} date Mon Sep  4 20:16:31 2023
; FORMAT={-:-/ absolute / inch / decimal}
; #@! TF.CreationDate,2023-09-04T20:16:31+02:00
; #@! TF.GenerationSoftware,Kicad,Pcbnew,7.0.6
; #@! TF.FileFunction,Plated,1,2,PTH
FMAT,2
INCH
; #@! TA.AperFunction,Plated,PTH,ViaDrill
T1C0.0157
; #@! TA.AperFunction,Plated,PTH,ComponentDrill
T2C0.0256
; #@! TA.AperFunction,Plated,PTH,ComponentDrill
T3C0.0315
; #@! TA.AperFunction,Plated,PTH,ComponentDrill
T4C0.0394
; #@! TA.AperFunction,Plated,PTH,ComponentDrill
T5C0.0472
; #@! TA.AperFunction,Plated,PTH,ComponentDrill
T6C0.0512
; #@! TA.AperFunction,Plated,PTH,ComponentDrill
T7C0.0598
%
G90
G05
T1
X4.3425Y-4.1929
X4.4843Y-5.6299
X4.5551Y-3.9606
X4.9114Y-3.3563
X4.9646Y-4.3543
X5.1102Y-3.0354
X5.2264Y-3.6024
X5.252Y-3.2283
X5.2638Y-2.9488
X5.4646Y-2.9606
X5.4655Y-3.0718
X5.4665Y-3.3346
X5.4724Y-3.1483
X5.4744Y-3.2126
X5.4862Y-3.6102
X5.5315Y-3.6102
X5.6181Y-5.5512
X5.7598Y-3.0748
X5.7598Y-3.1299
X5.7874Y-3.0472
X5.7874Y-3.1024
X5.7874Y-3.1575
X5.815Y-3.0748
X5.815Y-3.1299
X5.8425Y-3.0472
X5.8425Y-3.1024
X5.8425Y-3.1575
X5.8425Y-5.0354
X5.8701Y-3.0748
X5.8701Y-3.1299
X6.2795Y-3.2008
X6.2835Y-2.8465
X6.2835Y-2.9016
X6.2835Y-3.0984
X6.2835Y-3.3071
X6.4803Y-3.9291
X6.5394Y-4.252
X6.6772Y-3.3071
X6.8583Y-3.3819
X6.8819Y-2.8465
X6.8858Y-3.0512
X6.8898Y-3.3031
X6.9528Y-3.4685
X6.9606Y-3.2874
X6.9643Y-3.0997
X7.0037Y-3.0544
X7.0945Y-5.374
X7.2557Y-2.8386
X7.4518Y-2.8337
X7.5689Y-3.7598
X7.5689Y-3.8976
X7.6378Y-3.9685
X7.7104Y-3.2953
X7.7362Y-3.4409
T2
X7.5942Y-3.1191
X7.5942Y-3.1691
X7.5942Y-3.2191
X7.5942Y-3.2691
X7.5942Y-3.3191
T4
X4.3376Y-2.9776
X4.3376Y-3.0776
X4.3376Y-3.1776
X4.3376Y-3.2776
X4.3376Y-3.3776
X4.3376Y-3.6311
X4.3376Y-3.7311
X4.3376Y-3.8311
X4.5476Y-4.56
X4.6476Y-4.56
X4.9825Y-2.9232
X4.9825Y-3.0232
X5.378Y-2.802
X5.378Y-2.902
X5.378Y-3.002
X5.378Y-3.102
X5.378Y-3.202
X5.378Y-3.302
X5.378Y-3.402
X5.378Y-3.502
X5.378Y-3.602
X5.378Y-3.702
X5.378Y-3.802
X5.378Y-3.902
X5.378Y-4.002
X5.378Y-4.102
X5.378Y-4.202
X5.378Y-4.302
X5.378Y-4.402
X5.378Y-4.502
X5.378Y-4.602
X5.378Y-4.702
X5.378Y-4.802
X5.378Y-4.902
X5.4148Y-5.1575
X5.5148Y-5.1575
X5.8777Y-5.2045
X5.8777Y-5.3045
X5.8856Y-5.5116
X5.8856Y-5.6116
X6.378Y-2.802
X6.378Y-2.902
X6.378Y-3.002
X6.378Y-3.102
X6.378Y-3.202
X6.378Y-3.302
X6.378Y-3.402
X6.378Y-3.502
X6.378Y-3.602
X6.378Y-3.702
X6.378Y-3.802
X6.378Y-3.902
X6.378Y-4.002
X6.378Y-4.102
X6.378Y-4.202
X6.378Y-4.302
X6.378Y-4.402
X6.378Y-4.502
X6.378Y-4.602
X6.378Y-4.702
X6.378Y-4.802
X6.378Y-4.902
X6.623Y-4.0945
X6.723Y-4.0945
X7.502Y-4.5782
X7.6661Y-3.8072
X7.7661Y-3.8072
X7.9744Y-4.5782
T5
X6.2313Y-5.5589
X7.0313Y-5.5589
T6
X7.502Y-5.0585
X7.7402Y-4.5014
X7.9764Y-5.0605
T7
X7.3008Y-5.4646
X7.5008Y-5.4646
X7.7008Y-5.4646
T3
G00X7.7811Y-3.0317
M15
G01X7.8126Y-3.0317
M16
G05
G00X7.7811Y-3.3723
M15
G01X7.8126Y-3.3723
M16
G05
G00X7.9496Y-3.0317
M15
G01X7.9732Y-3.0317
M16
G05
G00X7.9496Y-3.3723
M15
G01X7.9732Y-3.3723
M16
G05
T0
M30
