%TF.GenerationSoftware,KiCad,Pcbnew,7.0.6*%
%TF.CreationDate,2023-09-04T20:16:31+02:00*%
%TF.ProjectId,LAS_V2,4c41535f-5632-42e6-9b69-6361645f7063,rev?*%
%TF.SameCoordinates,Original*%
%TF.FileFunction,Copper,L2,Bot*%
%TF.FilePolarity,Positive*%
%FSLAX46Y46*%
G04 Gerber Fmt 4.6, Leading zero omitted, Abs format (unit mm)*
G04 Created by KiCad (PCBNEW 7.0.6) date 2023-09-04 20:16:31*
%MOMM*%
%LPD*%
G01*
G04 APERTURE LIST*
%TA.AperFunction,ComponentPad*%
%ADD10C,2.400000*%
%TD*%
%TA.AperFunction,ComponentPad*%
%ADD11O,2.400000X2.400000*%
%TD*%
%TA.AperFunction,ComponentPad*%
%ADD12O,2.000000X1.200000*%
%TD*%
%TA.AperFunction,ComponentPad*%
%ADD13O,1.800000X1.200000*%
%TD*%
%TA.AperFunction,ComponentPad*%
%ADD14R,1.700000X1.700000*%
%TD*%
%TA.AperFunction,ComponentPad*%
%ADD15O,1.700000X1.700000*%
%TD*%
%TA.AperFunction,ComponentPad*%
%ADD16R,3.000000X3.000000*%
%TD*%
%TA.AperFunction,ComponentPad*%
%ADD17C,3.000000*%
%TD*%
%TA.AperFunction,ComponentPad*%
%ADD18R,1.000000X1.000000*%
%TD*%
%TA.AperFunction,ComponentPad*%
%ADD19O,1.000000X1.000000*%
%TD*%
%TA.AperFunction,ComponentPad*%
%ADD20C,2.500000*%
%TD*%
%TA.AperFunction,ViaPad*%
%ADD21C,0.800000*%
%TD*%
%TA.AperFunction,Conductor*%
%ADD22C,0.200000*%
%TD*%
%TA.AperFunction,Conductor*%
%ADD23C,0.500000*%
%TD*%
%TA.AperFunction,Conductor*%
%ADD24C,0.300000*%
%TD*%
%TA.AperFunction,Conductor*%
%ADD25C,2.000000*%
%TD*%
%TA.AperFunction,Conductor*%
%ADD26C,1.000000*%
%TD*%
G04 APERTURE END LIST*
D10*
%TO.P,R17,1*%
%TO.N,Net-(D8-+)*%
X178594500Y-141195000D03*
D11*
%TO.P,R17,2*%
%TO.N,Net-(D11-K)*%
X158274500Y-141195000D03*
%TD*%
D12*
%TO.P,J7,0*%
%TO.N,N/C*%
X198039250Y-85656250D03*
%TO.P,J7,1*%
X198039250Y-77006250D03*
D13*
%TO.P,J7,2*%
X202219250Y-77006250D03*
%TO.P,J7,3*%
X202219250Y-85656250D03*
%TD*%
D14*
%TO.P,J9,1,Pin_1*%
%TO.N,/BOOT_SEL*%
X168225000Y-104000000D03*
D15*
%TO.P,J9,2,Pin_2*%
%TO.N,GND*%
X170765000Y-104000000D03*
%TD*%
D16*
%TO.P,J1,1,Pin_1*%
%TO.N,/NEUTRAL*%
X185440000Y-138800000D03*
D17*
%TO.P,J1,2,Pin_2*%
%TO.N,/N01*%
X190520000Y-138800000D03*
%TO.P,J1,3,Pin_3*%
%TO.N,/LIVE*%
X195600000Y-138800000D03*
%TD*%
D14*
%TO.P,J5,1,Pin_1*%
%TO.N,GND*%
X162000000Y-71170000D03*
D15*
%TO.P,J5,2,Pin_2*%
%TO.N,/TXD0*%
X162000000Y-73710000D03*
%TO.P,J5,3,Pin_3*%
%TO.N,/RXD0*%
X162000000Y-76250000D03*
%TO.P,J5,4,Pin_4*%
%TO.N,/GPIO1*%
X162000000Y-78790000D03*
%TO.P,J5,5,Pin_5*%
%TO.N,/GPIO2*%
X162000000Y-81330000D03*
%TO.P,J5,6,Pin_6*%
%TO.N,/GPIO42*%
X162000000Y-83870000D03*
%TO.P,J5,7,Pin_7*%
%TO.N,/GPIO41*%
X162000000Y-86410000D03*
%TO.P,J5,8,Pin_8*%
%TO.N,/GPIO40*%
X162000000Y-88950000D03*
%TO.P,J5,9,Pin_9*%
%TO.N,/GPIO39*%
X162000000Y-91490000D03*
%TO.P,J5,10,Pin_10*%
%TO.N,/GPIO38*%
X162000000Y-94030000D03*
%TO.P,J5,11,Pin_11*%
%TO.N,/GPIO37*%
X162000000Y-96570000D03*
%TO.P,J5,12,Pin_12*%
%TO.N,/GPIO36*%
X162000000Y-99110000D03*
%TO.P,J5,13,Pin_13*%
%TO.N,/GPIO35*%
X162000000Y-101650000D03*
%TO.P,J5,14,Pin_14*%
%TO.N,/BOOT_SEL*%
X162000000Y-104190000D03*
%TO.P,J5,15,Pin_15*%
%TO.N,/GPIO45*%
X162000000Y-106730000D03*
%TO.P,J5,16,Pin_16*%
%TO.N,/GPIO48*%
X162000000Y-109270000D03*
%TO.P,J5,17,Pin_17*%
%TO.N,/GPIO47*%
X162000000Y-111810000D03*
%TO.P,J5,18,Pin_18*%
%TO.N,/GPIO21*%
X162000000Y-114350000D03*
%TO.P,J5,19,Pin_19*%
%TO.N,/GPIO20*%
X162000000Y-116890000D03*
%TO.P,J5,20,Pin_20*%
%TO.N,/GPIO19*%
X162000000Y-119430000D03*
%TO.P,J5,21,Pin_21*%
%TO.N,GND*%
X162000000Y-121970000D03*
%TO.P,J5,22,Pin_22*%
X162000000Y-124510000D03*
%TD*%
D14*
%TO.P,J6,1,Pin_1*%
%TO.N,/GPIO6*%
X194718000Y-96704000D03*
D15*
%TO.P,J6,2,Pin_2*%
%TO.N,Net-(J6-Pin_2)*%
X197258000Y-96704000D03*
%TD*%
D14*
%TO.P,J13,1,Pin_1*%
%TO.N,/AC_Mon_1*%
X149294500Y-132195000D03*
D15*
%TO.P,J13,2,Pin_2*%
%TO.N,Net-(J13-Pin_2)*%
X149294500Y-134735000D03*
%TD*%
D14*
%TO.P,J11,1,Pin_1*%
%TO.N,/+3.3V*%
X140075000Y-131000000D03*
D15*
%TO.P,J11,2,Pin_2*%
%TO.N,Net-(J11-Pin_2)*%
X137535000Y-131000000D03*
%TD*%
D14*
%TO.P,J2,1,Pin_1*%
%TO.N,/+3.3V*%
X110175000Y-92230000D03*
D15*
%TO.P,J2,2,Pin_2*%
%TO.N,/VCC_5V*%
X110175000Y-94770000D03*
%TO.P,J2,3,Pin_3*%
%TO.N,GND*%
X110175000Y-97310000D03*
%TD*%
D18*
%TO.P,J8,1,Pin_1*%
%TO.N,Net-(J8-Pin_1)*%
X192893750Y-84306250D03*
D19*
%TO.P,J8,2,Pin_2*%
%TO.N,Net-(J8-Pin_2)*%
X192893750Y-83036250D03*
%TO.P,J8,3,Pin_3*%
%TO.N,/TXD0*%
X192893750Y-81766250D03*
%TO.P,J8,4,Pin_4*%
%TO.N,/RXD0*%
X192893750Y-80496250D03*
%TO.P,J8,5,Pin_5*%
%TO.N,/VCC_5V*%
X192893750Y-79226250D03*
%TD*%
D14*
%TO.P,J3,1,Pin_1*%
%TO.N,/TX_RFID*%
X110175000Y-85790000D03*
D15*
%TO.P,J3,2,Pin_2*%
%TO.N,unconnected-(J3-Pin_2-Pad2)*%
X110175000Y-83250000D03*
%TO.P,J3,3,Pin_3*%
%TO.N,unconnected-(J3-Pin_3-Pad3)*%
X110175000Y-80710000D03*
%TO.P,J3,4,Pin_4*%
%TO.N,GND*%
X110175000Y-78170000D03*
%TO.P,J3,5,Pin_5*%
%TO.N,/VCC_5V*%
X110175000Y-75630000D03*
%TD*%
D17*
%TO.P,K1,1*%
%TO.N,/LIVE*%
X196600000Y-114336000D03*
D20*
%TO.P,K1,2*%
%TO.N,/VCC_5V*%
X190550000Y-116286000D03*
D17*
%TO.P,K1,3*%
%TO.N,/N01*%
X190550000Y-128486000D03*
%TO.P,K1,4*%
%TO.N,/NC1*%
X202600000Y-128536000D03*
D20*
%TO.P,K1,5*%
%TO.N,Net-(D6-K)*%
X202550000Y-116286000D03*
%TD*%
D14*
%TO.P,J4,1,Pin_1*%
%TO.N,/+3.3V*%
X136600000Y-71170000D03*
D15*
%TO.P,J4,2,Pin_2*%
X136600000Y-73710000D03*
%TO.P,J4,3,Pin_3*%
%TO.N,/CHIP_PU*%
X136600000Y-76250000D03*
%TO.P,J4,4,Pin_4*%
%TO.N,/GPIO4*%
X136600000Y-78790000D03*
%TO.P,J4,5,Pin_5*%
%TO.N,/DIN_3.3*%
X136600000Y-81330000D03*
%TO.P,J4,6,Pin_6*%
%TO.N,/GPIO6*%
X136600000Y-83870000D03*
%TO.P,J4,7,Pin_7*%
%TO.N,/AC_Mon_1*%
X136600000Y-86410000D03*
%TO.P,J4,8,Pin_8*%
%TO.N,/GPIO15*%
X136600000Y-88950000D03*
%TO.P,J4,9,Pin_9*%
%TO.N,/GPIO16*%
X136600000Y-91490000D03*
%TO.P,J4,10,Pin_10*%
%TO.N,/GPIO17*%
X136600000Y-94030000D03*
%TO.P,J4,11,Pin_11*%
%TO.N,/GPIO18*%
X136600000Y-96570000D03*
%TO.P,J4,12,Pin_12*%
%TO.N,/GPIO8*%
X136600000Y-99110000D03*
%TO.P,J4,13,Pin_13*%
%TO.N,/GPIO3*%
X136600000Y-101650000D03*
%TO.P,J4,14,Pin_14*%
%TO.N,/GPIO46*%
X136600000Y-104190000D03*
%TO.P,J4,15,Pin_15*%
%TO.N,/GPIO9*%
X136600000Y-106730000D03*
%TO.P,J4,16,Pin_16*%
%TO.N,/GPIO10*%
X136600000Y-109270000D03*
%TO.P,J4,17,Pin_17*%
%TO.N,/GPIO11*%
X136600000Y-111810000D03*
%TO.P,J4,18,Pin_18*%
%TO.N,/GPIO12*%
X136600000Y-114350000D03*
%TO.P,J4,19,Pin_19*%
%TO.N,/GPIO13*%
X136600000Y-116890000D03*
%TO.P,J4,20,Pin_20*%
%TO.N,/GPIO14*%
X136600000Y-119430000D03*
%TO.P,J4,21,Pin_21*%
%TO.N,unconnected-(J4-Pin_21-Pad21)*%
X136600000Y-121970000D03*
%TO.P,J4,22,Pin_22*%
%TO.N,unconnected-(J4-Pin_22-Pad22)*%
X136600000Y-124510000D03*
%TD*%
D14*
%TO.P,J14,1,Pin_1*%
%TO.N,Net-(J14-Pin_1)*%
X149494500Y-139995000D03*
D15*
%TO.P,J14,2,Pin_2*%
%TO.N,Net-(D11-K)*%
X149494500Y-142535000D03*
%TD*%
D14*
%TO.P,J10,1,Pin_1*%
%TO.N,/CHIP_PU*%
X126555000Y-74250000D03*
D15*
%TO.P,J10,2,Pin_2*%
%TO.N,GND*%
X126555000Y-76790000D03*
%TD*%
D14*
%TO.P,J12,1,Pin_1*%
%TO.N,/DIN_3.3*%
X118050000Y-115825000D03*
D15*
%TO.P,J12,2,Pin_2*%
%TO.N,/LEDs/DIN*%
X115510000Y-115825000D03*
%TD*%
D21*
%TO.N,/CHIP_PU*%
X174800000Y-72300000D03*
%TO.N,GND*%
X148400000Y-80200000D03*
X147000000Y-77400000D03*
X174900000Y-77500000D03*
X196500000Y-87400000D03*
X133700000Y-74900000D03*
X147000000Y-78800000D03*
X194000000Y-100800000D03*
X146300000Y-78100000D03*
X176800000Y-83500000D03*
X129800000Y-77100000D03*
X149100000Y-79500000D03*
X146300000Y-79500000D03*
X147700000Y-79500000D03*
X149100000Y-78100000D03*
X148400000Y-78800000D03*
X147000000Y-80200000D03*
X148400000Y-77400000D03*
X147700000Y-78100000D03*
%TO.N,/BOOT_SEL*%
X176893750Y-78731250D03*
X189275000Y-71975000D03*
%TO.N,/+3.3V*%
X175000000Y-83900000D03*
X148400000Y-127900000D03*
X176600000Y-88100000D03*
%TO.N,/VCC_5V*%
X142700000Y-141000000D03*
X192250000Y-95500000D03*
X192250000Y-99000000D03*
X110300000Y-106500000D03*
X113900000Y-143000000D03*
X195843750Y-83700000D03*
X133400000Y-82000000D03*
%TO.N,/NEUTRAL*%
X180200000Y-136500000D03*
%TO.N,/TX_RFID*%
X124750000Y-85250000D03*
%TO.N,/GPIO4*%
X164600000Y-99800000D03*
X138800000Y-75200000D03*
%TO.N,/DIN_3.3*%
X126100000Y-110600000D03*
%TO.N,/GPIO6*%
X138824750Y-78024750D03*
X166100000Y-108000000D03*
%TO.N,/GPIO15*%
X138999500Y-79965922D03*
%TO.N,/GPIO16*%
X139049500Y-81600000D03*
%TO.N,/GPIO18*%
X132749500Y-91500000D03*
X138849500Y-84700000D03*
%TO.N,/TXD0*%
X169600000Y-84000000D03*
%TO.N,/RXD0*%
X174200000Y-85900000D03*
%TO.N,/GPIO1*%
X159600000Y-72300000D03*
%TO.N,/GPIO2*%
X159600000Y-73700000D03*
%TO.N,/GPIO41*%
X159600000Y-78700000D03*
%TO.N,/GPIO39*%
X159500000Y-81300000D03*
%TO.N,/GPIO37*%
X159600500Y-84000000D03*
%TO.N,/GPIO20*%
X140500000Y-91700000D03*
%TO.N,/GPIO19*%
X139349500Y-91700000D03*
%TO.N,Net-(Q2-B)*%
X184293750Y-72100000D03*
X177893750Y-77581250D03*
%TO.N,Net-(J11-Pin_2)*%
X115700000Y-100600000D03*
%TD*%
D22*
%TO.N,/CHIP_PU*%
X174800000Y-72300000D02*
X163600000Y-72300000D01*
X141750000Y-71100000D02*
X136600000Y-76250000D01*
X160900000Y-72400000D02*
X159600000Y-71100000D01*
X159600000Y-71100000D02*
X141750000Y-71100000D01*
X163500000Y-72400000D02*
X160900000Y-72400000D01*
X163600000Y-72300000D02*
X163500000Y-72400000D01*
%TO.N,/BOOT_SEL*%
X162000000Y-104190000D02*
X168035000Y-104190000D01*
X168035000Y-104190000D02*
X168225000Y-104000000D01*
D23*
X187900000Y-71975000D02*
X181143750Y-78731250D01*
X181143750Y-78731250D02*
X176893750Y-78731250D01*
X189275000Y-71975000D02*
X187900000Y-71975000D01*
D24*
%TO.N,/+3.3V*%
X145300000Y-131000000D02*
X148400000Y-127900000D01*
D23*
X175000000Y-83900000D02*
X176600000Y-85500000D01*
X176600000Y-88100000D02*
X176600000Y-114500000D01*
X176600000Y-114500000D02*
X163200000Y-127900000D01*
X176600000Y-85500000D02*
X176600000Y-88100000D01*
D24*
X140075000Y-131000000D02*
X145300000Y-131000000D01*
D23*
X163200000Y-127900000D02*
X148400000Y-127900000D01*
%TO.N,/VCC_5V*%
X113900000Y-119100000D02*
X111800000Y-117000000D01*
X116545000Y-82000000D02*
X110175000Y-75630000D01*
X113000000Y-94870000D02*
X113100000Y-94770000D01*
X110300000Y-106500000D02*
X112100000Y-106500000D01*
X113000000Y-105600000D02*
X113000000Y-94870000D01*
X178093750Y-112000000D02*
X178093750Y-114906250D01*
X122830000Y-94770000D02*
X128300000Y-89300000D01*
X128300000Y-89300000D02*
X128300000Y-82000000D01*
X155000000Y-138000000D02*
X155000000Y-142400000D01*
X115900000Y-141000000D02*
X113900000Y-143000000D01*
X192186644Y-79226250D02*
X192893750Y-79226250D01*
X128300000Y-82000000D02*
X116545000Y-82000000D01*
X190550000Y-116286000D02*
X183286000Y-116286000D01*
X133400000Y-82000000D02*
X128300000Y-82000000D01*
X178093750Y-81806250D02*
X178093750Y-112000000D01*
D24*
X192250000Y-95500000D02*
X192250000Y-99000000D01*
D23*
X178093750Y-81806250D02*
X189606644Y-81806250D01*
X189606644Y-81806250D02*
X192186644Y-79226250D01*
X183286000Y-116286000D02*
X179000000Y-112000000D01*
X178093750Y-114906250D02*
X155000000Y-138000000D01*
X142700000Y-141000000D02*
X115900000Y-141000000D01*
X151400000Y-146000000D02*
X147700000Y-146000000D01*
X111800000Y-117000000D02*
X111800000Y-108000000D01*
X112100000Y-106500000D02*
X113000000Y-105600000D01*
D24*
X195843750Y-82176250D02*
X192893750Y-79226250D01*
D23*
X147700000Y-146000000D02*
X142700000Y-141000000D01*
D24*
X195843750Y-83700000D02*
X195843750Y-82176250D01*
D23*
X113900000Y-143000000D02*
X113900000Y-119100000D01*
X113100000Y-94770000D02*
X122830000Y-94770000D01*
X179000000Y-112000000D02*
X178093750Y-112000000D01*
X111800000Y-108000000D02*
X110300000Y-106500000D01*
X155000000Y-142400000D02*
X151400000Y-146000000D01*
X110175000Y-94770000D02*
X113100000Y-94770000D01*
D25*
%TO.N,/LIVE*%
X196600000Y-114336000D02*
X196600000Y-137800000D01*
X196600000Y-137800000D02*
X195600000Y-138800000D01*
D24*
%TO.N,/NEUTRAL*%
X180200000Y-136500000D02*
X182500000Y-138800000D01*
X182500000Y-138800000D02*
X185440000Y-138800000D01*
D23*
%TO.N,/TX_RFID*%
X124210000Y-85790000D02*
X110175000Y-85790000D01*
X124750000Y-85250000D02*
X124210000Y-85790000D01*
D22*
%TO.N,/GPIO4*%
X138800000Y-76590000D02*
X136600000Y-78790000D01*
X141200000Y-76400000D02*
X140000000Y-75200000D01*
X164600000Y-99800000D02*
X164000000Y-100400000D01*
X138800000Y-75200000D02*
X138800000Y-76590000D01*
X164000000Y-100400000D02*
X160800000Y-100400000D01*
X140000000Y-75200000D02*
X138800000Y-75200000D01*
X141200000Y-80800000D02*
X141200000Y-76400000D01*
X160800000Y-100400000D02*
X141200000Y-80800000D01*
%TO.N,/DIN_3.3*%
X129500000Y-104500000D02*
X132100000Y-101900000D01*
X132100000Y-85830000D02*
X136600000Y-81330000D01*
X129500000Y-107200000D02*
X129500000Y-104500000D01*
X126100000Y-110600000D02*
X129500000Y-107200000D01*
X132100000Y-101900000D02*
X132100000Y-85830000D01*
%TO.N,/GPIO6*%
X138824750Y-78024750D02*
X137800000Y-79049500D01*
X166100000Y-108000000D02*
X161714365Y-108000000D01*
X137800000Y-79049500D02*
X137800000Y-82670000D01*
X161714365Y-108000000D02*
X140300000Y-86585635D01*
X140300000Y-86585635D02*
X140300000Y-78800000D01*
X140300000Y-78800000D02*
X139524750Y-78024750D01*
X137800000Y-82670000D02*
X136600000Y-83870000D01*
X139524750Y-78024750D02*
X138824750Y-78024750D01*
%TO.N,/GPIO15*%
X138150000Y-83950000D02*
X137000000Y-85100000D01*
X135300000Y-85700000D02*
X135300000Y-87650000D01*
X135900000Y-85100000D02*
X135300000Y-85700000D01*
X135300000Y-87650000D02*
X136600000Y-88950000D01*
X137000000Y-85100000D02*
X135900000Y-85100000D01*
X138150000Y-80815422D02*
X138150000Y-83950000D01*
X138999500Y-79965922D02*
X138150000Y-80815422D01*
%TO.N,/GPIO16*%
X137800000Y-90290000D02*
X136600000Y-91490000D01*
X137800000Y-84794974D02*
X137800000Y-90290000D01*
X138500000Y-84094974D02*
X137800000Y-84794974D01*
X139049500Y-81600000D02*
X138500000Y-82149500D01*
X138500000Y-82149500D02*
X138500000Y-84094974D01*
%TO.N,/GPIO18*%
X132749500Y-91500000D02*
X132749500Y-92719500D01*
X132749500Y-92719500D02*
X136600000Y-96570000D01*
X138300000Y-94870000D02*
X136600000Y-96570000D01*
X138300000Y-85249500D02*
X138300000Y-94870000D01*
X138849500Y-84700000D02*
X138300000Y-85249500D01*
%TO.N,/TXD0*%
X165700000Y-74700000D02*
X164710000Y-73710000D01*
X164710000Y-73710000D02*
X162000000Y-73710000D01*
X165700000Y-74700000D02*
X165700000Y-80100000D01*
X165700000Y-80100000D02*
X169600000Y-84000000D01*
%TO.N,/RXD0*%
X164300000Y-80900000D02*
X164300000Y-77000000D01*
X171700000Y-88300000D02*
X164300000Y-80900000D01*
X174200000Y-88200000D02*
X174100000Y-88300000D01*
X174200000Y-85900000D02*
X174200000Y-88200000D01*
X163550000Y-76250000D02*
X162000000Y-76250000D01*
X164300000Y-77000000D02*
X163550000Y-76250000D01*
X174100000Y-88300000D02*
X171700000Y-88300000D01*
%TO.N,/GPIO1*%
X160700000Y-77490000D02*
X162000000Y-78790000D01*
X160700000Y-73400000D02*
X160700000Y-77490000D01*
X159600000Y-72300000D02*
X160700000Y-73400000D01*
%TO.N,/GPIO2*%
X159600000Y-73700000D02*
X160350000Y-74450000D01*
X160350000Y-79680000D02*
X162000000Y-81330000D01*
X160350000Y-74450000D02*
X160350000Y-79680000D01*
%TO.N,/GPIO41*%
X160600000Y-80424974D02*
X160600000Y-85010000D01*
X159600000Y-78700000D02*
X159800000Y-78900000D01*
X160600000Y-85010000D02*
X162000000Y-86410000D01*
X159800000Y-79624974D02*
X160600000Y-80424974D01*
X159800000Y-78900000D02*
X159800000Y-79624974D01*
%TO.N,/GPIO39*%
X159500000Y-81300000D02*
X160250000Y-82050000D01*
X160250000Y-85154975D02*
X160600000Y-85504974D01*
X160600000Y-90090000D02*
X162000000Y-91490000D01*
X160600000Y-85504974D02*
X160600000Y-90090000D01*
X160250000Y-82050000D02*
X160250000Y-85154975D01*
%TO.N,/GPIO37*%
X159600500Y-84000000D02*
X159500000Y-84100500D01*
X159500000Y-84100500D02*
X159500000Y-94070000D01*
X159500000Y-94070000D02*
X162000000Y-96570000D01*
%TO.N,/GPIO20*%
X140500000Y-95390000D02*
X162000000Y-116890000D01*
X140500000Y-91700000D02*
X140500000Y-95390000D01*
%TO.N,/GPIO19*%
X139349500Y-91700000D02*
X139349500Y-96779500D01*
X139349500Y-96779500D02*
X162000000Y-119430000D01*
D23*
%TO.N,Net-(Q2-B)*%
X184293750Y-72100000D02*
X183375000Y-72100000D01*
X183375000Y-72100000D02*
X177893750Y-77581250D01*
D26*
%TO.N,Net-(J11-Pin_2)*%
X116800000Y-100600000D02*
X115700000Y-100600000D01*
X124000000Y-107800000D02*
X116800000Y-100600000D01*
X124000000Y-123400000D02*
X124000000Y-107800000D01*
X137535000Y-131000000D02*
X131600000Y-131000000D01*
X131600000Y-131000000D02*
X124000000Y-123400000D01*
%TD*%
%TA.AperFunction,Conductor*%
%TO.N,GND*%
G36*
X135219702Y-70030185D02*
G01*
X135265457Y-70082989D01*
X135275401Y-70152147D01*
X135268845Y-70177833D01*
X135255908Y-70212517D01*
X135249501Y-70272116D01*
X135249501Y-70272123D01*
X135249500Y-70272135D01*
X135249500Y-72067870D01*
X135249501Y-72067876D01*
X135255908Y-72127483D01*
X135306202Y-72262328D01*
X135306206Y-72262335D01*
X135392452Y-72377544D01*
X135392455Y-72377547D01*
X135507664Y-72463793D01*
X135507671Y-72463797D01*
X135639081Y-72512810D01*
X135695015Y-72554681D01*
X135719432Y-72620145D01*
X135704580Y-72688418D01*
X135683430Y-72716673D01*
X135561503Y-72838600D01*
X135425965Y-73032169D01*
X135425964Y-73032171D01*
X135326098Y-73246335D01*
X135326094Y-73246344D01*
X135264938Y-73474586D01*
X135264936Y-73474596D01*
X135244341Y-73709999D01*
X135244341Y-73710000D01*
X135264936Y-73945403D01*
X135264938Y-73945413D01*
X135326094Y-74173655D01*
X135326096Y-74173659D01*
X135326097Y-74173663D01*
X135397174Y-74326087D01*
X135425965Y-74387830D01*
X135425967Y-74387834D01*
X135514371Y-74514087D01*
X135560394Y-74579815D01*
X135561501Y-74581395D01*
X135561506Y-74581402D01*
X135728597Y-74748493D01*
X135728603Y-74748498D01*
X135914158Y-74878425D01*
X135957783Y-74933002D01*
X135964977Y-75002500D01*
X135933454Y-75064855D01*
X135914158Y-75081575D01*
X135728597Y-75211505D01*
X135561505Y-75378597D01*
X135425965Y-75572169D01*
X135425964Y-75572171D01*
X135326098Y-75786335D01*
X135326094Y-75786344D01*
X135264938Y-76014586D01*
X135264936Y-76014596D01*
X135244341Y-76249999D01*
X135244341Y-76250000D01*
X135264936Y-76485403D01*
X135264938Y-76485413D01*
X135326094Y-76713655D01*
X135326096Y-76713659D01*
X135326097Y-76713663D01*
X135394488Y-76860328D01*
X135425965Y-76927830D01*
X135425967Y-76927834D01*
X135510833Y-77049034D01*
X135561501Y-77121396D01*
X135561506Y-77121402D01*
X135728597Y-77288493D01*
X135728603Y-77288498D01*
X135914158Y-77418425D01*
X135957783Y-77473002D01*
X135964977Y-77542500D01*
X135933454Y-77604855D01*
X135914158Y-77621575D01*
X135728597Y-77751505D01*
X135561505Y-77918597D01*
X135425965Y-78112169D01*
X135425964Y-78112171D01*
X135326098Y-78326335D01*
X135326094Y-78326344D01*
X135264938Y-78554586D01*
X135264936Y-78554596D01*
X135244341Y-78789999D01*
X135244341Y-78790000D01*
X135264936Y-79025403D01*
X135264938Y-79025413D01*
X135326094Y-79253655D01*
X135326096Y-79253659D01*
X135326097Y-79253663D01*
X135400402Y-79413010D01*
X135425965Y-79467830D01*
X135425967Y-79467834D01*
X135561501Y-79661395D01*
X135561506Y-79661402D01*
X135728597Y-79828493D01*
X135728603Y-79828498D01*
X135914158Y-79958425D01*
X135957783Y-80013002D01*
X135964977Y-80082500D01*
X135933454Y-80144855D01*
X135914158Y-80161575D01*
X135728597Y-80291505D01*
X135561505Y-80458597D01*
X135425965Y-80652169D01*
X135425964Y-80652171D01*
X135326098Y-80866335D01*
X135326094Y-80866344D01*
X135264938Y-81094586D01*
X135264936Y-81094596D01*
X135244341Y-81329999D01*
X135244341Y-81330000D01*
X135264936Y-81565403D01*
X135264938Y-81565413D01*
X135299327Y-81693756D01*
X135297664Y-81763606D01*
X135267233Y-81813530D01*
X131706096Y-85374668D01*
X131699994Y-85380019D01*
X131671716Y-85401718D01*
X131592488Y-85504973D01*
X131575462Y-85527161D01*
X131575461Y-85527163D01*
X131514957Y-85673234D01*
X131514955Y-85673239D01*
X131494318Y-85829998D01*
X131498968Y-85865328D01*
X131499499Y-85873428D01*
X131499499Y-101599902D01*
X131479814Y-101666941D01*
X131463180Y-101687583D01*
X129106096Y-104044668D01*
X129099993Y-104050020D01*
X129071719Y-104071716D01*
X129047550Y-104103215D01*
X128975461Y-104197162D01*
X128975461Y-104197163D01*
X128914957Y-104343234D01*
X128914955Y-104343239D01*
X128894318Y-104499998D01*
X128894318Y-104500000D01*
X128898969Y-104535326D01*
X128899500Y-104543427D01*
X128899500Y-106899902D01*
X128879815Y-106966941D01*
X128863181Y-106987583D01*
X126187584Y-109663181D01*
X126126261Y-109696666D01*
X126099903Y-109699500D01*
X126005354Y-109699500D01*
X125972897Y-109706398D01*
X125820197Y-109738855D01*
X125820192Y-109738857D01*
X125647270Y-109815848D01*
X125647265Y-109815851D01*
X125494129Y-109927111D01*
X125367466Y-110067785D01*
X125272821Y-110231715D01*
X125272818Y-110231722D01*
X125242430Y-110325248D01*
X125202992Y-110382924D01*
X125138634Y-110410122D01*
X125069787Y-110398207D01*
X125018312Y-110350963D01*
X125000499Y-110286930D01*
X125000499Y-107812714D01*
X125002757Y-107723641D01*
X125002756Y-107723640D01*
X125002757Y-107723637D01*
X124991933Y-107663253D01*
X124991280Y-107658587D01*
X124985464Y-107601401D01*
X124985074Y-107597562D01*
X124974788Y-107564780D01*
X124972918Y-107557166D01*
X124966858Y-107523348D01*
X124944092Y-107466352D01*
X124942527Y-107461955D01*
X124924159Y-107403412D01*
X124907491Y-107373382D01*
X124904120Y-107366284D01*
X124891378Y-107334384D01*
X124891377Y-107334381D01*
X124883471Y-107322386D01*
X124857605Y-107283139D01*
X124855183Y-107279142D01*
X124825409Y-107225498D01*
X124803034Y-107199434D01*
X124798306Y-107193163D01*
X124779404Y-107164484D01*
X124779399Y-107164478D01*
X124747954Y-107133034D01*
X124736019Y-107121099D01*
X124732828Y-107117655D01*
X124707608Y-107088277D01*
X124692866Y-107071105D01*
X124665694Y-107050072D01*
X124659807Y-107044887D01*
X117516452Y-99901532D01*
X117455059Y-99836947D01*
X117427204Y-99817559D01*
X117404709Y-99801902D01*
X117400946Y-99799064D01*
X117353413Y-99760305D01*
X117353406Y-99760300D01*
X117322959Y-99744397D01*
X117316251Y-99740334D01*
X117288049Y-99720705D01*
X117288046Y-99720703D01*
X117288045Y-99720703D01*
X117288041Y-99720701D01*
X117231680Y-99696514D01*
X117227424Y-99694493D01*
X117173057Y-99666094D01*
X117173050Y-99666091D01*
X117173049Y-99666091D01*
X117167008Y-99664362D01*
X117140030Y-99656642D01*
X117132630Y-99654008D01*
X117101057Y-99640459D01*
X117101058Y-99640459D01*
X117040966Y-99628109D01*
X117036391Y-99626986D01*
X116977420Y-99610113D01*
X116977425Y-99610113D01*
X116943158Y-99607503D01*
X116935380Y-99606412D01*
X116901742Y-99599500D01*
X116901741Y-99599500D01*
X116840402Y-99599500D01*
X116835695Y-99599321D01*
X116830121Y-99598896D01*
X116774524Y-99594662D01*
X116754589Y-99597201D01*
X116740440Y-99599003D01*
X116732611Y-99599500D01*
X115649257Y-99599500D01*
X115497560Y-99614925D01*
X115303420Y-99675837D01*
X115303405Y-99675844D01*
X115125500Y-99774589D01*
X115125495Y-99774592D01*
X114971106Y-99907132D01*
X114971104Y-99907134D01*
X114846554Y-100068037D01*
X114846553Y-100068040D01*
X114756940Y-100250728D01*
X114705937Y-100447714D01*
X114695631Y-100650936D01*
X114726442Y-100852063D01*
X114726445Y-100852075D01*
X114797111Y-101042881D01*
X114797113Y-101042884D01*
X114797114Y-101042887D01*
X114814933Y-101071475D01*
X114904745Y-101215567D01*
X114904747Y-101215569D01*
X114904748Y-101215571D01*
X115044941Y-101363053D01*
X115173344Y-101452424D01*
X115211949Y-101479294D01*
X115211950Y-101479294D01*
X115211951Y-101479295D01*
X115398942Y-101559540D01*
X115598259Y-101600500D01*
X116334217Y-101600500D01*
X116401256Y-101620185D01*
X116421898Y-101636819D01*
X122963181Y-108178102D01*
X122996666Y-108239425D01*
X122999500Y-108265783D01*
X122999500Y-123387283D01*
X122997243Y-123476362D01*
X122997243Y-123476370D01*
X123008064Y-123536739D01*
X123008718Y-123541404D01*
X123014925Y-123602430D01*
X123014927Y-123602444D01*
X123025208Y-123635213D01*
X123027079Y-123642837D01*
X123033142Y-123676652D01*
X123033142Y-123676655D01*
X123055894Y-123733612D01*
X123057474Y-123738051D01*
X123075841Y-123796588D01*
X123075844Y-123796595D01*
X123092509Y-123826619D01*
X123095879Y-123833714D01*
X123108622Y-123865614D01*
X123108627Y-123865624D01*
X123142377Y-123916833D01*
X123144818Y-123920863D01*
X123174588Y-123974498D01*
X123174589Y-123974499D01*
X123174591Y-123974502D01*
X123196968Y-124000567D01*
X123201693Y-124006835D01*
X123214263Y-124025906D01*
X123220598Y-124035519D01*
X123263978Y-124078899D01*
X123267169Y-124082343D01*
X123307131Y-124128892D01*
X123307130Y-124128892D01*
X123334299Y-124149923D01*
X123340186Y-124155107D01*
X130883547Y-131698467D01*
X130944941Y-131763053D01*
X130944944Y-131763055D01*
X130944947Y-131763058D01*
X130979053Y-131786795D01*
X130995303Y-131798106D01*
X130999044Y-131800926D01*
X131046593Y-131839698D01*
X131077045Y-131855604D01*
X131083758Y-131859672D01*
X131111951Y-131879295D01*
X131168329Y-131903489D01*
X131172578Y-131905507D01*
X131226951Y-131933909D01*
X131254489Y-131941788D01*
X131259974Y-131943358D01*
X131267368Y-131945990D01*
X131298942Y-131959540D01*
X131298945Y-131959540D01*
X131298946Y-131959541D01*
X131359022Y-131971887D01*
X131363600Y-131973010D01*
X131377501Y-131976987D01*
X131422582Y-131989887D01*
X131456839Y-131992495D01*
X131464614Y-131993586D01*
X131498255Y-132000500D01*
X131498259Y-132000500D01*
X131559598Y-132000500D01*
X131564304Y-132000678D01*
X131599062Y-132003325D01*
X131625475Y-132005337D01*
X131625475Y-132005336D01*
X131625476Y-132005337D01*
X131659559Y-132000996D01*
X131667389Y-132000500D01*
X136574242Y-132000500D01*
X136641281Y-132020185D01*
X136661923Y-132036819D01*
X136663599Y-132038495D01*
X136760384Y-132106264D01*
X136857165Y-132174032D01*
X136857167Y-132174033D01*
X136857170Y-132174035D01*
X137071337Y-132273903D01*
X137299592Y-132335063D01*
X137476034Y-132350500D01*
X137534999Y-132355659D01*
X137535000Y-132355659D01*
X137535001Y-132355659D01*
X137593966Y-132350500D01*
X137770408Y-132335063D01*
X137998663Y-132273903D01*
X138212830Y-132174035D01*
X138406401Y-132038495D01*
X138528329Y-131916566D01*
X138589648Y-131883084D01*
X138659340Y-131888068D01*
X138715274Y-131929939D01*
X138732189Y-131960917D01*
X138781202Y-132092328D01*
X138781206Y-132092335D01*
X138867452Y-132207544D01*
X138867455Y-132207547D01*
X138982664Y-132293793D01*
X138982671Y-132293797D01*
X139117517Y-132344091D01*
X139117516Y-132344091D01*
X139124444Y-132344835D01*
X139177127Y-132350500D01*
X140972872Y-132350499D01*
X141032483Y-132344091D01*
X141167331Y-132293796D01*
X141282546Y-132207546D01*
X141368796Y-132092331D01*
X141419091Y-131957483D01*
X141425500Y-131897873D01*
X141425500Y-131774500D01*
X141445185Y-131707461D01*
X141497989Y-131661706D01*
X141549500Y-131650500D01*
X145214495Y-131650500D01*
X145230505Y-131652267D01*
X145230528Y-131652026D01*
X145238289Y-131652758D01*
X145238296Y-131652760D01*
X145310203Y-131650500D01*
X145340925Y-131650500D01*
X145348190Y-131649581D01*
X145354016Y-131649122D01*
X145402569Y-131647597D01*
X145422956Y-131641673D01*
X145441996Y-131637731D01*
X145463058Y-131635071D01*
X145508235Y-131617183D01*
X145513735Y-131615300D01*
X145560398Y-131601744D01*
X145578665Y-131590939D01*
X145596136Y-131582380D01*
X145615871Y-131574568D01*
X145655177Y-131546010D01*
X145660043Y-131542813D01*
X145701865Y-131518081D01*
X145716870Y-131503075D01*
X145731668Y-131490436D01*
X145748837Y-131477963D01*
X145779809Y-131440522D01*
X145783713Y-131436231D01*
X148383126Y-128836819D01*
X148444450Y-128803334D01*
X148470808Y-128800500D01*
X148494644Y-128800500D01*
X148494646Y-128800500D01*
X148679803Y-128761144D01*
X148852730Y-128684151D01*
X148854776Y-128682664D01*
X148866452Y-128674182D01*
X148932258Y-128650702D01*
X148939337Y-128650500D01*
X162988769Y-128650500D01*
X163055808Y-128670185D01*
X163101563Y-128722989D01*
X163111507Y-128792147D01*
X163082482Y-128855703D01*
X163076450Y-128862181D01*
X154514358Y-137424272D01*
X154500729Y-137436051D01*
X154481468Y-137450390D01*
X154447898Y-137490397D01*
X154444253Y-137494376D01*
X154438409Y-137500222D01*
X154418059Y-137525959D01*
X154368695Y-137584789D01*
X154364729Y-137590819D01*
X154364682Y-137590788D01*
X154360630Y-137597147D01*
X154360679Y-137597177D01*
X154356889Y-137603321D01*
X154324424Y-137672941D01*
X154289960Y-137741566D01*
X154287488Y-137748357D01*
X154287432Y-137748336D01*
X154284960Y-137755450D01*
X154285015Y-137755469D01*
X154282742Y-137762327D01*
X154274975Y-137799946D01*
X154267207Y-137837565D01*
X154254071Y-137892990D01*
X154249498Y-137912286D01*
X154248661Y-137919454D01*
X154248601Y-137919447D01*
X154247835Y-137926945D01*
X154247895Y-137926951D01*
X154247265Y-137934140D01*
X154249500Y-138010914D01*
X154249500Y-142037770D01*
X154229815Y-142104809D01*
X154213181Y-142125451D01*
X151125451Y-145213181D01*
X151064128Y-145246666D01*
X151037770Y-145249500D01*
X148062229Y-145249500D01*
X147995190Y-145229815D01*
X147974548Y-145213181D01*
X145296368Y-142535000D01*
X148138841Y-142535000D01*
X148159436Y-142770403D01*
X148159438Y-142770413D01*
X148220594Y-142998655D01*
X148220596Y-142998659D01*
X148220597Y-142998663D01*
X148290512Y-143148595D01*
X148320465Y-143212830D01*
X148320467Y-143212834D01*
X148428781Y-143367521D01*
X148456005Y-143406401D01*
X148623099Y-143573495D01*
X148719884Y-143641265D01*
X148816665Y-143709032D01*
X148816667Y-143709033D01*
X148816670Y-143709035D01*
X149030837Y-143808903D01*
X149259092Y-143870063D01*
X149447418Y-143886539D01*
X149494499Y-143890659D01*
X149494500Y-143890659D01*
X149494501Y-143890659D01*
X149533734Y-143887226D01*
X149729908Y-143870063D01*
X149958163Y-143808903D01*
X150172330Y-143709035D01*
X150365901Y-143573495D01*
X150532995Y-143406401D01*
X150668535Y-143212830D01*
X150768403Y-142998663D01*
X150829563Y-142770408D01*
X150850159Y-142535000D01*
X150829563Y-142299592D01*
X150768403Y-142071337D01*
X150668535Y-141857171D01*
X150619274Y-141786819D01*
X150532996Y-141663600D01*
X150532995Y-141663599D01*
X150411067Y-141541671D01*
X150377584Y-141480351D01*
X150382568Y-141410659D01*
X150424439Y-141354725D01*
X150455415Y-141337810D01*
X150586831Y-141288796D01*
X150702046Y-141202546D01*
X150788296Y-141087331D01*
X150838591Y-140952483D01*
X150845000Y-140892873D01*
X150844999Y-139097128D01*
X150838591Y-139037517D01*
X150788296Y-138902669D01*
X150788295Y-138902668D01*
X150788293Y-138902664D01*
X150702047Y-138787455D01*
X150702044Y-138787452D01*
X150586835Y-138701206D01*
X150586828Y-138701202D01*
X150451982Y-138650908D01*
X150451983Y-138650908D01*
X150392383Y-138644501D01*
X150392381Y-138644500D01*
X150392373Y-138644500D01*
X150392364Y-138644500D01*
X148596629Y-138644500D01*
X148596623Y-138644501D01*
X148537016Y-138650908D01*
X148402171Y-138701202D01*
X148402164Y-138701206D01*
X148286955Y-138787452D01*
X148286952Y-138787455D01*
X148200706Y-138902664D01*
X148200702Y-138902671D01*
X148150408Y-139037517D01*
X148144001Y-139097116D01*
X148144001Y-139097123D01*
X148144000Y-139097135D01*
X148144000Y-140892870D01*
X148144001Y-140892876D01*
X148150408Y-140952483D01*
X148200702Y-141087328D01*
X148200706Y-141087335D01*
X148286952Y-141202544D01*
X148286955Y-141202547D01*
X148402164Y-141288793D01*
X148402171Y-141288797D01*
X148533581Y-141337810D01*
X148589515Y-141379681D01*
X148613932Y-141445145D01*
X148599080Y-141513418D01*
X148577930Y-141541673D01*
X148456003Y-141663600D01*
X148320465Y-141857169D01*
X148320464Y-141857171D01*
X148220598Y-142071335D01*
X148220594Y-142071344D01*
X148159438Y-142299586D01*
X148159436Y-142299596D01*
X148138841Y-142534999D01*
X148138841Y-142535000D01*
X145296368Y-142535000D01*
X143612770Y-140851402D01*
X143582521Y-140802041D01*
X143527179Y-140631716D01*
X143432533Y-140467784D01*
X143305871Y-140327112D01*
X143302638Y-140324763D01*
X143152734Y-140215851D01*
X143152729Y-140215848D01*
X142979807Y-140138857D01*
X142979802Y-140138855D01*
X142834000Y-140107865D01*
X142794646Y-140099500D01*
X142605354Y-140099500D01*
X142572897Y-140106398D01*
X142420197Y-140138855D01*
X142420192Y-140138857D01*
X142247270Y-140215848D01*
X142247265Y-140215851D01*
X142233548Y-140225818D01*
X142167742Y-140249298D01*
X142160663Y-140249500D01*
X115963705Y-140249500D01*
X115945735Y-140248191D01*
X115921972Y-140244710D01*
X115876890Y-140248655D01*
X115869933Y-140249264D01*
X115864532Y-140249500D01*
X115856287Y-140249500D01*
X115830222Y-140252546D01*
X115823705Y-140253308D01*
X115818403Y-140253771D01*
X115747201Y-140260001D01*
X115740134Y-140261461D01*
X115740122Y-140261404D01*
X115732753Y-140263038D01*
X115732767Y-140263095D01*
X115725739Y-140264760D01*
X115670536Y-140284852D01*
X115653563Y-140291030D01*
X115580666Y-140315186D01*
X115580664Y-140315186D01*
X115580661Y-140315188D01*
X115574122Y-140318237D01*
X115574097Y-140318185D01*
X115567308Y-140321471D01*
X115567334Y-140321522D01*
X115560884Y-140324761D01*
X115496716Y-140366964D01*
X115431347Y-140407285D01*
X115425677Y-140411769D01*
X115425641Y-140411723D01*
X115419798Y-140416484D01*
X115419835Y-140416528D01*
X115414310Y-140421164D01*
X115361614Y-140477017D01*
X114862181Y-140976450D01*
X114800858Y-141009935D01*
X114731166Y-141004951D01*
X114675233Y-140963079D01*
X114650816Y-140897615D01*
X114650500Y-140888769D01*
X114650500Y-134735000D01*
X147938841Y-134735000D01*
X147959436Y-134970403D01*
X147959438Y-134970413D01*
X148020594Y-135198655D01*
X148020596Y-135198659D01*
X148020597Y-135198663D01*
X148120464Y-135412830D01*
X148120465Y-135412830D01*
X148120467Y-135412834D01*
X148228781Y-135567521D01*
X148256005Y-135606401D01*
X148423099Y-135773495D01*
X148499671Y-135827111D01*
X148616665Y-135909032D01*
X148616667Y-135909033D01*
X148616670Y-135909035D01*
X148830837Y-136008903D01*
X149059092Y-136070063D01*
X149247418Y-136086539D01*
X149294499Y-136090659D01*
X149294500Y-136090659D01*
X149294501Y-136090659D01*
X149333734Y-136087226D01*
X149529908Y-136070063D01*
X149758163Y-136008903D01*
X149972330Y-135909035D01*
X150165901Y-135773495D01*
X150332995Y-135606401D01*
X150468535Y-135412830D01*
X150568403Y-135198663D01*
X150629563Y-134970408D01*
X150650159Y-134735000D01*
X150629563Y-134499592D01*
X150568403Y-134271337D01*
X150468535Y-134057171D01*
X150332995Y-133863599D01*
X150211067Y-133741671D01*
X150177584Y-133680351D01*
X150182568Y-133610659D01*
X150224439Y-133554725D01*
X150255415Y-133537810D01*
X150386831Y-133488796D01*
X150502046Y-133402546D01*
X150588296Y-133287331D01*
X150638591Y-133152483D01*
X150645000Y-133092873D01*
X150644999Y-131297128D01*
X150638591Y-131237517D01*
X150588296Y-131102669D01*
X150588295Y-131102668D01*
X150588293Y-131102664D01*
X150502047Y-130987455D01*
X150502044Y-130987452D01*
X150386835Y-130901206D01*
X150386828Y-130901202D01*
X150251982Y-130850908D01*
X150251983Y-130850908D01*
X150192383Y-130844501D01*
X150192381Y-130844500D01*
X150192373Y-130844500D01*
X150192364Y-130844500D01*
X148396629Y-130844500D01*
X148396623Y-130844501D01*
X148337016Y-130850908D01*
X148202171Y-130901202D01*
X148202164Y-130901206D01*
X148086955Y-130987452D01*
X148086952Y-130987455D01*
X148000706Y-131102664D01*
X148000702Y-131102671D01*
X147950408Y-131237517D01*
X147944001Y-131297116D01*
X147944001Y-131297123D01*
X147944000Y-131297135D01*
X147944000Y-133092870D01*
X147944001Y-133092876D01*
X147950408Y-133152483D01*
X148000702Y-133287328D01*
X148000706Y-133287335D01*
X148086952Y-133402544D01*
X148086955Y-133402547D01*
X148202164Y-133488793D01*
X148202171Y-133488797D01*
X148333581Y-133537810D01*
X148389515Y-133579681D01*
X148413932Y-133645145D01*
X148399080Y-133713418D01*
X148377930Y-133741673D01*
X148256003Y-133863600D01*
X148120465Y-134057169D01*
X148120464Y-134057171D01*
X148020598Y-134271335D01*
X148020594Y-134271344D01*
X147959438Y-134499586D01*
X147959436Y-134499596D01*
X147938841Y-134734999D01*
X147938841Y-134735000D01*
X114650500Y-134735000D01*
X114650500Y-119163705D01*
X114651809Y-119145735D01*
X114655289Y-119121974D01*
X114650736Y-119069939D01*
X114650500Y-119064532D01*
X114650500Y-119056297D01*
X114650500Y-119056291D01*
X114646691Y-119023707D01*
X114639998Y-118947202D01*
X114639996Y-118947197D01*
X114638538Y-118940133D01*
X114638597Y-118940120D01*
X114636967Y-118932764D01*
X114636908Y-118932779D01*
X114635241Y-118925751D01*
X114635241Y-118925745D01*
X114608966Y-118853556D01*
X114584813Y-118780665D01*
X114584808Y-118780658D01*
X114581760Y-118774119D01*
X114581815Y-118774092D01*
X114578529Y-118767305D01*
X114578476Y-118767332D01*
X114575238Y-118760883D01*
X114533023Y-118696700D01*
X114492709Y-118631341D01*
X114488233Y-118625681D01*
X114488280Y-118625643D01*
X114483519Y-118619799D01*
X114483474Y-118619838D01*
X114478834Y-118614308D01*
X114422964Y-118561596D01*
X112586819Y-116725450D01*
X112553334Y-116664127D01*
X112550500Y-116637769D01*
X112550500Y-115825000D01*
X114154341Y-115825000D01*
X114174936Y-116060403D01*
X114174938Y-116060413D01*
X114236094Y-116288655D01*
X114236096Y-116288659D01*
X114236097Y-116288663D01*
X114319626Y-116467791D01*
X114335965Y-116502830D01*
X114335967Y-116502834D01*
X114367334Y-116547630D01*
X114471505Y-116696401D01*
X114638599Y-116863495D01*
X114716217Y-116917844D01*
X114832165Y-116999032D01*
X114832167Y-116999033D01*
X114832170Y-116999035D01*
X115046337Y-117098903D01*
X115274592Y-117160063D01*
X115451034Y-117175500D01*
X115509999Y-117180659D01*
X115510000Y-117180659D01*
X115510001Y-117180659D01*
X115568966Y-117175500D01*
X115745408Y-117160063D01*
X115973663Y-117098903D01*
X116187830Y-116999035D01*
X116381401Y-116863495D01*
X116503329Y-116741566D01*
X116564648Y-116708084D01*
X116634340Y-116713068D01*
X116690274Y-116754939D01*
X116707189Y-116785917D01*
X116756202Y-116917328D01*
X116756206Y-116917335D01*
X116842452Y-117032544D01*
X116842455Y-117032547D01*
X116957664Y-117118793D01*
X116957671Y-117118797D01*
X117092517Y-117169091D01*
X117092516Y-117169091D01*
X117099444Y-117169835D01*
X117152127Y-117175500D01*
X118947872Y-117175499D01*
X119007483Y-117169091D01*
X119142331Y-117118796D01*
X119257546Y-117032546D01*
X119343796Y-116917331D01*
X119394091Y-116782483D01*
X119400500Y-116722873D01*
X119400499Y-114927128D01*
X119394091Y-114867517D01*
X119392810Y-114864083D01*
X119343797Y-114732671D01*
X119343793Y-114732664D01*
X119257547Y-114617455D01*
X119257544Y-114617452D01*
X119142335Y-114531206D01*
X119142328Y-114531202D01*
X119007482Y-114480908D01*
X119007483Y-114480908D01*
X118947883Y-114474501D01*
X118947881Y-114474500D01*
X118947873Y-114474500D01*
X118947864Y-114474500D01*
X117152129Y-114474500D01*
X117152123Y-114474501D01*
X117092516Y-114480908D01*
X116957671Y-114531202D01*
X116957664Y-114531206D01*
X116842455Y-114617452D01*
X116842452Y-114617455D01*
X116756206Y-114732664D01*
X116756203Y-114732669D01*
X116707189Y-114864083D01*
X116665317Y-114920016D01*
X116599853Y-114944433D01*
X116531580Y-114929581D01*
X116503326Y-114908430D01*
X116381402Y-114786506D01*
X116381395Y-114786501D01*
X116187834Y-114650967D01*
X116187830Y-114650965D01*
X116124488Y-114621428D01*
X115973663Y-114551097D01*
X115973659Y-114551096D01*
X115973655Y-114551094D01*
X115745413Y-114489938D01*
X115745403Y-114489936D01*
X115510001Y-114469341D01*
X115509999Y-114469341D01*
X115274596Y-114489936D01*
X115274586Y-114489938D01*
X115046344Y-114551094D01*
X115046335Y-114551098D01*
X114832171Y-114650964D01*
X114832169Y-114650965D01*
X114638597Y-114786505D01*
X114471505Y-114953597D01*
X114335965Y-115147169D01*
X114335964Y-115147171D01*
X114236098Y-115361335D01*
X114236094Y-115361344D01*
X114174938Y-115589586D01*
X114174936Y-115589596D01*
X114154341Y-115824999D01*
X114154341Y-115825000D01*
X112550500Y-115825000D01*
X112550500Y-108063705D01*
X112551809Y-108045735D01*
X112555289Y-108021974D01*
X112550736Y-107969939D01*
X112550500Y-107964532D01*
X112550500Y-107956297D01*
X112550500Y-107956291D01*
X112546691Y-107923707D01*
X112539998Y-107847202D01*
X112539996Y-107847197D01*
X112538538Y-107840133D01*
X112538597Y-107840120D01*
X112536967Y-107832764D01*
X112536908Y-107832779D01*
X112535242Y-107825753D01*
X112535241Y-107825745D01*
X112508973Y-107753573D01*
X112499055Y-107723641D01*
X112484815Y-107680666D01*
X112481763Y-107674121D01*
X112481817Y-107674095D01*
X112478533Y-107667312D01*
X112478480Y-107667340D01*
X112475238Y-107660886D01*
X112475237Y-107660883D01*
X112433038Y-107596723D01*
X112392712Y-107531344D01*
X112392711Y-107531343D01*
X112392710Y-107531341D01*
X112388234Y-107525681D01*
X112388280Y-107525643D01*
X112383519Y-107519799D01*
X112383474Y-107519838D01*
X112378834Y-107514309D01*
X112378832Y-107514307D01*
X112378830Y-107514304D01*
X112322982Y-107461614D01*
X112281646Y-107420278D01*
X112248160Y-107358956D01*
X112253144Y-107289264D01*
X112295014Y-107233330D01*
X112326916Y-107216073D01*
X112334637Y-107213263D01*
X112346424Y-107208974D01*
X112360953Y-107204158D01*
X112419334Y-107184814D01*
X112419343Y-107184807D01*
X112425882Y-107181760D01*
X112425908Y-107181816D01*
X112432690Y-107178532D01*
X112432663Y-107178478D01*
X112439106Y-107175240D01*
X112439117Y-107175237D01*
X112503283Y-107133034D01*
X112568656Y-107092712D01*
X112568662Y-107092705D01*
X112574325Y-107088229D01*
X112574362Y-107088277D01*
X112580204Y-107083518D01*
X112580164Y-107083471D01*
X112585686Y-107078836D01*
X112585696Y-107078830D01*
X112607399Y-107055825D01*
X112638387Y-107022981D01*
X113166781Y-106494586D01*
X113485642Y-106175724D01*
X113499257Y-106163958D01*
X113518530Y-106149610D01*
X113552123Y-106109574D01*
X113555757Y-106105608D01*
X113561590Y-106099777D01*
X113581927Y-106074055D01*
X113584236Y-106071304D01*
X113600292Y-106052169D01*
X113631302Y-106015214D01*
X113631304Y-106015209D01*
X113635272Y-106009179D01*
X113635323Y-106009212D01*
X113639369Y-106002860D01*
X113639317Y-106002828D01*
X113643109Y-105996679D01*
X113643111Y-105996677D01*
X113675569Y-105927069D01*
X113710040Y-105858433D01*
X113710043Y-105858417D01*
X113712510Y-105851644D01*
X113712568Y-105851665D01*
X113715043Y-105844546D01*
X113714985Y-105844527D01*
X113717256Y-105837672D01*
X113719437Y-105827112D01*
X113732784Y-105762467D01*
X113750500Y-105687721D01*
X113750500Y-105687720D01*
X113751339Y-105680548D01*
X113751397Y-105680554D01*
X113752164Y-105673056D01*
X113752104Y-105673051D01*
X113752733Y-105665860D01*
X113751947Y-105638857D01*
X113750500Y-105589102D01*
X113750500Y-95644500D01*
X113770185Y-95577461D01*
X113822989Y-95531706D01*
X113874500Y-95520500D01*
X122766295Y-95520500D01*
X122784265Y-95521809D01*
X122808023Y-95525289D01*
X122860068Y-95520735D01*
X122865470Y-95520500D01*
X122873704Y-95520500D01*
X122873709Y-95520500D01*
X122885327Y-95519141D01*
X122906276Y-95516693D01*
X122919028Y-95515577D01*
X122982797Y-95509999D01*
X122982805Y-95509996D01*
X122989866Y-95508539D01*
X122989878Y-95508598D01*
X122997243Y-95506965D01*
X122997229Y-95506906D01*
X123004246Y-95505241D01*
X123004255Y-95505241D01*
X123076423Y-95478974D01*
X123149334Y-95454814D01*
X123149343Y-95454807D01*
X123155882Y-95451760D01*
X123155908Y-95451816D01*
X123162690Y-95448532D01*
X123162663Y-95448478D01*
X123169106Y-95445240D01*
X123169117Y-95445237D01*
X123233283Y-95403034D01*
X123298656Y-95362712D01*
X123298662Y-95362705D01*
X123304325Y-95358229D01*
X123304362Y-95358277D01*
X123310204Y-95353518D01*
X123310164Y-95353471D01*
X123315691Y-95348832D01*
X123315696Y-95348830D01*
X123316158Y-95348341D01*
X123368386Y-95292981D01*
X124694744Y-93966623D01*
X128785638Y-89875727D01*
X128799267Y-89863950D01*
X128818530Y-89849610D01*
X128818532Y-89849606D01*
X128818534Y-89849606D01*
X128842199Y-89821402D01*
X128852113Y-89809585D01*
X128855767Y-89805599D01*
X128861589Y-89799778D01*
X128881928Y-89774054D01*
X128887162Y-89767815D01*
X128931302Y-89715214D01*
X128931304Y-89715209D01*
X128935272Y-89709179D01*
X128935323Y-89709212D01*
X128939369Y-89702860D01*
X128939317Y-89702828D01*
X128943109Y-89696679D01*
X128943111Y-89696677D01*
X128975569Y-89627069D01*
X129010040Y-89558433D01*
X129010043Y-89558417D01*
X129012510Y-89551644D01*
X129012568Y-89551665D01*
X129015043Y-89544546D01*
X129014985Y-89544527D01*
X129017256Y-89537672D01*
X129032784Y-89462467D01*
X129050500Y-89387720D01*
X129051339Y-89380548D01*
X129051397Y-89380554D01*
X129052164Y-89373056D01*
X129052104Y-89373051D01*
X129052733Y-89365860D01*
X129050500Y-89289103D01*
X129050500Y-82874500D01*
X129070185Y-82807461D01*
X129122989Y-82761706D01*
X129174500Y-82750500D01*
X132860663Y-82750500D01*
X132927702Y-82770185D01*
X132933548Y-82774182D01*
X132947265Y-82784148D01*
X132947270Y-82784151D01*
X133120192Y-82861142D01*
X133120197Y-82861144D01*
X133305354Y-82900500D01*
X133305355Y-82900500D01*
X133494644Y-82900500D01*
X133494646Y-82900500D01*
X133679803Y-82861144D01*
X133852730Y-82784151D01*
X134005871Y-82672888D01*
X134132533Y-82532216D01*
X134227179Y-82368284D01*
X134285674Y-82188256D01*
X134305460Y-82000000D01*
X134285674Y-81811744D01*
X134227179Y-81631716D01*
X134132533Y-81467784D01*
X134005871Y-81327112D01*
X133980152Y-81308426D01*
X133852734Y-81215851D01*
X133852729Y-81215848D01*
X133679807Y-81138857D01*
X133679802Y-81138855D01*
X133533525Y-81107764D01*
X133494646Y-81099500D01*
X133305354Y-81099500D01*
X133272897Y-81106398D01*
X133120197Y-81138855D01*
X133120192Y-81138857D01*
X132947270Y-81215848D01*
X132947265Y-81215851D01*
X132933548Y-81225818D01*
X132867742Y-81249298D01*
X132860663Y-81249500D01*
X128323641Y-81249500D01*
X128320040Y-81249395D01*
X128256065Y-81245669D01*
X128256064Y-81245669D01*
X128245023Y-81247616D01*
X128223491Y-81249500D01*
X116907229Y-81249500D01*
X116840190Y-81229815D01*
X116819548Y-81213181D01*
X111547869Y-75941501D01*
X111514384Y-75880178D01*
X111512022Y-75843012D01*
X111512154Y-75841514D01*
X111530659Y-75630000D01*
X111510063Y-75394592D01*
X111448903Y-75166337D01*
X111440292Y-75147870D01*
X125204500Y-75147870D01*
X125204501Y-75147876D01*
X125210908Y-75207483D01*
X125261202Y-75342328D01*
X125261206Y-75342335D01*
X125347452Y-75457544D01*
X125347455Y-75457547D01*
X125462664Y-75543793D01*
X125462671Y-75543797D01*
X125597517Y-75594091D01*
X125597516Y-75594091D01*
X125604444Y-75594835D01*
X125657127Y-75600500D01*
X127452872Y-75600499D01*
X127512483Y-75594091D01*
X127647331Y-75543796D01*
X127762546Y-75457546D01*
X127848796Y-75342331D01*
X127899091Y-75207483D01*
X127905500Y-75147873D01*
X127905499Y-73352128D01*
X127899091Y-73292517D01*
X127895063Y-73281718D01*
X127848797Y-73157671D01*
X127848793Y-73157664D01*
X127762547Y-73042455D01*
X127762544Y-73042452D01*
X127647335Y-72956206D01*
X127647328Y-72956202D01*
X127512482Y-72905908D01*
X127512483Y-72905908D01*
X127452883Y-72899501D01*
X127452881Y-72899500D01*
X127452873Y-72899500D01*
X127452864Y-72899500D01*
X125657129Y-72899500D01*
X125657123Y-72899501D01*
X125597516Y-72905908D01*
X125462671Y-72956202D01*
X125462664Y-72956206D01*
X125347455Y-73042452D01*
X125347452Y-73042455D01*
X125261206Y-73157664D01*
X125261202Y-73157671D01*
X125210908Y-73292517D01*
X125204501Y-73352116D01*
X125204501Y-73352123D01*
X125204500Y-73352135D01*
X125204500Y-75147870D01*
X111440292Y-75147870D01*
X111349035Y-74952171D01*
X111321199Y-74912416D01*
X111213494Y-74758597D01*
X111046402Y-74591506D01*
X111046395Y-74591501D01*
X110852834Y-74455967D01*
X110852830Y-74455965D01*
X110794465Y-74428749D01*
X110638663Y-74356097D01*
X110638659Y-74356096D01*
X110638655Y-74356094D01*
X110410413Y-74294938D01*
X110410403Y-74294936D01*
X110175001Y-74274341D01*
X110174999Y-74274341D01*
X109939596Y-74294936D01*
X109939586Y-74294938D01*
X109711344Y-74356094D01*
X109711335Y-74356098D01*
X109497171Y-74455964D01*
X109497169Y-74455965D01*
X109303597Y-74591505D01*
X109136505Y-74758597D01*
X109000965Y-74952169D01*
X109000964Y-74952171D01*
X108901098Y-75166335D01*
X108901094Y-75166344D01*
X108839938Y-75394586D01*
X108839936Y-75394596D01*
X108819341Y-75629999D01*
X108819341Y-75630000D01*
X108839936Y-75865403D01*
X108839938Y-75865413D01*
X108901094Y-76093655D01*
X108901096Y-76093659D01*
X108901097Y-76093663D01*
X108989058Y-76282296D01*
X109000965Y-76307830D01*
X109000967Y-76307834D01*
X109109281Y-76462521D01*
X109136505Y-76501401D01*
X109303599Y-76668495D01*
X109368094Y-76713655D01*
X109497165Y-76804032D01*
X109497167Y-76804033D01*
X109497170Y-76804035D01*
X109711337Y-76903903D01*
X109711343Y-76903904D01*
X109711344Y-76903905D01*
X109727978Y-76908362D01*
X109939592Y-76965063D01*
X110127918Y-76981539D01*
X110174999Y-76985659D01*
X110175000Y-76985659D01*
X110175001Y-76985659D01*
X110210284Y-76982571D01*
X110388013Y-76967022D01*
X110456512Y-76980788D01*
X110486501Y-77002869D01*
X115969267Y-82485634D01*
X115981048Y-82499266D01*
X115995390Y-82518530D01*
X116035420Y-82552119D01*
X116039392Y-82555759D01*
X116045223Y-82561590D01*
X116045222Y-82561590D01*
X116058605Y-82572171D01*
X116070944Y-82581927D01*
X116129786Y-82631302D01*
X116129794Y-82631306D01*
X116135824Y-82635273D01*
X116135790Y-82635323D01*
X116142137Y-82639366D01*
X116142169Y-82639316D01*
X116148318Y-82643108D01*
X116148320Y-82643109D01*
X116148323Y-82643111D01*
X116217930Y-82675569D01*
X116286567Y-82710040D01*
X116286576Y-82710042D01*
X116293355Y-82712510D01*
X116293334Y-82712567D01*
X116300451Y-82715040D01*
X116300470Y-82714984D01*
X116307330Y-82717257D01*
X116382532Y-82732784D01*
X116457279Y-82750500D01*
X116457288Y-82750500D01*
X116464452Y-82751338D01*
X116464445Y-82751397D01*
X116471946Y-82752163D01*
X116471952Y-82752104D01*
X116479140Y-82752733D01*
X116479143Y-82752732D01*
X116479144Y-82752733D01*
X116555898Y-82750500D01*
X127425500Y-82750500D01*
X127492539Y-82770185D01*
X127538294Y-82822989D01*
X127549499Y-82874499D01*
X127549499Y-85916881D01*
X127549499Y-88937769D01*
X127529814Y-89004808D01*
X127513180Y-89025450D01*
X122555451Y-93983181D01*
X122494128Y-94016666D01*
X122467770Y-94019500D01*
X113163705Y-94019500D01*
X113145735Y-94018191D01*
X113121972Y-94014710D01*
X113076890Y-94018655D01*
X113069933Y-94019264D01*
X113064532Y-94019500D01*
X111362701Y-94019500D01*
X111295662Y-93999815D01*
X111261126Y-93966623D01*
X111213496Y-93898600D01*
X111172479Y-93857583D01*
X111091567Y-93776671D01*
X111058084Y-93715351D01*
X111063068Y-93645659D01*
X111104939Y-93589725D01*
X111135915Y-93572810D01*
X111267331Y-93523796D01*
X111382546Y-93437546D01*
X111468796Y-93322331D01*
X111519091Y-93187483D01*
X111525500Y-93127873D01*
X111525499Y-91332128D01*
X111519091Y-91272517D01*
X111512405Y-91254592D01*
X111468797Y-91137671D01*
X111468793Y-91137664D01*
X111382547Y-91022455D01*
X111382544Y-91022452D01*
X111267335Y-90936206D01*
X111267328Y-90936202D01*
X111132482Y-90885908D01*
X111132483Y-90885908D01*
X111072883Y-90879501D01*
X111072881Y-90879500D01*
X111072873Y-90879500D01*
X111072864Y-90879500D01*
X109277129Y-90879500D01*
X109277123Y-90879501D01*
X109217516Y-90885908D01*
X109082671Y-90936202D01*
X109082664Y-90936206D01*
X108967455Y-91022452D01*
X108967452Y-91022455D01*
X108881206Y-91137664D01*
X108881202Y-91137671D01*
X108830908Y-91272517D01*
X108824501Y-91332116D01*
X108824501Y-91332123D01*
X108824500Y-91332135D01*
X108824500Y-93127870D01*
X108824501Y-93127876D01*
X108830908Y-93187483D01*
X108881202Y-93322328D01*
X108881206Y-93322335D01*
X108967452Y-93437544D01*
X108967455Y-93437547D01*
X109082664Y-93523793D01*
X109082671Y-93523797D01*
X109214081Y-93572810D01*
X109270015Y-93614681D01*
X109294432Y-93680145D01*
X109279580Y-93748418D01*
X109258430Y-93776673D01*
X109136503Y-93898600D01*
X109000965Y-94092169D01*
X109000964Y-94092171D01*
X108901098Y-94306335D01*
X108901094Y-94306344D01*
X108839938Y-94534586D01*
X108839936Y-94534596D01*
X108819341Y-94769999D01*
X108819341Y-94770000D01*
X108839936Y-95005403D01*
X108839938Y-95005413D01*
X108901094Y-95233655D01*
X108901096Y-95233659D01*
X108901097Y-95233663D01*
X108964177Y-95368938D01*
X109000965Y-95447830D01*
X109000967Y-95447834D01*
X109109281Y-95602521D01*
X109136505Y-95641401D01*
X109303599Y-95808495D01*
X109399723Y-95875802D01*
X109497165Y-95944032D01*
X109497167Y-95944033D01*
X109497170Y-95944035D01*
X109711337Y-96043903D01*
X109939592Y-96105063D01*
X110127918Y-96121539D01*
X110174999Y-96125659D01*
X110175000Y-96125659D01*
X110175001Y-96125659D01*
X110214234Y-96122226D01*
X110410408Y-96105063D01*
X110638663Y-96043903D01*
X110852830Y-95944035D01*
X111046401Y-95808495D01*
X111213495Y-95641401D01*
X111251150Y-95587623D01*
X111261127Y-95573376D01*
X111315704Y-95529751D01*
X111362701Y-95520500D01*
X112125500Y-95520500D01*
X112192539Y-95540185D01*
X112238294Y-95592989D01*
X112249500Y-95644500D01*
X112249500Y-105237769D01*
X112229815Y-105304808D01*
X112213181Y-105325450D01*
X111825451Y-105713181D01*
X111764128Y-105746666D01*
X111737770Y-105749500D01*
X110839337Y-105749500D01*
X110772298Y-105729815D01*
X110766452Y-105725818D01*
X110752734Y-105715851D01*
X110752729Y-105715848D01*
X110579807Y-105638857D01*
X110579802Y-105638855D01*
X110434001Y-105607865D01*
X110394646Y-105599500D01*
X110205354Y-105599500D01*
X110172897Y-105606398D01*
X110020197Y-105638855D01*
X110020192Y-105638857D01*
X109847270Y-105715848D01*
X109847265Y-105715851D01*
X109694129Y-105827111D01*
X109567466Y-105967785D01*
X109472821Y-106131715D01*
X109472818Y-106131722D01*
X109429077Y-106266344D01*
X109414326Y-106311744D01*
X109394540Y-106500000D01*
X109414326Y-106688256D01*
X109414327Y-106688259D01*
X109472818Y-106868277D01*
X109472821Y-106868284D01*
X109567467Y-107032216D01*
X109683099Y-107160638D01*
X109694129Y-107172888D01*
X109847265Y-107284148D01*
X109847270Y-107284151D01*
X110020191Y-107361142D01*
X110020194Y-107361142D01*
X110020197Y-107361144D01*
X110044380Y-107366284D01*
X110085329Y-107374988D01*
X110146811Y-107408180D01*
X110147230Y-107408597D01*
X111013181Y-108274548D01*
X111046666Y-108335871D01*
X111049500Y-108362229D01*
X111049500Y-116936294D01*
X111048191Y-116954263D01*
X111044710Y-116978025D01*
X111049264Y-117030064D01*
X111049500Y-117035470D01*
X111049500Y-117043709D01*
X111053306Y-117076274D01*
X111060000Y-117152791D01*
X111061461Y-117159867D01*
X111061403Y-117159878D01*
X111063034Y-117167237D01*
X111063092Y-117167224D01*
X111064757Y-117174250D01*
X111091025Y-117246424D01*
X111115185Y-117319331D01*
X111118236Y-117325874D01*
X111118182Y-117325898D01*
X111121470Y-117332688D01*
X111121521Y-117332663D01*
X111124761Y-117339113D01*
X111124762Y-117339114D01*
X111124763Y-117339117D01*
X111134325Y-117353655D01*
X111166965Y-117403283D01*
X111207287Y-117468655D01*
X111211766Y-117474319D01*
X111211719Y-117474356D01*
X111216482Y-117480202D01*
X111216528Y-117480164D01*
X111221173Y-117485700D01*
X111277018Y-117538386D01*
X113113181Y-119374548D01*
X113146666Y-119435871D01*
X113149500Y-119462229D01*
X113149499Y-142465677D01*
X113132887Y-142527676D01*
X113072820Y-142631716D01*
X113015150Y-142809208D01*
X113014326Y-142811744D01*
X112994540Y-143000000D01*
X113014326Y-143188256D01*
X113014327Y-143188259D01*
X113072818Y-143368277D01*
X113072821Y-143368284D01*
X113167467Y-143532216D01*
X113204635Y-143573495D01*
X113294129Y-143672888D01*
X113447265Y-143784148D01*
X113447270Y-143784151D01*
X113620192Y-143861142D01*
X113620197Y-143861144D01*
X113805354Y-143900500D01*
X113805355Y-143900500D01*
X113994644Y-143900500D01*
X113994646Y-143900500D01*
X114179803Y-143861144D01*
X114352730Y-143784151D01*
X114505871Y-143672888D01*
X114632533Y-143532216D01*
X114727179Y-143368284D01*
X114782522Y-143197955D01*
X114812769Y-143148597D01*
X116174548Y-141786819D01*
X116235871Y-141753334D01*
X116262229Y-141750500D01*
X142160663Y-141750500D01*
X142227702Y-141770185D01*
X142233548Y-141774182D01*
X142247265Y-141784148D01*
X142247270Y-141784151D01*
X142420191Y-141861142D01*
X142420193Y-141861142D01*
X142420197Y-141861144D01*
X142485329Y-141874987D01*
X142546809Y-141908178D01*
X142547228Y-141908596D01*
X147124270Y-146485638D01*
X147136051Y-146499270D01*
X147150388Y-146518528D01*
X147190409Y-146552111D01*
X147194397Y-146555766D01*
X147200216Y-146561585D01*
X147200220Y-146561588D01*
X147200223Y-146561591D01*
X147225959Y-146581940D01*
X147284786Y-146631302D01*
X147284787Y-146631302D01*
X147284789Y-146631304D01*
X147290818Y-146635270D01*
X147290785Y-146635319D01*
X147297147Y-146639372D01*
X147297179Y-146639321D01*
X147303319Y-146643108D01*
X147303323Y-146643111D01*
X147338132Y-146659342D01*
X147372941Y-146675575D01*
X147391336Y-146684813D01*
X147441567Y-146710040D01*
X147441569Y-146710040D01*
X147448357Y-146712511D01*
X147448336Y-146712567D01*
X147455457Y-146715043D01*
X147455476Y-146714986D01*
X147462322Y-146717254D01*
X147462327Y-146717257D01*
X147462332Y-146717258D01*
X147462335Y-146717259D01*
X147537564Y-146732792D01*
X147537565Y-146732792D01*
X147612279Y-146750500D01*
X147612282Y-146750500D01*
X147612286Y-146750501D01*
X147619453Y-146751339D01*
X147619446Y-146751398D01*
X147626944Y-146752164D01*
X147626950Y-146752105D01*
X147634139Y-146752734D01*
X147634143Y-146752733D01*
X147634144Y-146752734D01*
X147710917Y-146750500D01*
X151336295Y-146750500D01*
X151354265Y-146751809D01*
X151378023Y-146755289D01*
X151430068Y-146750735D01*
X151435470Y-146750500D01*
X151443704Y-146750500D01*
X151443709Y-146750500D01*
X151455327Y-146749141D01*
X151476276Y-146746693D01*
X151489028Y-146745577D01*
X151552797Y-146739999D01*
X151552805Y-146739996D01*
X151559866Y-146738539D01*
X151559878Y-146738598D01*
X151567243Y-146736965D01*
X151567229Y-146736906D01*
X151574246Y-146735241D01*
X151574255Y-146735241D01*
X151646423Y-146708974D01*
X151719334Y-146684814D01*
X151719343Y-146684807D01*
X151725882Y-146681760D01*
X151725908Y-146681816D01*
X151732690Y-146678532D01*
X151732663Y-146678478D01*
X151739106Y-146675240D01*
X151739117Y-146675237D01*
X151803283Y-146633034D01*
X151868656Y-146592712D01*
X151868662Y-146592705D01*
X151874325Y-146588229D01*
X151874363Y-146588277D01*
X151880200Y-146583522D01*
X151880161Y-146583475D01*
X151885696Y-146578830D01*
X151938385Y-146522983D01*
X154591306Y-143870061D01*
X155485642Y-142975724D01*
X155499271Y-142963947D01*
X155518530Y-142949610D01*
X155552101Y-142909601D01*
X155555761Y-142905606D01*
X155561590Y-142899778D01*
X155564973Y-142895500D01*
X155581940Y-142874040D01*
X155631302Y-142815214D01*
X155631306Y-142815205D01*
X155635274Y-142809175D01*
X155635325Y-142809208D01*
X155639372Y-142802856D01*
X155639320Y-142802824D01*
X155643112Y-142796675D01*
X155675575Y-142727058D01*
X155703322Y-142671809D01*
X155710040Y-142658433D01*
X155710042Y-142658421D01*
X155712509Y-142651646D01*
X155712567Y-142651667D01*
X155715043Y-142644546D01*
X155714986Y-142644528D01*
X155717257Y-142637673D01*
X155732792Y-142562434D01*
X155740898Y-142528232D01*
X155750500Y-142487721D01*
X155750500Y-142487710D01*
X155751338Y-142480548D01*
X155751398Y-142480555D01*
X155752164Y-142473055D01*
X155752105Y-142473050D01*
X155752734Y-142465860D01*
X155750500Y-142389082D01*
X155750500Y-141195004D01*
X156569232Y-141195004D01*
X156588277Y-141449154D01*
X156588278Y-141449157D01*
X156644992Y-141697637D01*
X156738107Y-141934888D01*
X156865541Y-142155612D01*
X157024450Y-142354877D01*
X157211283Y-142528232D01*
X157421866Y-142671805D01*
X157421871Y-142671807D01*
X157421872Y-142671808D01*
X157421873Y-142671809D01*
X157536598Y-142727057D01*
X157651492Y-142782387D01*
X157651493Y-142782387D01*
X157651496Y-142782389D01*
X157895042Y-142857513D01*
X158147065Y-142895500D01*
X158401935Y-142895500D01*
X158653958Y-142857513D01*
X158897504Y-142782389D01*
X159127134Y-142671805D01*
X159337717Y-142528232D01*
X159524550Y-142354877D01*
X159683459Y-142155612D01*
X159810893Y-141934888D01*
X159904008Y-141697637D01*
X159960722Y-141449157D01*
X159972739Y-141288793D01*
X159979768Y-141195004D01*
X176889232Y-141195004D01*
X176908277Y-141449154D01*
X176908278Y-141449157D01*
X176964992Y-141697637D01*
X177058107Y-141934888D01*
X177185541Y-142155612D01*
X177344450Y-142354877D01*
X177531283Y-142528232D01*
X177741866Y-142671805D01*
X177741871Y-142671807D01*
X177741872Y-142671808D01*
X177741873Y-142671809D01*
X177856598Y-142727057D01*
X177971492Y-142782387D01*
X177971493Y-142782387D01*
X177971496Y-142782389D01*
X178215042Y-142857513D01*
X178467065Y-142895500D01*
X178721935Y-142895500D01*
X178973958Y-142857513D01*
X179217504Y-142782389D01*
X179447134Y-142671805D01*
X179657717Y-142528232D01*
X179844550Y-142354877D01*
X180003459Y-142155612D01*
X180130893Y-141934888D01*
X180224008Y-141697637D01*
X180280722Y-141449157D01*
X180292739Y-141288793D01*
X180299768Y-141195004D01*
X180299768Y-141194995D01*
X180280722Y-140940845D01*
X180269773Y-140892876D01*
X180224008Y-140692363D01*
X180130893Y-140455112D01*
X180003459Y-140234388D01*
X179844550Y-140035123D01*
X179657717Y-139861768D01*
X179447134Y-139718195D01*
X179447130Y-139718193D01*
X179447127Y-139718191D01*
X179447126Y-139718190D01*
X179217506Y-139607612D01*
X179217508Y-139607612D01*
X178973966Y-139532489D01*
X178973962Y-139532488D01*
X178973958Y-139532487D01*
X178852731Y-139514214D01*
X178721940Y-139494500D01*
X178721935Y-139494500D01*
X178467065Y-139494500D01*
X178467059Y-139494500D01*
X178310109Y-139518157D01*
X178215042Y-139532487D01*
X178215038Y-139532488D01*
X178215039Y-139532488D01*
X178215033Y-139532489D01*
X177971492Y-139607612D01*
X177741873Y-139718190D01*
X177741872Y-139718191D01*
X177531282Y-139861768D01*
X177344452Y-140035121D01*
X177344450Y-140035123D01*
X177185541Y-140234388D01*
X177058108Y-140455109D01*
X176964992Y-140692362D01*
X176964990Y-140692369D01*
X176908277Y-140940845D01*
X176889232Y-141194995D01*
X176889232Y-141195004D01*
X159979768Y-141195004D01*
X159979768Y-141194995D01*
X159960722Y-140940845D01*
X159949773Y-140892876D01*
X159904008Y-140692363D01*
X159810893Y-140455112D01*
X159683459Y-140234388D01*
X159524550Y-140035123D01*
X159337717Y-139861768D01*
X159127134Y-139718195D01*
X159127130Y-139718193D01*
X159127127Y-139718191D01*
X159127126Y-139718190D01*
X158897506Y-139607612D01*
X158897508Y-139607612D01*
X158653966Y-139532489D01*
X158653962Y-139532488D01*
X158653958Y-139532487D01*
X158532731Y-139514214D01*
X158401940Y-139494500D01*
X158401935Y-139494500D01*
X158147065Y-139494500D01*
X158147059Y-139494500D01*
X157990109Y-139518157D01*
X157895042Y-139532487D01*
X157895038Y-139532488D01*
X157895039Y-139532488D01*
X157895033Y-139532489D01*
X157651492Y-139607612D01*
X157421873Y-139718190D01*
X157421872Y-139718191D01*
X157211282Y-139861768D01*
X157024452Y-140035121D01*
X157024450Y-140035123D01*
X156865541Y-140234388D01*
X156738108Y-140455109D01*
X156644992Y-140692362D01*
X156644990Y-140692369D01*
X156588277Y-140940845D01*
X156569232Y-141194995D01*
X156569232Y-141195004D01*
X155750500Y-141195004D01*
X155750500Y-138362228D01*
X155770185Y-138295189D01*
X155786814Y-138274552D01*
X178579388Y-115481977D01*
X178593017Y-115470200D01*
X178612280Y-115455860D01*
X178612282Y-115455856D01*
X178612284Y-115455856D01*
X178642105Y-115420315D01*
X178645863Y-115415835D01*
X178649517Y-115411849D01*
X178655340Y-115406027D01*
X178675673Y-115380310D01*
X178725052Y-115321464D01*
X178725059Y-115321448D01*
X178729022Y-115315426D01*
X178729074Y-115315460D01*
X178733121Y-115309108D01*
X178733067Y-115309075D01*
X178736854Y-115302934D01*
X178736860Y-115302927D01*
X178769311Y-115233336D01*
X178803786Y-115164690D01*
X178803790Y-115164683D01*
X178803792Y-115164671D01*
X178806260Y-115157894D01*
X178806318Y-115157915D01*
X178808793Y-115150796D01*
X178808735Y-115150777D01*
X178811006Y-115143922D01*
X178826534Y-115068717D01*
X178844250Y-114993970D01*
X178845089Y-114986798D01*
X178845147Y-114986804D01*
X178845914Y-114979306D01*
X178845854Y-114979301D01*
X178846483Y-114972110D01*
X178845944Y-114953599D01*
X178844250Y-114895352D01*
X178844250Y-113204979D01*
X178863935Y-113137940D01*
X178916739Y-113092185D01*
X178985897Y-113082241D01*
X179049453Y-113111266D01*
X179055931Y-113117298D01*
X181820858Y-115882225D01*
X181854343Y-115943548D01*
X181857177Y-115969746D01*
X181884232Y-136964764D01*
X181864634Y-137031829D01*
X181811889Y-137077652D01*
X181742743Y-137087684D01*
X181679150Y-137058742D01*
X181672551Y-137052605D01*
X181134808Y-136514862D01*
X181101323Y-136453539D01*
X181099168Y-136440141D01*
X181085674Y-136311745D01*
X181085672Y-136311740D01*
X181027179Y-136131716D01*
X180932533Y-135967784D01*
X180805871Y-135827112D01*
X180805870Y-135827111D01*
X180652734Y-135715851D01*
X180652729Y-135715848D01*
X180479807Y-135638857D01*
X180479802Y-135638855D01*
X180334001Y-135607865D01*
X180294646Y-135599500D01*
X180105354Y-135599500D01*
X180072915Y-135606395D01*
X179920197Y-135638855D01*
X179920192Y-135638857D01*
X179747270Y-135715848D01*
X179747265Y-135715851D01*
X179594129Y-135827111D01*
X179467466Y-135967785D01*
X179372821Y-136131715D01*
X179372818Y-136131722D01*
X179314327Y-136311740D01*
X179314326Y-136311744D01*
X179294540Y-136500000D01*
X179314326Y-136688256D01*
X179314327Y-136688259D01*
X179372818Y-136868277D01*
X179372821Y-136868284D01*
X179467467Y-137032216D01*
X179508378Y-137077652D01*
X179594129Y-137172888D01*
X179747265Y-137284148D01*
X179747270Y-137284151D01*
X179920192Y-137361142D01*
X179920197Y-137361144D01*
X180105354Y-137400500D01*
X180129192Y-137400500D01*
X180196231Y-137420185D01*
X180216873Y-137436819D01*
X181850740Y-139070686D01*
X181884225Y-139132009D01*
X181887059Y-139158207D01*
X181899066Y-148475340D01*
X181879468Y-148542405D01*
X181826723Y-148588228D01*
X181775066Y-148599500D01*
X108124500Y-148599500D01*
X108057461Y-148579815D01*
X108011706Y-148527011D01*
X108000500Y-148475500D01*
X108000500Y-83250000D01*
X108819341Y-83250000D01*
X108839936Y-83485403D01*
X108839938Y-83485413D01*
X108901094Y-83713655D01*
X108901096Y-83713659D01*
X108901097Y-83713663D01*
X108959476Y-83838856D01*
X109000965Y-83927830D01*
X109000967Y-83927834D01*
X109051499Y-84000000D01*
X109136501Y-84121396D01*
X109136506Y-84121402D01*
X109258430Y-84243326D01*
X109291915Y-84304649D01*
X109286931Y-84374341D01*
X109245059Y-84430274D01*
X109214083Y-84447189D01*
X109082669Y-84496203D01*
X109082664Y-84496206D01*
X108967455Y-84582452D01*
X108967452Y-84582455D01*
X108881206Y-84697664D01*
X108881202Y-84697671D01*
X108830908Y-84832517D01*
X108825618Y-84881724D01*
X108824501Y-84892123D01*
X108824500Y-84892135D01*
X108824500Y-86687870D01*
X108824501Y-86687876D01*
X108830908Y-86747483D01*
X108881202Y-86882328D01*
X108881206Y-86882335D01*
X108967452Y-86997544D01*
X108967455Y-86997547D01*
X109082664Y-87083793D01*
X109082671Y-87083797D01*
X109217517Y-87134091D01*
X109217516Y-87134091D01*
X109224444Y-87134835D01*
X109277127Y-87140500D01*
X111072872Y-87140499D01*
X111132483Y-87134091D01*
X111267331Y-87083796D01*
X111382546Y-86997546D01*
X111468796Y-86882331D01*
X111519091Y-86747483D01*
X111525500Y-86687873D01*
X111525500Y-86664500D01*
X111545185Y-86597461D01*
X111597989Y-86551706D01*
X111649500Y-86540500D01*
X124146295Y-86540500D01*
X124164265Y-86541809D01*
X124188023Y-86545289D01*
X124240068Y-86540735D01*
X124245470Y-86540500D01*
X124253704Y-86540500D01*
X124253709Y-86540500D01*
X124265327Y-86539141D01*
X124286276Y-86536693D01*
X124299028Y-86535577D01*
X124362797Y-86529999D01*
X124362805Y-86529996D01*
X124369866Y-86528539D01*
X124369878Y-86528598D01*
X124377243Y-86526965D01*
X124377229Y-86526906D01*
X124384246Y-86525241D01*
X124384255Y-86525241D01*
X124456423Y-86498974D01*
X124529334Y-86474814D01*
X124529343Y-86474807D01*
X124535882Y-86471760D01*
X124535908Y-86471816D01*
X124542690Y-86468532D01*
X124542663Y-86468478D01*
X124549106Y-86465240D01*
X124549117Y-86465237D01*
X124613283Y-86423034D01*
X124678656Y-86382712D01*
X124678662Y-86382705D01*
X124684325Y-86378229D01*
X124684362Y-86378277D01*
X124690204Y-86373518D01*
X124690164Y-86373471D01*
X124695690Y-86368833D01*
X124695696Y-86368830D01*
X124748387Y-86312980D01*
X124902771Y-86158594D01*
X124964090Y-86125112D01*
X124964400Y-86125045D01*
X125029803Y-86111144D01*
X125202730Y-86034151D01*
X125355871Y-85922888D01*
X125482533Y-85782216D01*
X125577179Y-85618284D01*
X125635674Y-85438256D01*
X125655460Y-85250000D01*
X125635674Y-85061744D01*
X125580371Y-84891541D01*
X125577181Y-84881722D01*
X125577180Y-84881721D01*
X125577179Y-84881716D01*
X125482533Y-84717784D01*
X125355871Y-84577112D01*
X125355870Y-84577111D01*
X125202734Y-84465851D01*
X125202729Y-84465848D01*
X125029807Y-84388857D01*
X125029802Y-84388855D01*
X124884001Y-84357865D01*
X124844646Y-84349500D01*
X124655354Y-84349500D01*
X124622897Y-84356398D01*
X124470197Y-84388855D01*
X124470192Y-84388857D01*
X124297270Y-84465848D01*
X124297265Y-84465851D01*
X124144129Y-84577111D01*
X124017466Y-84717785D01*
X123922821Y-84881715D01*
X123922817Y-84881724D01*
X123899394Y-84953817D01*
X123859957Y-85011493D01*
X123795599Y-85038692D01*
X123781463Y-85039500D01*
X111649499Y-85039500D01*
X111582460Y-85019815D01*
X111536705Y-84967011D01*
X111525499Y-84915500D01*
X111525499Y-84892129D01*
X111525498Y-84892123D01*
X111525497Y-84892116D01*
X111519091Y-84832517D01*
X111510169Y-84808597D01*
X111468797Y-84697671D01*
X111468793Y-84697664D01*
X111382547Y-84582455D01*
X111382544Y-84582452D01*
X111267335Y-84496206D01*
X111267328Y-84496202D01*
X111135917Y-84447189D01*
X111079983Y-84405318D01*
X111055566Y-84339853D01*
X111070418Y-84271580D01*
X111091563Y-84243332D01*
X111213495Y-84121401D01*
X111349035Y-83927830D01*
X111448903Y-83713663D01*
X111510063Y-83485408D01*
X111530659Y-83250000D01*
X111510063Y-83014592D01*
X111448903Y-82786337D01*
X111349035Y-82572171D01*
X111341627Y-82561590D01*
X111213494Y-82378597D01*
X111046402Y-82211506D01*
X111046396Y-82211501D01*
X110860842Y-82081575D01*
X110817217Y-82026998D01*
X110810023Y-81957500D01*
X110841546Y-81895145D01*
X110860842Y-81878425D01*
X110942730Y-81821086D01*
X111046401Y-81748495D01*
X111213495Y-81581401D01*
X111349035Y-81387830D01*
X111448903Y-81173663D01*
X111510063Y-80945408D01*
X111530659Y-80710000D01*
X111510063Y-80474592D01*
X111448903Y-80246337D01*
X111349035Y-80032171D01*
X111309106Y-79975145D01*
X111213494Y-79838597D01*
X111046402Y-79671506D01*
X111046399Y-79671504D01*
X110979941Y-79624969D01*
X110852834Y-79535967D01*
X110852830Y-79535965D01*
X110787352Y-79505432D01*
X110638663Y-79436097D01*
X110638659Y-79436096D01*
X110638655Y-79436094D01*
X110410413Y-79374938D01*
X110410403Y-79374936D01*
X110175001Y-79354341D01*
X110174999Y-79354341D01*
X109939596Y-79374936D01*
X109939586Y-79374938D01*
X109711344Y-79436094D01*
X109711335Y-79436098D01*
X109497171Y-79535964D01*
X109497169Y-79535965D01*
X109303597Y-79671505D01*
X109136505Y-79838597D01*
X109000965Y-80032169D01*
X109000964Y-80032171D01*
X108901098Y-80246335D01*
X108901094Y-80246344D01*
X108839938Y-80474586D01*
X108839936Y-80474596D01*
X108819341Y-80709999D01*
X108819341Y-80710000D01*
X108839936Y-80945403D01*
X108839938Y-80945413D01*
X108901094Y-81173655D01*
X108901096Y-81173659D01*
X108901097Y-81173663D01*
X108985671Y-81355032D01*
X109000965Y-81387830D01*
X109000967Y-81387834D01*
X109043304Y-81448297D01*
X109128602Y-81570115D01*
X109136501Y-81581395D01*
X109136506Y-81581402D01*
X109303597Y-81748493D01*
X109303603Y-81748498D01*
X109489158Y-81878425D01*
X109532783Y-81933002D01*
X109539977Y-82002500D01*
X109508454Y-82064855D01*
X109489158Y-82081575D01*
X109303597Y-82211505D01*
X109136505Y-82378597D01*
X109000965Y-82572169D01*
X109000964Y-82572171D01*
X108901098Y-82786335D01*
X108901094Y-82786344D01*
X108839938Y-83014586D01*
X108839936Y-83014596D01*
X108819341Y-83249999D01*
X108819341Y-83250000D01*
X108000500Y-83250000D01*
X108000500Y-70134500D01*
X108020185Y-70067461D01*
X108072989Y-70021706D01*
X108124500Y-70010500D01*
X135152663Y-70010500D01*
X135219702Y-70030185D01*
G37*
%TD.AperFunction*%
%TA.AperFunction,Conductor*%
G36*
X204442539Y-70030185D02*
G01*
X204488294Y-70082989D01*
X204499500Y-70134500D01*
X204499500Y-110276000D01*
X204479815Y-110343039D01*
X204427011Y-110388794D01*
X204375500Y-110400000D01*
X181850000Y-110400000D01*
X181853985Y-113493095D01*
X181834387Y-113560160D01*
X181781642Y-113605983D01*
X181712496Y-113616015D01*
X181648903Y-113587072D01*
X181642304Y-113580936D01*
X179575729Y-111514361D01*
X179563949Y-111500730D01*
X179556482Y-111490701D01*
X179549612Y-111481472D01*
X179549610Y-111481470D01*
X179509587Y-111447886D01*
X179505612Y-111444244D01*
X179502690Y-111441322D01*
X179499780Y-111438411D01*
X179474040Y-111418059D01*
X179433630Y-111384151D01*
X179415214Y-111368698D01*
X179415213Y-111368697D01*
X179415209Y-111368694D01*
X179409180Y-111364729D01*
X179409212Y-111364680D01*
X179402853Y-111360628D01*
X179402822Y-111360679D01*
X179396680Y-111356891D01*
X179396678Y-111356890D01*
X179396677Y-111356889D01*
X179357474Y-111338608D01*
X179327058Y-111324424D01*
X179292894Y-111307267D01*
X179258433Y-111289960D01*
X179258431Y-111289959D01*
X179258430Y-111289959D01*
X179251645Y-111287489D01*
X179251665Y-111287433D01*
X179244549Y-111284959D01*
X179244531Y-111285015D01*
X179237671Y-111282742D01*
X179209841Y-111276996D01*
X179162434Y-111267207D01*
X179113472Y-111255603D01*
X179087719Y-111249499D01*
X179080547Y-111248661D01*
X179080553Y-111248601D01*
X179073055Y-111247835D01*
X179073050Y-111247895D01*
X179065860Y-111247265D01*
X178989083Y-111249500D01*
X178968250Y-111249500D01*
X178901211Y-111229815D01*
X178855456Y-111177011D01*
X178844250Y-111125500D01*
X178844250Y-99000000D01*
X191344540Y-99000000D01*
X191364326Y-99188256D01*
X191364327Y-99188259D01*
X191422818Y-99368277D01*
X191422821Y-99368284D01*
X191517467Y-99532216D01*
X191591939Y-99614925D01*
X191644129Y-99672888D01*
X191797265Y-99784148D01*
X191797270Y-99784151D01*
X191970192Y-99861142D01*
X191970197Y-99861144D01*
X192155354Y-99900500D01*
X192155355Y-99900500D01*
X192344644Y-99900500D01*
X192344646Y-99900500D01*
X192529803Y-99861144D01*
X192702730Y-99784151D01*
X192855871Y-99672888D01*
X192982533Y-99532216D01*
X193077179Y-99368284D01*
X193135674Y-99188256D01*
X193155460Y-99000000D01*
X193135674Y-98811744D01*
X193077179Y-98631716D01*
X192982533Y-98467784D01*
X192932350Y-98412050D01*
X192902120Y-98349058D01*
X192900500Y-98329078D01*
X192900500Y-97601870D01*
X193367500Y-97601870D01*
X193367501Y-97601876D01*
X193373908Y-97661483D01*
X193424202Y-97796328D01*
X193424206Y-97796335D01*
X193510452Y-97911544D01*
X193510455Y-97911547D01*
X193625664Y-97997793D01*
X193625671Y-97997797D01*
X193760517Y-98048091D01*
X193760516Y-98048091D01*
X193767444Y-98048835D01*
X193820127Y-98054500D01*
X195615872Y-98054499D01*
X195675483Y-98048091D01*
X195810331Y-97997796D01*
X195925546Y-97911546D01*
X196011796Y-97796331D01*
X196060810Y-97664916D01*
X196102681Y-97608984D01*
X196168145Y-97584566D01*
X196236418Y-97599417D01*
X196264673Y-97620569D01*
X196386599Y-97742495D01*
X196483384Y-97810265D01*
X196580165Y-97878032D01*
X196580167Y-97878033D01*
X196580170Y-97878035D01*
X196794337Y-97977903D01*
X197022592Y-98039063D01*
X197199034Y-98054500D01*
X197257999Y-98059659D01*
X197258000Y-98059659D01*
X197258001Y-98059659D01*
X197316966Y-98054500D01*
X197493408Y-98039063D01*
X197721663Y-97977903D01*
X197935830Y-97878035D01*
X198129401Y-97742495D01*
X198296495Y-97575401D01*
X198432035Y-97381830D01*
X198531903Y-97167663D01*
X198593063Y-96939408D01*
X198613659Y-96704000D01*
X198593063Y-96468592D01*
X198531903Y-96240337D01*
X198432035Y-96026171D01*
X198374523Y-95944034D01*
X198296494Y-95832597D01*
X198129402Y-95665506D01*
X198129395Y-95665501D01*
X197935834Y-95529967D01*
X197935830Y-95529965D01*
X197886380Y-95506906D01*
X197721663Y-95430097D01*
X197721659Y-95430096D01*
X197721655Y-95430094D01*
X197493413Y-95368938D01*
X197493403Y-95368936D01*
X197258001Y-95348341D01*
X197257999Y-95348341D01*
X197022596Y-95368936D01*
X197022586Y-95368938D01*
X196794344Y-95430094D01*
X196794335Y-95430098D01*
X196580171Y-95529964D01*
X196580169Y-95529965D01*
X196386600Y-95665503D01*
X196264673Y-95787430D01*
X196203350Y-95820914D01*
X196133658Y-95815930D01*
X196077725Y-95774058D01*
X196060810Y-95743081D01*
X196011797Y-95611671D01*
X196011793Y-95611664D01*
X195925547Y-95496455D01*
X195925544Y-95496452D01*
X195810335Y-95410206D01*
X195810328Y-95410202D01*
X195675482Y-95359908D01*
X195675483Y-95359908D01*
X195615883Y-95353501D01*
X195615881Y-95353500D01*
X195615873Y-95353500D01*
X195615864Y-95353500D01*
X193820129Y-95353500D01*
X193820123Y-95353501D01*
X193760516Y-95359908D01*
X193625671Y-95410202D01*
X193625664Y-95410206D01*
X193510455Y-95496452D01*
X193510452Y-95496455D01*
X193424206Y-95611664D01*
X193424203Y-95611669D01*
X193375385Y-95742557D01*
X193373895Y-95744547D01*
X193373508Y-95750237D01*
X193367500Y-95806127D01*
X193367500Y-95806134D01*
X193367500Y-95806135D01*
X193367500Y-97601870D01*
X192900500Y-97601870D01*
X192900500Y-96170921D01*
X192920185Y-96103882D01*
X192932351Y-96087948D01*
X192933684Y-96086468D01*
X192982533Y-96032216D01*
X193077179Y-95868284D01*
X193132287Y-95698678D01*
X193136109Y-95693089D01*
X193135519Y-95690377D01*
X193135873Y-95686360D01*
X193155460Y-95500000D01*
X193135674Y-95311744D01*
X193077179Y-95131716D01*
X192982533Y-94967784D01*
X192855871Y-94827112D01*
X192855870Y-94827111D01*
X192702734Y-94715851D01*
X192702729Y-94715848D01*
X192529807Y-94638857D01*
X192529802Y-94638855D01*
X192384001Y-94607865D01*
X192344646Y-94599500D01*
X192155354Y-94599500D01*
X192122897Y-94606398D01*
X191970197Y-94638855D01*
X191970192Y-94638857D01*
X191797270Y-94715848D01*
X191797265Y-94715851D01*
X191644129Y-94827111D01*
X191517466Y-94967785D01*
X191422821Y-95131715D01*
X191422818Y-95131722D01*
X191368700Y-95298282D01*
X191364326Y-95311744D01*
X191344540Y-95500000D01*
X191364326Y-95688256D01*
X191364327Y-95688259D01*
X191422818Y-95868277D01*
X191422821Y-95868284D01*
X191517466Y-96032215D01*
X191567649Y-96087948D01*
X191597880Y-96150940D01*
X191599500Y-96170921D01*
X191599500Y-98329078D01*
X191579815Y-98396117D01*
X191567650Y-98412050D01*
X191517466Y-98467785D01*
X191422821Y-98631715D01*
X191422818Y-98631722D01*
X191364327Y-98811740D01*
X191364326Y-98811744D01*
X191344540Y-99000000D01*
X178844250Y-99000000D01*
X178844250Y-85603651D01*
X196534996Y-85603651D01*
X196544995Y-85813577D01*
X196594546Y-86017828D01*
X196594548Y-86017832D01*
X196681848Y-86208993D01*
X196681851Y-86208998D01*
X196681852Y-86209000D01*
X196681854Y-86209003D01*
X196803764Y-86380202D01*
X196803765Y-86380203D01*
X196803770Y-86380209D01*
X196955870Y-86525235D01*
X197050828Y-86586261D01*
X197132678Y-86638863D01*
X197327793Y-86716975D01*
X197430978Y-86736862D01*
X197534164Y-86756750D01*
X197534165Y-86756750D01*
X198491669Y-86756750D01*
X198491675Y-86756750D01*
X198648468Y-86741778D01*
X198850125Y-86682566D01*
X199036932Y-86586261D01*
X199202136Y-86456342D01*
X199339769Y-86297506D01*
X199356641Y-86268284D01*
X199434964Y-86132624D01*
X199444854Y-86115494D01*
X199513594Y-85916883D01*
X199543504Y-85708852D01*
X199538493Y-85603651D01*
X200814996Y-85603651D01*
X200824995Y-85813577D01*
X200874546Y-86017828D01*
X200874548Y-86017832D01*
X200961848Y-86208993D01*
X200961851Y-86208998D01*
X200961852Y-86209000D01*
X200961854Y-86209003D01*
X201083764Y-86380202D01*
X201083765Y-86380203D01*
X201083770Y-86380209D01*
X201235870Y-86525235D01*
X201330828Y-86586261D01*
X201412678Y-86638863D01*
X201607793Y-86716975D01*
X201710978Y-86736862D01*
X201814164Y-86756750D01*
X201814165Y-86756750D01*
X202571669Y-86756750D01*
X202571675Y-86756750D01*
X202728468Y-86741778D01*
X202930125Y-86682566D01*
X203116932Y-86586261D01*
X203282136Y-86456342D01*
X203419769Y-86297506D01*
X203436641Y-86268284D01*
X203514964Y-86132624D01*
X203524854Y-86115494D01*
X203593594Y-85916883D01*
X203623504Y-85708852D01*
X203613504Y-85498920D01*
X203563954Y-85294674D01*
X203563951Y-85294667D01*
X203476651Y-85103506D01*
X203476648Y-85103501D01*
X203476647Y-85103500D01*
X203476646Y-85103497D01*
X203354736Y-84932298D01*
X203354734Y-84932296D01*
X203354729Y-84932290D01*
X203202629Y-84787264D01*
X203025824Y-84673638D01*
X203021028Y-84671718D01*
X202830707Y-84595525D01*
X202830705Y-84595524D01*
X202624336Y-84555750D01*
X202624335Y-84555750D01*
X201866825Y-84555750D01*
X201710031Y-84570721D01*
X201710032Y-84570722D01*
X201710028Y-84570723D01*
X201508377Y-84629933D01*
X201321563Y-84726241D01*
X201156366Y-84856155D01*
X201156362Y-84856159D01*
X201018728Y-85014996D01*
X200913648Y-85197000D01*
X200844906Y-85395615D01*
X200844906Y-85395617D01*
X200817117Y-85588900D01*
X200814996Y-85603651D01*
X199538493Y-85603651D01*
X199533504Y-85498920D01*
X199483954Y-85294674D01*
X199483951Y-85294667D01*
X199396651Y-85103506D01*
X199396648Y-85103501D01*
X199396647Y-85103500D01*
X199396646Y-85103497D01*
X199274736Y-84932298D01*
X199274734Y-84932296D01*
X199274729Y-84932290D01*
X199122629Y-84787264D01*
X199089090Y-84765710D01*
X199043336Y-84712906D01*
X199033392Y-84643748D01*
X199060587Y-84582354D01*
X199061409Y-84581359D01*
X199071574Y-84569073D01*
X199071575Y-84569070D01*
X199071577Y-84569068D01*
X199105865Y-84496202D01*
X199138864Y-84426076D01*
X199168477Y-84270838D01*
X199158554Y-84113112D01*
X199109717Y-83962809D01*
X199025036Y-83829373D01*
X198909832Y-83721188D01*
X198909829Y-83721186D01*
X198909827Y-83721184D01*
X198771345Y-83645054D01*
X198771337Y-83645051D01*
X198618271Y-83605750D01*
X198618269Y-83605750D01*
X198499900Y-83605750D01*
X198499890Y-83605750D01*
X198382458Y-83620586D01*
X198382456Y-83620586D01*
X198235519Y-83678763D01*
X198235510Y-83678768D01*
X198107666Y-83771652D01*
X198107665Y-83771653D01*
X198006924Y-83893428D01*
X197939637Y-84036421D01*
X197939635Y-84036424D01*
X197925007Y-84113112D01*
X197910023Y-84191662D01*
X197910023Y-84191664D01*
X197910023Y-84191665D01*
X197914896Y-84269112D01*
X197919946Y-84349388D01*
X197932770Y-84388857D01*
X197934257Y-84393431D01*
X197936253Y-84463272D01*
X197900173Y-84523105D01*
X197837472Y-84553934D01*
X197816326Y-84555750D01*
X197586825Y-84555750D01*
X197430031Y-84570721D01*
X197430032Y-84570722D01*
X197430028Y-84570723D01*
X197228377Y-84629933D01*
X197041563Y-84726241D01*
X196876366Y-84856155D01*
X196876362Y-84856159D01*
X196738728Y-85014996D01*
X196633648Y-85197000D01*
X196564906Y-85395615D01*
X196564906Y-85395617D01*
X196537117Y-85588900D01*
X196534996Y-85603651D01*
X178844250Y-85603651D01*
X178844250Y-82680750D01*
X178863935Y-82613711D01*
X178916739Y-82567956D01*
X178968250Y-82556750D01*
X189542939Y-82556750D01*
X189560909Y-82558059D01*
X189584667Y-82561539D01*
X189636712Y-82556985D01*
X189642114Y-82556750D01*
X189650348Y-82556750D01*
X189650353Y-82556750D01*
X189661971Y-82555391D01*
X189682920Y-82552943D01*
X189695672Y-82551827D01*
X189759441Y-82546249D01*
X189759449Y-82546246D01*
X189766510Y-82544789D01*
X189766522Y-82544848D01*
X189773887Y-82543215D01*
X189773873Y-82543156D01*
X189780890Y-82541491D01*
X189780899Y-82541491D01*
X189853067Y-82515224D01*
X189925978Y-82491064D01*
X189925987Y-82491057D01*
X189932526Y-82488010D01*
X189932552Y-82488066D01*
X189939334Y-82484782D01*
X189939307Y-82484728D01*
X189945750Y-82481490D01*
X189945761Y-82481487D01*
X190009927Y-82439284D01*
X190075300Y-82398962D01*
X190075306Y-82398955D01*
X190080969Y-82394479D01*
X190081007Y-82394527D01*
X190086844Y-82389772D01*
X190086805Y-82389725D01*
X190092340Y-82385080D01*
X190145029Y-82329233D01*
X191331126Y-81143135D01*
X191732150Y-80742110D01*
X191793471Y-80708627D01*
X191863162Y-80713611D01*
X191919096Y-80755483D01*
X191938489Y-80793796D01*
X191957532Y-80856571D01*
X191964936Y-80880977D01*
X192056306Y-81051919D01*
X192057839Y-81054786D01*
X192061224Y-81059851D01*
X192059583Y-81060947D01*
X192083345Y-81116888D01*
X192071556Y-81185756D01*
X192060856Y-81202412D01*
X192061219Y-81202655D01*
X192057837Y-81207715D01*
X191964938Y-81381516D01*
X191907725Y-81570120D01*
X191888409Y-81766250D01*
X191907725Y-81962379D01*
X191964937Y-82150980D01*
X192057839Y-82324786D01*
X192061224Y-82329851D01*
X192059583Y-82330947D01*
X192083345Y-82386888D01*
X192071556Y-82455756D01*
X192060856Y-82472412D01*
X192061219Y-82472655D01*
X192057837Y-82477715D01*
X191964938Y-82651516D01*
X191907725Y-82840120D01*
X191888409Y-83036250D01*
X191907725Y-83232379D01*
X191907726Y-83232382D01*
X191960494Y-83406335D01*
X191964937Y-83420979D01*
X191966071Y-83423100D01*
X191966330Y-83424344D01*
X191967268Y-83426609D01*
X191966838Y-83426786D01*
X191980314Y-83491503D01*
X191955983Y-83555864D01*
X191949955Y-83563916D01*
X191949952Y-83563921D01*
X191899658Y-83698767D01*
X191894507Y-83746686D01*
X191893251Y-83758373D01*
X191893250Y-83758385D01*
X191893250Y-84854120D01*
X191893251Y-84854126D01*
X191899658Y-84913733D01*
X191949952Y-85048578D01*
X191949956Y-85048585D01*
X192036202Y-85163794D01*
X192036205Y-85163797D01*
X192151414Y-85250043D01*
X192151421Y-85250047D01*
X192286267Y-85300341D01*
X192286266Y-85300341D01*
X192293194Y-85301085D01*
X192345877Y-85306750D01*
X193441622Y-85306749D01*
X193501233Y-85300341D01*
X193636081Y-85250046D01*
X193751296Y-85163796D01*
X193837546Y-85048581D01*
X193887841Y-84913733D01*
X193894250Y-84854123D01*
X193894249Y-83758378D01*
X193887841Y-83698767D01*
X193880380Y-83678764D01*
X193837547Y-83563922D01*
X193837546Y-83563919D01*
X193831517Y-83555865D01*
X193807101Y-83490404D01*
X193820645Y-83426775D01*
X193820233Y-83426605D01*
X193821156Y-83424374D01*
X193821427Y-83423103D01*
X193822564Y-83420977D01*
X193879774Y-83232382D01*
X193899091Y-83036250D01*
X193879774Y-82840118D01*
X193822564Y-82651523D01*
X193729660Y-82477712D01*
X193729657Y-82477708D01*
X193726273Y-82472643D01*
X193727914Y-82471546D01*
X193704155Y-82415611D01*
X193715944Y-82346743D01*
X193726638Y-82330101D01*
X193726273Y-82329857D01*
X193729654Y-82324794D01*
X193729660Y-82324788D01*
X193822564Y-82150977D01*
X193879774Y-81962382D01*
X193899091Y-81766250D01*
X193879774Y-81570118D01*
X193832799Y-81415263D01*
X193832175Y-81345396D01*
X193869423Y-81286283D01*
X193932717Y-81256692D01*
X194001961Y-81266017D01*
X194039140Y-81291586D01*
X195156932Y-82409378D01*
X195190416Y-82470699D01*
X195193250Y-82497057D01*
X195193250Y-83029078D01*
X195173565Y-83096117D01*
X195161400Y-83112050D01*
X195111216Y-83167785D01*
X195016571Y-83331715D01*
X195016568Y-83331722D01*
X194964265Y-83492696D01*
X194958076Y-83511744D01*
X194938290Y-83700000D01*
X194958076Y-83888256D01*
X194958077Y-83888259D01*
X195016568Y-84068277D01*
X195016571Y-84068284D01*
X195111217Y-84232216D01*
X195216720Y-84349389D01*
X195237879Y-84372888D01*
X195391015Y-84484148D01*
X195391020Y-84484151D01*
X195563942Y-84561142D01*
X195563947Y-84561144D01*
X195749104Y-84600500D01*
X195749105Y-84600500D01*
X195938394Y-84600500D01*
X195938396Y-84600500D01*
X196123553Y-84561144D01*
X196296480Y-84484151D01*
X196449621Y-84372888D01*
X196576283Y-84232216D01*
X196670929Y-84068284D01*
X196729424Y-83888256D01*
X196749210Y-83700000D01*
X196729424Y-83511744D01*
X196670929Y-83331716D01*
X196576283Y-83167784D01*
X196526100Y-83112050D01*
X196495870Y-83049058D01*
X196494250Y-83029078D01*
X196494250Y-82261752D01*
X196496018Y-82245739D01*
X196495776Y-82245717D01*
X196496508Y-82237961D01*
X196496510Y-82237954D01*
X196494250Y-82166046D01*
X196494250Y-82135325D01*
X196493329Y-82128038D01*
X196492872Y-82122229D01*
X196491347Y-82073681D01*
X196485426Y-82053303D01*
X196481481Y-82034254D01*
X196478821Y-82013192D01*
X196460935Y-81968019D01*
X196459046Y-81962499D01*
X196445493Y-81915850D01*
X196434690Y-81897584D01*
X196426128Y-81880106D01*
X196418318Y-81860379D01*
X196418315Y-81860375D01*
X196410911Y-81850184D01*
X196389764Y-81821077D01*
X196386561Y-81816201D01*
X196361831Y-81774385D01*
X196361829Y-81774383D01*
X196361828Y-81774381D01*
X196346825Y-81759379D01*
X196334185Y-81744580D01*
X196321711Y-81727410D01*
X196284278Y-81696444D01*
X196279956Y-81692510D01*
X193932904Y-79345458D01*
X193899419Y-79284135D01*
X193897183Y-79245619D01*
X193899091Y-79226253D01*
X193899091Y-79226251D01*
X193899091Y-79226250D01*
X193879774Y-79030118D01*
X193822564Y-78841523D01*
X193822561Y-78841519D01*
X193822561Y-78841516D01*
X193729663Y-78667717D01*
X193729659Y-78667710D01*
X193604633Y-78515366D01*
X193452289Y-78390340D01*
X193452282Y-78390336D01*
X193278483Y-78297438D01*
X193278477Y-78297436D01*
X193089882Y-78240226D01*
X193089879Y-78240225D01*
X192893750Y-78220909D01*
X192697620Y-78240225D01*
X192509016Y-78297438D01*
X192335217Y-78390336D01*
X192335211Y-78390340D01*
X192270006Y-78443852D01*
X192205696Y-78471164D01*
X192202152Y-78471526D01*
X192169805Y-78474356D01*
X192156573Y-78475514D01*
X192151174Y-78475750D01*
X192142933Y-78475750D01*
X192121223Y-78478287D01*
X192110368Y-78479556D01*
X192095063Y-78480894D01*
X192033843Y-78486251D01*
X192026776Y-78487710D01*
X192026764Y-78487654D01*
X192019407Y-78489285D01*
X192019421Y-78489342D01*
X192012387Y-78491009D01*
X191940219Y-78517275D01*
X191867309Y-78541435D01*
X191860770Y-78544485D01*
X191860745Y-78544433D01*
X191853952Y-78547721D01*
X191853978Y-78547772D01*
X191847528Y-78551011D01*
X191783360Y-78593214D01*
X191717991Y-78633535D01*
X191712321Y-78638019D01*
X191712285Y-78637973D01*
X191706442Y-78642734D01*
X191706479Y-78642778D01*
X191700954Y-78647414D01*
X191700948Y-78647419D01*
X191700948Y-78647420D01*
X191651632Y-78699691D01*
X191648258Y-78703267D01*
X189332095Y-81019431D01*
X189270772Y-81052916D01*
X189244414Y-81055750D01*
X178117391Y-81055750D01*
X178113790Y-81055645D01*
X178049815Y-81051919D01*
X178049812Y-81051919D01*
X177986693Y-81063048D01*
X177983125Y-81063571D01*
X177919500Y-81071008D01*
X177919493Y-81071009D01*
X177908951Y-81074846D01*
X177888085Y-81080436D01*
X177877047Y-81082382D01*
X177877035Y-81082386D01*
X177818200Y-81107764D01*
X177814850Y-81109095D01*
X177754635Y-81131011D01*
X177754631Y-81131013D01*
X177745252Y-81137181D01*
X177726248Y-81147427D01*
X177715954Y-81151868D01*
X177715939Y-81151876D01*
X177664544Y-81190139D01*
X177661591Y-81192207D01*
X177608056Y-81227418D01*
X177600356Y-81235579D01*
X177584219Y-81249939D01*
X177575220Y-81256638D01*
X177534024Y-81305733D01*
X177531628Y-81308426D01*
X177487655Y-81355034D01*
X177482050Y-81364743D01*
X177469659Y-81382441D01*
X177462449Y-81391033D01*
X177433690Y-81448297D01*
X177431979Y-81451470D01*
X177399938Y-81506967D01*
X177399937Y-81506969D01*
X177396718Y-81517720D01*
X177388746Y-81537787D01*
X177383710Y-81547815D01*
X177383709Y-81547819D01*
X177368932Y-81610162D01*
X177367999Y-81613643D01*
X177349619Y-81675042D01*
X177348967Y-81686240D01*
X177345837Y-81707611D01*
X177343250Y-81718529D01*
X177343250Y-81782608D01*
X177343145Y-81786210D01*
X177342711Y-81793663D01*
X177339419Y-81850184D01*
X177339419Y-81850185D01*
X177341366Y-81861227D01*
X177343250Y-81882759D01*
X177343250Y-84881961D01*
X177323565Y-84949000D01*
X177270761Y-84994755D01*
X177201603Y-85004699D01*
X177138047Y-84975674D01*
X177134158Y-84972157D01*
X177122966Y-84961598D01*
X175912770Y-83751402D01*
X175882521Y-83702041D01*
X175847738Y-83594992D01*
X175827181Y-83531721D01*
X175827178Y-83531715D01*
X175815648Y-83511744D01*
X175732533Y-83367784D01*
X175605871Y-83227112D01*
X175590369Y-83215849D01*
X175452734Y-83115851D01*
X175452729Y-83115848D01*
X175279807Y-83038857D01*
X175279802Y-83038855D01*
X175134000Y-83007865D01*
X175094646Y-82999500D01*
X174905354Y-82999500D01*
X174872897Y-83006398D01*
X174720197Y-83038855D01*
X174720192Y-83038857D01*
X174547270Y-83115848D01*
X174547265Y-83115851D01*
X174394129Y-83227111D01*
X174267466Y-83367785D01*
X174172821Y-83531715D01*
X174172818Y-83531722D01*
X174118142Y-83700000D01*
X174114326Y-83711744D01*
X174094540Y-83900000D01*
X174114326Y-84088256D01*
X174114327Y-84088259D01*
X174172818Y-84268277D01*
X174172821Y-84268284D01*
X174267467Y-84432216D01*
X174325084Y-84496206D01*
X174394129Y-84572888D01*
X174547265Y-84684148D01*
X174547270Y-84684151D01*
X174720191Y-84761142D01*
X174720194Y-84761142D01*
X174720197Y-84761144D01*
X174754221Y-84768375D01*
X174785329Y-84774988D01*
X174846811Y-84808180D01*
X174847230Y-84808597D01*
X175813181Y-85774548D01*
X175846666Y-85835871D01*
X175849500Y-85862229D01*
X175849500Y-87565677D01*
X175832887Y-87627677D01*
X175772821Y-87731714D01*
X175714403Y-87911506D01*
X175714326Y-87911744D01*
X175694540Y-88100000D01*
X175714326Y-88288256D01*
X175714327Y-88288259D01*
X175772818Y-88468277D01*
X175772821Y-88468284D01*
X175807177Y-88527791D01*
X175832887Y-88572321D01*
X175849500Y-88634321D01*
X175849500Y-114137769D01*
X175829815Y-114204808D01*
X175813181Y-114225450D01*
X162925451Y-127113181D01*
X162864128Y-127146666D01*
X162837770Y-127149500D01*
X148939337Y-127149500D01*
X148872298Y-127129815D01*
X148866452Y-127125818D01*
X148852734Y-127115851D01*
X148852729Y-127115848D01*
X148679807Y-127038857D01*
X148679802Y-127038855D01*
X148534001Y-127007865D01*
X148494646Y-126999500D01*
X148305354Y-126999500D01*
X148272897Y-127006398D01*
X148120197Y-127038855D01*
X148120192Y-127038857D01*
X147947270Y-127115848D01*
X147947265Y-127115851D01*
X147794129Y-127227111D01*
X147667466Y-127367785D01*
X147572821Y-127531715D01*
X147572818Y-127531722D01*
X147514327Y-127711739D01*
X147514326Y-127711741D01*
X147500831Y-127840142D01*
X147474246Y-127904757D01*
X147465191Y-127914861D01*
X145066873Y-130313181D01*
X145005550Y-130346666D01*
X144979192Y-130349500D01*
X141549499Y-130349500D01*
X141482460Y-130329815D01*
X141436705Y-130277011D01*
X141425499Y-130225500D01*
X141425499Y-130102129D01*
X141425498Y-130102123D01*
X141419091Y-130042516D01*
X141368797Y-129907671D01*
X141368793Y-129907664D01*
X141282547Y-129792455D01*
X141282544Y-129792452D01*
X141167335Y-129706206D01*
X141167328Y-129706202D01*
X141032482Y-129655908D01*
X141032483Y-129655908D01*
X140972883Y-129649501D01*
X140972881Y-129649500D01*
X140972873Y-129649500D01*
X140972864Y-129649500D01*
X139177129Y-129649500D01*
X139177123Y-129649501D01*
X139117516Y-129655908D01*
X138982671Y-129706202D01*
X138982664Y-129706206D01*
X138867455Y-129792452D01*
X138867452Y-129792455D01*
X138781206Y-129907664D01*
X138781203Y-129907669D01*
X138732189Y-130039083D01*
X138690317Y-130095016D01*
X138624853Y-130119433D01*
X138556580Y-130104581D01*
X138528326Y-130083430D01*
X138406402Y-129961506D01*
X138406395Y-129961501D01*
X138212834Y-129825967D01*
X138212830Y-129825965D01*
X138212830Y-129825964D01*
X137998663Y-129726097D01*
X137998659Y-129726096D01*
X137998655Y-129726094D01*
X137770413Y-129664938D01*
X137770403Y-129664936D01*
X137535001Y-129644341D01*
X137534999Y-129644341D01*
X137299596Y-129664936D01*
X137299586Y-129664938D01*
X137071344Y-129726094D01*
X137071335Y-129726098D01*
X136857171Y-129825964D01*
X136857169Y-129825965D01*
X136663597Y-129961505D01*
X136661922Y-129963181D01*
X136661000Y-129963684D01*
X136659449Y-129964986D01*
X136659187Y-129964674D01*
X136600599Y-129996666D01*
X136574241Y-129999500D01*
X132065783Y-129999500D01*
X131998744Y-129979815D01*
X131978102Y-129963181D01*
X125036818Y-123021897D01*
X125003333Y-122960574D01*
X125000499Y-122934225D01*
X125000499Y-110913068D01*
X125020184Y-110846030D01*
X125072988Y-110800275D01*
X125142146Y-110790331D01*
X125205702Y-110819356D01*
X125242430Y-110874751D01*
X125272818Y-110968278D01*
X125272821Y-110968284D01*
X125367467Y-111132216D01*
X125473070Y-111249500D01*
X125494129Y-111272888D01*
X125647265Y-111384148D01*
X125647270Y-111384151D01*
X125820192Y-111461142D01*
X125820197Y-111461144D01*
X126005354Y-111500500D01*
X126005355Y-111500500D01*
X126194644Y-111500500D01*
X126194646Y-111500500D01*
X126379803Y-111461144D01*
X126552730Y-111384151D01*
X126705871Y-111272888D01*
X126832533Y-111132216D01*
X126927179Y-110968284D01*
X126985674Y-110788256D01*
X127005460Y-110600000D01*
X127005460Y-110599997D01*
X127005460Y-110595135D01*
X127025145Y-110528096D01*
X127041774Y-110507459D01*
X129893922Y-107655311D01*
X129899999Y-107649983D01*
X129928282Y-107628282D01*
X130024536Y-107502841D01*
X130085044Y-107356762D01*
X130100500Y-107239361D01*
X130105682Y-107200001D01*
X130104846Y-107193655D01*
X130101030Y-107164669D01*
X130100499Y-107156567D01*
X130100499Y-105967784D01*
X130100499Y-104800092D01*
X130120184Y-104733057D01*
X130136813Y-104712420D01*
X132493922Y-102355311D01*
X132499999Y-102349983D01*
X132528282Y-102328282D01*
X132624536Y-102202841D01*
X132685044Y-102056762D01*
X132700500Y-101939361D01*
X132705682Y-101900000D01*
X132701028Y-101864652D01*
X132700499Y-101856587D01*
X132700500Y-93819095D01*
X132720185Y-93752057D01*
X132772989Y-93706302D01*
X132842147Y-93696358D01*
X132905703Y-93725383D01*
X132912166Y-93731401D01*
X134148549Y-94967784D01*
X135267233Y-96086468D01*
X135300718Y-96147791D01*
X135299327Y-96206241D01*
X135264939Y-96334583D01*
X135264936Y-96334596D01*
X135244341Y-96569999D01*
X135244341Y-96570000D01*
X135264936Y-96805403D01*
X135264938Y-96805413D01*
X135326094Y-97033655D01*
X135326096Y-97033659D01*
X135326097Y-97033663D01*
X135419902Y-97234828D01*
X135425965Y-97247830D01*
X135425967Y-97247834D01*
X135561501Y-97441395D01*
X135561506Y-97441402D01*
X135728597Y-97608493D01*
X135728603Y-97608498D01*
X135914158Y-97738425D01*
X135957783Y-97793002D01*
X135964977Y-97862500D01*
X135933454Y-97924855D01*
X135914158Y-97941575D01*
X135728597Y-98071505D01*
X135561505Y-98238597D01*
X135425965Y-98432169D01*
X135425964Y-98432171D01*
X135326098Y-98646335D01*
X135326094Y-98646344D01*
X135264938Y-98874586D01*
X135264936Y-98874596D01*
X135244341Y-99109999D01*
X135244341Y-99110000D01*
X135264936Y-99345403D01*
X135264938Y-99345413D01*
X135326094Y-99573655D01*
X135326096Y-99573659D01*
X135326097Y-99573663D01*
X135413130Y-99760305D01*
X135425965Y-99787830D01*
X135425967Y-99787834D01*
X135561501Y-99981395D01*
X135561506Y-99981402D01*
X135728597Y-100148493D01*
X135728603Y-100148498D01*
X135914158Y-100278425D01*
X135957783Y-100333002D01*
X135964977Y-100402500D01*
X135933454Y-100464855D01*
X135914158Y-100481575D01*
X135728597Y-100611505D01*
X135561505Y-100778597D01*
X135425965Y-100972169D01*
X135425964Y-100972171D01*
X135326098Y-101186335D01*
X135326094Y-101186344D01*
X135264938Y-101414586D01*
X135264936Y-101414596D01*
X135244341Y-101649999D01*
X135244341Y-101650000D01*
X135264936Y-101885403D01*
X135264938Y-101885413D01*
X135326094Y-102113655D01*
X135326096Y-102113659D01*
X135326097Y-102113663D01*
X135367682Y-102202841D01*
X135425965Y-102327830D01*
X135425967Y-102327834D01*
X135561501Y-102521395D01*
X135561506Y-102521402D01*
X135728597Y-102688493D01*
X135728603Y-102688498D01*
X135914158Y-102818425D01*
X135957783Y-102873002D01*
X135964977Y-102942500D01*
X135933454Y-103004855D01*
X135914158Y-103021575D01*
X135728597Y-103151505D01*
X135561505Y-103318597D01*
X135425965Y-103512169D01*
X135425964Y-103512171D01*
X135326098Y-103726335D01*
X135326094Y-103726344D01*
X135264938Y-103954586D01*
X135264936Y-103954596D01*
X135244341Y-104189999D01*
X135244341Y-104190000D01*
X135264936Y-104425403D01*
X135264938Y-104425413D01*
X135326094Y-104653655D01*
X135326096Y-104653659D01*
X135326097Y-104653663D01*
X135394380Y-104800096D01*
X135425965Y-104867830D01*
X135425967Y-104867834D01*
X135561501Y-105061395D01*
X135561506Y-105061402D01*
X135728597Y-105228493D01*
X135728603Y-105228498D01*
X135914158Y-105358425D01*
X135957783Y-105413002D01*
X135964977Y-105482500D01*
X135933454Y-105544855D01*
X135914158Y-105561575D01*
X135728597Y-105691505D01*
X135561505Y-105858597D01*
X135425965Y-106052169D01*
X135425964Y-106052171D01*
X135326098Y-106266335D01*
X135326094Y-106266344D01*
X135264938Y-106494586D01*
X135264936Y-106494596D01*
X135244341Y-106729999D01*
X135244341Y-106730000D01*
X135264936Y-106965403D01*
X135264938Y-106965413D01*
X135326094Y-107193655D01*
X135326096Y-107193659D01*
X135326097Y-107193663D01*
X135412901Y-107379815D01*
X135425965Y-107407830D01*
X135425967Y-107407834D01*
X135530518Y-107557147D01*
X135558820Y-107597567D01*
X135561501Y-107601395D01*
X135561506Y-107601402D01*
X135728597Y-107768493D01*
X135728603Y-107768498D01*
X135914158Y-107898425D01*
X135957783Y-107953002D01*
X135964977Y-108022500D01*
X135933454Y-108084855D01*
X135914158Y-108101575D01*
X135728597Y-108231505D01*
X135561505Y-108398597D01*
X135425965Y-108592169D01*
X135425964Y-108592171D01*
X135326098Y-108806335D01*
X135326094Y-108806344D01*
X135264938Y-109034586D01*
X135264936Y-109034596D01*
X135244341Y-109269999D01*
X135244341Y-109270000D01*
X135264936Y-109505403D01*
X135264938Y-109505413D01*
X135326094Y-109733655D01*
X135326096Y-109733659D01*
X135326097Y-109733663D01*
X135364421Y-109815848D01*
X135425965Y-109947830D01*
X135425967Y-109947834D01*
X135561501Y-110141395D01*
X135561506Y-110141402D01*
X135728597Y-110308493D01*
X135728603Y-110308498D01*
X135914158Y-110438425D01*
X135957783Y-110493002D01*
X135964977Y-110562500D01*
X135933454Y-110624855D01*
X135914158Y-110641575D01*
X135728597Y-110771505D01*
X135561505Y-110938597D01*
X135425965Y-111132169D01*
X135425964Y-111132171D01*
X135326098Y-111346335D01*
X135326094Y-111346344D01*
X135264938Y-111574586D01*
X135264936Y-111574596D01*
X135244341Y-111809999D01*
X135244341Y-111810000D01*
X135264936Y-112045403D01*
X135264938Y-112045413D01*
X135326094Y-112273655D01*
X135326096Y-112273659D01*
X135326097Y-112273663D01*
X135362069Y-112350804D01*
X135425965Y-112487830D01*
X135425967Y-112487834D01*
X135561501Y-112681395D01*
X135561506Y-112681402D01*
X135728597Y-112848493D01*
X135728603Y-112848498D01*
X135914158Y-112978425D01*
X135957783Y-113033002D01*
X135964977Y-113102500D01*
X135933454Y-113164855D01*
X135914158Y-113181575D01*
X135728597Y-113311505D01*
X135561505Y-113478597D01*
X135425965Y-113672169D01*
X135425964Y-113672171D01*
X135326098Y-113886335D01*
X135326094Y-113886344D01*
X135264938Y-114114586D01*
X135264936Y-114114596D01*
X135244341Y-114349999D01*
X135244341Y-114350000D01*
X135264936Y-114585403D01*
X135264938Y-114585413D01*
X135326094Y-114813655D01*
X135326096Y-114813659D01*
X135326097Y-114813663D01*
X135406834Y-114986804D01*
X135425965Y-115027830D01*
X135425967Y-115027834D01*
X135561501Y-115221395D01*
X135561506Y-115221402D01*
X135728597Y-115388493D01*
X135728603Y-115388498D01*
X135914158Y-115518425D01*
X135957783Y-115573002D01*
X135964977Y-115642500D01*
X135933454Y-115704855D01*
X135914158Y-115721575D01*
X135728597Y-115851505D01*
X135561505Y-116018597D01*
X135425965Y-116212169D01*
X135425964Y-116212171D01*
X135326098Y-116426335D01*
X135326094Y-116426344D01*
X135264938Y-116654586D01*
X135264936Y-116654596D01*
X135244341Y-116889999D01*
X135244341Y-116890000D01*
X135264936Y-117125403D01*
X135264938Y-117125413D01*
X135326094Y-117353655D01*
X135326096Y-117353659D01*
X135326097Y-117353663D01*
X135382360Y-117474319D01*
X135425965Y-117567830D01*
X135425967Y-117567834D01*
X135561501Y-117761395D01*
X135561506Y-117761402D01*
X135728597Y-117928493D01*
X135728603Y-117928498D01*
X135914158Y-118058425D01*
X135957783Y-118113002D01*
X135964977Y-118182500D01*
X135933454Y-118244855D01*
X135914158Y-118261575D01*
X135728597Y-118391505D01*
X135561505Y-118558597D01*
X135425965Y-118752169D01*
X135425964Y-118752171D01*
X135326098Y-118966335D01*
X135326094Y-118966344D01*
X135264938Y-119194586D01*
X135264936Y-119194596D01*
X135244341Y-119429999D01*
X135244341Y-119430000D01*
X135264936Y-119665403D01*
X135264938Y-119665413D01*
X135326094Y-119893655D01*
X135326096Y-119893659D01*
X135326097Y-119893663D01*
X135425964Y-120107830D01*
X135425965Y-120107830D01*
X135425967Y-120107834D01*
X135561501Y-120301395D01*
X135561506Y-120301402D01*
X135728597Y-120468493D01*
X135728603Y-120468498D01*
X135914158Y-120598425D01*
X135957783Y-120653002D01*
X135964977Y-120722500D01*
X135933454Y-120784855D01*
X135914158Y-120801575D01*
X135728597Y-120931505D01*
X135561505Y-121098597D01*
X135425965Y-121292169D01*
X135425964Y-121292171D01*
X135326098Y-121506335D01*
X135326094Y-121506344D01*
X135264938Y-121734586D01*
X135264936Y-121734596D01*
X135244341Y-121969999D01*
X135244341Y-121970000D01*
X135264936Y-122205403D01*
X135264938Y-122205413D01*
X135326094Y-122433655D01*
X135326096Y-122433659D01*
X135326097Y-122433663D01*
X135425964Y-122647830D01*
X135425965Y-122647830D01*
X135425967Y-122647834D01*
X135561501Y-122841395D01*
X135561506Y-122841402D01*
X135728597Y-123008493D01*
X135728603Y-123008498D01*
X135914158Y-123138425D01*
X135957783Y-123193002D01*
X135964977Y-123262500D01*
X135933454Y-123324855D01*
X135914158Y-123341575D01*
X135728597Y-123471505D01*
X135561505Y-123638597D01*
X135425965Y-123832169D01*
X135425964Y-123832171D01*
X135326098Y-124046335D01*
X135326094Y-124046344D01*
X135264938Y-124274586D01*
X135264936Y-124274596D01*
X135244341Y-124509999D01*
X135244341Y-124510000D01*
X135264936Y-124745403D01*
X135264938Y-124745413D01*
X135326094Y-124973655D01*
X135326096Y-124973659D01*
X135326097Y-124973663D01*
X135425964Y-125187829D01*
X135425965Y-125187830D01*
X135425967Y-125187834D01*
X135534281Y-125342521D01*
X135561505Y-125381401D01*
X135728599Y-125548495D01*
X135825384Y-125616264D01*
X135922165Y-125684032D01*
X135922167Y-125684033D01*
X135922170Y-125684035D01*
X136136337Y-125783903D01*
X136364592Y-125845063D01*
X136552918Y-125861539D01*
X136599999Y-125865659D01*
X136600000Y-125865659D01*
X136600001Y-125865659D01*
X136639234Y-125862226D01*
X136835408Y-125845063D01*
X137063663Y-125783903D01*
X137277830Y-125684035D01*
X137471401Y-125548495D01*
X137638495Y-125381401D01*
X137774035Y-125187830D01*
X137873903Y-124973663D01*
X137935063Y-124745408D01*
X137955659Y-124510000D01*
X137935063Y-124274592D01*
X137873903Y-124046337D01*
X137774035Y-123832171D01*
X137770148Y-123826619D01*
X137638494Y-123638597D01*
X137471402Y-123471506D01*
X137471396Y-123471501D01*
X137285842Y-123341575D01*
X137242217Y-123286998D01*
X137235023Y-123217500D01*
X137266546Y-123155145D01*
X137285842Y-123138425D01*
X137308026Y-123122891D01*
X137471401Y-123008495D01*
X137638495Y-122841401D01*
X137774035Y-122647830D01*
X137873903Y-122433663D01*
X137935063Y-122205408D01*
X137955659Y-121970000D01*
X137935063Y-121734592D01*
X137873903Y-121506337D01*
X137774035Y-121292171D01*
X137638495Y-121098599D01*
X137638494Y-121098597D01*
X137471402Y-120931506D01*
X137471396Y-120931501D01*
X137285842Y-120801575D01*
X137242217Y-120746998D01*
X137235023Y-120677500D01*
X137266546Y-120615145D01*
X137285842Y-120598425D01*
X137308026Y-120582891D01*
X137471401Y-120468495D01*
X137638495Y-120301401D01*
X137774035Y-120107830D01*
X137873903Y-119893663D01*
X137935063Y-119665408D01*
X137955659Y-119430000D01*
X137935063Y-119194592D01*
X137873903Y-118966337D01*
X137774035Y-118752171D01*
X137735194Y-118696699D01*
X137638494Y-118558597D01*
X137471402Y-118391506D01*
X137471396Y-118391501D01*
X137285842Y-118261575D01*
X137242217Y-118206998D01*
X137235023Y-118137500D01*
X137266546Y-118075145D01*
X137285842Y-118058425D01*
X137373000Y-117997396D01*
X137471401Y-117928495D01*
X137638495Y-117761401D01*
X137774035Y-117567830D01*
X137873903Y-117353663D01*
X137935063Y-117125408D01*
X137955659Y-116890000D01*
X137935063Y-116654592D01*
X137873903Y-116426337D01*
X137774035Y-116212171D01*
X137667774Y-116060413D01*
X137638494Y-116018597D01*
X137471402Y-115851506D01*
X137471396Y-115851501D01*
X137285842Y-115721575D01*
X137242217Y-115666998D01*
X137235023Y-115597500D01*
X137266546Y-115535145D01*
X137285842Y-115518425D01*
X137375194Y-115455860D01*
X137471401Y-115388495D01*
X137638495Y-115221401D01*
X137774035Y-115027830D01*
X137873903Y-114813663D01*
X137935063Y-114585408D01*
X137955659Y-114350000D01*
X137935063Y-114114592D01*
X137873903Y-113886337D01*
X137774035Y-113672171D01*
X137734715Y-113616015D01*
X137638494Y-113478597D01*
X137471402Y-113311506D01*
X137471396Y-113311501D01*
X137285842Y-113181575D01*
X137242217Y-113126998D01*
X137235023Y-113057500D01*
X137266546Y-112995145D01*
X137285842Y-112978425D01*
X137389822Y-112905617D01*
X137471401Y-112848495D01*
X137638495Y-112681401D01*
X137774035Y-112487830D01*
X137873903Y-112273663D01*
X137935063Y-112045408D01*
X137955659Y-111810000D01*
X137935063Y-111574592D01*
X137879895Y-111368698D01*
X137873905Y-111346344D01*
X137873904Y-111346343D01*
X137873903Y-111346337D01*
X137774035Y-111132171D01*
X137659277Y-110968278D01*
X137638494Y-110938597D01*
X137471402Y-110771506D01*
X137471396Y-110771501D01*
X137285842Y-110641575D01*
X137242217Y-110586998D01*
X137235023Y-110517500D01*
X137266546Y-110455145D01*
X137285842Y-110438425D01*
X137447475Y-110325248D01*
X137471401Y-110308495D01*
X137638495Y-110141401D01*
X137774035Y-109947830D01*
X137873903Y-109733663D01*
X137935063Y-109505408D01*
X137955659Y-109270000D01*
X137935063Y-109034592D01*
X137873903Y-108806337D01*
X137774035Y-108592171D01*
X137732055Y-108532216D01*
X137638494Y-108398597D01*
X137471402Y-108231506D01*
X137471396Y-108231501D01*
X137285842Y-108101575D01*
X137242217Y-108046998D01*
X137235023Y-107977500D01*
X137266546Y-107915145D01*
X137285842Y-107898425D01*
X137308026Y-107882891D01*
X137471401Y-107768495D01*
X137638495Y-107601401D01*
X137774035Y-107407830D01*
X137873903Y-107193663D01*
X137935063Y-106965408D01*
X137955659Y-106730000D01*
X137935063Y-106494592D01*
X137873903Y-106266337D01*
X137774035Y-106052171D01*
X137741245Y-106005341D01*
X137638494Y-105858597D01*
X137471402Y-105691506D01*
X137471396Y-105691501D01*
X137285842Y-105561575D01*
X137242217Y-105506998D01*
X137235023Y-105437500D01*
X137266546Y-105375145D01*
X137285842Y-105358425D01*
X137378140Y-105293797D01*
X137471401Y-105228495D01*
X137638495Y-105061401D01*
X137774035Y-104867830D01*
X137873903Y-104653663D01*
X137935063Y-104425408D01*
X137955659Y-104190000D01*
X137935063Y-103954592D01*
X137873903Y-103726337D01*
X137774035Y-103512171D01*
X137774034Y-103512169D01*
X137638494Y-103318597D01*
X137471402Y-103151506D01*
X137471396Y-103151501D01*
X137285842Y-103021575D01*
X137242217Y-102966998D01*
X137235023Y-102897500D01*
X137266546Y-102835145D01*
X137285842Y-102818425D01*
X137322935Y-102792452D01*
X137471401Y-102688495D01*
X137638495Y-102521401D01*
X137774035Y-102327830D01*
X137873903Y-102113663D01*
X137935063Y-101885408D01*
X137955659Y-101650000D01*
X137935063Y-101414592D01*
X137873903Y-101186337D01*
X137774035Y-100972171D01*
X137740683Y-100924538D01*
X137638494Y-100778597D01*
X137471402Y-100611506D01*
X137471396Y-100611501D01*
X137285842Y-100481575D01*
X137242217Y-100426998D01*
X137235023Y-100357500D01*
X137266546Y-100295145D01*
X137285842Y-100278425D01*
X137443149Y-100168277D01*
X137471401Y-100148495D01*
X137638495Y-99981401D01*
X137774035Y-99787830D01*
X137873903Y-99573663D01*
X137935063Y-99345408D01*
X137955659Y-99110000D01*
X137935063Y-98874592D01*
X137873903Y-98646337D01*
X137774035Y-98432171D01*
X137759947Y-98412050D01*
X137638494Y-98238597D01*
X137471402Y-98071506D01*
X137471396Y-98071501D01*
X137285842Y-97941575D01*
X137242217Y-97886998D01*
X137235023Y-97817500D01*
X137266546Y-97755145D01*
X137285842Y-97738425D01*
X137395726Y-97661483D01*
X137471401Y-97608495D01*
X137638495Y-97441401D01*
X137774035Y-97247830D01*
X137873903Y-97033663D01*
X137935063Y-96805408D01*
X137955659Y-96570000D01*
X137935063Y-96334592D01*
X137900671Y-96206239D01*
X137902334Y-96136393D01*
X137932763Y-96086470D01*
X138537318Y-95481914D01*
X138598642Y-95448430D01*
X138668334Y-95453414D01*
X138724267Y-95495286D01*
X138748684Y-95560750D01*
X138749000Y-95569596D01*
X138749000Y-96736071D01*
X138748469Y-96744173D01*
X138743818Y-96779499D01*
X138743818Y-96779500D01*
X138749000Y-96818860D01*
X138764455Y-96936260D01*
X138764456Y-96936262D01*
X138804797Y-97033655D01*
X138824964Y-97082341D01*
X138921218Y-97207782D01*
X138949495Y-97229480D01*
X138955585Y-97234820D01*
X149816730Y-108095965D01*
X160667233Y-118946468D01*
X160700718Y-119007791D01*
X160699327Y-119066241D01*
X160664939Y-119194583D01*
X160664936Y-119194596D01*
X160644341Y-119429999D01*
X160644341Y-119430000D01*
X160664936Y-119665403D01*
X160664938Y-119665413D01*
X160726094Y-119893655D01*
X160726096Y-119893659D01*
X160726097Y-119893663D01*
X160825965Y-120107829D01*
X160825965Y-120107830D01*
X160825967Y-120107834D01*
X160934281Y-120262521D01*
X160961505Y-120301401D01*
X161128599Y-120468495D01*
X161225384Y-120536264D01*
X161322165Y-120604032D01*
X161322167Y-120604033D01*
X161322170Y-120604035D01*
X161536337Y-120703903D01*
X161764592Y-120765063D01*
X161952918Y-120781539D01*
X161999999Y-120785659D01*
X162000000Y-120785659D01*
X162000001Y-120785659D01*
X162039234Y-120782226D01*
X162235408Y-120765063D01*
X162463663Y-120703903D01*
X162677830Y-120604035D01*
X162871401Y-120468495D01*
X163038495Y-120301401D01*
X163174035Y-120107830D01*
X163273903Y-119893663D01*
X163335063Y-119665408D01*
X163355659Y-119430000D01*
X163335063Y-119194592D01*
X163273903Y-118966337D01*
X163174035Y-118752171D01*
X163135194Y-118696699D01*
X163038494Y-118558597D01*
X162871402Y-118391506D01*
X162871396Y-118391501D01*
X162685842Y-118261575D01*
X162642217Y-118206998D01*
X162635023Y-118137500D01*
X162666546Y-118075145D01*
X162685842Y-118058425D01*
X162773000Y-117997396D01*
X162871401Y-117928495D01*
X163038495Y-117761401D01*
X163174035Y-117567830D01*
X163273903Y-117353663D01*
X163335063Y-117125408D01*
X163355659Y-116890000D01*
X163335063Y-116654592D01*
X163273903Y-116426337D01*
X163174035Y-116212171D01*
X163067774Y-116060413D01*
X163038494Y-116018597D01*
X162871402Y-115851506D01*
X162871396Y-115851501D01*
X162685842Y-115721575D01*
X162642217Y-115666998D01*
X162635023Y-115597500D01*
X162666546Y-115535145D01*
X162685842Y-115518425D01*
X162775194Y-115455860D01*
X162871401Y-115388495D01*
X163038495Y-115221401D01*
X163174035Y-115027830D01*
X163273903Y-114813663D01*
X163335063Y-114585408D01*
X163355659Y-114350000D01*
X163335063Y-114114592D01*
X163273903Y-113886337D01*
X163174035Y-113672171D01*
X163134715Y-113616015D01*
X163038494Y-113478597D01*
X162871402Y-113311506D01*
X162871396Y-113311501D01*
X162685842Y-113181575D01*
X162642217Y-113126998D01*
X162635023Y-113057500D01*
X162666546Y-112995145D01*
X162685842Y-112978425D01*
X162789822Y-112905617D01*
X162871401Y-112848495D01*
X163038495Y-112681401D01*
X163174035Y-112487830D01*
X163273903Y-112273663D01*
X163335063Y-112045408D01*
X163355659Y-111810000D01*
X163335063Y-111574592D01*
X163279895Y-111368698D01*
X163273905Y-111346344D01*
X163273904Y-111346343D01*
X163273903Y-111346337D01*
X163174035Y-111132171D01*
X163059277Y-110968278D01*
X163038494Y-110938597D01*
X162871402Y-110771506D01*
X162871396Y-110771501D01*
X162685842Y-110641575D01*
X162642217Y-110586998D01*
X162635023Y-110517500D01*
X162666546Y-110455145D01*
X162685842Y-110438425D01*
X162847475Y-110325248D01*
X162871401Y-110308495D01*
X163038495Y-110141401D01*
X163174035Y-109947830D01*
X163273903Y-109733663D01*
X163335063Y-109505408D01*
X163355659Y-109270000D01*
X163335063Y-109034592D01*
X163273903Y-108806337D01*
X163260177Y-108776902D01*
X163249686Y-108707829D01*
X163278205Y-108644044D01*
X163336681Y-108605804D01*
X163372560Y-108600500D01*
X165373742Y-108600500D01*
X165440781Y-108620185D01*
X165465891Y-108641527D01*
X165494128Y-108672887D01*
X165494135Y-108672893D01*
X165647265Y-108784148D01*
X165647270Y-108784151D01*
X165820192Y-108861142D01*
X165820197Y-108861144D01*
X166005354Y-108900500D01*
X166005355Y-108900500D01*
X166194644Y-108900500D01*
X166194646Y-108900500D01*
X166379803Y-108861144D01*
X166552730Y-108784151D01*
X166705871Y-108672888D01*
X166832533Y-108532216D01*
X166927179Y-108368284D01*
X166985674Y-108188256D01*
X167005460Y-108000000D01*
X166985674Y-107811744D01*
X166927179Y-107631716D01*
X166832533Y-107467784D01*
X166705871Y-107327112D01*
X166705732Y-107327011D01*
X166552734Y-107215851D01*
X166552729Y-107215848D01*
X166379807Y-107138857D01*
X166379802Y-107138855D01*
X166234000Y-107107865D01*
X166194646Y-107099500D01*
X166005354Y-107099500D01*
X165972897Y-107106398D01*
X165820197Y-107138855D01*
X165820192Y-107138857D01*
X165647270Y-107215848D01*
X165647265Y-107215851D01*
X165494135Y-107327106D01*
X165494128Y-107327112D01*
X165465891Y-107358473D01*
X165406405Y-107395121D01*
X165373742Y-107399500D01*
X163372560Y-107399500D01*
X163305521Y-107379815D01*
X163259766Y-107327011D01*
X163249822Y-107257853D01*
X163260176Y-107223099D01*
X163273903Y-107193663D01*
X163335063Y-106965408D01*
X163355659Y-106730000D01*
X163335063Y-106494592D01*
X163273903Y-106266337D01*
X163174035Y-106052171D01*
X163141245Y-106005341D01*
X163038494Y-105858597D01*
X162871402Y-105691506D01*
X162871396Y-105691501D01*
X162685842Y-105561575D01*
X162642217Y-105506998D01*
X162635023Y-105437500D01*
X162666546Y-105375145D01*
X162685842Y-105358425D01*
X162778140Y-105293797D01*
X162871401Y-105228495D01*
X163038495Y-105061401D01*
X163174035Y-104867830D01*
X163176707Y-104862097D01*
X163222878Y-104809658D01*
X163289091Y-104790500D01*
X166751574Y-104790500D01*
X166818613Y-104810185D01*
X166864368Y-104862989D01*
X166874864Y-104901247D01*
X166880908Y-104957483D01*
X166931202Y-105092328D01*
X166931206Y-105092335D01*
X167017452Y-105207544D01*
X167017455Y-105207547D01*
X167132664Y-105293793D01*
X167132671Y-105293797D01*
X167267517Y-105344091D01*
X167267516Y-105344091D01*
X167274444Y-105344835D01*
X167327127Y-105350500D01*
X169122872Y-105350499D01*
X169182483Y-105344091D01*
X169317331Y-105293796D01*
X169432546Y-105207546D01*
X169518796Y-105092331D01*
X169569091Y-104957483D01*
X169575500Y-104897873D01*
X169575499Y-103102128D01*
X169569091Y-103042517D01*
X169561280Y-103021575D01*
X169518797Y-102907671D01*
X169518793Y-102907664D01*
X169432547Y-102792455D01*
X169432544Y-102792452D01*
X169317335Y-102706206D01*
X169317328Y-102706202D01*
X169182482Y-102655908D01*
X169182483Y-102655908D01*
X169122883Y-102649501D01*
X169122881Y-102649500D01*
X169122873Y-102649500D01*
X169122864Y-102649500D01*
X167327129Y-102649500D01*
X167327123Y-102649501D01*
X167267516Y-102655908D01*
X167132671Y-102706202D01*
X167132664Y-102706206D01*
X167017455Y-102792452D01*
X167017452Y-102792455D01*
X166931206Y-102907664D01*
X166931202Y-102907671D01*
X166880908Y-103042517D01*
X166874501Y-103102116D01*
X166874501Y-103102123D01*
X166874500Y-103102135D01*
X166874500Y-103465500D01*
X166854815Y-103532539D01*
X166802011Y-103578294D01*
X166750500Y-103589500D01*
X163289091Y-103589500D01*
X163222052Y-103569815D01*
X163176711Y-103517909D01*
X163174037Y-103512175D01*
X163174034Y-103512170D01*
X163174033Y-103512169D01*
X163038495Y-103318599D01*
X163038494Y-103318597D01*
X162871402Y-103151506D01*
X162871396Y-103151501D01*
X162685842Y-103021575D01*
X162642217Y-102966998D01*
X162635023Y-102897500D01*
X162666546Y-102835145D01*
X162685842Y-102818425D01*
X162722935Y-102792452D01*
X162871401Y-102688495D01*
X163038495Y-102521401D01*
X163174035Y-102327830D01*
X163273903Y-102113663D01*
X163335063Y-101885408D01*
X163355659Y-101650000D01*
X163335063Y-101414592D01*
X163273903Y-101186337D01*
X163273900Y-101186330D01*
X163273900Y-101186329D01*
X163269504Y-101176902D01*
X163259013Y-101107825D01*
X163287535Y-101044041D01*
X163346012Y-101005803D01*
X163381887Y-101000500D01*
X163956572Y-101000500D01*
X163964670Y-101001030D01*
X164000000Y-101005682D01*
X164000001Y-101005682D01*
X164052254Y-100998802D01*
X164156762Y-100985044D01*
X164302841Y-100924536D01*
X164351828Y-100886947D01*
X164428282Y-100828282D01*
X164449980Y-100800002D01*
X164455324Y-100793910D01*
X164512418Y-100736817D01*
X164573742Y-100703333D01*
X164600098Y-100700500D01*
X164694644Y-100700500D01*
X164694646Y-100700500D01*
X164879803Y-100661144D01*
X165052730Y-100584151D01*
X165205871Y-100472888D01*
X165332533Y-100332216D01*
X165427179Y-100168284D01*
X165485674Y-99988256D01*
X165505460Y-99800000D01*
X165485674Y-99611744D01*
X165427179Y-99431716D01*
X165332533Y-99267784D01*
X165205871Y-99127112D01*
X165205870Y-99127111D01*
X165052734Y-99015851D01*
X165052729Y-99015848D01*
X164879807Y-98938857D01*
X164879802Y-98938855D01*
X164734000Y-98907865D01*
X164694646Y-98899500D01*
X164505354Y-98899500D01*
X164472897Y-98906398D01*
X164320197Y-98938855D01*
X164320192Y-98938857D01*
X164147270Y-99015848D01*
X164147265Y-99015851D01*
X163994129Y-99127111D01*
X163867466Y-99267785D01*
X163772821Y-99431715D01*
X163772818Y-99431722D01*
X163714325Y-99611745D01*
X163706263Y-99688461D01*
X163679679Y-99753075D01*
X163622382Y-99793061D01*
X163582942Y-99799500D01*
X163363234Y-99799500D01*
X163296195Y-99779815D01*
X163250440Y-99727011D01*
X163240496Y-99657853D01*
X163250852Y-99623095D01*
X163273903Y-99573663D01*
X163335063Y-99345408D01*
X163355659Y-99110000D01*
X163335063Y-98874592D01*
X163273903Y-98646337D01*
X163174035Y-98432171D01*
X163159947Y-98412050D01*
X163038494Y-98238597D01*
X162871402Y-98071506D01*
X162871396Y-98071501D01*
X162685842Y-97941575D01*
X162642217Y-97886998D01*
X162635023Y-97817500D01*
X162666546Y-97755145D01*
X162685842Y-97738425D01*
X162795726Y-97661483D01*
X162871401Y-97608495D01*
X163038495Y-97441401D01*
X163174035Y-97247830D01*
X163273903Y-97033663D01*
X163335063Y-96805408D01*
X163355659Y-96570000D01*
X163335063Y-96334592D01*
X163273903Y-96106337D01*
X163174035Y-95892171D01*
X163162574Y-95875802D01*
X163038494Y-95698597D01*
X162871402Y-95531506D01*
X162871396Y-95531501D01*
X162685842Y-95401575D01*
X162642217Y-95346998D01*
X162635023Y-95277500D01*
X162666546Y-95215145D01*
X162685842Y-95198425D01*
X162767475Y-95141265D01*
X162871401Y-95068495D01*
X163038495Y-94901401D01*
X163174035Y-94707830D01*
X163273903Y-94493663D01*
X163335063Y-94265408D01*
X163355659Y-94030000D01*
X163335063Y-93794592D01*
X163275981Y-93574091D01*
X163273905Y-93566344D01*
X163273904Y-93566343D01*
X163273903Y-93566337D01*
X163174035Y-93352171D01*
X163038495Y-93158599D01*
X163038494Y-93158597D01*
X162871402Y-92991506D01*
X162871396Y-92991501D01*
X162685842Y-92861575D01*
X162642217Y-92806998D01*
X162635023Y-92737500D01*
X162666546Y-92675145D01*
X162685842Y-92658425D01*
X162782260Y-92590912D01*
X162871401Y-92528495D01*
X163038495Y-92361401D01*
X163174035Y-92167830D01*
X163273903Y-91953663D01*
X163335063Y-91725408D01*
X163355659Y-91490000D01*
X163335063Y-91254592D01*
X163274111Y-91027112D01*
X163273905Y-91026344D01*
X163273904Y-91026343D01*
X163273903Y-91026337D01*
X163174035Y-90812171D01*
X163122869Y-90739097D01*
X163038494Y-90618597D01*
X162871402Y-90451506D01*
X162871396Y-90451501D01*
X162685842Y-90321575D01*
X162642217Y-90266998D01*
X162635023Y-90197500D01*
X162666546Y-90135145D01*
X162685842Y-90118425D01*
X162708026Y-90102891D01*
X162871401Y-89988495D01*
X163038495Y-89821401D01*
X163174035Y-89627830D01*
X163273903Y-89413663D01*
X163335063Y-89185408D01*
X163355659Y-88950000D01*
X163335063Y-88714592D01*
X163282143Y-88517091D01*
X163273905Y-88486344D01*
X163273904Y-88486343D01*
X163273903Y-88486337D01*
X163174035Y-88272171D01*
X163151062Y-88239361D01*
X163038494Y-88078597D01*
X162871402Y-87911506D01*
X162871396Y-87911501D01*
X162685842Y-87781575D01*
X162642217Y-87726998D01*
X162635023Y-87657500D01*
X162666546Y-87595145D01*
X162685842Y-87578425D01*
X162799501Y-87498840D01*
X162871401Y-87448495D01*
X163038495Y-87281401D01*
X163174035Y-87087830D01*
X163273903Y-86873663D01*
X163335063Y-86645408D01*
X163355659Y-86410000D01*
X163335063Y-86174592D01*
X163273903Y-85946337D01*
X163174035Y-85732171D01*
X163159730Y-85711740D01*
X163038494Y-85538597D01*
X162871402Y-85371506D01*
X162871396Y-85371501D01*
X162685842Y-85241575D01*
X162642217Y-85186998D01*
X162635023Y-85117500D01*
X162666546Y-85055145D01*
X162685842Y-85038425D01*
X162724305Y-85011493D01*
X162871401Y-84908495D01*
X163038495Y-84741401D01*
X163174035Y-84547830D01*
X163273903Y-84333663D01*
X163335063Y-84105408D01*
X163355659Y-83870000D01*
X163352398Y-83832733D01*
X163347055Y-83771656D01*
X163335063Y-83634592D01*
X163273903Y-83406337D01*
X163174035Y-83192171D01*
X163156960Y-83167784D01*
X163038494Y-82998597D01*
X162871402Y-82831506D01*
X162871396Y-82831501D01*
X162685842Y-82701575D01*
X162642217Y-82646998D01*
X162635023Y-82577500D01*
X162666546Y-82515145D01*
X162685842Y-82498425D01*
X162746779Y-82455756D01*
X162871401Y-82368495D01*
X163038495Y-82201401D01*
X163174035Y-82007830D01*
X163273903Y-81793663D01*
X163335063Y-81565408D01*
X163355659Y-81330000D01*
X163353771Y-81308426D01*
X163349241Y-81256640D01*
X163335063Y-81094592D01*
X163273903Y-80866337D01*
X163174035Y-80652171D01*
X163128811Y-80587583D01*
X163038494Y-80458597D01*
X162871402Y-80291506D01*
X162871396Y-80291501D01*
X162685842Y-80161575D01*
X162642217Y-80106998D01*
X162635023Y-80037500D01*
X162666546Y-79975145D01*
X162685842Y-79958425D01*
X162729560Y-79927813D01*
X162871401Y-79828495D01*
X163038495Y-79661401D01*
X163174035Y-79467830D01*
X163273903Y-79253663D01*
X163335063Y-79025408D01*
X163355659Y-78790000D01*
X163335063Y-78554592D01*
X163273903Y-78326337D01*
X163174035Y-78112171D01*
X163170240Y-78106750D01*
X163038494Y-77918597D01*
X162871402Y-77751506D01*
X162871396Y-77751501D01*
X162685842Y-77621575D01*
X162642217Y-77566998D01*
X162635023Y-77497500D01*
X162666546Y-77435145D01*
X162685842Y-77418425D01*
X162758102Y-77367828D01*
X162871401Y-77288495D01*
X163038495Y-77121401D01*
X163173520Y-76928565D01*
X163228095Y-76884942D01*
X163297593Y-76877748D01*
X163359948Y-76909271D01*
X163362774Y-76912009D01*
X163663181Y-77212416D01*
X163696666Y-77273739D01*
X163699500Y-77300097D01*
X163699500Y-80856571D01*
X163698969Y-80864669D01*
X163694318Y-80900000D01*
X163699500Y-80939361D01*
X163700296Y-80945408D01*
X163714955Y-81056760D01*
X163714956Y-81056762D01*
X163770202Y-81190139D01*
X163775464Y-81202841D01*
X163871718Y-81328282D01*
X163899995Y-81349980D01*
X163906085Y-81355320D01*
X167582110Y-85031345D01*
X171244669Y-88693904D01*
X171250020Y-88700005D01*
X171271718Y-88728282D01*
X171329850Y-88772888D01*
X171397159Y-88824536D01*
X171397161Y-88824536D01*
X171397163Y-88824538D01*
X171470198Y-88854789D01*
X171543238Y-88885044D01*
X171621619Y-88895363D01*
X171699999Y-88905682D01*
X171700000Y-88905682D01*
X171735329Y-88901030D01*
X171743428Y-88900500D01*
X174056572Y-88900500D01*
X174064670Y-88901030D01*
X174100000Y-88905682D01*
X174100001Y-88905682D01*
X174152253Y-88898802D01*
X174256762Y-88885044D01*
X174402841Y-88824536D01*
X174470150Y-88772888D01*
X174528282Y-88728282D01*
X174549983Y-88699999D01*
X174555311Y-88693922D01*
X174593922Y-88655311D01*
X174599999Y-88649983D01*
X174628282Y-88628282D01*
X174724536Y-88502841D01*
X174785044Y-88356762D01*
X174800500Y-88239361D01*
X174805682Y-88200000D01*
X174801030Y-88164669D01*
X174800500Y-88156571D01*
X174800500Y-86626452D01*
X174820185Y-86559413D01*
X174832350Y-86543480D01*
X174838461Y-86536693D01*
X174932533Y-86432216D01*
X175027179Y-86268284D01*
X175085674Y-86088256D01*
X175105460Y-85900000D01*
X175085674Y-85711744D01*
X175027179Y-85531716D01*
X174932533Y-85367784D01*
X174805871Y-85227112D01*
X174805870Y-85227111D01*
X174652734Y-85115851D01*
X174652729Y-85115848D01*
X174479807Y-85038857D01*
X174479802Y-85038855D01*
X174334000Y-85007865D01*
X174294646Y-84999500D01*
X174105354Y-84999500D01*
X174072897Y-85006398D01*
X173920197Y-85038855D01*
X173920192Y-85038857D01*
X173747270Y-85115848D01*
X173747265Y-85115851D01*
X173594129Y-85227111D01*
X173467466Y-85367785D01*
X173372821Y-85531715D01*
X173372818Y-85531722D01*
X173314831Y-85710190D01*
X173314326Y-85711744D01*
X173294540Y-85900000D01*
X173314326Y-86088256D01*
X173314327Y-86088259D01*
X173372818Y-86268277D01*
X173372821Y-86268284D01*
X173467467Y-86432216D01*
X173561539Y-86536693D01*
X173567650Y-86543480D01*
X173597880Y-86606471D01*
X173599500Y-86626452D01*
X173599500Y-87575500D01*
X173579815Y-87642539D01*
X173527011Y-87688294D01*
X173475500Y-87699500D01*
X172000097Y-87699500D01*
X171933058Y-87679815D01*
X171912416Y-87663181D01*
X169349747Y-85100512D01*
X169316262Y-85039189D01*
X169321246Y-84969497D01*
X169363118Y-84913564D01*
X169428582Y-84889147D01*
X169463202Y-84891540D01*
X169505354Y-84900500D01*
X169505356Y-84900500D01*
X169694644Y-84900500D01*
X169694646Y-84900500D01*
X169879803Y-84861144D01*
X170052730Y-84784151D01*
X170205871Y-84672888D01*
X170332533Y-84532216D01*
X170427179Y-84368284D01*
X170485674Y-84188256D01*
X170505460Y-84000000D01*
X170485674Y-83811744D01*
X170428115Y-83634596D01*
X170427181Y-83631722D01*
X170427180Y-83631721D01*
X170427179Y-83631716D01*
X170332533Y-83467784D01*
X170205871Y-83327112D01*
X170205870Y-83327111D01*
X170052734Y-83215851D01*
X170052729Y-83215848D01*
X169879807Y-83138857D01*
X169879802Y-83138855D01*
X169734001Y-83107865D01*
X169694646Y-83099500D01*
X169694645Y-83099500D01*
X169600097Y-83099500D01*
X169533058Y-83079815D01*
X169512416Y-83063181D01*
X166336819Y-79887583D01*
X166303334Y-79826260D01*
X166300500Y-79799902D01*
X166300500Y-78731250D01*
X175988290Y-78731250D01*
X176008076Y-78919506D01*
X176008077Y-78919509D01*
X176066568Y-79099527D01*
X176066571Y-79099534D01*
X176161217Y-79263466D01*
X176251994Y-79364284D01*
X176287879Y-79404138D01*
X176441015Y-79515398D01*
X176441020Y-79515401D01*
X176613942Y-79592392D01*
X176613947Y-79592394D01*
X176799104Y-79631750D01*
X176799105Y-79631750D01*
X176988394Y-79631750D01*
X176988396Y-79631750D01*
X177173553Y-79592394D01*
X177346480Y-79515401D01*
X177357486Y-79507405D01*
X177360202Y-79505432D01*
X177426008Y-79481952D01*
X177433087Y-79481750D01*
X181080045Y-79481750D01*
X181098015Y-79483059D01*
X181121773Y-79486539D01*
X181173818Y-79481985D01*
X181179220Y-79481750D01*
X181187454Y-79481750D01*
X181187459Y-79481750D01*
X181199077Y-79480391D01*
X181220026Y-79477943D01*
X181232778Y-79476827D01*
X181296547Y-79471249D01*
X181296555Y-79471246D01*
X181303616Y-79469789D01*
X181303628Y-79469848D01*
X181310993Y-79468215D01*
X181310979Y-79468156D01*
X181317996Y-79466491D01*
X181318005Y-79466491D01*
X181390173Y-79440224D01*
X181463084Y-79416064D01*
X181463093Y-79416057D01*
X181469632Y-79413010D01*
X181469658Y-79413066D01*
X181476440Y-79409782D01*
X181476413Y-79409728D01*
X181482856Y-79406490D01*
X181482867Y-79406487D01*
X181547033Y-79364284D01*
X181612406Y-79323962D01*
X181612412Y-79323955D01*
X181618075Y-79319479D01*
X181618112Y-79319527D01*
X181623954Y-79314768D01*
X181623914Y-79314721D01*
X181629441Y-79310082D01*
X181629446Y-79310080D01*
X181635194Y-79303988D01*
X181682136Y-79254231D01*
X183982716Y-76953651D01*
X196534996Y-76953651D01*
X196544995Y-77163577D01*
X196594546Y-77367828D01*
X196594548Y-77367832D01*
X196681848Y-77558993D01*
X196681851Y-77558998D01*
X196681852Y-77559000D01*
X196681854Y-77559003D01*
X196803764Y-77730202D01*
X196803765Y-77730203D01*
X196803770Y-77730209D01*
X196955870Y-77875235D01*
X197050828Y-77936261D01*
X197132678Y-77988863D01*
X197327793Y-78066975D01*
X197430979Y-78086862D01*
X197534164Y-78106750D01*
X197534165Y-78106750D01*
X197814482Y-78106750D01*
X197881521Y-78126435D01*
X197927276Y-78179239D01*
X197937220Y-78248397D01*
X197936286Y-78253984D01*
X197910023Y-78391662D01*
X197919543Y-78542990D01*
X197919946Y-78549387D01*
X197919946Y-78549390D01*
X197958392Y-78667712D01*
X197968783Y-78699691D01*
X198053464Y-78833127D01*
X198168668Y-78941312D01*
X198168670Y-78941313D01*
X198168672Y-78941315D01*
X198307154Y-79017445D01*
X198307158Y-79017447D01*
X198460231Y-79056750D01*
X198460234Y-79056750D01*
X198578598Y-79056750D01*
X198578600Y-79056750D01*
X198578605Y-79056749D01*
X198578609Y-79056749D01*
X198591978Y-79055060D01*
X198696042Y-79041914D01*
X198842982Y-78983736D01*
X198970837Y-78890844D01*
X199071574Y-78769073D01*
X199138864Y-78626076D01*
X199168477Y-78470838D01*
X199158554Y-78313112D01*
X199109717Y-78162809D01*
X199049631Y-78068129D01*
X199030331Y-78000980D01*
X199050398Y-77934054D01*
X199077672Y-77904222D01*
X199202136Y-77806342D01*
X199339769Y-77647506D01*
X199351051Y-77627966D01*
X199444851Y-77465499D01*
X199444850Y-77465499D01*
X199444854Y-77465494D01*
X199513594Y-77266883D01*
X199543504Y-77058852D01*
X199538493Y-76953651D01*
X200814996Y-76953651D01*
X200824995Y-77163577D01*
X200874546Y-77367828D01*
X200874548Y-77367832D01*
X200961848Y-77558993D01*
X200961851Y-77558998D01*
X200961852Y-77559000D01*
X200961854Y-77559003D01*
X201083764Y-77730202D01*
X201083765Y-77730203D01*
X201083770Y-77730209D01*
X201235870Y-77875235D01*
X201330828Y-77936261D01*
X201412678Y-77988863D01*
X201607793Y-78066975D01*
X201710978Y-78086862D01*
X201814164Y-78106750D01*
X201814165Y-78106750D01*
X202571669Y-78106750D01*
X202571675Y-78106750D01*
X202728468Y-78091778D01*
X202930125Y-78032566D01*
X203116932Y-77936261D01*
X203119739Y-77934054D01*
X203240791Y-77838856D01*
X203282136Y-77806342D01*
X203419769Y-77647506D01*
X203431051Y-77627966D01*
X203524851Y-77465499D01*
X203524850Y-77465499D01*
X203524854Y-77465494D01*
X203593594Y-77266883D01*
X203623504Y-77058852D01*
X203613504Y-76848920D01*
X203563954Y-76644674D01*
X203563951Y-76644667D01*
X203476651Y-76453506D01*
X203476648Y-76453501D01*
X203476647Y-76453500D01*
X203476646Y-76453497D01*
X203354736Y-76282298D01*
X203354734Y-76282296D01*
X203354729Y-76282290D01*
X203202629Y-76137264D01*
X203025824Y-76023638D01*
X203003238Y-76014596D01*
X202841940Y-75950022D01*
X202830705Y-75945524D01*
X202624336Y-75905750D01*
X202624335Y-75905750D01*
X201866825Y-75905750D01*
X201710031Y-75920721D01*
X201710032Y-75920722D01*
X201710028Y-75920723D01*
X201508377Y-75979933D01*
X201321563Y-76076241D01*
X201156366Y-76206155D01*
X201156362Y-76206159D01*
X201018728Y-76364996D01*
X200913648Y-76547000D01*
X200844906Y-76745615D01*
X200844906Y-76745617D01*
X200818708Y-76927834D01*
X200814996Y-76953651D01*
X199538493Y-76953651D01*
X199533504Y-76848920D01*
X199483954Y-76644674D01*
X199483951Y-76644667D01*
X199396651Y-76453506D01*
X199396648Y-76453501D01*
X199396647Y-76453500D01*
X199396646Y-76453497D01*
X199274736Y-76282298D01*
X199274734Y-76282296D01*
X199274729Y-76282290D01*
X199122629Y-76137264D01*
X198945824Y-76023638D01*
X198923238Y-76014596D01*
X198761940Y-75950022D01*
X198750705Y-75945524D01*
X198544336Y-75905750D01*
X198544335Y-75905750D01*
X197586825Y-75905750D01*
X197430032Y-75920721D01*
X197430032Y-75920722D01*
X197430028Y-75920723D01*
X197228377Y-75979933D01*
X197041563Y-76076241D01*
X196876366Y-76206155D01*
X196876362Y-76206159D01*
X196738728Y-76364996D01*
X196633648Y-76547000D01*
X196564906Y-76745615D01*
X196564906Y-76745617D01*
X196538708Y-76927834D01*
X196534996Y-76953651D01*
X183982716Y-76953651D01*
X188174548Y-72761819D01*
X188235871Y-72728334D01*
X188262229Y-72725500D01*
X188735663Y-72725500D01*
X188802702Y-72745185D01*
X188808548Y-72749182D01*
X188822265Y-72759148D01*
X188822270Y-72759151D01*
X188995192Y-72836142D01*
X188995197Y-72836144D01*
X189180354Y-72875500D01*
X189180355Y-72875500D01*
X189369644Y-72875500D01*
X189369646Y-72875500D01*
X189554803Y-72836144D01*
X189727730Y-72759151D01*
X189880871Y-72647888D01*
X190007533Y-72507216D01*
X190102179Y-72343284D01*
X190160674Y-72163256D01*
X190180460Y-71975000D01*
X190160674Y-71786744D01*
X190102179Y-71606716D01*
X190007533Y-71442784D01*
X189880871Y-71302112D01*
X189880870Y-71302111D01*
X189727734Y-71190851D01*
X189727729Y-71190848D01*
X189554807Y-71113857D01*
X189554802Y-71113855D01*
X189409001Y-71082865D01*
X189369646Y-71074500D01*
X189180354Y-71074500D01*
X189147897Y-71081398D01*
X188995197Y-71113855D01*
X188995192Y-71113857D01*
X188822270Y-71190848D01*
X188822265Y-71190851D01*
X188808548Y-71200818D01*
X188742742Y-71224298D01*
X188735663Y-71224500D01*
X187963705Y-71224500D01*
X187945735Y-71223191D01*
X187921972Y-71219710D01*
X187876890Y-71223655D01*
X187869933Y-71224264D01*
X187864532Y-71224500D01*
X187856288Y-71224500D01*
X187823707Y-71228308D01*
X187747199Y-71235001D01*
X187740133Y-71236461D01*
X187740121Y-71236404D01*
X187732754Y-71238038D01*
X187732768Y-71238094D01*
X187725751Y-71239756D01*
X187653573Y-71266026D01*
X187580662Y-71290187D01*
X187574119Y-71293238D01*
X187574094Y-71293186D01*
X187567314Y-71296468D01*
X187567340Y-71296520D01*
X187560881Y-71299764D01*
X187496709Y-71341970D01*
X187431345Y-71382288D01*
X187425677Y-71386770D01*
X187425641Y-71386724D01*
X187419798Y-71391484D01*
X187419835Y-71391528D01*
X187414310Y-71396164D01*
X187414304Y-71396169D01*
X187414304Y-71396170D01*
X187385112Y-71427111D01*
X187361597Y-71452035D01*
X180869201Y-77944431D01*
X180807878Y-77977916D01*
X180781520Y-77980750D01*
X178881458Y-77980750D01*
X178814419Y-77961065D01*
X178768664Y-77908261D01*
X178758720Y-77839103D01*
X178763526Y-77818435D01*
X178765890Y-77811159D01*
X178776271Y-77779207D01*
X178806518Y-77729848D01*
X183649548Y-72886819D01*
X183710872Y-72853334D01*
X183737230Y-72850500D01*
X183754413Y-72850500D01*
X183821452Y-72870185D01*
X183827298Y-72874182D01*
X183841015Y-72884148D01*
X183841020Y-72884151D01*
X184013942Y-72961142D01*
X184013947Y-72961144D01*
X184199104Y-73000500D01*
X184199105Y-73000500D01*
X184388394Y-73000500D01*
X184388396Y-73000500D01*
X184573553Y-72961144D01*
X184746480Y-72884151D01*
X184899621Y-72772888D01*
X185026283Y-72632216D01*
X185120929Y-72468284D01*
X185179424Y-72288256D01*
X185199210Y-72100000D01*
X185179424Y-71911744D01*
X185120929Y-71731716D01*
X185026283Y-71567784D01*
X184899621Y-71427112D01*
X184896388Y-71424763D01*
X184746484Y-71315851D01*
X184746479Y-71315848D01*
X184573557Y-71238857D01*
X184573552Y-71238855D01*
X184427751Y-71207865D01*
X184388396Y-71199500D01*
X184199104Y-71199500D01*
X184166647Y-71206398D01*
X184013947Y-71238855D01*
X184013942Y-71238857D01*
X183841020Y-71315848D01*
X183841015Y-71315851D01*
X183827298Y-71325818D01*
X183761492Y-71349298D01*
X183754413Y-71349500D01*
X183438705Y-71349500D01*
X183420735Y-71348191D01*
X183396972Y-71344710D01*
X183351890Y-71348655D01*
X183344933Y-71349264D01*
X183339532Y-71349500D01*
X183331287Y-71349500D01*
X183305222Y-71352546D01*
X183298705Y-71353308D01*
X183293403Y-71353771D01*
X183222201Y-71360001D01*
X183215134Y-71361461D01*
X183215122Y-71361404D01*
X183207753Y-71363038D01*
X183207767Y-71363095D01*
X183200739Y-71364760D01*
X183145536Y-71384852D01*
X183128563Y-71391030D01*
X183055666Y-71415186D01*
X183055664Y-71415186D01*
X183055661Y-71415188D01*
X183049122Y-71418237D01*
X183049097Y-71418185D01*
X183042308Y-71421471D01*
X183042334Y-71421522D01*
X183035884Y-71424761D01*
X182971716Y-71466964D01*
X182906347Y-71507285D01*
X182900677Y-71511769D01*
X182900641Y-71511723D01*
X182894798Y-71516484D01*
X182894835Y-71516528D01*
X182889310Y-71521164D01*
X182836614Y-71577017D01*
X177740978Y-76672652D01*
X177679655Y-76706137D01*
X177679079Y-76706261D01*
X177613946Y-76720106D01*
X177613942Y-76720107D01*
X177441020Y-76797098D01*
X177441015Y-76797101D01*
X177287879Y-76908361D01*
X177161216Y-77049035D01*
X177066571Y-77212965D01*
X177066568Y-77212972D01*
X177012281Y-77380052D01*
X177008076Y-77392994D01*
X176988290Y-77581250D01*
X177000118Y-77693791D01*
X176987550Y-77762518D01*
X176939818Y-77813542D01*
X176876798Y-77830750D01*
X176799104Y-77830750D01*
X176766647Y-77837648D01*
X176613947Y-77870105D01*
X176613942Y-77870107D01*
X176441020Y-77947098D01*
X176441015Y-77947101D01*
X176287879Y-78058361D01*
X176161216Y-78199035D01*
X176066571Y-78362965D01*
X176066568Y-78362972D01*
X176008582Y-78541436D01*
X176008076Y-78542994D01*
X175988290Y-78731250D01*
X166300500Y-78731250D01*
X166300500Y-74743428D01*
X166301031Y-74735326D01*
X166305682Y-74699999D01*
X166305682Y-74699998D01*
X166285044Y-74543239D01*
X166285042Y-74543234D01*
X166224538Y-74397163D01*
X166224535Y-74397158D01*
X166218386Y-74389145D01*
X166193028Y-74356097D01*
X166128282Y-74271718D01*
X166100005Y-74250020D01*
X166093904Y-74244669D01*
X165672195Y-73822960D01*
X165165320Y-73316085D01*
X165159980Y-73309995D01*
X165138282Y-73281718D01*
X165012841Y-73185464D01*
X164900813Y-73139060D01*
X164846411Y-73095220D01*
X164824346Y-73028926D01*
X164841625Y-72961227D01*
X164892762Y-72913616D01*
X164948267Y-72900500D01*
X174073742Y-72900500D01*
X174140781Y-72920185D01*
X174165891Y-72941527D01*
X174194128Y-72972887D01*
X174194135Y-72972893D01*
X174347265Y-73084148D01*
X174347270Y-73084151D01*
X174520192Y-73161142D01*
X174520197Y-73161144D01*
X174705354Y-73200500D01*
X174705355Y-73200500D01*
X174894644Y-73200500D01*
X174894646Y-73200500D01*
X175079803Y-73161144D01*
X175252730Y-73084151D01*
X175405871Y-72972888D01*
X175532533Y-72832216D01*
X175627179Y-72668284D01*
X175685674Y-72488256D01*
X175705460Y-72300000D01*
X175685674Y-72111744D01*
X175627179Y-71931716D01*
X175532533Y-71767784D01*
X175405871Y-71627112D01*
X175405863Y-71627106D01*
X175252734Y-71515851D01*
X175252729Y-71515848D01*
X175079807Y-71438857D01*
X175079802Y-71438855D01*
X174934001Y-71407865D01*
X174894646Y-71399500D01*
X174705354Y-71399500D01*
X174672897Y-71406398D01*
X174520197Y-71438855D01*
X174520192Y-71438857D01*
X174347270Y-71515848D01*
X174347265Y-71515851D01*
X174194135Y-71627106D01*
X174194128Y-71627112D01*
X174165891Y-71658473D01*
X174106405Y-71695121D01*
X174073742Y-71699500D01*
X163643428Y-71699500D01*
X163635329Y-71698969D01*
X163600000Y-71694318D01*
X163560639Y-71699500D01*
X163443239Y-71714955D01*
X163443234Y-71714957D01*
X163297163Y-71775461D01*
X163290124Y-71779526D01*
X163289117Y-71777783D01*
X163234068Y-71799069D01*
X163223743Y-71799500D01*
X161200097Y-71799500D01*
X161133058Y-71779815D01*
X161112416Y-71763181D01*
X160584236Y-71235001D01*
X160055320Y-70706085D01*
X160049979Y-70699994D01*
X160028282Y-70671718D01*
X159902841Y-70575464D01*
X159756762Y-70514956D01*
X159756760Y-70514955D01*
X159639361Y-70499500D01*
X159600000Y-70494318D01*
X159564670Y-70498969D01*
X159556572Y-70499500D01*
X141793428Y-70499500D01*
X141785329Y-70498969D01*
X141750000Y-70494318D01*
X141710639Y-70499500D01*
X141593239Y-70514955D01*
X141593237Y-70514956D01*
X141447157Y-70575464D01*
X141321719Y-70671716D01*
X141300019Y-70699994D01*
X141294668Y-70706096D01*
X138164432Y-73836331D01*
X138103109Y-73869816D01*
X138033417Y-73864832D01*
X137977484Y-73822960D01*
X137953067Y-73757496D01*
X137953223Y-73737842D01*
X137955659Y-73710000D01*
X137955659Y-73709999D01*
X137935063Y-73474596D01*
X137935063Y-73474592D01*
X137886276Y-73292516D01*
X137873905Y-73246344D01*
X137873904Y-73246343D01*
X137873903Y-73246337D01*
X137774035Y-73032171D01*
X137755487Y-73005682D01*
X137638496Y-72838600D01*
X137632107Y-72832211D01*
X137516567Y-72716671D01*
X137483084Y-72655351D01*
X137488068Y-72585659D01*
X137529939Y-72529725D01*
X137560915Y-72512810D01*
X137692331Y-72463796D01*
X137807546Y-72377546D01*
X137893796Y-72262331D01*
X137944091Y-72127483D01*
X137950500Y-72067873D01*
X137950499Y-70272128D01*
X137944091Y-70212517D01*
X137931155Y-70177833D01*
X137926171Y-70108141D01*
X137959656Y-70046818D01*
X138020980Y-70013334D01*
X138047337Y-70010500D01*
X204375500Y-70010500D01*
X204442539Y-70030185D01*
G37*
%TD.AperFunction*%
%TA.AperFunction,Conductor*%
G36*
X158758579Y-71720185D02*
G01*
X158804334Y-71772989D01*
X158814278Y-71842147D01*
X158798927Y-71886497D01*
X158785832Y-71909180D01*
X158772821Y-71931715D01*
X158772818Y-71931722D01*
X158728577Y-72067883D01*
X158714326Y-72111744D01*
X158694540Y-72300000D01*
X158714326Y-72488256D01*
X158714327Y-72488259D01*
X158772818Y-72668277D01*
X158772821Y-72668284D01*
X158867467Y-72832216D01*
X158943833Y-72917029D01*
X158974062Y-72980018D01*
X158965437Y-73049353D01*
X158943832Y-73082971D01*
X158867466Y-73167784D01*
X158772821Y-73331715D01*
X158772818Y-73331722D01*
X158726399Y-73474586D01*
X158714326Y-73511744D01*
X158694540Y-73700000D01*
X158714326Y-73888256D01*
X158714327Y-73888259D01*
X158772818Y-74068277D01*
X158772821Y-74068284D01*
X158867467Y-74232216D01*
X158955679Y-74330185D01*
X158994129Y-74372888D01*
X159147265Y-74484148D01*
X159147270Y-74484151D01*
X159320192Y-74561142D01*
X159320197Y-74561144D01*
X159505354Y-74600500D01*
X159599902Y-74600500D01*
X159666941Y-74620185D01*
X159687582Y-74636817D01*
X159713180Y-74662414D01*
X159746666Y-74723737D01*
X159749500Y-74750097D01*
X159749500Y-77675500D01*
X159729815Y-77742539D01*
X159677011Y-77788294D01*
X159625500Y-77799500D01*
X159505354Y-77799500D01*
X159473179Y-77806339D01*
X159320197Y-77838855D01*
X159320192Y-77838857D01*
X159147270Y-77915848D01*
X159147265Y-77915851D01*
X158994129Y-78027111D01*
X158867466Y-78167785D01*
X158772821Y-78331715D01*
X158772818Y-78331722D01*
X158722609Y-78486251D01*
X158714326Y-78511744D01*
X158694540Y-78700000D01*
X158714326Y-78888256D01*
X158714327Y-78888259D01*
X158772818Y-79068277D01*
X158772821Y-79068284D01*
X158867467Y-79232216D01*
X158950076Y-79323962D01*
X158994129Y-79372888D01*
X159147448Y-79484281D01*
X159190114Y-79539611D01*
X159197502Y-79600782D01*
X159194318Y-79624969D01*
X159194318Y-79624974D01*
X159200443Y-79671501D01*
X159200444Y-79671504D01*
X159214955Y-79781734D01*
X159214956Y-79781736D01*
X159275464Y-79927815D01*
X159371718Y-80053256D01*
X159399995Y-80074954D01*
X159406085Y-80080294D01*
X159470646Y-80144855D01*
X159513610Y-80187819D01*
X159547095Y-80249142D01*
X159542111Y-80318834D01*
X159500239Y-80374767D01*
X159434775Y-80399184D01*
X159425929Y-80399500D01*
X159405354Y-80399500D01*
X159389650Y-80402838D01*
X159220197Y-80438855D01*
X159220192Y-80438857D01*
X159047270Y-80515848D01*
X159047265Y-80515851D01*
X158894129Y-80627111D01*
X158767466Y-80767785D01*
X158672821Y-80931715D01*
X158672818Y-80931722D01*
X158614327Y-81111740D01*
X158614326Y-81111744D01*
X158594540Y-81300000D01*
X158614326Y-81488256D01*
X158614327Y-81488259D01*
X158672818Y-81668277D01*
X158672821Y-81668284D01*
X158767467Y-81832216D01*
X158880274Y-81957500D01*
X158894129Y-81972888D01*
X159047265Y-82084148D01*
X159047270Y-82084151D01*
X159220192Y-82161142D01*
X159220197Y-82161144D01*
X159405354Y-82200500D01*
X159499903Y-82200500D01*
X159566942Y-82220185D01*
X159587584Y-82236819D01*
X159613181Y-82262416D01*
X159646666Y-82323739D01*
X159649500Y-82350097D01*
X159649500Y-82975500D01*
X159629815Y-83042539D01*
X159577011Y-83088294D01*
X159525500Y-83099500D01*
X159505854Y-83099500D01*
X159473397Y-83106398D01*
X159320697Y-83138855D01*
X159320692Y-83138857D01*
X159147770Y-83215848D01*
X159147765Y-83215851D01*
X158994629Y-83327111D01*
X158867966Y-83467785D01*
X158773321Y-83631715D01*
X158773318Y-83631722D01*
X158727852Y-83771653D01*
X158714826Y-83811744D01*
X158695040Y-84000000D01*
X158714826Y-84188256D01*
X158714827Y-84188259D01*
X158773318Y-84368277D01*
X158773321Y-84368284D01*
X158867966Y-84532215D01*
X158871789Y-84537477D01*
X158870715Y-84538257D01*
X158897878Y-84594843D01*
X158899500Y-84614836D01*
X158899500Y-94026571D01*
X158898969Y-94034673D01*
X158894318Y-94069999D01*
X158894318Y-94070000D01*
X158899500Y-94109360D01*
X158914955Y-94226760D01*
X158914956Y-94226762D01*
X158975464Y-94372841D01*
X159071718Y-94498282D01*
X159099995Y-94519980D01*
X159106085Y-94525320D01*
X159892505Y-95311740D01*
X160667233Y-96086468D01*
X160700718Y-96147791D01*
X160699327Y-96206241D01*
X160664939Y-96334583D01*
X160664936Y-96334596D01*
X160644341Y-96569999D01*
X160644341Y-96570000D01*
X160664936Y-96805403D01*
X160664938Y-96805413D01*
X160726094Y-97033655D01*
X160726096Y-97033659D01*
X160726097Y-97033663D01*
X160819902Y-97234828D01*
X160825965Y-97247830D01*
X160825967Y-97247834D01*
X160961501Y-97441395D01*
X160961506Y-97441402D01*
X161128597Y-97608493D01*
X161128603Y-97608498D01*
X161314158Y-97738425D01*
X161357783Y-97793002D01*
X161364977Y-97862500D01*
X161333454Y-97924855D01*
X161314158Y-97941575D01*
X161128597Y-98071505D01*
X160961505Y-98238597D01*
X160825965Y-98432169D01*
X160825964Y-98432171D01*
X160726098Y-98646335D01*
X160726094Y-98646344D01*
X160664938Y-98874586D01*
X160664936Y-98874596D01*
X160644580Y-99107263D01*
X160619127Y-99172331D01*
X160562536Y-99213310D01*
X160492774Y-99217188D01*
X160433371Y-99184136D01*
X151237733Y-89988498D01*
X141836819Y-80587583D01*
X141803334Y-80526260D01*
X141800500Y-80499902D01*
X141800500Y-76443428D01*
X141801031Y-76435326D01*
X141805682Y-76399999D01*
X141805682Y-76399998D01*
X141785044Y-76243239D01*
X141785044Y-76243238D01*
X141724536Y-76097159D01*
X141721854Y-76093664D01*
X141721526Y-76093236D01*
X141634586Y-75979934D01*
X141628282Y-75971718D01*
X141600005Y-75950020D01*
X141593904Y-75944669D01*
X141027832Y-75378597D01*
X140455320Y-74806085D01*
X140449980Y-74799995D01*
X140428282Y-74771718D01*
X140302841Y-74675464D01*
X140156762Y-74614956D01*
X140156760Y-74614955D01*
X140039361Y-74599500D01*
X140000000Y-74594318D01*
X139964670Y-74598969D01*
X139956572Y-74599500D01*
X139526258Y-74599500D01*
X139459219Y-74579815D01*
X139434109Y-74558473D01*
X139405871Y-74527112D01*
X139405870Y-74527112D01*
X139387942Y-74514086D01*
X139345277Y-74458758D01*
X139339296Y-74389145D01*
X139371901Y-74327349D01*
X139373070Y-74326164D01*
X141962415Y-71736819D01*
X142023739Y-71703334D01*
X142050097Y-71700500D01*
X158691540Y-71700500D01*
X158758579Y-71720185D01*
G37*
%TD.AperFunction*%
%TD*%
M02*
