%TF.GenerationSoftware,KiCad,Pcbnew,7.0.6*%
%TF.CreationDate,2023-09-04T20:16:31+02:00*%
%TF.ProjectId,LAS_V2,4c41535f-5632-42e6-9b69-6361645f7063,rev?*%
%TF.SameCoordinates,Original*%
%TF.FileFunction,Soldermask,Bot*%
%TF.FilePolarity,Negative*%
%FSLAX46Y46*%
G04 Gerber Fmt 4.6, Leading zero omitted, Abs format (unit mm)*
G04 Created by KiCad (PCBNEW 7.0.6) date 2023-09-04 20:16:31*
%MOMM*%
%LPD*%
G01*
G04 APERTURE LIST*
%ADD10C,2.400000*%
%ADD11O,2.400000X2.400000*%
%ADD12C,0.750000*%
%ADD13O,2.000000X1.200000*%
%ADD14O,1.800000X1.200000*%
%ADD15R,1.700000X1.700000*%
%ADD16O,1.700000X1.700000*%
%ADD17R,3.000000X3.000000*%
%ADD18C,3.000000*%
%ADD19R,1.000000X1.000000*%
%ADD20O,1.000000X1.000000*%
%ADD21C,2.500000*%
G04 APERTURE END LIST*
D10*
%TO.C,R17*%
X178594500Y-141195000D03*
D11*
X158274500Y-141195000D03*
%TD*%
D12*
%TO.C,J7*%
X198539250Y-84231250D03*
X198539250Y-78431250D03*
D13*
X198039250Y-85656250D03*
X198039250Y-77006250D03*
D14*
X202219250Y-77006250D03*
X202219250Y-85656250D03*
%TD*%
D15*
%TO.C,J9*%
X168225000Y-104000000D03*
D16*
X170765000Y-104000000D03*
%TD*%
D17*
%TO.C,J1*%
X185440000Y-138800000D03*
D18*
X190520000Y-138800000D03*
X195600000Y-138800000D03*
%TD*%
D15*
%TO.C,J5*%
X162000000Y-71170000D03*
D16*
X162000000Y-73710000D03*
X162000000Y-76250000D03*
X162000000Y-78790000D03*
X162000000Y-81330000D03*
X162000000Y-83870000D03*
X162000000Y-86410000D03*
X162000000Y-88950000D03*
X162000000Y-91490000D03*
X162000000Y-94030000D03*
X162000000Y-96570000D03*
X162000000Y-99110000D03*
X162000000Y-101650000D03*
X162000000Y-104190000D03*
X162000000Y-106730000D03*
X162000000Y-109270000D03*
X162000000Y-111810000D03*
X162000000Y-114350000D03*
X162000000Y-116890000D03*
X162000000Y-119430000D03*
X162000000Y-121970000D03*
X162000000Y-124510000D03*
%TD*%
D15*
%TO.C,J6*%
X194718000Y-96704000D03*
D16*
X197258000Y-96704000D03*
%TD*%
D15*
%TO.C,J13*%
X149294500Y-132195000D03*
D16*
X149294500Y-134735000D03*
%TD*%
D15*
%TO.C,J11*%
X140075000Y-131000000D03*
D16*
X137535000Y-131000000D03*
%TD*%
D15*
%TO.C,J2*%
X110175000Y-92230000D03*
D16*
X110175000Y-94770000D03*
X110175000Y-97310000D03*
%TD*%
D19*
%TO.C,J8*%
X192893750Y-84306250D03*
D20*
X192893750Y-83036250D03*
X192893750Y-81766250D03*
X192893750Y-80496250D03*
X192893750Y-79226250D03*
%TD*%
D15*
%TO.C,J3*%
X110175000Y-85790000D03*
D16*
X110175000Y-83250000D03*
X110175000Y-80710000D03*
X110175000Y-78170000D03*
X110175000Y-75630000D03*
%TD*%
D18*
%TO.C,K1*%
X196600000Y-114336000D03*
D21*
X190550000Y-116286000D03*
D18*
X190550000Y-128486000D03*
X202600000Y-128536000D03*
D21*
X202550000Y-116286000D03*
%TD*%
D15*
%TO.C,J4*%
X136600000Y-71170000D03*
D16*
X136600000Y-73710000D03*
X136600000Y-76250000D03*
X136600000Y-78790000D03*
X136600000Y-81330000D03*
X136600000Y-83870000D03*
X136600000Y-86410000D03*
X136600000Y-88950000D03*
X136600000Y-91490000D03*
X136600000Y-94030000D03*
X136600000Y-96570000D03*
X136600000Y-99110000D03*
X136600000Y-101650000D03*
X136600000Y-104190000D03*
X136600000Y-106730000D03*
X136600000Y-109270000D03*
X136600000Y-111810000D03*
X136600000Y-114350000D03*
X136600000Y-116890000D03*
X136600000Y-119430000D03*
X136600000Y-121970000D03*
X136600000Y-124510000D03*
%TD*%
D15*
%TO.C,J14*%
X149494500Y-139995000D03*
D16*
X149494500Y-142535000D03*
%TD*%
D15*
%TO.C,J10*%
X126555000Y-74250000D03*
D16*
X126555000Y-76790000D03*
%TD*%
D15*
%TO.C,J12*%
X118050000Y-115825000D03*
D16*
X115510000Y-115825000D03*
%TD*%
M02*
