%TF.GenerationSoftware,KiCad,Pcbnew,7.0.6*%
%TF.CreationDate,2023-09-04T20:16:31+02:00*%
%TF.ProjectId,LAS_V2,4c41535f-5632-42e6-9b69-6361645f7063,rev?*%
%TF.SameCoordinates,Original*%
%TF.FileFunction,Soldermask,Top*%
%TF.FilePolarity,Negative*%
%FSLAX46Y46*%
G04 Gerber Fmt 4.6, Leading zero omitted, Abs format (unit mm)*
G04 Created by KiCad (PCBNEW 7.0.6) date 2023-09-04 20:16:31*
%MOMM*%
%LPD*%
G01*
G04 APERTURE LIST*
G04 Aperture macros list*
%AMRoundRect*
0 Rectangle with rounded corners*
0 $1 Rounding radius*
0 $2 $3 $4 $5 $6 $7 $8 $9 X,Y pos of 4 corners*
0 Add a 4 corners polygon primitive as box body*
4,1,4,$2,$3,$4,$5,$6,$7,$8,$9,$2,$3,0*
0 Add four circle primitives for the rounded corners*
1,1,$1+$1,$2,$3*
1,1,$1+$1,$4,$5*
1,1,$1+$1,$6,$7*
1,1,$1+$1,$8,$9*
0 Add four rect primitives between the rounded corners*
20,1,$1+$1,$2,$3,$4,$5,0*
20,1,$1+$1,$4,$5,$6,$7,0*
20,1,$1+$1,$6,$7,$8,$9,0*
20,1,$1+$1,$8,$9,$2,$3,0*%
G04 Aperture macros list end*
%ADD10C,2.400000*%
%ADD11O,2.400000X2.400000*%
%ADD12C,0.750000*%
%ADD13O,2.000000X1.200000*%
%ADD14O,1.800000X1.200000*%
%ADD15R,1.300000X0.300000*%
%ADD16R,1.700000X1.700000*%
%ADD17O,1.700000X1.700000*%
%ADD18RoundRect,0.218750X-0.256250X0.218750X-0.256250X-0.218750X0.256250X-0.218750X0.256250X0.218750X0*%
%ADD19RoundRect,0.250000X0.625000X-0.312500X0.625000X0.312500X-0.625000X0.312500X-0.625000X-0.312500X0*%
%ADD20RoundRect,0.250000X0.312500X0.625000X-0.312500X0.625000X-0.312500X-0.625000X0.312500X-0.625000X0*%
%ADD21RoundRect,0.200000X-0.275000X0.200000X-0.275000X-0.200000X0.275000X-0.200000X0.275000X0.200000X0*%
%ADD22R,3.000000X3.000000*%
%ADD23C,3.000000*%
%ADD24RoundRect,0.150000X-0.587500X-0.150000X0.587500X-0.150000X0.587500X0.150000X-0.587500X0.150000X0*%
%ADD25RoundRect,0.225000X-0.250000X0.225000X-0.250000X-0.225000X0.250000X-0.225000X0.250000X0.225000X0*%
%ADD26RoundRect,0.250000X-0.625000X0.312500X-0.625000X-0.312500X0.625000X-0.312500X0.625000X0.312500X0*%
%ADD27RoundRect,0.243750X-0.456250X0.243750X-0.456250X-0.243750X0.456250X-0.243750X0.456250X0.243750X0*%
%ADD28RoundRect,0.200000X0.200000X0.275000X-0.200000X0.275000X-0.200000X-0.275000X0.200000X-0.275000X0*%
%ADD29R,1.000000X1.000000*%
%ADD30O,1.000000X1.000000*%
%ADD31RoundRect,0.200000X0.275000X-0.200000X0.275000X0.200000X-0.275000X0.200000X-0.275000X-0.200000X0*%
%ADD32RoundRect,0.150000X-0.150000X0.587500X-0.150000X-0.587500X0.150000X-0.587500X0.150000X0.587500X0*%
%ADD33RoundRect,0.150000X0.587500X0.150000X-0.587500X0.150000X-0.587500X-0.150000X0.587500X-0.150000X0*%
%ADD34C,1.500000*%
%ADD35RoundRect,0.243750X0.456250X-0.243750X0.456250X0.243750X-0.456250X0.243750X-0.456250X-0.243750X0*%
%ADD36RoundRect,0.225000X-0.225000X-0.250000X0.225000X-0.250000X0.225000X0.250000X-0.225000X0.250000X0*%
%ADD37R,0.900000X1.500000*%
%ADD38R,1.100000X2.000000*%
%ADD39RoundRect,0.137500X0.137500X-0.587500X0.137500X0.587500X-0.137500X0.587500X-0.137500X-0.587500X0*%
%ADD40C,2.500000*%
%ADD41RoundRect,0.250000X-0.312500X-0.625000X0.312500X-0.625000X0.312500X0.625000X-0.312500X0.625000X0*%
%ADD42RoundRect,0.112500X0.112500X-0.187500X0.112500X0.187500X-0.112500X0.187500X-0.112500X-0.187500X0*%
%ADD43RoundRect,0.200000X-0.200000X-0.275000X0.200000X-0.275000X0.200000X0.275000X-0.200000X0.275000X0*%
%ADD44RoundRect,0.250000X0.600000X-0.400000X0.600000X0.400000X-0.600000X0.400000X-0.600000X-0.400000X0*%
%ADD45R,1.500000X2.000000*%
%ADD46R,3.800000X2.000000*%
%ADD47RoundRect,0.150000X0.150000X-0.825000X0.150000X0.825000X-0.150000X0.825000X-0.150000X-0.825000X0*%
%ADD48R,1.500000X0.900000*%
%ADD49R,0.900000X0.900000*%
G04 APERTURE END LIST*
D10*
%TO.C,R17*%
X178594500Y-141195000D03*
D11*
X158274500Y-141195000D03*
%TD*%
D12*
%TO.C,J7*%
X198539250Y-84231250D03*
X198539250Y-78431250D03*
D13*
X198039250Y-85656250D03*
X198039250Y-77006250D03*
D14*
X202219250Y-77006250D03*
X202219250Y-85656250D03*
D15*
X197271250Y-84681250D03*
X197271250Y-83881250D03*
X197271250Y-82581250D03*
X197271250Y-81581250D03*
X197271250Y-81081250D03*
X197271250Y-80081250D03*
X197271250Y-78781250D03*
X197271250Y-77981250D03*
X197271250Y-78281250D03*
X197271250Y-79081250D03*
X197271250Y-79581250D03*
X197271250Y-80581250D03*
X197271250Y-82081250D03*
X197271250Y-83081250D03*
X197271250Y-83581250D03*
X197271250Y-84381250D03*
%TD*%
D16*
%TO.C,J9*%
X168225000Y-104000000D03*
D17*
X170765000Y-104000000D03*
%TD*%
D18*
%TO.C,D6*%
X197527000Y-105187500D03*
X197527000Y-106762500D03*
%TD*%
D19*
%TO.C,R26*%
X131310000Y-86932500D03*
X131310000Y-84007500D03*
%TD*%
D20*
%TO.C,R27*%
X131612500Y-81970000D03*
X128687500Y-81970000D03*
%TD*%
D21*
%TO.C,R12*%
X119780000Y-74200000D03*
X119780000Y-75850000D03*
%TD*%
D22*
%TO.C,J1*%
X185440000Y-138800000D03*
D23*
X190520000Y-138800000D03*
X195600000Y-138800000D03*
%TD*%
D16*
%TO.C,J5*%
X162000000Y-71170000D03*
D17*
X162000000Y-73710000D03*
X162000000Y-76250000D03*
X162000000Y-78790000D03*
X162000000Y-81330000D03*
X162000000Y-83870000D03*
X162000000Y-86410000D03*
X162000000Y-88950000D03*
X162000000Y-91490000D03*
X162000000Y-94030000D03*
X162000000Y-96570000D03*
X162000000Y-99110000D03*
X162000000Y-101650000D03*
X162000000Y-104190000D03*
X162000000Y-106730000D03*
X162000000Y-109270000D03*
X162000000Y-111810000D03*
X162000000Y-114350000D03*
X162000000Y-116890000D03*
X162000000Y-119430000D03*
X162000000Y-121970000D03*
X162000000Y-124510000D03*
%TD*%
D24*
%TO.C,Q4*%
X167062500Y-134350000D03*
X167062500Y-136250000D03*
X168937500Y-135300000D03*
%TD*%
D25*
%TO.C,C1*%
X123800000Y-74250000D03*
X123800000Y-75800000D03*
%TD*%
D19*
%TO.C,R13*%
X181293750Y-76193750D03*
X181293750Y-73268750D03*
%TD*%
D25*
%TO.C,C5*%
X129300000Y-73800000D03*
X129300000Y-75350000D03*
%TD*%
D26*
%TO.C,R29*%
X113975000Y-119812500D03*
X113975000Y-122737500D03*
%TD*%
D27*
%TO.C,D3*%
X169675000Y-72525000D03*
X169675000Y-74400000D03*
%TD*%
D16*
%TO.C,J6*%
X194718000Y-96704000D03*
D17*
X197258000Y-96704000D03*
%TD*%
D16*
%TO.C,J13*%
X149294500Y-132195000D03*
D17*
X149294500Y-134735000D03*
%TD*%
D16*
%TO.C,J11*%
X140075000Y-131000000D03*
D17*
X137535000Y-131000000D03*
%TD*%
D27*
%TO.C,D5*%
X172715000Y-72525000D03*
X172715000Y-74400000D03*
%TD*%
D28*
%TO.C,R24*%
X153925000Y-127900000D03*
X152275000Y-127900000D03*
%TD*%
D16*
%TO.C,J2*%
X110175000Y-92230000D03*
D17*
X110175000Y-94770000D03*
X110175000Y-97310000D03*
%TD*%
D29*
%TO.C,J8*%
X192893750Y-84306250D03*
D30*
X192893750Y-83036250D03*
X192893750Y-81766250D03*
X192893750Y-80496250D03*
X192893750Y-79226250D03*
%TD*%
D31*
%TO.C,R5*%
X166675000Y-78350000D03*
X166675000Y-76700000D03*
%TD*%
D28*
%TO.C,R10*%
X200368750Y-87831250D03*
X198718750Y-87831250D03*
%TD*%
D32*
%TO.C,Q1*%
X198477000Y-100417000D03*
X196577000Y-100417000D03*
X197527000Y-102292000D03*
%TD*%
D33*
%TO.C,Q2*%
X178481250Y-75593750D03*
X178481250Y-73693750D03*
X176606250Y-74643750D03*
%TD*%
D25*
%TO.C,C9*%
X121780000Y-74250000D03*
X121780000Y-75800000D03*
%TD*%
D34*
%TO.C,TP1*%
X110200000Y-104100000D03*
%TD*%
D35*
%TO.C,D1*%
X144800000Y-140337500D03*
X144800000Y-138462500D03*
%TD*%
D16*
%TO.C,J3*%
X110175000Y-85790000D03*
D17*
X110175000Y-83250000D03*
X110175000Y-80710000D03*
X110175000Y-78170000D03*
X110175000Y-75630000D03*
%TD*%
D28*
%TO.C,R21*%
X160618500Y-136189000D03*
X158968500Y-136189000D03*
%TD*%
D36*
%TO.C,C2*%
X168225000Y-101100000D03*
X169775000Y-101100000D03*
%TD*%
D31*
%TO.C,R8*%
X200575000Y-106800000D03*
X200575000Y-105150000D03*
%TD*%
D37*
%TO.C,D4*%
X113900000Y-130200000D03*
X117200000Y-130200000D03*
X117200000Y-125300000D03*
X113900000Y-125300000D03*
%TD*%
D28*
%TO.C,R11*%
X200368750Y-74831250D03*
X198718750Y-74831250D03*
%TD*%
D21*
%TO.C,R9*%
X200600000Y-96075000D03*
X200600000Y-97725000D03*
%TD*%
D38*
%TO.C,D8*%
X178294500Y-130295000D03*
X175894500Y-130295000D03*
X175894500Y-136495000D03*
X178294500Y-136495000D03*
%TD*%
D39*
%TO.C,U5*%
X153824500Y-136145000D03*
X156364500Y-136145000D03*
X156364500Y-130645000D03*
X153824500Y-130645000D03*
%TD*%
D23*
%TO.C,K1*%
X196600000Y-114336000D03*
D40*
X190550000Y-116286000D03*
D23*
X190550000Y-128486000D03*
X202600000Y-128536000D03*
D40*
X202550000Y-116286000D03*
%TD*%
D19*
%TO.C,R28*%
X121037500Y-122737500D03*
X121037500Y-119812500D03*
%TD*%
D41*
%TO.C,R2*%
X129537500Y-79500000D03*
X132462500Y-79500000D03*
%TD*%
D37*
%TO.C,D9*%
X113900000Y-140900000D03*
X117200000Y-140900000D03*
X117200000Y-136000000D03*
X113900000Y-136000000D03*
%TD*%
D16*
%TO.C,J4*%
X136600000Y-71170000D03*
D17*
X136600000Y-73710000D03*
X136600000Y-76250000D03*
X136600000Y-78790000D03*
X136600000Y-81330000D03*
X136600000Y-83870000D03*
X136600000Y-86410000D03*
X136600000Y-88950000D03*
X136600000Y-91490000D03*
X136600000Y-94030000D03*
X136600000Y-96570000D03*
X136600000Y-99110000D03*
X136600000Y-101650000D03*
X136600000Y-104190000D03*
X136600000Y-106730000D03*
X136600000Y-109270000D03*
X136600000Y-111810000D03*
X136600000Y-114350000D03*
X136600000Y-116890000D03*
X136600000Y-119430000D03*
X136600000Y-121970000D03*
X136600000Y-124510000D03*
%TD*%
D21*
%TO.C,R4*%
X145000000Y-134775000D03*
X145000000Y-136425000D03*
%TD*%
D42*
%TO.C,D7*%
X194606000Y-107145000D03*
X194606000Y-105045000D03*
%TD*%
D24*
%TO.C,Q3*%
X187418750Y-73631250D03*
X187418750Y-75531250D03*
X189293750Y-74581250D03*
%TD*%
D33*
%TO.C,Q6*%
X118475000Y-122675000D03*
X118475000Y-120775000D03*
X116600000Y-121725000D03*
%TD*%
D43*
%TO.C,R20*%
X162714500Y-136189000D03*
X164364500Y-136189000D03*
%TD*%
D25*
%TO.C,C4*%
X131135000Y-70825000D03*
X131135000Y-72375000D03*
%TD*%
D16*
%TO.C,J14*%
X149494500Y-139995000D03*
D17*
X149494500Y-142535000D03*
%TD*%
D44*
%TO.C,D11*%
X172239500Y-135018000D03*
X172239500Y-131518000D03*
%TD*%
D25*
%TO.C,C3*%
X134000000Y-70825000D03*
X134000000Y-72375000D03*
%TD*%
D34*
%TO.C,TP2*%
X110175000Y-100750000D03*
%TD*%
D45*
%TO.C,U2*%
X136100000Y-140950000D03*
X138400000Y-140950000D03*
D46*
X138400000Y-134650000D03*
D45*
X140700000Y-140950000D03*
%TD*%
D19*
%TO.C,R14*%
X184293750Y-76293750D03*
X184293750Y-73368750D03*
%TD*%
D27*
%TO.C,D2*%
X166635000Y-72525000D03*
X166635000Y-74400000D03*
%TD*%
D47*
%TO.C,U3*%
X179598750Y-84056250D03*
X180868750Y-84056250D03*
X182138750Y-84056250D03*
X183408750Y-84056250D03*
X184678750Y-84056250D03*
X185948750Y-84056250D03*
X187218750Y-84056250D03*
X188488750Y-84056250D03*
X188488750Y-79106250D03*
X187218750Y-79106250D03*
X185948750Y-79106250D03*
X184678750Y-79106250D03*
X183408750Y-79106250D03*
X182138750Y-79106250D03*
X180868750Y-79106250D03*
X179598750Y-79106250D03*
%TD*%
D36*
%TO.C,C7*%
X191768750Y-76831250D03*
X193318750Y-76831250D03*
%TD*%
D16*
%TO.C,J10*%
X126555000Y-74250000D03*
D17*
X126555000Y-76790000D03*
%TD*%
D48*
%TO.C,U1*%
X140450000Y-71060000D03*
X140450000Y-72330000D03*
X140450000Y-73600000D03*
X140450000Y-74870000D03*
X140450000Y-76140000D03*
X140450000Y-77410000D03*
X140450000Y-78680000D03*
X140450000Y-79950000D03*
X140450000Y-81220000D03*
X140450000Y-82490000D03*
X140450000Y-83760000D03*
X140450000Y-85030000D03*
X140450000Y-86300000D03*
X140450000Y-87570000D03*
D37*
X142215000Y-88820000D03*
X143485000Y-88820000D03*
X144755000Y-88820000D03*
X146025000Y-88820000D03*
X147295000Y-88820000D03*
X148565000Y-88820000D03*
X149835000Y-88820000D03*
X151105000Y-88820000D03*
X152375000Y-88820000D03*
X153645000Y-88820000D03*
X154915000Y-88820000D03*
X156185000Y-88820000D03*
D48*
X157950000Y-87570000D03*
X157950000Y-86300000D03*
X157950000Y-85030000D03*
X157950000Y-83760000D03*
X157950000Y-82490000D03*
X157950000Y-81220000D03*
X157950000Y-79950000D03*
X157950000Y-78680000D03*
X157950000Y-77410000D03*
X157950000Y-76140000D03*
X157950000Y-74870000D03*
X157950000Y-73600000D03*
X157950000Y-72330000D03*
X157950000Y-71060000D03*
D49*
X146300000Y-77380000D03*
X146300000Y-78780000D03*
X146300000Y-80180000D03*
X146300000Y-80180000D03*
X147700000Y-77380000D03*
X147700000Y-77380000D03*
X147700000Y-78780000D03*
X147700000Y-80180000D03*
X149100000Y-77380000D03*
X149100000Y-78780000D03*
X149100000Y-80180000D03*
%TD*%
D16*
%TO.C,J12*%
X118050000Y-115825000D03*
D17*
X115510000Y-115825000D03*
%TD*%
D33*
%TO.C,Q5*%
X128375000Y-86220000D03*
X128375000Y-84320000D03*
X126500000Y-85270000D03*
%TD*%
D36*
%TO.C,C6*%
X138825000Y-143400000D03*
X140375000Y-143400000D03*
%TD*%
D31*
%TO.C,R6*%
X169675000Y-78350000D03*
X169675000Y-76700000D03*
%TD*%
%TO.C,R7*%
X172675000Y-78350000D03*
X172675000Y-76700000D03*
%TD*%
M02*
