%TF.GenerationSoftware,KiCad,Pcbnew,7.0.6*%
%TF.CreationDate,2023-09-04T20:16:31+02:00*%
%TF.ProjectId,LAS_V2,4c41535f-5632-42e6-9b69-6361645f7063,rev?*%
%TF.SameCoordinates,Original*%
%TF.FileFunction,Legend,Top*%
%TF.FilePolarity,Positive*%
%FSLAX46Y46*%
G04 Gerber Fmt 4.6, Leading zero omitted, Abs format (unit mm)*
G04 Created by KiCad (PCBNEW 7.0.6) date 2023-09-04 20:16:31*
%MOMM*%
%LPD*%
G01*
G04 APERTURE LIST*
G04 Aperture macros list*
%AMRoundRect*
0 Rectangle with rounded corners*
0 $1 Rounding radius*
0 $2 $3 $4 $5 $6 $7 $8 $9 X,Y pos of 4 corners*
0 Add a 4 corners polygon primitive as box body*
4,1,4,$2,$3,$4,$5,$6,$7,$8,$9,$2,$3,0*
0 Add four circle primitives for the rounded corners*
1,1,$1+$1,$2,$3*
1,1,$1+$1,$4,$5*
1,1,$1+$1,$6,$7*
1,1,$1+$1,$8,$9*
0 Add four rect primitives between the rounded corners*
20,1,$1+$1,$2,$3,$4,$5,0*
20,1,$1+$1,$4,$5,$6,$7,0*
20,1,$1+$1,$6,$7,$8,$9,0*
20,1,$1+$1,$8,$9,$2,$3,0*%
G04 Aperture macros list end*
%ADD10C,0.150000*%
%ADD11C,0.300000*%
%ADD12C,0.125000*%
%ADD13C,0.152000*%
%ADD14C,0.120000*%
%ADD15C,0.254000*%
%ADD16C,2.400000*%
%ADD17O,2.400000X2.400000*%
%ADD18C,0.750000*%
%ADD19O,2.000000X1.200000*%
%ADD20O,1.800000X1.200000*%
%ADD21R,1.300000X0.300000*%
%ADD22R,1.700000X1.700000*%
%ADD23O,1.700000X1.700000*%
%ADD24RoundRect,0.218750X-0.256250X0.218750X-0.256250X-0.218750X0.256250X-0.218750X0.256250X0.218750X0*%
%ADD25RoundRect,0.250000X0.625000X-0.312500X0.625000X0.312500X-0.625000X0.312500X-0.625000X-0.312500X0*%
%ADD26RoundRect,0.250000X0.312500X0.625000X-0.312500X0.625000X-0.312500X-0.625000X0.312500X-0.625000X0*%
%ADD27RoundRect,0.200000X-0.275000X0.200000X-0.275000X-0.200000X0.275000X-0.200000X0.275000X0.200000X0*%
%ADD28R,3.000000X3.000000*%
%ADD29C,3.000000*%
%ADD30RoundRect,0.150000X-0.587500X-0.150000X0.587500X-0.150000X0.587500X0.150000X-0.587500X0.150000X0*%
%ADD31RoundRect,0.225000X-0.250000X0.225000X-0.250000X-0.225000X0.250000X-0.225000X0.250000X0.225000X0*%
%ADD32RoundRect,0.250000X-0.625000X0.312500X-0.625000X-0.312500X0.625000X-0.312500X0.625000X0.312500X0*%
%ADD33RoundRect,0.243750X-0.456250X0.243750X-0.456250X-0.243750X0.456250X-0.243750X0.456250X0.243750X0*%
%ADD34RoundRect,0.200000X0.200000X0.275000X-0.200000X0.275000X-0.200000X-0.275000X0.200000X-0.275000X0*%
%ADD35R,1.000000X1.000000*%
%ADD36O,1.000000X1.000000*%
%ADD37RoundRect,0.200000X0.275000X-0.200000X0.275000X0.200000X-0.275000X0.200000X-0.275000X-0.200000X0*%
%ADD38RoundRect,0.150000X-0.150000X0.587500X-0.150000X-0.587500X0.150000X-0.587500X0.150000X0.587500X0*%
%ADD39RoundRect,0.150000X0.587500X0.150000X-0.587500X0.150000X-0.587500X-0.150000X0.587500X-0.150000X0*%
%ADD40C,1.500000*%
%ADD41RoundRect,0.243750X0.456250X-0.243750X0.456250X0.243750X-0.456250X0.243750X-0.456250X-0.243750X0*%
%ADD42RoundRect,0.225000X-0.225000X-0.250000X0.225000X-0.250000X0.225000X0.250000X-0.225000X0.250000X0*%
%ADD43R,0.900000X1.500000*%
%ADD44R,1.100000X2.000000*%
%ADD45RoundRect,0.137500X0.137500X-0.587500X0.137500X0.587500X-0.137500X0.587500X-0.137500X-0.587500X0*%
%ADD46C,2.500000*%
%ADD47RoundRect,0.250000X-0.312500X-0.625000X0.312500X-0.625000X0.312500X0.625000X-0.312500X0.625000X0*%
%ADD48RoundRect,0.112500X0.112500X-0.187500X0.112500X0.187500X-0.112500X0.187500X-0.112500X-0.187500X0*%
%ADD49RoundRect,0.200000X-0.200000X-0.275000X0.200000X-0.275000X0.200000X0.275000X-0.200000X0.275000X0*%
%ADD50RoundRect,0.250000X0.600000X-0.400000X0.600000X0.400000X-0.600000X0.400000X-0.600000X-0.400000X0*%
%ADD51R,1.500000X2.000000*%
%ADD52R,3.800000X2.000000*%
%ADD53RoundRect,0.150000X0.150000X-0.825000X0.150000X0.825000X-0.150000X0.825000X-0.150000X-0.825000X0*%
%ADD54R,1.500000X0.900000*%
%ADD55R,0.900000X0.900000*%
G04 APERTURE END LIST*
D10*
X190975000Y-91700000D02*
X204400000Y-91700000D01*
X204400000Y-110700000D01*
X190975000Y-110700000D01*
X190975000Y-91700000D01*
X147157000Y-128800000D02*
X181032000Y-128800000D01*
X181032000Y-144700000D01*
X147157000Y-144700000D01*
X147157000Y-128800000D01*
X187000000Y-91712500D02*
X189925000Y-91712500D01*
X189925000Y-101487500D01*
X187000000Y-101487500D01*
X187000000Y-91712500D01*
X108300000Y-72950000D02*
X115600000Y-72950000D01*
X115600000Y-90175000D01*
X108300000Y-90175000D01*
X108300000Y-72950000D01*
X188022493Y-92007319D02*
X188022493Y-92721604D01*
X188022493Y-92721604D02*
X187974874Y-92864461D01*
X187974874Y-92864461D02*
X187879636Y-92959700D01*
X187879636Y-92959700D02*
X187736779Y-93007319D01*
X187736779Y-93007319D02*
X187641541Y-93007319D01*
X188641541Y-92435890D02*
X188546303Y-92388271D01*
X188546303Y-92388271D02*
X188498684Y-92340652D01*
X188498684Y-92340652D02*
X188451065Y-92245414D01*
X188451065Y-92245414D02*
X188451065Y-92197795D01*
X188451065Y-92197795D02*
X188498684Y-92102557D01*
X188498684Y-92102557D02*
X188546303Y-92054938D01*
X188546303Y-92054938D02*
X188641541Y-92007319D01*
X188641541Y-92007319D02*
X188832017Y-92007319D01*
X188832017Y-92007319D02*
X188927255Y-92054938D01*
X188927255Y-92054938D02*
X188974874Y-92102557D01*
X188974874Y-92102557D02*
X189022493Y-92197795D01*
X189022493Y-92197795D02*
X189022493Y-92245414D01*
X189022493Y-92245414D02*
X188974874Y-92340652D01*
X188974874Y-92340652D02*
X188927255Y-92388271D01*
X188927255Y-92388271D02*
X188832017Y-92435890D01*
X188832017Y-92435890D02*
X188641541Y-92435890D01*
X188641541Y-92435890D02*
X188546303Y-92483509D01*
X188546303Y-92483509D02*
X188498684Y-92531128D01*
X188498684Y-92531128D02*
X188451065Y-92626366D01*
X188451065Y-92626366D02*
X188451065Y-92816842D01*
X188451065Y-92816842D02*
X188498684Y-92912080D01*
X188498684Y-92912080D02*
X188546303Y-92959700D01*
X188546303Y-92959700D02*
X188641541Y-93007319D01*
X188641541Y-93007319D02*
X188832017Y-93007319D01*
X188832017Y-93007319D02*
X188927255Y-92959700D01*
X188927255Y-92959700D02*
X188974874Y-92912080D01*
X188974874Y-92912080D02*
X189022493Y-92816842D01*
X189022493Y-92816842D02*
X189022493Y-92626366D01*
X189022493Y-92626366D02*
X188974874Y-92531128D01*
X188974874Y-92531128D02*
X188927255Y-92483509D01*
X188927255Y-92483509D02*
X188832017Y-92435890D01*
X189451065Y-92912080D02*
X189498684Y-92959700D01*
X189498684Y-92959700D02*
X189451065Y-93007319D01*
X189451065Y-93007319D02*
X189403446Y-92959700D01*
X189403446Y-92959700D02*
X189451065Y-92912080D01*
X189451065Y-92912080D02*
X189451065Y-93007319D01*
X189451065Y-92388271D02*
X189498684Y-92435890D01*
X189498684Y-92435890D02*
X189451065Y-92483509D01*
X189451065Y-92483509D02*
X189403446Y-92435890D01*
X189403446Y-92435890D02*
X189451065Y-92388271D01*
X189451065Y-92388271D02*
X189451065Y-92483509D01*
X188212969Y-93617319D02*
X187736779Y-93617319D01*
X187736779Y-93617319D02*
X187689160Y-94093509D01*
X187689160Y-94093509D02*
X187736779Y-94045890D01*
X187736779Y-94045890D02*
X187832017Y-93998271D01*
X187832017Y-93998271D02*
X188070112Y-93998271D01*
X188070112Y-93998271D02*
X188165350Y-94045890D01*
X188165350Y-94045890D02*
X188212969Y-94093509D01*
X188212969Y-94093509D02*
X188260588Y-94188747D01*
X188260588Y-94188747D02*
X188260588Y-94426842D01*
X188260588Y-94426842D02*
X188212969Y-94522080D01*
X188212969Y-94522080D02*
X188165350Y-94569700D01*
X188165350Y-94569700D02*
X188070112Y-94617319D01*
X188070112Y-94617319D02*
X187832017Y-94617319D01*
X187832017Y-94617319D02*
X187736779Y-94569700D01*
X187736779Y-94569700D02*
X187689160Y-94522080D01*
X188546303Y-93617319D02*
X188879636Y-94617319D01*
X188879636Y-94617319D02*
X189212969Y-93617319D01*
X188308207Y-96227319D02*
X187974874Y-95751128D01*
X187736779Y-96227319D02*
X187736779Y-95227319D01*
X187736779Y-95227319D02*
X188117731Y-95227319D01*
X188117731Y-95227319D02*
X188212969Y-95274938D01*
X188212969Y-95274938D02*
X188260588Y-95322557D01*
X188260588Y-95322557D02*
X188308207Y-95417795D01*
X188308207Y-95417795D02*
X188308207Y-95560652D01*
X188308207Y-95560652D02*
X188260588Y-95655890D01*
X188260588Y-95655890D02*
X188212969Y-95703509D01*
X188212969Y-95703509D02*
X188117731Y-95751128D01*
X188117731Y-95751128D02*
X187736779Y-95751128D01*
X188641541Y-95227319D02*
X189308207Y-96227319D01*
X189308207Y-95227319D02*
X188641541Y-96227319D01*
X187593922Y-96837319D02*
X188165350Y-96837319D01*
X187879636Y-97837319D02*
X187879636Y-96837319D01*
X188403446Y-96837319D02*
X189070112Y-97837319D01*
X189070112Y-96837319D02*
X188403446Y-97837319D01*
X187736779Y-99447319D02*
X187736779Y-98447319D01*
X187736779Y-98447319D02*
X187974874Y-98447319D01*
X187974874Y-98447319D02*
X188117731Y-98494938D01*
X188117731Y-98494938D02*
X188212969Y-98590176D01*
X188212969Y-98590176D02*
X188260588Y-98685414D01*
X188260588Y-98685414D02*
X188308207Y-98875890D01*
X188308207Y-98875890D02*
X188308207Y-99018747D01*
X188308207Y-99018747D02*
X188260588Y-99209223D01*
X188260588Y-99209223D02*
X188212969Y-99304461D01*
X188212969Y-99304461D02*
X188117731Y-99399700D01*
X188117731Y-99399700D02*
X187974874Y-99447319D01*
X187974874Y-99447319D02*
X187736779Y-99447319D01*
X188736779Y-99066366D02*
X189498684Y-99066366D01*
X189117731Y-99447319D02*
X189117731Y-98685414D01*
X187736779Y-101057319D02*
X187736779Y-100057319D01*
X187736779Y-100057319D02*
X187974874Y-100057319D01*
X187974874Y-100057319D02*
X188117731Y-100104938D01*
X188117731Y-100104938D02*
X188212969Y-100200176D01*
X188212969Y-100200176D02*
X188260588Y-100295414D01*
X188260588Y-100295414D02*
X188308207Y-100485890D01*
X188308207Y-100485890D02*
X188308207Y-100628747D01*
X188308207Y-100628747D02*
X188260588Y-100819223D01*
X188260588Y-100819223D02*
X188212969Y-100914461D01*
X188212969Y-100914461D02*
X188117731Y-101009700D01*
X188117731Y-101009700D02*
X187974874Y-101057319D01*
X187974874Y-101057319D02*
X187736779Y-101057319D01*
X188736779Y-100676366D02*
X189498684Y-100676366D01*
X112408207Y-77632390D02*
X112332017Y-77594295D01*
X112332017Y-77594295D02*
X112217731Y-77594295D01*
X112217731Y-77594295D02*
X112103445Y-77632390D01*
X112103445Y-77632390D02*
X112027255Y-77708580D01*
X112027255Y-77708580D02*
X111989160Y-77784771D01*
X111989160Y-77784771D02*
X111951064Y-77937152D01*
X111951064Y-77937152D02*
X111951064Y-78051438D01*
X111951064Y-78051438D02*
X111989160Y-78203819D01*
X111989160Y-78203819D02*
X112027255Y-78280009D01*
X112027255Y-78280009D02*
X112103445Y-78356200D01*
X112103445Y-78356200D02*
X112217731Y-78394295D01*
X112217731Y-78394295D02*
X112293922Y-78394295D01*
X112293922Y-78394295D02*
X112408207Y-78356200D01*
X112408207Y-78356200D02*
X112446303Y-78318104D01*
X112446303Y-78318104D02*
X112446303Y-78051438D01*
X112446303Y-78051438D02*
X112293922Y-78051438D01*
X112789160Y-78394295D02*
X112789160Y-77594295D01*
X112789160Y-77594295D02*
X113246303Y-78394295D01*
X113246303Y-78394295D02*
X113246303Y-77594295D01*
X113627255Y-78394295D02*
X113627255Y-77594295D01*
X113627255Y-77594295D02*
X113817731Y-77594295D01*
X113817731Y-77594295D02*
X113932017Y-77632390D01*
X113932017Y-77632390D02*
X114008207Y-77708580D01*
X114008207Y-77708580D02*
X114046302Y-77784771D01*
X114046302Y-77784771D02*
X114084398Y-77937152D01*
X114084398Y-77937152D02*
X114084398Y-78051438D01*
X114084398Y-78051438D02*
X114046302Y-78203819D01*
X114046302Y-78203819D02*
X114008207Y-78280009D01*
X114008207Y-78280009D02*
X113932017Y-78356200D01*
X113932017Y-78356200D02*
X113817731Y-78394295D01*
X113817731Y-78394295D02*
X113627255Y-78394295D01*
X115219819Y-87797744D02*
X114743628Y-88071554D01*
X115219819Y-88369173D02*
X114219819Y-88244173D01*
X114219819Y-88244173D02*
X114219819Y-87863220D01*
X114219819Y-87863220D02*
X114267438Y-87773935D01*
X114267438Y-87773935D02*
X114315057Y-87732268D01*
X114315057Y-87732268D02*
X114410295Y-87696554D01*
X114410295Y-87696554D02*
X114553152Y-87714411D01*
X114553152Y-87714411D02*
X114648390Y-87773935D01*
X114648390Y-87773935D02*
X114696009Y-87827506D01*
X114696009Y-87827506D02*
X114743628Y-87928696D01*
X114743628Y-87928696D02*
X114743628Y-88309649D01*
X114696009Y-86970363D02*
X114696009Y-87303696D01*
X115219819Y-87369173D02*
X114219819Y-87244173D01*
X114219819Y-87244173D02*
X114219819Y-86767982D01*
X115219819Y-86512030D02*
X114219819Y-86387030D01*
X115219819Y-86035840D02*
X114219819Y-85910840D01*
X114219819Y-85910840D02*
X114219819Y-85672744D01*
X114219819Y-85672744D02*
X114267438Y-85535840D01*
X114267438Y-85535840D02*
X114362676Y-85452506D01*
X114362676Y-85452506D02*
X114457914Y-85416792D01*
X114457914Y-85416792D02*
X114648390Y-85392983D01*
X114648390Y-85392983D02*
X114791247Y-85410840D01*
X114791247Y-85410840D02*
X114981723Y-85482268D01*
X114981723Y-85482268D02*
X115076961Y-85541792D01*
X115076961Y-85541792D02*
X115172200Y-85648935D01*
X115172200Y-85648935D02*
X115219819Y-85797744D01*
X115219819Y-85797744D02*
X115219819Y-86035840D01*
X115219819Y-83702506D02*
X114743628Y-83976316D01*
X115219819Y-84273935D02*
X114219819Y-84148935D01*
X114219819Y-84148935D02*
X114219819Y-83767982D01*
X114219819Y-83767982D02*
X114267438Y-83678697D01*
X114267438Y-83678697D02*
X114315057Y-83637030D01*
X114315057Y-83637030D02*
X114410295Y-83601316D01*
X114410295Y-83601316D02*
X114553152Y-83619173D01*
X114553152Y-83619173D02*
X114648390Y-83678697D01*
X114648390Y-83678697D02*
X114696009Y-83732268D01*
X114696009Y-83732268D02*
X114743628Y-83833458D01*
X114743628Y-83833458D02*
X114743628Y-84214411D01*
X115172200Y-82887030D02*
X115219819Y-82988220D01*
X115219819Y-82988220D02*
X115219819Y-83178697D01*
X115219819Y-83178697D02*
X115172200Y-83267982D01*
X115172200Y-83267982D02*
X115076961Y-83303697D01*
X115076961Y-83303697D02*
X114696009Y-83256078D01*
X114696009Y-83256078D02*
X114600771Y-83196554D01*
X114600771Y-83196554D02*
X114553152Y-83095363D01*
X114553152Y-83095363D02*
X114553152Y-82904887D01*
X114553152Y-82904887D02*
X114600771Y-82815601D01*
X114600771Y-82815601D02*
X114696009Y-82779887D01*
X114696009Y-82779887D02*
X114791247Y-82791792D01*
X114791247Y-82791792D02*
X114886485Y-83279887D01*
X115219819Y-81988220D02*
X114696009Y-81922744D01*
X114696009Y-81922744D02*
X114600771Y-81958458D01*
X114600771Y-81958458D02*
X114553152Y-82047744D01*
X114553152Y-82047744D02*
X114553152Y-82238220D01*
X114553152Y-82238220D02*
X114600771Y-82339411D01*
X115172200Y-81982268D02*
X115219819Y-82083458D01*
X115219819Y-82083458D02*
X115219819Y-82321554D01*
X115219819Y-82321554D02*
X115172200Y-82410839D01*
X115172200Y-82410839D02*
X115076961Y-82446554D01*
X115076961Y-82446554D02*
X114981723Y-82434649D01*
X114981723Y-82434649D02*
X114886485Y-82375125D01*
X114886485Y-82375125D02*
X114838866Y-82273935D01*
X114838866Y-82273935D02*
X114838866Y-82035839D01*
X114838866Y-82035839D02*
X114791247Y-81934649D01*
X115219819Y-81083458D02*
X114219819Y-80958458D01*
X115172200Y-81077506D02*
X115219819Y-81178696D01*
X115219819Y-81178696D02*
X115219819Y-81369173D01*
X115219819Y-81369173D02*
X115172200Y-81458458D01*
X115172200Y-81458458D02*
X115124580Y-81500125D01*
X115124580Y-81500125D02*
X115029342Y-81535839D01*
X115029342Y-81535839D02*
X114743628Y-81500125D01*
X114743628Y-81500125D02*
X114648390Y-81440601D01*
X114648390Y-81440601D02*
X114600771Y-81387030D01*
X114600771Y-81387030D02*
X114553152Y-81285839D01*
X114553152Y-81285839D02*
X114553152Y-81095363D01*
X114553152Y-81095363D02*
X114600771Y-81006077D01*
X115172200Y-80220363D02*
X115219819Y-80321553D01*
X115219819Y-80321553D02*
X115219819Y-80512030D01*
X115219819Y-80512030D02*
X115172200Y-80601315D01*
X115172200Y-80601315D02*
X115076961Y-80637030D01*
X115076961Y-80637030D02*
X114696009Y-80589411D01*
X114696009Y-80589411D02*
X114600771Y-80529887D01*
X114600771Y-80529887D02*
X114553152Y-80428696D01*
X114553152Y-80428696D02*
X114553152Y-80238220D01*
X114553152Y-80238220D02*
X114600771Y-80148934D01*
X114600771Y-80148934D02*
X114696009Y-80113220D01*
X114696009Y-80113220D02*
X114791247Y-80125125D01*
X114791247Y-80125125D02*
X114886485Y-80613220D01*
X115219819Y-79750125D02*
X114553152Y-79666791D01*
X114743628Y-79690601D02*
X114648390Y-79631077D01*
X114648390Y-79631077D02*
X114600771Y-79577506D01*
X114600771Y-79577506D02*
X114553152Y-79476315D01*
X114553152Y-79476315D02*
X114553152Y-79381077D01*
D11*
X144459774Y-145299171D02*
X144174060Y-145299171D01*
X144174060Y-145299171D02*
X144031203Y-145227742D01*
X144031203Y-145227742D02*
X143888346Y-145084885D01*
X143888346Y-145084885D02*
X143816917Y-144799171D01*
X143816917Y-144799171D02*
X143816917Y-144299171D01*
X143816917Y-144299171D02*
X143888346Y-144013457D01*
X143888346Y-144013457D02*
X144031203Y-143870600D01*
X144031203Y-143870600D02*
X144174060Y-143799171D01*
X144174060Y-143799171D02*
X144459774Y-143799171D01*
X144459774Y-143799171D02*
X144602632Y-143870600D01*
X144602632Y-143870600D02*
X144745489Y-144013457D01*
X144745489Y-144013457D02*
X144816917Y-144299171D01*
X144816917Y-144299171D02*
X144816917Y-144799171D01*
X144816917Y-144799171D02*
X144745489Y-145084885D01*
X144745489Y-145084885D02*
X144602632Y-145227742D01*
X144602632Y-145227742D02*
X144459774Y-145299171D01*
X143174060Y-143799171D02*
X143174060Y-145299171D01*
X143174060Y-145299171D02*
X142316917Y-143799171D01*
X142316917Y-143799171D02*
X142316917Y-145299171D01*
D10*
X111949874Y-85494295D02*
X112407017Y-85494295D01*
X112178445Y-86294295D02*
X112178445Y-85494295D01*
X112597493Y-85494295D02*
X113130827Y-86294295D01*
X113130827Y-85494295D02*
X112597493Y-86294295D01*
X113008207Y-97132390D02*
X112932017Y-97094295D01*
X112932017Y-97094295D02*
X112817731Y-97094295D01*
X112817731Y-97094295D02*
X112703445Y-97132390D01*
X112703445Y-97132390D02*
X112627255Y-97208580D01*
X112627255Y-97208580D02*
X112589160Y-97284771D01*
X112589160Y-97284771D02*
X112551064Y-97437152D01*
X112551064Y-97437152D02*
X112551064Y-97551438D01*
X112551064Y-97551438D02*
X112589160Y-97703819D01*
X112589160Y-97703819D02*
X112627255Y-97780009D01*
X112627255Y-97780009D02*
X112703445Y-97856200D01*
X112703445Y-97856200D02*
X112817731Y-97894295D01*
X112817731Y-97894295D02*
X112893922Y-97894295D01*
X112893922Y-97894295D02*
X113008207Y-97856200D01*
X113008207Y-97856200D02*
X113046303Y-97818104D01*
X113046303Y-97818104D02*
X113046303Y-97551438D01*
X113046303Y-97551438D02*
X112893922Y-97551438D01*
X113389160Y-97894295D02*
X113389160Y-97094295D01*
X113389160Y-97094295D02*
X113846303Y-97894295D01*
X113846303Y-97894295D02*
X113846303Y-97094295D01*
X114227255Y-97894295D02*
X114227255Y-97094295D01*
X114227255Y-97094295D02*
X114417731Y-97094295D01*
X114417731Y-97094295D02*
X114532017Y-97132390D01*
X114532017Y-97132390D02*
X114608207Y-97208580D01*
X114608207Y-97208580D02*
X114646302Y-97284771D01*
X114646302Y-97284771D02*
X114684398Y-97437152D01*
X114684398Y-97437152D02*
X114684398Y-97551438D01*
X114684398Y-97551438D02*
X114646302Y-97703819D01*
X114646302Y-97703819D02*
X114608207Y-97780009D01*
X114608207Y-97780009D02*
X114532017Y-97856200D01*
X114532017Y-97856200D02*
X114417731Y-97894295D01*
X114417731Y-97894295D02*
X114227255Y-97894295D01*
D12*
X126125093Y-130471119D02*
X126744140Y-130471119D01*
X126744140Y-130471119D02*
X126410807Y-130852071D01*
X126410807Y-130852071D02*
X126553664Y-130852071D01*
X126553664Y-130852071D02*
X126648902Y-130899690D01*
X126648902Y-130899690D02*
X126696521Y-130947309D01*
X126696521Y-130947309D02*
X126744140Y-131042547D01*
X126744140Y-131042547D02*
X126744140Y-131280642D01*
X126744140Y-131280642D02*
X126696521Y-131375880D01*
X126696521Y-131375880D02*
X126648902Y-131423500D01*
X126648902Y-131423500D02*
X126553664Y-131471119D01*
X126553664Y-131471119D02*
X126267950Y-131471119D01*
X126267950Y-131471119D02*
X126172712Y-131423500D01*
X126172712Y-131423500D02*
X126125093Y-131375880D01*
X127172712Y-131375880D02*
X127220331Y-131423500D01*
X127220331Y-131423500D02*
X127172712Y-131471119D01*
X127172712Y-131471119D02*
X127125093Y-131423500D01*
X127125093Y-131423500D02*
X127172712Y-131375880D01*
X127172712Y-131375880D02*
X127172712Y-131471119D01*
X127553664Y-130471119D02*
X128172711Y-130471119D01*
X128172711Y-130471119D02*
X127839378Y-130852071D01*
X127839378Y-130852071D02*
X127982235Y-130852071D01*
X127982235Y-130852071D02*
X128077473Y-130899690D01*
X128077473Y-130899690D02*
X128125092Y-130947309D01*
X128125092Y-130947309D02*
X128172711Y-131042547D01*
X128172711Y-131042547D02*
X128172711Y-131280642D01*
X128172711Y-131280642D02*
X128125092Y-131375880D01*
X128125092Y-131375880D02*
X128077473Y-131423500D01*
X128077473Y-131423500D02*
X127982235Y-131471119D01*
X127982235Y-131471119D02*
X127696521Y-131471119D01*
X127696521Y-131471119D02*
X127601283Y-131423500D01*
X127601283Y-131423500D02*
X127553664Y-131375880D01*
X128458426Y-130471119D02*
X128791759Y-131471119D01*
X128791759Y-131471119D02*
X129125092Y-130471119D01*
X130553664Y-130947309D02*
X130696521Y-130994928D01*
X130696521Y-130994928D02*
X130744140Y-131042547D01*
X130744140Y-131042547D02*
X130791759Y-131137785D01*
X130791759Y-131137785D02*
X130791759Y-131280642D01*
X130791759Y-131280642D02*
X130744140Y-131375880D01*
X130744140Y-131375880D02*
X130696521Y-131423500D01*
X130696521Y-131423500D02*
X130601283Y-131471119D01*
X130601283Y-131471119D02*
X130220331Y-131471119D01*
X130220331Y-131471119D02*
X130220331Y-130471119D01*
X130220331Y-130471119D02*
X130553664Y-130471119D01*
X130553664Y-130471119D02*
X130648902Y-130518738D01*
X130648902Y-130518738D02*
X130696521Y-130566357D01*
X130696521Y-130566357D02*
X130744140Y-130661595D01*
X130744140Y-130661595D02*
X130744140Y-130756833D01*
X130744140Y-130756833D02*
X130696521Y-130852071D01*
X130696521Y-130852071D02*
X130648902Y-130899690D01*
X130648902Y-130899690D02*
X130553664Y-130947309D01*
X130553664Y-130947309D02*
X130220331Y-130947309D01*
X131791759Y-131471119D02*
X131458426Y-130994928D01*
X131220331Y-131471119D02*
X131220331Y-130471119D01*
X131220331Y-130471119D02*
X131601283Y-130471119D01*
X131601283Y-130471119D02*
X131696521Y-130518738D01*
X131696521Y-130518738D02*
X131744140Y-130566357D01*
X131744140Y-130566357D02*
X131791759Y-130661595D01*
X131791759Y-130661595D02*
X131791759Y-130804452D01*
X131791759Y-130804452D02*
X131744140Y-130899690D01*
X131744140Y-130899690D02*
X131696521Y-130947309D01*
X131696521Y-130947309D02*
X131601283Y-130994928D01*
X131601283Y-130994928D02*
X131220331Y-130994928D01*
X132220331Y-131471119D02*
X132220331Y-130471119D01*
X132696521Y-131471119D02*
X132696521Y-130471119D01*
X132696521Y-130471119D02*
X132934616Y-130471119D01*
X132934616Y-130471119D02*
X133077473Y-130518738D01*
X133077473Y-130518738D02*
X133172711Y-130613976D01*
X133172711Y-130613976D02*
X133220330Y-130709214D01*
X133220330Y-130709214D02*
X133267949Y-130899690D01*
X133267949Y-130899690D02*
X133267949Y-131042547D01*
X133267949Y-131042547D02*
X133220330Y-131233023D01*
X133220330Y-131233023D02*
X133172711Y-131328261D01*
X133172711Y-131328261D02*
X133077473Y-131423500D01*
X133077473Y-131423500D02*
X132934616Y-131471119D01*
X132934616Y-131471119D02*
X132696521Y-131471119D01*
X134220330Y-130518738D02*
X134125092Y-130471119D01*
X134125092Y-130471119D02*
X133982235Y-130471119D01*
X133982235Y-130471119D02*
X133839378Y-130518738D01*
X133839378Y-130518738D02*
X133744140Y-130613976D01*
X133744140Y-130613976D02*
X133696521Y-130709214D01*
X133696521Y-130709214D02*
X133648902Y-130899690D01*
X133648902Y-130899690D02*
X133648902Y-131042547D01*
X133648902Y-131042547D02*
X133696521Y-131233023D01*
X133696521Y-131233023D02*
X133744140Y-131328261D01*
X133744140Y-131328261D02*
X133839378Y-131423500D01*
X133839378Y-131423500D02*
X133982235Y-131471119D01*
X133982235Y-131471119D02*
X134077473Y-131471119D01*
X134077473Y-131471119D02*
X134220330Y-131423500D01*
X134220330Y-131423500D02*
X134267949Y-131375880D01*
X134267949Y-131375880D02*
X134267949Y-131042547D01*
X134267949Y-131042547D02*
X134077473Y-131042547D01*
X134696521Y-130947309D02*
X135029854Y-130947309D01*
X135172711Y-131471119D02*
X134696521Y-131471119D01*
X134696521Y-131471119D02*
X134696521Y-130471119D01*
X134696521Y-130471119D02*
X135172711Y-130471119D01*
D10*
X112870112Y-94394295D02*
X112489160Y-94394295D01*
X112489160Y-94394295D02*
X112451064Y-94775247D01*
X112451064Y-94775247D02*
X112489160Y-94737152D01*
X112489160Y-94737152D02*
X112565350Y-94699057D01*
X112565350Y-94699057D02*
X112755826Y-94699057D01*
X112755826Y-94699057D02*
X112832017Y-94737152D01*
X112832017Y-94737152D02*
X112870112Y-94775247D01*
X112870112Y-94775247D02*
X112908207Y-94851438D01*
X112908207Y-94851438D02*
X112908207Y-95041914D01*
X112908207Y-95041914D02*
X112870112Y-95118104D01*
X112870112Y-95118104D02*
X112832017Y-95156200D01*
X112832017Y-95156200D02*
X112755826Y-95194295D01*
X112755826Y-95194295D02*
X112565350Y-95194295D01*
X112565350Y-95194295D02*
X112489160Y-95156200D01*
X112489160Y-95156200D02*
X112451064Y-95118104D01*
X113136779Y-94394295D02*
X113403446Y-95194295D01*
X113403446Y-95194295D02*
X113670112Y-94394295D01*
X154618922Y-175895104D02*
X155095112Y-175895104D01*
X154487969Y-176180819D02*
X154946303Y-175180819D01*
X154946303Y-175180819D02*
X155154636Y-176180819D01*
X156071303Y-176085580D02*
X156017731Y-176133200D01*
X156017731Y-176133200D02*
X155868922Y-176180819D01*
X155868922Y-176180819D02*
X155773684Y-176180819D01*
X155773684Y-176180819D02*
X155636779Y-176133200D01*
X155636779Y-176133200D02*
X155553446Y-176037961D01*
X155553446Y-176037961D02*
X155517731Y-175942723D01*
X155517731Y-175942723D02*
X155493922Y-175752247D01*
X155493922Y-175752247D02*
X155511779Y-175609390D01*
X155511779Y-175609390D02*
X155583207Y-175418914D01*
X155583207Y-175418914D02*
X155642731Y-175323676D01*
X155642731Y-175323676D02*
X155749874Y-175228438D01*
X155749874Y-175228438D02*
X155898684Y-175180819D01*
X155898684Y-175180819D02*
X155993922Y-175180819D01*
X155993922Y-175180819D02*
X156130827Y-175228438D01*
X156130827Y-175228438D02*
X156172493Y-175276057D01*
X157249874Y-176180819D02*
X157374874Y-175180819D01*
X157374874Y-175180819D02*
X157618922Y-175895104D01*
X157618922Y-175895104D02*
X158041541Y-175180819D01*
X158041541Y-175180819D02*
X157916541Y-176180819D01*
X158535589Y-176180819D02*
X158446303Y-176133200D01*
X158446303Y-176133200D02*
X158404636Y-176085580D01*
X158404636Y-176085580D02*
X158368922Y-175990342D01*
X158368922Y-175990342D02*
X158404636Y-175704628D01*
X158404636Y-175704628D02*
X158464160Y-175609390D01*
X158464160Y-175609390D02*
X158517731Y-175561771D01*
X158517731Y-175561771D02*
X158618922Y-175514152D01*
X158618922Y-175514152D02*
X158761779Y-175514152D01*
X158761779Y-175514152D02*
X158851065Y-175561771D01*
X158851065Y-175561771D02*
X158892731Y-175609390D01*
X158892731Y-175609390D02*
X158928446Y-175704628D01*
X158928446Y-175704628D02*
X158892731Y-175990342D01*
X158892731Y-175990342D02*
X158833208Y-176085580D01*
X158833208Y-176085580D02*
X158779636Y-176133200D01*
X158779636Y-176133200D02*
X158678446Y-176180819D01*
X158678446Y-176180819D02*
X158535589Y-176180819D01*
X159380827Y-175514152D02*
X159297493Y-176180819D01*
X159368922Y-175609390D02*
X159422493Y-175561771D01*
X159422493Y-175561771D02*
X159523684Y-175514152D01*
X159523684Y-175514152D02*
X159666541Y-175514152D01*
X159666541Y-175514152D02*
X159755827Y-175561771D01*
X159755827Y-175561771D02*
X159791541Y-175657009D01*
X159791541Y-175657009D02*
X159726065Y-176180819D01*
X160202255Y-176180819D02*
X160285589Y-175514152D01*
X160327255Y-175180819D02*
X160273684Y-175228438D01*
X160273684Y-175228438D02*
X160315351Y-175276057D01*
X160315351Y-175276057D02*
X160368922Y-175228438D01*
X160368922Y-175228438D02*
X160327255Y-175180819D01*
X160327255Y-175180819D02*
X160315351Y-175276057D01*
X160618922Y-175514152D02*
X160999874Y-175514152D01*
X160803445Y-175180819D02*
X160696303Y-176037961D01*
X160696303Y-176037961D02*
X160732017Y-176133200D01*
X160732017Y-176133200D02*
X160821303Y-176180819D01*
X160821303Y-176180819D02*
X160916541Y-176180819D01*
X161392732Y-176180819D02*
X161303446Y-176133200D01*
X161303446Y-176133200D02*
X161261779Y-176085580D01*
X161261779Y-176085580D02*
X161226065Y-175990342D01*
X161226065Y-175990342D02*
X161261779Y-175704628D01*
X161261779Y-175704628D02*
X161321303Y-175609390D01*
X161321303Y-175609390D02*
X161374874Y-175561771D01*
X161374874Y-175561771D02*
X161476065Y-175514152D01*
X161476065Y-175514152D02*
X161618922Y-175514152D01*
X161618922Y-175514152D02*
X161708208Y-175561771D01*
X161708208Y-175561771D02*
X161749874Y-175609390D01*
X161749874Y-175609390D02*
X161785589Y-175704628D01*
X161785589Y-175704628D02*
X161749874Y-175990342D01*
X161749874Y-175990342D02*
X161690351Y-176085580D01*
X161690351Y-176085580D02*
X161636779Y-176133200D01*
X161636779Y-176133200D02*
X161535589Y-176180819D01*
X161535589Y-176180819D02*
X161392732Y-176180819D01*
X162154636Y-176180819D02*
X162237970Y-175514152D01*
X162214160Y-175704628D02*
X162273684Y-175609390D01*
X162273684Y-175609390D02*
X162327255Y-175561771D01*
X162327255Y-175561771D02*
X162428446Y-175514152D01*
X162428446Y-175514152D02*
X162523684Y-175514152D01*
X139522493Y-174870819D02*
X139522493Y-175585104D01*
X139522493Y-175585104D02*
X139474874Y-175727961D01*
X139474874Y-175727961D02*
X139379636Y-175823200D01*
X139379636Y-175823200D02*
X139236779Y-175870819D01*
X139236779Y-175870819D02*
X139141541Y-175870819D01*
X140522493Y-175870819D02*
X139951065Y-175870819D01*
X140236779Y-175870819D02*
X140236779Y-174870819D01*
X140236779Y-174870819D02*
X140141541Y-175013676D01*
X140141541Y-175013676D02*
X140046303Y-175108914D01*
X140046303Y-175108914D02*
X139951065Y-175156533D01*
X140855827Y-174870819D02*
X141474874Y-174870819D01*
X141474874Y-174870819D02*
X141141541Y-175251771D01*
X141141541Y-175251771D02*
X141284398Y-175251771D01*
X141284398Y-175251771D02*
X141379636Y-175299390D01*
X141379636Y-175299390D02*
X141427255Y-175347009D01*
X141427255Y-175347009D02*
X141474874Y-175442247D01*
X141474874Y-175442247D02*
X141474874Y-175680342D01*
X141474874Y-175680342D02*
X141427255Y-175775580D01*
X141427255Y-175775580D02*
X141379636Y-175823200D01*
X141379636Y-175823200D02*
X141284398Y-175870819D01*
X141284398Y-175870819D02*
X140998684Y-175870819D01*
X140998684Y-175870819D02*
X140903446Y-175823200D01*
X140903446Y-175823200D02*
X140855827Y-175775580D01*
X142665351Y-175489866D02*
X143427256Y-175489866D01*
X144617732Y-175585104D02*
X145093922Y-175585104D01*
X144522494Y-175870819D02*
X144855827Y-174870819D01*
X144855827Y-174870819D02*
X145189160Y-175870819D01*
X145379637Y-175204152D02*
X145760589Y-175204152D01*
X145522494Y-175870819D02*
X145522494Y-175013676D01*
X145522494Y-175013676D02*
X145570113Y-174918438D01*
X145570113Y-174918438D02*
X145665351Y-174870819D01*
X145665351Y-174870819D02*
X145760589Y-174870819D01*
X145951066Y-175204152D02*
X146332018Y-175204152D01*
X146093923Y-174870819D02*
X146093923Y-175727961D01*
X146093923Y-175727961D02*
X146141542Y-175823200D01*
X146141542Y-175823200D02*
X146236780Y-175870819D01*
X146236780Y-175870819D02*
X146332018Y-175870819D01*
X147046304Y-175823200D02*
X146951066Y-175870819D01*
X146951066Y-175870819D02*
X146760590Y-175870819D01*
X146760590Y-175870819D02*
X146665352Y-175823200D01*
X146665352Y-175823200D02*
X146617733Y-175727961D01*
X146617733Y-175727961D02*
X146617733Y-175347009D01*
X146617733Y-175347009D02*
X146665352Y-175251771D01*
X146665352Y-175251771D02*
X146760590Y-175204152D01*
X146760590Y-175204152D02*
X146951066Y-175204152D01*
X146951066Y-175204152D02*
X147046304Y-175251771D01*
X147046304Y-175251771D02*
X147093923Y-175347009D01*
X147093923Y-175347009D02*
X147093923Y-175442247D01*
X147093923Y-175442247D02*
X146617733Y-175537485D01*
X147522495Y-175870819D02*
X147522495Y-175204152D01*
X147522495Y-175394628D02*
X147570114Y-175299390D01*
X147570114Y-175299390D02*
X147617733Y-175251771D01*
X147617733Y-175251771D02*
X147712971Y-175204152D01*
X147712971Y-175204152D02*
X147808209Y-175204152D01*
X149093924Y-174870819D02*
X149284400Y-174870819D01*
X149284400Y-174870819D02*
X149379638Y-174918438D01*
X149379638Y-174918438D02*
X149474876Y-175013676D01*
X149474876Y-175013676D02*
X149522495Y-175204152D01*
X149522495Y-175204152D02*
X149522495Y-175537485D01*
X149522495Y-175537485D02*
X149474876Y-175727961D01*
X149474876Y-175727961D02*
X149379638Y-175823200D01*
X149379638Y-175823200D02*
X149284400Y-175870819D01*
X149284400Y-175870819D02*
X149093924Y-175870819D01*
X149093924Y-175870819D02*
X148998686Y-175823200D01*
X148998686Y-175823200D02*
X148903448Y-175727961D01*
X148903448Y-175727961D02*
X148855829Y-175537485D01*
X148855829Y-175537485D02*
X148855829Y-175204152D01*
X148855829Y-175204152D02*
X148903448Y-175013676D01*
X148903448Y-175013676D02*
X148998686Y-174918438D01*
X148998686Y-174918438D02*
X149093924Y-174870819D01*
X149951067Y-175204152D02*
X149951067Y-176204152D01*
X149951067Y-175251771D02*
X150046305Y-175204152D01*
X150046305Y-175204152D02*
X150236781Y-175204152D01*
X150236781Y-175204152D02*
X150332019Y-175251771D01*
X150332019Y-175251771D02*
X150379638Y-175299390D01*
X150379638Y-175299390D02*
X150427257Y-175394628D01*
X150427257Y-175394628D02*
X150427257Y-175680342D01*
X150427257Y-175680342D02*
X150379638Y-175775580D01*
X150379638Y-175775580D02*
X150332019Y-175823200D01*
X150332019Y-175823200D02*
X150236781Y-175870819D01*
X150236781Y-175870819D02*
X150046305Y-175870819D01*
X150046305Y-175870819D02*
X149951067Y-175823200D01*
X150712972Y-175204152D02*
X151093924Y-175204152D01*
X150855829Y-174870819D02*
X150855829Y-175727961D01*
X150855829Y-175727961D02*
X150903448Y-175823200D01*
X150903448Y-175823200D02*
X150998686Y-175870819D01*
X150998686Y-175870819D02*
X151093924Y-175870819D01*
X139522493Y-176480819D02*
X139522493Y-177195104D01*
X139522493Y-177195104D02*
X139474874Y-177337961D01*
X139474874Y-177337961D02*
X139379636Y-177433200D01*
X139379636Y-177433200D02*
X139236779Y-177480819D01*
X139236779Y-177480819D02*
X139141541Y-177480819D01*
X140522493Y-177480819D02*
X139951065Y-177480819D01*
X140236779Y-177480819D02*
X140236779Y-176480819D01*
X140236779Y-176480819D02*
X140141541Y-176623676D01*
X140141541Y-176623676D02*
X140046303Y-176718914D01*
X140046303Y-176718914D02*
X139951065Y-176766533D01*
X141379636Y-176814152D02*
X141379636Y-177480819D01*
X141141541Y-176433200D02*
X140903446Y-177147485D01*
X140903446Y-177147485D02*
X141522493Y-177147485D01*
X142665351Y-177099866D02*
X143427256Y-177099866D01*
X144998684Y-176957009D02*
X145141541Y-177004628D01*
X145141541Y-177004628D02*
X145189160Y-177052247D01*
X145189160Y-177052247D02*
X145236779Y-177147485D01*
X145236779Y-177147485D02*
X145236779Y-177290342D01*
X145236779Y-177290342D02*
X145189160Y-177385580D01*
X145189160Y-177385580D02*
X145141541Y-177433200D01*
X145141541Y-177433200D02*
X145046303Y-177480819D01*
X145046303Y-177480819D02*
X144665351Y-177480819D01*
X144665351Y-177480819D02*
X144665351Y-176480819D01*
X144665351Y-176480819D02*
X144998684Y-176480819D01*
X144998684Y-176480819D02*
X145093922Y-176528438D01*
X145093922Y-176528438D02*
X145141541Y-176576057D01*
X145141541Y-176576057D02*
X145189160Y-176671295D01*
X145189160Y-176671295D02*
X145189160Y-176766533D01*
X145189160Y-176766533D02*
X145141541Y-176861771D01*
X145141541Y-176861771D02*
X145093922Y-176909390D01*
X145093922Y-176909390D02*
X144998684Y-176957009D01*
X144998684Y-176957009D02*
X144665351Y-176957009D01*
X146046303Y-177433200D02*
X145951065Y-177480819D01*
X145951065Y-177480819D02*
X145760589Y-177480819D01*
X145760589Y-177480819D02*
X145665351Y-177433200D01*
X145665351Y-177433200D02*
X145617732Y-177337961D01*
X145617732Y-177337961D02*
X145617732Y-176957009D01*
X145617732Y-176957009D02*
X145665351Y-176861771D01*
X145665351Y-176861771D02*
X145760589Y-176814152D01*
X145760589Y-176814152D02*
X145951065Y-176814152D01*
X145951065Y-176814152D02*
X146046303Y-176861771D01*
X146046303Y-176861771D02*
X146093922Y-176957009D01*
X146093922Y-176957009D02*
X146093922Y-177052247D01*
X146093922Y-177052247D02*
X145617732Y-177147485D01*
X146379637Y-176814152D02*
X146760589Y-176814152D01*
X146522494Y-177480819D02*
X146522494Y-176623676D01*
X146522494Y-176623676D02*
X146570113Y-176528438D01*
X146570113Y-176528438D02*
X146665351Y-176480819D01*
X146665351Y-176480819D02*
X146760589Y-176480819D01*
X147236780Y-177480819D02*
X147141542Y-177433200D01*
X147141542Y-177433200D02*
X147093923Y-177385580D01*
X147093923Y-177385580D02*
X147046304Y-177290342D01*
X147046304Y-177290342D02*
X147046304Y-177004628D01*
X147046304Y-177004628D02*
X147093923Y-176909390D01*
X147093923Y-176909390D02*
X147141542Y-176861771D01*
X147141542Y-176861771D02*
X147236780Y-176814152D01*
X147236780Y-176814152D02*
X147379637Y-176814152D01*
X147379637Y-176814152D02*
X147474875Y-176861771D01*
X147474875Y-176861771D02*
X147522494Y-176909390D01*
X147522494Y-176909390D02*
X147570113Y-177004628D01*
X147570113Y-177004628D02*
X147570113Y-177290342D01*
X147570113Y-177290342D02*
X147522494Y-177385580D01*
X147522494Y-177385580D02*
X147474875Y-177433200D01*
X147474875Y-177433200D02*
X147379637Y-177480819D01*
X147379637Y-177480819D02*
X147236780Y-177480819D01*
X147998685Y-177480819D02*
X147998685Y-176814152D01*
X147998685Y-177004628D02*
X148046304Y-176909390D01*
X148046304Y-176909390D02*
X148093923Y-176861771D01*
X148093923Y-176861771D02*
X148189161Y-176814152D01*
X148189161Y-176814152D02*
X148284399Y-176814152D01*
X148998685Y-177433200D02*
X148903447Y-177480819D01*
X148903447Y-177480819D02*
X148712971Y-177480819D01*
X148712971Y-177480819D02*
X148617733Y-177433200D01*
X148617733Y-177433200D02*
X148570114Y-177337961D01*
X148570114Y-177337961D02*
X148570114Y-176957009D01*
X148570114Y-176957009D02*
X148617733Y-176861771D01*
X148617733Y-176861771D02*
X148712971Y-176814152D01*
X148712971Y-176814152D02*
X148903447Y-176814152D01*
X148903447Y-176814152D02*
X148998685Y-176861771D01*
X148998685Y-176861771D02*
X149046304Y-176957009D01*
X149046304Y-176957009D02*
X149046304Y-177052247D01*
X149046304Y-177052247D02*
X148570114Y-177147485D01*
X150427257Y-176480819D02*
X150617733Y-176480819D01*
X150617733Y-176480819D02*
X150712971Y-176528438D01*
X150712971Y-176528438D02*
X150808209Y-176623676D01*
X150808209Y-176623676D02*
X150855828Y-176814152D01*
X150855828Y-176814152D02*
X150855828Y-177147485D01*
X150855828Y-177147485D02*
X150808209Y-177337961D01*
X150808209Y-177337961D02*
X150712971Y-177433200D01*
X150712971Y-177433200D02*
X150617733Y-177480819D01*
X150617733Y-177480819D02*
X150427257Y-177480819D01*
X150427257Y-177480819D02*
X150332019Y-177433200D01*
X150332019Y-177433200D02*
X150236781Y-177337961D01*
X150236781Y-177337961D02*
X150189162Y-177147485D01*
X150189162Y-177147485D02*
X150189162Y-176814152D01*
X150189162Y-176814152D02*
X150236781Y-176623676D01*
X150236781Y-176623676D02*
X150332019Y-176528438D01*
X150332019Y-176528438D02*
X150427257Y-176480819D01*
X151284400Y-176814152D02*
X151284400Y-177814152D01*
X151284400Y-176861771D02*
X151379638Y-176814152D01*
X151379638Y-176814152D02*
X151570114Y-176814152D01*
X151570114Y-176814152D02*
X151665352Y-176861771D01*
X151665352Y-176861771D02*
X151712971Y-176909390D01*
X151712971Y-176909390D02*
X151760590Y-177004628D01*
X151760590Y-177004628D02*
X151760590Y-177290342D01*
X151760590Y-177290342D02*
X151712971Y-177385580D01*
X151712971Y-177385580D02*
X151665352Y-177433200D01*
X151665352Y-177433200D02*
X151570114Y-177480819D01*
X151570114Y-177480819D02*
X151379638Y-177480819D01*
X151379638Y-177480819D02*
X151284400Y-177433200D01*
X152046305Y-176814152D02*
X152427257Y-176814152D01*
X152189162Y-176480819D02*
X152189162Y-177337961D01*
X152189162Y-177337961D02*
X152236781Y-177433200D01*
X152236781Y-177433200D02*
X152332019Y-177480819D01*
X152332019Y-177480819D02*
X152427257Y-177480819D01*
X176470112Y-127746009D02*
X176136779Y-127746009D01*
X176136779Y-128269819D02*
X176136779Y-127269819D01*
X176136779Y-127269819D02*
X176612969Y-127269819D01*
X177327255Y-127746009D02*
X177470112Y-127793628D01*
X177470112Y-127793628D02*
X177517731Y-127841247D01*
X177517731Y-127841247D02*
X177565350Y-127936485D01*
X177565350Y-127936485D02*
X177565350Y-128079342D01*
X177565350Y-128079342D02*
X177517731Y-128174580D01*
X177517731Y-128174580D02*
X177470112Y-128222200D01*
X177470112Y-128222200D02*
X177374874Y-128269819D01*
X177374874Y-128269819D02*
X176993922Y-128269819D01*
X176993922Y-128269819D02*
X176993922Y-127269819D01*
X176993922Y-127269819D02*
X177327255Y-127269819D01*
X177327255Y-127269819D02*
X177422493Y-127317438D01*
X177422493Y-127317438D02*
X177470112Y-127365057D01*
X177470112Y-127365057D02*
X177517731Y-127460295D01*
X177517731Y-127460295D02*
X177517731Y-127555533D01*
X177517731Y-127555533D02*
X177470112Y-127650771D01*
X177470112Y-127650771D02*
X177422493Y-127698390D01*
X177422493Y-127698390D02*
X177327255Y-127746009D01*
X177327255Y-127746009D02*
X176993922Y-127746009D01*
X178565350Y-128269819D02*
X178232017Y-127793628D01*
X177993922Y-128269819D02*
X177993922Y-127269819D01*
X177993922Y-127269819D02*
X178374874Y-127269819D01*
X178374874Y-127269819D02*
X178470112Y-127317438D01*
X178470112Y-127317438D02*
X178517731Y-127365057D01*
X178517731Y-127365057D02*
X178565350Y-127460295D01*
X178565350Y-127460295D02*
X178565350Y-127603152D01*
X178565350Y-127603152D02*
X178517731Y-127698390D01*
X178517731Y-127698390D02*
X178470112Y-127746009D01*
X178470112Y-127746009D02*
X178374874Y-127793628D01*
X178374874Y-127793628D02*
X177993922Y-127793628D01*
X164855826Y-113378628D02*
X164855826Y-111878628D01*
X164855826Y-111878628D02*
X165355826Y-112950057D01*
X165355826Y-112950057D02*
X165855826Y-111878628D01*
X165855826Y-111878628D02*
X165855826Y-113378628D01*
X166570112Y-113378628D02*
X166570112Y-111878628D01*
X167284398Y-113378628D02*
X167284398Y-111878628D01*
X168141541Y-113378628D02*
X167498684Y-112521485D01*
X168141541Y-111878628D02*
X167284398Y-112735771D01*
X168784398Y-113378628D02*
X168784398Y-111878628D01*
X168784398Y-112592914D02*
X169641541Y-112592914D01*
X169641541Y-113378628D02*
X169641541Y-111878628D01*
X170284399Y-112950057D02*
X170998685Y-112950057D01*
X170141542Y-113378628D02*
X170641542Y-111878628D01*
X170641542Y-111878628D02*
X171141542Y-113378628D01*
X171641541Y-113378628D02*
X171641541Y-111878628D01*
X173070113Y-113378628D02*
X172355827Y-113378628D01*
X172355827Y-113378628D02*
X172355827Y-111878628D01*
X175570113Y-113378628D02*
X175070113Y-112664342D01*
X174712970Y-113378628D02*
X174712970Y-111878628D01*
X174712970Y-111878628D02*
X175284399Y-111878628D01*
X175284399Y-111878628D02*
X175427256Y-111950057D01*
X175427256Y-111950057D02*
X175498685Y-112021485D01*
X175498685Y-112021485D02*
X175570113Y-112164342D01*
X175570113Y-112164342D02*
X175570113Y-112378628D01*
X175570113Y-112378628D02*
X175498685Y-112521485D01*
X175498685Y-112521485D02*
X175427256Y-112592914D01*
X175427256Y-112592914D02*
X175284399Y-112664342D01*
X175284399Y-112664342D02*
X174712970Y-112664342D01*
X176212970Y-111878628D02*
X176212970Y-113092914D01*
X176212970Y-113092914D02*
X176284399Y-113235771D01*
X176284399Y-113235771D02*
X176355828Y-113307200D01*
X176355828Y-113307200D02*
X176498685Y-113378628D01*
X176498685Y-113378628D02*
X176784399Y-113378628D01*
X176784399Y-113378628D02*
X176927256Y-113307200D01*
X176927256Y-113307200D02*
X176998685Y-113235771D01*
X176998685Y-113235771D02*
X177070113Y-113092914D01*
X177070113Y-113092914D02*
X177070113Y-111878628D01*
X177712971Y-113307200D02*
X177927257Y-113378628D01*
X177927257Y-113378628D02*
X178284399Y-113378628D01*
X178284399Y-113378628D02*
X178427257Y-113307200D01*
X178427257Y-113307200D02*
X178498685Y-113235771D01*
X178498685Y-113235771D02*
X178570114Y-113092914D01*
X178570114Y-113092914D02*
X178570114Y-112950057D01*
X178570114Y-112950057D02*
X178498685Y-112807200D01*
X178498685Y-112807200D02*
X178427257Y-112735771D01*
X178427257Y-112735771D02*
X178284399Y-112664342D01*
X178284399Y-112664342D02*
X177998685Y-112592914D01*
X177998685Y-112592914D02*
X177855828Y-112521485D01*
X177855828Y-112521485D02*
X177784399Y-112450057D01*
X177784399Y-112450057D02*
X177712971Y-112307200D01*
X177712971Y-112307200D02*
X177712971Y-112164342D01*
X177712971Y-112164342D02*
X177784399Y-112021485D01*
X177784399Y-112021485D02*
X177855828Y-111950057D01*
X177855828Y-111950057D02*
X177998685Y-111878628D01*
X177998685Y-111878628D02*
X178355828Y-111878628D01*
X178355828Y-111878628D02*
X178570114Y-111950057D01*
X179141542Y-113307200D02*
X179355828Y-113378628D01*
X179355828Y-113378628D02*
X179712970Y-113378628D01*
X179712970Y-113378628D02*
X179855828Y-113307200D01*
X179855828Y-113307200D02*
X179927256Y-113235771D01*
X179927256Y-113235771D02*
X179998685Y-113092914D01*
X179998685Y-113092914D02*
X179998685Y-112950057D01*
X179998685Y-112950057D02*
X179927256Y-112807200D01*
X179927256Y-112807200D02*
X179855828Y-112735771D01*
X179855828Y-112735771D02*
X179712970Y-112664342D01*
X179712970Y-112664342D02*
X179427256Y-112592914D01*
X179427256Y-112592914D02*
X179284399Y-112521485D01*
X179284399Y-112521485D02*
X179212970Y-112450057D01*
X179212970Y-112450057D02*
X179141542Y-112307200D01*
X179141542Y-112307200D02*
X179141542Y-112164342D01*
X179141542Y-112164342D02*
X179212970Y-112021485D01*
X179212970Y-112021485D02*
X179284399Y-111950057D01*
X179284399Y-111950057D02*
X179427256Y-111878628D01*
X179427256Y-111878628D02*
X179784399Y-111878628D01*
X179784399Y-111878628D02*
X179998685Y-111950057D01*
X180641541Y-112592914D02*
X181141541Y-112592914D01*
X181355827Y-113378628D02*
X180641541Y-113378628D01*
X180641541Y-113378628D02*
X180641541Y-111878628D01*
X180641541Y-111878628D02*
X181355827Y-111878628D01*
X182712970Y-113378628D02*
X181998684Y-113378628D01*
X181998684Y-113378628D02*
X181998684Y-111878628D01*
X183927256Y-113378628D02*
X183212970Y-113378628D01*
X183212970Y-113378628D02*
X183212970Y-111878628D01*
X164855826Y-115007914D02*
X165355826Y-115007914D01*
X165570112Y-115793628D02*
X164855826Y-115793628D01*
X164855826Y-115793628D02*
X164855826Y-114293628D01*
X164855826Y-114293628D02*
X165570112Y-114293628D01*
X166212969Y-115007914D02*
X166712969Y-115007914D01*
X166927255Y-115793628D02*
X166212969Y-115793628D01*
X166212969Y-115793628D02*
X166212969Y-114293628D01*
X166212969Y-114293628D02*
X166927255Y-114293628D01*
X167570112Y-115007914D02*
X168070112Y-115007914D01*
X168284398Y-115793628D02*
X167570112Y-115793628D01*
X167570112Y-115793628D02*
X167570112Y-114293628D01*
X167570112Y-114293628D02*
X168284398Y-114293628D01*
X169570113Y-114793628D02*
X169570113Y-115793628D01*
X169212970Y-114222200D02*
X168855827Y-115293628D01*
X168855827Y-115293628D02*
X169784398Y-115293628D01*
X170641541Y-114293628D02*
X170784398Y-114293628D01*
X170784398Y-114293628D02*
X170927255Y-114365057D01*
X170927255Y-114365057D02*
X170998684Y-114436485D01*
X170998684Y-114436485D02*
X171070112Y-114579342D01*
X171070112Y-114579342D02*
X171141541Y-114865057D01*
X171141541Y-114865057D02*
X171141541Y-115222200D01*
X171141541Y-115222200D02*
X171070112Y-115507914D01*
X171070112Y-115507914D02*
X170998684Y-115650771D01*
X170998684Y-115650771D02*
X170927255Y-115722200D01*
X170927255Y-115722200D02*
X170784398Y-115793628D01*
X170784398Y-115793628D02*
X170641541Y-115793628D01*
X170641541Y-115793628D02*
X170498684Y-115722200D01*
X170498684Y-115722200D02*
X170427255Y-115650771D01*
X170427255Y-115650771D02*
X170355826Y-115507914D01*
X170355826Y-115507914D02*
X170284398Y-115222200D01*
X170284398Y-115222200D02*
X170284398Y-114865057D01*
X170284398Y-114865057D02*
X170355826Y-114579342D01*
X170355826Y-114579342D02*
X170427255Y-114436485D01*
X170427255Y-114436485D02*
X170498684Y-114365057D01*
X170498684Y-114365057D02*
X170641541Y-114293628D01*
X171712969Y-114436485D02*
X171784397Y-114365057D01*
X171784397Y-114365057D02*
X171927255Y-114293628D01*
X171927255Y-114293628D02*
X172284397Y-114293628D01*
X172284397Y-114293628D02*
X172427255Y-114365057D01*
X172427255Y-114365057D02*
X172498683Y-114436485D01*
X172498683Y-114436485D02*
X172570112Y-114579342D01*
X172570112Y-114579342D02*
X172570112Y-114722200D01*
X172570112Y-114722200D02*
X172498683Y-114936485D01*
X172498683Y-114936485D02*
X171641540Y-115793628D01*
X171641540Y-115793628D02*
X172570112Y-115793628D01*
X173141540Y-114436485D02*
X173212968Y-114365057D01*
X173212968Y-114365057D02*
X173355826Y-114293628D01*
X173355826Y-114293628D02*
X173712968Y-114293628D01*
X173712968Y-114293628D02*
X173855826Y-114365057D01*
X173855826Y-114365057D02*
X173927254Y-114436485D01*
X173927254Y-114436485D02*
X173998683Y-114579342D01*
X173998683Y-114579342D02*
X173998683Y-114722200D01*
X173998683Y-114722200D02*
X173927254Y-114936485D01*
X173927254Y-114936485D02*
X173070111Y-115793628D01*
X173070111Y-115793628D02*
X173998683Y-115793628D01*
X174570111Y-115722200D02*
X174784397Y-115793628D01*
X174784397Y-115793628D02*
X175141539Y-115793628D01*
X175141539Y-115793628D02*
X175284397Y-115722200D01*
X175284397Y-115722200D02*
X175355825Y-115650771D01*
X175355825Y-115650771D02*
X175427254Y-115507914D01*
X175427254Y-115507914D02*
X175427254Y-115365057D01*
X175427254Y-115365057D02*
X175355825Y-115222200D01*
X175355825Y-115222200D02*
X175284397Y-115150771D01*
X175284397Y-115150771D02*
X175141539Y-115079342D01*
X175141539Y-115079342D02*
X174855825Y-115007914D01*
X174855825Y-115007914D02*
X174712968Y-114936485D01*
X174712968Y-114936485D02*
X174641539Y-114865057D01*
X174641539Y-114865057D02*
X174570111Y-114722200D01*
X174570111Y-114722200D02*
X174570111Y-114579342D01*
X174570111Y-114579342D02*
X174641539Y-114436485D01*
X174641539Y-114436485D02*
X174712968Y-114365057D01*
X174712968Y-114365057D02*
X174855825Y-114293628D01*
X174855825Y-114293628D02*
X175212968Y-114293628D01*
X175212968Y-114293628D02*
X175427254Y-114365057D01*
X165570112Y-118208628D02*
X164855826Y-118208628D01*
X164855826Y-118208628D02*
X164855826Y-116708628D01*
X165998684Y-117780057D02*
X166712970Y-117780057D01*
X165855827Y-118208628D02*
X166355827Y-116708628D01*
X166355827Y-116708628D02*
X166855827Y-118208628D01*
X167284398Y-118137200D02*
X167498684Y-118208628D01*
X167498684Y-118208628D02*
X167855826Y-118208628D01*
X167855826Y-118208628D02*
X167998684Y-118137200D01*
X167998684Y-118137200D02*
X168070112Y-118065771D01*
X168070112Y-118065771D02*
X168141541Y-117922914D01*
X168141541Y-117922914D02*
X168141541Y-117780057D01*
X168141541Y-117780057D02*
X168070112Y-117637200D01*
X168070112Y-117637200D02*
X167998684Y-117565771D01*
X167998684Y-117565771D02*
X167855826Y-117494342D01*
X167855826Y-117494342D02*
X167570112Y-117422914D01*
X167570112Y-117422914D02*
X167427255Y-117351485D01*
X167427255Y-117351485D02*
X167355826Y-117280057D01*
X167355826Y-117280057D02*
X167284398Y-117137200D01*
X167284398Y-117137200D02*
X167284398Y-116994342D01*
X167284398Y-116994342D02*
X167355826Y-116851485D01*
X167355826Y-116851485D02*
X167427255Y-116780057D01*
X167427255Y-116780057D02*
X167570112Y-116708628D01*
X167570112Y-116708628D02*
X167927255Y-116708628D01*
X167927255Y-116708628D02*
X168141541Y-116780057D01*
X169712969Y-116708628D02*
X170212969Y-118208628D01*
X170212969Y-118208628D02*
X170712969Y-116708628D01*
X171141540Y-116851485D02*
X171212968Y-116780057D01*
X171212968Y-116780057D02*
X171355826Y-116708628D01*
X171355826Y-116708628D02*
X171712968Y-116708628D01*
X171712968Y-116708628D02*
X171855826Y-116780057D01*
X171855826Y-116780057D02*
X171927254Y-116851485D01*
X171927254Y-116851485D02*
X171998683Y-116994342D01*
X171998683Y-116994342D02*
X171998683Y-117137200D01*
X171998683Y-117137200D02*
X171927254Y-117351485D01*
X171927254Y-117351485D02*
X171070111Y-118208628D01*
X171070111Y-118208628D02*
X171998683Y-118208628D01*
X122836779Y-78369819D02*
X122836779Y-77369819D01*
X122836779Y-77369819D02*
X123217731Y-77369819D01*
X123217731Y-77369819D02*
X123312969Y-77417438D01*
X123312969Y-77417438D02*
X123360588Y-77465057D01*
X123360588Y-77465057D02*
X123408207Y-77560295D01*
X123408207Y-77560295D02*
X123408207Y-77703152D01*
X123408207Y-77703152D02*
X123360588Y-77798390D01*
X123360588Y-77798390D02*
X123312969Y-77846009D01*
X123312969Y-77846009D02*
X123217731Y-77893628D01*
X123217731Y-77893628D02*
X122836779Y-77893628D01*
X123836779Y-77369819D02*
X123836779Y-78179342D01*
X123836779Y-78179342D02*
X123884398Y-78274580D01*
X123884398Y-78274580D02*
X123932017Y-78322200D01*
X123932017Y-78322200D02*
X124027255Y-78369819D01*
X124027255Y-78369819D02*
X124217731Y-78369819D01*
X124217731Y-78369819D02*
X124312969Y-78322200D01*
X124312969Y-78322200D02*
X124360588Y-78274580D01*
X124360588Y-78274580D02*
X124408207Y-78179342D01*
X124408207Y-78179342D02*
X124408207Y-77369819D01*
X192477255Y-93694819D02*
X192203445Y-93218628D01*
X191905826Y-93694819D02*
X192030826Y-92694819D01*
X192030826Y-92694819D02*
X192411779Y-92694819D01*
X192411779Y-92694819D02*
X192501064Y-92742438D01*
X192501064Y-92742438D02*
X192542731Y-92790057D01*
X192542731Y-92790057D02*
X192578445Y-92885295D01*
X192578445Y-92885295D02*
X192560588Y-93028152D01*
X192560588Y-93028152D02*
X192501064Y-93123390D01*
X192501064Y-93123390D02*
X192447493Y-93171009D01*
X192447493Y-93171009D02*
X192346303Y-93218628D01*
X192346303Y-93218628D02*
X191965350Y-93218628D01*
X193292731Y-93647200D02*
X193191541Y-93694819D01*
X193191541Y-93694819D02*
X193001064Y-93694819D01*
X193001064Y-93694819D02*
X192911779Y-93647200D01*
X192911779Y-93647200D02*
X192876064Y-93551961D01*
X192876064Y-93551961D02*
X192923684Y-93171009D01*
X192923684Y-93171009D02*
X192983207Y-93075771D01*
X192983207Y-93075771D02*
X193084398Y-93028152D01*
X193084398Y-93028152D02*
X193274874Y-93028152D01*
X193274874Y-93028152D02*
X193364160Y-93075771D01*
X193364160Y-93075771D02*
X193399874Y-93171009D01*
X193399874Y-93171009D02*
X193387969Y-93266247D01*
X193387969Y-93266247D02*
X192899874Y-93361485D01*
X193905827Y-93694819D02*
X193816541Y-93647200D01*
X193816541Y-93647200D02*
X193780827Y-93551961D01*
X193780827Y-93551961D02*
X193887969Y-92694819D01*
X194715351Y-93694819D02*
X194780827Y-93171009D01*
X194780827Y-93171009D02*
X194745113Y-93075771D01*
X194745113Y-93075771D02*
X194655827Y-93028152D01*
X194655827Y-93028152D02*
X194465351Y-93028152D01*
X194465351Y-93028152D02*
X194364160Y-93075771D01*
X194721303Y-93647200D02*
X194620113Y-93694819D01*
X194620113Y-93694819D02*
X194382017Y-93694819D01*
X194382017Y-93694819D02*
X194292732Y-93647200D01*
X194292732Y-93647200D02*
X194257017Y-93551961D01*
X194257017Y-93551961D02*
X194268922Y-93456723D01*
X194268922Y-93456723D02*
X194328446Y-93361485D01*
X194328446Y-93361485D02*
X194429637Y-93313866D01*
X194429637Y-93313866D02*
X194667732Y-93313866D01*
X194667732Y-93313866D02*
X194768922Y-93266247D01*
X195179637Y-93028152D02*
X195334399Y-93694819D01*
X195655827Y-93028152D02*
X195334399Y-93694819D01*
X195334399Y-93694819D02*
X195209399Y-93932914D01*
X195209399Y-93932914D02*
X195155827Y-93980533D01*
X195155827Y-93980533D02*
X195054637Y-94028152D01*
X197298685Y-93599580D02*
X197245113Y-93647200D01*
X197245113Y-93647200D02*
X197096304Y-93694819D01*
X197096304Y-93694819D02*
X197001066Y-93694819D01*
X197001066Y-93694819D02*
X196864161Y-93647200D01*
X196864161Y-93647200D02*
X196780828Y-93551961D01*
X196780828Y-93551961D02*
X196745113Y-93456723D01*
X196745113Y-93456723D02*
X196721304Y-93266247D01*
X196721304Y-93266247D02*
X196739161Y-93123390D01*
X196739161Y-93123390D02*
X196810589Y-92932914D01*
X196810589Y-92932914D02*
X196870113Y-92837676D01*
X196870113Y-92837676D02*
X196977256Y-92742438D01*
X196977256Y-92742438D02*
X197126066Y-92694819D01*
X197126066Y-92694819D02*
X197221304Y-92694819D01*
X197221304Y-92694819D02*
X197358209Y-92742438D01*
X197358209Y-92742438D02*
X197399875Y-92790057D01*
X197858209Y-93694819D02*
X197768923Y-93647200D01*
X197768923Y-93647200D02*
X197727256Y-93599580D01*
X197727256Y-93599580D02*
X197691542Y-93504342D01*
X197691542Y-93504342D02*
X197727256Y-93218628D01*
X197727256Y-93218628D02*
X197786780Y-93123390D01*
X197786780Y-93123390D02*
X197840351Y-93075771D01*
X197840351Y-93075771D02*
X197941542Y-93028152D01*
X197941542Y-93028152D02*
X198084399Y-93028152D01*
X198084399Y-93028152D02*
X198173685Y-93075771D01*
X198173685Y-93075771D02*
X198215351Y-93123390D01*
X198215351Y-93123390D02*
X198251066Y-93218628D01*
X198251066Y-93218628D02*
X198215351Y-93504342D01*
X198215351Y-93504342D02*
X198155828Y-93599580D01*
X198155828Y-93599580D02*
X198102256Y-93647200D01*
X198102256Y-93647200D02*
X198001066Y-93694819D01*
X198001066Y-93694819D02*
X197858209Y-93694819D01*
X198703447Y-93028152D02*
X198620113Y-93694819D01*
X198691542Y-93123390D02*
X198745113Y-93075771D01*
X198745113Y-93075771D02*
X198846304Y-93028152D01*
X198846304Y-93028152D02*
X198989161Y-93028152D01*
X198989161Y-93028152D02*
X199078447Y-93075771D01*
X199078447Y-93075771D02*
X199114161Y-93171009D01*
X199114161Y-93171009D02*
X199048685Y-93694819D01*
X199465352Y-93028152D02*
X199846304Y-93028152D01*
X199649875Y-92694819D02*
X199542733Y-93551961D01*
X199542733Y-93551961D02*
X199578447Y-93647200D01*
X199578447Y-93647200D02*
X199667733Y-93694819D01*
X199667733Y-93694819D02*
X199762971Y-93694819D01*
X200096304Y-93694819D02*
X200179638Y-93028152D01*
X200155828Y-93218628D02*
X200215352Y-93123390D01*
X200215352Y-93123390D02*
X200268923Y-93075771D01*
X200268923Y-93075771D02*
X200370114Y-93028152D01*
X200370114Y-93028152D02*
X200465352Y-93028152D01*
X200858210Y-93694819D02*
X200768924Y-93647200D01*
X200768924Y-93647200D02*
X200727257Y-93599580D01*
X200727257Y-93599580D02*
X200691543Y-93504342D01*
X200691543Y-93504342D02*
X200727257Y-93218628D01*
X200727257Y-93218628D02*
X200786781Y-93123390D01*
X200786781Y-93123390D02*
X200840352Y-93075771D01*
X200840352Y-93075771D02*
X200941543Y-93028152D01*
X200941543Y-93028152D02*
X201084400Y-93028152D01*
X201084400Y-93028152D02*
X201173686Y-93075771D01*
X201173686Y-93075771D02*
X201215352Y-93123390D01*
X201215352Y-93123390D02*
X201251067Y-93218628D01*
X201251067Y-93218628D02*
X201215352Y-93504342D01*
X201215352Y-93504342D02*
X201155829Y-93599580D01*
X201155829Y-93599580D02*
X201102257Y-93647200D01*
X201102257Y-93647200D02*
X201001067Y-93694819D01*
X201001067Y-93694819D02*
X200858210Y-93694819D01*
X201762972Y-93694819D02*
X201673686Y-93647200D01*
X201673686Y-93647200D02*
X201637972Y-93551961D01*
X201637972Y-93551961D02*
X201745114Y-92694819D01*
X202102258Y-93647200D02*
X202191543Y-93694819D01*
X202191543Y-93694819D02*
X202382020Y-93694819D01*
X202382020Y-93694819D02*
X202483210Y-93647200D01*
X202483210Y-93647200D02*
X202542734Y-93551961D01*
X202542734Y-93551961D02*
X202548686Y-93504342D01*
X202548686Y-93504342D02*
X202512972Y-93409104D01*
X202512972Y-93409104D02*
X202423686Y-93361485D01*
X202423686Y-93361485D02*
X202280829Y-93361485D01*
X202280829Y-93361485D02*
X202191543Y-93313866D01*
X202191543Y-93313866D02*
X202155829Y-93218628D01*
X202155829Y-93218628D02*
X202161782Y-93171009D01*
X202161782Y-93171009D02*
X202221305Y-93075771D01*
X202221305Y-93075771D02*
X202322496Y-93028152D01*
X202322496Y-93028152D02*
X202465353Y-93028152D01*
X202465353Y-93028152D02*
X202554639Y-93075771D01*
X112412969Y-91769295D02*
X112908207Y-91769295D01*
X112908207Y-91769295D02*
X112641541Y-92074057D01*
X112641541Y-92074057D02*
X112755826Y-92074057D01*
X112755826Y-92074057D02*
X112832017Y-92112152D01*
X112832017Y-92112152D02*
X112870112Y-92150247D01*
X112870112Y-92150247D02*
X112908207Y-92226438D01*
X112908207Y-92226438D02*
X112908207Y-92416914D01*
X112908207Y-92416914D02*
X112870112Y-92493104D01*
X112870112Y-92493104D02*
X112832017Y-92531200D01*
X112832017Y-92531200D02*
X112755826Y-92569295D01*
X112755826Y-92569295D02*
X112527255Y-92569295D01*
X112527255Y-92569295D02*
X112451064Y-92531200D01*
X112451064Y-92531200D02*
X112412969Y-92493104D01*
X113251065Y-92493104D02*
X113289160Y-92531200D01*
X113289160Y-92531200D02*
X113251065Y-92569295D01*
X113251065Y-92569295D02*
X113212969Y-92531200D01*
X113212969Y-92531200D02*
X113251065Y-92493104D01*
X113251065Y-92493104D02*
X113251065Y-92569295D01*
X113555826Y-91769295D02*
X114051064Y-91769295D01*
X114051064Y-91769295D02*
X113784398Y-92074057D01*
X113784398Y-92074057D02*
X113898683Y-92074057D01*
X113898683Y-92074057D02*
X113974874Y-92112152D01*
X113974874Y-92112152D02*
X114012969Y-92150247D01*
X114012969Y-92150247D02*
X114051064Y-92226438D01*
X114051064Y-92226438D02*
X114051064Y-92416914D01*
X114051064Y-92416914D02*
X114012969Y-92493104D01*
X114012969Y-92493104D02*
X113974874Y-92531200D01*
X113974874Y-92531200D02*
X113898683Y-92569295D01*
X113898683Y-92569295D02*
X113670112Y-92569295D01*
X113670112Y-92569295D02*
X113593921Y-92531200D01*
X113593921Y-92531200D02*
X113555826Y-92493104D01*
X114279636Y-91769295D02*
X114546303Y-92569295D01*
X114546303Y-92569295D02*
X114812969Y-91769295D01*
X183936779Y-145059819D02*
X183936779Y-144059819D01*
X183936779Y-144059819D02*
X184508207Y-145059819D01*
X184508207Y-145059819D02*
X184508207Y-144059819D01*
X184984398Y-144536009D02*
X185317731Y-144536009D01*
X185460588Y-145059819D02*
X184984398Y-145059819D01*
X184984398Y-145059819D02*
X184984398Y-144059819D01*
X184984398Y-144059819D02*
X185460588Y-144059819D01*
X185889160Y-144059819D02*
X185889160Y-144869342D01*
X185889160Y-144869342D02*
X185936779Y-144964580D01*
X185936779Y-144964580D02*
X185984398Y-145012200D01*
X185984398Y-145012200D02*
X186079636Y-145059819D01*
X186079636Y-145059819D02*
X186270112Y-145059819D01*
X186270112Y-145059819D02*
X186365350Y-145012200D01*
X186365350Y-145012200D02*
X186412969Y-144964580D01*
X186412969Y-144964580D02*
X186460588Y-144869342D01*
X186460588Y-144869342D02*
X186460588Y-144059819D01*
X186793922Y-144059819D02*
X187365350Y-144059819D01*
X187079636Y-145059819D02*
X187079636Y-144059819D01*
X188698684Y-145393152D02*
X188698684Y-143964580D01*
X190174875Y-145059819D02*
X190174875Y-144059819D01*
X190174875Y-144059819D02*
X190746303Y-145059819D01*
X190746303Y-145059819D02*
X190746303Y-144059819D01*
X191412970Y-144059819D02*
X191603446Y-144059819D01*
X191603446Y-144059819D02*
X191698684Y-144107438D01*
X191698684Y-144107438D02*
X191793922Y-144202676D01*
X191793922Y-144202676D02*
X191841541Y-144393152D01*
X191841541Y-144393152D02*
X191841541Y-144726485D01*
X191841541Y-144726485D02*
X191793922Y-144916961D01*
X191793922Y-144916961D02*
X191698684Y-145012200D01*
X191698684Y-145012200D02*
X191603446Y-145059819D01*
X191603446Y-145059819D02*
X191412970Y-145059819D01*
X191412970Y-145059819D02*
X191317732Y-145012200D01*
X191317732Y-145012200D02*
X191222494Y-144916961D01*
X191222494Y-144916961D02*
X191174875Y-144726485D01*
X191174875Y-144726485D02*
X191174875Y-144393152D01*
X191174875Y-144393152D02*
X191222494Y-144202676D01*
X191222494Y-144202676D02*
X191317732Y-144107438D01*
X191317732Y-144107438D02*
X191412970Y-144059819D01*
X193270113Y-145393152D02*
X193270113Y-143964580D01*
X195222494Y-145059819D02*
X194746304Y-145059819D01*
X194746304Y-145059819D02*
X194746304Y-144059819D01*
X195555828Y-145059819D02*
X195555828Y-144059819D01*
X195889161Y-144059819D02*
X196222494Y-145059819D01*
X196222494Y-145059819D02*
X196555827Y-144059819D01*
X196889161Y-144536009D02*
X197222494Y-144536009D01*
X197365351Y-145059819D02*
X196889161Y-145059819D01*
X196889161Y-145059819D02*
X196889161Y-144059819D01*
X196889161Y-144059819D02*
X197365351Y-144059819D01*
X198793923Y-145393152D02*
X198793923Y-143964580D01*
X183793922Y-145765057D02*
X183984398Y-145622200D01*
X183984398Y-145622200D02*
X184174874Y-145765057D01*
X184508208Y-146669819D02*
X184508208Y-145669819D01*
X184508208Y-145669819D02*
X184746303Y-145669819D01*
X184746303Y-145669819D02*
X184889160Y-145717438D01*
X184889160Y-145717438D02*
X184984398Y-145812676D01*
X184984398Y-145812676D02*
X185032017Y-145907914D01*
X185032017Y-145907914D02*
X185079636Y-146098390D01*
X185079636Y-146098390D02*
X185079636Y-146241247D01*
X185079636Y-146241247D02*
X185032017Y-146431723D01*
X185032017Y-146431723D02*
X184984398Y-146526961D01*
X184984398Y-146526961D02*
X184889160Y-146622200D01*
X184889160Y-146622200D02*
X184746303Y-146669819D01*
X184746303Y-146669819D02*
X184508208Y-146669819D01*
X185651065Y-146669819D02*
X185555827Y-146622200D01*
X185555827Y-146622200D02*
X185508208Y-146574580D01*
X185508208Y-146574580D02*
X185460589Y-146479342D01*
X185460589Y-146479342D02*
X185460589Y-146193628D01*
X185460589Y-146193628D02*
X185508208Y-146098390D01*
X185508208Y-146098390D02*
X185555827Y-146050771D01*
X185555827Y-146050771D02*
X185651065Y-146003152D01*
X185651065Y-146003152D02*
X185793922Y-146003152D01*
X185793922Y-146003152D02*
X185889160Y-146050771D01*
X185889160Y-146050771D02*
X185936779Y-146098390D01*
X185936779Y-146098390D02*
X185984398Y-146193628D01*
X185984398Y-146193628D02*
X185984398Y-146479342D01*
X185984398Y-146479342D02*
X185936779Y-146574580D01*
X185936779Y-146574580D02*
X185889160Y-146622200D01*
X185889160Y-146622200D02*
X185793922Y-146669819D01*
X185793922Y-146669819D02*
X185651065Y-146669819D01*
X186412970Y-146003152D02*
X186412970Y-146669819D01*
X186412970Y-146098390D02*
X186460589Y-146050771D01*
X186460589Y-146050771D02*
X186555827Y-146003152D01*
X186555827Y-146003152D02*
X186698684Y-146003152D01*
X186698684Y-146003152D02*
X186793922Y-146050771D01*
X186793922Y-146050771D02*
X186841541Y-146146009D01*
X186841541Y-146146009D02*
X186841541Y-146669819D01*
X187365351Y-145669819D02*
X187270113Y-145860295D01*
X187651065Y-146003152D02*
X188032017Y-146003152D01*
X187793922Y-145669819D02*
X187793922Y-146526961D01*
X187793922Y-146526961D02*
X187841541Y-146622200D01*
X187841541Y-146622200D02*
X187936779Y-146669819D01*
X187936779Y-146669819D02*
X188032017Y-146669819D01*
X189127256Y-146669819D02*
X189127256Y-146003152D01*
X189127256Y-146098390D02*
X189174875Y-146050771D01*
X189174875Y-146050771D02*
X189270113Y-146003152D01*
X189270113Y-146003152D02*
X189412970Y-146003152D01*
X189412970Y-146003152D02*
X189508208Y-146050771D01*
X189508208Y-146050771D02*
X189555827Y-146146009D01*
X189555827Y-146146009D02*
X189555827Y-146669819D01*
X189555827Y-146146009D02*
X189603446Y-146050771D01*
X189603446Y-146050771D02*
X189698684Y-146003152D01*
X189698684Y-146003152D02*
X189841541Y-146003152D01*
X189841541Y-146003152D02*
X189936780Y-146050771D01*
X189936780Y-146050771D02*
X189984399Y-146146009D01*
X189984399Y-146146009D02*
X189984399Y-146669819D01*
X190841541Y-146622200D02*
X190746303Y-146669819D01*
X190746303Y-146669819D02*
X190555827Y-146669819D01*
X190555827Y-146669819D02*
X190460589Y-146622200D01*
X190460589Y-146622200D02*
X190412970Y-146526961D01*
X190412970Y-146526961D02*
X190412970Y-146146009D01*
X190412970Y-146146009D02*
X190460589Y-146050771D01*
X190460589Y-146050771D02*
X190555827Y-146003152D01*
X190555827Y-146003152D02*
X190746303Y-146003152D01*
X190746303Y-146003152D02*
X190841541Y-146050771D01*
X190841541Y-146050771D02*
X190889160Y-146146009D01*
X190889160Y-146146009D02*
X190889160Y-146241247D01*
X190889160Y-146241247D02*
X190412970Y-146336485D01*
X191270113Y-146622200D02*
X191365351Y-146669819D01*
X191365351Y-146669819D02*
X191555827Y-146669819D01*
X191555827Y-146669819D02*
X191651065Y-146622200D01*
X191651065Y-146622200D02*
X191698684Y-146526961D01*
X191698684Y-146526961D02*
X191698684Y-146479342D01*
X191698684Y-146479342D02*
X191651065Y-146384104D01*
X191651065Y-146384104D02*
X191555827Y-146336485D01*
X191555827Y-146336485D02*
X191412970Y-146336485D01*
X191412970Y-146336485D02*
X191317732Y-146288866D01*
X191317732Y-146288866D02*
X191270113Y-146193628D01*
X191270113Y-146193628D02*
X191270113Y-146146009D01*
X191270113Y-146146009D02*
X191317732Y-146050771D01*
X191317732Y-146050771D02*
X191412970Y-146003152D01*
X191412970Y-146003152D02*
X191555827Y-146003152D01*
X191555827Y-146003152D02*
X191651065Y-146050771D01*
X192079637Y-146622200D02*
X192174875Y-146669819D01*
X192174875Y-146669819D02*
X192365351Y-146669819D01*
X192365351Y-146669819D02*
X192460589Y-146622200D01*
X192460589Y-146622200D02*
X192508208Y-146526961D01*
X192508208Y-146526961D02*
X192508208Y-146479342D01*
X192508208Y-146479342D02*
X192460589Y-146384104D01*
X192460589Y-146384104D02*
X192365351Y-146336485D01*
X192365351Y-146336485D02*
X192222494Y-146336485D01*
X192222494Y-146336485D02*
X192127256Y-146288866D01*
X192127256Y-146288866D02*
X192079637Y-146193628D01*
X192079637Y-146193628D02*
X192079637Y-146146009D01*
X192079637Y-146146009D02*
X192127256Y-146050771D01*
X192127256Y-146050771D02*
X192222494Y-146003152D01*
X192222494Y-146003152D02*
X192365351Y-146003152D01*
X192365351Y-146003152D02*
X192460589Y-146050771D01*
X193698685Y-146669819D02*
X193698685Y-146003152D01*
X193698685Y-145669819D02*
X193651066Y-145717438D01*
X193651066Y-145717438D02*
X193698685Y-145765057D01*
X193698685Y-145765057D02*
X193746304Y-145717438D01*
X193746304Y-145717438D02*
X193698685Y-145669819D01*
X193698685Y-145669819D02*
X193698685Y-145765057D01*
X194032018Y-146003152D02*
X194412970Y-146003152D01*
X194174875Y-145669819D02*
X194174875Y-146526961D01*
X194174875Y-146526961D02*
X194222494Y-146622200D01*
X194222494Y-146622200D02*
X194317732Y-146669819D01*
X194317732Y-146669819D02*
X194412970Y-146669819D01*
X195936780Y-146003152D02*
X195936780Y-146669819D01*
X195508209Y-146003152D02*
X195508209Y-146526961D01*
X195508209Y-146526961D02*
X195555828Y-146622200D01*
X195555828Y-146622200D02*
X195651066Y-146669819D01*
X195651066Y-146669819D02*
X195793923Y-146669819D01*
X195793923Y-146669819D02*
X195889161Y-146622200D01*
X195889161Y-146622200D02*
X195936780Y-146574580D01*
X196412971Y-146003152D02*
X196412971Y-147003152D01*
X196412971Y-146050771D02*
X196508209Y-146003152D01*
X196508209Y-146003152D02*
X196698685Y-146003152D01*
X196698685Y-146003152D02*
X196793923Y-146050771D01*
X196793923Y-146050771D02*
X196841542Y-146098390D01*
X196841542Y-146098390D02*
X196889161Y-146193628D01*
X196889161Y-146193628D02*
X196889161Y-146479342D01*
X196889161Y-146479342D02*
X196841542Y-146574580D01*
X196841542Y-146574580D02*
X196793923Y-146622200D01*
X196793923Y-146622200D02*
X196698685Y-146669819D01*
X196698685Y-146669819D02*
X196508209Y-146669819D01*
X196508209Y-146669819D02*
X196412971Y-146622200D01*
X126732017Y-132469819D02*
X126255826Y-132469819D01*
X126255826Y-132469819D02*
X126148684Y-132946009D01*
X126148684Y-132946009D02*
X126202255Y-132898390D01*
X126202255Y-132898390D02*
X126303445Y-132850771D01*
X126303445Y-132850771D02*
X126541541Y-132850771D01*
X126541541Y-132850771D02*
X126630826Y-132898390D01*
X126630826Y-132898390D02*
X126672493Y-132946009D01*
X126672493Y-132946009D02*
X126708207Y-133041247D01*
X126708207Y-133041247D02*
X126678445Y-133279342D01*
X126678445Y-133279342D02*
X126618922Y-133374580D01*
X126618922Y-133374580D02*
X126565350Y-133422200D01*
X126565350Y-133422200D02*
X126464160Y-133469819D01*
X126464160Y-133469819D02*
X126226064Y-133469819D01*
X126226064Y-133469819D02*
X126136779Y-133422200D01*
X126136779Y-133422200D02*
X126095112Y-133374580D01*
X127065350Y-132469819D02*
X127273684Y-133469819D01*
X127273684Y-133469819D02*
X127732017Y-132469819D01*
X128642732Y-132803152D02*
X129023684Y-132803152D01*
X128827255Y-132469819D02*
X128720113Y-133326961D01*
X128720113Y-133326961D02*
X128755827Y-133422200D01*
X128755827Y-133422200D02*
X128845113Y-133469819D01*
X128845113Y-133469819D02*
X128940351Y-133469819D01*
X129416542Y-133469819D02*
X129327256Y-133422200D01*
X129327256Y-133422200D02*
X129285589Y-133374580D01*
X129285589Y-133374580D02*
X129249875Y-133279342D01*
X129249875Y-133279342D02*
X129285589Y-132993628D01*
X129285589Y-132993628D02*
X129345113Y-132898390D01*
X129345113Y-132898390D02*
X129398684Y-132850771D01*
X129398684Y-132850771D02*
X129499875Y-132803152D01*
X129499875Y-132803152D02*
X129642732Y-132803152D01*
X129642732Y-132803152D02*
X129732018Y-132850771D01*
X129732018Y-132850771D02*
X129773684Y-132898390D01*
X129773684Y-132898390D02*
X129809399Y-132993628D01*
X129809399Y-132993628D02*
X129773684Y-133279342D01*
X129773684Y-133279342D02*
X129714161Y-133374580D01*
X129714161Y-133374580D02*
X129660589Y-133422200D01*
X129660589Y-133422200D02*
X129559399Y-133469819D01*
X129559399Y-133469819D02*
X129416542Y-133469819D01*
X130970113Y-132469819D02*
X131589161Y-132469819D01*
X131589161Y-132469819D02*
X131208209Y-132850771D01*
X131208209Y-132850771D02*
X131351066Y-132850771D01*
X131351066Y-132850771D02*
X131440351Y-132898390D01*
X131440351Y-132898390D02*
X131482018Y-132946009D01*
X131482018Y-132946009D02*
X131517732Y-133041247D01*
X131517732Y-133041247D02*
X131487970Y-133279342D01*
X131487970Y-133279342D02*
X131428447Y-133374580D01*
X131428447Y-133374580D02*
X131374875Y-133422200D01*
X131374875Y-133422200D02*
X131273685Y-133469819D01*
X131273685Y-133469819D02*
X130987970Y-133469819D01*
X130987970Y-133469819D02*
X130898685Y-133422200D01*
X130898685Y-133422200D02*
X130857018Y-133374580D01*
X131904637Y-133374580D02*
X131946304Y-133422200D01*
X131946304Y-133422200D02*
X131892732Y-133469819D01*
X131892732Y-133469819D02*
X131851066Y-133422200D01*
X131851066Y-133422200D02*
X131904637Y-133374580D01*
X131904637Y-133374580D02*
X131892732Y-133469819D01*
X132398684Y-132469819D02*
X133017732Y-132469819D01*
X133017732Y-132469819D02*
X132636780Y-132850771D01*
X132636780Y-132850771D02*
X132779637Y-132850771D01*
X132779637Y-132850771D02*
X132868922Y-132898390D01*
X132868922Y-132898390D02*
X132910589Y-132946009D01*
X132910589Y-132946009D02*
X132946303Y-133041247D01*
X132946303Y-133041247D02*
X132916541Y-133279342D01*
X132916541Y-133279342D02*
X132857018Y-133374580D01*
X132857018Y-133374580D02*
X132803446Y-133422200D01*
X132803446Y-133422200D02*
X132702256Y-133469819D01*
X132702256Y-133469819D02*
X132416541Y-133469819D01*
X132416541Y-133469819D02*
X132327256Y-133422200D01*
X132327256Y-133422200D02*
X132285589Y-133374580D01*
X133303446Y-132469819D02*
X133511780Y-133469819D01*
X133511780Y-133469819D02*
X133970113Y-132469819D01*
X112520112Y-74794295D02*
X112139160Y-74794295D01*
X112139160Y-74794295D02*
X112101064Y-75175247D01*
X112101064Y-75175247D02*
X112139160Y-75137152D01*
X112139160Y-75137152D02*
X112215350Y-75099057D01*
X112215350Y-75099057D02*
X112405826Y-75099057D01*
X112405826Y-75099057D02*
X112482017Y-75137152D01*
X112482017Y-75137152D02*
X112520112Y-75175247D01*
X112520112Y-75175247D02*
X112558207Y-75251438D01*
X112558207Y-75251438D02*
X112558207Y-75441914D01*
X112558207Y-75441914D02*
X112520112Y-75518104D01*
X112520112Y-75518104D02*
X112482017Y-75556200D01*
X112482017Y-75556200D02*
X112405826Y-75594295D01*
X112405826Y-75594295D02*
X112215350Y-75594295D01*
X112215350Y-75594295D02*
X112139160Y-75556200D01*
X112139160Y-75556200D02*
X112101064Y-75518104D01*
X112786779Y-74794295D02*
X113053446Y-75594295D01*
X113053446Y-75594295D02*
X113320112Y-74794295D01*
X167791642Y-146454819D02*
X167458309Y-145978628D01*
X167220214Y-146454819D02*
X167220214Y-145454819D01*
X167220214Y-145454819D02*
X167601166Y-145454819D01*
X167601166Y-145454819D02*
X167696404Y-145502438D01*
X167696404Y-145502438D02*
X167744023Y-145550057D01*
X167744023Y-145550057D02*
X167791642Y-145645295D01*
X167791642Y-145645295D02*
X167791642Y-145788152D01*
X167791642Y-145788152D02*
X167744023Y-145883390D01*
X167744023Y-145883390D02*
X167696404Y-145931009D01*
X167696404Y-145931009D02*
X167601166Y-145978628D01*
X167601166Y-145978628D02*
X167220214Y-145978628D01*
X168744023Y-146454819D02*
X168172595Y-146454819D01*
X168458309Y-146454819D02*
X168458309Y-145454819D01*
X168458309Y-145454819D02*
X168363071Y-145597676D01*
X168363071Y-145597676D02*
X168267833Y-145692914D01*
X168267833Y-145692914D02*
X168172595Y-145740533D01*
X169077357Y-145454819D02*
X169744023Y-145454819D01*
X169744023Y-145454819D02*
X169315452Y-146454819D01*
D13*
X202242464Y-87459119D02*
X202242464Y-88275548D01*
X202242464Y-88275548D02*
X202188035Y-88438833D01*
X202188035Y-88438833D02*
X202079178Y-88547691D01*
X202079178Y-88547691D02*
X201915892Y-88602119D01*
X201915892Y-88602119D02*
X201807035Y-88602119D01*
X202677892Y-87459119D02*
X203439892Y-87459119D01*
X203439892Y-87459119D02*
X202950035Y-88602119D01*
D10*
X173066666Y-103254819D02*
X173066666Y-103969104D01*
X173066666Y-103969104D02*
X173019047Y-104111961D01*
X173019047Y-104111961D02*
X172923809Y-104207200D01*
X172923809Y-104207200D02*
X172780952Y-104254819D01*
X172780952Y-104254819D02*
X172685714Y-104254819D01*
X173590476Y-104254819D02*
X173780952Y-104254819D01*
X173780952Y-104254819D02*
X173876190Y-104207200D01*
X173876190Y-104207200D02*
X173923809Y-104159580D01*
X173923809Y-104159580D02*
X174019047Y-104016723D01*
X174019047Y-104016723D02*
X174066666Y-103826247D01*
X174066666Y-103826247D02*
X174066666Y-103445295D01*
X174066666Y-103445295D02*
X174019047Y-103350057D01*
X174019047Y-103350057D02*
X173971428Y-103302438D01*
X173971428Y-103302438D02*
X173876190Y-103254819D01*
X173876190Y-103254819D02*
X173685714Y-103254819D01*
X173685714Y-103254819D02*
X173590476Y-103302438D01*
X173590476Y-103302438D02*
X173542857Y-103350057D01*
X173542857Y-103350057D02*
X173495238Y-103445295D01*
X173495238Y-103445295D02*
X173495238Y-103683390D01*
X173495238Y-103683390D02*
X173542857Y-103778628D01*
X173542857Y-103778628D02*
X173590476Y-103826247D01*
X173590476Y-103826247D02*
X173685714Y-103873866D01*
X173685714Y-103873866D02*
X173876190Y-103873866D01*
X173876190Y-103873866D02*
X173971428Y-103826247D01*
X173971428Y-103826247D02*
X174019047Y-103778628D01*
X174019047Y-103778628D02*
X174066666Y-103683390D01*
X196788905Y-109350819D02*
X196788905Y-108350819D01*
X196788905Y-108350819D02*
X197027000Y-108350819D01*
X197027000Y-108350819D02*
X197169857Y-108398438D01*
X197169857Y-108398438D02*
X197265095Y-108493676D01*
X197265095Y-108493676D02*
X197312714Y-108588914D01*
X197312714Y-108588914D02*
X197360333Y-108779390D01*
X197360333Y-108779390D02*
X197360333Y-108922247D01*
X197360333Y-108922247D02*
X197312714Y-109112723D01*
X197312714Y-109112723D02*
X197265095Y-109207961D01*
X197265095Y-109207961D02*
X197169857Y-109303200D01*
X197169857Y-109303200D02*
X197027000Y-109350819D01*
X197027000Y-109350819D02*
X196788905Y-109350819D01*
X198217476Y-108350819D02*
X198027000Y-108350819D01*
X198027000Y-108350819D02*
X197931762Y-108398438D01*
X197931762Y-108398438D02*
X197884143Y-108446057D01*
X197884143Y-108446057D02*
X197788905Y-108588914D01*
X197788905Y-108588914D02*
X197741286Y-108779390D01*
X197741286Y-108779390D02*
X197741286Y-109160342D01*
X197741286Y-109160342D02*
X197788905Y-109255580D01*
X197788905Y-109255580D02*
X197836524Y-109303200D01*
X197836524Y-109303200D02*
X197931762Y-109350819D01*
X197931762Y-109350819D02*
X198122238Y-109350819D01*
X198122238Y-109350819D02*
X198217476Y-109303200D01*
X198217476Y-109303200D02*
X198265095Y-109255580D01*
X198265095Y-109255580D02*
X198312714Y-109160342D01*
X198312714Y-109160342D02*
X198312714Y-108922247D01*
X198312714Y-108922247D02*
X198265095Y-108827009D01*
X198265095Y-108827009D02*
X198217476Y-108779390D01*
X198217476Y-108779390D02*
X198122238Y-108731771D01*
X198122238Y-108731771D02*
X197931762Y-108731771D01*
X197931762Y-108731771D02*
X197836524Y-108779390D01*
X197836524Y-108779390D02*
X197788905Y-108827009D01*
X197788905Y-108827009D02*
X197741286Y-108922247D01*
X130607142Y-89224819D02*
X130273809Y-88748628D01*
X130035714Y-89224819D02*
X130035714Y-88224819D01*
X130035714Y-88224819D02*
X130416666Y-88224819D01*
X130416666Y-88224819D02*
X130511904Y-88272438D01*
X130511904Y-88272438D02*
X130559523Y-88320057D01*
X130559523Y-88320057D02*
X130607142Y-88415295D01*
X130607142Y-88415295D02*
X130607142Y-88558152D01*
X130607142Y-88558152D02*
X130559523Y-88653390D01*
X130559523Y-88653390D02*
X130511904Y-88701009D01*
X130511904Y-88701009D02*
X130416666Y-88748628D01*
X130416666Y-88748628D02*
X130035714Y-88748628D01*
X130988095Y-88320057D02*
X131035714Y-88272438D01*
X131035714Y-88272438D02*
X131130952Y-88224819D01*
X131130952Y-88224819D02*
X131369047Y-88224819D01*
X131369047Y-88224819D02*
X131464285Y-88272438D01*
X131464285Y-88272438D02*
X131511904Y-88320057D01*
X131511904Y-88320057D02*
X131559523Y-88415295D01*
X131559523Y-88415295D02*
X131559523Y-88510533D01*
X131559523Y-88510533D02*
X131511904Y-88653390D01*
X131511904Y-88653390D02*
X130940476Y-89224819D01*
X130940476Y-89224819D02*
X131559523Y-89224819D01*
X132416666Y-88224819D02*
X132226190Y-88224819D01*
X132226190Y-88224819D02*
X132130952Y-88272438D01*
X132130952Y-88272438D02*
X132083333Y-88320057D01*
X132083333Y-88320057D02*
X131988095Y-88462914D01*
X131988095Y-88462914D02*
X131940476Y-88653390D01*
X131940476Y-88653390D02*
X131940476Y-89034342D01*
X131940476Y-89034342D02*
X131988095Y-89129580D01*
X131988095Y-89129580D02*
X132035714Y-89177200D01*
X132035714Y-89177200D02*
X132130952Y-89224819D01*
X132130952Y-89224819D02*
X132321428Y-89224819D01*
X132321428Y-89224819D02*
X132416666Y-89177200D01*
X132416666Y-89177200D02*
X132464285Y-89129580D01*
X132464285Y-89129580D02*
X132511904Y-89034342D01*
X132511904Y-89034342D02*
X132511904Y-88796247D01*
X132511904Y-88796247D02*
X132464285Y-88701009D01*
X132464285Y-88701009D02*
X132416666Y-88653390D01*
X132416666Y-88653390D02*
X132321428Y-88605771D01*
X132321428Y-88605771D02*
X132130952Y-88605771D01*
X132130952Y-88605771D02*
X132035714Y-88653390D01*
X132035714Y-88653390D02*
X131988095Y-88701009D01*
X131988095Y-88701009D02*
X131940476Y-88796247D01*
X125757142Y-82474819D02*
X125423809Y-81998628D01*
X125185714Y-82474819D02*
X125185714Y-81474819D01*
X125185714Y-81474819D02*
X125566666Y-81474819D01*
X125566666Y-81474819D02*
X125661904Y-81522438D01*
X125661904Y-81522438D02*
X125709523Y-81570057D01*
X125709523Y-81570057D02*
X125757142Y-81665295D01*
X125757142Y-81665295D02*
X125757142Y-81808152D01*
X125757142Y-81808152D02*
X125709523Y-81903390D01*
X125709523Y-81903390D02*
X125661904Y-81951009D01*
X125661904Y-81951009D02*
X125566666Y-81998628D01*
X125566666Y-81998628D02*
X125185714Y-81998628D01*
X126138095Y-81570057D02*
X126185714Y-81522438D01*
X126185714Y-81522438D02*
X126280952Y-81474819D01*
X126280952Y-81474819D02*
X126519047Y-81474819D01*
X126519047Y-81474819D02*
X126614285Y-81522438D01*
X126614285Y-81522438D02*
X126661904Y-81570057D01*
X126661904Y-81570057D02*
X126709523Y-81665295D01*
X126709523Y-81665295D02*
X126709523Y-81760533D01*
X126709523Y-81760533D02*
X126661904Y-81903390D01*
X126661904Y-81903390D02*
X126090476Y-82474819D01*
X126090476Y-82474819D02*
X126709523Y-82474819D01*
X127042857Y-81474819D02*
X127709523Y-81474819D01*
X127709523Y-81474819D02*
X127280952Y-82474819D01*
X118057142Y-72554819D02*
X117723809Y-72078628D01*
X117485714Y-72554819D02*
X117485714Y-71554819D01*
X117485714Y-71554819D02*
X117866666Y-71554819D01*
X117866666Y-71554819D02*
X117961904Y-71602438D01*
X117961904Y-71602438D02*
X118009523Y-71650057D01*
X118009523Y-71650057D02*
X118057142Y-71745295D01*
X118057142Y-71745295D02*
X118057142Y-71888152D01*
X118057142Y-71888152D02*
X118009523Y-71983390D01*
X118009523Y-71983390D02*
X117961904Y-72031009D01*
X117961904Y-72031009D02*
X117866666Y-72078628D01*
X117866666Y-72078628D02*
X117485714Y-72078628D01*
X119009523Y-72554819D02*
X118438095Y-72554819D01*
X118723809Y-72554819D02*
X118723809Y-71554819D01*
X118723809Y-71554819D02*
X118628571Y-71697676D01*
X118628571Y-71697676D02*
X118533333Y-71792914D01*
X118533333Y-71792914D02*
X118438095Y-71840533D01*
X119390476Y-71650057D02*
X119438095Y-71602438D01*
X119438095Y-71602438D02*
X119533333Y-71554819D01*
X119533333Y-71554819D02*
X119771428Y-71554819D01*
X119771428Y-71554819D02*
X119866666Y-71602438D01*
X119866666Y-71602438D02*
X119914285Y-71650057D01*
X119914285Y-71650057D02*
X119961904Y-71745295D01*
X119961904Y-71745295D02*
X119961904Y-71840533D01*
X119961904Y-71840533D02*
X119914285Y-71983390D01*
X119914285Y-71983390D02*
X119342857Y-72554819D01*
X119342857Y-72554819D02*
X119961904Y-72554819D01*
X190156666Y-133604819D02*
X190156666Y-134319104D01*
X190156666Y-134319104D02*
X190109047Y-134461961D01*
X190109047Y-134461961D02*
X190013809Y-134557200D01*
X190013809Y-134557200D02*
X189870952Y-134604819D01*
X189870952Y-134604819D02*
X189775714Y-134604819D01*
X191156666Y-134604819D02*
X190585238Y-134604819D01*
X190870952Y-134604819D02*
X190870952Y-133604819D01*
X190870952Y-133604819D02*
X190775714Y-133747676D01*
X190775714Y-133747676D02*
X190680476Y-133842914D01*
X190680476Y-133842914D02*
X190585238Y-133890533D01*
X158566666Y-124954819D02*
X158566666Y-125669104D01*
X158566666Y-125669104D02*
X158519047Y-125811961D01*
X158519047Y-125811961D02*
X158423809Y-125907200D01*
X158423809Y-125907200D02*
X158280952Y-125954819D01*
X158280952Y-125954819D02*
X158185714Y-125954819D01*
X159519047Y-124954819D02*
X159042857Y-124954819D01*
X159042857Y-124954819D02*
X158995238Y-125431009D01*
X158995238Y-125431009D02*
X159042857Y-125383390D01*
X159042857Y-125383390D02*
X159138095Y-125335771D01*
X159138095Y-125335771D02*
X159376190Y-125335771D01*
X159376190Y-125335771D02*
X159471428Y-125383390D01*
X159471428Y-125383390D02*
X159519047Y-125431009D01*
X159519047Y-125431009D02*
X159566666Y-125526247D01*
X159566666Y-125526247D02*
X159566666Y-125764342D01*
X159566666Y-125764342D02*
X159519047Y-125859580D01*
X159519047Y-125859580D02*
X159471428Y-125907200D01*
X159471428Y-125907200D02*
X159376190Y-125954819D01*
X159376190Y-125954819D02*
X159138095Y-125954819D01*
X159138095Y-125954819D02*
X159042857Y-125907200D01*
X159042857Y-125907200D02*
X158995238Y-125859580D01*
X167904761Y-133450057D02*
X167809523Y-133402438D01*
X167809523Y-133402438D02*
X167714285Y-133307200D01*
X167714285Y-133307200D02*
X167571428Y-133164342D01*
X167571428Y-133164342D02*
X167476190Y-133116723D01*
X167476190Y-133116723D02*
X167380952Y-133116723D01*
X167428571Y-133354819D02*
X167333333Y-133307200D01*
X167333333Y-133307200D02*
X167238095Y-133211961D01*
X167238095Y-133211961D02*
X167190476Y-133021485D01*
X167190476Y-133021485D02*
X167190476Y-132688152D01*
X167190476Y-132688152D02*
X167238095Y-132497676D01*
X167238095Y-132497676D02*
X167333333Y-132402438D01*
X167333333Y-132402438D02*
X167428571Y-132354819D01*
X167428571Y-132354819D02*
X167619047Y-132354819D01*
X167619047Y-132354819D02*
X167714285Y-132402438D01*
X167714285Y-132402438D02*
X167809523Y-132497676D01*
X167809523Y-132497676D02*
X167857142Y-132688152D01*
X167857142Y-132688152D02*
X167857142Y-133021485D01*
X167857142Y-133021485D02*
X167809523Y-133211961D01*
X167809523Y-133211961D02*
X167714285Y-133307200D01*
X167714285Y-133307200D02*
X167619047Y-133354819D01*
X167619047Y-133354819D02*
X167428571Y-133354819D01*
X168714285Y-132688152D02*
X168714285Y-133354819D01*
X168476190Y-132307200D02*
X168238095Y-133021485D01*
X168238095Y-133021485D02*
X168857142Y-133021485D01*
X123613333Y-72359580D02*
X123565714Y-72407200D01*
X123565714Y-72407200D02*
X123422857Y-72454819D01*
X123422857Y-72454819D02*
X123327619Y-72454819D01*
X123327619Y-72454819D02*
X123184762Y-72407200D01*
X123184762Y-72407200D02*
X123089524Y-72311961D01*
X123089524Y-72311961D02*
X123041905Y-72216723D01*
X123041905Y-72216723D02*
X122994286Y-72026247D01*
X122994286Y-72026247D02*
X122994286Y-71883390D01*
X122994286Y-71883390D02*
X123041905Y-71692914D01*
X123041905Y-71692914D02*
X123089524Y-71597676D01*
X123089524Y-71597676D02*
X123184762Y-71502438D01*
X123184762Y-71502438D02*
X123327619Y-71454819D01*
X123327619Y-71454819D02*
X123422857Y-71454819D01*
X123422857Y-71454819D02*
X123565714Y-71502438D01*
X123565714Y-71502438D02*
X123613333Y-71550057D01*
X124565714Y-72454819D02*
X123994286Y-72454819D01*
X124280000Y-72454819D02*
X124280000Y-71454819D01*
X124280000Y-71454819D02*
X124184762Y-71597676D01*
X124184762Y-71597676D02*
X124089524Y-71692914D01*
X124089524Y-71692914D02*
X123994286Y-71740533D01*
X180667142Y-72144819D02*
X180333809Y-71668628D01*
X180095714Y-72144819D02*
X180095714Y-71144819D01*
X180095714Y-71144819D02*
X180476666Y-71144819D01*
X180476666Y-71144819D02*
X180571904Y-71192438D01*
X180571904Y-71192438D02*
X180619523Y-71240057D01*
X180619523Y-71240057D02*
X180667142Y-71335295D01*
X180667142Y-71335295D02*
X180667142Y-71478152D01*
X180667142Y-71478152D02*
X180619523Y-71573390D01*
X180619523Y-71573390D02*
X180571904Y-71621009D01*
X180571904Y-71621009D02*
X180476666Y-71668628D01*
X180476666Y-71668628D02*
X180095714Y-71668628D01*
X181619523Y-72144819D02*
X181048095Y-72144819D01*
X181333809Y-72144819D02*
X181333809Y-71144819D01*
X181333809Y-71144819D02*
X181238571Y-71287676D01*
X181238571Y-71287676D02*
X181143333Y-71382914D01*
X181143333Y-71382914D02*
X181048095Y-71430533D01*
X181952857Y-71144819D02*
X182571904Y-71144819D01*
X182571904Y-71144819D02*
X182238571Y-71525771D01*
X182238571Y-71525771D02*
X182381428Y-71525771D01*
X182381428Y-71525771D02*
X182476666Y-71573390D01*
X182476666Y-71573390D02*
X182524285Y-71621009D01*
X182524285Y-71621009D02*
X182571904Y-71716247D01*
X182571904Y-71716247D02*
X182571904Y-71954342D01*
X182571904Y-71954342D02*
X182524285Y-72049580D01*
X182524285Y-72049580D02*
X182476666Y-72097200D01*
X182476666Y-72097200D02*
X182381428Y-72144819D01*
X182381428Y-72144819D02*
X182095714Y-72144819D01*
X182095714Y-72144819D02*
X182000476Y-72097200D01*
X182000476Y-72097200D02*
X181952857Y-72049580D01*
X131033333Y-75559580D02*
X130985714Y-75607200D01*
X130985714Y-75607200D02*
X130842857Y-75654819D01*
X130842857Y-75654819D02*
X130747619Y-75654819D01*
X130747619Y-75654819D02*
X130604762Y-75607200D01*
X130604762Y-75607200D02*
X130509524Y-75511961D01*
X130509524Y-75511961D02*
X130461905Y-75416723D01*
X130461905Y-75416723D02*
X130414286Y-75226247D01*
X130414286Y-75226247D02*
X130414286Y-75083390D01*
X130414286Y-75083390D02*
X130461905Y-74892914D01*
X130461905Y-74892914D02*
X130509524Y-74797676D01*
X130509524Y-74797676D02*
X130604762Y-74702438D01*
X130604762Y-74702438D02*
X130747619Y-74654819D01*
X130747619Y-74654819D02*
X130842857Y-74654819D01*
X130842857Y-74654819D02*
X130985714Y-74702438D01*
X130985714Y-74702438D02*
X131033333Y-74750057D01*
X131938095Y-74654819D02*
X131461905Y-74654819D01*
X131461905Y-74654819D02*
X131414286Y-75131009D01*
X131414286Y-75131009D02*
X131461905Y-75083390D01*
X131461905Y-75083390D02*
X131557143Y-75035771D01*
X131557143Y-75035771D02*
X131795238Y-75035771D01*
X131795238Y-75035771D02*
X131890476Y-75083390D01*
X131890476Y-75083390D02*
X131938095Y-75131009D01*
X131938095Y-75131009D02*
X131985714Y-75226247D01*
X131985714Y-75226247D02*
X131985714Y-75464342D01*
X131985714Y-75464342D02*
X131938095Y-75559580D01*
X131938095Y-75559580D02*
X131890476Y-75607200D01*
X131890476Y-75607200D02*
X131795238Y-75654819D01*
X131795238Y-75654819D02*
X131557143Y-75654819D01*
X131557143Y-75654819D02*
X131461905Y-75607200D01*
X131461905Y-75607200D02*
X131414286Y-75559580D01*
X110357142Y-121654819D02*
X110023809Y-121178628D01*
X109785714Y-121654819D02*
X109785714Y-120654819D01*
X109785714Y-120654819D02*
X110166666Y-120654819D01*
X110166666Y-120654819D02*
X110261904Y-120702438D01*
X110261904Y-120702438D02*
X110309523Y-120750057D01*
X110309523Y-120750057D02*
X110357142Y-120845295D01*
X110357142Y-120845295D02*
X110357142Y-120988152D01*
X110357142Y-120988152D02*
X110309523Y-121083390D01*
X110309523Y-121083390D02*
X110261904Y-121131009D01*
X110261904Y-121131009D02*
X110166666Y-121178628D01*
X110166666Y-121178628D02*
X109785714Y-121178628D01*
X110738095Y-120750057D02*
X110785714Y-120702438D01*
X110785714Y-120702438D02*
X110880952Y-120654819D01*
X110880952Y-120654819D02*
X111119047Y-120654819D01*
X111119047Y-120654819D02*
X111214285Y-120702438D01*
X111214285Y-120702438D02*
X111261904Y-120750057D01*
X111261904Y-120750057D02*
X111309523Y-120845295D01*
X111309523Y-120845295D02*
X111309523Y-120940533D01*
X111309523Y-120940533D02*
X111261904Y-121083390D01*
X111261904Y-121083390D02*
X110690476Y-121654819D01*
X110690476Y-121654819D02*
X111309523Y-121654819D01*
X111785714Y-121654819D02*
X111976190Y-121654819D01*
X111976190Y-121654819D02*
X112071428Y-121607200D01*
X112071428Y-121607200D02*
X112119047Y-121559580D01*
X112119047Y-121559580D02*
X112214285Y-121416723D01*
X112214285Y-121416723D02*
X112261904Y-121226247D01*
X112261904Y-121226247D02*
X112261904Y-120845295D01*
X112261904Y-120845295D02*
X112214285Y-120750057D01*
X112214285Y-120750057D02*
X112166666Y-120702438D01*
X112166666Y-120702438D02*
X112071428Y-120654819D01*
X112071428Y-120654819D02*
X111880952Y-120654819D01*
X111880952Y-120654819D02*
X111785714Y-120702438D01*
X111785714Y-120702438D02*
X111738095Y-120750057D01*
X111738095Y-120750057D02*
X111690476Y-120845295D01*
X111690476Y-120845295D02*
X111690476Y-121083390D01*
X111690476Y-121083390D02*
X111738095Y-121178628D01*
X111738095Y-121178628D02*
X111785714Y-121226247D01*
X111785714Y-121226247D02*
X111880952Y-121273866D01*
X111880952Y-121273866D02*
X112071428Y-121273866D01*
X112071428Y-121273866D02*
X112166666Y-121226247D01*
X112166666Y-121226247D02*
X112214285Y-121178628D01*
X112214285Y-121178628D02*
X112261904Y-121083390D01*
X168981905Y-71564819D02*
X168981905Y-70564819D01*
X168981905Y-70564819D02*
X169220000Y-70564819D01*
X169220000Y-70564819D02*
X169362857Y-70612438D01*
X169362857Y-70612438D02*
X169458095Y-70707676D01*
X169458095Y-70707676D02*
X169505714Y-70802914D01*
X169505714Y-70802914D02*
X169553333Y-70993390D01*
X169553333Y-70993390D02*
X169553333Y-71136247D01*
X169553333Y-71136247D02*
X169505714Y-71326723D01*
X169505714Y-71326723D02*
X169458095Y-71421961D01*
X169458095Y-71421961D02*
X169362857Y-71517200D01*
X169362857Y-71517200D02*
X169220000Y-71564819D01*
X169220000Y-71564819D02*
X168981905Y-71564819D01*
X169886667Y-70564819D02*
X170505714Y-70564819D01*
X170505714Y-70564819D02*
X170172381Y-70945771D01*
X170172381Y-70945771D02*
X170315238Y-70945771D01*
X170315238Y-70945771D02*
X170410476Y-70993390D01*
X170410476Y-70993390D02*
X170458095Y-71041009D01*
X170458095Y-71041009D02*
X170505714Y-71136247D01*
X170505714Y-71136247D02*
X170505714Y-71374342D01*
X170505714Y-71374342D02*
X170458095Y-71469580D01*
X170458095Y-71469580D02*
X170410476Y-71517200D01*
X170410476Y-71517200D02*
X170315238Y-71564819D01*
X170315238Y-71564819D02*
X170029524Y-71564819D01*
X170029524Y-71564819D02*
X169934286Y-71517200D01*
X169934286Y-71517200D02*
X169886667Y-71469580D01*
X191842819Y-97037333D02*
X192557104Y-97037333D01*
X192557104Y-97037333D02*
X192699961Y-97084952D01*
X192699961Y-97084952D02*
X192795200Y-97180190D01*
X192795200Y-97180190D02*
X192842819Y-97323047D01*
X192842819Y-97323047D02*
X192842819Y-97418285D01*
X191842819Y-96132571D02*
X191842819Y-96323047D01*
X191842819Y-96323047D02*
X191890438Y-96418285D01*
X191890438Y-96418285D02*
X191938057Y-96465904D01*
X191938057Y-96465904D02*
X192080914Y-96561142D01*
X192080914Y-96561142D02*
X192271390Y-96608761D01*
X192271390Y-96608761D02*
X192652342Y-96608761D01*
X192652342Y-96608761D02*
X192747580Y-96561142D01*
X192747580Y-96561142D02*
X192795200Y-96513523D01*
X192795200Y-96513523D02*
X192842819Y-96418285D01*
X192842819Y-96418285D02*
X192842819Y-96227809D01*
X192842819Y-96227809D02*
X192795200Y-96132571D01*
X192795200Y-96132571D02*
X192747580Y-96084952D01*
X192747580Y-96084952D02*
X192652342Y-96037333D01*
X192652342Y-96037333D02*
X192414247Y-96037333D01*
X192414247Y-96037333D02*
X192319009Y-96084952D01*
X192319009Y-96084952D02*
X192271390Y-96132571D01*
X192271390Y-96132571D02*
X192223771Y-96227809D01*
X192223771Y-96227809D02*
X192223771Y-96418285D01*
X192223771Y-96418285D02*
X192271390Y-96513523D01*
X192271390Y-96513523D02*
X192319009Y-96561142D01*
X192319009Y-96561142D02*
X192414247Y-96608761D01*
X148490476Y-129154819D02*
X148490476Y-129869104D01*
X148490476Y-129869104D02*
X148442857Y-130011961D01*
X148442857Y-130011961D02*
X148347619Y-130107200D01*
X148347619Y-130107200D02*
X148204762Y-130154819D01*
X148204762Y-130154819D02*
X148109524Y-130154819D01*
X149490476Y-130154819D02*
X148919048Y-130154819D01*
X149204762Y-130154819D02*
X149204762Y-129154819D01*
X149204762Y-129154819D02*
X149109524Y-129297676D01*
X149109524Y-129297676D02*
X149014286Y-129392914D01*
X149014286Y-129392914D02*
X148919048Y-129440533D01*
X149823810Y-129154819D02*
X150442857Y-129154819D01*
X150442857Y-129154819D02*
X150109524Y-129535771D01*
X150109524Y-129535771D02*
X150252381Y-129535771D01*
X150252381Y-129535771D02*
X150347619Y-129583390D01*
X150347619Y-129583390D02*
X150395238Y-129631009D01*
X150395238Y-129631009D02*
X150442857Y-129726247D01*
X150442857Y-129726247D02*
X150442857Y-129964342D01*
X150442857Y-129964342D02*
X150395238Y-130059580D01*
X150395238Y-130059580D02*
X150347619Y-130107200D01*
X150347619Y-130107200D02*
X150252381Y-130154819D01*
X150252381Y-130154819D02*
X149966667Y-130154819D01*
X149966667Y-130154819D02*
X149871429Y-130107200D01*
X149871429Y-130107200D02*
X149823810Y-130059580D01*
X142590476Y-130354819D02*
X142590476Y-131069104D01*
X142590476Y-131069104D02*
X142542857Y-131211961D01*
X142542857Y-131211961D02*
X142447619Y-131307200D01*
X142447619Y-131307200D02*
X142304762Y-131354819D01*
X142304762Y-131354819D02*
X142209524Y-131354819D01*
X143590476Y-131354819D02*
X143019048Y-131354819D01*
X143304762Y-131354819D02*
X143304762Y-130354819D01*
X143304762Y-130354819D02*
X143209524Y-130497676D01*
X143209524Y-130497676D02*
X143114286Y-130592914D01*
X143114286Y-130592914D02*
X143019048Y-130640533D01*
X144542857Y-131354819D02*
X143971429Y-131354819D01*
X144257143Y-131354819D02*
X144257143Y-130354819D01*
X144257143Y-130354819D02*
X144161905Y-130497676D01*
X144161905Y-130497676D02*
X144066667Y-130592914D01*
X144066667Y-130592914D02*
X143971429Y-130640533D01*
X172001905Y-71534819D02*
X172001905Y-70534819D01*
X172001905Y-70534819D02*
X172240000Y-70534819D01*
X172240000Y-70534819D02*
X172382857Y-70582438D01*
X172382857Y-70582438D02*
X172478095Y-70677676D01*
X172478095Y-70677676D02*
X172525714Y-70772914D01*
X172525714Y-70772914D02*
X172573333Y-70963390D01*
X172573333Y-70963390D02*
X172573333Y-71106247D01*
X172573333Y-71106247D02*
X172525714Y-71296723D01*
X172525714Y-71296723D02*
X172478095Y-71391961D01*
X172478095Y-71391961D02*
X172382857Y-71487200D01*
X172382857Y-71487200D02*
X172240000Y-71534819D01*
X172240000Y-71534819D02*
X172001905Y-71534819D01*
X173478095Y-70534819D02*
X173001905Y-70534819D01*
X173001905Y-70534819D02*
X172954286Y-71011009D01*
X172954286Y-71011009D02*
X173001905Y-70963390D01*
X173001905Y-70963390D02*
X173097143Y-70915771D01*
X173097143Y-70915771D02*
X173335238Y-70915771D01*
X173335238Y-70915771D02*
X173430476Y-70963390D01*
X173430476Y-70963390D02*
X173478095Y-71011009D01*
X173478095Y-71011009D02*
X173525714Y-71106247D01*
X173525714Y-71106247D02*
X173525714Y-71344342D01*
X173525714Y-71344342D02*
X173478095Y-71439580D01*
X173478095Y-71439580D02*
X173430476Y-71487200D01*
X173430476Y-71487200D02*
X173335238Y-71534819D01*
X173335238Y-71534819D02*
X173097143Y-71534819D01*
X173097143Y-71534819D02*
X173001905Y-71487200D01*
X173001905Y-71487200D02*
X172954286Y-71439580D01*
X152357142Y-126854819D02*
X152023809Y-126378628D01*
X151785714Y-126854819D02*
X151785714Y-125854819D01*
X151785714Y-125854819D02*
X152166666Y-125854819D01*
X152166666Y-125854819D02*
X152261904Y-125902438D01*
X152261904Y-125902438D02*
X152309523Y-125950057D01*
X152309523Y-125950057D02*
X152357142Y-126045295D01*
X152357142Y-126045295D02*
X152357142Y-126188152D01*
X152357142Y-126188152D02*
X152309523Y-126283390D01*
X152309523Y-126283390D02*
X152261904Y-126331009D01*
X152261904Y-126331009D02*
X152166666Y-126378628D01*
X152166666Y-126378628D02*
X151785714Y-126378628D01*
X152738095Y-125950057D02*
X152785714Y-125902438D01*
X152785714Y-125902438D02*
X152880952Y-125854819D01*
X152880952Y-125854819D02*
X153119047Y-125854819D01*
X153119047Y-125854819D02*
X153214285Y-125902438D01*
X153214285Y-125902438D02*
X153261904Y-125950057D01*
X153261904Y-125950057D02*
X153309523Y-126045295D01*
X153309523Y-126045295D02*
X153309523Y-126140533D01*
X153309523Y-126140533D02*
X153261904Y-126283390D01*
X153261904Y-126283390D02*
X152690476Y-126854819D01*
X152690476Y-126854819D02*
X153309523Y-126854819D01*
X154166666Y-126188152D02*
X154166666Y-126854819D01*
X153928571Y-125807200D02*
X153690476Y-126521485D01*
X153690476Y-126521485D02*
X154309523Y-126521485D01*
X112466666Y-90354819D02*
X112466666Y-91069104D01*
X112466666Y-91069104D02*
X112419047Y-91211961D01*
X112419047Y-91211961D02*
X112323809Y-91307200D01*
X112323809Y-91307200D02*
X112180952Y-91354819D01*
X112180952Y-91354819D02*
X112085714Y-91354819D01*
X112895238Y-90450057D02*
X112942857Y-90402438D01*
X112942857Y-90402438D02*
X113038095Y-90354819D01*
X113038095Y-90354819D02*
X113276190Y-90354819D01*
X113276190Y-90354819D02*
X113371428Y-90402438D01*
X113371428Y-90402438D02*
X113419047Y-90450057D01*
X113419047Y-90450057D02*
X113466666Y-90545295D01*
X113466666Y-90545295D02*
X113466666Y-90640533D01*
X113466666Y-90640533D02*
X113419047Y-90783390D01*
X113419047Y-90783390D02*
X112847619Y-91354819D01*
X112847619Y-91354819D02*
X113466666Y-91354819D01*
X192560416Y-86221069D02*
X192560416Y-86935354D01*
X192560416Y-86935354D02*
X192512797Y-87078211D01*
X192512797Y-87078211D02*
X192417559Y-87173450D01*
X192417559Y-87173450D02*
X192274702Y-87221069D01*
X192274702Y-87221069D02*
X192179464Y-87221069D01*
X193179464Y-86649640D02*
X193084226Y-86602021D01*
X193084226Y-86602021D02*
X193036607Y-86554402D01*
X193036607Y-86554402D02*
X192988988Y-86459164D01*
X192988988Y-86459164D02*
X192988988Y-86411545D01*
X192988988Y-86411545D02*
X193036607Y-86316307D01*
X193036607Y-86316307D02*
X193084226Y-86268688D01*
X193084226Y-86268688D02*
X193179464Y-86221069D01*
X193179464Y-86221069D02*
X193369940Y-86221069D01*
X193369940Y-86221069D02*
X193465178Y-86268688D01*
X193465178Y-86268688D02*
X193512797Y-86316307D01*
X193512797Y-86316307D02*
X193560416Y-86411545D01*
X193560416Y-86411545D02*
X193560416Y-86459164D01*
X193560416Y-86459164D02*
X193512797Y-86554402D01*
X193512797Y-86554402D02*
X193465178Y-86602021D01*
X193465178Y-86602021D02*
X193369940Y-86649640D01*
X193369940Y-86649640D02*
X193179464Y-86649640D01*
X193179464Y-86649640D02*
X193084226Y-86697259D01*
X193084226Y-86697259D02*
X193036607Y-86744878D01*
X193036607Y-86744878D02*
X192988988Y-86840116D01*
X192988988Y-86840116D02*
X192988988Y-87030592D01*
X192988988Y-87030592D02*
X193036607Y-87125830D01*
X193036607Y-87125830D02*
X193084226Y-87173450D01*
X193084226Y-87173450D02*
X193179464Y-87221069D01*
X193179464Y-87221069D02*
X193369940Y-87221069D01*
X193369940Y-87221069D02*
X193465178Y-87173450D01*
X193465178Y-87173450D02*
X193512797Y-87125830D01*
X193512797Y-87125830D02*
X193560416Y-87030592D01*
X193560416Y-87030592D02*
X193560416Y-86840116D01*
X193560416Y-86840116D02*
X193512797Y-86744878D01*
X193512797Y-86744878D02*
X193465178Y-86697259D01*
X193465178Y-86697259D02*
X193369940Y-86649640D01*
X166508333Y-80729819D02*
X166175000Y-80253628D01*
X165936905Y-80729819D02*
X165936905Y-79729819D01*
X165936905Y-79729819D02*
X166317857Y-79729819D01*
X166317857Y-79729819D02*
X166413095Y-79777438D01*
X166413095Y-79777438D02*
X166460714Y-79825057D01*
X166460714Y-79825057D02*
X166508333Y-79920295D01*
X166508333Y-79920295D02*
X166508333Y-80063152D01*
X166508333Y-80063152D02*
X166460714Y-80158390D01*
X166460714Y-80158390D02*
X166413095Y-80206009D01*
X166413095Y-80206009D02*
X166317857Y-80253628D01*
X166317857Y-80253628D02*
X165936905Y-80253628D01*
X167413095Y-79729819D02*
X166936905Y-79729819D01*
X166936905Y-79729819D02*
X166889286Y-80206009D01*
X166889286Y-80206009D02*
X166936905Y-80158390D01*
X166936905Y-80158390D02*
X167032143Y-80110771D01*
X167032143Y-80110771D02*
X167270238Y-80110771D01*
X167270238Y-80110771D02*
X167365476Y-80158390D01*
X167365476Y-80158390D02*
X167413095Y-80206009D01*
X167413095Y-80206009D02*
X167460714Y-80301247D01*
X167460714Y-80301247D02*
X167460714Y-80539342D01*
X167460714Y-80539342D02*
X167413095Y-80634580D01*
X167413095Y-80634580D02*
X167365476Y-80682200D01*
X167365476Y-80682200D02*
X167270238Y-80729819D01*
X167270238Y-80729819D02*
X167032143Y-80729819D01*
X167032143Y-80729819D02*
X166936905Y-80682200D01*
X166936905Y-80682200D02*
X166889286Y-80634580D01*
X198875892Y-90086069D02*
X198542559Y-89609878D01*
X198304464Y-90086069D02*
X198304464Y-89086069D01*
X198304464Y-89086069D02*
X198685416Y-89086069D01*
X198685416Y-89086069D02*
X198780654Y-89133688D01*
X198780654Y-89133688D02*
X198828273Y-89181307D01*
X198828273Y-89181307D02*
X198875892Y-89276545D01*
X198875892Y-89276545D02*
X198875892Y-89419402D01*
X198875892Y-89419402D02*
X198828273Y-89514640D01*
X198828273Y-89514640D02*
X198780654Y-89562259D01*
X198780654Y-89562259D02*
X198685416Y-89609878D01*
X198685416Y-89609878D02*
X198304464Y-89609878D01*
X199828273Y-90086069D02*
X199256845Y-90086069D01*
X199542559Y-90086069D02*
X199542559Y-89086069D01*
X199542559Y-89086069D02*
X199447321Y-89228926D01*
X199447321Y-89228926D02*
X199352083Y-89324164D01*
X199352083Y-89324164D02*
X199256845Y-89371783D01*
X200447321Y-89086069D02*
X200542559Y-89086069D01*
X200542559Y-89086069D02*
X200637797Y-89133688D01*
X200637797Y-89133688D02*
X200685416Y-89181307D01*
X200685416Y-89181307D02*
X200733035Y-89276545D01*
X200733035Y-89276545D02*
X200780654Y-89467021D01*
X200780654Y-89467021D02*
X200780654Y-89705116D01*
X200780654Y-89705116D02*
X200733035Y-89895592D01*
X200733035Y-89895592D02*
X200685416Y-89990830D01*
X200685416Y-89990830D02*
X200637797Y-90038450D01*
X200637797Y-90038450D02*
X200542559Y-90086069D01*
X200542559Y-90086069D02*
X200447321Y-90086069D01*
X200447321Y-90086069D02*
X200352083Y-90038450D01*
X200352083Y-90038450D02*
X200304464Y-89990830D01*
X200304464Y-89990830D02*
X200256845Y-89895592D01*
X200256845Y-89895592D02*
X200209226Y-89705116D01*
X200209226Y-89705116D02*
X200209226Y-89467021D01*
X200209226Y-89467021D02*
X200256845Y-89276545D01*
X200256845Y-89276545D02*
X200304464Y-89181307D01*
X200304464Y-89181307D02*
X200352083Y-89133688D01*
X200352083Y-89133688D02*
X200447321Y-89086069D01*
X200174761Y-101690057D02*
X200079523Y-101642438D01*
X200079523Y-101642438D02*
X199984285Y-101547200D01*
X199984285Y-101547200D02*
X199841428Y-101404342D01*
X199841428Y-101404342D02*
X199746190Y-101356723D01*
X199746190Y-101356723D02*
X199650952Y-101356723D01*
X199698571Y-101594819D02*
X199603333Y-101547200D01*
X199603333Y-101547200D02*
X199508095Y-101451961D01*
X199508095Y-101451961D02*
X199460476Y-101261485D01*
X199460476Y-101261485D02*
X199460476Y-100928152D01*
X199460476Y-100928152D02*
X199508095Y-100737676D01*
X199508095Y-100737676D02*
X199603333Y-100642438D01*
X199603333Y-100642438D02*
X199698571Y-100594819D01*
X199698571Y-100594819D02*
X199889047Y-100594819D01*
X199889047Y-100594819D02*
X199984285Y-100642438D01*
X199984285Y-100642438D02*
X200079523Y-100737676D01*
X200079523Y-100737676D02*
X200127142Y-100928152D01*
X200127142Y-100928152D02*
X200127142Y-101261485D01*
X200127142Y-101261485D02*
X200079523Y-101451961D01*
X200079523Y-101451961D02*
X199984285Y-101547200D01*
X199984285Y-101547200D02*
X199889047Y-101594819D01*
X199889047Y-101594819D02*
X199698571Y-101594819D01*
X201079523Y-101594819D02*
X200508095Y-101594819D01*
X200793809Y-101594819D02*
X200793809Y-100594819D01*
X200793809Y-100594819D02*
X200698571Y-100737676D01*
X200698571Y-100737676D02*
X200603333Y-100832914D01*
X200603333Y-100832914D02*
X200508095Y-100880533D01*
X177248511Y-72431307D02*
X177153273Y-72383688D01*
X177153273Y-72383688D02*
X177058035Y-72288450D01*
X177058035Y-72288450D02*
X176915178Y-72145592D01*
X176915178Y-72145592D02*
X176819940Y-72097973D01*
X176819940Y-72097973D02*
X176724702Y-72097973D01*
X176772321Y-72336069D02*
X176677083Y-72288450D01*
X176677083Y-72288450D02*
X176581845Y-72193211D01*
X176581845Y-72193211D02*
X176534226Y-72002735D01*
X176534226Y-72002735D02*
X176534226Y-71669402D01*
X176534226Y-71669402D02*
X176581845Y-71478926D01*
X176581845Y-71478926D02*
X176677083Y-71383688D01*
X176677083Y-71383688D02*
X176772321Y-71336069D01*
X176772321Y-71336069D02*
X176962797Y-71336069D01*
X176962797Y-71336069D02*
X177058035Y-71383688D01*
X177058035Y-71383688D02*
X177153273Y-71478926D01*
X177153273Y-71478926D02*
X177200892Y-71669402D01*
X177200892Y-71669402D02*
X177200892Y-72002735D01*
X177200892Y-72002735D02*
X177153273Y-72193211D01*
X177153273Y-72193211D02*
X177058035Y-72288450D01*
X177058035Y-72288450D02*
X176962797Y-72336069D01*
X176962797Y-72336069D02*
X176772321Y-72336069D01*
X177581845Y-71431307D02*
X177629464Y-71383688D01*
X177629464Y-71383688D02*
X177724702Y-71336069D01*
X177724702Y-71336069D02*
X177962797Y-71336069D01*
X177962797Y-71336069D02*
X178058035Y-71383688D01*
X178058035Y-71383688D02*
X178105654Y-71431307D01*
X178105654Y-71431307D02*
X178153273Y-71526545D01*
X178153273Y-71526545D02*
X178153273Y-71621783D01*
X178153273Y-71621783D02*
X178105654Y-71764640D01*
X178105654Y-71764640D02*
X177534226Y-72336069D01*
X177534226Y-72336069D02*
X178153273Y-72336069D01*
X121433333Y-72459580D02*
X121385714Y-72507200D01*
X121385714Y-72507200D02*
X121242857Y-72554819D01*
X121242857Y-72554819D02*
X121147619Y-72554819D01*
X121147619Y-72554819D02*
X121004762Y-72507200D01*
X121004762Y-72507200D02*
X120909524Y-72411961D01*
X120909524Y-72411961D02*
X120861905Y-72316723D01*
X120861905Y-72316723D02*
X120814286Y-72126247D01*
X120814286Y-72126247D02*
X120814286Y-71983390D01*
X120814286Y-71983390D02*
X120861905Y-71792914D01*
X120861905Y-71792914D02*
X120909524Y-71697676D01*
X120909524Y-71697676D02*
X121004762Y-71602438D01*
X121004762Y-71602438D02*
X121147619Y-71554819D01*
X121147619Y-71554819D02*
X121242857Y-71554819D01*
X121242857Y-71554819D02*
X121385714Y-71602438D01*
X121385714Y-71602438D02*
X121433333Y-71650057D01*
X121909524Y-72554819D02*
X122100000Y-72554819D01*
X122100000Y-72554819D02*
X122195238Y-72507200D01*
X122195238Y-72507200D02*
X122242857Y-72459580D01*
X122242857Y-72459580D02*
X122338095Y-72316723D01*
X122338095Y-72316723D02*
X122385714Y-72126247D01*
X122385714Y-72126247D02*
X122385714Y-71745295D01*
X122385714Y-71745295D02*
X122338095Y-71650057D01*
X122338095Y-71650057D02*
X122290476Y-71602438D01*
X122290476Y-71602438D02*
X122195238Y-71554819D01*
X122195238Y-71554819D02*
X122004762Y-71554819D01*
X122004762Y-71554819D02*
X121909524Y-71602438D01*
X121909524Y-71602438D02*
X121861905Y-71650057D01*
X121861905Y-71650057D02*
X121814286Y-71745295D01*
X121814286Y-71745295D02*
X121814286Y-71983390D01*
X121814286Y-71983390D02*
X121861905Y-72078628D01*
X121861905Y-72078628D02*
X121909524Y-72126247D01*
X121909524Y-72126247D02*
X122004762Y-72173866D01*
X122004762Y-72173866D02*
X122195238Y-72173866D01*
X122195238Y-72173866D02*
X122290476Y-72126247D01*
X122290476Y-72126247D02*
X122338095Y-72078628D01*
X122338095Y-72078628D02*
X122385714Y-71983390D01*
X112179819Y-105261904D02*
X112179819Y-104690476D01*
X113179819Y-104976190D02*
X112179819Y-104976190D01*
X113179819Y-104357142D02*
X112179819Y-104357142D01*
X112179819Y-104357142D02*
X112179819Y-103976190D01*
X112179819Y-103976190D02*
X112227438Y-103880952D01*
X112227438Y-103880952D02*
X112275057Y-103833333D01*
X112275057Y-103833333D02*
X112370295Y-103785714D01*
X112370295Y-103785714D02*
X112513152Y-103785714D01*
X112513152Y-103785714D02*
X112608390Y-103833333D01*
X112608390Y-103833333D02*
X112656009Y-103880952D01*
X112656009Y-103880952D02*
X112703628Y-103976190D01*
X112703628Y-103976190D02*
X112703628Y-104357142D01*
X113179819Y-102833333D02*
X113179819Y-103404761D01*
X113179819Y-103119047D02*
X112179819Y-103119047D01*
X112179819Y-103119047D02*
X112322676Y-103214285D01*
X112322676Y-103214285D02*
X112417914Y-103309523D01*
X112417914Y-103309523D02*
X112465533Y-103404761D01*
X114284523Y-103504819D02*
X113808333Y-103504819D01*
X113808333Y-103504819D02*
X113760714Y-103981009D01*
X113760714Y-103981009D02*
X113808333Y-103933390D01*
X113808333Y-103933390D02*
X113903571Y-103885771D01*
X113903571Y-103885771D02*
X114141666Y-103885771D01*
X114141666Y-103885771D02*
X114236904Y-103933390D01*
X114236904Y-103933390D02*
X114284523Y-103981009D01*
X114284523Y-103981009D02*
X114332142Y-104076247D01*
X114332142Y-104076247D02*
X114332142Y-104314342D01*
X114332142Y-104314342D02*
X114284523Y-104409580D01*
X114284523Y-104409580D02*
X114236904Y-104457200D01*
X114236904Y-104457200D02*
X114141666Y-104504819D01*
X114141666Y-104504819D02*
X113903571Y-104504819D01*
X113903571Y-104504819D02*
X113808333Y-104457200D01*
X113808333Y-104457200D02*
X113760714Y-104409580D01*
X114617857Y-103504819D02*
X114951190Y-104504819D01*
X114951190Y-104504819D02*
X115284523Y-103504819D01*
X144260237Y-142629819D02*
X144260237Y-141629819D01*
X144260237Y-141629819D02*
X144498332Y-141629819D01*
X144498332Y-141629819D02*
X144641189Y-141677438D01*
X144641189Y-141677438D02*
X144736427Y-141772676D01*
X144736427Y-141772676D02*
X144784046Y-141867914D01*
X144784046Y-141867914D02*
X144831665Y-142058390D01*
X144831665Y-142058390D02*
X144831665Y-142201247D01*
X144831665Y-142201247D02*
X144784046Y-142391723D01*
X144784046Y-142391723D02*
X144736427Y-142486961D01*
X144736427Y-142486961D02*
X144641189Y-142582200D01*
X144641189Y-142582200D02*
X144498332Y-142629819D01*
X144498332Y-142629819D02*
X144260237Y-142629819D01*
X145784046Y-142629819D02*
X145212618Y-142629819D01*
X145498332Y-142629819D02*
X145498332Y-141629819D01*
X145498332Y-141629819D02*
X145403094Y-141772676D01*
X145403094Y-141772676D02*
X145307856Y-141867914D01*
X145307856Y-141867914D02*
X145212618Y-141915533D01*
X109841666Y-87574819D02*
X109841666Y-88289104D01*
X109841666Y-88289104D02*
X109794047Y-88431961D01*
X109794047Y-88431961D02*
X109698809Y-88527200D01*
X109698809Y-88527200D02*
X109555952Y-88574819D01*
X109555952Y-88574819D02*
X109460714Y-88574819D01*
X110222619Y-87574819D02*
X110841666Y-87574819D01*
X110841666Y-87574819D02*
X110508333Y-87955771D01*
X110508333Y-87955771D02*
X110651190Y-87955771D01*
X110651190Y-87955771D02*
X110746428Y-88003390D01*
X110746428Y-88003390D02*
X110794047Y-88051009D01*
X110794047Y-88051009D02*
X110841666Y-88146247D01*
X110841666Y-88146247D02*
X110841666Y-88384342D01*
X110841666Y-88384342D02*
X110794047Y-88479580D01*
X110794047Y-88479580D02*
X110746428Y-88527200D01*
X110746428Y-88527200D02*
X110651190Y-88574819D01*
X110651190Y-88574819D02*
X110365476Y-88574819D01*
X110365476Y-88574819D02*
X110270238Y-88527200D01*
X110270238Y-88527200D02*
X110222619Y-88479580D01*
X159023642Y-134611819D02*
X158690309Y-134135628D01*
X158452214Y-134611819D02*
X158452214Y-133611819D01*
X158452214Y-133611819D02*
X158833166Y-133611819D01*
X158833166Y-133611819D02*
X158928404Y-133659438D01*
X158928404Y-133659438D02*
X158976023Y-133707057D01*
X158976023Y-133707057D02*
X159023642Y-133802295D01*
X159023642Y-133802295D02*
X159023642Y-133945152D01*
X159023642Y-133945152D02*
X158976023Y-134040390D01*
X158976023Y-134040390D02*
X158928404Y-134088009D01*
X158928404Y-134088009D02*
X158833166Y-134135628D01*
X158833166Y-134135628D02*
X158452214Y-134135628D01*
X159404595Y-133707057D02*
X159452214Y-133659438D01*
X159452214Y-133659438D02*
X159547452Y-133611819D01*
X159547452Y-133611819D02*
X159785547Y-133611819D01*
X159785547Y-133611819D02*
X159880785Y-133659438D01*
X159880785Y-133659438D02*
X159928404Y-133707057D01*
X159928404Y-133707057D02*
X159976023Y-133802295D01*
X159976023Y-133802295D02*
X159976023Y-133897533D01*
X159976023Y-133897533D02*
X159928404Y-134040390D01*
X159928404Y-134040390D02*
X159356976Y-134611819D01*
X159356976Y-134611819D02*
X159976023Y-134611819D01*
X160928404Y-134611819D02*
X160356976Y-134611819D01*
X160642690Y-134611819D02*
X160642690Y-133611819D01*
X160642690Y-133611819D02*
X160547452Y-133754676D01*
X160547452Y-133754676D02*
X160452214Y-133849914D01*
X160452214Y-133849914D02*
X160356976Y-133897533D01*
X168833333Y-100029580D02*
X168785714Y-100077200D01*
X168785714Y-100077200D02*
X168642857Y-100124819D01*
X168642857Y-100124819D02*
X168547619Y-100124819D01*
X168547619Y-100124819D02*
X168404762Y-100077200D01*
X168404762Y-100077200D02*
X168309524Y-99981961D01*
X168309524Y-99981961D02*
X168261905Y-99886723D01*
X168261905Y-99886723D02*
X168214286Y-99696247D01*
X168214286Y-99696247D02*
X168214286Y-99553390D01*
X168214286Y-99553390D02*
X168261905Y-99362914D01*
X168261905Y-99362914D02*
X168309524Y-99267676D01*
X168309524Y-99267676D02*
X168404762Y-99172438D01*
X168404762Y-99172438D02*
X168547619Y-99124819D01*
X168547619Y-99124819D02*
X168642857Y-99124819D01*
X168642857Y-99124819D02*
X168785714Y-99172438D01*
X168785714Y-99172438D02*
X168833333Y-99220057D01*
X169214286Y-99220057D02*
X169261905Y-99172438D01*
X169261905Y-99172438D02*
X169357143Y-99124819D01*
X169357143Y-99124819D02*
X169595238Y-99124819D01*
X169595238Y-99124819D02*
X169690476Y-99172438D01*
X169690476Y-99172438D02*
X169738095Y-99220057D01*
X169738095Y-99220057D02*
X169785714Y-99315295D01*
X169785714Y-99315295D02*
X169785714Y-99410533D01*
X169785714Y-99410533D02*
X169738095Y-99553390D01*
X169738095Y-99553390D02*
X169166667Y-100124819D01*
X169166667Y-100124819D02*
X169785714Y-100124819D01*
X200535333Y-109096819D02*
X200202000Y-108620628D01*
X199963905Y-109096819D02*
X199963905Y-108096819D01*
X199963905Y-108096819D02*
X200344857Y-108096819D01*
X200344857Y-108096819D02*
X200440095Y-108144438D01*
X200440095Y-108144438D02*
X200487714Y-108192057D01*
X200487714Y-108192057D02*
X200535333Y-108287295D01*
X200535333Y-108287295D02*
X200535333Y-108430152D01*
X200535333Y-108430152D02*
X200487714Y-108525390D01*
X200487714Y-108525390D02*
X200440095Y-108573009D01*
X200440095Y-108573009D02*
X200344857Y-108620628D01*
X200344857Y-108620628D02*
X199963905Y-108620628D01*
X201106762Y-108525390D02*
X201011524Y-108477771D01*
X201011524Y-108477771D02*
X200963905Y-108430152D01*
X200963905Y-108430152D02*
X200916286Y-108334914D01*
X200916286Y-108334914D02*
X200916286Y-108287295D01*
X200916286Y-108287295D02*
X200963905Y-108192057D01*
X200963905Y-108192057D02*
X201011524Y-108144438D01*
X201011524Y-108144438D02*
X201106762Y-108096819D01*
X201106762Y-108096819D02*
X201297238Y-108096819D01*
X201297238Y-108096819D02*
X201392476Y-108144438D01*
X201392476Y-108144438D02*
X201440095Y-108192057D01*
X201440095Y-108192057D02*
X201487714Y-108287295D01*
X201487714Y-108287295D02*
X201487714Y-108334914D01*
X201487714Y-108334914D02*
X201440095Y-108430152D01*
X201440095Y-108430152D02*
X201392476Y-108477771D01*
X201392476Y-108477771D02*
X201297238Y-108525390D01*
X201297238Y-108525390D02*
X201106762Y-108525390D01*
X201106762Y-108525390D02*
X201011524Y-108573009D01*
X201011524Y-108573009D02*
X200963905Y-108620628D01*
X200963905Y-108620628D02*
X200916286Y-108715866D01*
X200916286Y-108715866D02*
X200916286Y-108906342D01*
X200916286Y-108906342D02*
X200963905Y-109001580D01*
X200963905Y-109001580D02*
X201011524Y-109049200D01*
X201011524Y-109049200D02*
X201106762Y-109096819D01*
X201106762Y-109096819D02*
X201297238Y-109096819D01*
X201297238Y-109096819D02*
X201392476Y-109049200D01*
X201392476Y-109049200D02*
X201440095Y-109001580D01*
X201440095Y-109001580D02*
X201487714Y-108906342D01*
X201487714Y-108906342D02*
X201487714Y-108715866D01*
X201487714Y-108715866D02*
X201440095Y-108620628D01*
X201440095Y-108620628D02*
X201392476Y-108573009D01*
X201392476Y-108573009D02*
X201297238Y-108525390D01*
X117086905Y-133279819D02*
X117086905Y-132279819D01*
X117086905Y-132279819D02*
X117325000Y-132279819D01*
X117325000Y-132279819D02*
X117467857Y-132327438D01*
X117467857Y-132327438D02*
X117563095Y-132422676D01*
X117563095Y-132422676D02*
X117610714Y-132517914D01*
X117610714Y-132517914D02*
X117658333Y-132708390D01*
X117658333Y-132708390D02*
X117658333Y-132851247D01*
X117658333Y-132851247D02*
X117610714Y-133041723D01*
X117610714Y-133041723D02*
X117563095Y-133136961D01*
X117563095Y-133136961D02*
X117467857Y-133232200D01*
X117467857Y-133232200D02*
X117325000Y-133279819D01*
X117325000Y-133279819D02*
X117086905Y-133279819D01*
X118515476Y-132613152D02*
X118515476Y-133279819D01*
X118277381Y-132232200D02*
X118039286Y-132946485D01*
X118039286Y-132946485D02*
X118658333Y-132946485D01*
X114404819Y-131614285D02*
X114404819Y-132185713D01*
X114404819Y-131899999D02*
X113404819Y-131899999D01*
X113404819Y-131899999D02*
X113547676Y-131995237D01*
X113547676Y-131995237D02*
X113642914Y-132090475D01*
X113642914Y-132090475D02*
X113690533Y-132185713D01*
X202150892Y-75286069D02*
X201817559Y-74809878D01*
X201579464Y-75286069D02*
X201579464Y-74286069D01*
X201579464Y-74286069D02*
X201960416Y-74286069D01*
X201960416Y-74286069D02*
X202055654Y-74333688D01*
X202055654Y-74333688D02*
X202103273Y-74381307D01*
X202103273Y-74381307D02*
X202150892Y-74476545D01*
X202150892Y-74476545D02*
X202150892Y-74619402D01*
X202150892Y-74619402D02*
X202103273Y-74714640D01*
X202103273Y-74714640D02*
X202055654Y-74762259D01*
X202055654Y-74762259D02*
X201960416Y-74809878D01*
X201960416Y-74809878D02*
X201579464Y-74809878D01*
X203103273Y-75286069D02*
X202531845Y-75286069D01*
X202817559Y-75286069D02*
X202817559Y-74286069D01*
X202817559Y-74286069D02*
X202722321Y-74428926D01*
X202722321Y-74428926D02*
X202627083Y-74524164D01*
X202627083Y-74524164D02*
X202531845Y-74571783D01*
X204055654Y-75286069D02*
X203484226Y-75286069D01*
X203769940Y-75286069D02*
X203769940Y-74286069D01*
X203769940Y-74286069D02*
X203674702Y-74428926D01*
X203674702Y-74428926D02*
X203579464Y-74524164D01*
X203579464Y-74524164D02*
X203484226Y-74571783D01*
X202260333Y-97348819D02*
X201927000Y-96872628D01*
X201688905Y-97348819D02*
X201688905Y-96348819D01*
X201688905Y-96348819D02*
X202069857Y-96348819D01*
X202069857Y-96348819D02*
X202165095Y-96396438D01*
X202165095Y-96396438D02*
X202212714Y-96444057D01*
X202212714Y-96444057D02*
X202260333Y-96539295D01*
X202260333Y-96539295D02*
X202260333Y-96682152D01*
X202260333Y-96682152D02*
X202212714Y-96777390D01*
X202212714Y-96777390D02*
X202165095Y-96825009D01*
X202165095Y-96825009D02*
X202069857Y-96872628D01*
X202069857Y-96872628D02*
X201688905Y-96872628D01*
X202736524Y-97348819D02*
X202927000Y-97348819D01*
X202927000Y-97348819D02*
X203022238Y-97301200D01*
X203022238Y-97301200D02*
X203069857Y-97253580D01*
X203069857Y-97253580D02*
X203165095Y-97110723D01*
X203165095Y-97110723D02*
X203212714Y-96920247D01*
X203212714Y-96920247D02*
X203212714Y-96539295D01*
X203212714Y-96539295D02*
X203165095Y-96444057D01*
X203165095Y-96444057D02*
X203117476Y-96396438D01*
X203117476Y-96396438D02*
X203022238Y-96348819D01*
X203022238Y-96348819D02*
X202831762Y-96348819D01*
X202831762Y-96348819D02*
X202736524Y-96396438D01*
X202736524Y-96396438D02*
X202688905Y-96444057D01*
X202688905Y-96444057D02*
X202641286Y-96539295D01*
X202641286Y-96539295D02*
X202641286Y-96777390D01*
X202641286Y-96777390D02*
X202688905Y-96872628D01*
X202688905Y-96872628D02*
X202736524Y-96920247D01*
X202736524Y-96920247D02*
X202831762Y-96967866D01*
X202831762Y-96967866D02*
X203022238Y-96967866D01*
X203022238Y-96967866D02*
X203117476Y-96920247D01*
X203117476Y-96920247D02*
X203165095Y-96872628D01*
X203165095Y-96872628D02*
X203212714Y-96777390D01*
D13*
X172340571Y-130320869D02*
X172340571Y-129177869D01*
X172340571Y-129177869D02*
X172612714Y-129177869D01*
X172612714Y-129177869D02*
X172776000Y-129232298D01*
X172776000Y-129232298D02*
X172884857Y-129341155D01*
X172884857Y-129341155D02*
X172939286Y-129450012D01*
X172939286Y-129450012D02*
X172993714Y-129667726D01*
X172993714Y-129667726D02*
X172993714Y-129831012D01*
X172993714Y-129831012D02*
X172939286Y-130048726D01*
X172939286Y-130048726D02*
X172884857Y-130157583D01*
X172884857Y-130157583D02*
X172776000Y-130266441D01*
X172776000Y-130266441D02*
X172612714Y-130320869D01*
X172612714Y-130320869D02*
X172340571Y-130320869D01*
X173646857Y-129667726D02*
X173538000Y-129613298D01*
X173538000Y-129613298D02*
X173483571Y-129558869D01*
X173483571Y-129558869D02*
X173429143Y-129450012D01*
X173429143Y-129450012D02*
X173429143Y-129395583D01*
X173429143Y-129395583D02*
X173483571Y-129286726D01*
X173483571Y-129286726D02*
X173538000Y-129232298D01*
X173538000Y-129232298D02*
X173646857Y-129177869D01*
X173646857Y-129177869D02*
X173864571Y-129177869D01*
X173864571Y-129177869D02*
X173973429Y-129232298D01*
X173973429Y-129232298D02*
X174027857Y-129286726D01*
X174027857Y-129286726D02*
X174082286Y-129395583D01*
X174082286Y-129395583D02*
X174082286Y-129450012D01*
X174082286Y-129450012D02*
X174027857Y-129558869D01*
X174027857Y-129558869D02*
X173973429Y-129613298D01*
X173973429Y-129613298D02*
X173864571Y-129667726D01*
X173864571Y-129667726D02*
X173646857Y-129667726D01*
X173646857Y-129667726D02*
X173538000Y-129722155D01*
X173538000Y-129722155D02*
X173483571Y-129776583D01*
X173483571Y-129776583D02*
X173429143Y-129885441D01*
X173429143Y-129885441D02*
X173429143Y-130103155D01*
X173429143Y-130103155D02*
X173483571Y-130212012D01*
X173483571Y-130212012D02*
X173538000Y-130266441D01*
X173538000Y-130266441D02*
X173646857Y-130320869D01*
X173646857Y-130320869D02*
X173864571Y-130320869D01*
X173864571Y-130320869D02*
X173973429Y-130266441D01*
X173973429Y-130266441D02*
X174027857Y-130212012D01*
X174027857Y-130212012D02*
X174082286Y-130103155D01*
X174082286Y-130103155D02*
X174082286Y-129885441D01*
X174082286Y-129885441D02*
X174027857Y-129776583D01*
X174027857Y-129776583D02*
X173973429Y-129722155D01*
X173973429Y-129722155D02*
X173864571Y-129667726D01*
D10*
X158132595Y-129449819D02*
X158132595Y-130259342D01*
X158132595Y-130259342D02*
X158180214Y-130354580D01*
X158180214Y-130354580D02*
X158227833Y-130402200D01*
X158227833Y-130402200D02*
X158323071Y-130449819D01*
X158323071Y-130449819D02*
X158513547Y-130449819D01*
X158513547Y-130449819D02*
X158608785Y-130402200D01*
X158608785Y-130402200D02*
X158656404Y-130354580D01*
X158656404Y-130354580D02*
X158704023Y-130259342D01*
X158704023Y-130259342D02*
X158704023Y-129449819D01*
X159656404Y-129449819D02*
X159180214Y-129449819D01*
X159180214Y-129449819D02*
X159132595Y-129926009D01*
X159132595Y-129926009D02*
X159180214Y-129878390D01*
X159180214Y-129878390D02*
X159275452Y-129830771D01*
X159275452Y-129830771D02*
X159513547Y-129830771D01*
X159513547Y-129830771D02*
X159608785Y-129878390D01*
X159608785Y-129878390D02*
X159656404Y-129926009D01*
X159656404Y-129926009D02*
X159704023Y-130021247D01*
X159704023Y-130021247D02*
X159704023Y-130259342D01*
X159704023Y-130259342D02*
X159656404Y-130354580D01*
X159656404Y-130354580D02*
X159608785Y-130402200D01*
X159608785Y-130402200D02*
X159513547Y-130449819D01*
X159513547Y-130449819D02*
X159275452Y-130449819D01*
X159275452Y-130449819D02*
X159180214Y-130402200D01*
X159180214Y-130402200D02*
X159132595Y-130354580D01*
X187554819Y-120938094D02*
X186554819Y-120938094D01*
X187554819Y-120366666D02*
X186983390Y-120795237D01*
X186554819Y-120366666D02*
X187126247Y-120938094D01*
X187554819Y-119414285D02*
X187554819Y-119985713D01*
X187554819Y-119699999D02*
X186554819Y-119699999D01*
X186554819Y-119699999D02*
X186697676Y-119795237D01*
X186697676Y-119795237D02*
X186792914Y-119890475D01*
X186792914Y-119890475D02*
X186840533Y-119985713D01*
X122157142Y-125054819D02*
X121823809Y-124578628D01*
X121585714Y-125054819D02*
X121585714Y-124054819D01*
X121585714Y-124054819D02*
X121966666Y-124054819D01*
X121966666Y-124054819D02*
X122061904Y-124102438D01*
X122061904Y-124102438D02*
X122109523Y-124150057D01*
X122109523Y-124150057D02*
X122157142Y-124245295D01*
X122157142Y-124245295D02*
X122157142Y-124388152D01*
X122157142Y-124388152D02*
X122109523Y-124483390D01*
X122109523Y-124483390D02*
X122061904Y-124531009D01*
X122061904Y-124531009D02*
X121966666Y-124578628D01*
X121966666Y-124578628D02*
X121585714Y-124578628D01*
X122538095Y-124150057D02*
X122585714Y-124102438D01*
X122585714Y-124102438D02*
X122680952Y-124054819D01*
X122680952Y-124054819D02*
X122919047Y-124054819D01*
X122919047Y-124054819D02*
X123014285Y-124102438D01*
X123014285Y-124102438D02*
X123061904Y-124150057D01*
X123061904Y-124150057D02*
X123109523Y-124245295D01*
X123109523Y-124245295D02*
X123109523Y-124340533D01*
X123109523Y-124340533D02*
X123061904Y-124483390D01*
X123061904Y-124483390D02*
X122490476Y-125054819D01*
X122490476Y-125054819D02*
X123109523Y-125054819D01*
X123680952Y-124483390D02*
X123585714Y-124435771D01*
X123585714Y-124435771D02*
X123538095Y-124388152D01*
X123538095Y-124388152D02*
X123490476Y-124292914D01*
X123490476Y-124292914D02*
X123490476Y-124245295D01*
X123490476Y-124245295D02*
X123538095Y-124150057D01*
X123538095Y-124150057D02*
X123585714Y-124102438D01*
X123585714Y-124102438D02*
X123680952Y-124054819D01*
X123680952Y-124054819D02*
X123871428Y-124054819D01*
X123871428Y-124054819D02*
X123966666Y-124102438D01*
X123966666Y-124102438D02*
X124014285Y-124150057D01*
X124014285Y-124150057D02*
X124061904Y-124245295D01*
X124061904Y-124245295D02*
X124061904Y-124292914D01*
X124061904Y-124292914D02*
X124014285Y-124388152D01*
X124014285Y-124388152D02*
X123966666Y-124435771D01*
X123966666Y-124435771D02*
X123871428Y-124483390D01*
X123871428Y-124483390D02*
X123680952Y-124483390D01*
X123680952Y-124483390D02*
X123585714Y-124531009D01*
X123585714Y-124531009D02*
X123538095Y-124578628D01*
X123538095Y-124578628D02*
X123490476Y-124673866D01*
X123490476Y-124673866D02*
X123490476Y-124864342D01*
X123490476Y-124864342D02*
X123538095Y-124959580D01*
X123538095Y-124959580D02*
X123585714Y-125007200D01*
X123585714Y-125007200D02*
X123680952Y-125054819D01*
X123680952Y-125054819D02*
X123871428Y-125054819D01*
X123871428Y-125054819D02*
X123966666Y-125007200D01*
X123966666Y-125007200D02*
X124014285Y-124959580D01*
X124014285Y-124959580D02*
X124061904Y-124864342D01*
X124061904Y-124864342D02*
X124061904Y-124673866D01*
X124061904Y-124673866D02*
X124014285Y-124578628D01*
X124014285Y-124578628D02*
X123966666Y-124531009D01*
X123966666Y-124531009D02*
X123871428Y-124483390D01*
X127283333Y-80134819D02*
X126950000Y-79658628D01*
X126711905Y-80134819D02*
X126711905Y-79134819D01*
X126711905Y-79134819D02*
X127092857Y-79134819D01*
X127092857Y-79134819D02*
X127188095Y-79182438D01*
X127188095Y-79182438D02*
X127235714Y-79230057D01*
X127235714Y-79230057D02*
X127283333Y-79325295D01*
X127283333Y-79325295D02*
X127283333Y-79468152D01*
X127283333Y-79468152D02*
X127235714Y-79563390D01*
X127235714Y-79563390D02*
X127188095Y-79611009D01*
X127188095Y-79611009D02*
X127092857Y-79658628D01*
X127092857Y-79658628D02*
X126711905Y-79658628D01*
X127664286Y-79230057D02*
X127711905Y-79182438D01*
X127711905Y-79182438D02*
X127807143Y-79134819D01*
X127807143Y-79134819D02*
X128045238Y-79134819D01*
X128045238Y-79134819D02*
X128140476Y-79182438D01*
X128140476Y-79182438D02*
X128188095Y-79230057D01*
X128188095Y-79230057D02*
X128235714Y-79325295D01*
X128235714Y-79325295D02*
X128235714Y-79420533D01*
X128235714Y-79420533D02*
X128188095Y-79563390D01*
X128188095Y-79563390D02*
X127616667Y-80134819D01*
X127616667Y-80134819D02*
X128235714Y-80134819D01*
X112504819Y-139188094D02*
X111504819Y-139188094D01*
X111504819Y-139188094D02*
X111504819Y-138949999D01*
X111504819Y-138949999D02*
X111552438Y-138807142D01*
X111552438Y-138807142D02*
X111647676Y-138711904D01*
X111647676Y-138711904D02*
X111742914Y-138664285D01*
X111742914Y-138664285D02*
X111933390Y-138616666D01*
X111933390Y-138616666D02*
X112076247Y-138616666D01*
X112076247Y-138616666D02*
X112266723Y-138664285D01*
X112266723Y-138664285D02*
X112361961Y-138711904D01*
X112361961Y-138711904D02*
X112457200Y-138807142D01*
X112457200Y-138807142D02*
X112504819Y-138949999D01*
X112504819Y-138949999D02*
X112504819Y-139188094D01*
X112504819Y-138140475D02*
X112504819Y-137949999D01*
X112504819Y-137949999D02*
X112457200Y-137854761D01*
X112457200Y-137854761D02*
X112409580Y-137807142D01*
X112409580Y-137807142D02*
X112266723Y-137711904D01*
X112266723Y-137711904D02*
X112076247Y-137664285D01*
X112076247Y-137664285D02*
X111695295Y-137664285D01*
X111695295Y-137664285D02*
X111600057Y-137711904D01*
X111600057Y-137711904D02*
X111552438Y-137759523D01*
X111552438Y-137759523D02*
X111504819Y-137854761D01*
X111504819Y-137854761D02*
X111504819Y-138045237D01*
X111504819Y-138045237D02*
X111552438Y-138140475D01*
X111552438Y-138140475D02*
X111600057Y-138188094D01*
X111600057Y-138188094D02*
X111695295Y-138235713D01*
X111695295Y-138235713D02*
X111933390Y-138235713D01*
X111933390Y-138235713D02*
X112028628Y-138188094D01*
X112028628Y-138188094D02*
X112076247Y-138140475D01*
X112076247Y-138140475D02*
X112123866Y-138045237D01*
X112123866Y-138045237D02*
X112123866Y-137854761D01*
X112123866Y-137854761D02*
X112076247Y-137759523D01*
X112076247Y-137759523D02*
X112028628Y-137711904D01*
X112028628Y-137711904D02*
X111933390Y-137664285D01*
X114404819Y-142314285D02*
X114404819Y-142885713D01*
X114404819Y-142599999D02*
X113404819Y-142599999D01*
X113404819Y-142599999D02*
X113547676Y-142695237D01*
X113547676Y-142695237D02*
X113642914Y-142790475D01*
X113642914Y-142790475D02*
X113690533Y-142885713D01*
X139266666Y-125154819D02*
X139266666Y-125869104D01*
X139266666Y-125869104D02*
X139219047Y-126011961D01*
X139219047Y-126011961D02*
X139123809Y-126107200D01*
X139123809Y-126107200D02*
X138980952Y-126154819D01*
X138980952Y-126154819D02*
X138885714Y-126154819D01*
X140171428Y-125488152D02*
X140171428Y-126154819D01*
X139933333Y-125107200D02*
X139695238Y-125821485D01*
X139695238Y-125821485D02*
X140314285Y-125821485D01*
X144958333Y-133329819D02*
X144625000Y-132853628D01*
X144386905Y-133329819D02*
X144386905Y-132329819D01*
X144386905Y-132329819D02*
X144767857Y-132329819D01*
X144767857Y-132329819D02*
X144863095Y-132377438D01*
X144863095Y-132377438D02*
X144910714Y-132425057D01*
X144910714Y-132425057D02*
X144958333Y-132520295D01*
X144958333Y-132520295D02*
X144958333Y-132663152D01*
X144958333Y-132663152D02*
X144910714Y-132758390D01*
X144910714Y-132758390D02*
X144863095Y-132806009D01*
X144863095Y-132806009D02*
X144767857Y-132853628D01*
X144767857Y-132853628D02*
X144386905Y-132853628D01*
X145815476Y-132663152D02*
X145815476Y-133329819D01*
X145577381Y-132282200D02*
X145339286Y-132996485D01*
X145339286Y-132996485D02*
X145958333Y-132996485D01*
X193994905Y-109216819D02*
X193994905Y-108216819D01*
X193994905Y-108216819D02*
X194233000Y-108216819D01*
X194233000Y-108216819D02*
X194375857Y-108264438D01*
X194375857Y-108264438D02*
X194471095Y-108359676D01*
X194471095Y-108359676D02*
X194518714Y-108454914D01*
X194518714Y-108454914D02*
X194566333Y-108645390D01*
X194566333Y-108645390D02*
X194566333Y-108788247D01*
X194566333Y-108788247D02*
X194518714Y-108978723D01*
X194518714Y-108978723D02*
X194471095Y-109073961D01*
X194471095Y-109073961D02*
X194375857Y-109169200D01*
X194375857Y-109169200D02*
X194233000Y-109216819D01*
X194233000Y-109216819D02*
X193994905Y-109216819D01*
X194899667Y-108216819D02*
X195566333Y-108216819D01*
X195566333Y-108216819D02*
X195137762Y-109216819D01*
X191448511Y-74131307D02*
X191353273Y-74083688D01*
X191353273Y-74083688D02*
X191258035Y-73988450D01*
X191258035Y-73988450D02*
X191115178Y-73845592D01*
X191115178Y-73845592D02*
X191019940Y-73797973D01*
X191019940Y-73797973D02*
X190924702Y-73797973D01*
X190972321Y-74036069D02*
X190877083Y-73988450D01*
X190877083Y-73988450D02*
X190781845Y-73893211D01*
X190781845Y-73893211D02*
X190734226Y-73702735D01*
X190734226Y-73702735D02*
X190734226Y-73369402D01*
X190734226Y-73369402D02*
X190781845Y-73178926D01*
X190781845Y-73178926D02*
X190877083Y-73083688D01*
X190877083Y-73083688D02*
X190972321Y-73036069D01*
X190972321Y-73036069D02*
X191162797Y-73036069D01*
X191162797Y-73036069D02*
X191258035Y-73083688D01*
X191258035Y-73083688D02*
X191353273Y-73178926D01*
X191353273Y-73178926D02*
X191400892Y-73369402D01*
X191400892Y-73369402D02*
X191400892Y-73702735D01*
X191400892Y-73702735D02*
X191353273Y-73893211D01*
X191353273Y-73893211D02*
X191258035Y-73988450D01*
X191258035Y-73988450D02*
X191162797Y-74036069D01*
X191162797Y-74036069D02*
X190972321Y-74036069D01*
X191734226Y-73036069D02*
X192353273Y-73036069D01*
X192353273Y-73036069D02*
X192019940Y-73417021D01*
X192019940Y-73417021D02*
X192162797Y-73417021D01*
X192162797Y-73417021D02*
X192258035Y-73464640D01*
X192258035Y-73464640D02*
X192305654Y-73512259D01*
X192305654Y-73512259D02*
X192353273Y-73607497D01*
X192353273Y-73607497D02*
X192353273Y-73845592D01*
X192353273Y-73845592D02*
X192305654Y-73940830D01*
X192305654Y-73940830D02*
X192258035Y-73988450D01*
X192258035Y-73988450D02*
X192162797Y-74036069D01*
X192162797Y-74036069D02*
X191877083Y-74036069D01*
X191877083Y-74036069D02*
X191781845Y-73988450D01*
X191781845Y-73988450D02*
X191734226Y-73940830D01*
X119704761Y-125350057D02*
X119609523Y-125302438D01*
X119609523Y-125302438D02*
X119514285Y-125207200D01*
X119514285Y-125207200D02*
X119371428Y-125064342D01*
X119371428Y-125064342D02*
X119276190Y-125016723D01*
X119276190Y-125016723D02*
X119180952Y-125016723D01*
X119228571Y-125254819D02*
X119133333Y-125207200D01*
X119133333Y-125207200D02*
X119038095Y-125111961D01*
X119038095Y-125111961D02*
X118990476Y-124921485D01*
X118990476Y-124921485D02*
X118990476Y-124588152D01*
X118990476Y-124588152D02*
X119038095Y-124397676D01*
X119038095Y-124397676D02*
X119133333Y-124302438D01*
X119133333Y-124302438D02*
X119228571Y-124254819D01*
X119228571Y-124254819D02*
X119419047Y-124254819D01*
X119419047Y-124254819D02*
X119514285Y-124302438D01*
X119514285Y-124302438D02*
X119609523Y-124397676D01*
X119609523Y-124397676D02*
X119657142Y-124588152D01*
X119657142Y-124588152D02*
X119657142Y-124921485D01*
X119657142Y-124921485D02*
X119609523Y-125111961D01*
X119609523Y-125111961D02*
X119514285Y-125207200D01*
X119514285Y-125207200D02*
X119419047Y-125254819D01*
X119419047Y-125254819D02*
X119228571Y-125254819D01*
X120514285Y-124254819D02*
X120323809Y-124254819D01*
X120323809Y-124254819D02*
X120228571Y-124302438D01*
X120228571Y-124302438D02*
X120180952Y-124350057D01*
X120180952Y-124350057D02*
X120085714Y-124492914D01*
X120085714Y-124492914D02*
X120038095Y-124683390D01*
X120038095Y-124683390D02*
X120038095Y-125064342D01*
X120038095Y-125064342D02*
X120085714Y-125159580D01*
X120085714Y-125159580D02*
X120133333Y-125207200D01*
X120133333Y-125207200D02*
X120228571Y-125254819D01*
X120228571Y-125254819D02*
X120419047Y-125254819D01*
X120419047Y-125254819D02*
X120514285Y-125207200D01*
X120514285Y-125207200D02*
X120561904Y-125159580D01*
X120561904Y-125159580D02*
X120609523Y-125064342D01*
X120609523Y-125064342D02*
X120609523Y-124826247D01*
X120609523Y-124826247D02*
X120561904Y-124731009D01*
X120561904Y-124731009D02*
X120514285Y-124683390D01*
X120514285Y-124683390D02*
X120419047Y-124635771D01*
X120419047Y-124635771D02*
X120228571Y-124635771D01*
X120228571Y-124635771D02*
X120133333Y-124683390D01*
X120133333Y-124683390D02*
X120085714Y-124731009D01*
X120085714Y-124731009D02*
X120038095Y-124826247D01*
X162949642Y-134653819D02*
X162616309Y-134177628D01*
X162378214Y-134653819D02*
X162378214Y-133653819D01*
X162378214Y-133653819D02*
X162759166Y-133653819D01*
X162759166Y-133653819D02*
X162854404Y-133701438D01*
X162854404Y-133701438D02*
X162902023Y-133749057D01*
X162902023Y-133749057D02*
X162949642Y-133844295D01*
X162949642Y-133844295D02*
X162949642Y-133987152D01*
X162949642Y-133987152D02*
X162902023Y-134082390D01*
X162902023Y-134082390D02*
X162854404Y-134130009D01*
X162854404Y-134130009D02*
X162759166Y-134177628D01*
X162759166Y-134177628D02*
X162378214Y-134177628D01*
X163330595Y-133749057D02*
X163378214Y-133701438D01*
X163378214Y-133701438D02*
X163473452Y-133653819D01*
X163473452Y-133653819D02*
X163711547Y-133653819D01*
X163711547Y-133653819D02*
X163806785Y-133701438D01*
X163806785Y-133701438D02*
X163854404Y-133749057D01*
X163854404Y-133749057D02*
X163902023Y-133844295D01*
X163902023Y-133844295D02*
X163902023Y-133939533D01*
X163902023Y-133939533D02*
X163854404Y-134082390D01*
X163854404Y-134082390D02*
X163282976Y-134653819D01*
X163282976Y-134653819D02*
X163902023Y-134653819D01*
X164521071Y-133653819D02*
X164616309Y-133653819D01*
X164616309Y-133653819D02*
X164711547Y-133701438D01*
X164711547Y-133701438D02*
X164759166Y-133749057D01*
X164759166Y-133749057D02*
X164806785Y-133844295D01*
X164806785Y-133844295D02*
X164854404Y-134034771D01*
X164854404Y-134034771D02*
X164854404Y-134272866D01*
X164854404Y-134272866D02*
X164806785Y-134463342D01*
X164806785Y-134463342D02*
X164759166Y-134558580D01*
X164759166Y-134558580D02*
X164711547Y-134606200D01*
X164711547Y-134606200D02*
X164616309Y-134653819D01*
X164616309Y-134653819D02*
X164521071Y-134653819D01*
X164521071Y-134653819D02*
X164425833Y-134606200D01*
X164425833Y-134606200D02*
X164378214Y-134558580D01*
X164378214Y-134558580D02*
X164330595Y-134463342D01*
X164330595Y-134463342D02*
X164282976Y-134272866D01*
X164282976Y-134272866D02*
X164282976Y-134034771D01*
X164282976Y-134034771D02*
X164330595Y-133844295D01*
X164330595Y-133844295D02*
X164378214Y-133749057D01*
X164378214Y-133749057D02*
X164425833Y-133701438D01*
X164425833Y-133701438D02*
X164521071Y-133653819D01*
X129083333Y-72259580D02*
X129035714Y-72307200D01*
X129035714Y-72307200D02*
X128892857Y-72354819D01*
X128892857Y-72354819D02*
X128797619Y-72354819D01*
X128797619Y-72354819D02*
X128654762Y-72307200D01*
X128654762Y-72307200D02*
X128559524Y-72211961D01*
X128559524Y-72211961D02*
X128511905Y-72116723D01*
X128511905Y-72116723D02*
X128464286Y-71926247D01*
X128464286Y-71926247D02*
X128464286Y-71783390D01*
X128464286Y-71783390D02*
X128511905Y-71592914D01*
X128511905Y-71592914D02*
X128559524Y-71497676D01*
X128559524Y-71497676D02*
X128654762Y-71402438D01*
X128654762Y-71402438D02*
X128797619Y-71354819D01*
X128797619Y-71354819D02*
X128892857Y-71354819D01*
X128892857Y-71354819D02*
X129035714Y-71402438D01*
X129035714Y-71402438D02*
X129083333Y-71450057D01*
X129940476Y-71688152D02*
X129940476Y-72354819D01*
X129702381Y-71307200D02*
X129464286Y-72021485D01*
X129464286Y-72021485D02*
X130083333Y-72021485D01*
X152084976Y-137649819D02*
X152084976Y-138364104D01*
X152084976Y-138364104D02*
X152037357Y-138506961D01*
X152037357Y-138506961D02*
X151942119Y-138602200D01*
X151942119Y-138602200D02*
X151799262Y-138649819D01*
X151799262Y-138649819D02*
X151704024Y-138649819D01*
X153084976Y-138649819D02*
X152513548Y-138649819D01*
X152799262Y-138649819D02*
X152799262Y-137649819D01*
X152799262Y-137649819D02*
X152704024Y-137792676D01*
X152704024Y-137792676D02*
X152608786Y-137887914D01*
X152608786Y-137887914D02*
X152513548Y-137935533D01*
X153942119Y-137983152D02*
X153942119Y-138649819D01*
X153704024Y-137602200D02*
X153465929Y-138316485D01*
X153465929Y-138316485D02*
X154084976Y-138316485D01*
X167880214Y-130249819D02*
X167880214Y-129249819D01*
X167880214Y-129249819D02*
X168118309Y-129249819D01*
X168118309Y-129249819D02*
X168261166Y-129297438D01*
X168261166Y-129297438D02*
X168356404Y-129392676D01*
X168356404Y-129392676D02*
X168404023Y-129487914D01*
X168404023Y-129487914D02*
X168451642Y-129678390D01*
X168451642Y-129678390D02*
X168451642Y-129821247D01*
X168451642Y-129821247D02*
X168404023Y-130011723D01*
X168404023Y-130011723D02*
X168356404Y-130106961D01*
X168356404Y-130106961D02*
X168261166Y-130202200D01*
X168261166Y-130202200D02*
X168118309Y-130249819D01*
X168118309Y-130249819D02*
X167880214Y-130249819D01*
X169404023Y-130249819D02*
X168832595Y-130249819D01*
X169118309Y-130249819D02*
X169118309Y-129249819D01*
X169118309Y-129249819D02*
X169023071Y-129392676D01*
X169023071Y-129392676D02*
X168927833Y-129487914D01*
X168927833Y-129487914D02*
X168832595Y-129535533D01*
X170356404Y-130249819D02*
X169784976Y-130249819D01*
X170070690Y-130249819D02*
X170070690Y-129249819D01*
X170070690Y-129249819D02*
X169975452Y-129392676D01*
X169975452Y-129392676D02*
X169880214Y-129487914D01*
X169880214Y-129487914D02*
X169784976Y-129535533D01*
X133533333Y-74259580D02*
X133485714Y-74307200D01*
X133485714Y-74307200D02*
X133342857Y-74354819D01*
X133342857Y-74354819D02*
X133247619Y-74354819D01*
X133247619Y-74354819D02*
X133104762Y-74307200D01*
X133104762Y-74307200D02*
X133009524Y-74211961D01*
X133009524Y-74211961D02*
X132961905Y-74116723D01*
X132961905Y-74116723D02*
X132914286Y-73926247D01*
X132914286Y-73926247D02*
X132914286Y-73783390D01*
X132914286Y-73783390D02*
X132961905Y-73592914D01*
X132961905Y-73592914D02*
X133009524Y-73497676D01*
X133009524Y-73497676D02*
X133104762Y-73402438D01*
X133104762Y-73402438D02*
X133247619Y-73354819D01*
X133247619Y-73354819D02*
X133342857Y-73354819D01*
X133342857Y-73354819D02*
X133485714Y-73402438D01*
X133485714Y-73402438D02*
X133533333Y-73450057D01*
X133866667Y-73354819D02*
X134485714Y-73354819D01*
X134485714Y-73354819D02*
X134152381Y-73735771D01*
X134152381Y-73735771D02*
X134295238Y-73735771D01*
X134295238Y-73735771D02*
X134390476Y-73783390D01*
X134390476Y-73783390D02*
X134438095Y-73831009D01*
X134438095Y-73831009D02*
X134485714Y-73926247D01*
X134485714Y-73926247D02*
X134485714Y-74164342D01*
X134485714Y-74164342D02*
X134438095Y-74259580D01*
X134438095Y-74259580D02*
X134390476Y-74307200D01*
X134390476Y-74307200D02*
X134295238Y-74354819D01*
X134295238Y-74354819D02*
X134009524Y-74354819D01*
X134009524Y-74354819D02*
X133914286Y-74307200D01*
X133914286Y-74307200D02*
X133866667Y-74259580D01*
X112454819Y-102461904D02*
X112454819Y-101890476D01*
X113454819Y-102176190D02*
X112454819Y-102176190D01*
X113454819Y-101557142D02*
X112454819Y-101557142D01*
X112454819Y-101557142D02*
X112454819Y-101176190D01*
X112454819Y-101176190D02*
X112502438Y-101080952D01*
X112502438Y-101080952D02*
X112550057Y-101033333D01*
X112550057Y-101033333D02*
X112645295Y-100985714D01*
X112645295Y-100985714D02*
X112788152Y-100985714D01*
X112788152Y-100985714D02*
X112883390Y-101033333D01*
X112883390Y-101033333D02*
X112931009Y-101080952D01*
X112931009Y-101080952D02*
X112978628Y-101176190D01*
X112978628Y-101176190D02*
X112978628Y-101557142D01*
X112550057Y-100604761D02*
X112502438Y-100557142D01*
X112502438Y-100557142D02*
X112454819Y-100461904D01*
X112454819Y-100461904D02*
X112454819Y-100223809D01*
X112454819Y-100223809D02*
X112502438Y-100128571D01*
X112502438Y-100128571D02*
X112550057Y-100080952D01*
X112550057Y-100080952D02*
X112645295Y-100033333D01*
X112645295Y-100033333D02*
X112740533Y-100033333D01*
X112740533Y-100033333D02*
X112883390Y-100080952D01*
X112883390Y-100080952D02*
X113454819Y-100652380D01*
X113454819Y-100652380D02*
X113454819Y-100033333D01*
X113923810Y-101454819D02*
X114542857Y-101454819D01*
X114542857Y-101454819D02*
X114209524Y-101835771D01*
X114209524Y-101835771D02*
X114352381Y-101835771D01*
X114352381Y-101835771D02*
X114447619Y-101883390D01*
X114447619Y-101883390D02*
X114495238Y-101931009D01*
X114495238Y-101931009D02*
X114542857Y-102026247D01*
X114542857Y-102026247D02*
X114542857Y-102264342D01*
X114542857Y-102264342D02*
X114495238Y-102359580D01*
X114495238Y-102359580D02*
X114447619Y-102407200D01*
X114447619Y-102407200D02*
X114352381Y-102454819D01*
X114352381Y-102454819D02*
X114066667Y-102454819D01*
X114066667Y-102454819D02*
X113971429Y-102407200D01*
X113971429Y-102407200D02*
X113923810Y-102359580D01*
X114971429Y-102359580D02*
X115019048Y-102407200D01*
X115019048Y-102407200D02*
X114971429Y-102454819D01*
X114971429Y-102454819D02*
X114923810Y-102407200D01*
X114923810Y-102407200D02*
X114971429Y-102359580D01*
X114971429Y-102359580D02*
X114971429Y-102454819D01*
X115352381Y-101454819D02*
X115971428Y-101454819D01*
X115971428Y-101454819D02*
X115638095Y-101835771D01*
X115638095Y-101835771D02*
X115780952Y-101835771D01*
X115780952Y-101835771D02*
X115876190Y-101883390D01*
X115876190Y-101883390D02*
X115923809Y-101931009D01*
X115923809Y-101931009D02*
X115971428Y-102026247D01*
X115971428Y-102026247D02*
X115971428Y-102264342D01*
X115971428Y-102264342D02*
X115923809Y-102359580D01*
X115923809Y-102359580D02*
X115876190Y-102407200D01*
X115876190Y-102407200D02*
X115780952Y-102454819D01*
X115780952Y-102454819D02*
X115495238Y-102454819D01*
X115495238Y-102454819D02*
X115400000Y-102407200D01*
X115400000Y-102407200D02*
X115352381Y-102359580D01*
X116257143Y-101454819D02*
X116590476Y-102454819D01*
X116590476Y-102454819D02*
X116923809Y-101454819D01*
X133138095Y-137254819D02*
X133138095Y-138064342D01*
X133138095Y-138064342D02*
X133185714Y-138159580D01*
X133185714Y-138159580D02*
X133233333Y-138207200D01*
X133233333Y-138207200D02*
X133328571Y-138254819D01*
X133328571Y-138254819D02*
X133519047Y-138254819D01*
X133519047Y-138254819D02*
X133614285Y-138207200D01*
X133614285Y-138207200D02*
X133661904Y-138159580D01*
X133661904Y-138159580D02*
X133709523Y-138064342D01*
X133709523Y-138064342D02*
X133709523Y-137254819D01*
X134138095Y-137350057D02*
X134185714Y-137302438D01*
X134185714Y-137302438D02*
X134280952Y-137254819D01*
X134280952Y-137254819D02*
X134519047Y-137254819D01*
X134519047Y-137254819D02*
X134614285Y-137302438D01*
X134614285Y-137302438D02*
X134661904Y-137350057D01*
X134661904Y-137350057D02*
X134709523Y-137445295D01*
X134709523Y-137445295D02*
X134709523Y-137540533D01*
X134709523Y-137540533D02*
X134661904Y-137683390D01*
X134661904Y-137683390D02*
X134090476Y-138254819D01*
X134090476Y-138254819D02*
X134709523Y-138254819D01*
X186107142Y-72204819D02*
X185773809Y-71728628D01*
X185535714Y-72204819D02*
X185535714Y-71204819D01*
X185535714Y-71204819D02*
X185916666Y-71204819D01*
X185916666Y-71204819D02*
X186011904Y-71252438D01*
X186011904Y-71252438D02*
X186059523Y-71300057D01*
X186059523Y-71300057D02*
X186107142Y-71395295D01*
X186107142Y-71395295D02*
X186107142Y-71538152D01*
X186107142Y-71538152D02*
X186059523Y-71633390D01*
X186059523Y-71633390D02*
X186011904Y-71681009D01*
X186011904Y-71681009D02*
X185916666Y-71728628D01*
X185916666Y-71728628D02*
X185535714Y-71728628D01*
X187059523Y-72204819D02*
X186488095Y-72204819D01*
X186773809Y-72204819D02*
X186773809Y-71204819D01*
X186773809Y-71204819D02*
X186678571Y-71347676D01*
X186678571Y-71347676D02*
X186583333Y-71442914D01*
X186583333Y-71442914D02*
X186488095Y-71490533D01*
X187916666Y-71538152D02*
X187916666Y-72204819D01*
X187678571Y-71157200D02*
X187440476Y-71871485D01*
X187440476Y-71871485D02*
X188059523Y-71871485D01*
X165811905Y-71534819D02*
X165811905Y-70534819D01*
X165811905Y-70534819D02*
X166050000Y-70534819D01*
X166050000Y-70534819D02*
X166192857Y-70582438D01*
X166192857Y-70582438D02*
X166288095Y-70677676D01*
X166288095Y-70677676D02*
X166335714Y-70772914D01*
X166335714Y-70772914D02*
X166383333Y-70963390D01*
X166383333Y-70963390D02*
X166383333Y-71106247D01*
X166383333Y-71106247D02*
X166335714Y-71296723D01*
X166335714Y-71296723D02*
X166288095Y-71391961D01*
X166288095Y-71391961D02*
X166192857Y-71487200D01*
X166192857Y-71487200D02*
X166050000Y-71534819D01*
X166050000Y-71534819D02*
X165811905Y-71534819D01*
X166764286Y-70630057D02*
X166811905Y-70582438D01*
X166811905Y-70582438D02*
X166907143Y-70534819D01*
X166907143Y-70534819D02*
X167145238Y-70534819D01*
X167145238Y-70534819D02*
X167240476Y-70582438D01*
X167240476Y-70582438D02*
X167288095Y-70630057D01*
X167288095Y-70630057D02*
X167335714Y-70725295D01*
X167335714Y-70725295D02*
X167335714Y-70820533D01*
X167335714Y-70820533D02*
X167288095Y-70963390D01*
X167288095Y-70963390D02*
X166716667Y-71534819D01*
X166716667Y-71534819D02*
X167335714Y-71534819D01*
X187281845Y-76536069D02*
X187281845Y-77345592D01*
X187281845Y-77345592D02*
X187329464Y-77440830D01*
X187329464Y-77440830D02*
X187377083Y-77488450D01*
X187377083Y-77488450D02*
X187472321Y-77536069D01*
X187472321Y-77536069D02*
X187662797Y-77536069D01*
X187662797Y-77536069D02*
X187758035Y-77488450D01*
X187758035Y-77488450D02*
X187805654Y-77440830D01*
X187805654Y-77440830D02*
X187853273Y-77345592D01*
X187853273Y-77345592D02*
X187853273Y-76536069D01*
X188234226Y-76536069D02*
X188853273Y-76536069D01*
X188853273Y-76536069D02*
X188519940Y-76917021D01*
X188519940Y-76917021D02*
X188662797Y-76917021D01*
X188662797Y-76917021D02*
X188758035Y-76964640D01*
X188758035Y-76964640D02*
X188805654Y-77012259D01*
X188805654Y-77012259D02*
X188853273Y-77107497D01*
X188853273Y-77107497D02*
X188853273Y-77345592D01*
X188853273Y-77345592D02*
X188805654Y-77440830D01*
X188805654Y-77440830D02*
X188758035Y-77488450D01*
X188758035Y-77488450D02*
X188662797Y-77536069D01*
X188662797Y-77536069D02*
X188377083Y-77536069D01*
X188377083Y-77536069D02*
X188281845Y-77488450D01*
X188281845Y-77488450D02*
X188234226Y-77440830D01*
X192377083Y-75760830D02*
X192329464Y-75808450D01*
X192329464Y-75808450D02*
X192186607Y-75856069D01*
X192186607Y-75856069D02*
X192091369Y-75856069D01*
X192091369Y-75856069D02*
X191948512Y-75808450D01*
X191948512Y-75808450D02*
X191853274Y-75713211D01*
X191853274Y-75713211D02*
X191805655Y-75617973D01*
X191805655Y-75617973D02*
X191758036Y-75427497D01*
X191758036Y-75427497D02*
X191758036Y-75284640D01*
X191758036Y-75284640D02*
X191805655Y-75094164D01*
X191805655Y-75094164D02*
X191853274Y-74998926D01*
X191853274Y-74998926D02*
X191948512Y-74903688D01*
X191948512Y-74903688D02*
X192091369Y-74856069D01*
X192091369Y-74856069D02*
X192186607Y-74856069D01*
X192186607Y-74856069D02*
X192329464Y-74903688D01*
X192329464Y-74903688D02*
X192377083Y-74951307D01*
X192710417Y-74856069D02*
X193377083Y-74856069D01*
X193377083Y-74856069D02*
X192948512Y-75856069D01*
X125745476Y-71374819D02*
X125745476Y-72089104D01*
X125745476Y-72089104D02*
X125697857Y-72231961D01*
X125697857Y-72231961D02*
X125602619Y-72327200D01*
X125602619Y-72327200D02*
X125459762Y-72374819D01*
X125459762Y-72374819D02*
X125364524Y-72374819D01*
X126745476Y-72374819D02*
X126174048Y-72374819D01*
X126459762Y-72374819D02*
X126459762Y-71374819D01*
X126459762Y-71374819D02*
X126364524Y-71517676D01*
X126364524Y-71517676D02*
X126269286Y-71612914D01*
X126269286Y-71612914D02*
X126174048Y-71660533D01*
X127364524Y-71374819D02*
X127459762Y-71374819D01*
X127459762Y-71374819D02*
X127555000Y-71422438D01*
X127555000Y-71422438D02*
X127602619Y-71470057D01*
X127602619Y-71470057D02*
X127650238Y-71565295D01*
X127650238Y-71565295D02*
X127697857Y-71755771D01*
X127697857Y-71755771D02*
X127697857Y-71993866D01*
X127697857Y-71993866D02*
X127650238Y-72184342D01*
X127650238Y-72184342D02*
X127602619Y-72279580D01*
X127602619Y-72279580D02*
X127555000Y-72327200D01*
X127555000Y-72327200D02*
X127459762Y-72374819D01*
X127459762Y-72374819D02*
X127364524Y-72374819D01*
X127364524Y-72374819D02*
X127269286Y-72327200D01*
X127269286Y-72327200D02*
X127221667Y-72279580D01*
X127221667Y-72279580D02*
X127174048Y-72184342D01*
X127174048Y-72184342D02*
X127126429Y-71993866D01*
X127126429Y-71993866D02*
X127126429Y-71755771D01*
X127126429Y-71755771D02*
X127174048Y-71565295D01*
X127174048Y-71565295D02*
X127221667Y-71470057D01*
X127221667Y-71470057D02*
X127269286Y-71422438D01*
X127269286Y-71422438D02*
X127364524Y-71374819D01*
X148838095Y-91054819D02*
X148838095Y-91864342D01*
X148838095Y-91864342D02*
X148885714Y-91959580D01*
X148885714Y-91959580D02*
X148933333Y-92007200D01*
X148933333Y-92007200D02*
X149028571Y-92054819D01*
X149028571Y-92054819D02*
X149219047Y-92054819D01*
X149219047Y-92054819D02*
X149314285Y-92007200D01*
X149314285Y-92007200D02*
X149361904Y-91959580D01*
X149361904Y-91959580D02*
X149409523Y-91864342D01*
X149409523Y-91864342D02*
X149409523Y-91054819D01*
X150409523Y-92054819D02*
X149838095Y-92054819D01*
X150123809Y-92054819D02*
X150123809Y-91054819D01*
X150123809Y-91054819D02*
X150028571Y-91197676D01*
X150028571Y-91197676D02*
X149933333Y-91292914D01*
X149933333Y-91292914D02*
X149838095Y-91340533D01*
X144438094Y-66739104D02*
X144914284Y-66739104D01*
X144342856Y-67024819D02*
X144676189Y-66024819D01*
X144676189Y-66024819D02*
X145009522Y-67024819D01*
X145342856Y-66358152D02*
X145342856Y-67024819D01*
X145342856Y-66453390D02*
X145390475Y-66405771D01*
X145390475Y-66405771D02*
X145485713Y-66358152D01*
X145485713Y-66358152D02*
X145628570Y-66358152D01*
X145628570Y-66358152D02*
X145723808Y-66405771D01*
X145723808Y-66405771D02*
X145771427Y-66501009D01*
X145771427Y-66501009D02*
X145771427Y-67024819D01*
X146104761Y-66358152D02*
X146485713Y-66358152D01*
X146247618Y-66024819D02*
X146247618Y-66881961D01*
X146247618Y-66881961D02*
X146295237Y-66977200D01*
X146295237Y-66977200D02*
X146390475Y-67024819D01*
X146390475Y-67024819D02*
X146485713Y-67024819D01*
X147199999Y-66977200D02*
X147104761Y-67024819D01*
X147104761Y-67024819D02*
X146914285Y-67024819D01*
X146914285Y-67024819D02*
X146819047Y-66977200D01*
X146819047Y-66977200D02*
X146771428Y-66881961D01*
X146771428Y-66881961D02*
X146771428Y-66501009D01*
X146771428Y-66501009D02*
X146819047Y-66405771D01*
X146819047Y-66405771D02*
X146914285Y-66358152D01*
X146914285Y-66358152D02*
X147104761Y-66358152D01*
X147104761Y-66358152D02*
X147199999Y-66405771D01*
X147199999Y-66405771D02*
X147247618Y-66501009D01*
X147247618Y-66501009D02*
X147247618Y-66596247D01*
X147247618Y-66596247D02*
X146771428Y-66691485D01*
X147676190Y-66358152D02*
X147676190Y-67024819D01*
X147676190Y-66453390D02*
X147723809Y-66405771D01*
X147723809Y-66405771D02*
X147819047Y-66358152D01*
X147819047Y-66358152D02*
X147961904Y-66358152D01*
X147961904Y-66358152D02*
X148057142Y-66405771D01*
X148057142Y-66405771D02*
X148104761Y-66501009D01*
X148104761Y-66501009D02*
X148104761Y-67024819D01*
X148580952Y-66358152D02*
X148580952Y-67024819D01*
X148580952Y-66453390D02*
X148628571Y-66405771D01*
X148628571Y-66405771D02*
X148723809Y-66358152D01*
X148723809Y-66358152D02*
X148866666Y-66358152D01*
X148866666Y-66358152D02*
X148961904Y-66405771D01*
X148961904Y-66405771D02*
X149009523Y-66501009D01*
X149009523Y-66501009D02*
X149009523Y-67024819D01*
X149914285Y-67024819D02*
X149914285Y-66501009D01*
X149914285Y-66501009D02*
X149866666Y-66405771D01*
X149866666Y-66405771D02*
X149771428Y-66358152D01*
X149771428Y-66358152D02*
X149580952Y-66358152D01*
X149580952Y-66358152D02*
X149485714Y-66405771D01*
X149914285Y-66977200D02*
X149819047Y-67024819D01*
X149819047Y-67024819D02*
X149580952Y-67024819D01*
X149580952Y-67024819D02*
X149485714Y-66977200D01*
X149485714Y-66977200D02*
X149438095Y-66881961D01*
X149438095Y-66881961D02*
X149438095Y-66786723D01*
X149438095Y-66786723D02*
X149485714Y-66691485D01*
X149485714Y-66691485D02*
X149580952Y-66643866D01*
X149580952Y-66643866D02*
X149819047Y-66643866D01*
X149819047Y-66643866D02*
X149914285Y-66596247D01*
X151104762Y-66739104D02*
X151580952Y-66739104D01*
X151009524Y-67024819D02*
X151342857Y-66024819D01*
X151342857Y-66024819D02*
X151676190Y-67024819D01*
X152009524Y-67024819D02*
X152009524Y-66358152D01*
X152009524Y-66548628D02*
X152057143Y-66453390D01*
X152057143Y-66453390D02*
X152104762Y-66405771D01*
X152104762Y-66405771D02*
X152200000Y-66358152D01*
X152200000Y-66358152D02*
X152295238Y-66358152D01*
X153009524Y-66977200D02*
X152914286Y-67024819D01*
X152914286Y-67024819D02*
X152723810Y-67024819D01*
X152723810Y-67024819D02*
X152628572Y-66977200D01*
X152628572Y-66977200D02*
X152580953Y-66881961D01*
X152580953Y-66881961D02*
X152580953Y-66501009D01*
X152580953Y-66501009D02*
X152628572Y-66405771D01*
X152628572Y-66405771D02*
X152723810Y-66358152D01*
X152723810Y-66358152D02*
X152914286Y-66358152D01*
X152914286Y-66358152D02*
X153009524Y-66405771D01*
X153009524Y-66405771D02*
X153057143Y-66501009D01*
X153057143Y-66501009D02*
X153057143Y-66596247D01*
X153057143Y-66596247D02*
X152580953Y-66691485D01*
X153914286Y-67024819D02*
X153914286Y-66501009D01*
X153914286Y-66501009D02*
X153866667Y-66405771D01*
X153866667Y-66405771D02*
X153771429Y-66358152D01*
X153771429Y-66358152D02*
X153580953Y-66358152D01*
X153580953Y-66358152D02*
X153485715Y-66405771D01*
X153914286Y-66977200D02*
X153819048Y-67024819D01*
X153819048Y-67024819D02*
X153580953Y-67024819D01*
X153580953Y-67024819D02*
X153485715Y-66977200D01*
X153485715Y-66977200D02*
X153438096Y-66881961D01*
X153438096Y-66881961D02*
X153438096Y-66786723D01*
X153438096Y-66786723D02*
X153485715Y-66691485D01*
X153485715Y-66691485D02*
X153580953Y-66643866D01*
X153580953Y-66643866D02*
X153819048Y-66643866D01*
X153819048Y-66643866D02*
X153914286Y-66596247D01*
X119834819Y-116634523D02*
X120549104Y-116634523D01*
X120549104Y-116634523D02*
X120691961Y-116682142D01*
X120691961Y-116682142D02*
X120787200Y-116777380D01*
X120787200Y-116777380D02*
X120834819Y-116920237D01*
X120834819Y-116920237D02*
X120834819Y-117015475D01*
X120834819Y-115634523D02*
X120834819Y-116205951D01*
X120834819Y-115920237D02*
X119834819Y-115920237D01*
X119834819Y-115920237D02*
X119977676Y-116015475D01*
X119977676Y-116015475D02*
X120072914Y-116110713D01*
X120072914Y-116110713D02*
X120120533Y-116205951D01*
X119930057Y-115253570D02*
X119882438Y-115205951D01*
X119882438Y-115205951D02*
X119834819Y-115110713D01*
X119834819Y-115110713D02*
X119834819Y-114872618D01*
X119834819Y-114872618D02*
X119882438Y-114777380D01*
X119882438Y-114777380D02*
X119930057Y-114729761D01*
X119930057Y-114729761D02*
X120025295Y-114682142D01*
X120025295Y-114682142D02*
X120120533Y-114682142D01*
X120120533Y-114682142D02*
X120263390Y-114729761D01*
X120263390Y-114729761D02*
X120834819Y-115301189D01*
X120834819Y-115301189D02*
X120834819Y-114682142D01*
X127342261Y-88220057D02*
X127247023Y-88172438D01*
X127247023Y-88172438D02*
X127151785Y-88077200D01*
X127151785Y-88077200D02*
X127008928Y-87934342D01*
X127008928Y-87934342D02*
X126913690Y-87886723D01*
X126913690Y-87886723D02*
X126818452Y-87886723D01*
X126866071Y-88124819D02*
X126770833Y-88077200D01*
X126770833Y-88077200D02*
X126675595Y-87981961D01*
X126675595Y-87981961D02*
X126627976Y-87791485D01*
X126627976Y-87791485D02*
X126627976Y-87458152D01*
X126627976Y-87458152D02*
X126675595Y-87267676D01*
X126675595Y-87267676D02*
X126770833Y-87172438D01*
X126770833Y-87172438D02*
X126866071Y-87124819D01*
X126866071Y-87124819D02*
X127056547Y-87124819D01*
X127056547Y-87124819D02*
X127151785Y-87172438D01*
X127151785Y-87172438D02*
X127247023Y-87267676D01*
X127247023Y-87267676D02*
X127294642Y-87458152D01*
X127294642Y-87458152D02*
X127294642Y-87791485D01*
X127294642Y-87791485D02*
X127247023Y-87981961D01*
X127247023Y-87981961D02*
X127151785Y-88077200D01*
X127151785Y-88077200D02*
X127056547Y-88124819D01*
X127056547Y-88124819D02*
X126866071Y-88124819D01*
X128199404Y-87124819D02*
X127723214Y-87124819D01*
X127723214Y-87124819D02*
X127675595Y-87601009D01*
X127675595Y-87601009D02*
X127723214Y-87553390D01*
X127723214Y-87553390D02*
X127818452Y-87505771D01*
X127818452Y-87505771D02*
X128056547Y-87505771D01*
X128056547Y-87505771D02*
X128151785Y-87553390D01*
X128151785Y-87553390D02*
X128199404Y-87601009D01*
X128199404Y-87601009D02*
X128247023Y-87696247D01*
X128247023Y-87696247D02*
X128247023Y-87934342D01*
X128247023Y-87934342D02*
X128199404Y-88029580D01*
X128199404Y-88029580D02*
X128151785Y-88077200D01*
X128151785Y-88077200D02*
X128056547Y-88124819D01*
X128056547Y-88124819D02*
X127818452Y-88124819D01*
X127818452Y-88124819D02*
X127723214Y-88077200D01*
X127723214Y-88077200D02*
X127675595Y-88029580D01*
X135833333Y-144159580D02*
X135785714Y-144207200D01*
X135785714Y-144207200D02*
X135642857Y-144254819D01*
X135642857Y-144254819D02*
X135547619Y-144254819D01*
X135547619Y-144254819D02*
X135404762Y-144207200D01*
X135404762Y-144207200D02*
X135309524Y-144111961D01*
X135309524Y-144111961D02*
X135261905Y-144016723D01*
X135261905Y-144016723D02*
X135214286Y-143826247D01*
X135214286Y-143826247D02*
X135214286Y-143683390D01*
X135214286Y-143683390D02*
X135261905Y-143492914D01*
X135261905Y-143492914D02*
X135309524Y-143397676D01*
X135309524Y-143397676D02*
X135404762Y-143302438D01*
X135404762Y-143302438D02*
X135547619Y-143254819D01*
X135547619Y-143254819D02*
X135642857Y-143254819D01*
X135642857Y-143254819D02*
X135785714Y-143302438D01*
X135785714Y-143302438D02*
X135833333Y-143350057D01*
X136690476Y-143254819D02*
X136500000Y-143254819D01*
X136500000Y-143254819D02*
X136404762Y-143302438D01*
X136404762Y-143302438D02*
X136357143Y-143350057D01*
X136357143Y-143350057D02*
X136261905Y-143492914D01*
X136261905Y-143492914D02*
X136214286Y-143683390D01*
X136214286Y-143683390D02*
X136214286Y-144064342D01*
X136214286Y-144064342D02*
X136261905Y-144159580D01*
X136261905Y-144159580D02*
X136309524Y-144207200D01*
X136309524Y-144207200D02*
X136404762Y-144254819D01*
X136404762Y-144254819D02*
X136595238Y-144254819D01*
X136595238Y-144254819D02*
X136690476Y-144207200D01*
X136690476Y-144207200D02*
X136738095Y-144159580D01*
X136738095Y-144159580D02*
X136785714Y-144064342D01*
X136785714Y-144064342D02*
X136785714Y-143826247D01*
X136785714Y-143826247D02*
X136738095Y-143731009D01*
X136738095Y-143731009D02*
X136690476Y-143683390D01*
X136690476Y-143683390D02*
X136595238Y-143635771D01*
X136595238Y-143635771D02*
X136404762Y-143635771D01*
X136404762Y-143635771D02*
X136309524Y-143683390D01*
X136309524Y-143683390D02*
X136261905Y-143731009D01*
X136261905Y-143731009D02*
X136214286Y-143826247D01*
X169508333Y-80729819D02*
X169175000Y-80253628D01*
X168936905Y-80729819D02*
X168936905Y-79729819D01*
X168936905Y-79729819D02*
X169317857Y-79729819D01*
X169317857Y-79729819D02*
X169413095Y-79777438D01*
X169413095Y-79777438D02*
X169460714Y-79825057D01*
X169460714Y-79825057D02*
X169508333Y-79920295D01*
X169508333Y-79920295D02*
X169508333Y-80063152D01*
X169508333Y-80063152D02*
X169460714Y-80158390D01*
X169460714Y-80158390D02*
X169413095Y-80206009D01*
X169413095Y-80206009D02*
X169317857Y-80253628D01*
X169317857Y-80253628D02*
X168936905Y-80253628D01*
X170365476Y-79729819D02*
X170175000Y-79729819D01*
X170175000Y-79729819D02*
X170079762Y-79777438D01*
X170079762Y-79777438D02*
X170032143Y-79825057D01*
X170032143Y-79825057D02*
X169936905Y-79967914D01*
X169936905Y-79967914D02*
X169889286Y-80158390D01*
X169889286Y-80158390D02*
X169889286Y-80539342D01*
X169889286Y-80539342D02*
X169936905Y-80634580D01*
X169936905Y-80634580D02*
X169984524Y-80682200D01*
X169984524Y-80682200D02*
X170079762Y-80729819D01*
X170079762Y-80729819D02*
X170270238Y-80729819D01*
X170270238Y-80729819D02*
X170365476Y-80682200D01*
X170365476Y-80682200D02*
X170413095Y-80634580D01*
X170413095Y-80634580D02*
X170460714Y-80539342D01*
X170460714Y-80539342D02*
X170460714Y-80301247D01*
X170460714Y-80301247D02*
X170413095Y-80206009D01*
X170413095Y-80206009D02*
X170365476Y-80158390D01*
X170365476Y-80158390D02*
X170270238Y-80110771D01*
X170270238Y-80110771D02*
X170079762Y-80110771D01*
X170079762Y-80110771D02*
X169984524Y-80158390D01*
X169984524Y-80158390D02*
X169936905Y-80206009D01*
X169936905Y-80206009D02*
X169889286Y-80301247D01*
X172508333Y-80729819D02*
X172175000Y-80253628D01*
X171936905Y-80729819D02*
X171936905Y-79729819D01*
X171936905Y-79729819D02*
X172317857Y-79729819D01*
X172317857Y-79729819D02*
X172413095Y-79777438D01*
X172413095Y-79777438D02*
X172460714Y-79825057D01*
X172460714Y-79825057D02*
X172508333Y-79920295D01*
X172508333Y-79920295D02*
X172508333Y-80063152D01*
X172508333Y-80063152D02*
X172460714Y-80158390D01*
X172460714Y-80158390D02*
X172413095Y-80206009D01*
X172413095Y-80206009D02*
X172317857Y-80253628D01*
X172317857Y-80253628D02*
X171936905Y-80253628D01*
X172841667Y-79729819D02*
X173508333Y-79729819D01*
X173508333Y-79729819D02*
X173079762Y-80729819D01*
D14*
%TO.C,R17*%
X159814500Y-138075000D02*
X159814500Y-144315000D01*
X177054500Y-144315000D02*
X177054500Y-138075000D01*
X159814500Y-144315000D02*
X177054500Y-144315000D01*
X177054500Y-138075000D02*
X159814500Y-138075000D01*
X177154500Y-141195000D02*
X177054500Y-141195000D01*
X159714500Y-141195000D02*
X159814500Y-141195000D01*
D15*
%TO.C,J7*%
X201121250Y-85800250D02*
X199258250Y-85800250D01*
X204839250Y-85800250D02*
X203358250Y-85800250D01*
X201121250Y-76860250D02*
X199257250Y-76860250D01*
X204839250Y-76860250D02*
X204839250Y-85800250D01*
X204839250Y-76860250D02*
X203357250Y-76860250D01*
D14*
%TO.C,J9*%
X166895000Y-105330000D02*
X166895000Y-104000000D01*
X168225000Y-105330000D02*
X166895000Y-105330000D01*
X169495000Y-105330000D02*
X172095000Y-105330000D01*
X169495000Y-105330000D02*
X169495000Y-102670000D01*
X172095000Y-105330000D02*
X172095000Y-102670000D01*
X169495000Y-102670000D02*
X172095000Y-102670000D01*
%TO.C,D6*%
X198262000Y-104490000D02*
X196792000Y-104490000D01*
X196792000Y-104490000D02*
X196792000Y-106775000D01*
X198262000Y-106775000D02*
X198262000Y-104490000D01*
%TO.C,R26*%
X130400000Y-86197064D02*
X130400000Y-84742936D01*
X132220000Y-86197064D02*
X132220000Y-84742936D01*
%TO.C,R27*%
X130877064Y-82880000D02*
X129422936Y-82880000D01*
X130877064Y-81060000D02*
X129422936Y-81060000D01*
%TO.C,R12*%
X120302500Y-74787742D02*
X120302500Y-75262258D01*
X119257500Y-74787742D02*
X119257500Y-75262258D01*
%TO.C,J1*%
X182900000Y-134990000D02*
X198140000Y-134990000D01*
X182900000Y-141340000D02*
X198140000Y-141340000D01*
X182900000Y-142610000D02*
X182900000Y-134990000D01*
X182900000Y-142610000D02*
X198140000Y-142610000D01*
X198140000Y-142610000D02*
X198140000Y-134990000D01*
%TO.C,J5*%
X160670000Y-69840000D02*
X162000000Y-69840000D01*
X160670000Y-71170000D02*
X160670000Y-69840000D01*
X160670000Y-72440000D02*
X160670000Y-125840000D01*
X160670000Y-72440000D02*
X163330000Y-72440000D01*
X160670000Y-125840000D02*
X163330000Y-125840000D01*
X163330000Y-72440000D02*
X163330000Y-125840000D01*
%TO.C,Q4*%
X168000000Y-133740000D02*
X166325000Y-133740000D01*
X168000000Y-133740000D02*
X168650000Y-133740000D01*
X168000000Y-136860000D02*
X167350000Y-136860000D01*
X168000000Y-136860000D02*
X168650000Y-136860000D01*
%TO.C,C1*%
X124310000Y-74884420D02*
X124310000Y-75165580D01*
X123290000Y-74884420D02*
X123290000Y-75165580D01*
%TO.C,R13*%
X180383750Y-75458314D02*
X180383750Y-74004186D01*
X182203750Y-75458314D02*
X182203750Y-74004186D01*
%TO.C,C5*%
X129810000Y-74434420D02*
X129810000Y-74715580D01*
X128790000Y-74434420D02*
X128790000Y-74715580D01*
%TO.C,R29*%
X114885000Y-120547936D02*
X114885000Y-122002064D01*
X113065000Y-120547936D02*
X113065000Y-122002064D01*
%TO.C,D3*%
X170635000Y-71777500D02*
X168715000Y-71777500D01*
X168715000Y-71777500D02*
X168715000Y-74462500D01*
X170635000Y-74462500D02*
X170635000Y-71777500D01*
%TO.C,J6*%
X193388000Y-98034000D02*
X193388000Y-96704000D01*
X194718000Y-98034000D02*
X193388000Y-98034000D01*
X195988000Y-98034000D02*
X198588000Y-98034000D01*
X195988000Y-98034000D02*
X195988000Y-95374000D01*
X198588000Y-98034000D02*
X198588000Y-95374000D01*
X195988000Y-95374000D02*
X198588000Y-95374000D01*
%TO.C,J13*%
X147964500Y-130865000D02*
X149294500Y-130865000D01*
X147964500Y-132195000D02*
X147964500Y-130865000D01*
X147964500Y-133465000D02*
X147964500Y-136065000D01*
X147964500Y-133465000D02*
X150624500Y-133465000D01*
X147964500Y-136065000D02*
X150624500Y-136065000D01*
X150624500Y-133465000D02*
X150624500Y-136065000D01*
%TO.C,J11*%
X141405000Y-129670000D02*
X141405000Y-131000000D01*
X140075000Y-129670000D02*
X141405000Y-129670000D01*
X138805000Y-129670000D02*
X136205000Y-129670000D01*
X138805000Y-129670000D02*
X138805000Y-132330000D01*
X136205000Y-129670000D02*
X136205000Y-132330000D01*
X138805000Y-132330000D02*
X136205000Y-132330000D01*
%TO.C,D5*%
X173675000Y-71777500D02*
X171755000Y-71777500D01*
X171755000Y-71777500D02*
X171755000Y-74462500D01*
X173675000Y-74462500D02*
X173675000Y-71777500D01*
%TO.C,R24*%
X153337258Y-128422500D02*
X152862742Y-128422500D01*
X153337258Y-127377500D02*
X152862742Y-127377500D01*
%TO.C,J2*%
X108845000Y-90900000D02*
X110175000Y-90900000D01*
X108845000Y-92230000D02*
X108845000Y-90900000D01*
X108845000Y-93500000D02*
X108845000Y-98640000D01*
X108845000Y-93500000D02*
X111505000Y-93500000D01*
X108845000Y-98640000D02*
X111505000Y-98640000D01*
X111505000Y-93500000D02*
X111505000Y-98640000D01*
%TO.C,J8*%
X194003750Y-85066250D02*
X192893750Y-85066250D01*
X194003750Y-84306250D02*
X194003750Y-85066250D01*
X194003750Y-83546250D02*
X194003750Y-78531250D01*
X194003750Y-83546250D02*
X193457221Y-83546250D01*
X194003750Y-78531250D02*
X193201280Y-78531250D01*
X192586220Y-78531250D02*
X191783750Y-78531250D01*
X192330279Y-83546250D02*
X191783750Y-83546250D01*
X191783750Y-83546250D02*
X191783750Y-78531250D01*
%TO.C,R5*%
X166152500Y-77762258D02*
X166152500Y-77287742D01*
X167197500Y-77762258D02*
X167197500Y-77287742D01*
%TO.C,R10*%
X199781008Y-88353750D02*
X199306492Y-88353750D01*
X199781008Y-87308750D02*
X199306492Y-87308750D01*
%TO.C,Q1*%
X199087000Y-101354500D02*
X199087000Y-99679500D01*
X199087000Y-101354500D02*
X199087000Y-102004500D01*
X195967000Y-101354500D02*
X195967000Y-100704500D01*
X195967000Y-101354500D02*
X195967000Y-102004500D01*
%TO.C,Q2*%
X177543750Y-76203750D02*
X179218750Y-76203750D01*
X177543750Y-76203750D02*
X176893750Y-76203750D01*
X177543750Y-73083750D02*
X178193750Y-73083750D01*
X177543750Y-73083750D02*
X176893750Y-73083750D01*
%TO.C,C9*%
X122290000Y-74884420D02*
X122290000Y-75165580D01*
X121270000Y-74884420D02*
X121270000Y-75165580D01*
%TO.C,TP1*%
X111150000Y-104100000D02*
G75*
G03*
X111150000Y-104100000I-950000J0D01*
G01*
%TO.C,D1*%
X143840000Y-141085000D02*
X145760000Y-141085000D01*
X145760000Y-141085000D02*
X145760000Y-138400000D01*
X143840000Y-138400000D02*
X143840000Y-141085000D01*
%TO.C,J3*%
X111505000Y-87120000D02*
X110175000Y-87120000D01*
X111505000Y-85790000D02*
X111505000Y-87120000D01*
X111505000Y-84520000D02*
X111505000Y-74300000D01*
X111505000Y-84520000D02*
X108845000Y-84520000D01*
X111505000Y-74300000D02*
X108845000Y-74300000D01*
X108845000Y-84520000D02*
X108845000Y-74300000D01*
%TO.C,R21*%
X160030758Y-136711500D02*
X159556242Y-136711500D01*
X160030758Y-135666500D02*
X159556242Y-135666500D01*
%TO.C,C2*%
X168859420Y-100590000D02*
X169140580Y-100590000D01*
X168859420Y-101610000D02*
X169140580Y-101610000D01*
%TO.C,R8*%
X200052500Y-106212258D02*
X200052500Y-105737742D01*
X201097500Y-106212258D02*
X201097500Y-105737742D01*
%TO.C,D4*%
X112800000Y-131400000D02*
X112800000Y-124100000D01*
X118300000Y-131400000D02*
X118300000Y-124100000D01*
X118300000Y-124100000D02*
X117150000Y-124100000D01*
%TO.C,R11*%
X199781008Y-75353750D02*
X199306492Y-75353750D01*
X199781008Y-74308750D02*
X199306492Y-74308750D01*
%TO.C,R9*%
X201122500Y-96662742D02*
X201122500Y-97137258D01*
X200077500Y-96662742D02*
X200077500Y-97137258D01*
D15*
%TO.C,D8*%
X179594500Y-131295000D02*
X179015500Y-131295000D01*
X177573500Y-131295000D02*
X176615500Y-131295000D01*
X175173500Y-131295000D02*
X174594500Y-131295000D01*
X179594500Y-131618000D02*
X174594500Y-131618000D01*
X178364500Y-131680000D02*
X178364500Y-132696000D01*
X175189500Y-131934000D02*
X176205500Y-131934000D01*
X177856500Y-132188000D02*
X178872500Y-132188000D01*
X179594500Y-135495000D02*
X179594500Y-131295000D01*
X179594500Y-135495000D02*
X179015500Y-135495000D01*
X177573500Y-135495000D02*
X176615500Y-135495000D01*
X175173500Y-135495000D02*
X174594500Y-135495000D01*
X174594500Y-135495000D02*
X174594500Y-131295000D01*
X178491500Y-134347000D02*
G75*
G03*
X179253500Y-134347000I381000J0D01*
G01*
X178491500Y-134347000D02*
G75*
G03*
X177729500Y-134347000I-381000J0D01*
G01*
X175697500Y-134411000D02*
G75*
G03*
X176459500Y-134411000I381000J0D01*
G01*
X175697500Y-134411000D02*
G75*
G03*
X174935500Y-134411000I-381000J0D01*
G01*
X179559500Y-130347000D02*
G75*
G03*
X179559500Y-130347000I-179000J0D01*
G01*
D14*
%TO.C,U5*%
X152934500Y-135405000D02*
X153289500Y-135405000D01*
X153289500Y-135405000D02*
X153289500Y-136870000D01*
X157254500Y-135405000D02*
X156899500Y-135405000D01*
X152934500Y-133395000D02*
X152934500Y-135405000D01*
X152934500Y-133395000D02*
X152934500Y-131385000D01*
X157254500Y-133395000D02*
X157254500Y-135405000D01*
X157254500Y-133395000D02*
X157254500Y-131385000D01*
X152934500Y-131385000D02*
X153289500Y-131385000D01*
X157254500Y-131385000D02*
X156899500Y-131385000D01*
%TO.C,K1*%
X204400000Y-112936000D02*
X197800000Y-112936000D01*
X204400000Y-112936000D02*
X204400000Y-132736000D01*
X195400000Y-112936000D02*
X188800000Y-112936000D01*
X196550000Y-116986000D02*
X196550000Y-116186000D01*
X196550000Y-116986000D02*
X192950000Y-116986000D01*
X190550000Y-117886000D02*
X190550000Y-120386000D01*
X198350000Y-118386000D02*
X198350000Y-122386000D01*
X194750000Y-118386000D02*
X198350000Y-118386000D01*
X202550000Y-120386000D02*
X202550000Y-117886000D01*
X202550000Y-120386000D02*
X198350000Y-120386000D01*
X194750000Y-120386000D02*
X190550000Y-120386000D01*
X198350000Y-122386000D02*
X194750000Y-122386000D01*
X194750000Y-122386000D02*
X198350000Y-118386000D01*
X194750000Y-122386000D02*
X194750000Y-118386000D01*
X196550000Y-123786000D02*
X192950000Y-123786000D01*
X196550000Y-123786000D02*
X196550000Y-125286000D01*
X192950000Y-123786000D02*
X192950000Y-116986000D01*
X196550000Y-125286000D02*
X199050000Y-129886000D01*
X200800000Y-128486000D02*
X198300000Y-128486000D01*
X192400000Y-128486000D02*
X194850000Y-128486000D01*
X204400000Y-132736000D02*
X188800000Y-132736000D01*
X188800000Y-132736000D02*
X188800000Y-112936000D01*
%TO.C,R28*%
X120127500Y-122002064D02*
X120127500Y-120547936D01*
X121947500Y-122002064D02*
X121947500Y-120547936D01*
%TO.C,R2*%
X130272936Y-78590000D02*
X131727064Y-78590000D01*
X130272936Y-80410000D02*
X131727064Y-80410000D01*
%TO.C,D9*%
X112800000Y-142100000D02*
X112800000Y-134800000D01*
X118300000Y-142100000D02*
X118300000Y-134800000D01*
X118300000Y-134800000D02*
X117150000Y-134800000D01*
%TO.C,J4*%
X135270000Y-69840000D02*
X136600000Y-69840000D01*
X135270000Y-71170000D02*
X135270000Y-69840000D01*
X135270000Y-72440000D02*
X135270000Y-125840000D01*
X135270000Y-72440000D02*
X137930000Y-72440000D01*
X135270000Y-125840000D02*
X137930000Y-125840000D01*
X137930000Y-72440000D02*
X137930000Y-125840000D01*
%TO.C,R4*%
X145522500Y-135362742D02*
X145522500Y-135837258D01*
X144477500Y-135362742D02*
X144477500Y-135837258D01*
%TO.C,D7*%
X193756000Y-107705000D02*
X195456000Y-107705000D01*
X193756000Y-107705000D02*
X193756000Y-105045000D01*
X195456000Y-107705000D02*
X195456000Y-105045000D01*
%TO.C,Q3*%
X188356250Y-73021250D02*
X186681250Y-73021250D01*
X188356250Y-73021250D02*
X189006250Y-73021250D01*
X188356250Y-76141250D02*
X187706250Y-76141250D01*
X188356250Y-76141250D02*
X189006250Y-76141250D01*
%TO.C,Q6*%
X117537500Y-123285000D02*
X119212500Y-123285000D01*
X117537500Y-123285000D02*
X116887500Y-123285000D01*
X117537500Y-120165000D02*
X118187500Y-120165000D01*
X117537500Y-120165000D02*
X116887500Y-120165000D01*
%TO.C,R20*%
X163302242Y-135666500D02*
X163776758Y-135666500D01*
X163302242Y-136711500D02*
X163776758Y-136711500D01*
%TO.C,C4*%
X131645000Y-71459420D02*
X131645000Y-71740580D01*
X130625000Y-71459420D02*
X130625000Y-71740580D01*
%TO.C,J14*%
X148164500Y-138665000D02*
X149494500Y-138665000D01*
X148164500Y-139995000D02*
X148164500Y-138665000D01*
X148164500Y-141265000D02*
X148164500Y-143865000D01*
X148164500Y-141265000D02*
X150824500Y-141265000D01*
X148164500Y-143865000D02*
X150824500Y-143865000D01*
X150824500Y-141265000D02*
X150824500Y-143865000D01*
%TO.C,D11*%
X171129500Y-135928000D02*
X173349500Y-135928000D01*
X173349500Y-135928000D02*
X173349500Y-131518000D01*
X171129500Y-131518000D02*
X171129500Y-135928000D01*
%TO.C,C3*%
X134510000Y-71459420D02*
X134510000Y-71740580D01*
X133490000Y-71459420D02*
X133490000Y-71740580D01*
%TO.C,TP2*%
X111125000Y-100750000D02*
G75*
G03*
X111125000Y-100750000I-950000J0D01*
G01*
%TO.C,U2*%
X134990000Y-141900000D02*
X134990000Y-135890000D01*
X141810000Y-139650000D02*
X141810000Y-135890000D01*
X134990000Y-135890000D02*
X136250000Y-135890000D01*
X141810000Y-135890000D02*
X140550000Y-135890000D01*
%TO.C,R14*%
X183383750Y-75558314D02*
X183383750Y-74104186D01*
X185203750Y-75558314D02*
X185203750Y-74104186D01*
%TO.C,D2*%
X167595000Y-71777500D02*
X165675000Y-71777500D01*
X165675000Y-71777500D02*
X165675000Y-74462500D01*
X167595000Y-74462500D02*
X167595000Y-71777500D01*
%TO.C,U3*%
X178983750Y-81581250D02*
X178983750Y-85031250D01*
X178983750Y-81581250D02*
X178983750Y-79631250D01*
X189103750Y-81581250D02*
X189103750Y-83531250D01*
X189103750Y-81581250D02*
X189103750Y-79631250D01*
%TO.C,C7*%
X192403170Y-76321250D02*
X192684330Y-76321250D01*
X192403170Y-77341250D02*
X192684330Y-77341250D01*
%TO.C,J10*%
X125225000Y-72920000D02*
X126555000Y-72920000D01*
X125225000Y-74250000D02*
X125225000Y-72920000D01*
X125225000Y-75520000D02*
X125225000Y-78120000D01*
X125225000Y-75520000D02*
X127885000Y-75520000D01*
X125225000Y-78120000D02*
X127885000Y-78120000D01*
X127885000Y-75520000D02*
X127885000Y-78120000D01*
%TO.C,U1*%
X140200000Y-63570000D02*
X140200000Y-70320000D01*
X140200000Y-63570000D02*
X158200000Y-63570000D01*
X140200000Y-88320000D02*
X140200000Y-89070000D01*
X140200000Y-89070000D02*
X141200000Y-89070000D01*
X158200000Y-63570000D02*
X158200000Y-70320000D01*
X158200000Y-69510000D02*
X140200000Y-69510000D01*
X158200000Y-88320000D02*
X158200000Y-89070000D01*
X158200000Y-89070000D02*
X157200000Y-89070000D01*
%TO.C,J12*%
X119380000Y-114495000D02*
X119380000Y-115825000D01*
X118050000Y-114495000D02*
X119380000Y-114495000D01*
X116780000Y-114495000D02*
X114180000Y-114495000D01*
X116780000Y-114495000D02*
X116780000Y-117155000D01*
X114180000Y-114495000D02*
X114180000Y-117155000D01*
X116780000Y-117155000D02*
X114180000Y-117155000D01*
%TO.C,Q5*%
X127437500Y-86830000D02*
X129112500Y-86830000D01*
X127437500Y-86830000D02*
X126787500Y-86830000D01*
X127437500Y-83710000D02*
X128087500Y-83710000D01*
X127437500Y-83710000D02*
X126787500Y-83710000D01*
%TO.C,C6*%
X139459420Y-142890000D02*
X139740580Y-142890000D01*
X139459420Y-143910000D02*
X139740580Y-143910000D01*
%TO.C,R6*%
X169152500Y-77762258D02*
X169152500Y-77287742D01*
X170197500Y-77762258D02*
X170197500Y-77287742D01*
%TO.C,R7*%
X172152500Y-77762258D02*
X172152500Y-77287742D01*
X173197500Y-77762258D02*
X173197500Y-77287742D01*
%TD*%
%LPC*%
D16*
%TO.C,R17*%
X178594500Y-141195000D03*
D17*
X158274500Y-141195000D03*
%TD*%
D18*
%TO.C,J7*%
X198539250Y-84231250D03*
X198539250Y-78431250D03*
D19*
X198039250Y-85656250D03*
X198039250Y-77006250D03*
D20*
X202219250Y-77006250D03*
X202219250Y-85656250D03*
D21*
X197271250Y-84681250D03*
X197271250Y-83881250D03*
X197271250Y-82581250D03*
X197271250Y-81581250D03*
X197271250Y-81081250D03*
X197271250Y-80081250D03*
X197271250Y-78781250D03*
X197271250Y-77981250D03*
X197271250Y-78281250D03*
X197271250Y-79081250D03*
X197271250Y-79581250D03*
X197271250Y-80581250D03*
X197271250Y-82081250D03*
X197271250Y-83081250D03*
X197271250Y-83581250D03*
X197271250Y-84381250D03*
%TD*%
D22*
%TO.C,J9*%
X168225000Y-104000000D03*
D23*
X170765000Y-104000000D03*
%TD*%
D24*
%TO.C,D6*%
X197527000Y-105187500D03*
X197527000Y-106762500D03*
%TD*%
D25*
%TO.C,R26*%
X131310000Y-86932500D03*
X131310000Y-84007500D03*
%TD*%
D26*
%TO.C,R27*%
X131612500Y-81970000D03*
X128687500Y-81970000D03*
%TD*%
D27*
%TO.C,R12*%
X119780000Y-74200000D03*
X119780000Y-75850000D03*
%TD*%
D28*
%TO.C,J1*%
X185440000Y-138800000D03*
D29*
X190520000Y-138800000D03*
X195600000Y-138800000D03*
%TD*%
D22*
%TO.C,J5*%
X162000000Y-71170000D03*
D23*
X162000000Y-73710000D03*
X162000000Y-76250000D03*
X162000000Y-78790000D03*
X162000000Y-81330000D03*
X162000000Y-83870000D03*
X162000000Y-86410000D03*
X162000000Y-88950000D03*
X162000000Y-91490000D03*
X162000000Y-94030000D03*
X162000000Y-96570000D03*
X162000000Y-99110000D03*
X162000000Y-101650000D03*
X162000000Y-104190000D03*
X162000000Y-106730000D03*
X162000000Y-109270000D03*
X162000000Y-111810000D03*
X162000000Y-114350000D03*
X162000000Y-116890000D03*
X162000000Y-119430000D03*
X162000000Y-121970000D03*
X162000000Y-124510000D03*
%TD*%
D30*
%TO.C,Q4*%
X167062500Y-134350000D03*
X167062500Y-136250000D03*
X168937500Y-135300000D03*
%TD*%
D31*
%TO.C,C1*%
X123800000Y-74250000D03*
X123800000Y-75800000D03*
%TD*%
D25*
%TO.C,R13*%
X181293750Y-76193750D03*
X181293750Y-73268750D03*
%TD*%
D31*
%TO.C,C5*%
X129300000Y-73800000D03*
X129300000Y-75350000D03*
%TD*%
D32*
%TO.C,R29*%
X113975000Y-119812500D03*
X113975000Y-122737500D03*
%TD*%
D33*
%TO.C,D3*%
X169675000Y-72525000D03*
X169675000Y-74400000D03*
%TD*%
D22*
%TO.C,J6*%
X194718000Y-96704000D03*
D23*
X197258000Y-96704000D03*
%TD*%
D22*
%TO.C,J13*%
X149294500Y-132195000D03*
D23*
X149294500Y-134735000D03*
%TD*%
D22*
%TO.C,J11*%
X140075000Y-131000000D03*
D23*
X137535000Y-131000000D03*
%TD*%
D33*
%TO.C,D5*%
X172715000Y-72525000D03*
X172715000Y-74400000D03*
%TD*%
D34*
%TO.C,R24*%
X153925000Y-127900000D03*
X152275000Y-127900000D03*
%TD*%
D22*
%TO.C,J2*%
X110175000Y-92230000D03*
D23*
X110175000Y-94770000D03*
X110175000Y-97310000D03*
%TD*%
D35*
%TO.C,J8*%
X192893750Y-84306250D03*
D36*
X192893750Y-83036250D03*
X192893750Y-81766250D03*
X192893750Y-80496250D03*
X192893750Y-79226250D03*
%TD*%
D37*
%TO.C,R5*%
X166675000Y-78350000D03*
X166675000Y-76700000D03*
%TD*%
D34*
%TO.C,R10*%
X200368750Y-87831250D03*
X198718750Y-87831250D03*
%TD*%
D38*
%TO.C,Q1*%
X198477000Y-100417000D03*
X196577000Y-100417000D03*
X197527000Y-102292000D03*
%TD*%
D39*
%TO.C,Q2*%
X178481250Y-75593750D03*
X178481250Y-73693750D03*
X176606250Y-74643750D03*
%TD*%
D31*
%TO.C,C9*%
X121780000Y-74250000D03*
X121780000Y-75800000D03*
%TD*%
D40*
%TO.C,TP1*%
X110200000Y-104100000D03*
%TD*%
D41*
%TO.C,D1*%
X144800000Y-140337500D03*
X144800000Y-138462500D03*
%TD*%
D22*
%TO.C,J3*%
X110175000Y-85790000D03*
D23*
X110175000Y-83250000D03*
X110175000Y-80710000D03*
X110175000Y-78170000D03*
X110175000Y-75630000D03*
%TD*%
D34*
%TO.C,R21*%
X160618500Y-136189000D03*
X158968500Y-136189000D03*
%TD*%
D42*
%TO.C,C2*%
X168225000Y-101100000D03*
X169775000Y-101100000D03*
%TD*%
D37*
%TO.C,R8*%
X200575000Y-106800000D03*
X200575000Y-105150000D03*
%TD*%
D43*
%TO.C,D4*%
X113900000Y-130200000D03*
X117200000Y-130200000D03*
X117200000Y-125300000D03*
X113900000Y-125300000D03*
%TD*%
D34*
%TO.C,R11*%
X200368750Y-74831250D03*
X198718750Y-74831250D03*
%TD*%
D27*
%TO.C,R9*%
X200600000Y-96075000D03*
X200600000Y-97725000D03*
%TD*%
D44*
%TO.C,D8*%
X178294500Y-130295000D03*
X175894500Y-130295000D03*
X175894500Y-136495000D03*
X178294500Y-136495000D03*
%TD*%
D45*
%TO.C,U5*%
X153824500Y-136145000D03*
X156364500Y-136145000D03*
X156364500Y-130645000D03*
X153824500Y-130645000D03*
%TD*%
D29*
%TO.C,K1*%
X196600000Y-114336000D03*
D46*
X190550000Y-116286000D03*
D29*
X190550000Y-128486000D03*
X202600000Y-128536000D03*
D46*
X202550000Y-116286000D03*
%TD*%
D25*
%TO.C,R28*%
X121037500Y-122737500D03*
X121037500Y-119812500D03*
%TD*%
D47*
%TO.C,R2*%
X129537500Y-79500000D03*
X132462500Y-79500000D03*
%TD*%
D43*
%TO.C,D9*%
X113900000Y-140900000D03*
X117200000Y-140900000D03*
X117200000Y-136000000D03*
X113900000Y-136000000D03*
%TD*%
D22*
%TO.C,J4*%
X136600000Y-71170000D03*
D23*
X136600000Y-73710000D03*
X136600000Y-76250000D03*
X136600000Y-78790000D03*
X136600000Y-81330000D03*
X136600000Y-83870000D03*
X136600000Y-86410000D03*
X136600000Y-88950000D03*
X136600000Y-91490000D03*
X136600000Y-94030000D03*
X136600000Y-96570000D03*
X136600000Y-99110000D03*
X136600000Y-101650000D03*
X136600000Y-104190000D03*
X136600000Y-106730000D03*
X136600000Y-109270000D03*
X136600000Y-111810000D03*
X136600000Y-114350000D03*
X136600000Y-116890000D03*
X136600000Y-119430000D03*
X136600000Y-121970000D03*
X136600000Y-124510000D03*
%TD*%
D27*
%TO.C,R4*%
X145000000Y-134775000D03*
X145000000Y-136425000D03*
%TD*%
D48*
%TO.C,D7*%
X194606000Y-107145000D03*
X194606000Y-105045000D03*
%TD*%
D30*
%TO.C,Q3*%
X187418750Y-73631250D03*
X187418750Y-75531250D03*
X189293750Y-74581250D03*
%TD*%
D39*
%TO.C,Q6*%
X118475000Y-122675000D03*
X118475000Y-120775000D03*
X116600000Y-121725000D03*
%TD*%
D49*
%TO.C,R20*%
X162714500Y-136189000D03*
X164364500Y-136189000D03*
%TD*%
D31*
%TO.C,C4*%
X131135000Y-70825000D03*
X131135000Y-72375000D03*
%TD*%
D22*
%TO.C,J14*%
X149494500Y-139995000D03*
D23*
X149494500Y-142535000D03*
%TD*%
D50*
%TO.C,D11*%
X172239500Y-135018000D03*
X172239500Y-131518000D03*
%TD*%
D31*
%TO.C,C3*%
X134000000Y-70825000D03*
X134000000Y-72375000D03*
%TD*%
D40*
%TO.C,TP2*%
X110175000Y-100750000D03*
%TD*%
D51*
%TO.C,U2*%
X136100000Y-140950000D03*
X138400000Y-140950000D03*
D52*
X138400000Y-134650000D03*
D51*
X140700000Y-140950000D03*
%TD*%
D25*
%TO.C,R14*%
X184293750Y-76293750D03*
X184293750Y-73368750D03*
%TD*%
D33*
%TO.C,D2*%
X166635000Y-72525000D03*
X166635000Y-74400000D03*
%TD*%
D53*
%TO.C,U3*%
X179598750Y-84056250D03*
X180868750Y-84056250D03*
X182138750Y-84056250D03*
X183408750Y-84056250D03*
X184678750Y-84056250D03*
X185948750Y-84056250D03*
X187218750Y-84056250D03*
X188488750Y-84056250D03*
X188488750Y-79106250D03*
X187218750Y-79106250D03*
X185948750Y-79106250D03*
X184678750Y-79106250D03*
X183408750Y-79106250D03*
X182138750Y-79106250D03*
X180868750Y-79106250D03*
X179598750Y-79106250D03*
%TD*%
D42*
%TO.C,C7*%
X191768750Y-76831250D03*
X193318750Y-76831250D03*
%TD*%
D22*
%TO.C,J10*%
X126555000Y-74250000D03*
D23*
X126555000Y-76790000D03*
%TD*%
D54*
%TO.C,U1*%
X140450000Y-71060000D03*
X140450000Y-72330000D03*
X140450000Y-73600000D03*
X140450000Y-74870000D03*
X140450000Y-76140000D03*
X140450000Y-77410000D03*
X140450000Y-78680000D03*
X140450000Y-79950000D03*
X140450000Y-81220000D03*
X140450000Y-82490000D03*
X140450000Y-83760000D03*
X140450000Y-85030000D03*
X140450000Y-86300000D03*
X140450000Y-87570000D03*
D43*
X142215000Y-88820000D03*
X143485000Y-88820000D03*
X144755000Y-88820000D03*
X146025000Y-88820000D03*
X147295000Y-88820000D03*
X148565000Y-88820000D03*
X149835000Y-88820000D03*
X151105000Y-88820000D03*
X152375000Y-88820000D03*
X153645000Y-88820000D03*
X154915000Y-88820000D03*
X156185000Y-88820000D03*
D54*
X157950000Y-87570000D03*
X157950000Y-86300000D03*
X157950000Y-85030000D03*
X157950000Y-83760000D03*
X157950000Y-82490000D03*
X157950000Y-81220000D03*
X157950000Y-79950000D03*
X157950000Y-78680000D03*
X157950000Y-77410000D03*
X157950000Y-76140000D03*
X157950000Y-74870000D03*
X157950000Y-73600000D03*
X157950000Y-72330000D03*
X157950000Y-71060000D03*
D55*
X146300000Y-77380000D03*
X146300000Y-78780000D03*
X146300000Y-80180000D03*
X146300000Y-80180000D03*
X147700000Y-77380000D03*
X147700000Y-77380000D03*
X147700000Y-78780000D03*
X147700000Y-80180000D03*
X149100000Y-77380000D03*
X149100000Y-78780000D03*
X149100000Y-80180000D03*
%TD*%
D22*
%TO.C,J12*%
X118050000Y-115825000D03*
D23*
X115510000Y-115825000D03*
%TD*%
D39*
%TO.C,Q5*%
X128375000Y-86220000D03*
X128375000Y-84320000D03*
X126500000Y-85270000D03*
%TD*%
D42*
%TO.C,C6*%
X138825000Y-143400000D03*
X140375000Y-143400000D03*
%TD*%
D37*
%TO.C,R6*%
X169675000Y-78350000D03*
X169675000Y-76700000D03*
%TD*%
%TO.C,R7*%
X172675000Y-78350000D03*
X172675000Y-76700000D03*
%TD*%
%LPD*%
M02*
