%TF.GenerationSoftware,KiCad,Pcbnew,7.0.6*%
%TF.CreationDate,2023-09-04T20:16:31+02:00*%
%TF.ProjectId,LAS_V2,4c41535f-5632-42e6-9b69-6361645f7063,rev?*%
%TF.SameCoordinates,Original*%
%TF.FileFunction,Paste,Top*%
%TF.FilePolarity,Positive*%
%FSLAX46Y46*%
G04 Gerber Fmt 4.6, Leading zero omitted, Abs format (unit mm)*
G04 Created by KiCad (PCBNEW 7.0.6) date 2023-09-04 20:16:31*
%MOMM*%
%LPD*%
G01*
G04 APERTURE LIST*
G04 Aperture macros list*
%AMRoundRect*
0 Rectangle with rounded corners*
0 $1 Rounding radius*
0 $2 $3 $4 $5 $6 $7 $8 $9 X,Y pos of 4 corners*
0 Add a 4 corners polygon primitive as box body*
4,1,4,$2,$3,$4,$5,$6,$7,$8,$9,$2,$3,0*
0 Add four circle primitives for the rounded corners*
1,1,$1+$1,$2,$3*
1,1,$1+$1,$4,$5*
1,1,$1+$1,$6,$7*
1,1,$1+$1,$8,$9*
0 Add four rect primitives between the rounded corners*
20,1,$1+$1,$2,$3,$4,$5,0*
20,1,$1+$1,$4,$5,$6,$7,0*
20,1,$1+$1,$6,$7,$8,$9,0*
20,1,$1+$1,$8,$9,$2,$3,0*%
G04 Aperture macros list end*
%ADD10O,2.000000X1.200000*%
%ADD11O,1.800000X1.200000*%
%ADD12R,1.300000X0.300000*%
%ADD13RoundRect,0.218750X-0.256250X0.218750X-0.256250X-0.218750X0.256250X-0.218750X0.256250X0.218750X0*%
%ADD14RoundRect,0.250000X0.625000X-0.312500X0.625000X0.312500X-0.625000X0.312500X-0.625000X-0.312500X0*%
%ADD15RoundRect,0.250000X0.312500X0.625000X-0.312500X0.625000X-0.312500X-0.625000X0.312500X-0.625000X0*%
%ADD16RoundRect,0.200000X-0.275000X0.200000X-0.275000X-0.200000X0.275000X-0.200000X0.275000X0.200000X0*%
%ADD17RoundRect,0.150000X-0.587500X-0.150000X0.587500X-0.150000X0.587500X0.150000X-0.587500X0.150000X0*%
%ADD18RoundRect,0.225000X-0.250000X0.225000X-0.250000X-0.225000X0.250000X-0.225000X0.250000X0.225000X0*%
%ADD19RoundRect,0.250000X-0.625000X0.312500X-0.625000X-0.312500X0.625000X-0.312500X0.625000X0.312500X0*%
%ADD20RoundRect,0.243750X-0.456250X0.243750X-0.456250X-0.243750X0.456250X-0.243750X0.456250X0.243750X0*%
%ADD21RoundRect,0.200000X0.200000X0.275000X-0.200000X0.275000X-0.200000X-0.275000X0.200000X-0.275000X0*%
%ADD22RoundRect,0.200000X0.275000X-0.200000X0.275000X0.200000X-0.275000X0.200000X-0.275000X-0.200000X0*%
%ADD23RoundRect,0.150000X-0.150000X0.587500X-0.150000X-0.587500X0.150000X-0.587500X0.150000X0.587500X0*%
%ADD24RoundRect,0.150000X0.587500X0.150000X-0.587500X0.150000X-0.587500X-0.150000X0.587500X-0.150000X0*%
%ADD25RoundRect,0.243750X0.456250X-0.243750X0.456250X0.243750X-0.456250X0.243750X-0.456250X-0.243750X0*%
%ADD26RoundRect,0.225000X-0.225000X-0.250000X0.225000X-0.250000X0.225000X0.250000X-0.225000X0.250000X0*%
%ADD27R,0.900000X1.500000*%
%ADD28R,1.100000X2.000000*%
%ADD29RoundRect,0.137500X0.137500X-0.587500X0.137500X0.587500X-0.137500X0.587500X-0.137500X-0.587500X0*%
%ADD30RoundRect,0.250000X-0.312500X-0.625000X0.312500X-0.625000X0.312500X0.625000X-0.312500X0.625000X0*%
%ADD31RoundRect,0.112500X0.112500X-0.187500X0.112500X0.187500X-0.112500X0.187500X-0.112500X-0.187500X0*%
%ADD32RoundRect,0.200000X-0.200000X-0.275000X0.200000X-0.275000X0.200000X0.275000X-0.200000X0.275000X0*%
%ADD33RoundRect,0.250000X0.600000X-0.400000X0.600000X0.400000X-0.600000X0.400000X-0.600000X-0.400000X0*%
%ADD34R,1.500000X2.000000*%
%ADD35R,3.800000X2.000000*%
%ADD36RoundRect,0.150000X0.150000X-0.825000X0.150000X0.825000X-0.150000X0.825000X-0.150000X-0.825000X0*%
%ADD37R,1.500000X0.900000*%
%ADD38R,0.900000X0.900000*%
G04 APERTURE END LIST*
%TO.C,J7*%
G36*
X197921250Y-83231250D02*
G01*
X196621250Y-83231250D01*
X196621250Y-82931250D01*
X197921250Y-82931250D01*
X197921250Y-83231250D01*
G37*
G36*
X197921250Y-82731250D02*
G01*
X196621250Y-82731250D01*
X196621250Y-82431250D01*
X197921250Y-82431250D01*
X197921250Y-82731250D01*
G37*
G36*
X197921250Y-82231250D02*
G01*
X196621250Y-82231250D01*
X196621250Y-81931250D01*
X197921250Y-81931250D01*
X197921250Y-82231250D01*
G37*
G36*
X197921250Y-81731250D02*
G01*
X196621250Y-81731250D01*
X196621250Y-81431250D01*
X197921250Y-81431250D01*
X197921250Y-81731250D01*
G37*
G36*
X197921250Y-81231250D02*
G01*
X196621250Y-81231250D01*
X196621250Y-80931250D01*
X197921250Y-80931250D01*
X197921250Y-81231250D01*
G37*
G36*
X197921250Y-80731250D02*
G01*
X196621250Y-80731250D01*
X196621250Y-80431250D01*
X197921250Y-80431250D01*
X197921250Y-80731250D01*
G37*
G36*
X197921250Y-80231250D02*
G01*
X196621250Y-80231250D01*
X196621250Y-79931250D01*
X197921250Y-79931250D01*
X197921250Y-80231250D01*
G37*
G36*
X197921250Y-79731250D02*
G01*
X196621250Y-79731250D01*
X196621250Y-79431250D01*
X197921250Y-79431250D01*
X197921250Y-79731250D01*
G37*
G36*
X197921250Y-84531250D02*
G01*
X197921250Y-84831250D01*
X196621250Y-84831250D01*
X196621250Y-84531250D01*
X196621250Y-84231250D01*
X197921250Y-84231250D01*
X197921250Y-84531250D01*
G37*
G36*
X197921250Y-83731250D02*
G01*
X197921250Y-84031250D01*
X196621250Y-84031250D01*
X196621250Y-83731250D01*
X196621250Y-83431250D01*
X197921250Y-83431250D01*
X197921250Y-83731250D01*
G37*
G36*
X197921250Y-78931250D02*
G01*
X197921250Y-79231250D01*
X196621250Y-79231250D01*
X196621250Y-78931250D01*
X196621250Y-78631250D01*
X197921250Y-78631250D01*
X197921250Y-78931250D01*
G37*
G36*
X197921250Y-78131250D02*
G01*
X197921250Y-78431250D01*
X196621250Y-78431250D01*
X196621250Y-78131250D01*
X196621250Y-77831250D01*
X197921250Y-77831250D01*
X197921250Y-78131250D01*
G37*
G36*
X202549250Y-85057250D02*
G01*
X202579250Y-85059250D01*
X202609250Y-85063250D01*
X202638250Y-85068250D01*
X202667250Y-85075250D01*
X202696250Y-85083250D01*
X202724250Y-85092250D01*
X202752250Y-85103250D01*
X202779250Y-85116250D01*
X202806250Y-85129250D01*
X202832250Y-85144250D01*
X202857250Y-85160250D01*
X202881250Y-85178250D01*
X202905250Y-85196250D01*
X202927250Y-85216250D01*
X202949250Y-85237250D01*
X202969250Y-85259250D01*
X202988250Y-85282250D01*
X203006250Y-85306250D01*
X203023250Y-85331250D01*
X203039250Y-85356250D01*
X203053250Y-85382250D01*
X203066250Y-85409250D01*
X203078250Y-85437250D01*
X203088250Y-85465250D01*
X203097250Y-85494250D01*
X203104250Y-85523250D01*
X203110250Y-85552250D01*
X203114250Y-85582250D01*
X203117250Y-85611250D01*
X203119250Y-85641250D01*
X203119250Y-85671250D01*
X203117250Y-85701250D01*
X203114250Y-85731250D01*
X203110250Y-85760250D01*
X203104250Y-85790250D01*
X203097250Y-85819250D01*
X203088250Y-85847250D01*
X203078250Y-85875250D01*
X203066250Y-85903250D01*
X203053250Y-85930250D01*
X203039250Y-85956250D01*
X203023250Y-85982250D01*
X203006250Y-86006250D01*
X202988250Y-86030250D01*
X202969250Y-86053250D01*
X202949250Y-86075250D01*
X202927250Y-86096250D01*
X202905250Y-86116250D01*
X202881250Y-86134250D01*
X202857250Y-86152250D01*
X202832250Y-86168250D01*
X202806250Y-86183250D01*
X202779250Y-86197250D01*
X202752250Y-86209250D01*
X202724250Y-86220250D01*
X202696250Y-86229250D01*
X202667250Y-86238250D01*
X202638250Y-86244250D01*
X202609250Y-86249250D01*
X202579250Y-86253250D01*
X202549250Y-86255250D01*
X202519250Y-86256250D01*
X201919250Y-86256250D01*
X201889250Y-86255250D01*
X201859250Y-86253250D01*
X201830250Y-86249250D01*
X201800250Y-86244250D01*
X201771250Y-86238250D01*
X201742250Y-86229250D01*
X201714250Y-86220250D01*
X201686250Y-86209250D01*
X201659250Y-86197250D01*
X201632250Y-86183250D01*
X201606250Y-86168250D01*
X201581250Y-86152250D01*
X201557250Y-86134250D01*
X201533250Y-86116250D01*
X201511250Y-86096250D01*
X201490250Y-86075250D01*
X201469250Y-86053250D01*
X201450250Y-86030250D01*
X201432250Y-86006250D01*
X201415250Y-85982250D01*
X201400250Y-85956250D01*
X201385250Y-85930250D01*
X201372250Y-85903250D01*
X201361250Y-85875250D01*
X201350250Y-85847250D01*
X201342250Y-85819250D01*
X201334250Y-85790250D01*
X201328250Y-85760250D01*
X201324250Y-85731250D01*
X201321250Y-85701250D01*
X201319250Y-85671250D01*
X201319250Y-85641250D01*
X201321250Y-85611250D01*
X201324250Y-85582250D01*
X201328250Y-85552250D01*
X201334250Y-85523250D01*
X201342250Y-85494250D01*
X201350250Y-85465250D01*
X201361250Y-85437250D01*
X201372250Y-85409250D01*
X201385250Y-85382250D01*
X201400250Y-85356250D01*
X201415250Y-85331250D01*
X201432250Y-85306250D01*
X201450250Y-85282250D01*
X201469250Y-85259250D01*
X201490250Y-85237250D01*
X201511250Y-85216250D01*
X201533250Y-85196250D01*
X201557250Y-85178250D01*
X201581250Y-85160250D01*
X201606250Y-85144250D01*
X201632250Y-85129250D01*
X201659250Y-85116250D01*
X201686250Y-85103250D01*
X201714250Y-85092250D01*
X201742250Y-85083250D01*
X201771250Y-85075250D01*
X201800250Y-85068250D01*
X201830250Y-85063250D01*
X201859250Y-85059250D01*
X201889250Y-85057250D01*
X201919250Y-85056250D01*
X202519250Y-85056250D01*
X202549250Y-85057250D01*
G37*
G36*
X198469250Y-85057250D02*
G01*
X198499250Y-85059250D01*
X198529250Y-85063250D01*
X198558250Y-85068250D01*
X198587250Y-85075250D01*
X198616250Y-85083250D01*
X198644250Y-85092250D01*
X198672250Y-85103250D01*
X198700250Y-85116250D01*
X198726250Y-85129250D01*
X198752250Y-85144250D01*
X198777250Y-85160250D01*
X198801250Y-85178250D01*
X198825250Y-85196250D01*
X198847250Y-85216250D01*
X198869250Y-85237250D01*
X198889250Y-85259250D01*
X198908250Y-85282250D01*
X198926250Y-85306250D01*
X198943250Y-85331250D01*
X198959250Y-85356250D01*
X198973250Y-85382250D01*
X198986250Y-85409250D01*
X198998250Y-85437250D01*
X199008250Y-85465250D01*
X199017250Y-85494250D01*
X199024250Y-85523250D01*
X199030250Y-85552250D01*
X199035250Y-85582250D01*
X199038250Y-85611250D01*
X199039250Y-85641250D01*
X199039250Y-85671250D01*
X199038250Y-85701250D01*
X199035250Y-85731250D01*
X199030250Y-85760250D01*
X199024250Y-85790250D01*
X199017250Y-85819250D01*
X199008250Y-85847250D01*
X198998250Y-85875250D01*
X198986250Y-85903250D01*
X198973250Y-85930250D01*
X198959250Y-85956250D01*
X198943250Y-85982250D01*
X198926250Y-86006250D01*
X198908250Y-86030250D01*
X198889250Y-86053250D01*
X198869250Y-86075250D01*
X198847250Y-86096250D01*
X198825250Y-86116250D01*
X198801250Y-86134250D01*
X198777250Y-86152250D01*
X198752250Y-86168250D01*
X198726250Y-86183250D01*
X198700250Y-86197250D01*
X198672250Y-86209250D01*
X198644250Y-86220250D01*
X198616250Y-86229250D01*
X198587250Y-86238250D01*
X198558250Y-86244250D01*
X198529250Y-86249250D01*
X198499250Y-86253250D01*
X198469250Y-86255250D01*
X198439250Y-86256250D01*
X197639250Y-86256250D01*
X197609250Y-86255250D01*
X197579250Y-86253250D01*
X197550250Y-86249250D01*
X197520250Y-86244250D01*
X197491250Y-86238250D01*
X197462250Y-86229250D01*
X197434250Y-86220250D01*
X197406250Y-86209250D01*
X197379250Y-86197250D01*
X197352250Y-86183250D01*
X197326250Y-86168250D01*
X197301250Y-86152250D01*
X197277250Y-86134250D01*
X197254250Y-86116250D01*
X197231250Y-86096250D01*
X197210250Y-86075250D01*
X197189250Y-86053250D01*
X197170250Y-86030250D01*
X197152250Y-86006250D01*
X197135250Y-85982250D01*
X197120250Y-85956250D01*
X197105250Y-85930250D01*
X197092250Y-85903250D01*
X197081250Y-85875250D01*
X197070250Y-85847250D01*
X197062250Y-85819250D01*
X197054250Y-85790250D01*
X197048250Y-85760250D01*
X197044250Y-85731250D01*
X197041250Y-85701250D01*
X197039250Y-85671250D01*
X197039250Y-85641250D01*
X197041250Y-85611250D01*
X197044250Y-85582250D01*
X197048250Y-85552250D01*
X197054250Y-85523250D01*
X197062250Y-85494250D01*
X197070250Y-85465250D01*
X197081250Y-85437250D01*
X197092250Y-85409250D01*
X197105250Y-85382250D01*
X197120250Y-85356250D01*
X197135250Y-85331250D01*
X197152250Y-85306250D01*
X197170250Y-85282250D01*
X197189250Y-85259250D01*
X197210250Y-85237250D01*
X197231250Y-85216250D01*
X197254250Y-85196250D01*
X197277250Y-85178250D01*
X197301250Y-85160250D01*
X197326250Y-85144250D01*
X197352250Y-85129250D01*
X197379250Y-85116250D01*
X197406250Y-85103250D01*
X197434250Y-85092250D01*
X197462250Y-85083250D01*
X197491250Y-85075250D01*
X197520250Y-85068250D01*
X197550250Y-85063250D01*
X197579250Y-85059250D01*
X197609250Y-85057250D01*
X197639250Y-85056250D01*
X198439250Y-85056250D01*
X198469250Y-85057250D01*
G37*
G36*
X198469250Y-76407250D02*
G01*
X198499250Y-76409250D01*
X198529250Y-76413250D01*
X198558250Y-76418250D01*
X198587250Y-76424250D01*
X198616250Y-76433250D01*
X198644250Y-76442250D01*
X198672250Y-76453250D01*
X198700250Y-76465250D01*
X198726250Y-76479250D01*
X198752250Y-76494250D01*
X198777250Y-76510250D01*
X198801250Y-76528250D01*
X198825250Y-76546250D01*
X198847250Y-76566250D01*
X198869250Y-76587250D01*
X198889250Y-76609250D01*
X198908250Y-76632250D01*
X198926250Y-76656250D01*
X198943250Y-76680250D01*
X198959250Y-76706250D01*
X198973250Y-76732250D01*
X198986250Y-76759250D01*
X198998250Y-76787250D01*
X199008250Y-76815250D01*
X199017250Y-76843250D01*
X199024250Y-76872250D01*
X199030250Y-76902250D01*
X199035250Y-76931250D01*
X199038250Y-76961250D01*
X199039250Y-76991250D01*
X199039250Y-77021250D01*
X199038250Y-77051250D01*
X199035250Y-77080250D01*
X199030250Y-77110250D01*
X199024250Y-77139250D01*
X199017250Y-77168250D01*
X199008250Y-77197250D01*
X198998250Y-77225250D01*
X198986250Y-77253250D01*
X198973250Y-77280250D01*
X198959250Y-77306250D01*
X198943250Y-77331250D01*
X198926250Y-77356250D01*
X198908250Y-77380250D01*
X198889250Y-77403250D01*
X198869250Y-77425250D01*
X198847250Y-77446250D01*
X198825250Y-77466250D01*
X198801250Y-77484250D01*
X198777250Y-77502250D01*
X198752250Y-77518250D01*
X198726250Y-77533250D01*
X198700250Y-77546250D01*
X198672250Y-77559250D01*
X198644250Y-77570250D01*
X198616250Y-77579250D01*
X198587250Y-77587250D01*
X198558250Y-77594250D01*
X198529250Y-77599250D01*
X198499250Y-77603250D01*
X198469250Y-77605250D01*
X198439250Y-77606250D01*
X197639250Y-77606250D01*
X197609250Y-77605250D01*
X197579250Y-77603250D01*
X197550250Y-77599250D01*
X197520250Y-77594250D01*
X197491250Y-77587250D01*
X197462250Y-77579250D01*
X197434250Y-77570250D01*
X197406250Y-77559250D01*
X197379250Y-77546250D01*
X197352250Y-77533250D01*
X197326250Y-77518250D01*
X197301250Y-77502250D01*
X197277250Y-77484250D01*
X197254250Y-77466250D01*
X197231250Y-77446250D01*
X197210250Y-77425250D01*
X197189250Y-77403250D01*
X197170250Y-77380250D01*
X197152250Y-77356250D01*
X197135250Y-77331250D01*
X197120250Y-77306250D01*
X197105250Y-77280250D01*
X197092250Y-77253250D01*
X197081250Y-77225250D01*
X197070250Y-77197250D01*
X197062250Y-77168250D01*
X197054250Y-77139250D01*
X197048250Y-77110250D01*
X197044250Y-77080250D01*
X197041250Y-77051250D01*
X197039250Y-77021250D01*
X197039250Y-76991250D01*
X197041250Y-76961250D01*
X197044250Y-76931250D01*
X197048250Y-76902250D01*
X197054250Y-76872250D01*
X197062250Y-76843250D01*
X197070250Y-76815250D01*
X197081250Y-76787250D01*
X197092250Y-76759250D01*
X197105250Y-76732250D01*
X197120250Y-76706250D01*
X197135250Y-76680250D01*
X197152250Y-76656250D01*
X197170250Y-76632250D01*
X197189250Y-76609250D01*
X197210250Y-76587250D01*
X197231250Y-76566250D01*
X197254250Y-76546250D01*
X197277250Y-76528250D01*
X197301250Y-76510250D01*
X197326250Y-76494250D01*
X197352250Y-76479250D01*
X197379250Y-76465250D01*
X197406250Y-76453250D01*
X197434250Y-76442250D01*
X197462250Y-76433250D01*
X197491250Y-76424250D01*
X197520250Y-76418250D01*
X197550250Y-76413250D01*
X197579250Y-76409250D01*
X197609250Y-76407250D01*
X197639250Y-76406250D01*
X198439250Y-76406250D01*
X198469250Y-76407250D01*
G37*
G36*
X202549250Y-76407250D02*
G01*
X202579250Y-76409250D01*
X202609250Y-76413250D01*
X202638250Y-76418250D01*
X202667250Y-76424250D01*
X202696250Y-76433250D01*
X202724250Y-76442250D01*
X202752250Y-76453250D01*
X202779250Y-76465250D01*
X202806250Y-76479250D01*
X202832250Y-76494250D01*
X202857250Y-76510250D01*
X202881250Y-76528250D01*
X202905250Y-76546250D01*
X202927250Y-76566250D01*
X202949250Y-76587250D01*
X202969250Y-76609250D01*
X202988250Y-76632250D01*
X203006250Y-76656250D01*
X203023250Y-76680250D01*
X203039250Y-76706250D01*
X203053250Y-76732250D01*
X203066250Y-76759250D01*
X203078250Y-76787250D01*
X203088250Y-76815250D01*
X203097250Y-76843250D01*
X203104250Y-76872250D01*
X203110250Y-76902250D01*
X203114250Y-76931250D01*
X203117250Y-76961250D01*
X203119250Y-76991250D01*
X203119250Y-77021250D01*
X203117250Y-77051250D01*
X203114250Y-77080250D01*
X203110250Y-77110250D01*
X203104250Y-77139250D01*
X203097250Y-77168250D01*
X203088250Y-77197250D01*
X203078250Y-77225250D01*
X203066250Y-77253250D01*
X203053250Y-77280250D01*
X203039250Y-77306250D01*
X203023250Y-77331250D01*
X203006250Y-77356250D01*
X202988250Y-77380250D01*
X202969250Y-77403250D01*
X202949250Y-77425250D01*
X202927250Y-77446250D01*
X202905250Y-77466250D01*
X202881250Y-77484250D01*
X202857250Y-77502250D01*
X202832250Y-77518250D01*
X202806250Y-77533250D01*
X202779250Y-77546250D01*
X202752250Y-77559250D01*
X202724250Y-77570250D01*
X202696250Y-77579250D01*
X202667250Y-77587250D01*
X202638250Y-77594250D01*
X202609250Y-77599250D01*
X202579250Y-77603250D01*
X202549250Y-77605250D01*
X202519250Y-77606250D01*
X201919250Y-77606250D01*
X201889250Y-77605250D01*
X201859250Y-77603250D01*
X201830250Y-77599250D01*
X201800250Y-77594250D01*
X201771250Y-77587250D01*
X201742250Y-77579250D01*
X201714250Y-77570250D01*
X201686250Y-77559250D01*
X201659250Y-77546250D01*
X201632250Y-77533250D01*
X201606250Y-77518250D01*
X201581250Y-77502250D01*
X201557250Y-77484250D01*
X201533250Y-77466250D01*
X201511250Y-77446250D01*
X201490250Y-77425250D01*
X201469250Y-77403250D01*
X201450250Y-77380250D01*
X201432250Y-77356250D01*
X201415250Y-77331250D01*
X201400250Y-77306250D01*
X201385250Y-77280250D01*
X201372250Y-77253250D01*
X201361250Y-77225250D01*
X201350250Y-77197250D01*
X201342250Y-77168250D01*
X201334250Y-77139250D01*
X201328250Y-77110250D01*
X201324250Y-77080250D01*
X201321250Y-77051250D01*
X201319250Y-77021250D01*
X201319250Y-76991250D01*
X201321250Y-76961250D01*
X201324250Y-76931250D01*
X201328250Y-76902250D01*
X201334250Y-76872250D01*
X201342250Y-76843250D01*
X201350250Y-76815250D01*
X201361250Y-76787250D01*
X201372250Y-76759250D01*
X201385250Y-76732250D01*
X201400250Y-76706250D01*
X201415250Y-76680250D01*
X201432250Y-76656250D01*
X201450250Y-76632250D01*
X201469250Y-76609250D01*
X201490250Y-76587250D01*
X201511250Y-76566250D01*
X201533250Y-76546250D01*
X201557250Y-76528250D01*
X201581250Y-76510250D01*
X201606250Y-76494250D01*
X201632250Y-76479250D01*
X201659250Y-76465250D01*
X201686250Y-76453250D01*
X201714250Y-76442250D01*
X201742250Y-76433250D01*
X201771250Y-76424250D01*
X201800250Y-76418250D01*
X201830250Y-76413250D01*
X201859250Y-76409250D01*
X201889250Y-76407250D01*
X201919250Y-76406250D01*
X202519250Y-76406250D01*
X202549250Y-76407250D01*
G37*
%TD*%
D10*
%TO.C,J7*%
X198039250Y-85656250D03*
X198039250Y-77006250D03*
D11*
X202219250Y-77006250D03*
X202219250Y-85656250D03*
D12*
X197271250Y-84681250D03*
X197271250Y-83881250D03*
X197271250Y-82581250D03*
X197271250Y-81581250D03*
X197271250Y-81081250D03*
X197271250Y-80081250D03*
X197271250Y-78781250D03*
X197271250Y-77981250D03*
X197271250Y-78281250D03*
X197271250Y-79081250D03*
X197271250Y-79581250D03*
X197271250Y-80581250D03*
X197271250Y-82081250D03*
X197271250Y-83081250D03*
X197271250Y-83581250D03*
X197271250Y-84381250D03*
%TD*%
D13*
%TO.C,D6*%
X197527000Y-105187500D03*
X197527000Y-106762500D03*
%TD*%
D14*
%TO.C,R26*%
X131310000Y-86932500D03*
X131310000Y-84007500D03*
%TD*%
D15*
%TO.C,R27*%
X131612500Y-81970000D03*
X128687500Y-81970000D03*
%TD*%
D16*
%TO.C,R12*%
X119780000Y-74200000D03*
X119780000Y-75850000D03*
%TD*%
D17*
%TO.C,Q4*%
X167062500Y-134350000D03*
X167062500Y-136250000D03*
X168937500Y-135300000D03*
%TD*%
D18*
%TO.C,C1*%
X123800000Y-74250000D03*
X123800000Y-75800000D03*
%TD*%
D14*
%TO.C,R13*%
X181293750Y-76193750D03*
X181293750Y-73268750D03*
%TD*%
D18*
%TO.C,C5*%
X129300000Y-73800000D03*
X129300000Y-75350000D03*
%TD*%
D19*
%TO.C,R29*%
X113975000Y-119812500D03*
X113975000Y-122737500D03*
%TD*%
D20*
%TO.C,D3*%
X169675000Y-72525000D03*
X169675000Y-74400000D03*
%TD*%
%TO.C,D5*%
X172715000Y-72525000D03*
X172715000Y-74400000D03*
%TD*%
D21*
%TO.C,R24*%
X153925000Y-127900000D03*
X152275000Y-127900000D03*
%TD*%
D22*
%TO.C,R5*%
X166675000Y-78350000D03*
X166675000Y-76700000D03*
%TD*%
D21*
%TO.C,R10*%
X200368750Y-87831250D03*
X198718750Y-87831250D03*
%TD*%
D23*
%TO.C,Q1*%
X198477000Y-100417000D03*
X196577000Y-100417000D03*
X197527000Y-102292000D03*
%TD*%
D24*
%TO.C,Q2*%
X178481250Y-75593750D03*
X178481250Y-73693750D03*
X176606250Y-74643750D03*
%TD*%
D18*
%TO.C,C9*%
X121780000Y-74250000D03*
X121780000Y-75800000D03*
%TD*%
D25*
%TO.C,D1*%
X144800000Y-140337500D03*
X144800000Y-138462500D03*
%TD*%
D21*
%TO.C,R21*%
X160618500Y-136189000D03*
X158968500Y-136189000D03*
%TD*%
D26*
%TO.C,C2*%
X168225000Y-101100000D03*
X169775000Y-101100000D03*
%TD*%
D22*
%TO.C,R8*%
X200575000Y-106800000D03*
X200575000Y-105150000D03*
%TD*%
D27*
%TO.C,D4*%
X113900000Y-130200000D03*
X117200000Y-130200000D03*
X117200000Y-125300000D03*
X113900000Y-125300000D03*
%TD*%
D21*
%TO.C,R11*%
X200368750Y-74831250D03*
X198718750Y-74831250D03*
%TD*%
D16*
%TO.C,R9*%
X200600000Y-96075000D03*
X200600000Y-97725000D03*
%TD*%
D28*
%TO.C,D8*%
X178294500Y-130295000D03*
X175894500Y-130295000D03*
X175894500Y-136495000D03*
X178294500Y-136495000D03*
%TD*%
D29*
%TO.C,U5*%
X153824500Y-136145000D03*
X156364500Y-136145000D03*
X156364500Y-130645000D03*
X153824500Y-130645000D03*
%TD*%
D14*
%TO.C,R28*%
X121037500Y-122737500D03*
X121037500Y-119812500D03*
%TD*%
D30*
%TO.C,R2*%
X129537500Y-79500000D03*
X132462500Y-79500000D03*
%TD*%
D27*
%TO.C,D9*%
X113900000Y-140900000D03*
X117200000Y-140900000D03*
X117200000Y-136000000D03*
X113900000Y-136000000D03*
%TD*%
D16*
%TO.C,R4*%
X145000000Y-134775000D03*
X145000000Y-136425000D03*
%TD*%
D31*
%TO.C,D7*%
X194606000Y-107145000D03*
X194606000Y-105045000D03*
%TD*%
D17*
%TO.C,Q3*%
X187418750Y-73631250D03*
X187418750Y-75531250D03*
X189293750Y-74581250D03*
%TD*%
D24*
%TO.C,Q6*%
X118475000Y-122675000D03*
X118475000Y-120775000D03*
X116600000Y-121725000D03*
%TD*%
D32*
%TO.C,R20*%
X162714500Y-136189000D03*
X164364500Y-136189000D03*
%TD*%
D18*
%TO.C,C4*%
X131135000Y-70825000D03*
X131135000Y-72375000D03*
%TD*%
D33*
%TO.C,D11*%
X172239500Y-135018000D03*
X172239500Y-131518000D03*
%TD*%
D18*
%TO.C,C3*%
X134000000Y-70825000D03*
X134000000Y-72375000D03*
%TD*%
D34*
%TO.C,U2*%
X136100000Y-140950000D03*
X138400000Y-140950000D03*
D35*
X138400000Y-134650000D03*
D34*
X140700000Y-140950000D03*
%TD*%
D14*
%TO.C,R14*%
X184293750Y-76293750D03*
X184293750Y-73368750D03*
%TD*%
D20*
%TO.C,D2*%
X166635000Y-72525000D03*
X166635000Y-74400000D03*
%TD*%
D36*
%TO.C,U3*%
X179598750Y-84056250D03*
X180868750Y-84056250D03*
X182138750Y-84056250D03*
X183408750Y-84056250D03*
X184678750Y-84056250D03*
X185948750Y-84056250D03*
X187218750Y-84056250D03*
X188488750Y-84056250D03*
X188488750Y-79106250D03*
X187218750Y-79106250D03*
X185948750Y-79106250D03*
X184678750Y-79106250D03*
X183408750Y-79106250D03*
X182138750Y-79106250D03*
X180868750Y-79106250D03*
X179598750Y-79106250D03*
%TD*%
D26*
%TO.C,C7*%
X191768750Y-76831250D03*
X193318750Y-76831250D03*
%TD*%
D37*
%TO.C,U1*%
X140450000Y-71060000D03*
X140450000Y-72330000D03*
X140450000Y-73600000D03*
X140450000Y-74870000D03*
X140450000Y-76140000D03*
X140450000Y-77410000D03*
X140450000Y-78680000D03*
X140450000Y-79950000D03*
X140450000Y-81220000D03*
X140450000Y-82490000D03*
X140450000Y-83760000D03*
X140450000Y-85030000D03*
X140450000Y-86300000D03*
X140450000Y-87570000D03*
D27*
X142215000Y-88820000D03*
X143485000Y-88820000D03*
X144755000Y-88820000D03*
X146025000Y-88820000D03*
X147295000Y-88820000D03*
X148565000Y-88820000D03*
X149835000Y-88820000D03*
X151105000Y-88820000D03*
X152375000Y-88820000D03*
X153645000Y-88820000D03*
X154915000Y-88820000D03*
X156185000Y-88820000D03*
D37*
X157950000Y-87570000D03*
X157950000Y-86300000D03*
X157950000Y-85030000D03*
X157950000Y-83760000D03*
X157950000Y-82490000D03*
X157950000Y-81220000D03*
X157950000Y-79950000D03*
X157950000Y-78680000D03*
X157950000Y-77410000D03*
X157950000Y-76140000D03*
X157950000Y-74870000D03*
X157950000Y-73600000D03*
X157950000Y-72330000D03*
X157950000Y-71060000D03*
D38*
X146300000Y-77380000D03*
X146300000Y-78780000D03*
X146300000Y-80180000D03*
X146300000Y-80180000D03*
X147700000Y-77380000D03*
X147700000Y-77380000D03*
X147700000Y-78780000D03*
X147700000Y-80180000D03*
X149100000Y-77380000D03*
X149100000Y-78780000D03*
X149100000Y-80180000D03*
%TD*%
D24*
%TO.C,Q5*%
X128375000Y-86220000D03*
X128375000Y-84320000D03*
X126500000Y-85270000D03*
%TD*%
D26*
%TO.C,C6*%
X138825000Y-143400000D03*
X140375000Y-143400000D03*
%TD*%
D22*
%TO.C,R6*%
X169675000Y-78350000D03*
X169675000Y-76700000D03*
%TD*%
%TO.C,R7*%
X172675000Y-78350000D03*
X172675000Y-76700000D03*
%TD*%
M02*
