%TF.GenerationSoftware,KiCad,Pcbnew,7.0.1*%
%TF.CreationDate,2023-08-29T13:16:49+02:00*%
%TF.ProjectId,LAS_V1,4c41535f-5631-42e6-9b69-6361645f7063,rev?*%
%TF.SameCoordinates,Original*%
%TF.FileFunction,Legend,Bot*%
%TF.FilePolarity,Positive*%
%FSLAX46Y46*%
G04 Gerber Fmt 4.6, Leading zero omitted, Abs format (unit mm)*
G04 Created by KiCad (PCBNEW 7.0.1) date 2023-08-29 13:16:49*
%MOMM*%
%LPD*%
G01*
G04 APERTURE LIST*
%ADD10O,1.000000X1.000000*%
%ADD11R,1.000000X1.000000*%
%ADD12C,2.400000*%
%ADD13O,2.400000X2.400000*%
%ADD14C,3.000000*%
%ADD15C,2.500000*%
%ADD16C,0.750000*%
%ADD17O,2.000000X1.200000*%
%ADD18O,1.800000X1.200000*%
%ADD19R,2.600000X2.600000*%
%ADD20C,2.600000*%
G04 APERTURE END LIST*
%LPC*%
D10*
%TO.C,SW2*%
X98730000Y-61510000D03*
D11*
X100000000Y-61510000D03*
%TD*%
D10*
%TO.C,SW1*%
X98480000Y-67510000D03*
D11*
X99750000Y-67510000D03*
%TD*%
D12*
%TO.C,R17*%
X156500000Y-123000000D03*
D13*
X181900000Y-123000000D03*
%TD*%
D14*
%TO.C,K1*%
X140950000Y-148150000D03*
D15*
X147000000Y-146200000D03*
D14*
X147000000Y-134000000D03*
X134950000Y-133950000D03*
D15*
X135000000Y-146200000D03*
%TD*%
D11*
%TO.C,J9*%
X178300000Y-128450000D03*
D10*
X178300000Y-129720000D03*
%TD*%
D11*
%TO.C,J8*%
X181000000Y-71500000D03*
D10*
X181000000Y-72770000D03*
X181000000Y-74040000D03*
X181000000Y-75310000D03*
X181000000Y-76580000D03*
%TD*%
D16*
%TO.C,J7*%
X178245500Y-64900000D03*
X178245500Y-59100000D03*
D17*
X177745500Y-66325000D03*
X177745500Y-57675000D03*
D18*
X181925500Y-57675000D03*
X181925500Y-66325000D03*
%TD*%
D11*
%TO.C,J6*%
X114500000Y-140500000D03*
D10*
X113230000Y-140500000D03*
%TD*%
D11*
%TO.C,J5*%
X134450000Y-69250000D03*
D10*
X134450000Y-70520000D03*
X134450000Y-71790000D03*
X134450000Y-73060000D03*
X134450000Y-74330000D03*
X134450000Y-75600000D03*
X134450000Y-76870000D03*
X134450000Y-78140000D03*
X134450000Y-79410000D03*
X134450000Y-80680000D03*
X134450000Y-81950000D03*
X134450000Y-83220000D03*
X134450000Y-84490000D03*
X134450000Y-85760000D03*
X134450000Y-87030000D03*
X134450000Y-88300000D03*
X134450000Y-89570000D03*
X134450000Y-90840000D03*
X134450000Y-92110000D03*
X134450000Y-93380000D03*
X134450000Y-94650000D03*
X134450000Y-95920000D03*
%TD*%
%TO.C,J4*%
X109050000Y-95920000D03*
X109050000Y-94650000D03*
X109050000Y-93380000D03*
X109050000Y-92110000D03*
X109050000Y-90840000D03*
X109050000Y-89570000D03*
X109050000Y-88300000D03*
X109050000Y-87030000D03*
X109050000Y-85760000D03*
X109050000Y-84490000D03*
X109050000Y-83220000D03*
X109050000Y-81950000D03*
X109050000Y-80680000D03*
X109050000Y-79410000D03*
X109050000Y-78140000D03*
X109050000Y-76870000D03*
X109050000Y-75600000D03*
X109050000Y-74330000D03*
X109050000Y-73060000D03*
X109050000Y-71790000D03*
X109050000Y-70520000D03*
D11*
X109050000Y-69250000D03*
%TD*%
%TO.C,J3*%
X104500000Y-103690000D03*
D10*
X104500000Y-104960000D03*
X104500000Y-106230000D03*
X104500000Y-107500000D03*
X104500000Y-108770000D03*
%TD*%
D11*
%TO.C,J2*%
X119000000Y-104225000D03*
D10*
X119000000Y-105495000D03*
X119000000Y-106765000D03*
%TD*%
D19*
%TO.C,J1*%
X163340000Y-144000000D03*
D20*
X168420000Y-144000000D03*
X173500000Y-144000000D03*
X178580000Y-144000000D03*
%TD*%
M02*
