%TF.GenerationSoftware,KiCad,Pcbnew,7.0.1*%
%TF.CreationDate,2023-08-30T08:57:10+02:00*%
%TF.ProjectId,LAS_V1,4c41535f-5631-42e6-9b69-6361645f7063,rev?*%
%TF.SameCoordinates,Original*%
%TF.FileFunction,Other,Comment*%
%FSLAX46Y46*%
G04 Gerber Fmt 4.6, Leading zero omitted, Abs format (unit mm)*
G04 Created by KiCad (PCBNEW 7.0.1) date 2023-08-30 08:57:10*
%MOMM*%
%LPD*%
G01*
G04 APERTURE LIST*
%ADD10C,0.150000*%
%ADD11C,0.250000*%
G04 APERTURE END LIST*
D10*
%TO.C,J7*%
X153647452Y-75995238D02*
X154456976Y-75995238D01*
X154456976Y-75995238D02*
X154552214Y-76042857D01*
X154552214Y-76042857D02*
X154599833Y-76090476D01*
X154599833Y-76090476D02*
X154647452Y-76185714D01*
X154647452Y-76185714D02*
X154647452Y-76328571D01*
X154647452Y-76328571D02*
X154599833Y-76423809D01*
X154266500Y-75995238D02*
X154314119Y-76090476D01*
X154314119Y-76090476D02*
X154314119Y-76280952D01*
X154314119Y-76280952D02*
X154266500Y-76376190D01*
X154266500Y-76376190D02*
X154218880Y-76423809D01*
X154218880Y-76423809D02*
X154123642Y-76471428D01*
X154123642Y-76471428D02*
X153837928Y-76471428D01*
X153837928Y-76471428D02*
X153742690Y-76423809D01*
X153742690Y-76423809D02*
X153695071Y-76376190D01*
X153695071Y-76376190D02*
X153647452Y-76280952D01*
X153647452Y-76280952D02*
X153647452Y-76090476D01*
X153647452Y-76090476D02*
X153695071Y-75995238D01*
X153647452Y-75090476D02*
X154456976Y-75090476D01*
X154456976Y-75090476D02*
X154552214Y-75138095D01*
X154552214Y-75138095D02*
X154599833Y-75185714D01*
X154599833Y-75185714D02*
X154647452Y-75280952D01*
X154647452Y-75280952D02*
X154647452Y-75423809D01*
X154647452Y-75423809D02*
X154599833Y-75519047D01*
X154266500Y-75090476D02*
X154314119Y-75185714D01*
X154314119Y-75185714D02*
X154314119Y-75376190D01*
X154314119Y-75376190D02*
X154266500Y-75471428D01*
X154266500Y-75471428D02*
X154218880Y-75519047D01*
X154218880Y-75519047D02*
X154123642Y-75566666D01*
X154123642Y-75566666D02*
X153837928Y-75566666D01*
X153837928Y-75566666D02*
X153742690Y-75519047D01*
X153742690Y-75519047D02*
X153695071Y-75471428D01*
X153695071Y-75471428D02*
X153647452Y-75376190D01*
X153647452Y-75376190D02*
X153647452Y-75185714D01*
X153647452Y-75185714D02*
X153695071Y-75090476D01*
X154266500Y-74233333D02*
X154314119Y-74328571D01*
X154314119Y-74328571D02*
X154314119Y-74519047D01*
X154314119Y-74519047D02*
X154266500Y-74614285D01*
X154266500Y-74614285D02*
X154171261Y-74661904D01*
X154171261Y-74661904D02*
X153790309Y-74661904D01*
X153790309Y-74661904D02*
X153695071Y-74614285D01*
X153695071Y-74614285D02*
X153647452Y-74519047D01*
X153647452Y-74519047D02*
X153647452Y-74328571D01*
X153647452Y-74328571D02*
X153695071Y-74233333D01*
X153695071Y-74233333D02*
X153790309Y-74185714D01*
X153790309Y-74185714D02*
X153885547Y-74185714D01*
X153885547Y-74185714D02*
X153980785Y-74661904D01*
X153314119Y-73280952D02*
X153314119Y-73757142D01*
X153314119Y-73757142D02*
X153790309Y-73804761D01*
X153790309Y-73804761D02*
X153742690Y-73757142D01*
X153742690Y-73757142D02*
X153695071Y-73661904D01*
X153695071Y-73661904D02*
X153695071Y-73423809D01*
X153695071Y-73423809D02*
X153742690Y-73328571D01*
X153742690Y-73328571D02*
X153790309Y-73280952D01*
X153790309Y-73280952D02*
X153885547Y-73233333D01*
X153885547Y-73233333D02*
X154123642Y-73233333D01*
X154123642Y-73233333D02*
X154218880Y-73280952D01*
X154218880Y-73280952D02*
X154266500Y-73328571D01*
X154266500Y-73328571D02*
X154314119Y-73423809D01*
X154314119Y-73423809D02*
X154314119Y-73661904D01*
X154314119Y-73661904D02*
X154266500Y-73757142D01*
X154266500Y-73757142D02*
X154218880Y-73804761D01*
X154314119Y-72280952D02*
X154314119Y-72852380D01*
X154314119Y-72566666D02*
X153314119Y-72566666D01*
X153314119Y-72566666D02*
X153456976Y-72661904D01*
X153456976Y-72661904D02*
X153552214Y-72757142D01*
X153552214Y-72757142D02*
X153599833Y-72852380D01*
X154314119Y-71328571D02*
X154314119Y-71899999D01*
X154314119Y-71614285D02*
X153314119Y-71614285D01*
X153314119Y-71614285D02*
X153456976Y-71709523D01*
X153456976Y-71709523D02*
X153552214Y-71804761D01*
X153552214Y-71804761D02*
X153599833Y-71899999D01*
D11*
X152770500Y-76800000D02*
G75*
G03*
X152770500Y-76800000I-125000J0D01*
G01*
X152770500Y-71000000D02*
G75*
G03*
X152770500Y-71000000I-125000J0D01*
G01*
%TO.C,D8*%
G36*
X152959000Y-131415000D02*
G01*
X152578000Y-131415000D01*
X152578000Y-130018000D01*
X152959000Y-130018000D01*
X152959000Y-131415000D01*
G37*
G36*
X153456000Y-130919000D02*
G01*
X152059000Y-130919000D01*
X152059000Y-130538000D01*
X153456000Y-130538000D01*
X153456000Y-130919000D01*
G37*
G36*
X150764000Y-130981000D02*
G01*
X149367000Y-130981000D01*
X149367000Y-130600000D01*
X150764000Y-130600000D01*
X150764000Y-130981000D01*
G37*
%TD*%
M02*
