%TF.GenerationSoftware,KiCad,Pcbnew,7.0.1*%
%TF.CreationDate,2023-08-29T13:16:49+02:00*%
%TF.ProjectId,LAS_V1,4c41535f-5631-42e6-9b69-6361645f7063,rev?*%
%TF.SameCoordinates,Original*%
%TF.FileFunction,Soldermask,Top*%
%TF.FilePolarity,Negative*%
%FSLAX46Y46*%
G04 Gerber Fmt 4.6, Leading zero omitted, Abs format (unit mm)*
G04 Created by KiCad (PCBNEW 7.0.1) date 2023-08-29 13:16:49*
%MOMM*%
%LPD*%
G01*
G04 APERTURE LIST*
G04 Aperture macros list*
%AMRoundRect*
0 Rectangle with rounded corners*
0 $1 Rounding radius*
0 $2 $3 $4 $5 $6 $7 $8 $9 X,Y pos of 4 corners*
0 Add a 4 corners polygon primitive as box body*
4,1,4,$2,$3,$4,$5,$6,$7,$8,$9,$2,$3,0*
0 Add four circle primitives for the rounded corners*
1,1,$1+$1,$2,$3*
1,1,$1+$1,$4,$5*
1,1,$1+$1,$6,$7*
1,1,$1+$1,$8,$9*
0 Add four rect primitives between the rounded corners*
20,1,$1+$1,$2,$3,$4,$5,0*
20,1,$1+$1,$4,$5,$6,$7,0*
20,1,$1+$1,$6,$7,$8,$9,0*
20,1,$1+$1,$8,$9,$2,$3,0*%
G04 Aperture macros list end*
%ADD10RoundRect,0.243750X0.243750X0.456250X-0.243750X0.456250X-0.243750X-0.456250X0.243750X-0.456250X0*%
%ADD11RoundRect,0.137500X-0.587500X-0.137500X0.587500X-0.137500X0.587500X0.137500X-0.587500X0.137500X0*%
%ADD12RoundRect,0.150000X-0.825000X-0.150000X0.825000X-0.150000X0.825000X0.150000X-0.825000X0.150000X0*%
%ADD13R,2.000000X1.500000*%
%ADD14R,2.000000X3.800000*%
%ADD15R,1.500000X0.900000*%
%ADD16R,0.900000X1.500000*%
%ADD17R,0.900000X0.900000*%
%ADD18C,1.500000*%
%ADD19O,1.000000X1.000000*%
%ADD20R,1.000000X1.000000*%
%ADD21RoundRect,0.250000X-0.312500X-0.625000X0.312500X-0.625000X0.312500X0.625000X-0.312500X0.625000X0*%
%ADD22RoundRect,0.200000X-0.200000X-0.275000X0.200000X-0.275000X0.200000X0.275000X-0.200000X0.275000X0*%
%ADD23C,2.400000*%
%ADD24O,2.400000X2.400000*%
%ADD25RoundRect,0.200000X-0.275000X0.200000X-0.275000X-0.200000X0.275000X-0.200000X0.275000X0.200000X0*%
%ADD26RoundRect,0.200000X0.200000X0.275000X-0.200000X0.275000X-0.200000X-0.275000X0.200000X-0.275000X0*%
%ADD27RoundRect,0.200000X0.275000X-0.200000X0.275000X0.200000X-0.275000X0.200000X-0.275000X-0.200000X0*%
%ADD28RoundRect,0.250000X-0.625000X0.312500X-0.625000X-0.312500X0.625000X-0.312500X0.625000X0.312500X0*%
%ADD29RoundRect,0.150000X-0.587500X-0.150000X0.587500X-0.150000X0.587500X0.150000X-0.587500X0.150000X0*%
%ADD30RoundRect,0.150000X0.150000X-0.587500X0.150000X0.587500X-0.150000X0.587500X-0.150000X-0.587500X0*%
%ADD31C,3.000000*%
%ADD32C,2.500000*%
%ADD33C,0.750000*%
%ADD34O,2.000000X1.200000*%
%ADD35O,1.800000X1.200000*%
%ADD36R,1.300000X0.300000*%
%ADD37R,2.600000X2.600000*%
%ADD38C,2.600000*%
%ADD39RoundRect,0.250000X-0.400000X-0.600000X0.400000X-0.600000X0.400000X0.600000X-0.400000X0.600000X0*%
%ADD40R,2.000000X1.100000*%
%ADD41RoundRect,0.112500X0.112500X-0.187500X0.112500X0.187500X-0.112500X0.187500X-0.112500X-0.187500X0*%
%ADD42RoundRect,0.218750X0.256250X-0.218750X0.256250X0.218750X-0.256250X0.218750X-0.256250X-0.218750X0*%
%ADD43RoundRect,0.225000X0.250000X-0.225000X0.250000X0.225000X-0.250000X0.225000X-0.250000X-0.225000X0*%
%ADD44RoundRect,0.225000X-0.250000X0.225000X-0.250000X-0.225000X0.250000X-0.225000X0.250000X0.225000X0*%
%ADD45RoundRect,0.225000X0.225000X0.250000X-0.225000X0.250000X-0.225000X-0.250000X0.225000X-0.250000X0*%
G04 APERTURE END LIST*
D10*
%TO.C,D2*%
X142577500Y-66555000D03*
X140702500Y-66555000D03*
%TD*%
%TO.C,D1*%
X167112500Y-82000000D03*
X165237500Y-82000000D03*
%TD*%
D11*
%TO.C,U5*%
X169230000Y-128330000D03*
X169230000Y-130870000D03*
X174730000Y-130870000D03*
X174730000Y-128330000D03*
%TD*%
D12*
%TO.C,U3*%
X165025000Y-60055000D03*
X165025000Y-61325000D03*
X165025000Y-62595000D03*
X165025000Y-63865000D03*
X165025000Y-65135000D03*
X165025000Y-66405000D03*
X165025000Y-67675000D03*
X165025000Y-68945000D03*
X169975000Y-68945000D03*
X169975000Y-67675000D03*
X169975000Y-66405000D03*
X169975000Y-65135000D03*
X169975000Y-63865000D03*
X169975000Y-62595000D03*
X169975000Y-61325000D03*
X169975000Y-60055000D03*
%TD*%
D13*
%TO.C,U2*%
X167650000Y-78800000D03*
D14*
X161350000Y-76500000D03*
D13*
X167650000Y-76500000D03*
X167650000Y-74200000D03*
%TD*%
D15*
%TO.C,U1*%
X113000000Y-65500000D03*
X113000000Y-66770000D03*
X113000000Y-68040000D03*
X113000000Y-69310000D03*
X113000000Y-70580000D03*
X113000000Y-71850000D03*
X113000000Y-73120000D03*
X113000000Y-74390000D03*
X113000000Y-75660000D03*
X113000000Y-76930000D03*
X113000000Y-78200000D03*
X113000000Y-79470000D03*
X113000000Y-80740000D03*
X113000000Y-82010000D03*
D16*
X114765000Y-83260000D03*
X116035000Y-83260000D03*
X117305000Y-83260000D03*
X118575000Y-83260000D03*
X119845000Y-83260000D03*
X121115000Y-83260000D03*
X122385000Y-83260000D03*
X123655000Y-83260000D03*
X124925000Y-83260000D03*
X126195000Y-83260000D03*
X127465000Y-83260000D03*
X128735000Y-83260000D03*
D15*
X130500000Y-82010000D03*
X130500000Y-80740000D03*
X130500000Y-79470000D03*
X130500000Y-78200000D03*
X130500000Y-76930000D03*
X130500000Y-75660000D03*
X130500000Y-74390000D03*
X130500000Y-73120000D03*
X130500000Y-71850000D03*
X130500000Y-70580000D03*
X130500000Y-69310000D03*
X130500000Y-68040000D03*
X130500000Y-66770000D03*
X130500000Y-65500000D03*
D17*
X118850000Y-71820000D03*
X118850000Y-73220000D03*
X118850000Y-74620000D03*
X118850000Y-74620000D03*
X120250000Y-71820000D03*
X120250000Y-71820000D03*
X120250000Y-73220000D03*
X120250000Y-74620000D03*
X121650000Y-71820000D03*
X121650000Y-73220000D03*
X121650000Y-74620000D03*
%TD*%
D18*
%TO.C,TP2*%
X181000000Y-80000000D03*
%TD*%
%TO.C,TP1*%
X181000000Y-84000000D03*
%TD*%
D19*
%TO.C,SW2*%
X98730000Y-61510000D03*
D20*
X100000000Y-61510000D03*
%TD*%
D19*
%TO.C,SW1*%
X98480000Y-67510000D03*
D20*
X99750000Y-67510000D03*
%TD*%
D21*
%TO.C,R29*%
X95975000Y-94400000D03*
X98900000Y-94400000D03*
%TD*%
%TO.C,R28*%
X95975000Y-91110000D03*
X98900000Y-91110000D03*
%TD*%
%TO.C,R27*%
X98900000Y-87820000D03*
X95975000Y-87820000D03*
%TD*%
%TO.C,R26*%
X95975000Y-84530000D03*
X98900000Y-84530000D03*
%TD*%
D22*
%TO.C,R24*%
X155705000Y-133050000D03*
X157355000Y-133050000D03*
%TD*%
%TO.C,R21*%
X155705000Y-130540000D03*
X157355000Y-130540000D03*
%TD*%
%TO.C,R20*%
X155705000Y-128030000D03*
X157355000Y-128030000D03*
%TD*%
D23*
%TO.C,R17*%
X156500000Y-123000000D03*
D24*
X181900000Y-123000000D03*
%TD*%
D21*
%TO.C,R14*%
X102250000Y-76010000D03*
X105175000Y-76010000D03*
%TD*%
%TO.C,R13*%
X102250000Y-72720000D03*
X105175000Y-72720000D03*
%TD*%
D25*
%TO.C,R12*%
X110250000Y-63685000D03*
X110250000Y-65335000D03*
%TD*%
D26*
%TO.C,R11*%
X174550000Y-59980000D03*
X172900000Y-59980000D03*
%TD*%
%TO.C,R10*%
X174550000Y-62490000D03*
X172900000Y-62490000D03*
%TD*%
D27*
%TO.C,R9*%
X110240000Y-141492500D03*
X110240000Y-139842500D03*
%TD*%
%TO.C,R8*%
X107730000Y-141492500D03*
X107730000Y-139842500D03*
%TD*%
D22*
%TO.C,R7*%
X137100000Y-66020000D03*
X138750000Y-66020000D03*
%TD*%
%TO.C,R6*%
X137100000Y-63510000D03*
X138750000Y-63510000D03*
%TD*%
%TO.C,R5*%
X137100000Y-61000000D03*
X138750000Y-61000000D03*
%TD*%
D26*
%TO.C,R4*%
X163500000Y-82000000D03*
X161850000Y-82000000D03*
%TD*%
%TO.C,R3*%
X173325000Y-74500000D03*
X171675000Y-74500000D03*
%TD*%
D28*
%TO.C,R2*%
X103000000Y-66547500D03*
X103000000Y-69472500D03*
%TD*%
D22*
%TO.C,R1*%
X114095000Y-103315000D03*
X115745000Y-103315000D03*
%TD*%
D29*
%TO.C,Q6*%
X101750000Y-91060000D03*
X101750000Y-92960000D03*
X103625000Y-92010000D03*
%TD*%
%TO.C,Q5*%
X101750000Y-84560000D03*
X101750000Y-86460000D03*
X103625000Y-85510000D03*
%TD*%
%TO.C,Q4*%
X177732500Y-132700000D03*
X177732500Y-134600000D03*
X179607500Y-133650000D03*
%TD*%
%TO.C,Q3*%
X97525000Y-76800000D03*
X97525000Y-78700000D03*
X99400000Y-77750000D03*
%TD*%
%TO.C,Q2*%
X97525000Y-72350000D03*
X97525000Y-74250000D03*
X99400000Y-73300000D03*
%TD*%
D30*
%TO.C,Q1*%
X108050000Y-135375000D03*
X109950000Y-135375000D03*
X109000000Y-133500000D03*
%TD*%
D31*
%TO.C,K1*%
X140950000Y-148150000D03*
D32*
X147000000Y-146200000D03*
D31*
X147000000Y-134000000D03*
X134950000Y-133950000D03*
D32*
X135000000Y-146200000D03*
%TD*%
D20*
%TO.C,J9*%
X178300000Y-128450000D03*
D19*
X178300000Y-129720000D03*
%TD*%
D20*
%TO.C,J8*%
X181000000Y-71500000D03*
D19*
X181000000Y-72770000D03*
X181000000Y-74040000D03*
X181000000Y-75310000D03*
X181000000Y-76580000D03*
%TD*%
D33*
%TO.C,J7*%
X178245500Y-64900000D03*
X178245500Y-59100000D03*
D34*
X177745500Y-66325000D03*
X177745500Y-57675000D03*
D35*
X181925500Y-57675000D03*
X181925500Y-66325000D03*
D36*
X176977500Y-65350000D03*
X176977500Y-64550000D03*
X176977500Y-63250000D03*
X176977500Y-62250000D03*
X176977500Y-61750000D03*
X176977500Y-60750000D03*
X176977500Y-59450000D03*
X176977500Y-58650000D03*
X176977500Y-58950000D03*
X176977500Y-59750000D03*
X176977500Y-60250000D03*
X176977500Y-61250000D03*
X176977500Y-62750000D03*
X176977500Y-63750000D03*
X176977500Y-64250000D03*
X176977500Y-65050000D03*
%TD*%
D20*
%TO.C,J6*%
X114500000Y-140500000D03*
D19*
X113230000Y-140500000D03*
%TD*%
D20*
%TO.C,J5*%
X134450000Y-69250000D03*
D19*
X134450000Y-70520000D03*
X134450000Y-71790000D03*
X134450000Y-73060000D03*
X134450000Y-74330000D03*
X134450000Y-75600000D03*
X134450000Y-76870000D03*
X134450000Y-78140000D03*
X134450000Y-79410000D03*
X134450000Y-80680000D03*
X134450000Y-81950000D03*
X134450000Y-83220000D03*
X134450000Y-84490000D03*
X134450000Y-85760000D03*
X134450000Y-87030000D03*
X134450000Y-88300000D03*
X134450000Y-89570000D03*
X134450000Y-90840000D03*
X134450000Y-92110000D03*
X134450000Y-93380000D03*
X134450000Y-94650000D03*
X134450000Y-95920000D03*
%TD*%
%TO.C,J4*%
X109050000Y-95920000D03*
X109050000Y-94650000D03*
X109050000Y-93380000D03*
X109050000Y-92110000D03*
X109050000Y-90840000D03*
X109050000Y-89570000D03*
X109050000Y-88300000D03*
X109050000Y-87030000D03*
X109050000Y-85760000D03*
X109050000Y-84490000D03*
X109050000Y-83220000D03*
X109050000Y-81950000D03*
X109050000Y-80680000D03*
X109050000Y-79410000D03*
X109050000Y-78140000D03*
X109050000Y-76870000D03*
X109050000Y-75600000D03*
X109050000Y-74330000D03*
X109050000Y-73060000D03*
X109050000Y-71790000D03*
X109050000Y-70520000D03*
D20*
X109050000Y-69250000D03*
%TD*%
%TO.C,J3*%
X104500000Y-103690000D03*
D19*
X104500000Y-104960000D03*
X104500000Y-106230000D03*
X104500000Y-107500000D03*
X104500000Y-108770000D03*
%TD*%
D20*
%TO.C,J2*%
X119000000Y-104225000D03*
D19*
X119000000Y-105495000D03*
X119000000Y-106765000D03*
%TD*%
D37*
%TO.C,J1*%
X163340000Y-144000000D03*
D38*
X168420000Y-144000000D03*
X173500000Y-144000000D03*
X178580000Y-144000000D03*
%TD*%
D39*
%TO.C,D11*%
X169205000Y-134095000D03*
X172705000Y-134095000D03*
%TD*%
D40*
%TO.C,D8*%
X160035000Y-128702000D03*
X160035000Y-131102000D03*
X166235000Y-131102000D03*
X166235000Y-128702000D03*
%TD*%
D41*
%TO.C,D7*%
X109500000Y-131000000D03*
X109500000Y-128900000D03*
%TD*%
D42*
%TO.C,D6*%
X109500000Y-126787500D03*
X109500000Y-125212500D03*
%TD*%
D10*
%TO.C,D5*%
X142577500Y-60555000D03*
X140702500Y-60555000D03*
%TD*%
D15*
%TO.C,D4*%
X146050000Y-60850000D03*
X146050000Y-64150000D03*
X150950000Y-64150000D03*
X150950000Y-60850000D03*
%TD*%
D10*
%TO.C,D3*%
X142577500Y-63555000D03*
X140702500Y-63555000D03*
%TD*%
D43*
%TO.C,C9*%
X108250000Y-65285000D03*
X108250000Y-63735000D03*
%TD*%
D44*
%TO.C,C8*%
X161000000Y-61225000D03*
X161000000Y-62775000D03*
%TD*%
D45*
%TO.C,C7*%
X174500000Y-65000000D03*
X172950000Y-65000000D03*
%TD*%
D44*
%TO.C,C6*%
X158500000Y-77225000D03*
X158500000Y-78775000D03*
%TD*%
%TO.C,C5*%
X96000000Y-62285000D03*
X96000000Y-60735000D03*
%TD*%
%TO.C,C4*%
X105500000Y-60735000D03*
X105500000Y-62285000D03*
%TD*%
%TO.C,C3*%
X103000000Y-60735000D03*
X103000000Y-62285000D03*
%TD*%
D45*
%TO.C,C2*%
X93970000Y-68010000D03*
X95520000Y-68010000D03*
%TD*%
D44*
%TO.C,C1*%
X105500000Y-66235000D03*
X105500000Y-67785000D03*
%TD*%
M02*
