%TF.GenerationSoftware,KiCad,Pcbnew,7.0.1*%
%TF.CreationDate,2023-08-30T08:57:10+02:00*%
%TF.ProjectId,LAS_V1,4c41535f-5631-42e6-9b69-6361645f7063,rev?*%
%TF.SameCoordinates,Original*%
%TF.FileFunction,Soldermask,Top*%
%TF.FilePolarity,Negative*%
%FSLAX46Y46*%
G04 Gerber Fmt 4.6, Leading zero omitted, Abs format (unit mm)*
G04 Created by KiCad (PCBNEW 7.0.1) date 2023-08-30 08:57:10*
%MOMM*%
%LPD*%
G01*
G04 APERTURE LIST*
G04 Aperture macros list*
%AMRoundRect*
0 Rectangle with rounded corners*
0 $1 Rounding radius*
0 $2 $3 $4 $5 $6 $7 $8 $9 X,Y pos of 4 corners*
0 Add a 4 corners polygon primitive as box body*
4,1,4,$2,$3,$4,$5,$6,$7,$8,$9,$2,$3,0*
0 Add four circle primitives for the rounded corners*
1,1,$1+$1,$2,$3*
1,1,$1+$1,$4,$5*
1,1,$1+$1,$6,$7*
1,1,$1+$1,$8,$9*
0 Add four rect primitives between the rounded corners*
20,1,$1+$1,$2,$3,$4,$5,0*
20,1,$1+$1,$4,$5,$6,$7,0*
20,1,$1+$1,$6,$7,$8,$9,0*
20,1,$1+$1,$8,$9,$2,$3,0*%
G04 Aperture macros list end*
%ADD10C,0.750000*%
%ADD11O,2.000000X1.200000*%
%ADD12O,1.800000X1.200000*%
%ADD13R,1.300000X0.300000*%
%ADD14RoundRect,0.250000X-0.625000X0.312500X-0.625000X-0.312500X0.625000X-0.312500X0.625000X0.312500X0*%
%ADD15R,1.000000X1.000000*%
%ADD16O,1.000000X1.000000*%
%ADD17RoundRect,0.200000X-0.275000X0.200000X-0.275000X-0.200000X0.275000X-0.200000X0.275000X0.200000X0*%
%ADD18RoundRect,0.200000X0.275000X-0.200000X0.275000X0.200000X-0.275000X0.200000X-0.275000X-0.200000X0*%
%ADD19RoundRect,0.243750X0.243750X0.456250X-0.243750X0.456250X-0.243750X-0.456250X0.243750X-0.456250X0*%
%ADD20RoundRect,0.218750X-0.256250X0.218750X-0.256250X-0.218750X0.256250X-0.218750X0.256250X0.218750X0*%
%ADD21RoundRect,0.150000X-0.587500X-0.150000X0.587500X-0.150000X0.587500X0.150000X-0.587500X0.150000X0*%
%ADD22R,2.600000X2.600000*%
%ADD23C,2.600000*%
%ADD24RoundRect,0.225000X-0.250000X0.225000X-0.250000X-0.225000X0.250000X-0.225000X0.250000X0.225000X0*%
%ADD25C,2.400000*%
%ADD26O,2.400000X2.400000*%
%ADD27RoundRect,0.200000X-0.200000X-0.275000X0.200000X-0.275000X0.200000X0.275000X-0.200000X0.275000X0*%
%ADD28R,2.000000X1.500000*%
%ADD29R,2.000000X3.800000*%
%ADD30RoundRect,0.150000X0.150000X-0.825000X0.150000X0.825000X-0.150000X0.825000X-0.150000X-0.825000X0*%
%ADD31C,1.500000*%
%ADD32R,1.500000X0.900000*%
%ADD33R,0.900000X1.500000*%
%ADD34R,0.900000X0.900000*%
%ADD35RoundRect,0.200000X0.200000X0.275000X-0.200000X0.275000X-0.200000X-0.275000X0.200000X-0.275000X0*%
%ADD36C,3.000000*%
%ADD37C,2.500000*%
%ADD38RoundRect,0.225000X-0.225000X-0.250000X0.225000X-0.250000X0.225000X0.250000X-0.225000X0.250000X0*%
%ADD39RoundRect,0.112500X0.112500X-0.187500X0.112500X0.187500X-0.112500X0.187500X-0.112500X-0.187500X0*%
%ADD40RoundRect,0.250000X0.312500X0.625000X-0.312500X0.625000X-0.312500X-0.625000X0.312500X-0.625000X0*%
%ADD41RoundRect,0.250000X-0.312500X-0.625000X0.312500X-0.625000X0.312500X0.625000X-0.312500X0.625000X0*%
%ADD42RoundRect,0.150000X0.150000X-0.587500X0.150000X0.587500X-0.150000X0.587500X-0.150000X-0.587500X0*%
%ADD43RoundRect,0.225000X0.250000X-0.225000X0.250000X0.225000X-0.250000X0.225000X-0.250000X-0.225000X0*%
%ADD44RoundRect,0.250000X-0.600000X0.400000X-0.600000X-0.400000X0.600000X-0.400000X0.600000X0.400000X0*%
%ADD45R,1.100000X2.000000*%
%ADD46RoundRect,0.137500X0.587500X0.137500X-0.587500X0.137500X-0.587500X-0.137500X0.587500X-0.137500X0*%
G04 APERTURE END LIST*
D10*
%TO.C,J7*%
X152645500Y-76800000D03*
X152645500Y-71000000D03*
D11*
X152145500Y-78225000D03*
X152145500Y-69575000D03*
D12*
X156325500Y-69575000D03*
X156325500Y-78225000D03*
D13*
X151377500Y-77250000D03*
X151377500Y-76450000D03*
X151377500Y-75150000D03*
X151377500Y-74150000D03*
X151377500Y-73650000D03*
X151377500Y-72650000D03*
X151377500Y-71350000D03*
X151377500Y-70550000D03*
X151377500Y-70850000D03*
X151377500Y-71650000D03*
X151377500Y-72150000D03*
X151377500Y-73150000D03*
X151377500Y-74650000D03*
X151377500Y-75650000D03*
X151377500Y-76150000D03*
X151377500Y-76950000D03*
%TD*%
D14*
%TO.C,R2*%
X103000000Y-66547500D03*
X103000000Y-69472500D03*
%TD*%
D15*
%TO.C,SW1*%
X99750000Y-67510000D03*
D16*
X98480000Y-67510000D03*
%TD*%
D15*
%TO.C,J4*%
X109050000Y-69250000D03*
D16*
X109050000Y-70520000D03*
X109050000Y-71790000D03*
X109050000Y-73060000D03*
X109050000Y-74330000D03*
X109050000Y-75600000D03*
X109050000Y-76870000D03*
X109050000Y-78140000D03*
X109050000Y-79410000D03*
X109050000Y-80680000D03*
X109050000Y-81950000D03*
X109050000Y-83220000D03*
X109050000Y-84490000D03*
X109050000Y-85760000D03*
X109050000Y-87030000D03*
X109050000Y-88300000D03*
X109050000Y-89570000D03*
X109050000Y-90840000D03*
X109050000Y-92110000D03*
X109050000Y-93380000D03*
X109050000Y-94650000D03*
X109050000Y-95920000D03*
%TD*%
D17*
%TO.C,R12*%
X110250000Y-63685000D03*
X110250000Y-65335000D03*
%TD*%
D18*
%TO.C,R3*%
X150750000Y-85875000D03*
X150750000Y-84225000D03*
%TD*%
D19*
%TO.C,D1*%
X147400000Y-94865000D03*
X145525000Y-94865000D03*
%TD*%
D20*
%TO.C,D6*%
X100500000Y-119440000D03*
X100500000Y-121015000D03*
%TD*%
D15*
%TO.C,J2*%
X156000000Y-101225000D03*
D16*
X156000000Y-102495000D03*
X156000000Y-103765000D03*
%TD*%
D21*
%TO.C,Q3*%
X148525000Y-63550000D03*
X148525000Y-65450000D03*
X150400000Y-64500000D03*
%TD*%
D17*
%TO.C,R21*%
X127250000Y-117675000D03*
X127250000Y-119325000D03*
%TD*%
D22*
%TO.C,J1*%
X140090000Y-144500000D03*
D23*
X145170000Y-144500000D03*
X150250000Y-144500000D03*
X155330000Y-144500000D03*
%TD*%
D24*
%TO.C,C1*%
X105500000Y-66235000D03*
X105500000Y-67785000D03*
%TD*%
D19*
%TO.C,D2*%
X142687500Y-60000000D03*
X140812500Y-60000000D03*
%TD*%
D17*
%TO.C,R24*%
X123250000Y-117925000D03*
X123250000Y-119575000D03*
%TD*%
D21*
%TO.C,Q5*%
X147000000Y-99750000D03*
X147000000Y-101650000D03*
X148875000Y-100700000D03*
%TD*%
D25*
%TO.C,R17 47k 3W*%
X156700000Y-123750000D03*
D26*
X131300000Y-123750000D03*
%TD*%
D27*
%TO.C,R7*%
X137100000Y-66020000D03*
X138750000Y-66020000D03*
%TD*%
D21*
%TO.C,Q6*%
X141375000Y-105550000D03*
X141375000Y-107450000D03*
X143250000Y-106500000D03*
%TD*%
D17*
%TO.C,R1*%
X137750000Y-105925000D03*
X137750000Y-107575000D03*
%TD*%
D28*
%TO.C,U2*%
X146675000Y-90665000D03*
X146675000Y-88365000D03*
D29*
X140375000Y-88365000D03*
D28*
X146675000Y-86065000D03*
%TD*%
D15*
%TO.C,J5*%
X134450000Y-69250000D03*
D16*
X134450000Y-70520000D03*
X134450000Y-71790000D03*
X134450000Y-73060000D03*
X134450000Y-74330000D03*
X134450000Y-75600000D03*
X134450000Y-76870000D03*
X134450000Y-78140000D03*
X134450000Y-79410000D03*
X134450000Y-80680000D03*
X134450000Y-81950000D03*
X134450000Y-83220000D03*
X134450000Y-84490000D03*
X134450000Y-85760000D03*
X134450000Y-87030000D03*
X134450000Y-88300000D03*
X134450000Y-89570000D03*
X134450000Y-90840000D03*
X134450000Y-92110000D03*
X134450000Y-93380000D03*
X134450000Y-94650000D03*
X134450000Y-95920000D03*
%TD*%
D30*
%TO.C,U3*%
X139055000Y-76725000D03*
X140325000Y-76725000D03*
X141595000Y-76725000D03*
X142865000Y-76725000D03*
X144135000Y-76725000D03*
X145405000Y-76725000D03*
X146675000Y-76725000D03*
X147945000Y-76725000D03*
X147945000Y-71775000D03*
X146675000Y-71775000D03*
X145405000Y-71775000D03*
X144135000Y-71775000D03*
X142865000Y-71775000D03*
X141595000Y-71775000D03*
X140325000Y-71775000D03*
X139055000Y-71775000D03*
%TD*%
D24*
%TO.C,C3*%
X103000000Y-60735000D03*
X103000000Y-62285000D03*
%TD*%
D31*
%TO.C,TP1*%
X156025000Y-95865000D03*
%TD*%
D24*
%TO.C,C5*%
X96000000Y-60735000D03*
X96000000Y-62285000D03*
%TD*%
D32*
%TO.C,U1*%
X113000000Y-65500000D03*
X113000000Y-66770000D03*
X113000000Y-68040000D03*
X113000000Y-69310000D03*
X113000000Y-70580000D03*
X113000000Y-71850000D03*
X113000000Y-73120000D03*
X113000000Y-74390000D03*
X113000000Y-75660000D03*
X113000000Y-76930000D03*
X113000000Y-78200000D03*
X113000000Y-79470000D03*
X113000000Y-80740000D03*
X113000000Y-82010000D03*
D33*
X114765000Y-83260000D03*
X116035000Y-83260000D03*
X117305000Y-83260000D03*
X118575000Y-83260000D03*
X119845000Y-83260000D03*
X121115000Y-83260000D03*
X122385000Y-83260000D03*
X123655000Y-83260000D03*
X124925000Y-83260000D03*
X126195000Y-83260000D03*
X127465000Y-83260000D03*
X128735000Y-83260000D03*
D32*
X130500000Y-82010000D03*
X130500000Y-80740000D03*
X130500000Y-79470000D03*
X130500000Y-78200000D03*
X130500000Y-76930000D03*
X130500000Y-75660000D03*
X130500000Y-74390000D03*
X130500000Y-73120000D03*
X130500000Y-71850000D03*
X130500000Y-70580000D03*
X130500000Y-69310000D03*
X130500000Y-68040000D03*
X130500000Y-66770000D03*
X130500000Y-65500000D03*
D34*
X118850000Y-71820000D03*
X118850000Y-73220000D03*
X118850000Y-74620000D03*
X118850000Y-74620000D03*
X120250000Y-71820000D03*
X120250000Y-71820000D03*
X120250000Y-73220000D03*
X120250000Y-74620000D03*
X121650000Y-71820000D03*
X121650000Y-73220000D03*
X121650000Y-74620000D03*
%TD*%
D35*
%TO.C,R10*%
X145825000Y-80500000D03*
X144175000Y-80500000D03*
%TD*%
%TO.C,R4*%
X143787500Y-94865000D03*
X142137500Y-94865000D03*
%TD*%
D17*
%TO.C,R9*%
X96750000Y-124250000D03*
X96750000Y-125900000D03*
%TD*%
D36*
%TO.C,K1*%
X128200000Y-130750000D03*
D37*
X122150000Y-132700000D03*
D36*
X122150000Y-144900000D03*
X134200000Y-144950000D03*
D37*
X134150000Y-132700000D03*
%TD*%
D24*
%TO.C,C4*%
X105500000Y-60735000D03*
X105500000Y-62285000D03*
%TD*%
D38*
%TO.C,C8*%
X139725000Y-82750000D03*
X141275000Y-82750000D03*
%TD*%
D19*
%TO.C,D5*%
X142625000Y-67500000D03*
X140750000Y-67500000D03*
%TD*%
D21*
%TO.C,Q2*%
X148525000Y-59100000D03*
X148525000Y-61000000D03*
X150400000Y-60050000D03*
%TD*%
D15*
%TO.C,J6*%
X94250000Y-119500000D03*
D16*
X94250000Y-120770000D03*
%TD*%
D39*
%TO.C,D7*%
X97730000Y-121357500D03*
X97730000Y-119257500D03*
%TD*%
D21*
%TO.C,Q4*%
X111125000Y-127550000D03*
X111125000Y-129450000D03*
X113000000Y-128500000D03*
%TD*%
D24*
%TO.C,C6*%
X140025000Y-93590000D03*
X140025000Y-95140000D03*
%TD*%
D14*
%TO.C,R29*%
X150750000Y-105787500D03*
X150750000Y-108712500D03*
%TD*%
D40*
%TO.C,R26*%
X144150000Y-99720000D03*
X141225000Y-99720000D03*
%TD*%
D14*
%TO.C,R28*%
X147250000Y-105787500D03*
X147250000Y-108712500D03*
%TD*%
D41*
%TO.C,R27*%
X141225000Y-103010000D03*
X144150000Y-103010000D03*
%TD*%
D27*
%TO.C,R6*%
X137100000Y-63510000D03*
X138750000Y-63510000D03*
%TD*%
D41*
%TO.C,R13*%
X153250000Y-59470000D03*
X156175000Y-59470000D03*
%TD*%
D42*
%TO.C,Q1*%
X99250000Y-127500000D03*
X101150000Y-127500000D03*
X100200000Y-125625000D03*
%TD*%
D27*
%TO.C,R5*%
X137100000Y-61000000D03*
X138750000Y-61000000D03*
%TD*%
D15*
%TO.C,J8*%
X156750000Y-81500000D03*
D16*
X156750000Y-82770000D03*
X156750000Y-84040000D03*
X156750000Y-85310000D03*
X156750000Y-86580000D03*
%TD*%
D15*
%TO.C,J3*%
X156000000Y-107980000D03*
D16*
X156000000Y-109250000D03*
X156000000Y-110520000D03*
X156000000Y-111790000D03*
X156000000Y-113060000D03*
%TD*%
D43*
%TO.C,C9*%
X108250000Y-65285000D03*
X108250000Y-63735000D03*
%TD*%
D44*
%TO.C,D11*%
X116250000Y-131750000D03*
X116250000Y-135250000D03*
%TD*%
D35*
%TO.C,R11*%
X155825000Y-67500000D03*
X154175000Y-67500000D03*
%TD*%
D45*
%TO.C,D8*%
X152700000Y-129150000D03*
X150300000Y-129150000D03*
X150300000Y-135350000D03*
X152700000Y-135350000D03*
%TD*%
D31*
%TO.C,TP2*%
X156025000Y-91865000D03*
%TD*%
D19*
%TO.C,D3*%
X142577500Y-63555000D03*
X140702500Y-63555000D03*
%TD*%
D46*
%TO.C,U5*%
X126000000Y-124770000D03*
X126000000Y-122230000D03*
X120500000Y-122230000D03*
X120500000Y-124770000D03*
%TD*%
D41*
%TO.C,R14*%
X153250000Y-62760000D03*
X156175000Y-62760000D03*
%TD*%
D24*
%TO.C,C2*%
X96000000Y-66975000D03*
X96000000Y-68525000D03*
%TD*%
D32*
%TO.C,D4*%
X144200000Y-114400000D03*
X144200000Y-111100000D03*
X139300000Y-111100000D03*
X139300000Y-114400000D03*
%TD*%
D18*
%TO.C,R20*%
X113500000Y-134575000D03*
X113500000Y-132925000D03*
%TD*%
D15*
%TO.C,SW2*%
X100000000Y-61510000D03*
D16*
X98730000Y-61510000D03*
%TD*%
D18*
%TO.C,R8*%
X103050000Y-121012500D03*
X103050000Y-119362500D03*
%TD*%
D38*
%TO.C,C7*%
X147700000Y-80300000D03*
X149250000Y-80300000D03*
%TD*%
M02*
