%TF.GenerationSoftware,KiCad,Pcbnew,7.0.1*%
%TF.CreationDate,2023-08-29T13:16:49+02:00*%
%TF.ProjectId,LAS_V1,4c41535f-5631-42e6-9b69-6361645f7063,rev?*%
%TF.SameCoordinates,Original*%
%TF.FileFunction,Other,Comment*%
%FSLAX46Y46*%
G04 Gerber Fmt 4.6, Leading zero omitted, Abs format (unit mm)*
G04 Created by KiCad (PCBNEW 7.0.1) date 2023-08-29 13:16:49*
%MOMM*%
%LPD*%
G01*
G04 APERTURE LIST*
%ADD10C,0.150000*%
%ADD11C,0.250000*%
G04 APERTURE END LIST*
D10*
%TO.C,J7*%
X179247452Y-64095238D02*
X180056976Y-64095238D01*
X180056976Y-64095238D02*
X180152214Y-64142857D01*
X180152214Y-64142857D02*
X180199833Y-64190476D01*
X180199833Y-64190476D02*
X180247452Y-64285714D01*
X180247452Y-64285714D02*
X180247452Y-64428571D01*
X180247452Y-64428571D02*
X180199833Y-64523809D01*
X179866500Y-64095238D02*
X179914119Y-64190476D01*
X179914119Y-64190476D02*
X179914119Y-64380952D01*
X179914119Y-64380952D02*
X179866500Y-64476190D01*
X179866500Y-64476190D02*
X179818880Y-64523809D01*
X179818880Y-64523809D02*
X179723642Y-64571428D01*
X179723642Y-64571428D02*
X179437928Y-64571428D01*
X179437928Y-64571428D02*
X179342690Y-64523809D01*
X179342690Y-64523809D02*
X179295071Y-64476190D01*
X179295071Y-64476190D02*
X179247452Y-64380952D01*
X179247452Y-64380952D02*
X179247452Y-64190476D01*
X179247452Y-64190476D02*
X179295071Y-64095238D01*
X179247452Y-63190476D02*
X180056976Y-63190476D01*
X180056976Y-63190476D02*
X180152214Y-63238095D01*
X180152214Y-63238095D02*
X180199833Y-63285714D01*
X180199833Y-63285714D02*
X180247452Y-63380952D01*
X180247452Y-63380952D02*
X180247452Y-63523809D01*
X180247452Y-63523809D02*
X180199833Y-63619047D01*
X179866500Y-63190476D02*
X179914119Y-63285714D01*
X179914119Y-63285714D02*
X179914119Y-63476190D01*
X179914119Y-63476190D02*
X179866500Y-63571428D01*
X179866500Y-63571428D02*
X179818880Y-63619047D01*
X179818880Y-63619047D02*
X179723642Y-63666666D01*
X179723642Y-63666666D02*
X179437928Y-63666666D01*
X179437928Y-63666666D02*
X179342690Y-63619047D01*
X179342690Y-63619047D02*
X179295071Y-63571428D01*
X179295071Y-63571428D02*
X179247452Y-63476190D01*
X179247452Y-63476190D02*
X179247452Y-63285714D01*
X179247452Y-63285714D02*
X179295071Y-63190476D01*
X179866500Y-62333333D02*
X179914119Y-62428571D01*
X179914119Y-62428571D02*
X179914119Y-62619047D01*
X179914119Y-62619047D02*
X179866500Y-62714285D01*
X179866500Y-62714285D02*
X179771261Y-62761904D01*
X179771261Y-62761904D02*
X179390309Y-62761904D01*
X179390309Y-62761904D02*
X179295071Y-62714285D01*
X179295071Y-62714285D02*
X179247452Y-62619047D01*
X179247452Y-62619047D02*
X179247452Y-62428571D01*
X179247452Y-62428571D02*
X179295071Y-62333333D01*
X179295071Y-62333333D02*
X179390309Y-62285714D01*
X179390309Y-62285714D02*
X179485547Y-62285714D01*
X179485547Y-62285714D02*
X179580785Y-62761904D01*
X178914119Y-61380952D02*
X178914119Y-61857142D01*
X178914119Y-61857142D02*
X179390309Y-61904761D01*
X179390309Y-61904761D02*
X179342690Y-61857142D01*
X179342690Y-61857142D02*
X179295071Y-61761904D01*
X179295071Y-61761904D02*
X179295071Y-61523809D01*
X179295071Y-61523809D02*
X179342690Y-61428571D01*
X179342690Y-61428571D02*
X179390309Y-61380952D01*
X179390309Y-61380952D02*
X179485547Y-61333333D01*
X179485547Y-61333333D02*
X179723642Y-61333333D01*
X179723642Y-61333333D02*
X179818880Y-61380952D01*
X179818880Y-61380952D02*
X179866500Y-61428571D01*
X179866500Y-61428571D02*
X179914119Y-61523809D01*
X179914119Y-61523809D02*
X179914119Y-61761904D01*
X179914119Y-61761904D02*
X179866500Y-61857142D01*
X179866500Y-61857142D02*
X179818880Y-61904761D01*
X179914119Y-60380952D02*
X179914119Y-60952380D01*
X179914119Y-60666666D02*
X178914119Y-60666666D01*
X178914119Y-60666666D02*
X179056976Y-60761904D01*
X179056976Y-60761904D02*
X179152214Y-60857142D01*
X179152214Y-60857142D02*
X179199833Y-60952380D01*
X179914119Y-59428571D02*
X179914119Y-59999999D01*
X179914119Y-59714285D02*
X178914119Y-59714285D01*
X178914119Y-59714285D02*
X179056976Y-59809523D01*
X179056976Y-59809523D02*
X179152214Y-59904761D01*
X179152214Y-59904761D02*
X179199833Y-59999999D01*
%TO.C,D8*%
X161039761Y-129697952D02*
X161039761Y-130507476D01*
X161039761Y-130507476D02*
X160992142Y-130602714D01*
X160992142Y-130602714D02*
X160944523Y-130650333D01*
X160944523Y-130650333D02*
X160849285Y-130697952D01*
X160849285Y-130697952D02*
X160706428Y-130697952D01*
X160706428Y-130697952D02*
X160611190Y-130650333D01*
X161039761Y-130317000D02*
X160944523Y-130364619D01*
X160944523Y-130364619D02*
X160754047Y-130364619D01*
X160754047Y-130364619D02*
X160658809Y-130317000D01*
X160658809Y-130317000D02*
X160611190Y-130269380D01*
X160611190Y-130269380D02*
X160563571Y-130174142D01*
X160563571Y-130174142D02*
X160563571Y-129888428D01*
X160563571Y-129888428D02*
X160611190Y-129793190D01*
X160611190Y-129793190D02*
X160658809Y-129745571D01*
X160658809Y-129745571D02*
X160754047Y-129697952D01*
X160754047Y-129697952D02*
X160944523Y-129697952D01*
X160944523Y-129697952D02*
X161039761Y-129745571D01*
X161944523Y-129697952D02*
X161944523Y-130507476D01*
X161944523Y-130507476D02*
X161896904Y-130602714D01*
X161896904Y-130602714D02*
X161849285Y-130650333D01*
X161849285Y-130650333D02*
X161754047Y-130697952D01*
X161754047Y-130697952D02*
X161611190Y-130697952D01*
X161611190Y-130697952D02*
X161515952Y-130650333D01*
X161944523Y-130317000D02*
X161849285Y-130364619D01*
X161849285Y-130364619D02*
X161658809Y-130364619D01*
X161658809Y-130364619D02*
X161563571Y-130317000D01*
X161563571Y-130317000D02*
X161515952Y-130269380D01*
X161515952Y-130269380D02*
X161468333Y-130174142D01*
X161468333Y-130174142D02*
X161468333Y-129888428D01*
X161468333Y-129888428D02*
X161515952Y-129793190D01*
X161515952Y-129793190D02*
X161563571Y-129745571D01*
X161563571Y-129745571D02*
X161658809Y-129697952D01*
X161658809Y-129697952D02*
X161849285Y-129697952D01*
X161849285Y-129697952D02*
X161944523Y-129745571D01*
X162801666Y-130317000D02*
X162706428Y-130364619D01*
X162706428Y-130364619D02*
X162515952Y-130364619D01*
X162515952Y-130364619D02*
X162420714Y-130317000D01*
X162420714Y-130317000D02*
X162373095Y-130221761D01*
X162373095Y-130221761D02*
X162373095Y-129840809D01*
X162373095Y-129840809D02*
X162420714Y-129745571D01*
X162420714Y-129745571D02*
X162515952Y-129697952D01*
X162515952Y-129697952D02*
X162706428Y-129697952D01*
X162706428Y-129697952D02*
X162801666Y-129745571D01*
X162801666Y-129745571D02*
X162849285Y-129840809D01*
X162849285Y-129840809D02*
X162849285Y-129936047D01*
X162849285Y-129936047D02*
X162373095Y-130031285D01*
X163801666Y-130364619D02*
X163230238Y-130364619D01*
X163515952Y-130364619D02*
X163515952Y-129364619D01*
X163515952Y-129364619D02*
X163420714Y-129507476D01*
X163420714Y-129507476D02*
X163325476Y-129602714D01*
X163325476Y-129602714D02*
X163230238Y-129650333D01*
X164373095Y-129793190D02*
X164277857Y-129745571D01*
X164277857Y-129745571D02*
X164230238Y-129697952D01*
X164230238Y-129697952D02*
X164182619Y-129602714D01*
X164182619Y-129602714D02*
X164182619Y-129555095D01*
X164182619Y-129555095D02*
X164230238Y-129459857D01*
X164230238Y-129459857D02*
X164277857Y-129412238D01*
X164277857Y-129412238D02*
X164373095Y-129364619D01*
X164373095Y-129364619D02*
X164563571Y-129364619D01*
X164563571Y-129364619D02*
X164658809Y-129412238D01*
X164658809Y-129412238D02*
X164706428Y-129459857D01*
X164706428Y-129459857D02*
X164754047Y-129555095D01*
X164754047Y-129555095D02*
X164754047Y-129602714D01*
X164754047Y-129602714D02*
X164706428Y-129697952D01*
X164706428Y-129697952D02*
X164658809Y-129745571D01*
X164658809Y-129745571D02*
X164563571Y-129793190D01*
X164563571Y-129793190D02*
X164373095Y-129793190D01*
X164373095Y-129793190D02*
X164277857Y-129840809D01*
X164277857Y-129840809D02*
X164230238Y-129888428D01*
X164230238Y-129888428D02*
X164182619Y-129983666D01*
X164182619Y-129983666D02*
X164182619Y-130174142D01*
X164182619Y-130174142D02*
X164230238Y-130269380D01*
X164230238Y-130269380D02*
X164277857Y-130317000D01*
X164277857Y-130317000D02*
X164373095Y-130364619D01*
X164373095Y-130364619D02*
X164563571Y-130364619D01*
X164563571Y-130364619D02*
X164658809Y-130317000D01*
X164658809Y-130317000D02*
X164706428Y-130269380D01*
X164706428Y-130269380D02*
X164754047Y-130174142D01*
X164754047Y-130174142D02*
X164754047Y-129983666D01*
X164754047Y-129983666D02*
X164706428Y-129888428D01*
X164706428Y-129888428D02*
X164658809Y-129840809D01*
X164658809Y-129840809D02*
X164563571Y-129793190D01*
X165611190Y-129697952D02*
X165611190Y-130364619D01*
X165373095Y-129317000D02*
X165135000Y-130031285D01*
X165135000Y-130031285D02*
X165754047Y-130031285D01*
D11*
%TO.C,J7*%
X178370500Y-64900000D02*
G75*
G03*
X178370500Y-64900000I-125000J0D01*
G01*
X178370500Y-59100000D02*
G75*
G03*
X178370500Y-59100000I-125000J0D01*
G01*
%TO.C,D8*%
G36*
X162300000Y-128824000D02*
G01*
X160903000Y-128824000D01*
X160903000Y-128443000D01*
X162300000Y-128443000D01*
X162300000Y-128824000D01*
G37*
G36*
X161804000Y-129343000D02*
G01*
X161423000Y-129343000D01*
X161423000Y-127946000D01*
X161804000Y-127946000D01*
X161804000Y-129343000D01*
G37*
G36*
X161866000Y-132035000D02*
G01*
X161485000Y-132035000D01*
X161485000Y-130638000D01*
X161866000Y-130638000D01*
X161866000Y-132035000D01*
G37*
%TD*%
M02*
