M48
; DRILL file {KiCad 7.0.1} date Wed Aug 30 08:57:10 2023
; FORMAT={-:-/ absolute / inch / decimal}
; #@! TF.CreationDate,2023-08-30T08:57:10+02:00
; #@! TF.GenerationSoftware,Kicad,Pcbnew,7.0.1
; #@! TF.FileFunction,Plated,1,2,PTH
FMAT,2
INCH
; #@! TA.AperFunction,Plated,PTH,ViaDrill
T1C0.0157
; #@! TA.AperFunction,Plated,PTH,ComponentDrill
T2C0.0256
; #@! TA.AperFunction,Plated,PTH,ComponentDrill
T3C0.0315
; #@! TA.AperFunction,Plated,PTH,ComponentDrill
T4C0.0394
; #@! TA.AperFunction,Plated,PTH,ComponentDrill
T5C0.0472
; #@! TA.AperFunction,Plated,PTH,ComponentDrill
T6C0.0512
%
G90
G05
T1
X4.065Y-2.7854
X4.0748Y-5.1811
X4.1339Y-3.0906
X4.1437Y-2.2343
X4.1437Y-4.9606
X4.1831Y-2.8248
X4.2028Y-2.5197
X4.2717Y-2.3031
X4.3406Y-2.628
X4.3465Y-5.252
X4.3799Y-3.2382
X4.3799Y-3.2776
X4.498Y-3.3465
X4.5571Y-4.9311
X4.6378Y-4.6535
X4.7244Y-4.2421
X4.9567Y-4.5354
X5.2067Y-2.628
X5.2087Y-2.8251
X5.2581Y-2.64
X5.3543Y-2.6378
X5.3642Y-3.937
X5.374Y-4.2913
X5.4134Y-2.7953
X5.4429Y-3.4646
X5.4429Y-3.6909
X5.4528Y-5.3445
X5.4724Y-4.3012
X5.4823Y-3.8583
X5.5413Y-3.1496
X5.5906Y-3.1102
X5.6594Y-3.6614
X5.6594Y-4.5965
X5.6693Y-3.8386
X5.6791Y-2.5689
X5.689Y-2.4311
X5.7185Y-3.248
X5.748Y-2.628
X5.7776Y-2.3622
X5.7874Y-2.2638
X5.7874Y-2.4508
X5.8071Y-3.2972
X5.8858Y-2.7657
X5.8858Y-3.5728
X5.8957Y-2.2539
X5.9055Y-2.8445
X5.9252Y-3.2382
X5.935Y-3.9764
X5.9528Y-4.622
X5.9547Y-2.6673
X6.0531Y-3.6811
X6.0728Y-3.1496
X6.0925Y-3.9075
X6.1516Y-2.5394
T2
X3.7106Y-4.7047
X3.7106Y-4.7547
X3.8772Y-2.6579
X3.887Y-2.4217
X3.9272Y-2.6579
X3.937Y-2.4217
X4.2933Y-2.7264
X4.2933Y-2.7764
X4.2933Y-2.8264
X4.2933Y-2.8764
X4.2933Y-2.9264
X4.2933Y-2.9764
X4.2933Y-3.0264
X4.2933Y-3.0764
X4.2933Y-3.1264
X4.2933Y-3.1764
X4.2933Y-3.2264
X4.2933Y-3.2764
X4.2933Y-3.3264
X4.2933Y-3.3764
X4.2933Y-3.4264
X4.2933Y-3.4764
X4.2933Y-3.5264
X4.2933Y-3.5764
X4.2933Y-3.6264
X4.2933Y-3.6764
X4.2933Y-3.7264
X4.2933Y-3.7764
X5.2933Y-2.7264
X5.2933Y-2.7764
X5.2933Y-2.8264
X5.2933Y-2.8764
X5.2933Y-2.9264
X5.2933Y-2.9764
X5.2933Y-3.0264
X5.2933Y-3.0764
X5.2933Y-3.1264
X5.2933Y-3.1764
X5.2933Y-3.2264
X5.2933Y-3.2764
X5.2933Y-3.3264
X5.2933Y-3.3764
X5.2933Y-3.4264
X5.2933Y-3.4764
X5.2933Y-3.5264
X5.2933Y-3.5764
X5.2933Y-3.6264
X5.2933Y-3.6764
X5.2933Y-3.7264
X5.2933Y-3.7764
X6.1417Y-3.9852
X6.1417Y-4.0352
X6.1417Y-4.0852
X6.1417Y-4.2512
X6.1417Y-4.3012
X6.1417Y-4.3512
X6.1417Y-4.4012
X6.1417Y-4.4512
X6.1713Y-3.2087
X6.1713Y-3.2587
X6.1713Y-3.3087
X6.1713Y-3.3587
X6.1713Y-3.4087
T4
X4.8091Y-5.2244
X5.2815Y-5.2244
T5
X5.1693Y-4.872
X6.1693Y-4.872
T6
X4.8091Y-5.7047
X5.0472Y-5.1476
X5.2835Y-5.7067
X5.5154Y-5.689
X5.7154Y-5.689
X5.9154Y-5.689
X6.1154Y-5.689
T3
G00X5.9742Y-2.7392
M15
G01X6.0057Y-2.7392
M16
G05
G00X5.9742Y-3.0797
M15
G01X6.0057Y-3.0797
M16
G05
G00X6.1427Y-2.7392
M15
G01X6.1664Y-2.7392
M16
G05
G00X6.1427Y-3.0797
M15
G01X6.1664Y-3.0797
M16
G05
T0
M30
