%TF.GenerationSoftware,KiCad,Pcbnew,7.0.1*%
%TF.CreationDate,2023-08-29T13:16:49+02:00*%
%TF.ProjectId,LAS_V1,4c41535f-5631-42e6-9b69-6361645f7063,rev?*%
%TF.SameCoordinates,Original*%
%TF.FileFunction,Copper,L2,Bot*%
%TF.FilePolarity,Positive*%
%FSLAX46Y46*%
G04 Gerber Fmt 4.6, Leading zero omitted, Abs format (unit mm)*
G04 Created by KiCad (PCBNEW 7.0.1) date 2023-08-29 13:16:49*
%MOMM*%
%LPD*%
G01*
G04 APERTURE LIST*
%TA.AperFunction,ComponentPad*%
%ADD10O,1.000000X1.000000*%
%TD*%
%TA.AperFunction,ComponentPad*%
%ADD11R,1.000000X1.000000*%
%TD*%
%TA.AperFunction,ComponentPad*%
%ADD12C,2.400000*%
%TD*%
%TA.AperFunction,ComponentPad*%
%ADD13O,2.400000X2.400000*%
%TD*%
%TA.AperFunction,ComponentPad*%
%ADD14C,3.000000*%
%TD*%
%TA.AperFunction,ComponentPad*%
%ADD15C,2.500000*%
%TD*%
%TA.AperFunction,ComponentPad*%
%ADD16O,2.000000X1.200000*%
%TD*%
%TA.AperFunction,ComponentPad*%
%ADD17O,1.800000X1.200000*%
%TD*%
%TA.AperFunction,ComponentPad*%
%ADD18R,2.600000X2.600000*%
%TD*%
%TA.AperFunction,ComponentPad*%
%ADD19C,2.600000*%
%TD*%
G04 APERTURE END LIST*
D10*
%TO.P,SW2,2,2*%
%TO.N,/CHIP_PU*%
X98730000Y-61510000D03*
D11*
%TO.P,SW2,1,1*%
%TO.N,GND*%
X100000000Y-61510000D03*
%TD*%
D10*
%TO.P,SW1,2,2*%
%TO.N,/BOOT_SEL*%
X98480000Y-67510000D03*
D11*
%TO.P,SW1,1,1*%
%TO.N,GND*%
X99750000Y-67510000D03*
%TD*%
D12*
%TO.P,R17,1*%
%TO.N,Net-(D8-+)*%
X156500000Y-123000000D03*
D13*
%TO.P,R17,2*%
%TO.N,Net-(D11-K)*%
X181900000Y-123000000D03*
%TD*%
D14*
%TO.P,K1,1*%
%TO.N,/LIVE*%
X140950000Y-148150000D03*
D15*
%TO.P,K1,2*%
%TO.N,/VBus*%
X147000000Y-146200000D03*
D14*
%TO.P,K1,3*%
%TO.N,/N01*%
X147000000Y-134000000D03*
%TO.P,K1,4*%
%TO.N,/NC1*%
X134950000Y-133950000D03*
D15*
%TO.P,K1,5*%
%TO.N,Net-(D6-K)*%
X135000000Y-146200000D03*
%TD*%
D11*
%TO.P,J9,1,Pin_1*%
%TO.N,Net-(J9-Pin_1)*%
X178300000Y-128450000D03*
D10*
%TO.P,J9,2,Pin_2*%
%TO.N,/LIVE*%
X178300000Y-129720000D03*
%TD*%
D11*
%TO.P,J8,1,Pin_1*%
%TO.N,Net-(J8-Pin_1)*%
X181000000Y-71500000D03*
D10*
%TO.P,J8,2,Pin_2*%
%TO.N,Net-(J8-Pin_2)*%
X181000000Y-72770000D03*
%TO.P,J8,3,Pin_3*%
%TO.N,/TXD0*%
X181000000Y-74040000D03*
%TO.P,J8,4,Pin_4*%
%TO.N,/RXD0*%
X181000000Y-75310000D03*
%TO.P,J8,5,Pin_5*%
%TO.N,/VBus*%
X181000000Y-76580000D03*
%TD*%
D16*
%TO.P,J7,0*%
%TO.N,N/C*%
X177745500Y-66325000D03*
%TO.P,J7,1*%
X177745500Y-57675000D03*
D17*
%TO.P,J7,2*%
X181925500Y-57675000D03*
%TO.P,J7,3*%
X181925500Y-66325000D03*
%TD*%
D11*
%TO.P,J6,1,Pin_1*%
%TO.N,/GPIO6*%
X114500000Y-140500000D03*
D10*
%TO.P,J6,2,Pin_2*%
%TO.N,Net-(J6-Pin_2)*%
X113230000Y-140500000D03*
%TD*%
D11*
%TO.P,J5,1,Pin_1*%
%TO.N,GND*%
X134450000Y-69250000D03*
D10*
%TO.P,J5,2,Pin_2*%
%TO.N,/TXD0*%
X134450000Y-70520000D03*
%TO.P,J5,3,Pin_3*%
%TO.N,/RXD0*%
X134450000Y-71790000D03*
%TO.P,J5,4,Pin_4*%
%TO.N,/GPIO1*%
X134450000Y-73060000D03*
%TO.P,J5,5,Pin_5*%
%TO.N,/GPIO2*%
X134450000Y-74330000D03*
%TO.P,J5,6,Pin_6*%
%TO.N,/GPIO42*%
X134450000Y-75600000D03*
%TO.P,J5,7,Pin_7*%
%TO.N,/GPIO41*%
X134450000Y-76870000D03*
%TO.P,J5,8,Pin_8*%
%TO.N,/GPIO40*%
X134450000Y-78140000D03*
%TO.P,J5,9,Pin_9*%
%TO.N,/GPIO39*%
X134450000Y-79410000D03*
%TO.P,J5,10,Pin_10*%
%TO.N,/GPIO38*%
X134450000Y-80680000D03*
%TO.P,J5,11,Pin_11*%
%TO.N,/GPIO37*%
X134450000Y-81950000D03*
%TO.P,J5,12,Pin_12*%
%TO.N,/GPIO36*%
X134450000Y-83220000D03*
%TO.P,J5,13,Pin_13*%
%TO.N,/GPIO35*%
X134450000Y-84490000D03*
%TO.P,J5,14,Pin_14*%
%TO.N,/BOOT_SEL*%
X134450000Y-85760000D03*
%TO.P,J5,15,Pin_15*%
%TO.N,/GPIO45*%
X134450000Y-87030000D03*
%TO.P,J5,16,Pin_16*%
%TO.N,/GPIO48*%
X134450000Y-88300000D03*
%TO.P,J5,17,Pin_17*%
%TO.N,/GPIO47*%
X134450000Y-89570000D03*
%TO.P,J5,18,Pin_18*%
%TO.N,/GPIO21*%
X134450000Y-90840000D03*
%TO.P,J5,19,Pin_19*%
%TO.N,/GPIO20*%
X134450000Y-92110000D03*
%TO.P,J5,20,Pin_20*%
%TO.N,/GPIO19*%
X134450000Y-93380000D03*
%TO.P,J5,21,Pin_21*%
%TO.N,GND*%
X134450000Y-94650000D03*
%TO.P,J5,22,Pin_22*%
X134450000Y-95920000D03*
%TD*%
%TO.P,J4,22,Pin_22*%
%TO.N,unconnected-(J4-Pin_22-Pad22)*%
X109050000Y-95920000D03*
%TO.P,J4,21,Pin_21*%
%TO.N,unconnected-(J4-Pin_21-Pad21)*%
X109050000Y-94650000D03*
%TO.P,J4,20,Pin_20*%
%TO.N,/GPIO14*%
X109050000Y-93380000D03*
%TO.P,J4,19,Pin_19*%
%TO.N,/GPIO13*%
X109050000Y-92110000D03*
%TO.P,J4,18,Pin_18*%
%TO.N,/GPIO12*%
X109050000Y-90840000D03*
%TO.P,J4,17,Pin_17*%
%TO.N,/GPIO11*%
X109050000Y-89570000D03*
%TO.P,J4,16,Pin_16*%
%TO.N,/GPIO10*%
X109050000Y-88300000D03*
%TO.P,J4,15,Pin_15*%
%TO.N,/GPIO9*%
X109050000Y-87030000D03*
%TO.P,J4,14,Pin_14*%
%TO.N,/GPIO46*%
X109050000Y-85760000D03*
%TO.P,J4,13,Pin_13*%
%TO.N,/GPIO3*%
X109050000Y-84490000D03*
%TO.P,J4,12,Pin_12*%
%TO.N,/GPIO8*%
X109050000Y-83220000D03*
%TO.P,J4,11,Pin_11*%
%TO.N,/GPIO18*%
X109050000Y-81950000D03*
%TO.P,J4,10,Pin_10*%
%TO.N,/GPIO17*%
X109050000Y-80680000D03*
%TO.P,J4,9,Pin_9*%
%TO.N,/GPIO16*%
X109050000Y-79410000D03*
%TO.P,J4,8,Pin_8*%
%TO.N,/GPIO15*%
X109050000Y-78140000D03*
%TO.P,J4,7,Pin_7*%
%TO.N,/AC_Mon_1*%
X109050000Y-76870000D03*
%TO.P,J4,6,Pin_6*%
%TO.N,/GPIO6*%
X109050000Y-75600000D03*
%TO.P,J4,5,Pin_5*%
%TO.N,/DIN_3.3*%
X109050000Y-74330000D03*
%TO.P,J4,4,Pin_4*%
%TO.N,/GPIO4*%
X109050000Y-73060000D03*
%TO.P,J4,3,Pin_3*%
%TO.N,/CHIP_PU*%
X109050000Y-71790000D03*
%TO.P,J4,2,Pin_2*%
%TO.N,/+3.3V*%
X109050000Y-70520000D03*
D11*
%TO.P,J4,1,Pin_1*%
X109050000Y-69250000D03*
%TD*%
%TO.P,J3,1,Pin_1*%
%TO.N,/TX_RFID*%
X104500000Y-103690000D03*
D10*
%TO.P,J3,2,Pin_2*%
%TO.N,unconnected-(J3-Pin_2-Pad2)*%
X104500000Y-104960000D03*
%TO.P,J3,3,Pin_3*%
%TO.N,unconnected-(J3-Pin_3-Pad3)*%
X104500000Y-106230000D03*
%TO.P,J3,4,Pin_4*%
%TO.N,GND*%
X104500000Y-107500000D03*
%TO.P,J3,5,Pin_5*%
%TO.N,/VBus*%
X104500000Y-108770000D03*
%TD*%
D11*
%TO.P,J2,1,Pin_1*%
%TO.N,/+3.3V*%
X119000000Y-104225000D03*
D10*
%TO.P,J2,2,Pin_2*%
%TO.N,/VBus*%
X119000000Y-105495000D03*
%TO.P,J2,3,Pin_3*%
%TO.N,GND*%
X119000000Y-106765000D03*
%TD*%
D18*
%TO.P,J1,1,Pin_1*%
%TO.N,/NEUTRAL*%
X163340000Y-144000000D03*
D19*
%TO.P,J1,2,Pin_2*%
%TO.N,/N01*%
X168420000Y-144000000D03*
%TO.P,J1,3,Pin_3*%
%TO.N,/NC1*%
X173500000Y-144000000D03*
%TO.P,J1,4,Pin_4*%
%TO.N,/LIVE*%
X178580000Y-144000000D03*
%TD*%
M02*
