%TF.GenerationSoftware,KiCad,Pcbnew,7.0.1*%
%TF.CreationDate,2023-08-30T08:57:09+02:00*%
%TF.ProjectId,LAS_V1,4c41535f-5631-42e6-9b69-6361645f7063,rev?*%
%TF.SameCoordinates,Original*%
%TF.FileFunction,Legend,Top*%
%TF.FilePolarity,Positive*%
%FSLAX46Y46*%
G04 Gerber Fmt 4.6, Leading zero omitted, Abs format (unit mm)*
G04 Created by KiCad (PCBNEW 7.0.1) date 2023-08-30 08:57:10*
%MOMM*%
%LPD*%
G01*
G04 APERTURE LIST*
G04 Aperture macros list*
%AMRoundRect*
0 Rectangle with rounded corners*
0 $1 Rounding radius*
0 $2 $3 $4 $5 $6 $7 $8 $9 X,Y pos of 4 corners*
0 Add a 4 corners polygon primitive as box body*
4,1,4,$2,$3,$4,$5,$6,$7,$8,$9,$2,$3,0*
0 Add four circle primitives for the rounded corners*
1,1,$1+$1,$2,$3*
1,1,$1+$1,$4,$5*
1,1,$1+$1,$6,$7*
1,1,$1+$1,$8,$9*
0 Add four rect primitives between the rounded corners*
20,1,$1+$1,$2,$3,$4,$5,0*
20,1,$1+$1,$4,$5,$6,$7,0*
20,1,$1+$1,$6,$7,$8,$9,0*
20,1,$1+$1,$8,$9,$2,$3,0*%
G04 Aperture macros list end*
%ADD10C,0.150000*%
%ADD11C,0.152000*%
%ADD12C,0.254000*%
%ADD13C,0.120000*%
%ADD14C,0.750000*%
%ADD15O,2.000000X1.200000*%
%ADD16O,1.800000X1.200000*%
%ADD17R,1.300000X0.300000*%
%ADD18RoundRect,0.250000X-0.625000X0.312500X-0.625000X-0.312500X0.625000X-0.312500X0.625000X0.312500X0*%
%ADD19R,1.000000X1.000000*%
%ADD20O,1.000000X1.000000*%
%ADD21RoundRect,0.200000X-0.275000X0.200000X-0.275000X-0.200000X0.275000X-0.200000X0.275000X0.200000X0*%
%ADD22RoundRect,0.200000X0.275000X-0.200000X0.275000X0.200000X-0.275000X0.200000X-0.275000X-0.200000X0*%
%ADD23RoundRect,0.243750X0.243750X0.456250X-0.243750X0.456250X-0.243750X-0.456250X0.243750X-0.456250X0*%
%ADD24RoundRect,0.218750X-0.256250X0.218750X-0.256250X-0.218750X0.256250X-0.218750X0.256250X0.218750X0*%
%ADD25RoundRect,0.150000X-0.587500X-0.150000X0.587500X-0.150000X0.587500X0.150000X-0.587500X0.150000X0*%
%ADD26R,2.600000X2.600000*%
%ADD27C,2.600000*%
%ADD28RoundRect,0.225000X-0.250000X0.225000X-0.250000X-0.225000X0.250000X-0.225000X0.250000X0.225000X0*%
%ADD29C,2.400000*%
%ADD30O,2.400000X2.400000*%
%ADD31RoundRect,0.200000X-0.200000X-0.275000X0.200000X-0.275000X0.200000X0.275000X-0.200000X0.275000X0*%
%ADD32R,2.000000X1.500000*%
%ADD33R,2.000000X3.800000*%
%ADD34RoundRect,0.150000X0.150000X-0.825000X0.150000X0.825000X-0.150000X0.825000X-0.150000X-0.825000X0*%
%ADD35C,1.500000*%
%ADD36R,1.500000X0.900000*%
%ADD37R,0.900000X1.500000*%
%ADD38R,0.900000X0.900000*%
%ADD39RoundRect,0.200000X0.200000X0.275000X-0.200000X0.275000X-0.200000X-0.275000X0.200000X-0.275000X0*%
%ADD40C,3.000000*%
%ADD41C,2.500000*%
%ADD42RoundRect,0.225000X-0.225000X-0.250000X0.225000X-0.250000X0.225000X0.250000X-0.225000X0.250000X0*%
%ADD43RoundRect,0.112500X0.112500X-0.187500X0.112500X0.187500X-0.112500X0.187500X-0.112500X-0.187500X0*%
%ADD44RoundRect,0.250000X0.312500X0.625000X-0.312500X0.625000X-0.312500X-0.625000X0.312500X-0.625000X0*%
%ADD45RoundRect,0.250000X-0.312500X-0.625000X0.312500X-0.625000X0.312500X0.625000X-0.312500X0.625000X0*%
%ADD46RoundRect,0.150000X0.150000X-0.587500X0.150000X0.587500X-0.150000X0.587500X-0.150000X-0.587500X0*%
%ADD47RoundRect,0.225000X0.250000X-0.225000X0.250000X0.225000X-0.250000X0.225000X-0.250000X-0.225000X0*%
%ADD48RoundRect,0.250000X-0.600000X0.400000X-0.600000X-0.400000X0.600000X-0.400000X0.600000X0.400000X0*%
%ADD49R,1.100000X2.000000*%
%ADD50RoundRect,0.137500X0.587500X0.137500X-0.587500X0.137500X-0.587500X-0.137500X0.587500X-0.137500X0*%
G04 APERTURE END LIST*
D10*
X153746666Y-92761904D02*
X153746666Y-92000000D01*
X154127619Y-92380952D02*
X153365714Y-92380952D01*
X153127619Y-91619047D02*
X153127619Y-91000000D01*
X153127619Y-91000000D02*
X153508571Y-91333333D01*
X153508571Y-91333333D02*
X153508571Y-91190476D01*
X153508571Y-91190476D02*
X153556190Y-91095238D01*
X153556190Y-91095238D02*
X153603809Y-91047619D01*
X153603809Y-91047619D02*
X153699047Y-91000000D01*
X153699047Y-91000000D02*
X153937142Y-91000000D01*
X153937142Y-91000000D02*
X154032380Y-91047619D01*
X154032380Y-91047619D02*
X154080000Y-91095238D01*
X154080000Y-91095238D02*
X154127619Y-91190476D01*
X154127619Y-91190476D02*
X154127619Y-91476190D01*
X154127619Y-91476190D02*
X154080000Y-91571428D01*
X154080000Y-91571428D02*
X154032380Y-91619047D01*
X154032380Y-90571428D02*
X154080000Y-90523809D01*
X154080000Y-90523809D02*
X154127619Y-90571428D01*
X154127619Y-90571428D02*
X154080000Y-90619047D01*
X154080000Y-90619047D02*
X154032380Y-90571428D01*
X154032380Y-90571428D02*
X154127619Y-90571428D01*
X153127619Y-90190476D02*
X153127619Y-89571429D01*
X153127619Y-89571429D02*
X153508571Y-89904762D01*
X153508571Y-89904762D02*
X153508571Y-89761905D01*
X153508571Y-89761905D02*
X153556190Y-89666667D01*
X153556190Y-89666667D02*
X153603809Y-89619048D01*
X153603809Y-89619048D02*
X153699047Y-89571429D01*
X153699047Y-89571429D02*
X153937142Y-89571429D01*
X153937142Y-89571429D02*
X154032380Y-89619048D01*
X154032380Y-89619048D02*
X154080000Y-89666667D01*
X154080000Y-89666667D02*
X154127619Y-89761905D01*
X154127619Y-89761905D02*
X154127619Y-90047619D01*
X154127619Y-90047619D02*
X154080000Y-90142857D01*
X154080000Y-90142857D02*
X154032380Y-90190476D01*
X153127619Y-89285714D02*
X154127619Y-88952381D01*
X154127619Y-88952381D02*
X153127619Y-88619048D01*
X152988095Y-83377619D02*
X152988095Y-82377619D01*
X152988095Y-82377619D02*
X153226190Y-82377619D01*
X153226190Y-82377619D02*
X153369047Y-82425238D01*
X153369047Y-82425238D02*
X153464285Y-82520476D01*
X153464285Y-82520476D02*
X153511904Y-82615714D01*
X153511904Y-82615714D02*
X153559523Y-82806190D01*
X153559523Y-82806190D02*
X153559523Y-82949047D01*
X153559523Y-82949047D02*
X153511904Y-83139523D01*
X153511904Y-83139523D02*
X153464285Y-83234761D01*
X153464285Y-83234761D02*
X153369047Y-83330000D01*
X153369047Y-83330000D02*
X153226190Y-83377619D01*
X153226190Y-83377619D02*
X152988095Y-83377619D01*
X153988095Y-82996666D02*
X154750000Y-82996666D01*
X154595238Y-88127619D02*
X154928571Y-89127619D01*
X154928571Y-89127619D02*
X155261904Y-88127619D01*
X155928571Y-88603809D02*
X156071428Y-88651428D01*
X156071428Y-88651428D02*
X156119047Y-88699047D01*
X156119047Y-88699047D02*
X156166666Y-88794285D01*
X156166666Y-88794285D02*
X156166666Y-88937142D01*
X156166666Y-88937142D02*
X156119047Y-89032380D01*
X156119047Y-89032380D02*
X156071428Y-89080000D01*
X156071428Y-89080000D02*
X155976190Y-89127619D01*
X155976190Y-89127619D02*
X155595238Y-89127619D01*
X155595238Y-89127619D02*
X155595238Y-88127619D01*
X155595238Y-88127619D02*
X155928571Y-88127619D01*
X155928571Y-88127619D02*
X156023809Y-88175238D01*
X156023809Y-88175238D02*
X156071428Y-88222857D01*
X156071428Y-88222857D02*
X156119047Y-88318095D01*
X156119047Y-88318095D02*
X156119047Y-88413333D01*
X156119047Y-88413333D02*
X156071428Y-88508571D01*
X156071428Y-88508571D02*
X156023809Y-88556190D01*
X156023809Y-88556190D02*
X155928571Y-88603809D01*
X155928571Y-88603809D02*
X155595238Y-88603809D01*
X156595238Y-88127619D02*
X156595238Y-88937142D01*
X156595238Y-88937142D02*
X156642857Y-89032380D01*
X156642857Y-89032380D02*
X156690476Y-89080000D01*
X156690476Y-89080000D02*
X156785714Y-89127619D01*
X156785714Y-89127619D02*
X156976190Y-89127619D01*
X156976190Y-89127619D02*
X157071428Y-89080000D01*
X157071428Y-89080000D02*
X157119047Y-89032380D01*
X157119047Y-89032380D02*
X157166666Y-88937142D01*
X157166666Y-88937142D02*
X157166666Y-88127619D01*
X157595238Y-89080000D02*
X157738095Y-89127619D01*
X157738095Y-89127619D02*
X157976190Y-89127619D01*
X157976190Y-89127619D02*
X158071428Y-89080000D01*
X158071428Y-89080000D02*
X158119047Y-89032380D01*
X158119047Y-89032380D02*
X158166666Y-88937142D01*
X158166666Y-88937142D02*
X158166666Y-88841904D01*
X158166666Y-88841904D02*
X158119047Y-88746666D01*
X158119047Y-88746666D02*
X158071428Y-88699047D01*
X158071428Y-88699047D02*
X157976190Y-88651428D01*
X157976190Y-88651428D02*
X157785714Y-88603809D01*
X157785714Y-88603809D02*
X157690476Y-88556190D01*
X157690476Y-88556190D02*
X157642857Y-88508571D01*
X157642857Y-88508571D02*
X157595238Y-88413333D01*
X157595238Y-88413333D02*
X157595238Y-88318095D01*
X157595238Y-88318095D02*
X157642857Y-88222857D01*
X157642857Y-88222857D02*
X157690476Y-88175238D01*
X157690476Y-88175238D02*
X157785714Y-88127619D01*
X157785714Y-88127619D02*
X158023809Y-88127619D01*
X158023809Y-88127619D02*
X158166666Y-88175238D01*
X153559523Y-86377619D02*
X153226190Y-85901428D01*
X152988095Y-86377619D02*
X152988095Y-85377619D01*
X152988095Y-85377619D02*
X153369047Y-85377619D01*
X153369047Y-85377619D02*
X153464285Y-85425238D01*
X153464285Y-85425238D02*
X153511904Y-85472857D01*
X153511904Y-85472857D02*
X153559523Y-85568095D01*
X153559523Y-85568095D02*
X153559523Y-85710952D01*
X153559523Y-85710952D02*
X153511904Y-85806190D01*
X153511904Y-85806190D02*
X153464285Y-85853809D01*
X153464285Y-85853809D02*
X153369047Y-85901428D01*
X153369047Y-85901428D02*
X152988095Y-85901428D01*
X153892857Y-85377619D02*
X154559523Y-86377619D01*
X154559523Y-85377619D02*
X153892857Y-86377619D01*
X147559523Y-116627619D02*
X147226190Y-116151428D01*
X146988095Y-116627619D02*
X146988095Y-115627619D01*
X146988095Y-115627619D02*
X147369047Y-115627619D01*
X147369047Y-115627619D02*
X147464285Y-115675238D01*
X147464285Y-115675238D02*
X147511904Y-115722857D01*
X147511904Y-115722857D02*
X147559523Y-115818095D01*
X147559523Y-115818095D02*
X147559523Y-115960952D01*
X147559523Y-115960952D02*
X147511904Y-116056190D01*
X147511904Y-116056190D02*
X147464285Y-116103809D01*
X147464285Y-116103809D02*
X147369047Y-116151428D01*
X147369047Y-116151428D02*
X146988095Y-116151428D01*
X148321428Y-116103809D02*
X147988095Y-116103809D01*
X147988095Y-116627619D02*
X147988095Y-115627619D01*
X147988095Y-115627619D02*
X148464285Y-115627619D01*
X148845238Y-116627619D02*
X148845238Y-115627619D01*
X149321428Y-116627619D02*
X149321428Y-115627619D01*
X149321428Y-115627619D02*
X149559523Y-115627619D01*
X149559523Y-115627619D02*
X149702380Y-115675238D01*
X149702380Y-115675238D02*
X149797618Y-115770476D01*
X149797618Y-115770476D02*
X149845237Y-115865714D01*
X149845237Y-115865714D02*
X149892856Y-116056190D01*
X149892856Y-116056190D02*
X149892856Y-116199047D01*
X149892856Y-116199047D02*
X149845237Y-116389523D01*
X149845237Y-116389523D02*
X149797618Y-116484761D01*
X149797618Y-116484761D02*
X149702380Y-116580000D01*
X149702380Y-116580000D02*
X149559523Y-116627619D01*
X149559523Y-116627619D02*
X149321428Y-116627619D01*
X151654761Y-116532380D02*
X151607142Y-116580000D01*
X151607142Y-116580000D02*
X151464285Y-116627619D01*
X151464285Y-116627619D02*
X151369047Y-116627619D01*
X151369047Y-116627619D02*
X151226190Y-116580000D01*
X151226190Y-116580000D02*
X151130952Y-116484761D01*
X151130952Y-116484761D02*
X151083333Y-116389523D01*
X151083333Y-116389523D02*
X151035714Y-116199047D01*
X151035714Y-116199047D02*
X151035714Y-116056190D01*
X151035714Y-116056190D02*
X151083333Y-115865714D01*
X151083333Y-115865714D02*
X151130952Y-115770476D01*
X151130952Y-115770476D02*
X151226190Y-115675238D01*
X151226190Y-115675238D02*
X151369047Y-115627619D01*
X151369047Y-115627619D02*
X151464285Y-115627619D01*
X151464285Y-115627619D02*
X151607142Y-115675238D01*
X151607142Y-115675238D02*
X151654761Y-115722857D01*
X152226190Y-116627619D02*
X152130952Y-116580000D01*
X152130952Y-116580000D02*
X152083333Y-116532380D01*
X152083333Y-116532380D02*
X152035714Y-116437142D01*
X152035714Y-116437142D02*
X152035714Y-116151428D01*
X152035714Y-116151428D02*
X152083333Y-116056190D01*
X152083333Y-116056190D02*
X152130952Y-116008571D01*
X152130952Y-116008571D02*
X152226190Y-115960952D01*
X152226190Y-115960952D02*
X152369047Y-115960952D01*
X152369047Y-115960952D02*
X152464285Y-116008571D01*
X152464285Y-116008571D02*
X152511904Y-116056190D01*
X152511904Y-116056190D02*
X152559523Y-116151428D01*
X152559523Y-116151428D02*
X152559523Y-116437142D01*
X152559523Y-116437142D02*
X152511904Y-116532380D01*
X152511904Y-116532380D02*
X152464285Y-116580000D01*
X152464285Y-116580000D02*
X152369047Y-116627619D01*
X152369047Y-116627619D02*
X152226190Y-116627619D01*
X152988095Y-115960952D02*
X152988095Y-116627619D01*
X152988095Y-116056190D02*
X153035714Y-116008571D01*
X153035714Y-116008571D02*
X153130952Y-115960952D01*
X153130952Y-115960952D02*
X153273809Y-115960952D01*
X153273809Y-115960952D02*
X153369047Y-116008571D01*
X153369047Y-116008571D02*
X153416666Y-116103809D01*
X153416666Y-116103809D02*
X153416666Y-116627619D01*
X153892857Y-115960952D02*
X153892857Y-116627619D01*
X153892857Y-116056190D02*
X153940476Y-116008571D01*
X153940476Y-116008571D02*
X154035714Y-115960952D01*
X154035714Y-115960952D02*
X154178571Y-115960952D01*
X154178571Y-115960952D02*
X154273809Y-116008571D01*
X154273809Y-116008571D02*
X154321428Y-116103809D01*
X154321428Y-116103809D02*
X154321428Y-116627619D01*
X155178571Y-116580000D02*
X155083333Y-116627619D01*
X155083333Y-116627619D02*
X154892857Y-116627619D01*
X154892857Y-116627619D02*
X154797619Y-116580000D01*
X154797619Y-116580000D02*
X154750000Y-116484761D01*
X154750000Y-116484761D02*
X154750000Y-116103809D01*
X154750000Y-116103809D02*
X154797619Y-116008571D01*
X154797619Y-116008571D02*
X154892857Y-115960952D01*
X154892857Y-115960952D02*
X155083333Y-115960952D01*
X155083333Y-115960952D02*
X155178571Y-116008571D01*
X155178571Y-116008571D02*
X155226190Y-116103809D01*
X155226190Y-116103809D02*
X155226190Y-116199047D01*
X155226190Y-116199047D02*
X154750000Y-116294285D01*
X156083333Y-116580000D02*
X155988095Y-116627619D01*
X155988095Y-116627619D02*
X155797619Y-116627619D01*
X155797619Y-116627619D02*
X155702381Y-116580000D01*
X155702381Y-116580000D02*
X155654762Y-116532380D01*
X155654762Y-116532380D02*
X155607143Y-116437142D01*
X155607143Y-116437142D02*
X155607143Y-116151428D01*
X155607143Y-116151428D02*
X155654762Y-116056190D01*
X155654762Y-116056190D02*
X155702381Y-116008571D01*
X155702381Y-116008571D02*
X155797619Y-115960952D01*
X155797619Y-115960952D02*
X155988095Y-115960952D01*
X155988095Y-115960952D02*
X156083333Y-116008571D01*
X156369048Y-115960952D02*
X156750000Y-115960952D01*
X156511905Y-115627619D02*
X156511905Y-116484761D01*
X156511905Y-116484761D02*
X156559524Y-116580000D01*
X156559524Y-116580000D02*
X156654762Y-116627619D01*
X156654762Y-116627619D02*
X156750000Y-116627619D01*
X157226191Y-116627619D02*
X157130953Y-116580000D01*
X157130953Y-116580000D02*
X157083334Y-116532380D01*
X157083334Y-116532380D02*
X157035715Y-116437142D01*
X157035715Y-116437142D02*
X157035715Y-116151428D01*
X157035715Y-116151428D02*
X157083334Y-116056190D01*
X157083334Y-116056190D02*
X157130953Y-116008571D01*
X157130953Y-116008571D02*
X157226191Y-115960952D01*
X157226191Y-115960952D02*
X157369048Y-115960952D01*
X157369048Y-115960952D02*
X157464286Y-116008571D01*
X157464286Y-116008571D02*
X157511905Y-116056190D01*
X157511905Y-116056190D02*
X157559524Y-116151428D01*
X157559524Y-116151428D02*
X157559524Y-116437142D01*
X157559524Y-116437142D02*
X157511905Y-116532380D01*
X157511905Y-116532380D02*
X157464286Y-116580000D01*
X157464286Y-116580000D02*
X157369048Y-116627619D01*
X157369048Y-116627619D02*
X157226191Y-116627619D01*
X157988096Y-116627619D02*
X157988096Y-115960952D01*
X157988096Y-116151428D02*
X158035715Y-116056190D01*
X158035715Y-116056190D02*
X158083334Y-116008571D01*
X158083334Y-116008571D02*
X158178572Y-115960952D01*
X158178572Y-115960952D02*
X158273810Y-115960952D01*
X152845238Y-83877619D02*
X153416666Y-83877619D01*
X153130952Y-84877619D02*
X153130952Y-83877619D01*
X153654762Y-83877619D02*
X154321428Y-84877619D01*
X154321428Y-83877619D02*
X153654762Y-84877619D01*
X153746666Y-97511904D02*
X153746666Y-96750000D01*
X154127619Y-97130952D02*
X153365714Y-97130952D01*
X153127619Y-95797619D02*
X153127619Y-96273809D01*
X153127619Y-96273809D02*
X153603809Y-96321428D01*
X153603809Y-96321428D02*
X153556190Y-96273809D01*
X153556190Y-96273809D02*
X153508571Y-96178571D01*
X153508571Y-96178571D02*
X153508571Y-95940476D01*
X153508571Y-95940476D02*
X153556190Y-95845238D01*
X153556190Y-95845238D02*
X153603809Y-95797619D01*
X153603809Y-95797619D02*
X153699047Y-95750000D01*
X153699047Y-95750000D02*
X153937142Y-95750000D01*
X153937142Y-95750000D02*
X154032380Y-95797619D01*
X154032380Y-95797619D02*
X154080000Y-95845238D01*
X154080000Y-95845238D02*
X154127619Y-95940476D01*
X154127619Y-95940476D02*
X154127619Y-96178571D01*
X154127619Y-96178571D02*
X154080000Y-96273809D01*
X154080000Y-96273809D02*
X154032380Y-96321428D01*
X153127619Y-95464285D02*
X154127619Y-95130952D01*
X154127619Y-95130952D02*
X153127619Y-94797619D01*
X152988095Y-81877619D02*
X152988095Y-80877619D01*
X152988095Y-80877619D02*
X153226190Y-80877619D01*
X153226190Y-80877619D02*
X153369047Y-80925238D01*
X153369047Y-80925238D02*
X153464285Y-81020476D01*
X153464285Y-81020476D02*
X153511904Y-81115714D01*
X153511904Y-81115714D02*
X153559523Y-81306190D01*
X153559523Y-81306190D02*
X153559523Y-81449047D01*
X153559523Y-81449047D02*
X153511904Y-81639523D01*
X153511904Y-81639523D02*
X153464285Y-81734761D01*
X153464285Y-81734761D02*
X153369047Y-81830000D01*
X153369047Y-81830000D02*
X153226190Y-81877619D01*
X153226190Y-81877619D02*
X152988095Y-81877619D01*
X153988095Y-81496666D02*
X154750000Y-81496666D01*
X154369047Y-81877619D02*
X154369047Y-81115714D01*
D11*
%TO.C,J7*%
X151098714Y-67135773D02*
X151098714Y-67952202D01*
X151098714Y-67952202D02*
X151044285Y-68115487D01*
X151044285Y-68115487D02*
X150935428Y-68224345D01*
X150935428Y-68224345D02*
X150772142Y-68278773D01*
X150772142Y-68278773D02*
X150663285Y-68278773D01*
X151534142Y-67135773D02*
X152296142Y-67135773D01*
X152296142Y-67135773D02*
X151806285Y-68278773D01*
D10*
%TO.C,R2*%
X103462619Y-64676666D02*
X102986428Y-65009999D01*
X103462619Y-65248094D02*
X102462619Y-65248094D01*
X102462619Y-65248094D02*
X102462619Y-64867142D01*
X102462619Y-64867142D02*
X102510238Y-64771904D01*
X102510238Y-64771904D02*
X102557857Y-64724285D01*
X102557857Y-64724285D02*
X102653095Y-64676666D01*
X102653095Y-64676666D02*
X102795952Y-64676666D01*
X102795952Y-64676666D02*
X102891190Y-64724285D01*
X102891190Y-64724285D02*
X102938809Y-64771904D01*
X102938809Y-64771904D02*
X102986428Y-64867142D01*
X102986428Y-64867142D02*
X102986428Y-65248094D01*
X102557857Y-64295713D02*
X102510238Y-64248094D01*
X102510238Y-64248094D02*
X102462619Y-64152856D01*
X102462619Y-64152856D02*
X102462619Y-63914761D01*
X102462619Y-63914761D02*
X102510238Y-63819523D01*
X102510238Y-63819523D02*
X102557857Y-63771904D01*
X102557857Y-63771904D02*
X102653095Y-63724285D01*
X102653095Y-63724285D02*
X102748333Y-63724285D01*
X102748333Y-63724285D02*
X102891190Y-63771904D01*
X102891190Y-63771904D02*
X103462619Y-64343332D01*
X103462619Y-64343332D02*
X103462619Y-63724285D01*
%TO.C,SW1*%
X97916667Y-65435000D02*
X98059524Y-65482619D01*
X98059524Y-65482619D02*
X98297619Y-65482619D01*
X98297619Y-65482619D02*
X98392857Y-65435000D01*
X98392857Y-65435000D02*
X98440476Y-65387380D01*
X98440476Y-65387380D02*
X98488095Y-65292142D01*
X98488095Y-65292142D02*
X98488095Y-65196904D01*
X98488095Y-65196904D02*
X98440476Y-65101666D01*
X98440476Y-65101666D02*
X98392857Y-65054047D01*
X98392857Y-65054047D02*
X98297619Y-65006428D01*
X98297619Y-65006428D02*
X98107143Y-64958809D01*
X98107143Y-64958809D02*
X98011905Y-64911190D01*
X98011905Y-64911190D02*
X97964286Y-64863571D01*
X97964286Y-64863571D02*
X97916667Y-64768333D01*
X97916667Y-64768333D02*
X97916667Y-64673095D01*
X97916667Y-64673095D02*
X97964286Y-64577857D01*
X97964286Y-64577857D02*
X98011905Y-64530238D01*
X98011905Y-64530238D02*
X98107143Y-64482619D01*
X98107143Y-64482619D02*
X98345238Y-64482619D01*
X98345238Y-64482619D02*
X98488095Y-64530238D01*
X98821429Y-64482619D02*
X99059524Y-65482619D01*
X99059524Y-65482619D02*
X99250000Y-64768333D01*
X99250000Y-64768333D02*
X99440476Y-65482619D01*
X99440476Y-65482619D02*
X99678572Y-64482619D01*
X100583333Y-65482619D02*
X100011905Y-65482619D01*
X100297619Y-65482619D02*
X100297619Y-64482619D01*
X100297619Y-64482619D02*
X100202381Y-64625476D01*
X100202381Y-64625476D02*
X100107143Y-64720714D01*
X100107143Y-64720714D02*
X100011905Y-64768333D01*
%TO.C,J4*%
X108716666Y-67017619D02*
X108716666Y-67731904D01*
X108716666Y-67731904D02*
X108669047Y-67874761D01*
X108669047Y-67874761D02*
X108573809Y-67970000D01*
X108573809Y-67970000D02*
X108430952Y-68017619D01*
X108430952Y-68017619D02*
X108335714Y-68017619D01*
X109621428Y-67350952D02*
X109621428Y-68017619D01*
X109383333Y-66970000D02*
X109145238Y-67684285D01*
X109145238Y-67684285D02*
X109764285Y-67684285D01*
%TO.C,R12*%
X110712619Y-62152857D02*
X110236428Y-62486190D01*
X110712619Y-62724285D02*
X109712619Y-62724285D01*
X109712619Y-62724285D02*
X109712619Y-62343333D01*
X109712619Y-62343333D02*
X109760238Y-62248095D01*
X109760238Y-62248095D02*
X109807857Y-62200476D01*
X109807857Y-62200476D02*
X109903095Y-62152857D01*
X109903095Y-62152857D02*
X110045952Y-62152857D01*
X110045952Y-62152857D02*
X110141190Y-62200476D01*
X110141190Y-62200476D02*
X110188809Y-62248095D01*
X110188809Y-62248095D02*
X110236428Y-62343333D01*
X110236428Y-62343333D02*
X110236428Y-62724285D01*
X110712619Y-61200476D02*
X110712619Y-61771904D01*
X110712619Y-61486190D02*
X109712619Y-61486190D01*
X109712619Y-61486190D02*
X109855476Y-61581428D01*
X109855476Y-61581428D02*
X109950714Y-61676666D01*
X109950714Y-61676666D02*
X109998333Y-61771904D01*
X109807857Y-60819523D02*
X109760238Y-60771904D01*
X109760238Y-60771904D02*
X109712619Y-60676666D01*
X109712619Y-60676666D02*
X109712619Y-60438571D01*
X109712619Y-60438571D02*
X109760238Y-60343333D01*
X109760238Y-60343333D02*
X109807857Y-60295714D01*
X109807857Y-60295714D02*
X109903095Y-60248095D01*
X109903095Y-60248095D02*
X109998333Y-60248095D01*
X109998333Y-60248095D02*
X110141190Y-60295714D01*
X110141190Y-60295714D02*
X110712619Y-60867142D01*
X110712619Y-60867142D02*
X110712619Y-60248095D01*
%TO.C,R3*%
X149712619Y-85166666D02*
X149236428Y-85499999D01*
X149712619Y-85738094D02*
X148712619Y-85738094D01*
X148712619Y-85738094D02*
X148712619Y-85357142D01*
X148712619Y-85357142D02*
X148760238Y-85261904D01*
X148760238Y-85261904D02*
X148807857Y-85214285D01*
X148807857Y-85214285D02*
X148903095Y-85166666D01*
X148903095Y-85166666D02*
X149045952Y-85166666D01*
X149045952Y-85166666D02*
X149141190Y-85214285D01*
X149141190Y-85214285D02*
X149188809Y-85261904D01*
X149188809Y-85261904D02*
X149236428Y-85357142D01*
X149236428Y-85357142D02*
X149236428Y-85738094D01*
X148712619Y-84833332D02*
X148712619Y-84214285D01*
X148712619Y-84214285D02*
X149093571Y-84547618D01*
X149093571Y-84547618D02*
X149093571Y-84404761D01*
X149093571Y-84404761D02*
X149141190Y-84309523D01*
X149141190Y-84309523D02*
X149188809Y-84261904D01*
X149188809Y-84261904D02*
X149284047Y-84214285D01*
X149284047Y-84214285D02*
X149522142Y-84214285D01*
X149522142Y-84214285D02*
X149617380Y-84261904D01*
X149617380Y-84261904D02*
X149665000Y-84309523D01*
X149665000Y-84309523D02*
X149712619Y-84404761D01*
X149712619Y-84404761D02*
X149712619Y-84690475D01*
X149712619Y-84690475D02*
X149665000Y-84785713D01*
X149665000Y-84785713D02*
X149617380Y-84833332D01*
X150788809Y-95511904D02*
X150836428Y-95369047D01*
X150836428Y-95369047D02*
X150884047Y-95321428D01*
X150884047Y-95321428D02*
X150979285Y-95273809D01*
X150979285Y-95273809D02*
X151122142Y-95273809D01*
X151122142Y-95273809D02*
X151217380Y-95321428D01*
X151217380Y-95321428D02*
X151265000Y-95369047D01*
X151265000Y-95369047D02*
X151312619Y-95464285D01*
X151312619Y-95464285D02*
X151312619Y-95845237D01*
X151312619Y-95845237D02*
X150312619Y-95845237D01*
X150312619Y-95845237D02*
X150312619Y-95511904D01*
X150312619Y-95511904D02*
X150360238Y-95416666D01*
X150360238Y-95416666D02*
X150407857Y-95369047D01*
X150407857Y-95369047D02*
X150503095Y-95321428D01*
X150503095Y-95321428D02*
X150598333Y-95321428D01*
X150598333Y-95321428D02*
X150693571Y-95369047D01*
X150693571Y-95369047D02*
X150741190Y-95416666D01*
X150741190Y-95416666D02*
X150788809Y-95511904D01*
X150788809Y-95511904D02*
X150788809Y-95845237D01*
X151312619Y-94845237D02*
X150312619Y-94845237D01*
X151312619Y-94369047D02*
X150312619Y-94369047D01*
X150312619Y-94369047D02*
X150312619Y-94130952D01*
X150312619Y-94130952D02*
X150360238Y-93988095D01*
X150360238Y-93988095D02*
X150455476Y-93892857D01*
X150455476Y-93892857D02*
X150550714Y-93845238D01*
X150550714Y-93845238D02*
X150741190Y-93797619D01*
X150741190Y-93797619D02*
X150884047Y-93797619D01*
X150884047Y-93797619D02*
X151074523Y-93845238D01*
X151074523Y-93845238D02*
X151169761Y-93892857D01*
X151169761Y-93892857D02*
X151265000Y-93988095D01*
X151265000Y-93988095D02*
X151312619Y-94130952D01*
X151312619Y-94130952D02*
X151312619Y-94369047D01*
X150360238Y-92845238D02*
X150312619Y-92940476D01*
X150312619Y-92940476D02*
X150312619Y-93083333D01*
X150312619Y-93083333D02*
X150360238Y-93226190D01*
X150360238Y-93226190D02*
X150455476Y-93321428D01*
X150455476Y-93321428D02*
X150550714Y-93369047D01*
X150550714Y-93369047D02*
X150741190Y-93416666D01*
X150741190Y-93416666D02*
X150884047Y-93416666D01*
X150884047Y-93416666D02*
X151074523Y-93369047D01*
X151074523Y-93369047D02*
X151169761Y-93321428D01*
X151169761Y-93321428D02*
X151265000Y-93226190D01*
X151265000Y-93226190D02*
X151312619Y-93083333D01*
X151312619Y-93083333D02*
X151312619Y-92988095D01*
X151312619Y-92988095D02*
X151265000Y-92845238D01*
X151265000Y-92845238D02*
X151217380Y-92797619D01*
X151217380Y-92797619D02*
X150884047Y-92797619D01*
X150884047Y-92797619D02*
X150884047Y-92988095D01*
X150788809Y-92369047D02*
X150788809Y-92035714D01*
X151312619Y-91892857D02*
X151312619Y-92369047D01*
X151312619Y-92369047D02*
X150312619Y-92369047D01*
X150312619Y-92369047D02*
X150312619Y-91892857D01*
X150645952Y-90273809D02*
X151312619Y-90273809D01*
X150265000Y-90511904D02*
X150979285Y-90749999D01*
X150979285Y-90749999D02*
X150979285Y-90130952D01*
X150312619Y-88511904D02*
X150312619Y-88988094D01*
X150312619Y-88988094D02*
X150788809Y-89035713D01*
X150788809Y-89035713D02*
X150741190Y-88988094D01*
X150741190Y-88988094D02*
X150693571Y-88892856D01*
X150693571Y-88892856D02*
X150693571Y-88654761D01*
X150693571Y-88654761D02*
X150741190Y-88559523D01*
X150741190Y-88559523D02*
X150788809Y-88511904D01*
X150788809Y-88511904D02*
X150884047Y-88464285D01*
X150884047Y-88464285D02*
X151122142Y-88464285D01*
X151122142Y-88464285D02*
X151217380Y-88511904D01*
X151217380Y-88511904D02*
X151265000Y-88559523D01*
X151265000Y-88559523D02*
X151312619Y-88654761D01*
X151312619Y-88654761D02*
X151312619Y-88892856D01*
X151312619Y-88892856D02*
X151265000Y-88988094D01*
X151265000Y-88988094D02*
X151217380Y-89035713D01*
X150312619Y-88178570D02*
X151312619Y-87845237D01*
X151312619Y-87845237D02*
X150312619Y-87511904D01*
%TO.C,D1*%
X145724405Y-96977619D02*
X145724405Y-95977619D01*
X145724405Y-95977619D02*
X145962500Y-95977619D01*
X145962500Y-95977619D02*
X146105357Y-96025238D01*
X146105357Y-96025238D02*
X146200595Y-96120476D01*
X146200595Y-96120476D02*
X146248214Y-96215714D01*
X146248214Y-96215714D02*
X146295833Y-96406190D01*
X146295833Y-96406190D02*
X146295833Y-96549047D01*
X146295833Y-96549047D02*
X146248214Y-96739523D01*
X146248214Y-96739523D02*
X146200595Y-96834761D01*
X146200595Y-96834761D02*
X146105357Y-96930000D01*
X146105357Y-96930000D02*
X145962500Y-96977619D01*
X145962500Y-96977619D02*
X145724405Y-96977619D01*
X147248214Y-96977619D02*
X146676786Y-96977619D01*
X146962500Y-96977619D02*
X146962500Y-95977619D01*
X146962500Y-95977619D02*
X146867262Y-96120476D01*
X146867262Y-96120476D02*
X146772024Y-96215714D01*
X146772024Y-96215714D02*
X146676786Y-96263333D01*
%TO.C,D6*%
X101012619Y-117925594D02*
X100012619Y-117925594D01*
X100012619Y-117925594D02*
X100012619Y-117687499D01*
X100012619Y-117687499D02*
X100060238Y-117544642D01*
X100060238Y-117544642D02*
X100155476Y-117449404D01*
X100155476Y-117449404D02*
X100250714Y-117401785D01*
X100250714Y-117401785D02*
X100441190Y-117354166D01*
X100441190Y-117354166D02*
X100584047Y-117354166D01*
X100584047Y-117354166D02*
X100774523Y-117401785D01*
X100774523Y-117401785D02*
X100869761Y-117449404D01*
X100869761Y-117449404D02*
X100965000Y-117544642D01*
X100965000Y-117544642D02*
X101012619Y-117687499D01*
X101012619Y-117687499D02*
X101012619Y-117925594D01*
X100012619Y-116497023D02*
X100012619Y-116687499D01*
X100012619Y-116687499D02*
X100060238Y-116782737D01*
X100060238Y-116782737D02*
X100107857Y-116830356D01*
X100107857Y-116830356D02*
X100250714Y-116925594D01*
X100250714Y-116925594D02*
X100441190Y-116973213D01*
X100441190Y-116973213D02*
X100822142Y-116973213D01*
X100822142Y-116973213D02*
X100917380Y-116925594D01*
X100917380Y-116925594D02*
X100965000Y-116877975D01*
X100965000Y-116877975D02*
X101012619Y-116782737D01*
X101012619Y-116782737D02*
X101012619Y-116592261D01*
X101012619Y-116592261D02*
X100965000Y-116497023D01*
X100965000Y-116497023D02*
X100917380Y-116449404D01*
X100917380Y-116449404D02*
X100822142Y-116401785D01*
X100822142Y-116401785D02*
X100584047Y-116401785D01*
X100584047Y-116401785D02*
X100488809Y-116449404D01*
X100488809Y-116449404D02*
X100441190Y-116497023D01*
X100441190Y-116497023D02*
X100393571Y-116592261D01*
X100393571Y-116592261D02*
X100393571Y-116782737D01*
X100393571Y-116782737D02*
X100441190Y-116877975D01*
X100441190Y-116877975D02*
X100488809Y-116925594D01*
X100488809Y-116925594D02*
X100584047Y-116973213D01*
%TO.C,J2*%
X155666666Y-98992619D02*
X155666666Y-99706904D01*
X155666666Y-99706904D02*
X155619047Y-99849761D01*
X155619047Y-99849761D02*
X155523809Y-99945000D01*
X155523809Y-99945000D02*
X155380952Y-99992619D01*
X155380952Y-99992619D02*
X155285714Y-99992619D01*
X156095238Y-99087857D02*
X156142857Y-99040238D01*
X156142857Y-99040238D02*
X156238095Y-98992619D01*
X156238095Y-98992619D02*
X156476190Y-98992619D01*
X156476190Y-98992619D02*
X156571428Y-99040238D01*
X156571428Y-99040238D02*
X156619047Y-99087857D01*
X156619047Y-99087857D02*
X156666666Y-99183095D01*
X156666666Y-99183095D02*
X156666666Y-99278333D01*
X156666666Y-99278333D02*
X156619047Y-99421190D01*
X156619047Y-99421190D02*
X156047619Y-99992619D01*
X156047619Y-99992619D02*
X156666666Y-99992619D01*
%TO.C,Q3*%
X146154761Y-65317857D02*
X146059523Y-65270238D01*
X146059523Y-65270238D02*
X145964285Y-65175000D01*
X145964285Y-65175000D02*
X145821428Y-65032142D01*
X145821428Y-65032142D02*
X145726190Y-64984523D01*
X145726190Y-64984523D02*
X145630952Y-64984523D01*
X145678571Y-65222619D02*
X145583333Y-65175000D01*
X145583333Y-65175000D02*
X145488095Y-65079761D01*
X145488095Y-65079761D02*
X145440476Y-64889285D01*
X145440476Y-64889285D02*
X145440476Y-64555952D01*
X145440476Y-64555952D02*
X145488095Y-64365476D01*
X145488095Y-64365476D02*
X145583333Y-64270238D01*
X145583333Y-64270238D02*
X145678571Y-64222619D01*
X145678571Y-64222619D02*
X145869047Y-64222619D01*
X145869047Y-64222619D02*
X145964285Y-64270238D01*
X145964285Y-64270238D02*
X146059523Y-64365476D01*
X146059523Y-64365476D02*
X146107142Y-64555952D01*
X146107142Y-64555952D02*
X146107142Y-64889285D01*
X146107142Y-64889285D02*
X146059523Y-65079761D01*
X146059523Y-65079761D02*
X145964285Y-65175000D01*
X145964285Y-65175000D02*
X145869047Y-65222619D01*
X145869047Y-65222619D02*
X145678571Y-65222619D01*
X146440476Y-64222619D02*
X147059523Y-64222619D01*
X147059523Y-64222619D02*
X146726190Y-64603571D01*
X146726190Y-64603571D02*
X146869047Y-64603571D01*
X146869047Y-64603571D02*
X146964285Y-64651190D01*
X146964285Y-64651190D02*
X147011904Y-64698809D01*
X147011904Y-64698809D02*
X147059523Y-64794047D01*
X147059523Y-64794047D02*
X147059523Y-65032142D01*
X147059523Y-65032142D02*
X147011904Y-65127380D01*
X147011904Y-65127380D02*
X146964285Y-65175000D01*
X146964285Y-65175000D02*
X146869047Y-65222619D01*
X146869047Y-65222619D02*
X146583333Y-65222619D01*
X146583333Y-65222619D02*
X146488095Y-65175000D01*
X146488095Y-65175000D02*
X146440476Y-65127380D01*
%TO.C,R21*%
X129142619Y-119142857D02*
X128666428Y-119476190D01*
X129142619Y-119714285D02*
X128142619Y-119714285D01*
X128142619Y-119714285D02*
X128142619Y-119333333D01*
X128142619Y-119333333D02*
X128190238Y-119238095D01*
X128190238Y-119238095D02*
X128237857Y-119190476D01*
X128237857Y-119190476D02*
X128333095Y-119142857D01*
X128333095Y-119142857D02*
X128475952Y-119142857D01*
X128475952Y-119142857D02*
X128571190Y-119190476D01*
X128571190Y-119190476D02*
X128618809Y-119238095D01*
X128618809Y-119238095D02*
X128666428Y-119333333D01*
X128666428Y-119333333D02*
X128666428Y-119714285D01*
X128237857Y-118761904D02*
X128190238Y-118714285D01*
X128190238Y-118714285D02*
X128142619Y-118619047D01*
X128142619Y-118619047D02*
X128142619Y-118380952D01*
X128142619Y-118380952D02*
X128190238Y-118285714D01*
X128190238Y-118285714D02*
X128237857Y-118238095D01*
X128237857Y-118238095D02*
X128333095Y-118190476D01*
X128333095Y-118190476D02*
X128428333Y-118190476D01*
X128428333Y-118190476D02*
X128571190Y-118238095D01*
X128571190Y-118238095D02*
X129142619Y-118809523D01*
X129142619Y-118809523D02*
X129142619Y-118190476D01*
X129142619Y-117238095D02*
X129142619Y-117809523D01*
X129142619Y-117523809D02*
X128142619Y-117523809D01*
X128142619Y-117523809D02*
X128285476Y-117619047D01*
X128285476Y-117619047D02*
X128380714Y-117714285D01*
X128380714Y-117714285D02*
X128428333Y-117809523D01*
%TO.C,J1*%
X138916666Y-137462619D02*
X138916666Y-138176904D01*
X138916666Y-138176904D02*
X138869047Y-138319761D01*
X138869047Y-138319761D02*
X138773809Y-138415000D01*
X138773809Y-138415000D02*
X138630952Y-138462619D01*
X138630952Y-138462619D02*
X138535714Y-138462619D01*
X139916666Y-138462619D02*
X139345238Y-138462619D01*
X139630952Y-138462619D02*
X139630952Y-137462619D01*
X139630952Y-137462619D02*
X139535714Y-137605476D01*
X139535714Y-137605476D02*
X139440476Y-137700714D01*
X139440476Y-137700714D02*
X139345238Y-137748333D01*
%TO.C,C1*%
X105367380Y-64401666D02*
X105415000Y-64449285D01*
X105415000Y-64449285D02*
X105462619Y-64592142D01*
X105462619Y-64592142D02*
X105462619Y-64687380D01*
X105462619Y-64687380D02*
X105415000Y-64830237D01*
X105415000Y-64830237D02*
X105319761Y-64925475D01*
X105319761Y-64925475D02*
X105224523Y-64973094D01*
X105224523Y-64973094D02*
X105034047Y-65020713D01*
X105034047Y-65020713D02*
X104891190Y-65020713D01*
X104891190Y-65020713D02*
X104700714Y-64973094D01*
X104700714Y-64973094D02*
X104605476Y-64925475D01*
X104605476Y-64925475D02*
X104510238Y-64830237D01*
X104510238Y-64830237D02*
X104462619Y-64687380D01*
X104462619Y-64687380D02*
X104462619Y-64592142D01*
X104462619Y-64592142D02*
X104510238Y-64449285D01*
X104510238Y-64449285D02*
X104557857Y-64401666D01*
X105462619Y-63449285D02*
X105462619Y-64020713D01*
X105462619Y-63734999D02*
X104462619Y-63734999D01*
X104462619Y-63734999D02*
X104605476Y-63830237D01*
X104605476Y-63830237D02*
X104700714Y-63925475D01*
X104700714Y-63925475D02*
X104748333Y-64020713D01*
%TO.C,D2*%
X141011905Y-62112619D02*
X141011905Y-61112619D01*
X141011905Y-61112619D02*
X141250000Y-61112619D01*
X141250000Y-61112619D02*
X141392857Y-61160238D01*
X141392857Y-61160238D02*
X141488095Y-61255476D01*
X141488095Y-61255476D02*
X141535714Y-61350714D01*
X141535714Y-61350714D02*
X141583333Y-61541190D01*
X141583333Y-61541190D02*
X141583333Y-61684047D01*
X141583333Y-61684047D02*
X141535714Y-61874523D01*
X141535714Y-61874523D02*
X141488095Y-61969761D01*
X141488095Y-61969761D02*
X141392857Y-62065000D01*
X141392857Y-62065000D02*
X141250000Y-62112619D01*
X141250000Y-62112619D02*
X141011905Y-62112619D01*
X141964286Y-61207857D02*
X142011905Y-61160238D01*
X142011905Y-61160238D02*
X142107143Y-61112619D01*
X142107143Y-61112619D02*
X142345238Y-61112619D01*
X142345238Y-61112619D02*
X142440476Y-61160238D01*
X142440476Y-61160238D02*
X142488095Y-61207857D01*
X142488095Y-61207857D02*
X142535714Y-61303095D01*
X142535714Y-61303095D02*
X142535714Y-61398333D01*
X142535714Y-61398333D02*
X142488095Y-61541190D01*
X142488095Y-61541190D02*
X141916667Y-62112619D01*
X141916667Y-62112619D02*
X142535714Y-62112619D01*
%TO.C,R24*%
X125142619Y-119392857D02*
X124666428Y-119726190D01*
X125142619Y-119964285D02*
X124142619Y-119964285D01*
X124142619Y-119964285D02*
X124142619Y-119583333D01*
X124142619Y-119583333D02*
X124190238Y-119488095D01*
X124190238Y-119488095D02*
X124237857Y-119440476D01*
X124237857Y-119440476D02*
X124333095Y-119392857D01*
X124333095Y-119392857D02*
X124475952Y-119392857D01*
X124475952Y-119392857D02*
X124571190Y-119440476D01*
X124571190Y-119440476D02*
X124618809Y-119488095D01*
X124618809Y-119488095D02*
X124666428Y-119583333D01*
X124666428Y-119583333D02*
X124666428Y-119964285D01*
X124237857Y-119011904D02*
X124190238Y-118964285D01*
X124190238Y-118964285D02*
X124142619Y-118869047D01*
X124142619Y-118869047D02*
X124142619Y-118630952D01*
X124142619Y-118630952D02*
X124190238Y-118535714D01*
X124190238Y-118535714D02*
X124237857Y-118488095D01*
X124237857Y-118488095D02*
X124333095Y-118440476D01*
X124333095Y-118440476D02*
X124428333Y-118440476D01*
X124428333Y-118440476D02*
X124571190Y-118488095D01*
X124571190Y-118488095D02*
X125142619Y-119059523D01*
X125142619Y-119059523D02*
X125142619Y-118440476D01*
X124475952Y-117583333D02*
X125142619Y-117583333D01*
X124095000Y-117821428D02*
X124809285Y-118059523D01*
X124809285Y-118059523D02*
X124809285Y-117440476D01*
%TO.C,Q5*%
X147842261Y-98857857D02*
X147747023Y-98810238D01*
X147747023Y-98810238D02*
X147651785Y-98715000D01*
X147651785Y-98715000D02*
X147508928Y-98572142D01*
X147508928Y-98572142D02*
X147413690Y-98524523D01*
X147413690Y-98524523D02*
X147318452Y-98524523D01*
X147366071Y-98762619D02*
X147270833Y-98715000D01*
X147270833Y-98715000D02*
X147175595Y-98619761D01*
X147175595Y-98619761D02*
X147127976Y-98429285D01*
X147127976Y-98429285D02*
X147127976Y-98095952D01*
X147127976Y-98095952D02*
X147175595Y-97905476D01*
X147175595Y-97905476D02*
X147270833Y-97810238D01*
X147270833Y-97810238D02*
X147366071Y-97762619D01*
X147366071Y-97762619D02*
X147556547Y-97762619D01*
X147556547Y-97762619D02*
X147651785Y-97810238D01*
X147651785Y-97810238D02*
X147747023Y-97905476D01*
X147747023Y-97905476D02*
X147794642Y-98095952D01*
X147794642Y-98095952D02*
X147794642Y-98429285D01*
X147794642Y-98429285D02*
X147747023Y-98619761D01*
X147747023Y-98619761D02*
X147651785Y-98715000D01*
X147651785Y-98715000D02*
X147556547Y-98762619D01*
X147556547Y-98762619D02*
X147366071Y-98762619D01*
X148699404Y-97762619D02*
X148223214Y-97762619D01*
X148223214Y-97762619D02*
X148175595Y-98238809D01*
X148175595Y-98238809D02*
X148223214Y-98191190D01*
X148223214Y-98191190D02*
X148318452Y-98143571D01*
X148318452Y-98143571D02*
X148556547Y-98143571D01*
X148556547Y-98143571D02*
X148651785Y-98191190D01*
X148651785Y-98191190D02*
X148699404Y-98238809D01*
X148699404Y-98238809D02*
X148747023Y-98334047D01*
X148747023Y-98334047D02*
X148747023Y-98572142D01*
X148747023Y-98572142D02*
X148699404Y-98667380D01*
X148699404Y-98667380D02*
X148651785Y-98715000D01*
X148651785Y-98715000D02*
X148556547Y-98762619D01*
X148556547Y-98762619D02*
X148318452Y-98762619D01*
X148318452Y-98762619D02*
X148223214Y-98715000D01*
X148223214Y-98715000D02*
X148175595Y-98667380D01*
%TO.C,R17 47k 3W*%
X144440475Y-119962619D02*
X144107142Y-119486428D01*
X143869047Y-119962619D02*
X143869047Y-118962619D01*
X143869047Y-118962619D02*
X144249999Y-118962619D01*
X144249999Y-118962619D02*
X144345237Y-119010238D01*
X144345237Y-119010238D02*
X144392856Y-119057857D01*
X144392856Y-119057857D02*
X144440475Y-119153095D01*
X144440475Y-119153095D02*
X144440475Y-119295952D01*
X144440475Y-119295952D02*
X144392856Y-119391190D01*
X144392856Y-119391190D02*
X144345237Y-119438809D01*
X144345237Y-119438809D02*
X144249999Y-119486428D01*
X144249999Y-119486428D02*
X143869047Y-119486428D01*
X145392856Y-119962619D02*
X144821428Y-119962619D01*
X145107142Y-119962619D02*
X145107142Y-118962619D01*
X145107142Y-118962619D02*
X145011904Y-119105476D01*
X145011904Y-119105476D02*
X144916666Y-119200714D01*
X144916666Y-119200714D02*
X144821428Y-119248333D01*
X145726190Y-118962619D02*
X146392856Y-118962619D01*
X146392856Y-118962619D02*
X145964285Y-119962619D01*
X147964285Y-119295952D02*
X147964285Y-119962619D01*
X147726190Y-118915000D02*
X147488095Y-119629285D01*
X147488095Y-119629285D02*
X148107142Y-119629285D01*
X148392857Y-118962619D02*
X149059523Y-118962619D01*
X149059523Y-118962619D02*
X148630952Y-119962619D01*
X149440476Y-119962619D02*
X149440476Y-118962619D01*
X149535714Y-119581666D02*
X149821428Y-119962619D01*
X149821428Y-119295952D02*
X149440476Y-119676904D01*
X150916667Y-118962619D02*
X151535714Y-118962619D01*
X151535714Y-118962619D02*
X151202381Y-119343571D01*
X151202381Y-119343571D02*
X151345238Y-119343571D01*
X151345238Y-119343571D02*
X151440476Y-119391190D01*
X151440476Y-119391190D02*
X151488095Y-119438809D01*
X151488095Y-119438809D02*
X151535714Y-119534047D01*
X151535714Y-119534047D02*
X151535714Y-119772142D01*
X151535714Y-119772142D02*
X151488095Y-119867380D01*
X151488095Y-119867380D02*
X151440476Y-119915000D01*
X151440476Y-119915000D02*
X151345238Y-119962619D01*
X151345238Y-119962619D02*
X151059524Y-119962619D01*
X151059524Y-119962619D02*
X150964286Y-119915000D01*
X150964286Y-119915000D02*
X150916667Y-119867380D01*
X151869048Y-118962619D02*
X152107143Y-119962619D01*
X152107143Y-119962619D02*
X152297619Y-119248333D01*
X152297619Y-119248333D02*
X152488095Y-119962619D01*
X152488095Y-119962619D02*
X152726191Y-118962619D01*
%TO.C,R7*%
X134833333Y-66462619D02*
X134500000Y-65986428D01*
X134261905Y-66462619D02*
X134261905Y-65462619D01*
X134261905Y-65462619D02*
X134642857Y-65462619D01*
X134642857Y-65462619D02*
X134738095Y-65510238D01*
X134738095Y-65510238D02*
X134785714Y-65557857D01*
X134785714Y-65557857D02*
X134833333Y-65653095D01*
X134833333Y-65653095D02*
X134833333Y-65795952D01*
X134833333Y-65795952D02*
X134785714Y-65891190D01*
X134785714Y-65891190D02*
X134738095Y-65938809D01*
X134738095Y-65938809D02*
X134642857Y-65986428D01*
X134642857Y-65986428D02*
X134261905Y-65986428D01*
X135166667Y-65462619D02*
X135833333Y-65462619D01*
X135833333Y-65462619D02*
X135404762Y-66462619D01*
%TO.C,Q6*%
X142404761Y-109557857D02*
X142309523Y-109510238D01*
X142309523Y-109510238D02*
X142214285Y-109415000D01*
X142214285Y-109415000D02*
X142071428Y-109272142D01*
X142071428Y-109272142D02*
X141976190Y-109224523D01*
X141976190Y-109224523D02*
X141880952Y-109224523D01*
X141928571Y-109462619D02*
X141833333Y-109415000D01*
X141833333Y-109415000D02*
X141738095Y-109319761D01*
X141738095Y-109319761D02*
X141690476Y-109129285D01*
X141690476Y-109129285D02*
X141690476Y-108795952D01*
X141690476Y-108795952D02*
X141738095Y-108605476D01*
X141738095Y-108605476D02*
X141833333Y-108510238D01*
X141833333Y-108510238D02*
X141928571Y-108462619D01*
X141928571Y-108462619D02*
X142119047Y-108462619D01*
X142119047Y-108462619D02*
X142214285Y-108510238D01*
X142214285Y-108510238D02*
X142309523Y-108605476D01*
X142309523Y-108605476D02*
X142357142Y-108795952D01*
X142357142Y-108795952D02*
X142357142Y-109129285D01*
X142357142Y-109129285D02*
X142309523Y-109319761D01*
X142309523Y-109319761D02*
X142214285Y-109415000D01*
X142214285Y-109415000D02*
X142119047Y-109462619D01*
X142119047Y-109462619D02*
X141928571Y-109462619D01*
X143214285Y-108462619D02*
X143023809Y-108462619D01*
X143023809Y-108462619D02*
X142928571Y-108510238D01*
X142928571Y-108510238D02*
X142880952Y-108557857D01*
X142880952Y-108557857D02*
X142785714Y-108700714D01*
X142785714Y-108700714D02*
X142738095Y-108891190D01*
X142738095Y-108891190D02*
X142738095Y-109272142D01*
X142738095Y-109272142D02*
X142785714Y-109367380D01*
X142785714Y-109367380D02*
X142833333Y-109415000D01*
X142833333Y-109415000D02*
X142928571Y-109462619D01*
X142928571Y-109462619D02*
X143119047Y-109462619D01*
X143119047Y-109462619D02*
X143214285Y-109415000D01*
X143214285Y-109415000D02*
X143261904Y-109367380D01*
X143261904Y-109367380D02*
X143309523Y-109272142D01*
X143309523Y-109272142D02*
X143309523Y-109034047D01*
X143309523Y-109034047D02*
X143261904Y-108938809D01*
X143261904Y-108938809D02*
X143214285Y-108891190D01*
X143214285Y-108891190D02*
X143119047Y-108843571D01*
X143119047Y-108843571D02*
X142928571Y-108843571D01*
X142928571Y-108843571D02*
X142833333Y-108891190D01*
X142833333Y-108891190D02*
X142785714Y-108938809D01*
X142785714Y-108938809D02*
X142738095Y-109034047D01*
%TO.C,R1*%
X135333333Y-107212619D02*
X135000000Y-106736428D01*
X134761905Y-107212619D02*
X134761905Y-106212619D01*
X134761905Y-106212619D02*
X135142857Y-106212619D01*
X135142857Y-106212619D02*
X135238095Y-106260238D01*
X135238095Y-106260238D02*
X135285714Y-106307857D01*
X135285714Y-106307857D02*
X135333333Y-106403095D01*
X135333333Y-106403095D02*
X135333333Y-106545952D01*
X135333333Y-106545952D02*
X135285714Y-106641190D01*
X135285714Y-106641190D02*
X135238095Y-106688809D01*
X135238095Y-106688809D02*
X135142857Y-106736428D01*
X135142857Y-106736428D02*
X134761905Y-106736428D01*
X136285714Y-107212619D02*
X135714286Y-107212619D01*
X136000000Y-107212619D02*
X136000000Y-106212619D01*
X136000000Y-106212619D02*
X135904762Y-106355476D01*
X135904762Y-106355476D02*
X135809524Y-106450714D01*
X135809524Y-106450714D02*
X135714286Y-106498333D01*
%TO.C,U2*%
X142987619Y-84126904D02*
X143797142Y-84126904D01*
X143797142Y-84126904D02*
X143892380Y-84079285D01*
X143892380Y-84079285D02*
X143940000Y-84031666D01*
X143940000Y-84031666D02*
X143987619Y-83936428D01*
X143987619Y-83936428D02*
X143987619Y-83745952D01*
X143987619Y-83745952D02*
X143940000Y-83650714D01*
X143940000Y-83650714D02*
X143892380Y-83603095D01*
X143892380Y-83603095D02*
X143797142Y-83555476D01*
X143797142Y-83555476D02*
X142987619Y-83555476D01*
X143082857Y-83126904D02*
X143035238Y-83079285D01*
X143035238Y-83079285D02*
X142987619Y-82984047D01*
X142987619Y-82984047D02*
X142987619Y-82745952D01*
X142987619Y-82745952D02*
X143035238Y-82650714D01*
X143035238Y-82650714D02*
X143082857Y-82603095D01*
X143082857Y-82603095D02*
X143178095Y-82555476D01*
X143178095Y-82555476D02*
X143273333Y-82555476D01*
X143273333Y-82555476D02*
X143416190Y-82603095D01*
X143416190Y-82603095D02*
X143987619Y-83174523D01*
X143987619Y-83174523D02*
X143987619Y-82555476D01*
%TO.C,J5*%
X134116666Y-67017619D02*
X134116666Y-67731904D01*
X134116666Y-67731904D02*
X134069047Y-67874761D01*
X134069047Y-67874761D02*
X133973809Y-67970000D01*
X133973809Y-67970000D02*
X133830952Y-68017619D01*
X133830952Y-68017619D02*
X133735714Y-68017619D01*
X135069047Y-67017619D02*
X134592857Y-67017619D01*
X134592857Y-67017619D02*
X134545238Y-67493809D01*
X134545238Y-67493809D02*
X134592857Y-67446190D01*
X134592857Y-67446190D02*
X134688095Y-67398571D01*
X134688095Y-67398571D02*
X134926190Y-67398571D01*
X134926190Y-67398571D02*
X135021428Y-67446190D01*
X135021428Y-67446190D02*
X135069047Y-67493809D01*
X135069047Y-67493809D02*
X135116666Y-67589047D01*
X135116666Y-67589047D02*
X135116666Y-67827142D01*
X135116666Y-67827142D02*
X135069047Y-67922380D01*
X135069047Y-67922380D02*
X135021428Y-67970000D01*
X135021428Y-67970000D02*
X134926190Y-68017619D01*
X134926190Y-68017619D02*
X134688095Y-68017619D01*
X134688095Y-68017619D02*
X134592857Y-67970000D01*
X134592857Y-67970000D02*
X134545238Y-67922380D01*
%TO.C,U3*%
X138238095Y-78462619D02*
X138238095Y-79272142D01*
X138238095Y-79272142D02*
X138285714Y-79367380D01*
X138285714Y-79367380D02*
X138333333Y-79415000D01*
X138333333Y-79415000D02*
X138428571Y-79462619D01*
X138428571Y-79462619D02*
X138619047Y-79462619D01*
X138619047Y-79462619D02*
X138714285Y-79415000D01*
X138714285Y-79415000D02*
X138761904Y-79367380D01*
X138761904Y-79367380D02*
X138809523Y-79272142D01*
X138809523Y-79272142D02*
X138809523Y-78462619D01*
X139190476Y-78462619D02*
X139809523Y-78462619D01*
X139809523Y-78462619D02*
X139476190Y-78843571D01*
X139476190Y-78843571D02*
X139619047Y-78843571D01*
X139619047Y-78843571D02*
X139714285Y-78891190D01*
X139714285Y-78891190D02*
X139761904Y-78938809D01*
X139761904Y-78938809D02*
X139809523Y-79034047D01*
X139809523Y-79034047D02*
X139809523Y-79272142D01*
X139809523Y-79272142D02*
X139761904Y-79367380D01*
X139761904Y-79367380D02*
X139714285Y-79415000D01*
X139714285Y-79415000D02*
X139619047Y-79462619D01*
X139619047Y-79462619D02*
X139333333Y-79462619D01*
X139333333Y-79462619D02*
X139238095Y-79415000D01*
X139238095Y-79415000D02*
X139190476Y-79367380D01*
%TO.C,C3*%
X103367380Y-59176666D02*
X103415000Y-59224285D01*
X103415000Y-59224285D02*
X103462619Y-59367142D01*
X103462619Y-59367142D02*
X103462619Y-59462380D01*
X103462619Y-59462380D02*
X103415000Y-59605237D01*
X103415000Y-59605237D02*
X103319761Y-59700475D01*
X103319761Y-59700475D02*
X103224523Y-59748094D01*
X103224523Y-59748094D02*
X103034047Y-59795713D01*
X103034047Y-59795713D02*
X102891190Y-59795713D01*
X102891190Y-59795713D02*
X102700714Y-59748094D01*
X102700714Y-59748094D02*
X102605476Y-59700475D01*
X102605476Y-59700475D02*
X102510238Y-59605237D01*
X102510238Y-59605237D02*
X102462619Y-59462380D01*
X102462619Y-59462380D02*
X102462619Y-59367142D01*
X102462619Y-59367142D02*
X102510238Y-59224285D01*
X102510238Y-59224285D02*
X102557857Y-59176666D01*
X102462619Y-58843332D02*
X102462619Y-58224285D01*
X102462619Y-58224285D02*
X102843571Y-58557618D01*
X102843571Y-58557618D02*
X102843571Y-58414761D01*
X102843571Y-58414761D02*
X102891190Y-58319523D01*
X102891190Y-58319523D02*
X102938809Y-58271904D01*
X102938809Y-58271904D02*
X103034047Y-58224285D01*
X103034047Y-58224285D02*
X103272142Y-58224285D01*
X103272142Y-58224285D02*
X103367380Y-58271904D01*
X103367380Y-58271904D02*
X103415000Y-58319523D01*
X103415000Y-58319523D02*
X103462619Y-58414761D01*
X103462619Y-58414761D02*
X103462619Y-58700475D01*
X103462619Y-58700475D02*
X103415000Y-58795713D01*
X103415000Y-58795713D02*
X103367380Y-58843332D01*
%TO.C,TP1*%
X154988095Y-97462619D02*
X155559523Y-97462619D01*
X155273809Y-98462619D02*
X155273809Y-97462619D01*
X155892857Y-98462619D02*
X155892857Y-97462619D01*
X155892857Y-97462619D02*
X156273809Y-97462619D01*
X156273809Y-97462619D02*
X156369047Y-97510238D01*
X156369047Y-97510238D02*
X156416666Y-97557857D01*
X156416666Y-97557857D02*
X156464285Y-97653095D01*
X156464285Y-97653095D02*
X156464285Y-97795952D01*
X156464285Y-97795952D02*
X156416666Y-97891190D01*
X156416666Y-97891190D02*
X156369047Y-97938809D01*
X156369047Y-97938809D02*
X156273809Y-97986428D01*
X156273809Y-97986428D02*
X155892857Y-97986428D01*
X157416666Y-98462619D02*
X156845238Y-98462619D01*
X157130952Y-98462619D02*
X157130952Y-97462619D01*
X157130952Y-97462619D02*
X157035714Y-97605476D01*
X157035714Y-97605476D02*
X156940476Y-97700714D01*
X156940476Y-97700714D02*
X156845238Y-97748333D01*
%TO.C,C5*%
X96367380Y-59176666D02*
X96415000Y-59224285D01*
X96415000Y-59224285D02*
X96462619Y-59367142D01*
X96462619Y-59367142D02*
X96462619Y-59462380D01*
X96462619Y-59462380D02*
X96415000Y-59605237D01*
X96415000Y-59605237D02*
X96319761Y-59700475D01*
X96319761Y-59700475D02*
X96224523Y-59748094D01*
X96224523Y-59748094D02*
X96034047Y-59795713D01*
X96034047Y-59795713D02*
X95891190Y-59795713D01*
X95891190Y-59795713D02*
X95700714Y-59748094D01*
X95700714Y-59748094D02*
X95605476Y-59700475D01*
X95605476Y-59700475D02*
X95510238Y-59605237D01*
X95510238Y-59605237D02*
X95462619Y-59462380D01*
X95462619Y-59462380D02*
X95462619Y-59367142D01*
X95462619Y-59367142D02*
X95510238Y-59224285D01*
X95510238Y-59224285D02*
X95557857Y-59176666D01*
X95462619Y-58271904D02*
X95462619Y-58748094D01*
X95462619Y-58748094D02*
X95938809Y-58795713D01*
X95938809Y-58795713D02*
X95891190Y-58748094D01*
X95891190Y-58748094D02*
X95843571Y-58652856D01*
X95843571Y-58652856D02*
X95843571Y-58414761D01*
X95843571Y-58414761D02*
X95891190Y-58319523D01*
X95891190Y-58319523D02*
X95938809Y-58271904D01*
X95938809Y-58271904D02*
X96034047Y-58224285D01*
X96034047Y-58224285D02*
X96272142Y-58224285D01*
X96272142Y-58224285D02*
X96367380Y-58271904D01*
X96367380Y-58271904D02*
X96415000Y-58319523D01*
X96415000Y-58319523D02*
X96462619Y-58414761D01*
X96462619Y-58414761D02*
X96462619Y-58652856D01*
X96462619Y-58652856D02*
X96415000Y-58748094D01*
X96415000Y-58748094D02*
X96367380Y-58795713D01*
%TO.C,U1*%
X120988095Y-56172619D02*
X120988095Y-56982142D01*
X120988095Y-56982142D02*
X121035714Y-57077380D01*
X121035714Y-57077380D02*
X121083333Y-57125000D01*
X121083333Y-57125000D02*
X121178571Y-57172619D01*
X121178571Y-57172619D02*
X121369047Y-57172619D01*
X121369047Y-57172619D02*
X121464285Y-57125000D01*
X121464285Y-57125000D02*
X121511904Y-57077380D01*
X121511904Y-57077380D02*
X121559523Y-56982142D01*
X121559523Y-56982142D02*
X121559523Y-56172619D01*
X122559523Y-57172619D02*
X121988095Y-57172619D01*
X122273809Y-57172619D02*
X122273809Y-56172619D01*
X122273809Y-56172619D02*
X122178571Y-56315476D01*
X122178571Y-56315476D02*
X122083333Y-56410714D01*
X122083333Y-56410714D02*
X121988095Y-56458333D01*
X116988094Y-61186904D02*
X117464284Y-61186904D01*
X116892856Y-61472619D02*
X117226189Y-60472619D01*
X117226189Y-60472619D02*
X117559522Y-61472619D01*
X117892856Y-60805952D02*
X117892856Y-61472619D01*
X117892856Y-60901190D02*
X117940475Y-60853571D01*
X117940475Y-60853571D02*
X118035713Y-60805952D01*
X118035713Y-60805952D02*
X118178570Y-60805952D01*
X118178570Y-60805952D02*
X118273808Y-60853571D01*
X118273808Y-60853571D02*
X118321427Y-60948809D01*
X118321427Y-60948809D02*
X118321427Y-61472619D01*
X118654761Y-60805952D02*
X119035713Y-60805952D01*
X118797618Y-60472619D02*
X118797618Y-61329761D01*
X118797618Y-61329761D02*
X118845237Y-61425000D01*
X118845237Y-61425000D02*
X118940475Y-61472619D01*
X118940475Y-61472619D02*
X119035713Y-61472619D01*
X119749999Y-61425000D02*
X119654761Y-61472619D01*
X119654761Y-61472619D02*
X119464285Y-61472619D01*
X119464285Y-61472619D02*
X119369047Y-61425000D01*
X119369047Y-61425000D02*
X119321428Y-61329761D01*
X119321428Y-61329761D02*
X119321428Y-60948809D01*
X119321428Y-60948809D02*
X119369047Y-60853571D01*
X119369047Y-60853571D02*
X119464285Y-60805952D01*
X119464285Y-60805952D02*
X119654761Y-60805952D01*
X119654761Y-60805952D02*
X119749999Y-60853571D01*
X119749999Y-60853571D02*
X119797618Y-60948809D01*
X119797618Y-60948809D02*
X119797618Y-61044047D01*
X119797618Y-61044047D02*
X119321428Y-61139285D01*
X120226190Y-60805952D02*
X120226190Y-61472619D01*
X120226190Y-60901190D02*
X120273809Y-60853571D01*
X120273809Y-60853571D02*
X120369047Y-60805952D01*
X120369047Y-60805952D02*
X120511904Y-60805952D01*
X120511904Y-60805952D02*
X120607142Y-60853571D01*
X120607142Y-60853571D02*
X120654761Y-60948809D01*
X120654761Y-60948809D02*
X120654761Y-61472619D01*
X121130952Y-60805952D02*
X121130952Y-61472619D01*
X121130952Y-60901190D02*
X121178571Y-60853571D01*
X121178571Y-60853571D02*
X121273809Y-60805952D01*
X121273809Y-60805952D02*
X121416666Y-60805952D01*
X121416666Y-60805952D02*
X121511904Y-60853571D01*
X121511904Y-60853571D02*
X121559523Y-60948809D01*
X121559523Y-60948809D02*
X121559523Y-61472619D01*
X122464285Y-61472619D02*
X122464285Y-60948809D01*
X122464285Y-60948809D02*
X122416666Y-60853571D01*
X122416666Y-60853571D02*
X122321428Y-60805952D01*
X122321428Y-60805952D02*
X122130952Y-60805952D01*
X122130952Y-60805952D02*
X122035714Y-60853571D01*
X122464285Y-61425000D02*
X122369047Y-61472619D01*
X122369047Y-61472619D02*
X122130952Y-61472619D01*
X122130952Y-61472619D02*
X122035714Y-61425000D01*
X122035714Y-61425000D02*
X121988095Y-61329761D01*
X121988095Y-61329761D02*
X121988095Y-61234523D01*
X121988095Y-61234523D02*
X122035714Y-61139285D01*
X122035714Y-61139285D02*
X122130952Y-61091666D01*
X122130952Y-61091666D02*
X122369047Y-61091666D01*
X122369047Y-61091666D02*
X122464285Y-61044047D01*
X123654762Y-61186904D02*
X124130952Y-61186904D01*
X123559524Y-61472619D02*
X123892857Y-60472619D01*
X123892857Y-60472619D02*
X124226190Y-61472619D01*
X124559524Y-61472619D02*
X124559524Y-60805952D01*
X124559524Y-60996428D02*
X124607143Y-60901190D01*
X124607143Y-60901190D02*
X124654762Y-60853571D01*
X124654762Y-60853571D02*
X124750000Y-60805952D01*
X124750000Y-60805952D02*
X124845238Y-60805952D01*
X125559524Y-61425000D02*
X125464286Y-61472619D01*
X125464286Y-61472619D02*
X125273810Y-61472619D01*
X125273810Y-61472619D02*
X125178572Y-61425000D01*
X125178572Y-61425000D02*
X125130953Y-61329761D01*
X125130953Y-61329761D02*
X125130953Y-60948809D01*
X125130953Y-60948809D02*
X125178572Y-60853571D01*
X125178572Y-60853571D02*
X125273810Y-60805952D01*
X125273810Y-60805952D02*
X125464286Y-60805952D01*
X125464286Y-60805952D02*
X125559524Y-60853571D01*
X125559524Y-60853571D02*
X125607143Y-60948809D01*
X125607143Y-60948809D02*
X125607143Y-61044047D01*
X125607143Y-61044047D02*
X125130953Y-61139285D01*
X126464286Y-61472619D02*
X126464286Y-60948809D01*
X126464286Y-60948809D02*
X126416667Y-60853571D01*
X126416667Y-60853571D02*
X126321429Y-60805952D01*
X126321429Y-60805952D02*
X126130953Y-60805952D01*
X126130953Y-60805952D02*
X126035715Y-60853571D01*
X126464286Y-61425000D02*
X126369048Y-61472619D01*
X126369048Y-61472619D02*
X126130953Y-61472619D01*
X126130953Y-61472619D02*
X126035715Y-61425000D01*
X126035715Y-61425000D02*
X125988096Y-61329761D01*
X125988096Y-61329761D02*
X125988096Y-61234523D01*
X125988096Y-61234523D02*
X126035715Y-61139285D01*
X126035715Y-61139285D02*
X126130953Y-61091666D01*
X126130953Y-61091666D02*
X126369048Y-61091666D01*
X126369048Y-61091666D02*
X126464286Y-61044047D01*
%TO.C,R10*%
X144382142Y-79412619D02*
X144048809Y-78936428D01*
X143810714Y-79412619D02*
X143810714Y-78412619D01*
X143810714Y-78412619D02*
X144191666Y-78412619D01*
X144191666Y-78412619D02*
X144286904Y-78460238D01*
X144286904Y-78460238D02*
X144334523Y-78507857D01*
X144334523Y-78507857D02*
X144382142Y-78603095D01*
X144382142Y-78603095D02*
X144382142Y-78745952D01*
X144382142Y-78745952D02*
X144334523Y-78841190D01*
X144334523Y-78841190D02*
X144286904Y-78888809D01*
X144286904Y-78888809D02*
X144191666Y-78936428D01*
X144191666Y-78936428D02*
X143810714Y-78936428D01*
X145334523Y-79412619D02*
X144763095Y-79412619D01*
X145048809Y-79412619D02*
X145048809Y-78412619D01*
X145048809Y-78412619D02*
X144953571Y-78555476D01*
X144953571Y-78555476D02*
X144858333Y-78650714D01*
X144858333Y-78650714D02*
X144763095Y-78698333D01*
X145953571Y-78412619D02*
X146048809Y-78412619D01*
X146048809Y-78412619D02*
X146144047Y-78460238D01*
X146144047Y-78460238D02*
X146191666Y-78507857D01*
X146191666Y-78507857D02*
X146239285Y-78603095D01*
X146239285Y-78603095D02*
X146286904Y-78793571D01*
X146286904Y-78793571D02*
X146286904Y-79031666D01*
X146286904Y-79031666D02*
X146239285Y-79222142D01*
X146239285Y-79222142D02*
X146191666Y-79317380D01*
X146191666Y-79317380D02*
X146144047Y-79365000D01*
X146144047Y-79365000D02*
X146048809Y-79412619D01*
X146048809Y-79412619D02*
X145953571Y-79412619D01*
X145953571Y-79412619D02*
X145858333Y-79365000D01*
X145858333Y-79365000D02*
X145810714Y-79317380D01*
X145810714Y-79317380D02*
X145763095Y-79222142D01*
X145763095Y-79222142D02*
X145715476Y-79031666D01*
X145715476Y-79031666D02*
X145715476Y-78793571D01*
X145715476Y-78793571D02*
X145763095Y-78603095D01*
X145763095Y-78603095D02*
X145810714Y-78507857D01*
X145810714Y-78507857D02*
X145858333Y-78460238D01*
X145858333Y-78460238D02*
X145953571Y-78412619D01*
%TO.C,R4*%
X142795833Y-96757619D02*
X142462500Y-96281428D01*
X142224405Y-96757619D02*
X142224405Y-95757619D01*
X142224405Y-95757619D02*
X142605357Y-95757619D01*
X142605357Y-95757619D02*
X142700595Y-95805238D01*
X142700595Y-95805238D02*
X142748214Y-95852857D01*
X142748214Y-95852857D02*
X142795833Y-95948095D01*
X142795833Y-95948095D02*
X142795833Y-96090952D01*
X142795833Y-96090952D02*
X142748214Y-96186190D01*
X142748214Y-96186190D02*
X142700595Y-96233809D01*
X142700595Y-96233809D02*
X142605357Y-96281428D01*
X142605357Y-96281428D02*
X142224405Y-96281428D01*
X143652976Y-96090952D02*
X143652976Y-96757619D01*
X143414881Y-95710000D02*
X143176786Y-96424285D01*
X143176786Y-96424285D02*
X143795833Y-96424285D01*
%TO.C,R9*%
X96952619Y-127909166D02*
X96476428Y-128242499D01*
X96952619Y-128480594D02*
X95952619Y-128480594D01*
X95952619Y-128480594D02*
X95952619Y-128099642D01*
X95952619Y-128099642D02*
X96000238Y-128004404D01*
X96000238Y-128004404D02*
X96047857Y-127956785D01*
X96047857Y-127956785D02*
X96143095Y-127909166D01*
X96143095Y-127909166D02*
X96285952Y-127909166D01*
X96285952Y-127909166D02*
X96381190Y-127956785D01*
X96381190Y-127956785D02*
X96428809Y-128004404D01*
X96428809Y-128004404D02*
X96476428Y-128099642D01*
X96476428Y-128099642D02*
X96476428Y-128480594D01*
X96952619Y-127432975D02*
X96952619Y-127242499D01*
X96952619Y-127242499D02*
X96905000Y-127147261D01*
X96905000Y-127147261D02*
X96857380Y-127099642D01*
X96857380Y-127099642D02*
X96714523Y-127004404D01*
X96714523Y-127004404D02*
X96524047Y-126956785D01*
X96524047Y-126956785D02*
X96143095Y-126956785D01*
X96143095Y-126956785D02*
X96047857Y-127004404D01*
X96047857Y-127004404D02*
X96000238Y-127052023D01*
X96000238Y-127052023D02*
X95952619Y-127147261D01*
X95952619Y-127147261D02*
X95952619Y-127337737D01*
X95952619Y-127337737D02*
X96000238Y-127432975D01*
X96000238Y-127432975D02*
X96047857Y-127480594D01*
X96047857Y-127480594D02*
X96143095Y-127528213D01*
X96143095Y-127528213D02*
X96381190Y-127528213D01*
X96381190Y-127528213D02*
X96476428Y-127480594D01*
X96476428Y-127480594D02*
X96524047Y-127432975D01*
X96524047Y-127432975D02*
X96571666Y-127337737D01*
X96571666Y-127337737D02*
X96571666Y-127147261D01*
X96571666Y-127147261D02*
X96524047Y-127052023D01*
X96524047Y-127052023D02*
X96476428Y-127004404D01*
X96476428Y-127004404D02*
X96381190Y-126956785D01*
%TO.C,K1*%
X137712619Y-134738094D02*
X136712619Y-134738094D01*
X137712619Y-134166666D02*
X137141190Y-134595237D01*
X136712619Y-134166666D02*
X137284047Y-134738094D01*
X137712619Y-133214285D02*
X137712619Y-133785713D01*
X137712619Y-133499999D02*
X136712619Y-133499999D01*
X136712619Y-133499999D02*
X136855476Y-133595237D01*
X136855476Y-133595237D02*
X136950714Y-133690475D01*
X136950714Y-133690475D02*
X136998333Y-133785713D01*
%TO.C,C4*%
X105867380Y-59176666D02*
X105915000Y-59224285D01*
X105915000Y-59224285D02*
X105962619Y-59367142D01*
X105962619Y-59367142D02*
X105962619Y-59462380D01*
X105962619Y-59462380D02*
X105915000Y-59605237D01*
X105915000Y-59605237D02*
X105819761Y-59700475D01*
X105819761Y-59700475D02*
X105724523Y-59748094D01*
X105724523Y-59748094D02*
X105534047Y-59795713D01*
X105534047Y-59795713D02*
X105391190Y-59795713D01*
X105391190Y-59795713D02*
X105200714Y-59748094D01*
X105200714Y-59748094D02*
X105105476Y-59700475D01*
X105105476Y-59700475D02*
X105010238Y-59605237D01*
X105010238Y-59605237D02*
X104962619Y-59462380D01*
X104962619Y-59462380D02*
X104962619Y-59367142D01*
X104962619Y-59367142D02*
X105010238Y-59224285D01*
X105010238Y-59224285D02*
X105057857Y-59176666D01*
X105295952Y-58319523D02*
X105962619Y-58319523D01*
X104915000Y-58557618D02*
X105629285Y-58795713D01*
X105629285Y-58795713D02*
X105629285Y-58176666D01*
%TO.C,C8*%
X140283333Y-81617380D02*
X140235714Y-81665000D01*
X140235714Y-81665000D02*
X140092857Y-81712619D01*
X140092857Y-81712619D02*
X139997619Y-81712619D01*
X139997619Y-81712619D02*
X139854762Y-81665000D01*
X139854762Y-81665000D02*
X139759524Y-81569761D01*
X139759524Y-81569761D02*
X139711905Y-81474523D01*
X139711905Y-81474523D02*
X139664286Y-81284047D01*
X139664286Y-81284047D02*
X139664286Y-81141190D01*
X139664286Y-81141190D02*
X139711905Y-80950714D01*
X139711905Y-80950714D02*
X139759524Y-80855476D01*
X139759524Y-80855476D02*
X139854762Y-80760238D01*
X139854762Y-80760238D02*
X139997619Y-80712619D01*
X139997619Y-80712619D02*
X140092857Y-80712619D01*
X140092857Y-80712619D02*
X140235714Y-80760238D01*
X140235714Y-80760238D02*
X140283333Y-80807857D01*
X140854762Y-81141190D02*
X140759524Y-81093571D01*
X140759524Y-81093571D02*
X140711905Y-81045952D01*
X140711905Y-81045952D02*
X140664286Y-80950714D01*
X140664286Y-80950714D02*
X140664286Y-80903095D01*
X140664286Y-80903095D02*
X140711905Y-80807857D01*
X140711905Y-80807857D02*
X140759524Y-80760238D01*
X140759524Y-80760238D02*
X140854762Y-80712619D01*
X140854762Y-80712619D02*
X141045238Y-80712619D01*
X141045238Y-80712619D02*
X141140476Y-80760238D01*
X141140476Y-80760238D02*
X141188095Y-80807857D01*
X141188095Y-80807857D02*
X141235714Y-80903095D01*
X141235714Y-80903095D02*
X141235714Y-80950714D01*
X141235714Y-80950714D02*
X141188095Y-81045952D01*
X141188095Y-81045952D02*
X141140476Y-81093571D01*
X141140476Y-81093571D02*
X141045238Y-81141190D01*
X141045238Y-81141190D02*
X140854762Y-81141190D01*
X140854762Y-81141190D02*
X140759524Y-81188809D01*
X140759524Y-81188809D02*
X140711905Y-81236428D01*
X140711905Y-81236428D02*
X140664286Y-81331666D01*
X140664286Y-81331666D02*
X140664286Y-81522142D01*
X140664286Y-81522142D02*
X140711905Y-81617380D01*
X140711905Y-81617380D02*
X140759524Y-81665000D01*
X140759524Y-81665000D02*
X140854762Y-81712619D01*
X140854762Y-81712619D02*
X141045238Y-81712619D01*
X141045238Y-81712619D02*
X141140476Y-81665000D01*
X141140476Y-81665000D02*
X141188095Y-81617380D01*
X141188095Y-81617380D02*
X141235714Y-81522142D01*
X141235714Y-81522142D02*
X141235714Y-81331666D01*
X141235714Y-81331666D02*
X141188095Y-81236428D01*
X141188095Y-81236428D02*
X141140476Y-81188809D01*
X141140476Y-81188809D02*
X141045238Y-81141190D01*
%TO.C,D5*%
X140949405Y-69612619D02*
X140949405Y-68612619D01*
X140949405Y-68612619D02*
X141187500Y-68612619D01*
X141187500Y-68612619D02*
X141330357Y-68660238D01*
X141330357Y-68660238D02*
X141425595Y-68755476D01*
X141425595Y-68755476D02*
X141473214Y-68850714D01*
X141473214Y-68850714D02*
X141520833Y-69041190D01*
X141520833Y-69041190D02*
X141520833Y-69184047D01*
X141520833Y-69184047D02*
X141473214Y-69374523D01*
X141473214Y-69374523D02*
X141425595Y-69469761D01*
X141425595Y-69469761D02*
X141330357Y-69565000D01*
X141330357Y-69565000D02*
X141187500Y-69612619D01*
X141187500Y-69612619D02*
X140949405Y-69612619D01*
X142425595Y-68612619D02*
X141949405Y-68612619D01*
X141949405Y-68612619D02*
X141901786Y-69088809D01*
X141901786Y-69088809D02*
X141949405Y-69041190D01*
X141949405Y-69041190D02*
X142044643Y-68993571D01*
X142044643Y-68993571D02*
X142282738Y-68993571D01*
X142282738Y-68993571D02*
X142377976Y-69041190D01*
X142377976Y-69041190D02*
X142425595Y-69088809D01*
X142425595Y-69088809D02*
X142473214Y-69184047D01*
X142473214Y-69184047D02*
X142473214Y-69422142D01*
X142473214Y-69422142D02*
X142425595Y-69517380D01*
X142425595Y-69517380D02*
X142377976Y-69565000D01*
X142377976Y-69565000D02*
X142282738Y-69612619D01*
X142282738Y-69612619D02*
X142044643Y-69612619D01*
X142044643Y-69612619D02*
X141949405Y-69565000D01*
X141949405Y-69565000D02*
X141901786Y-69517380D01*
%TO.C,Q2*%
X145654761Y-60817857D02*
X145559523Y-60770238D01*
X145559523Y-60770238D02*
X145464285Y-60675000D01*
X145464285Y-60675000D02*
X145321428Y-60532142D01*
X145321428Y-60532142D02*
X145226190Y-60484523D01*
X145226190Y-60484523D02*
X145130952Y-60484523D01*
X145178571Y-60722619D02*
X145083333Y-60675000D01*
X145083333Y-60675000D02*
X144988095Y-60579761D01*
X144988095Y-60579761D02*
X144940476Y-60389285D01*
X144940476Y-60389285D02*
X144940476Y-60055952D01*
X144940476Y-60055952D02*
X144988095Y-59865476D01*
X144988095Y-59865476D02*
X145083333Y-59770238D01*
X145083333Y-59770238D02*
X145178571Y-59722619D01*
X145178571Y-59722619D02*
X145369047Y-59722619D01*
X145369047Y-59722619D02*
X145464285Y-59770238D01*
X145464285Y-59770238D02*
X145559523Y-59865476D01*
X145559523Y-59865476D02*
X145607142Y-60055952D01*
X145607142Y-60055952D02*
X145607142Y-60389285D01*
X145607142Y-60389285D02*
X145559523Y-60579761D01*
X145559523Y-60579761D02*
X145464285Y-60675000D01*
X145464285Y-60675000D02*
X145369047Y-60722619D01*
X145369047Y-60722619D02*
X145178571Y-60722619D01*
X145988095Y-59817857D02*
X146035714Y-59770238D01*
X146035714Y-59770238D02*
X146130952Y-59722619D01*
X146130952Y-59722619D02*
X146369047Y-59722619D01*
X146369047Y-59722619D02*
X146464285Y-59770238D01*
X146464285Y-59770238D02*
X146511904Y-59817857D01*
X146511904Y-59817857D02*
X146559523Y-59913095D01*
X146559523Y-59913095D02*
X146559523Y-60008333D01*
X146559523Y-60008333D02*
X146511904Y-60151190D01*
X146511904Y-60151190D02*
X145940476Y-60722619D01*
X145940476Y-60722619D02*
X146559523Y-60722619D01*
%TO.C,J6*%
X91416666Y-118462619D02*
X91416666Y-119176904D01*
X91416666Y-119176904D02*
X91369047Y-119319761D01*
X91369047Y-119319761D02*
X91273809Y-119415000D01*
X91273809Y-119415000D02*
X91130952Y-119462619D01*
X91130952Y-119462619D02*
X91035714Y-119462619D01*
X92321428Y-118462619D02*
X92130952Y-118462619D01*
X92130952Y-118462619D02*
X92035714Y-118510238D01*
X92035714Y-118510238D02*
X91988095Y-118557857D01*
X91988095Y-118557857D02*
X91892857Y-118700714D01*
X91892857Y-118700714D02*
X91845238Y-118891190D01*
X91845238Y-118891190D02*
X91845238Y-119272142D01*
X91845238Y-119272142D02*
X91892857Y-119367380D01*
X91892857Y-119367380D02*
X91940476Y-119415000D01*
X91940476Y-119415000D02*
X92035714Y-119462619D01*
X92035714Y-119462619D02*
X92226190Y-119462619D01*
X92226190Y-119462619D02*
X92321428Y-119415000D01*
X92321428Y-119415000D02*
X92369047Y-119367380D01*
X92369047Y-119367380D02*
X92416666Y-119272142D01*
X92416666Y-119272142D02*
X92416666Y-119034047D01*
X92416666Y-119034047D02*
X92369047Y-118938809D01*
X92369047Y-118938809D02*
X92321428Y-118891190D01*
X92321428Y-118891190D02*
X92226190Y-118843571D01*
X92226190Y-118843571D02*
X92035714Y-118843571D01*
X92035714Y-118843571D02*
X91940476Y-118891190D01*
X91940476Y-118891190D02*
X91892857Y-118938809D01*
X91892857Y-118938809D02*
X91845238Y-119034047D01*
%TO.C,D7*%
X98012619Y-117675594D02*
X97012619Y-117675594D01*
X97012619Y-117675594D02*
X97012619Y-117437499D01*
X97012619Y-117437499D02*
X97060238Y-117294642D01*
X97060238Y-117294642D02*
X97155476Y-117199404D01*
X97155476Y-117199404D02*
X97250714Y-117151785D01*
X97250714Y-117151785D02*
X97441190Y-117104166D01*
X97441190Y-117104166D02*
X97584047Y-117104166D01*
X97584047Y-117104166D02*
X97774523Y-117151785D01*
X97774523Y-117151785D02*
X97869761Y-117199404D01*
X97869761Y-117199404D02*
X97965000Y-117294642D01*
X97965000Y-117294642D02*
X98012619Y-117437499D01*
X98012619Y-117437499D02*
X98012619Y-117675594D01*
X97012619Y-116770832D02*
X97012619Y-116104166D01*
X97012619Y-116104166D02*
X98012619Y-116532737D01*
%TO.C,Q4*%
X111967261Y-126657857D02*
X111872023Y-126610238D01*
X111872023Y-126610238D02*
X111776785Y-126515000D01*
X111776785Y-126515000D02*
X111633928Y-126372142D01*
X111633928Y-126372142D02*
X111538690Y-126324523D01*
X111538690Y-126324523D02*
X111443452Y-126324523D01*
X111491071Y-126562619D02*
X111395833Y-126515000D01*
X111395833Y-126515000D02*
X111300595Y-126419761D01*
X111300595Y-126419761D02*
X111252976Y-126229285D01*
X111252976Y-126229285D02*
X111252976Y-125895952D01*
X111252976Y-125895952D02*
X111300595Y-125705476D01*
X111300595Y-125705476D02*
X111395833Y-125610238D01*
X111395833Y-125610238D02*
X111491071Y-125562619D01*
X111491071Y-125562619D02*
X111681547Y-125562619D01*
X111681547Y-125562619D02*
X111776785Y-125610238D01*
X111776785Y-125610238D02*
X111872023Y-125705476D01*
X111872023Y-125705476D02*
X111919642Y-125895952D01*
X111919642Y-125895952D02*
X111919642Y-126229285D01*
X111919642Y-126229285D02*
X111872023Y-126419761D01*
X111872023Y-126419761D02*
X111776785Y-126515000D01*
X111776785Y-126515000D02*
X111681547Y-126562619D01*
X111681547Y-126562619D02*
X111491071Y-126562619D01*
X112776785Y-125895952D02*
X112776785Y-126562619D01*
X112538690Y-125515000D02*
X112300595Y-126229285D01*
X112300595Y-126229285D02*
X112919642Y-126229285D01*
%TO.C,C6*%
X141822380Y-94531666D02*
X141870000Y-94579285D01*
X141870000Y-94579285D02*
X141917619Y-94722142D01*
X141917619Y-94722142D02*
X141917619Y-94817380D01*
X141917619Y-94817380D02*
X141870000Y-94960237D01*
X141870000Y-94960237D02*
X141774761Y-95055475D01*
X141774761Y-95055475D02*
X141679523Y-95103094D01*
X141679523Y-95103094D02*
X141489047Y-95150713D01*
X141489047Y-95150713D02*
X141346190Y-95150713D01*
X141346190Y-95150713D02*
X141155714Y-95103094D01*
X141155714Y-95103094D02*
X141060476Y-95055475D01*
X141060476Y-95055475D02*
X140965238Y-94960237D01*
X140965238Y-94960237D02*
X140917619Y-94817380D01*
X140917619Y-94817380D02*
X140917619Y-94722142D01*
X140917619Y-94722142D02*
X140965238Y-94579285D01*
X140965238Y-94579285D02*
X141012857Y-94531666D01*
X140917619Y-93674523D02*
X140917619Y-93864999D01*
X140917619Y-93864999D02*
X140965238Y-93960237D01*
X140965238Y-93960237D02*
X141012857Y-94007856D01*
X141012857Y-94007856D02*
X141155714Y-94103094D01*
X141155714Y-94103094D02*
X141346190Y-94150713D01*
X141346190Y-94150713D02*
X141727142Y-94150713D01*
X141727142Y-94150713D02*
X141822380Y-94103094D01*
X141822380Y-94103094D02*
X141870000Y-94055475D01*
X141870000Y-94055475D02*
X141917619Y-93960237D01*
X141917619Y-93960237D02*
X141917619Y-93769761D01*
X141917619Y-93769761D02*
X141870000Y-93674523D01*
X141870000Y-93674523D02*
X141822380Y-93626904D01*
X141822380Y-93626904D02*
X141727142Y-93579285D01*
X141727142Y-93579285D02*
X141489047Y-93579285D01*
X141489047Y-93579285D02*
X141393809Y-93626904D01*
X141393809Y-93626904D02*
X141346190Y-93674523D01*
X141346190Y-93674523D02*
X141298571Y-93769761D01*
X141298571Y-93769761D02*
X141298571Y-93960237D01*
X141298571Y-93960237D02*
X141346190Y-94055475D01*
X141346190Y-94055475D02*
X141393809Y-94103094D01*
X141393809Y-94103094D02*
X141489047Y-94150713D01*
%TO.C,R29*%
X151462619Y-111642857D02*
X150986428Y-111976190D01*
X151462619Y-112214285D02*
X150462619Y-112214285D01*
X150462619Y-112214285D02*
X150462619Y-111833333D01*
X150462619Y-111833333D02*
X150510238Y-111738095D01*
X150510238Y-111738095D02*
X150557857Y-111690476D01*
X150557857Y-111690476D02*
X150653095Y-111642857D01*
X150653095Y-111642857D02*
X150795952Y-111642857D01*
X150795952Y-111642857D02*
X150891190Y-111690476D01*
X150891190Y-111690476D02*
X150938809Y-111738095D01*
X150938809Y-111738095D02*
X150986428Y-111833333D01*
X150986428Y-111833333D02*
X150986428Y-112214285D01*
X150557857Y-111261904D02*
X150510238Y-111214285D01*
X150510238Y-111214285D02*
X150462619Y-111119047D01*
X150462619Y-111119047D02*
X150462619Y-110880952D01*
X150462619Y-110880952D02*
X150510238Y-110785714D01*
X150510238Y-110785714D02*
X150557857Y-110738095D01*
X150557857Y-110738095D02*
X150653095Y-110690476D01*
X150653095Y-110690476D02*
X150748333Y-110690476D01*
X150748333Y-110690476D02*
X150891190Y-110738095D01*
X150891190Y-110738095D02*
X151462619Y-111309523D01*
X151462619Y-111309523D02*
X151462619Y-110690476D01*
X151462619Y-110214285D02*
X151462619Y-110023809D01*
X151462619Y-110023809D02*
X151415000Y-109928571D01*
X151415000Y-109928571D02*
X151367380Y-109880952D01*
X151367380Y-109880952D02*
X151224523Y-109785714D01*
X151224523Y-109785714D02*
X151034047Y-109738095D01*
X151034047Y-109738095D02*
X150653095Y-109738095D01*
X150653095Y-109738095D02*
X150557857Y-109785714D01*
X150557857Y-109785714D02*
X150510238Y-109833333D01*
X150510238Y-109833333D02*
X150462619Y-109928571D01*
X150462619Y-109928571D02*
X150462619Y-110119047D01*
X150462619Y-110119047D02*
X150510238Y-110214285D01*
X150510238Y-110214285D02*
X150557857Y-110261904D01*
X150557857Y-110261904D02*
X150653095Y-110309523D01*
X150653095Y-110309523D02*
X150891190Y-110309523D01*
X150891190Y-110309523D02*
X150986428Y-110261904D01*
X150986428Y-110261904D02*
X151034047Y-110214285D01*
X151034047Y-110214285D02*
X151081666Y-110119047D01*
X151081666Y-110119047D02*
X151081666Y-109928571D01*
X151081666Y-109928571D02*
X151034047Y-109833333D01*
X151034047Y-109833333D02*
X150986428Y-109785714D01*
X150986428Y-109785714D02*
X150891190Y-109738095D01*
%TO.C,R26*%
X137357142Y-100202619D02*
X137023809Y-99726428D01*
X136785714Y-100202619D02*
X136785714Y-99202619D01*
X136785714Y-99202619D02*
X137166666Y-99202619D01*
X137166666Y-99202619D02*
X137261904Y-99250238D01*
X137261904Y-99250238D02*
X137309523Y-99297857D01*
X137309523Y-99297857D02*
X137357142Y-99393095D01*
X137357142Y-99393095D02*
X137357142Y-99535952D01*
X137357142Y-99535952D02*
X137309523Y-99631190D01*
X137309523Y-99631190D02*
X137261904Y-99678809D01*
X137261904Y-99678809D02*
X137166666Y-99726428D01*
X137166666Y-99726428D02*
X136785714Y-99726428D01*
X137738095Y-99297857D02*
X137785714Y-99250238D01*
X137785714Y-99250238D02*
X137880952Y-99202619D01*
X137880952Y-99202619D02*
X138119047Y-99202619D01*
X138119047Y-99202619D02*
X138214285Y-99250238D01*
X138214285Y-99250238D02*
X138261904Y-99297857D01*
X138261904Y-99297857D02*
X138309523Y-99393095D01*
X138309523Y-99393095D02*
X138309523Y-99488333D01*
X138309523Y-99488333D02*
X138261904Y-99631190D01*
X138261904Y-99631190D02*
X137690476Y-100202619D01*
X137690476Y-100202619D02*
X138309523Y-100202619D01*
X139166666Y-99202619D02*
X138976190Y-99202619D01*
X138976190Y-99202619D02*
X138880952Y-99250238D01*
X138880952Y-99250238D02*
X138833333Y-99297857D01*
X138833333Y-99297857D02*
X138738095Y-99440714D01*
X138738095Y-99440714D02*
X138690476Y-99631190D01*
X138690476Y-99631190D02*
X138690476Y-100012142D01*
X138690476Y-100012142D02*
X138738095Y-100107380D01*
X138738095Y-100107380D02*
X138785714Y-100155000D01*
X138785714Y-100155000D02*
X138880952Y-100202619D01*
X138880952Y-100202619D02*
X139071428Y-100202619D01*
X139071428Y-100202619D02*
X139166666Y-100155000D01*
X139166666Y-100155000D02*
X139214285Y-100107380D01*
X139214285Y-100107380D02*
X139261904Y-100012142D01*
X139261904Y-100012142D02*
X139261904Y-99774047D01*
X139261904Y-99774047D02*
X139214285Y-99678809D01*
X139214285Y-99678809D02*
X139166666Y-99631190D01*
X139166666Y-99631190D02*
X139071428Y-99583571D01*
X139071428Y-99583571D02*
X138880952Y-99583571D01*
X138880952Y-99583571D02*
X138785714Y-99631190D01*
X138785714Y-99631190D02*
X138738095Y-99678809D01*
X138738095Y-99678809D02*
X138690476Y-99774047D01*
%TO.C,R28*%
X147712619Y-111892857D02*
X147236428Y-112226190D01*
X147712619Y-112464285D02*
X146712619Y-112464285D01*
X146712619Y-112464285D02*
X146712619Y-112083333D01*
X146712619Y-112083333D02*
X146760238Y-111988095D01*
X146760238Y-111988095D02*
X146807857Y-111940476D01*
X146807857Y-111940476D02*
X146903095Y-111892857D01*
X146903095Y-111892857D02*
X147045952Y-111892857D01*
X147045952Y-111892857D02*
X147141190Y-111940476D01*
X147141190Y-111940476D02*
X147188809Y-111988095D01*
X147188809Y-111988095D02*
X147236428Y-112083333D01*
X147236428Y-112083333D02*
X147236428Y-112464285D01*
X146807857Y-111511904D02*
X146760238Y-111464285D01*
X146760238Y-111464285D02*
X146712619Y-111369047D01*
X146712619Y-111369047D02*
X146712619Y-111130952D01*
X146712619Y-111130952D02*
X146760238Y-111035714D01*
X146760238Y-111035714D02*
X146807857Y-110988095D01*
X146807857Y-110988095D02*
X146903095Y-110940476D01*
X146903095Y-110940476D02*
X146998333Y-110940476D01*
X146998333Y-110940476D02*
X147141190Y-110988095D01*
X147141190Y-110988095D02*
X147712619Y-111559523D01*
X147712619Y-111559523D02*
X147712619Y-110940476D01*
X147141190Y-110369047D02*
X147093571Y-110464285D01*
X147093571Y-110464285D02*
X147045952Y-110511904D01*
X147045952Y-110511904D02*
X146950714Y-110559523D01*
X146950714Y-110559523D02*
X146903095Y-110559523D01*
X146903095Y-110559523D02*
X146807857Y-110511904D01*
X146807857Y-110511904D02*
X146760238Y-110464285D01*
X146760238Y-110464285D02*
X146712619Y-110369047D01*
X146712619Y-110369047D02*
X146712619Y-110178571D01*
X146712619Y-110178571D02*
X146760238Y-110083333D01*
X146760238Y-110083333D02*
X146807857Y-110035714D01*
X146807857Y-110035714D02*
X146903095Y-109988095D01*
X146903095Y-109988095D02*
X146950714Y-109988095D01*
X146950714Y-109988095D02*
X147045952Y-110035714D01*
X147045952Y-110035714D02*
X147093571Y-110083333D01*
X147093571Y-110083333D02*
X147141190Y-110178571D01*
X147141190Y-110178571D02*
X147141190Y-110369047D01*
X147141190Y-110369047D02*
X147188809Y-110464285D01*
X147188809Y-110464285D02*
X147236428Y-110511904D01*
X147236428Y-110511904D02*
X147331666Y-110559523D01*
X147331666Y-110559523D02*
X147522142Y-110559523D01*
X147522142Y-110559523D02*
X147617380Y-110511904D01*
X147617380Y-110511904D02*
X147665000Y-110464285D01*
X147665000Y-110464285D02*
X147712619Y-110369047D01*
X147712619Y-110369047D02*
X147712619Y-110178571D01*
X147712619Y-110178571D02*
X147665000Y-110083333D01*
X147665000Y-110083333D02*
X147617380Y-110035714D01*
X147617380Y-110035714D02*
X147522142Y-109988095D01*
X147522142Y-109988095D02*
X147331666Y-109988095D01*
X147331666Y-109988095D02*
X147236428Y-110035714D01*
X147236428Y-110035714D02*
X147188809Y-110083333D01*
X147188809Y-110083333D02*
X147141190Y-110178571D01*
%TO.C,R27*%
X137857142Y-103662619D02*
X137523809Y-103186428D01*
X137285714Y-103662619D02*
X137285714Y-102662619D01*
X137285714Y-102662619D02*
X137666666Y-102662619D01*
X137666666Y-102662619D02*
X137761904Y-102710238D01*
X137761904Y-102710238D02*
X137809523Y-102757857D01*
X137809523Y-102757857D02*
X137857142Y-102853095D01*
X137857142Y-102853095D02*
X137857142Y-102995952D01*
X137857142Y-102995952D02*
X137809523Y-103091190D01*
X137809523Y-103091190D02*
X137761904Y-103138809D01*
X137761904Y-103138809D02*
X137666666Y-103186428D01*
X137666666Y-103186428D02*
X137285714Y-103186428D01*
X138238095Y-102757857D02*
X138285714Y-102710238D01*
X138285714Y-102710238D02*
X138380952Y-102662619D01*
X138380952Y-102662619D02*
X138619047Y-102662619D01*
X138619047Y-102662619D02*
X138714285Y-102710238D01*
X138714285Y-102710238D02*
X138761904Y-102757857D01*
X138761904Y-102757857D02*
X138809523Y-102853095D01*
X138809523Y-102853095D02*
X138809523Y-102948333D01*
X138809523Y-102948333D02*
X138761904Y-103091190D01*
X138761904Y-103091190D02*
X138190476Y-103662619D01*
X138190476Y-103662619D02*
X138809523Y-103662619D01*
X139142857Y-102662619D02*
X139809523Y-102662619D01*
X139809523Y-102662619D02*
X139380952Y-103662619D01*
%TO.C,R6*%
X135083333Y-63962619D02*
X134750000Y-63486428D01*
X134511905Y-63962619D02*
X134511905Y-62962619D01*
X134511905Y-62962619D02*
X134892857Y-62962619D01*
X134892857Y-62962619D02*
X134988095Y-63010238D01*
X134988095Y-63010238D02*
X135035714Y-63057857D01*
X135035714Y-63057857D02*
X135083333Y-63153095D01*
X135083333Y-63153095D02*
X135083333Y-63295952D01*
X135083333Y-63295952D02*
X135035714Y-63391190D01*
X135035714Y-63391190D02*
X134988095Y-63438809D01*
X134988095Y-63438809D02*
X134892857Y-63486428D01*
X134892857Y-63486428D02*
X134511905Y-63486428D01*
X135940476Y-62962619D02*
X135750000Y-62962619D01*
X135750000Y-62962619D02*
X135654762Y-63010238D01*
X135654762Y-63010238D02*
X135607143Y-63057857D01*
X135607143Y-63057857D02*
X135511905Y-63200714D01*
X135511905Y-63200714D02*
X135464286Y-63391190D01*
X135464286Y-63391190D02*
X135464286Y-63772142D01*
X135464286Y-63772142D02*
X135511905Y-63867380D01*
X135511905Y-63867380D02*
X135559524Y-63915000D01*
X135559524Y-63915000D02*
X135654762Y-63962619D01*
X135654762Y-63962619D02*
X135845238Y-63962619D01*
X135845238Y-63962619D02*
X135940476Y-63915000D01*
X135940476Y-63915000D02*
X135988095Y-63867380D01*
X135988095Y-63867380D02*
X136035714Y-63772142D01*
X136035714Y-63772142D02*
X136035714Y-63534047D01*
X136035714Y-63534047D02*
X135988095Y-63438809D01*
X135988095Y-63438809D02*
X135940476Y-63391190D01*
X135940476Y-63391190D02*
X135845238Y-63343571D01*
X135845238Y-63343571D02*
X135654762Y-63343571D01*
X135654762Y-63343571D02*
X135559524Y-63391190D01*
X135559524Y-63391190D02*
X135511905Y-63438809D01*
X135511905Y-63438809D02*
X135464286Y-63534047D01*
%TO.C,R13*%
X154069642Y-58112619D02*
X153736309Y-57636428D01*
X153498214Y-58112619D02*
X153498214Y-57112619D01*
X153498214Y-57112619D02*
X153879166Y-57112619D01*
X153879166Y-57112619D02*
X153974404Y-57160238D01*
X153974404Y-57160238D02*
X154022023Y-57207857D01*
X154022023Y-57207857D02*
X154069642Y-57303095D01*
X154069642Y-57303095D02*
X154069642Y-57445952D01*
X154069642Y-57445952D02*
X154022023Y-57541190D01*
X154022023Y-57541190D02*
X153974404Y-57588809D01*
X153974404Y-57588809D02*
X153879166Y-57636428D01*
X153879166Y-57636428D02*
X153498214Y-57636428D01*
X155022023Y-58112619D02*
X154450595Y-58112619D01*
X154736309Y-58112619D02*
X154736309Y-57112619D01*
X154736309Y-57112619D02*
X154641071Y-57255476D01*
X154641071Y-57255476D02*
X154545833Y-57350714D01*
X154545833Y-57350714D02*
X154450595Y-57398333D01*
X155355357Y-57112619D02*
X155974404Y-57112619D01*
X155974404Y-57112619D02*
X155641071Y-57493571D01*
X155641071Y-57493571D02*
X155783928Y-57493571D01*
X155783928Y-57493571D02*
X155879166Y-57541190D01*
X155879166Y-57541190D02*
X155926785Y-57588809D01*
X155926785Y-57588809D02*
X155974404Y-57684047D01*
X155974404Y-57684047D02*
X155974404Y-57922142D01*
X155974404Y-57922142D02*
X155926785Y-58017380D01*
X155926785Y-58017380D02*
X155879166Y-58065000D01*
X155879166Y-58065000D02*
X155783928Y-58112619D01*
X155783928Y-58112619D02*
X155498214Y-58112619D01*
X155498214Y-58112619D02*
X155402976Y-58065000D01*
X155402976Y-58065000D02*
X155355357Y-58017380D01*
%TO.C,Q1*%
X103757857Y-126657738D02*
X103710238Y-126752976D01*
X103710238Y-126752976D02*
X103615000Y-126848214D01*
X103615000Y-126848214D02*
X103472142Y-126991071D01*
X103472142Y-126991071D02*
X103424523Y-127086309D01*
X103424523Y-127086309D02*
X103424523Y-127181547D01*
X103662619Y-127133928D02*
X103615000Y-127229166D01*
X103615000Y-127229166D02*
X103519761Y-127324404D01*
X103519761Y-127324404D02*
X103329285Y-127372023D01*
X103329285Y-127372023D02*
X102995952Y-127372023D01*
X102995952Y-127372023D02*
X102805476Y-127324404D01*
X102805476Y-127324404D02*
X102710238Y-127229166D01*
X102710238Y-127229166D02*
X102662619Y-127133928D01*
X102662619Y-127133928D02*
X102662619Y-126943452D01*
X102662619Y-126943452D02*
X102710238Y-126848214D01*
X102710238Y-126848214D02*
X102805476Y-126752976D01*
X102805476Y-126752976D02*
X102995952Y-126705357D01*
X102995952Y-126705357D02*
X103329285Y-126705357D01*
X103329285Y-126705357D02*
X103519761Y-126752976D01*
X103519761Y-126752976D02*
X103615000Y-126848214D01*
X103615000Y-126848214D02*
X103662619Y-126943452D01*
X103662619Y-126943452D02*
X103662619Y-127133928D01*
X103662619Y-125752976D02*
X103662619Y-126324404D01*
X103662619Y-126038690D02*
X102662619Y-126038690D01*
X102662619Y-126038690D02*
X102805476Y-126133928D01*
X102805476Y-126133928D02*
X102900714Y-126229166D01*
X102900714Y-126229166D02*
X102948333Y-126324404D01*
%TO.C,R5*%
X135083333Y-61462619D02*
X134750000Y-60986428D01*
X134511905Y-61462619D02*
X134511905Y-60462619D01*
X134511905Y-60462619D02*
X134892857Y-60462619D01*
X134892857Y-60462619D02*
X134988095Y-60510238D01*
X134988095Y-60510238D02*
X135035714Y-60557857D01*
X135035714Y-60557857D02*
X135083333Y-60653095D01*
X135083333Y-60653095D02*
X135083333Y-60795952D01*
X135083333Y-60795952D02*
X135035714Y-60891190D01*
X135035714Y-60891190D02*
X134988095Y-60938809D01*
X134988095Y-60938809D02*
X134892857Y-60986428D01*
X134892857Y-60986428D02*
X134511905Y-60986428D01*
X135988095Y-60462619D02*
X135511905Y-60462619D01*
X135511905Y-60462619D02*
X135464286Y-60938809D01*
X135464286Y-60938809D02*
X135511905Y-60891190D01*
X135511905Y-60891190D02*
X135607143Y-60843571D01*
X135607143Y-60843571D02*
X135845238Y-60843571D01*
X135845238Y-60843571D02*
X135940476Y-60891190D01*
X135940476Y-60891190D02*
X135988095Y-60938809D01*
X135988095Y-60938809D02*
X136035714Y-61034047D01*
X136035714Y-61034047D02*
X136035714Y-61272142D01*
X136035714Y-61272142D02*
X135988095Y-61367380D01*
X135988095Y-61367380D02*
X135940476Y-61415000D01*
X135940476Y-61415000D02*
X135845238Y-61462619D01*
X135845238Y-61462619D02*
X135607143Y-61462619D01*
X135607143Y-61462619D02*
X135511905Y-61415000D01*
X135511905Y-61415000D02*
X135464286Y-61367380D01*
%TO.C,J8*%
X156416666Y-79267619D02*
X156416666Y-79981904D01*
X156416666Y-79981904D02*
X156369047Y-80124761D01*
X156369047Y-80124761D02*
X156273809Y-80220000D01*
X156273809Y-80220000D02*
X156130952Y-80267619D01*
X156130952Y-80267619D02*
X156035714Y-80267619D01*
X157035714Y-79696190D02*
X156940476Y-79648571D01*
X156940476Y-79648571D02*
X156892857Y-79600952D01*
X156892857Y-79600952D02*
X156845238Y-79505714D01*
X156845238Y-79505714D02*
X156845238Y-79458095D01*
X156845238Y-79458095D02*
X156892857Y-79362857D01*
X156892857Y-79362857D02*
X156940476Y-79315238D01*
X156940476Y-79315238D02*
X157035714Y-79267619D01*
X157035714Y-79267619D02*
X157226190Y-79267619D01*
X157226190Y-79267619D02*
X157321428Y-79315238D01*
X157321428Y-79315238D02*
X157369047Y-79362857D01*
X157369047Y-79362857D02*
X157416666Y-79458095D01*
X157416666Y-79458095D02*
X157416666Y-79505714D01*
X157416666Y-79505714D02*
X157369047Y-79600952D01*
X157369047Y-79600952D02*
X157321428Y-79648571D01*
X157321428Y-79648571D02*
X157226190Y-79696190D01*
X157226190Y-79696190D02*
X157035714Y-79696190D01*
X157035714Y-79696190D02*
X156940476Y-79743809D01*
X156940476Y-79743809D02*
X156892857Y-79791428D01*
X156892857Y-79791428D02*
X156845238Y-79886666D01*
X156845238Y-79886666D02*
X156845238Y-80077142D01*
X156845238Y-80077142D02*
X156892857Y-80172380D01*
X156892857Y-80172380D02*
X156940476Y-80220000D01*
X156940476Y-80220000D02*
X157035714Y-80267619D01*
X157035714Y-80267619D02*
X157226190Y-80267619D01*
X157226190Y-80267619D02*
X157321428Y-80220000D01*
X157321428Y-80220000D02*
X157369047Y-80172380D01*
X157369047Y-80172380D02*
X157416666Y-80077142D01*
X157416666Y-80077142D02*
X157416666Y-79886666D01*
X157416666Y-79886666D02*
X157369047Y-79791428D01*
X157369047Y-79791428D02*
X157321428Y-79743809D01*
X157321428Y-79743809D02*
X157226190Y-79696190D01*
%TO.C,J3*%
X155666666Y-105462619D02*
X155666666Y-106176904D01*
X155666666Y-106176904D02*
X155619047Y-106319761D01*
X155619047Y-106319761D02*
X155523809Y-106415000D01*
X155523809Y-106415000D02*
X155380952Y-106462619D01*
X155380952Y-106462619D02*
X155285714Y-106462619D01*
X156047619Y-105462619D02*
X156666666Y-105462619D01*
X156666666Y-105462619D02*
X156333333Y-105843571D01*
X156333333Y-105843571D02*
X156476190Y-105843571D01*
X156476190Y-105843571D02*
X156571428Y-105891190D01*
X156571428Y-105891190D02*
X156619047Y-105938809D01*
X156619047Y-105938809D02*
X156666666Y-106034047D01*
X156666666Y-106034047D02*
X156666666Y-106272142D01*
X156666666Y-106272142D02*
X156619047Y-106367380D01*
X156619047Y-106367380D02*
X156571428Y-106415000D01*
X156571428Y-106415000D02*
X156476190Y-106462619D01*
X156476190Y-106462619D02*
X156190476Y-106462619D01*
X156190476Y-106462619D02*
X156095238Y-106415000D01*
X156095238Y-106415000D02*
X156047619Y-106367380D01*
%TO.C,C9*%
X108617380Y-61676666D02*
X108665000Y-61724285D01*
X108665000Y-61724285D02*
X108712619Y-61867142D01*
X108712619Y-61867142D02*
X108712619Y-61962380D01*
X108712619Y-61962380D02*
X108665000Y-62105237D01*
X108665000Y-62105237D02*
X108569761Y-62200475D01*
X108569761Y-62200475D02*
X108474523Y-62248094D01*
X108474523Y-62248094D02*
X108284047Y-62295713D01*
X108284047Y-62295713D02*
X108141190Y-62295713D01*
X108141190Y-62295713D02*
X107950714Y-62248094D01*
X107950714Y-62248094D02*
X107855476Y-62200475D01*
X107855476Y-62200475D02*
X107760238Y-62105237D01*
X107760238Y-62105237D02*
X107712619Y-61962380D01*
X107712619Y-61962380D02*
X107712619Y-61867142D01*
X107712619Y-61867142D02*
X107760238Y-61724285D01*
X107760238Y-61724285D02*
X107807857Y-61676666D01*
X108712619Y-61200475D02*
X108712619Y-61009999D01*
X108712619Y-61009999D02*
X108665000Y-60914761D01*
X108665000Y-60914761D02*
X108617380Y-60867142D01*
X108617380Y-60867142D02*
X108474523Y-60771904D01*
X108474523Y-60771904D02*
X108284047Y-60724285D01*
X108284047Y-60724285D02*
X107903095Y-60724285D01*
X107903095Y-60724285D02*
X107807857Y-60771904D01*
X107807857Y-60771904D02*
X107760238Y-60819523D01*
X107760238Y-60819523D02*
X107712619Y-60914761D01*
X107712619Y-60914761D02*
X107712619Y-61105237D01*
X107712619Y-61105237D02*
X107760238Y-61200475D01*
X107760238Y-61200475D02*
X107807857Y-61248094D01*
X107807857Y-61248094D02*
X107903095Y-61295713D01*
X107903095Y-61295713D02*
X108141190Y-61295713D01*
X108141190Y-61295713D02*
X108236428Y-61248094D01*
X108236428Y-61248094D02*
X108284047Y-61200475D01*
X108284047Y-61200475D02*
X108331666Y-61105237D01*
X108331666Y-61105237D02*
X108331666Y-60914761D01*
X108331666Y-60914761D02*
X108284047Y-60819523D01*
X108284047Y-60819523D02*
X108236428Y-60771904D01*
X108236428Y-60771904D02*
X108141190Y-60724285D01*
%TO.C,D11*%
X118712619Y-134714285D02*
X117712619Y-134714285D01*
X117712619Y-134714285D02*
X117712619Y-134476190D01*
X117712619Y-134476190D02*
X117760238Y-134333333D01*
X117760238Y-134333333D02*
X117855476Y-134238095D01*
X117855476Y-134238095D02*
X117950714Y-134190476D01*
X117950714Y-134190476D02*
X118141190Y-134142857D01*
X118141190Y-134142857D02*
X118284047Y-134142857D01*
X118284047Y-134142857D02*
X118474523Y-134190476D01*
X118474523Y-134190476D02*
X118569761Y-134238095D01*
X118569761Y-134238095D02*
X118665000Y-134333333D01*
X118665000Y-134333333D02*
X118712619Y-134476190D01*
X118712619Y-134476190D02*
X118712619Y-134714285D01*
X118712619Y-133190476D02*
X118712619Y-133761904D01*
X118712619Y-133476190D02*
X117712619Y-133476190D01*
X117712619Y-133476190D02*
X117855476Y-133571428D01*
X117855476Y-133571428D02*
X117950714Y-133666666D01*
X117950714Y-133666666D02*
X117998333Y-133761904D01*
X118712619Y-132238095D02*
X118712619Y-132809523D01*
X118712619Y-132523809D02*
X117712619Y-132523809D01*
X117712619Y-132523809D02*
X117855476Y-132619047D01*
X117855476Y-132619047D02*
X117950714Y-132714285D01*
X117950714Y-132714285D02*
X117998333Y-132809523D01*
%TO.C,R11*%
X154432142Y-66212619D02*
X154098809Y-65736428D01*
X153860714Y-66212619D02*
X153860714Y-65212619D01*
X153860714Y-65212619D02*
X154241666Y-65212619D01*
X154241666Y-65212619D02*
X154336904Y-65260238D01*
X154336904Y-65260238D02*
X154384523Y-65307857D01*
X154384523Y-65307857D02*
X154432142Y-65403095D01*
X154432142Y-65403095D02*
X154432142Y-65545952D01*
X154432142Y-65545952D02*
X154384523Y-65641190D01*
X154384523Y-65641190D02*
X154336904Y-65688809D01*
X154336904Y-65688809D02*
X154241666Y-65736428D01*
X154241666Y-65736428D02*
X153860714Y-65736428D01*
X155384523Y-66212619D02*
X154813095Y-66212619D01*
X155098809Y-66212619D02*
X155098809Y-65212619D01*
X155098809Y-65212619D02*
X155003571Y-65355476D01*
X155003571Y-65355476D02*
X154908333Y-65450714D01*
X154908333Y-65450714D02*
X154813095Y-65498333D01*
X156336904Y-66212619D02*
X155765476Y-66212619D01*
X156051190Y-66212619D02*
X156051190Y-65212619D01*
X156051190Y-65212619D02*
X155955952Y-65355476D01*
X155955952Y-65355476D02*
X155860714Y-65450714D01*
X155860714Y-65450714D02*
X155765476Y-65498333D01*
D11*
%TO.C,D8*%
X155778773Y-133709428D02*
X154635773Y-133709428D01*
X154635773Y-133709428D02*
X154635773Y-133437285D01*
X154635773Y-133437285D02*
X154690202Y-133273999D01*
X154690202Y-133273999D02*
X154799059Y-133165142D01*
X154799059Y-133165142D02*
X154907916Y-133110713D01*
X154907916Y-133110713D02*
X155125630Y-133056285D01*
X155125630Y-133056285D02*
X155288916Y-133056285D01*
X155288916Y-133056285D02*
X155506630Y-133110713D01*
X155506630Y-133110713D02*
X155615487Y-133165142D01*
X155615487Y-133165142D02*
X155724345Y-133273999D01*
X155724345Y-133273999D02*
X155778773Y-133437285D01*
X155778773Y-133437285D02*
X155778773Y-133709428D01*
X155125630Y-132403142D02*
X155071202Y-132511999D01*
X155071202Y-132511999D02*
X155016773Y-132566428D01*
X155016773Y-132566428D02*
X154907916Y-132620856D01*
X154907916Y-132620856D02*
X154853487Y-132620856D01*
X154853487Y-132620856D02*
X154744630Y-132566428D01*
X154744630Y-132566428D02*
X154690202Y-132511999D01*
X154690202Y-132511999D02*
X154635773Y-132403142D01*
X154635773Y-132403142D02*
X154635773Y-132185428D01*
X154635773Y-132185428D02*
X154690202Y-132076571D01*
X154690202Y-132076571D02*
X154744630Y-132022142D01*
X154744630Y-132022142D02*
X154853487Y-131967713D01*
X154853487Y-131967713D02*
X154907916Y-131967713D01*
X154907916Y-131967713D02*
X155016773Y-132022142D01*
X155016773Y-132022142D02*
X155071202Y-132076571D01*
X155071202Y-132076571D02*
X155125630Y-132185428D01*
X155125630Y-132185428D02*
X155125630Y-132403142D01*
X155125630Y-132403142D02*
X155180059Y-132511999D01*
X155180059Y-132511999D02*
X155234487Y-132566428D01*
X155234487Y-132566428D02*
X155343345Y-132620856D01*
X155343345Y-132620856D02*
X155561059Y-132620856D01*
X155561059Y-132620856D02*
X155669916Y-132566428D01*
X155669916Y-132566428D02*
X155724345Y-132511999D01*
X155724345Y-132511999D02*
X155778773Y-132403142D01*
X155778773Y-132403142D02*
X155778773Y-132185428D01*
X155778773Y-132185428D02*
X155724345Y-132076571D01*
X155724345Y-132076571D02*
X155669916Y-132022142D01*
X155669916Y-132022142D02*
X155561059Y-131967713D01*
X155561059Y-131967713D02*
X155343345Y-131967713D01*
X155343345Y-131967713D02*
X155234487Y-132022142D01*
X155234487Y-132022142D02*
X155180059Y-132076571D01*
X155180059Y-132076571D02*
X155125630Y-132185428D01*
D10*
%TO.C,TP2*%
X154988095Y-93462619D02*
X155559523Y-93462619D01*
X155273809Y-94462619D02*
X155273809Y-93462619D01*
X155892857Y-94462619D02*
X155892857Y-93462619D01*
X155892857Y-93462619D02*
X156273809Y-93462619D01*
X156273809Y-93462619D02*
X156369047Y-93510238D01*
X156369047Y-93510238D02*
X156416666Y-93557857D01*
X156416666Y-93557857D02*
X156464285Y-93653095D01*
X156464285Y-93653095D02*
X156464285Y-93795952D01*
X156464285Y-93795952D02*
X156416666Y-93891190D01*
X156416666Y-93891190D02*
X156369047Y-93938809D01*
X156369047Y-93938809D02*
X156273809Y-93986428D01*
X156273809Y-93986428D02*
X155892857Y-93986428D01*
X156845238Y-93557857D02*
X156892857Y-93510238D01*
X156892857Y-93510238D02*
X156988095Y-93462619D01*
X156988095Y-93462619D02*
X157226190Y-93462619D01*
X157226190Y-93462619D02*
X157321428Y-93510238D01*
X157321428Y-93510238D02*
X157369047Y-93557857D01*
X157369047Y-93557857D02*
X157416666Y-93653095D01*
X157416666Y-93653095D02*
X157416666Y-93748333D01*
X157416666Y-93748333D02*
X157369047Y-93891190D01*
X157369047Y-93891190D02*
X156797619Y-94462619D01*
X156797619Y-94462619D02*
X157416666Y-94462619D01*
%TO.C,D3*%
X140901905Y-65667619D02*
X140901905Y-64667619D01*
X140901905Y-64667619D02*
X141140000Y-64667619D01*
X141140000Y-64667619D02*
X141282857Y-64715238D01*
X141282857Y-64715238D02*
X141378095Y-64810476D01*
X141378095Y-64810476D02*
X141425714Y-64905714D01*
X141425714Y-64905714D02*
X141473333Y-65096190D01*
X141473333Y-65096190D02*
X141473333Y-65239047D01*
X141473333Y-65239047D02*
X141425714Y-65429523D01*
X141425714Y-65429523D02*
X141378095Y-65524761D01*
X141378095Y-65524761D02*
X141282857Y-65620000D01*
X141282857Y-65620000D02*
X141140000Y-65667619D01*
X141140000Y-65667619D02*
X140901905Y-65667619D01*
X141806667Y-64667619D02*
X142425714Y-64667619D01*
X142425714Y-64667619D02*
X142092381Y-65048571D01*
X142092381Y-65048571D02*
X142235238Y-65048571D01*
X142235238Y-65048571D02*
X142330476Y-65096190D01*
X142330476Y-65096190D02*
X142378095Y-65143809D01*
X142378095Y-65143809D02*
X142425714Y-65239047D01*
X142425714Y-65239047D02*
X142425714Y-65477142D01*
X142425714Y-65477142D02*
X142378095Y-65572380D01*
X142378095Y-65572380D02*
X142330476Y-65620000D01*
X142330476Y-65620000D02*
X142235238Y-65667619D01*
X142235238Y-65667619D02*
X141949524Y-65667619D01*
X141949524Y-65667619D02*
X141854286Y-65620000D01*
X141854286Y-65620000D02*
X141806667Y-65572380D01*
%TO.C,U5*%
X122488095Y-125962619D02*
X122488095Y-126772142D01*
X122488095Y-126772142D02*
X122535714Y-126867380D01*
X122535714Y-126867380D02*
X122583333Y-126915000D01*
X122583333Y-126915000D02*
X122678571Y-126962619D01*
X122678571Y-126962619D02*
X122869047Y-126962619D01*
X122869047Y-126962619D02*
X122964285Y-126915000D01*
X122964285Y-126915000D02*
X123011904Y-126867380D01*
X123011904Y-126867380D02*
X123059523Y-126772142D01*
X123059523Y-126772142D02*
X123059523Y-125962619D01*
X124011904Y-125962619D02*
X123535714Y-125962619D01*
X123535714Y-125962619D02*
X123488095Y-126438809D01*
X123488095Y-126438809D02*
X123535714Y-126391190D01*
X123535714Y-126391190D02*
X123630952Y-126343571D01*
X123630952Y-126343571D02*
X123869047Y-126343571D01*
X123869047Y-126343571D02*
X123964285Y-126391190D01*
X123964285Y-126391190D02*
X124011904Y-126438809D01*
X124011904Y-126438809D02*
X124059523Y-126534047D01*
X124059523Y-126534047D02*
X124059523Y-126772142D01*
X124059523Y-126772142D02*
X124011904Y-126867380D01*
X124011904Y-126867380D02*
X123964285Y-126915000D01*
X123964285Y-126915000D02*
X123869047Y-126962619D01*
X123869047Y-126962619D02*
X123630952Y-126962619D01*
X123630952Y-126962619D02*
X123535714Y-126915000D01*
X123535714Y-126915000D02*
X123488095Y-126867380D01*
%TO.C,R14*%
X158212619Y-63142857D02*
X157736428Y-63476190D01*
X158212619Y-63714285D02*
X157212619Y-63714285D01*
X157212619Y-63714285D02*
X157212619Y-63333333D01*
X157212619Y-63333333D02*
X157260238Y-63238095D01*
X157260238Y-63238095D02*
X157307857Y-63190476D01*
X157307857Y-63190476D02*
X157403095Y-63142857D01*
X157403095Y-63142857D02*
X157545952Y-63142857D01*
X157545952Y-63142857D02*
X157641190Y-63190476D01*
X157641190Y-63190476D02*
X157688809Y-63238095D01*
X157688809Y-63238095D02*
X157736428Y-63333333D01*
X157736428Y-63333333D02*
X157736428Y-63714285D01*
X158212619Y-62190476D02*
X158212619Y-62761904D01*
X158212619Y-62476190D02*
X157212619Y-62476190D01*
X157212619Y-62476190D02*
X157355476Y-62571428D01*
X157355476Y-62571428D02*
X157450714Y-62666666D01*
X157450714Y-62666666D02*
X157498333Y-62761904D01*
X157545952Y-61333333D02*
X158212619Y-61333333D01*
X157165000Y-61571428D02*
X157879285Y-61809523D01*
X157879285Y-61809523D02*
X157879285Y-61190476D01*
%TO.C,C2*%
X93333333Y-68362380D02*
X93285714Y-68410000D01*
X93285714Y-68410000D02*
X93142857Y-68457619D01*
X93142857Y-68457619D02*
X93047619Y-68457619D01*
X93047619Y-68457619D02*
X92904762Y-68410000D01*
X92904762Y-68410000D02*
X92809524Y-68314761D01*
X92809524Y-68314761D02*
X92761905Y-68219523D01*
X92761905Y-68219523D02*
X92714286Y-68029047D01*
X92714286Y-68029047D02*
X92714286Y-67886190D01*
X92714286Y-67886190D02*
X92761905Y-67695714D01*
X92761905Y-67695714D02*
X92809524Y-67600476D01*
X92809524Y-67600476D02*
X92904762Y-67505238D01*
X92904762Y-67505238D02*
X93047619Y-67457619D01*
X93047619Y-67457619D02*
X93142857Y-67457619D01*
X93142857Y-67457619D02*
X93285714Y-67505238D01*
X93285714Y-67505238D02*
X93333333Y-67552857D01*
X93714286Y-67552857D02*
X93761905Y-67505238D01*
X93761905Y-67505238D02*
X93857143Y-67457619D01*
X93857143Y-67457619D02*
X94095238Y-67457619D01*
X94095238Y-67457619D02*
X94190476Y-67505238D01*
X94190476Y-67505238D02*
X94238095Y-67552857D01*
X94238095Y-67552857D02*
X94285714Y-67648095D01*
X94285714Y-67648095D02*
X94285714Y-67743333D01*
X94285714Y-67743333D02*
X94238095Y-67886190D01*
X94238095Y-67886190D02*
X93666667Y-68457619D01*
X93666667Y-68457619D02*
X94285714Y-68457619D01*
%TO.C,D4*%
X141011905Y-116712619D02*
X141011905Y-115712619D01*
X141011905Y-115712619D02*
X141250000Y-115712619D01*
X141250000Y-115712619D02*
X141392857Y-115760238D01*
X141392857Y-115760238D02*
X141488095Y-115855476D01*
X141488095Y-115855476D02*
X141535714Y-115950714D01*
X141535714Y-115950714D02*
X141583333Y-116141190D01*
X141583333Y-116141190D02*
X141583333Y-116284047D01*
X141583333Y-116284047D02*
X141535714Y-116474523D01*
X141535714Y-116474523D02*
X141488095Y-116569761D01*
X141488095Y-116569761D02*
X141392857Y-116665000D01*
X141392857Y-116665000D02*
X141250000Y-116712619D01*
X141250000Y-116712619D02*
X141011905Y-116712619D01*
X142440476Y-116045952D02*
X142440476Y-116712619D01*
X142202381Y-115665000D02*
X141964286Y-116379285D01*
X141964286Y-116379285D02*
X142583333Y-116379285D01*
X146185714Y-114812619D02*
X145614286Y-114812619D01*
X145900000Y-114812619D02*
X145900000Y-113812619D01*
X145900000Y-113812619D02*
X145804762Y-113955476D01*
X145804762Y-113955476D02*
X145709524Y-114050714D01*
X145709524Y-114050714D02*
X145614286Y-114098333D01*
%TO.C,R20*%
X112212619Y-134392857D02*
X111736428Y-134726190D01*
X112212619Y-134964285D02*
X111212619Y-134964285D01*
X111212619Y-134964285D02*
X111212619Y-134583333D01*
X111212619Y-134583333D02*
X111260238Y-134488095D01*
X111260238Y-134488095D02*
X111307857Y-134440476D01*
X111307857Y-134440476D02*
X111403095Y-134392857D01*
X111403095Y-134392857D02*
X111545952Y-134392857D01*
X111545952Y-134392857D02*
X111641190Y-134440476D01*
X111641190Y-134440476D02*
X111688809Y-134488095D01*
X111688809Y-134488095D02*
X111736428Y-134583333D01*
X111736428Y-134583333D02*
X111736428Y-134964285D01*
X111307857Y-134011904D02*
X111260238Y-133964285D01*
X111260238Y-133964285D02*
X111212619Y-133869047D01*
X111212619Y-133869047D02*
X111212619Y-133630952D01*
X111212619Y-133630952D02*
X111260238Y-133535714D01*
X111260238Y-133535714D02*
X111307857Y-133488095D01*
X111307857Y-133488095D02*
X111403095Y-133440476D01*
X111403095Y-133440476D02*
X111498333Y-133440476D01*
X111498333Y-133440476D02*
X111641190Y-133488095D01*
X111641190Y-133488095D02*
X112212619Y-134059523D01*
X112212619Y-134059523D02*
X112212619Y-133440476D01*
X111212619Y-132821428D02*
X111212619Y-132726190D01*
X111212619Y-132726190D02*
X111260238Y-132630952D01*
X111260238Y-132630952D02*
X111307857Y-132583333D01*
X111307857Y-132583333D02*
X111403095Y-132535714D01*
X111403095Y-132535714D02*
X111593571Y-132488095D01*
X111593571Y-132488095D02*
X111831666Y-132488095D01*
X111831666Y-132488095D02*
X112022142Y-132535714D01*
X112022142Y-132535714D02*
X112117380Y-132583333D01*
X112117380Y-132583333D02*
X112165000Y-132630952D01*
X112165000Y-132630952D02*
X112212619Y-132726190D01*
X112212619Y-132726190D02*
X112212619Y-132821428D01*
X112212619Y-132821428D02*
X112165000Y-132916666D01*
X112165000Y-132916666D02*
X112117380Y-132964285D01*
X112117380Y-132964285D02*
X112022142Y-133011904D01*
X112022142Y-133011904D02*
X111831666Y-133059523D01*
X111831666Y-133059523D02*
X111593571Y-133059523D01*
X111593571Y-133059523D02*
X111403095Y-133011904D01*
X111403095Y-133011904D02*
X111307857Y-132964285D01*
X111307857Y-132964285D02*
X111260238Y-132916666D01*
X111260238Y-132916666D02*
X111212619Y-132821428D01*
%TO.C,SW2*%
X99915000Y-59343332D02*
X99962619Y-59200475D01*
X99962619Y-59200475D02*
X99962619Y-58962380D01*
X99962619Y-58962380D02*
X99915000Y-58867142D01*
X99915000Y-58867142D02*
X99867380Y-58819523D01*
X99867380Y-58819523D02*
X99772142Y-58771904D01*
X99772142Y-58771904D02*
X99676904Y-58771904D01*
X99676904Y-58771904D02*
X99581666Y-58819523D01*
X99581666Y-58819523D02*
X99534047Y-58867142D01*
X99534047Y-58867142D02*
X99486428Y-58962380D01*
X99486428Y-58962380D02*
X99438809Y-59152856D01*
X99438809Y-59152856D02*
X99391190Y-59248094D01*
X99391190Y-59248094D02*
X99343571Y-59295713D01*
X99343571Y-59295713D02*
X99248333Y-59343332D01*
X99248333Y-59343332D02*
X99153095Y-59343332D01*
X99153095Y-59343332D02*
X99057857Y-59295713D01*
X99057857Y-59295713D02*
X99010238Y-59248094D01*
X99010238Y-59248094D02*
X98962619Y-59152856D01*
X98962619Y-59152856D02*
X98962619Y-58914761D01*
X98962619Y-58914761D02*
X99010238Y-58771904D01*
X98962619Y-58438570D02*
X99962619Y-58200475D01*
X99962619Y-58200475D02*
X99248333Y-58009999D01*
X99248333Y-58009999D02*
X99962619Y-57819523D01*
X99962619Y-57819523D02*
X98962619Y-57581428D01*
X99057857Y-57248094D02*
X99010238Y-57200475D01*
X99010238Y-57200475D02*
X98962619Y-57105237D01*
X98962619Y-57105237D02*
X98962619Y-56867142D01*
X98962619Y-56867142D02*
X99010238Y-56771904D01*
X99010238Y-56771904D02*
X99057857Y-56724285D01*
X99057857Y-56724285D02*
X99153095Y-56676666D01*
X99153095Y-56676666D02*
X99248333Y-56676666D01*
X99248333Y-56676666D02*
X99391190Y-56724285D01*
X99391190Y-56724285D02*
X99962619Y-57295713D01*
X99962619Y-57295713D02*
X99962619Y-56676666D01*
%TO.C,R8*%
X103782619Y-117686666D02*
X103306428Y-118019999D01*
X103782619Y-118258094D02*
X102782619Y-118258094D01*
X102782619Y-118258094D02*
X102782619Y-117877142D01*
X102782619Y-117877142D02*
X102830238Y-117781904D01*
X102830238Y-117781904D02*
X102877857Y-117734285D01*
X102877857Y-117734285D02*
X102973095Y-117686666D01*
X102973095Y-117686666D02*
X103115952Y-117686666D01*
X103115952Y-117686666D02*
X103211190Y-117734285D01*
X103211190Y-117734285D02*
X103258809Y-117781904D01*
X103258809Y-117781904D02*
X103306428Y-117877142D01*
X103306428Y-117877142D02*
X103306428Y-118258094D01*
X103211190Y-117115237D02*
X103163571Y-117210475D01*
X103163571Y-117210475D02*
X103115952Y-117258094D01*
X103115952Y-117258094D02*
X103020714Y-117305713D01*
X103020714Y-117305713D02*
X102973095Y-117305713D01*
X102973095Y-117305713D02*
X102877857Y-117258094D01*
X102877857Y-117258094D02*
X102830238Y-117210475D01*
X102830238Y-117210475D02*
X102782619Y-117115237D01*
X102782619Y-117115237D02*
X102782619Y-116924761D01*
X102782619Y-116924761D02*
X102830238Y-116829523D01*
X102830238Y-116829523D02*
X102877857Y-116781904D01*
X102877857Y-116781904D02*
X102973095Y-116734285D01*
X102973095Y-116734285D02*
X103020714Y-116734285D01*
X103020714Y-116734285D02*
X103115952Y-116781904D01*
X103115952Y-116781904D02*
X103163571Y-116829523D01*
X103163571Y-116829523D02*
X103211190Y-116924761D01*
X103211190Y-116924761D02*
X103211190Y-117115237D01*
X103211190Y-117115237D02*
X103258809Y-117210475D01*
X103258809Y-117210475D02*
X103306428Y-117258094D01*
X103306428Y-117258094D02*
X103401666Y-117305713D01*
X103401666Y-117305713D02*
X103592142Y-117305713D01*
X103592142Y-117305713D02*
X103687380Y-117258094D01*
X103687380Y-117258094D02*
X103735000Y-117210475D01*
X103735000Y-117210475D02*
X103782619Y-117115237D01*
X103782619Y-117115237D02*
X103782619Y-116924761D01*
X103782619Y-116924761D02*
X103735000Y-116829523D01*
X103735000Y-116829523D02*
X103687380Y-116781904D01*
X103687380Y-116781904D02*
X103592142Y-116734285D01*
X103592142Y-116734285D02*
X103401666Y-116734285D01*
X103401666Y-116734285D02*
X103306428Y-116781904D01*
X103306428Y-116781904D02*
X103258809Y-116829523D01*
X103258809Y-116829523D02*
X103211190Y-116924761D01*
%TO.C,C7*%
X148308333Y-82167380D02*
X148260714Y-82215000D01*
X148260714Y-82215000D02*
X148117857Y-82262619D01*
X148117857Y-82262619D02*
X148022619Y-82262619D01*
X148022619Y-82262619D02*
X147879762Y-82215000D01*
X147879762Y-82215000D02*
X147784524Y-82119761D01*
X147784524Y-82119761D02*
X147736905Y-82024523D01*
X147736905Y-82024523D02*
X147689286Y-81834047D01*
X147689286Y-81834047D02*
X147689286Y-81691190D01*
X147689286Y-81691190D02*
X147736905Y-81500714D01*
X147736905Y-81500714D02*
X147784524Y-81405476D01*
X147784524Y-81405476D02*
X147879762Y-81310238D01*
X147879762Y-81310238D02*
X148022619Y-81262619D01*
X148022619Y-81262619D02*
X148117857Y-81262619D01*
X148117857Y-81262619D02*
X148260714Y-81310238D01*
X148260714Y-81310238D02*
X148308333Y-81357857D01*
X148641667Y-81262619D02*
X149308333Y-81262619D01*
X149308333Y-81262619D02*
X148879762Y-82262619D01*
D12*
%TO.C,J7*%
X155227500Y-78369000D02*
X153364500Y-78369000D01*
X158945500Y-78369000D02*
X157464500Y-78369000D01*
X155227500Y-69429000D02*
X153363500Y-69429000D01*
X158945500Y-69429000D02*
X158945500Y-78369000D01*
X158945500Y-69429000D02*
X157463500Y-69429000D01*
D13*
%TO.C,R2*%
X103910000Y-67282936D02*
X103910000Y-68737064D01*
X102090000Y-67282936D02*
X102090000Y-68737064D01*
%TO.C,SW1*%
X100510000Y-66400000D02*
X100510000Y-67510000D01*
X99750000Y-66400000D02*
X100510000Y-66400000D01*
X98990000Y-66400000D02*
X97785000Y-66400000D01*
X98990000Y-66400000D02*
X98990000Y-66946529D01*
X97785000Y-66400000D02*
X97785000Y-67202470D01*
X97785000Y-67817530D02*
X97785000Y-68620000D01*
X98990000Y-68073471D02*
X98990000Y-68620000D01*
X98990000Y-68620000D02*
X97785000Y-68620000D01*
%TO.C,J4*%
X107940000Y-68490000D02*
X109050000Y-68490000D01*
X107940000Y-69250000D02*
X107940000Y-68490000D01*
X107940000Y-70010000D02*
X107940000Y-96615000D01*
X107940000Y-70010000D02*
X108486529Y-70010000D01*
X107940000Y-96615000D02*
X108742470Y-96615000D01*
X109357530Y-96615000D02*
X110160000Y-96615000D01*
X109613471Y-70010000D02*
X110160000Y-70010000D01*
X110160000Y-70010000D02*
X110160000Y-96615000D01*
%TO.C,R12*%
X110772500Y-64272742D02*
X110772500Y-64747258D01*
X109727500Y-64272742D02*
X109727500Y-64747258D01*
%TO.C,R3*%
X150227500Y-85287258D02*
X150227500Y-84812742D01*
X151272500Y-85287258D02*
X151272500Y-84812742D01*
%TO.C,D1*%
X148147500Y-95825000D02*
X148147500Y-93905000D01*
X148147500Y-93905000D02*
X145462500Y-93905000D01*
X145462500Y-95825000D02*
X148147500Y-95825000D01*
%TO.C,D6*%
X101235000Y-118742500D02*
X99765000Y-118742500D01*
X99765000Y-118742500D02*
X99765000Y-121027500D01*
X101235000Y-121027500D02*
X101235000Y-118742500D01*
%TO.C,J2*%
X154890000Y-100465000D02*
X156000000Y-100465000D01*
X154890000Y-101225000D02*
X154890000Y-100465000D01*
X154890000Y-101985000D02*
X154890000Y-104460000D01*
X154890000Y-101985000D02*
X155436529Y-101985000D01*
X154890000Y-104460000D02*
X155692470Y-104460000D01*
X156307530Y-104460000D02*
X157110000Y-104460000D01*
X156563471Y-101985000D02*
X157110000Y-101985000D01*
X157110000Y-101985000D02*
X157110000Y-104460000D01*
%TO.C,Q3*%
X149462500Y-62940000D02*
X147787500Y-62940000D01*
X149462500Y-62940000D02*
X150112500Y-62940000D01*
X149462500Y-66060000D02*
X148812500Y-66060000D01*
X149462500Y-66060000D02*
X150112500Y-66060000D01*
%TO.C,R21*%
X127772500Y-118262742D02*
X127772500Y-118737258D01*
X126727500Y-118262742D02*
X126727500Y-118737258D01*
%TO.C,J1*%
X137250000Y-148660000D02*
X137250000Y-149400000D01*
X137250000Y-149400000D02*
X137750000Y-149400000D01*
X137490000Y-139239000D02*
X137490000Y-149160000D01*
X137490000Y-139239000D02*
X157930000Y-139239000D01*
X137490000Y-142199000D02*
X157930000Y-142199000D01*
X137490000Y-147100000D02*
X157930000Y-147100000D01*
X137490000Y-148600000D02*
X157930000Y-148600000D01*
X137490000Y-149160000D02*
X157930000Y-149160000D01*
X143943000Y-145523000D02*
X143896000Y-145569000D01*
X144136000Y-145739000D02*
X144101000Y-145774000D01*
X146240000Y-143225000D02*
X146205000Y-143261000D01*
X146445000Y-143431000D02*
X146398000Y-143477000D01*
X149023000Y-145523000D02*
X148976000Y-145569000D01*
X149216000Y-145739000D02*
X149181000Y-145774000D01*
X151320000Y-143225000D02*
X151285000Y-143261000D01*
X151525000Y-143431000D02*
X151478000Y-143477000D01*
X154103000Y-145523000D02*
X154056000Y-145569000D01*
X154296000Y-145739000D02*
X154261000Y-145774000D01*
X156400000Y-143225000D02*
X156365000Y-143261000D01*
X156605000Y-143431000D02*
X156558000Y-143477000D01*
X157930000Y-139239000D02*
X157930000Y-149160000D01*
X138555001Y-143816001D02*
G75*
G03*
X138554574Y-145183042I1534992J-684000D01*
G01*
X140773999Y-142965001D02*
G75*
G03*
X139406958Y-142964574I-684000J-1534992D01*
G01*
X139406000Y-146034999D02*
G75*
G03*
X140118805Y-146180252I683999J1535000D01*
G01*
X140090000Y-146179999D02*
G75*
G03*
X140773318Y-146034755I0J1679999D01*
G01*
X141625000Y-145184000D02*
G75*
G03*
X141625426Y-143816958I-1535000J684000D01*
G01*
X146850000Y-144500000D02*
G75*
G03*
X146850000Y-144500000I-1680000J0D01*
G01*
X151930000Y-144500000D02*
G75*
G03*
X151930000Y-144500000I-1680000J0D01*
G01*
X157010000Y-144500000D02*
G75*
G03*
X157010000Y-144500000I-1680000J0D01*
G01*
%TO.C,C1*%
X106010000Y-66869420D02*
X106010000Y-67150580D01*
X104990000Y-66869420D02*
X104990000Y-67150580D01*
%TO.C,D2*%
X143435000Y-60960000D02*
X143435000Y-59040000D01*
X143435000Y-59040000D02*
X140750000Y-59040000D01*
X140750000Y-60960000D02*
X143435000Y-60960000D01*
%TO.C,R24*%
X123772500Y-118512742D02*
X123772500Y-118987258D01*
X122727500Y-118512742D02*
X122727500Y-118987258D01*
%TO.C,Q5*%
X147937500Y-99140000D02*
X146262500Y-99140000D01*
X147937500Y-99140000D02*
X148587500Y-99140000D01*
X147937500Y-102260000D02*
X147287500Y-102260000D01*
X147937500Y-102260000D02*
X148587500Y-102260000D01*
%TO.C,R17 47k 3W*%
X155260000Y-123750000D02*
X152620000Y-123750000D01*
X152620000Y-126870000D02*
X152620000Y-120630000D01*
X152620000Y-120630000D02*
X135380000Y-120630000D01*
X135380000Y-126870000D02*
X152620000Y-126870000D01*
X135380000Y-120630000D02*
X135380000Y-126870000D01*
X132740000Y-123750000D02*
X135380000Y-123750000D01*
%TO.C,R7*%
X137687742Y-65497500D02*
X138162258Y-65497500D01*
X137687742Y-66542500D02*
X138162258Y-66542500D01*
%TO.C,Q6*%
X142312500Y-104940000D02*
X140637500Y-104940000D01*
X142312500Y-104940000D02*
X142962500Y-104940000D01*
X142312500Y-108060000D02*
X141662500Y-108060000D01*
X142312500Y-108060000D02*
X142962500Y-108060000D01*
%TO.C,R1*%
X138272500Y-106512742D02*
X138272500Y-106987258D01*
X137227500Y-106512742D02*
X137227500Y-106987258D01*
%TO.C,U2*%
X147625000Y-91775000D02*
X141615000Y-91775000D01*
X145375000Y-84955000D02*
X141615000Y-84955000D01*
X141615000Y-91775000D02*
X141615000Y-90515000D01*
X141615000Y-84955000D02*
X141615000Y-86215000D01*
%TO.C,J5*%
X133340000Y-68490000D02*
X134450000Y-68490000D01*
X133340000Y-69250000D02*
X133340000Y-68490000D01*
X133340000Y-70010000D02*
X133340000Y-96615000D01*
X133340000Y-70010000D02*
X133886529Y-70010000D01*
X133340000Y-96615000D02*
X134142470Y-96615000D01*
X134757530Y-96615000D02*
X135560000Y-96615000D01*
X135013471Y-70010000D02*
X135560000Y-70010000D01*
X135560000Y-70010000D02*
X135560000Y-96615000D01*
%TO.C,U3*%
X138440000Y-74250000D02*
X138440000Y-77700000D01*
X138440000Y-74250000D02*
X138440000Y-72300000D01*
X148560000Y-74250000D02*
X148560000Y-76200000D01*
X148560000Y-74250000D02*
X148560000Y-72300000D01*
%TO.C,C3*%
X103510000Y-61369420D02*
X103510000Y-61650580D01*
X102490000Y-61369420D02*
X102490000Y-61650580D01*
%TO.C,TP1*%
X156975000Y-95865000D02*
G75*
G03*
X156975000Y-95865000I-950000J0D01*
G01*
%TO.C,C5*%
X96510000Y-61369420D02*
X96510000Y-61650580D01*
X95490000Y-61369420D02*
X95490000Y-61650580D01*
%TO.C,U1*%
X112750000Y-58010000D02*
X112750000Y-64760000D01*
X112750000Y-58010000D02*
X130750000Y-58010000D01*
X112750000Y-82760000D02*
X112750000Y-83510000D01*
X112750000Y-83510000D02*
X113750000Y-83510000D01*
X130750000Y-58010000D02*
X130750000Y-64760000D01*
X130750000Y-63950000D02*
X112750000Y-63950000D01*
X130750000Y-82760000D02*
X130750000Y-83510000D01*
X130750000Y-83510000D02*
X129750000Y-83510000D01*
%TO.C,R10*%
X145237258Y-81022500D02*
X144762742Y-81022500D01*
X145237258Y-79977500D02*
X144762742Y-79977500D01*
%TO.C,R4*%
X143199758Y-95387500D02*
X142725242Y-95387500D01*
X143199758Y-94342500D02*
X142725242Y-94342500D01*
%TO.C,R9*%
X97272500Y-124837742D02*
X97272500Y-125312258D01*
X96227500Y-124837742D02*
X96227500Y-125312258D01*
%TO.C,K1*%
X136000000Y-129350000D02*
X129400000Y-129350000D01*
X136000000Y-129350000D02*
X136000000Y-149150000D01*
X127000000Y-129350000D02*
X120400000Y-129350000D01*
X128150000Y-133400000D02*
X128150000Y-132600000D01*
X128150000Y-133400000D02*
X124550000Y-133400000D01*
X122150000Y-134300000D02*
X122150000Y-136800000D01*
X129950000Y-134800000D02*
X129950000Y-138800000D01*
X126350000Y-134800000D02*
X129950000Y-134800000D01*
X134150000Y-136800000D02*
X134150000Y-134300000D01*
X134150000Y-136800000D02*
X129950000Y-136800000D01*
X126350000Y-136800000D02*
X122150000Y-136800000D01*
X129950000Y-138800000D02*
X126350000Y-138800000D01*
X126350000Y-138800000D02*
X129950000Y-134800000D01*
X126350000Y-138800000D02*
X126350000Y-134800000D01*
X128150000Y-140200000D02*
X124550000Y-140200000D01*
X128150000Y-140200000D02*
X128150000Y-141700000D01*
X124550000Y-140200000D02*
X124550000Y-133400000D01*
X128150000Y-141700000D02*
X130650000Y-146300000D01*
X132400000Y-144900000D02*
X129900000Y-144900000D01*
X124000000Y-144900000D02*
X126450000Y-144900000D01*
X136000000Y-149150000D02*
X120400000Y-149150000D01*
X120400000Y-149150000D02*
X120400000Y-129350000D01*
%TO.C,C4*%
X106010000Y-61369420D02*
X106010000Y-61650580D01*
X104990000Y-61369420D02*
X104990000Y-61650580D01*
%TO.C,C8*%
X140359420Y-82240000D02*
X140640580Y-82240000D01*
X140359420Y-83260000D02*
X140640580Y-83260000D01*
%TO.C,D5*%
X143372500Y-68460000D02*
X143372500Y-66540000D01*
X143372500Y-66540000D02*
X140687500Y-66540000D01*
X140687500Y-68460000D02*
X143372500Y-68460000D01*
%TO.C,Q2*%
X149462500Y-58490000D02*
X147787500Y-58490000D01*
X149462500Y-58490000D02*
X150112500Y-58490000D01*
X149462500Y-61610000D02*
X148812500Y-61610000D01*
X149462500Y-61610000D02*
X150112500Y-61610000D01*
%TO.C,J6*%
X93140000Y-118740000D02*
X94250000Y-118740000D01*
X93140000Y-119500000D02*
X93140000Y-118740000D01*
X93140000Y-120260000D02*
X93140000Y-121465000D01*
X93140000Y-120260000D02*
X93686529Y-120260000D01*
X93140000Y-121465000D02*
X93942470Y-121465000D01*
X94557530Y-121465000D02*
X95360000Y-121465000D01*
X94813471Y-120260000D02*
X95360000Y-120260000D01*
X95360000Y-120260000D02*
X95360000Y-121465000D01*
%TO.C,D7*%
X96880000Y-121917500D02*
X98580000Y-121917500D01*
X96880000Y-121917500D02*
X96880000Y-119257500D01*
X98580000Y-121917500D02*
X98580000Y-119257500D01*
%TO.C,Q4*%
X112062500Y-126940000D02*
X110387500Y-126940000D01*
X112062500Y-126940000D02*
X112712500Y-126940000D01*
X112062500Y-130060000D02*
X111412500Y-130060000D01*
X112062500Y-130060000D02*
X112712500Y-130060000D01*
%TO.C,C6*%
X140535000Y-94224420D02*
X140535000Y-94505580D01*
X139515000Y-94224420D02*
X139515000Y-94505580D01*
%TO.C,R29*%
X151660000Y-106522936D02*
X151660000Y-107977064D01*
X149840000Y-106522936D02*
X149840000Y-107977064D01*
%TO.C,R26*%
X143414564Y-100630000D02*
X141960436Y-100630000D01*
X143414564Y-98810000D02*
X141960436Y-98810000D01*
%TO.C,R28*%
X148160000Y-106522936D02*
X148160000Y-107977064D01*
X146340000Y-106522936D02*
X146340000Y-107977064D01*
%TO.C,R27*%
X141960436Y-102100000D02*
X143414564Y-102100000D01*
X141960436Y-103920000D02*
X143414564Y-103920000D01*
%TO.C,R6*%
X137687742Y-62987500D02*
X138162258Y-62987500D01*
X137687742Y-64032500D02*
X138162258Y-64032500D01*
%TO.C,R13*%
X153985436Y-58560000D02*
X155439564Y-58560000D01*
X153985436Y-60380000D02*
X155439564Y-60380000D01*
%TO.C,Q1*%
X98640000Y-126562500D02*
X98640000Y-128237500D01*
X98640000Y-126562500D02*
X98640000Y-125912500D01*
X101760000Y-126562500D02*
X101760000Y-127212500D01*
X101760000Y-126562500D02*
X101760000Y-125912500D01*
%TO.C,R5*%
X137687742Y-60477500D02*
X138162258Y-60477500D01*
X137687742Y-61522500D02*
X138162258Y-61522500D01*
%TO.C,J8*%
X155640000Y-80740000D02*
X156750000Y-80740000D01*
X155640000Y-81500000D02*
X155640000Y-80740000D01*
X155640000Y-82260000D02*
X155640000Y-87275000D01*
X155640000Y-82260000D02*
X156186529Y-82260000D01*
X155640000Y-87275000D02*
X156442470Y-87275000D01*
X157057530Y-87275000D02*
X157860000Y-87275000D01*
X157313471Y-82260000D02*
X157860000Y-82260000D01*
X157860000Y-82260000D02*
X157860000Y-87275000D01*
%TO.C,J3*%
X154890000Y-107220000D02*
X156000000Y-107220000D01*
X154890000Y-107980000D02*
X154890000Y-107220000D01*
X154890000Y-108740000D02*
X154890000Y-113755000D01*
X154890000Y-108740000D02*
X155436529Y-108740000D01*
X154890000Y-113755000D02*
X155692470Y-113755000D01*
X156307530Y-113755000D02*
X157110000Y-113755000D01*
X156563471Y-108740000D02*
X157110000Y-108740000D01*
X157110000Y-108740000D02*
X157110000Y-113755000D01*
%TO.C,C9*%
X107740000Y-64650580D02*
X107740000Y-64369420D01*
X108760000Y-64650580D02*
X108760000Y-64369420D01*
%TO.C,D11*%
X117360000Y-130840000D02*
X115140000Y-130840000D01*
X115140000Y-130840000D02*
X115140000Y-135250000D01*
X117360000Y-135250000D02*
X117360000Y-130840000D01*
%TO.C,R11*%
X155237258Y-68022500D02*
X154762742Y-68022500D01*
X155237258Y-66977500D02*
X154762742Y-66977500D01*
D12*
%TO.C,D8*%
X154000000Y-130150000D02*
X153421000Y-130150000D01*
X151979000Y-130150000D02*
X151021000Y-130150000D01*
X149579000Y-130150000D02*
X149000000Y-130150000D01*
X154000000Y-130473000D02*
X149000000Y-130473000D01*
X152770000Y-130535000D02*
X152770000Y-131551000D01*
X149595000Y-130789000D02*
X150611000Y-130789000D01*
X152262000Y-131043000D02*
X153278000Y-131043000D01*
X154000000Y-134350000D02*
X154000000Y-130150000D01*
X154000000Y-134350000D02*
X153421000Y-134350000D01*
X151979000Y-134350000D02*
X151021000Y-134350000D01*
X149579000Y-134350000D02*
X149000000Y-134350000D01*
X149000000Y-134350000D02*
X149000000Y-130150000D01*
X152897000Y-133202000D02*
G75*
G03*
X153659000Y-133202000I381000J0D01*
G01*
X152897000Y-133202000D02*
G75*
G03*
X152135000Y-133202000I-381000J0D01*
G01*
X150103000Y-133266000D02*
G75*
G03*
X150865000Y-133266000I381000J0D01*
G01*
X150103000Y-133266000D02*
G75*
G03*
X149341000Y-133266000I-381000J0D01*
G01*
X153965000Y-129202000D02*
G75*
G03*
X153965000Y-129202000I-179000J0D01*
G01*
D13*
%TO.C,TP2*%
X156975000Y-91865000D02*
G75*
G03*
X156975000Y-91865000I-950000J0D01*
G01*
%TO.C,D3*%
X143325000Y-64515000D02*
X143325000Y-62595000D01*
X143325000Y-62595000D02*
X140640000Y-62595000D01*
X140640000Y-64515000D02*
X143325000Y-64515000D01*
%TO.C,U5*%
X125260000Y-125660000D02*
X125260000Y-125305000D01*
X125260000Y-125305000D02*
X126725000Y-125305000D01*
X125260000Y-121340000D02*
X125260000Y-121695000D01*
X123250000Y-125660000D02*
X125260000Y-125660000D01*
X123250000Y-125660000D02*
X121240000Y-125660000D01*
X123250000Y-121340000D02*
X125260000Y-121340000D01*
X123250000Y-121340000D02*
X121240000Y-121340000D01*
X121240000Y-125660000D02*
X121240000Y-125305000D01*
X121240000Y-121340000D02*
X121240000Y-121695000D01*
%TO.C,R14*%
X153985436Y-61850000D02*
X155439564Y-61850000D01*
X153985436Y-63670000D02*
X155439564Y-63670000D01*
%TO.C,C2*%
X96510000Y-67609420D02*
X96510000Y-67890580D01*
X95490000Y-67609420D02*
X95490000Y-67890580D01*
%TO.C,D4*%
X145400000Y-115500000D02*
X138100000Y-115500000D01*
X145400000Y-110000000D02*
X138100000Y-110000000D01*
X138100000Y-110000000D02*
X138100000Y-111150000D01*
%TO.C,R20*%
X112977500Y-133987258D02*
X112977500Y-133512742D01*
X114022500Y-133987258D02*
X114022500Y-133512742D01*
%TO.C,SW2*%
X100760000Y-60400000D02*
X100760000Y-61510000D01*
X100000000Y-60400000D02*
X100760000Y-60400000D01*
X99240000Y-60400000D02*
X98035000Y-60400000D01*
X99240000Y-60400000D02*
X99240000Y-60946529D01*
X98035000Y-60400000D02*
X98035000Y-61202470D01*
X98035000Y-61817530D02*
X98035000Y-62620000D01*
X99240000Y-62073471D02*
X99240000Y-62620000D01*
X99240000Y-62620000D02*
X98035000Y-62620000D01*
%TO.C,R8*%
X102527500Y-120424758D02*
X102527500Y-119950242D01*
X103572500Y-120424758D02*
X103572500Y-119950242D01*
%TO.C,C7*%
X148334420Y-79790000D02*
X148615580Y-79790000D01*
X148334420Y-80810000D02*
X148615580Y-80810000D01*
%TD*%
%LPC*%
D14*
%TO.C,J7*%
X152645500Y-76800000D03*
X152645500Y-71000000D03*
D15*
X152145500Y-78225000D03*
X152145500Y-69575000D03*
D16*
X156325500Y-69575000D03*
X156325500Y-78225000D03*
D17*
X151377500Y-77250000D03*
X151377500Y-76450000D03*
X151377500Y-75150000D03*
X151377500Y-74150000D03*
X151377500Y-73650000D03*
X151377500Y-72650000D03*
X151377500Y-71350000D03*
X151377500Y-70550000D03*
X151377500Y-70850000D03*
X151377500Y-71650000D03*
X151377500Y-72150000D03*
X151377500Y-73150000D03*
X151377500Y-74650000D03*
X151377500Y-75650000D03*
X151377500Y-76150000D03*
X151377500Y-76950000D03*
%TD*%
D18*
%TO.C,R2*%
X103000000Y-66547500D03*
X103000000Y-69472500D03*
%TD*%
D19*
%TO.C,SW1*%
X99750000Y-67510000D03*
D20*
X98480000Y-67510000D03*
%TD*%
D19*
%TO.C,J4*%
X109050000Y-69250000D03*
D20*
X109050000Y-70520000D03*
X109050000Y-71790000D03*
X109050000Y-73060000D03*
X109050000Y-74330000D03*
X109050000Y-75600000D03*
X109050000Y-76870000D03*
X109050000Y-78140000D03*
X109050000Y-79410000D03*
X109050000Y-80680000D03*
X109050000Y-81950000D03*
X109050000Y-83220000D03*
X109050000Y-84490000D03*
X109050000Y-85760000D03*
X109050000Y-87030000D03*
X109050000Y-88300000D03*
X109050000Y-89570000D03*
X109050000Y-90840000D03*
X109050000Y-92110000D03*
X109050000Y-93380000D03*
X109050000Y-94650000D03*
X109050000Y-95920000D03*
%TD*%
D21*
%TO.C,R12*%
X110250000Y-63685000D03*
X110250000Y-65335000D03*
%TD*%
D22*
%TO.C,R3*%
X150750000Y-85875000D03*
X150750000Y-84225000D03*
%TD*%
D23*
%TO.C,D1*%
X147400000Y-94865000D03*
X145525000Y-94865000D03*
%TD*%
D24*
%TO.C,D6*%
X100500000Y-119440000D03*
X100500000Y-121015000D03*
%TD*%
D19*
%TO.C,J2*%
X156000000Y-101225000D03*
D20*
X156000000Y-102495000D03*
X156000000Y-103765000D03*
%TD*%
D25*
%TO.C,Q3*%
X148525000Y-63550000D03*
X148525000Y-65450000D03*
X150400000Y-64500000D03*
%TD*%
D21*
%TO.C,R21*%
X127250000Y-117675000D03*
X127250000Y-119325000D03*
%TD*%
D26*
%TO.C,J1*%
X140090000Y-144500000D03*
D27*
X145170000Y-144500000D03*
X150250000Y-144500000D03*
X155330000Y-144500000D03*
%TD*%
D28*
%TO.C,C1*%
X105500000Y-66235000D03*
X105500000Y-67785000D03*
%TD*%
D23*
%TO.C,D2*%
X142687500Y-60000000D03*
X140812500Y-60000000D03*
%TD*%
D21*
%TO.C,R24*%
X123250000Y-117925000D03*
X123250000Y-119575000D03*
%TD*%
D25*
%TO.C,Q5*%
X147000000Y-99750000D03*
X147000000Y-101650000D03*
X148875000Y-100700000D03*
%TD*%
D29*
%TO.C,R17 47k 3W*%
X156700000Y-123750000D03*
D30*
X131300000Y-123750000D03*
%TD*%
D31*
%TO.C,R7*%
X137100000Y-66020000D03*
X138750000Y-66020000D03*
%TD*%
D25*
%TO.C,Q6*%
X141375000Y-105550000D03*
X141375000Y-107450000D03*
X143250000Y-106500000D03*
%TD*%
D21*
%TO.C,R1*%
X137750000Y-105925000D03*
X137750000Y-107575000D03*
%TD*%
D32*
%TO.C,U2*%
X146675000Y-90665000D03*
X146675000Y-88365000D03*
D33*
X140375000Y-88365000D03*
D32*
X146675000Y-86065000D03*
%TD*%
D19*
%TO.C,J5*%
X134450000Y-69250000D03*
D20*
X134450000Y-70520000D03*
X134450000Y-71790000D03*
X134450000Y-73060000D03*
X134450000Y-74330000D03*
X134450000Y-75600000D03*
X134450000Y-76870000D03*
X134450000Y-78140000D03*
X134450000Y-79410000D03*
X134450000Y-80680000D03*
X134450000Y-81950000D03*
X134450000Y-83220000D03*
X134450000Y-84490000D03*
X134450000Y-85760000D03*
X134450000Y-87030000D03*
X134450000Y-88300000D03*
X134450000Y-89570000D03*
X134450000Y-90840000D03*
X134450000Y-92110000D03*
X134450000Y-93380000D03*
X134450000Y-94650000D03*
X134450000Y-95920000D03*
%TD*%
D34*
%TO.C,U3*%
X139055000Y-76725000D03*
X140325000Y-76725000D03*
X141595000Y-76725000D03*
X142865000Y-76725000D03*
X144135000Y-76725000D03*
X145405000Y-76725000D03*
X146675000Y-76725000D03*
X147945000Y-76725000D03*
X147945000Y-71775000D03*
X146675000Y-71775000D03*
X145405000Y-71775000D03*
X144135000Y-71775000D03*
X142865000Y-71775000D03*
X141595000Y-71775000D03*
X140325000Y-71775000D03*
X139055000Y-71775000D03*
%TD*%
D28*
%TO.C,C3*%
X103000000Y-60735000D03*
X103000000Y-62285000D03*
%TD*%
D35*
%TO.C,TP1*%
X156025000Y-95865000D03*
%TD*%
D28*
%TO.C,C5*%
X96000000Y-60735000D03*
X96000000Y-62285000D03*
%TD*%
D36*
%TO.C,U1*%
X113000000Y-65500000D03*
X113000000Y-66770000D03*
X113000000Y-68040000D03*
X113000000Y-69310000D03*
X113000000Y-70580000D03*
X113000000Y-71850000D03*
X113000000Y-73120000D03*
X113000000Y-74390000D03*
X113000000Y-75660000D03*
X113000000Y-76930000D03*
X113000000Y-78200000D03*
X113000000Y-79470000D03*
X113000000Y-80740000D03*
X113000000Y-82010000D03*
D37*
X114765000Y-83260000D03*
X116035000Y-83260000D03*
X117305000Y-83260000D03*
X118575000Y-83260000D03*
X119845000Y-83260000D03*
X121115000Y-83260000D03*
X122385000Y-83260000D03*
X123655000Y-83260000D03*
X124925000Y-83260000D03*
X126195000Y-83260000D03*
X127465000Y-83260000D03*
X128735000Y-83260000D03*
D36*
X130500000Y-82010000D03*
X130500000Y-80740000D03*
X130500000Y-79470000D03*
X130500000Y-78200000D03*
X130500000Y-76930000D03*
X130500000Y-75660000D03*
X130500000Y-74390000D03*
X130500000Y-73120000D03*
X130500000Y-71850000D03*
X130500000Y-70580000D03*
X130500000Y-69310000D03*
X130500000Y-68040000D03*
X130500000Y-66770000D03*
X130500000Y-65500000D03*
D38*
X118850000Y-71820000D03*
X118850000Y-73220000D03*
X118850000Y-74620000D03*
X118850000Y-74620000D03*
X120250000Y-71820000D03*
X120250000Y-71820000D03*
X120250000Y-73220000D03*
X120250000Y-74620000D03*
X121650000Y-71820000D03*
X121650000Y-73220000D03*
X121650000Y-74620000D03*
%TD*%
D39*
%TO.C,R10*%
X145825000Y-80500000D03*
X144175000Y-80500000D03*
%TD*%
%TO.C,R4*%
X143787500Y-94865000D03*
X142137500Y-94865000D03*
%TD*%
D21*
%TO.C,R9*%
X96750000Y-124250000D03*
X96750000Y-125900000D03*
%TD*%
D40*
%TO.C,K1*%
X128200000Y-130750000D03*
D41*
X122150000Y-132700000D03*
D40*
X122150000Y-144900000D03*
X134200000Y-144950000D03*
D41*
X134150000Y-132700000D03*
%TD*%
D28*
%TO.C,C4*%
X105500000Y-60735000D03*
X105500000Y-62285000D03*
%TD*%
D42*
%TO.C,C8*%
X139725000Y-82750000D03*
X141275000Y-82750000D03*
%TD*%
D23*
%TO.C,D5*%
X142625000Y-67500000D03*
X140750000Y-67500000D03*
%TD*%
D25*
%TO.C,Q2*%
X148525000Y-59100000D03*
X148525000Y-61000000D03*
X150400000Y-60050000D03*
%TD*%
D19*
%TO.C,J6*%
X94250000Y-119500000D03*
D20*
X94250000Y-120770000D03*
%TD*%
D43*
%TO.C,D7*%
X97730000Y-121357500D03*
X97730000Y-119257500D03*
%TD*%
D25*
%TO.C,Q4*%
X111125000Y-127550000D03*
X111125000Y-129450000D03*
X113000000Y-128500000D03*
%TD*%
D28*
%TO.C,C6*%
X140025000Y-93590000D03*
X140025000Y-95140000D03*
%TD*%
D18*
%TO.C,R29*%
X150750000Y-105787500D03*
X150750000Y-108712500D03*
%TD*%
D44*
%TO.C,R26*%
X144150000Y-99720000D03*
X141225000Y-99720000D03*
%TD*%
D18*
%TO.C,R28*%
X147250000Y-105787500D03*
X147250000Y-108712500D03*
%TD*%
D45*
%TO.C,R27*%
X141225000Y-103010000D03*
X144150000Y-103010000D03*
%TD*%
D31*
%TO.C,R6*%
X137100000Y-63510000D03*
X138750000Y-63510000D03*
%TD*%
D45*
%TO.C,R13*%
X153250000Y-59470000D03*
X156175000Y-59470000D03*
%TD*%
D46*
%TO.C,Q1*%
X99250000Y-127500000D03*
X101150000Y-127500000D03*
X100200000Y-125625000D03*
%TD*%
D31*
%TO.C,R5*%
X137100000Y-61000000D03*
X138750000Y-61000000D03*
%TD*%
D19*
%TO.C,J8*%
X156750000Y-81500000D03*
D20*
X156750000Y-82770000D03*
X156750000Y-84040000D03*
X156750000Y-85310000D03*
X156750000Y-86580000D03*
%TD*%
D19*
%TO.C,J3*%
X156000000Y-107980000D03*
D20*
X156000000Y-109250000D03*
X156000000Y-110520000D03*
X156000000Y-111790000D03*
X156000000Y-113060000D03*
%TD*%
D47*
%TO.C,C9*%
X108250000Y-65285000D03*
X108250000Y-63735000D03*
%TD*%
D48*
%TO.C,D11*%
X116250000Y-131750000D03*
X116250000Y-135250000D03*
%TD*%
D39*
%TO.C,R11*%
X155825000Y-67500000D03*
X154175000Y-67500000D03*
%TD*%
D49*
%TO.C,D8*%
X152700000Y-129150000D03*
X150300000Y-129150000D03*
X150300000Y-135350000D03*
X152700000Y-135350000D03*
%TD*%
D35*
%TO.C,TP2*%
X156025000Y-91865000D03*
%TD*%
D23*
%TO.C,D3*%
X142577500Y-63555000D03*
X140702500Y-63555000D03*
%TD*%
D50*
%TO.C,U5*%
X126000000Y-124770000D03*
X126000000Y-122230000D03*
X120500000Y-122230000D03*
X120500000Y-124770000D03*
%TD*%
D45*
%TO.C,R14*%
X153250000Y-62760000D03*
X156175000Y-62760000D03*
%TD*%
D28*
%TO.C,C2*%
X96000000Y-66975000D03*
X96000000Y-68525000D03*
%TD*%
D36*
%TO.C,D4*%
X144200000Y-114400000D03*
X144200000Y-111100000D03*
X139300000Y-111100000D03*
X139300000Y-114400000D03*
%TD*%
D22*
%TO.C,R20*%
X113500000Y-134575000D03*
X113500000Y-132925000D03*
%TD*%
D19*
%TO.C,SW2*%
X100000000Y-61510000D03*
D20*
X98730000Y-61510000D03*
%TD*%
D22*
%TO.C,R8*%
X103050000Y-121012500D03*
X103050000Y-119362500D03*
%TD*%
D42*
%TO.C,C7*%
X147700000Y-80300000D03*
X149250000Y-80300000D03*
%TD*%
M02*
