M48
; DRILL file {KiCad 7.0.1} date Tue Aug 29 13:16:49 2023
; FORMAT={-:-/ absolute / inch / decimal}
; #@! TF.CreationDate,2023-08-29T13:16:49+02:00
; #@! TF.GenerationSoftware,Kicad,Pcbnew,7.0.1
; #@! TF.FileFunction,Plated,1,2,PTH
FMAT,2
INCH
; #@! TA.AperFunction,Plated,PTH,ComponentDrill
T1C0.0256
; #@! TA.AperFunction,Plated,PTH,ComponentDrill
T2C0.0315
; #@! TA.AperFunction,Plated,PTH,ComponentDrill
T3C0.0394
; #@! TA.AperFunction,Plated,PTH,ComponentDrill
T4C0.0472
; #@! TA.AperFunction,Plated,PTH,ComponentDrill
T5C0.0512
%
G90
G05
T1
X3.8772Y-2.6579
X3.887Y-2.4217
X3.9272Y-2.6579
X3.937Y-2.4217
X4.1142Y-4.0823
X4.1142Y-4.1323
X4.1142Y-4.1823
X4.1142Y-4.2323
X4.1142Y-4.2823
X4.2933Y-2.7264
X4.2933Y-2.7764
X4.2933Y-2.8264
X4.2933Y-2.8764
X4.2933Y-2.9264
X4.2933Y-2.9764
X4.2933Y-3.0264
X4.2933Y-3.0764
X4.2933Y-3.1264
X4.2933Y-3.1764
X4.2933Y-3.2264
X4.2933Y-3.2764
X4.2933Y-3.3264
X4.2933Y-3.3764
X4.2933Y-3.4264
X4.2933Y-3.4764
X4.2933Y-3.5264
X4.2933Y-3.5764
X4.2933Y-3.6264
X4.2933Y-3.6764
X4.2933Y-3.7264
X4.2933Y-3.7764
X4.4579Y-5.5315
X4.5079Y-5.5315
X4.685Y-4.1033
X4.685Y-4.1533
X4.685Y-4.2033
X5.2933Y-2.7264
X5.2933Y-2.7764
X5.2933Y-2.8264
X5.2933Y-2.8764
X5.2933Y-2.9264
X5.2933Y-2.9764
X5.2933Y-3.0264
X5.2933Y-3.0764
X5.2933Y-3.1264
X5.2933Y-3.1764
X5.2933Y-3.2264
X5.2933Y-3.2764
X5.2933Y-3.3264
X5.2933Y-3.3764
X5.2933Y-3.4264
X5.2933Y-3.4764
X5.2933Y-3.5264
X5.2933Y-3.5764
X5.2933Y-3.6264
X5.2933Y-3.6764
X5.2933Y-3.7264
X5.2933Y-3.7764
X7.0197Y-5.0571
X7.0197Y-5.1071
X7.126Y-2.815
X7.126Y-2.865
X7.126Y-2.915
X7.126Y-2.965
X7.126Y-3.015
T3
X5.315Y-5.7559
X5.7874Y-5.7559
T4
X6.1614Y-4.8425
X7.1614Y-4.8425
T5
X5.313Y-5.2736
X5.5492Y-5.8327
X5.7874Y-5.2756
X6.4307Y-5.6693
X6.6307Y-5.6693
X6.8307Y-5.6693
X7.0307Y-5.6693
T2
G00X6.9821Y-2.2707
M15
G01X7.0136Y-2.2707
M16
G05
G00X6.9821Y-2.6112
M15
G01X7.0136Y-2.6112
M16
G05
G00X7.1506Y-2.2707
M15
G01X7.1742Y-2.2707
M16
G05
G00X7.1506Y-2.6112
M15
G01X7.1742Y-2.6112
M16
G05
T0
M30
