%TF.GenerationSoftware,KiCad,Pcbnew,7.0.1*%
%TF.CreationDate,2023-08-30T08:57:10+02:00*%
%TF.ProjectId,LAS_V1,4c41535f-5631-42e6-9b69-6361645f7063,rev?*%
%TF.SameCoordinates,Original*%
%TF.FileFunction,Copper,L2,Bot*%
%TF.FilePolarity,Positive*%
%FSLAX46Y46*%
G04 Gerber Fmt 4.6, Leading zero omitted, Abs format (unit mm)*
G04 Created by KiCad (PCBNEW 7.0.1) date 2023-08-30 08:57:10*
%MOMM*%
%LPD*%
G01*
G04 APERTURE LIST*
%TA.AperFunction,ComponentPad*%
%ADD10O,2.000000X1.200000*%
%TD*%
%TA.AperFunction,ComponentPad*%
%ADD11O,1.800000X1.200000*%
%TD*%
%TA.AperFunction,ComponentPad*%
%ADD12R,1.000000X1.000000*%
%TD*%
%TA.AperFunction,ComponentPad*%
%ADD13O,1.000000X1.000000*%
%TD*%
%TA.AperFunction,ComponentPad*%
%ADD14R,2.600000X2.600000*%
%TD*%
%TA.AperFunction,ComponentPad*%
%ADD15C,2.600000*%
%TD*%
%TA.AperFunction,ComponentPad*%
%ADD16C,2.400000*%
%TD*%
%TA.AperFunction,ComponentPad*%
%ADD17O,2.400000X2.400000*%
%TD*%
%TA.AperFunction,ComponentPad*%
%ADD18C,3.000000*%
%TD*%
%TA.AperFunction,ComponentPad*%
%ADD19C,2.500000*%
%TD*%
%TA.AperFunction,ViaPad*%
%ADD20C,0.800000*%
%TD*%
%TA.AperFunction,Conductor*%
%ADD21C,0.300000*%
%TD*%
%TA.AperFunction,Conductor*%
%ADD22C,0.500000*%
%TD*%
%TA.AperFunction,Conductor*%
%ADD23C,1.000000*%
%TD*%
%TA.AperFunction,Conductor*%
%ADD24C,0.400000*%
%TD*%
%TA.AperFunction,Conductor*%
%ADD25C,0.250000*%
%TD*%
G04 APERTURE END LIST*
D10*
%TO.P,J7,0*%
%TO.N,N/C*%
X152145500Y-78225000D03*
%TO.P,J7,1*%
X152145500Y-69575000D03*
D11*
%TO.P,J7,2*%
X156325500Y-69575000D03*
%TO.P,J7,3*%
X156325500Y-78225000D03*
%TD*%
D12*
%TO.P,SW1,1,1*%
%TO.N,GND*%
X99750000Y-67510000D03*
D13*
%TO.P,SW1,2,2*%
%TO.N,/BOOT_SEL*%
X98480000Y-67510000D03*
%TD*%
D12*
%TO.P,J4,1,Pin_1*%
%TO.N,/+3.3V*%
X109050000Y-69250000D03*
D13*
%TO.P,J4,2,Pin_2*%
X109050000Y-70520000D03*
%TO.P,J4,3,Pin_3*%
%TO.N,/CHIP_PU*%
X109050000Y-71790000D03*
%TO.P,J4,4,Pin_4*%
%TO.N,/GPIO4*%
X109050000Y-73060000D03*
%TO.P,J4,5,Pin_5*%
%TO.N,/DIN_3.3*%
X109050000Y-74330000D03*
%TO.P,J4,6,Pin_6*%
%TO.N,/GPIO6*%
X109050000Y-75600000D03*
%TO.P,J4,7,Pin_7*%
%TO.N,/AC_Mon_1*%
X109050000Y-76870000D03*
%TO.P,J4,8,Pin_8*%
%TO.N,/GPIO15*%
X109050000Y-78140000D03*
%TO.P,J4,9,Pin_9*%
%TO.N,/GPIO16*%
X109050000Y-79410000D03*
%TO.P,J4,10,Pin_10*%
%TO.N,/GPIO17*%
X109050000Y-80680000D03*
%TO.P,J4,11,Pin_11*%
%TO.N,/GPIO18*%
X109050000Y-81950000D03*
%TO.P,J4,12,Pin_12*%
%TO.N,/GPIO8*%
X109050000Y-83220000D03*
%TO.P,J4,13,Pin_13*%
%TO.N,/GPIO3*%
X109050000Y-84490000D03*
%TO.P,J4,14,Pin_14*%
%TO.N,/GPIO46*%
X109050000Y-85760000D03*
%TO.P,J4,15,Pin_15*%
%TO.N,/GPIO9*%
X109050000Y-87030000D03*
%TO.P,J4,16,Pin_16*%
%TO.N,/GPIO10*%
X109050000Y-88300000D03*
%TO.P,J4,17,Pin_17*%
%TO.N,/GPIO11*%
X109050000Y-89570000D03*
%TO.P,J4,18,Pin_18*%
%TO.N,/GPIO12*%
X109050000Y-90840000D03*
%TO.P,J4,19,Pin_19*%
%TO.N,/GPIO13*%
X109050000Y-92110000D03*
%TO.P,J4,20,Pin_20*%
%TO.N,/GPIO14*%
X109050000Y-93380000D03*
%TO.P,J4,21,Pin_21*%
%TO.N,unconnected-(J4-Pin_21-Pad21)*%
X109050000Y-94650000D03*
%TO.P,J4,22,Pin_22*%
%TO.N,unconnected-(J4-Pin_22-Pad22)*%
X109050000Y-95920000D03*
%TD*%
D12*
%TO.P,J2,1,Pin_1*%
%TO.N,/+3.3V*%
X156000000Y-101225000D03*
D13*
%TO.P,J2,2,Pin_2*%
%TO.N,/VBus*%
X156000000Y-102495000D03*
%TO.P,J2,3,Pin_3*%
%TO.N,GND*%
X156000000Y-103765000D03*
%TD*%
D14*
%TO.P,J1,1,Pin_1*%
%TO.N,/N01*%
X140090000Y-144500000D03*
D15*
%TO.P,J1,2,Pin_2*%
%TO.N,/NC1*%
X145170000Y-144500000D03*
%TO.P,J1,3,Pin_3*%
%TO.N,/LIVE*%
X150250000Y-144500000D03*
%TO.P,J1,4,Pin_4*%
%TO.N,/NEUTRAL*%
X155330000Y-144500000D03*
%TD*%
D16*
%TO.P,R17 47k 3W,1*%
%TO.N,Net-(D8-+)*%
X156700000Y-123750000D03*
D17*
%TO.P,R17 47k 3W,2*%
%TO.N,Net-(D11-K)*%
X131300000Y-123750000D03*
%TD*%
D12*
%TO.P,J5,1,Pin_1*%
%TO.N,GND*%
X134450000Y-69250000D03*
D13*
%TO.P,J5,2,Pin_2*%
%TO.N,/TXD0*%
X134450000Y-70520000D03*
%TO.P,J5,3,Pin_3*%
%TO.N,/RXD0*%
X134450000Y-71790000D03*
%TO.P,J5,4,Pin_4*%
%TO.N,/GPIO1*%
X134450000Y-73060000D03*
%TO.P,J5,5,Pin_5*%
%TO.N,/GPIO2*%
X134450000Y-74330000D03*
%TO.P,J5,6,Pin_6*%
%TO.N,/GPIO42*%
X134450000Y-75600000D03*
%TO.P,J5,7,Pin_7*%
%TO.N,/GPIO41*%
X134450000Y-76870000D03*
%TO.P,J5,8,Pin_8*%
%TO.N,/GPIO40*%
X134450000Y-78140000D03*
%TO.P,J5,9,Pin_9*%
%TO.N,/GPIO39*%
X134450000Y-79410000D03*
%TO.P,J5,10,Pin_10*%
%TO.N,/GPIO38*%
X134450000Y-80680000D03*
%TO.P,J5,11,Pin_11*%
%TO.N,/GPIO37*%
X134450000Y-81950000D03*
%TO.P,J5,12,Pin_12*%
%TO.N,/GPIO36*%
X134450000Y-83220000D03*
%TO.P,J5,13,Pin_13*%
%TO.N,/GPIO35*%
X134450000Y-84490000D03*
%TO.P,J5,14,Pin_14*%
%TO.N,/BOOT_SEL*%
X134450000Y-85760000D03*
%TO.P,J5,15,Pin_15*%
%TO.N,/GPIO45*%
X134450000Y-87030000D03*
%TO.P,J5,16,Pin_16*%
%TO.N,/GPIO48*%
X134450000Y-88300000D03*
%TO.P,J5,17,Pin_17*%
%TO.N,/GPIO47*%
X134450000Y-89570000D03*
%TO.P,J5,18,Pin_18*%
%TO.N,/GPIO21*%
X134450000Y-90840000D03*
%TO.P,J5,19,Pin_19*%
%TO.N,/GPIO20*%
X134450000Y-92110000D03*
%TO.P,J5,20,Pin_20*%
%TO.N,/GPIO19*%
X134450000Y-93380000D03*
%TO.P,J5,21,Pin_21*%
%TO.N,GND*%
X134450000Y-94650000D03*
%TO.P,J5,22,Pin_22*%
X134450000Y-95920000D03*
%TD*%
D18*
%TO.P,K1,1*%
%TO.N,/LIVE*%
X128200000Y-130750000D03*
D19*
%TO.P,K1,2*%
%TO.N,/VBus*%
X122150000Y-132700000D03*
D18*
%TO.P,K1,3*%
%TO.N,/N01*%
X122150000Y-144900000D03*
%TO.P,K1,4*%
%TO.N,/NC1*%
X134200000Y-144950000D03*
D19*
%TO.P,K1,5*%
%TO.N,Net-(D6-K)*%
X134150000Y-132700000D03*
%TD*%
D12*
%TO.P,J6,1,Pin_1*%
%TO.N,/GPIO6*%
X94250000Y-119500000D03*
D13*
%TO.P,J6,2,Pin_2*%
%TO.N,Net-(J6-Pin_2)*%
X94250000Y-120770000D03*
%TD*%
D12*
%TO.P,J8,1,Pin_1*%
%TO.N,Net-(J8-Pin_1)*%
X156750000Y-81500000D03*
D13*
%TO.P,J8,2,Pin_2*%
%TO.N,Net-(J8-Pin_2)*%
X156750000Y-82770000D03*
%TO.P,J8,3,Pin_3*%
%TO.N,/TXD0*%
X156750000Y-84040000D03*
%TO.P,J8,4,Pin_4*%
%TO.N,/RXD0*%
X156750000Y-85310000D03*
%TO.P,J8,5,Pin_5*%
%TO.N,/VBus*%
X156750000Y-86580000D03*
%TD*%
D12*
%TO.P,J3,1,Pin_1*%
%TO.N,/TX_RFID*%
X156000000Y-107980000D03*
D13*
%TO.P,J3,2,Pin_2*%
%TO.N,unconnected-(J3-Pin_2-Pad2)*%
X156000000Y-109250000D03*
%TO.P,J3,3,Pin_3*%
%TO.N,unconnected-(J3-Pin_3-Pad3)*%
X156000000Y-110520000D03*
%TO.P,J3,4,Pin_4*%
%TO.N,GND*%
X156000000Y-111790000D03*
%TO.P,J3,5,Pin_5*%
%TO.N,/VBus*%
X156000000Y-113060000D03*
%TD*%
D12*
%TO.P,SW2,1,1*%
%TO.N,GND*%
X100000000Y-61510000D03*
D13*
%TO.P,SW2,2,2*%
%TO.N,/CHIP_PU*%
X98730000Y-61510000D03*
%TD*%
D20*
%TO.N,/CHIP_PU*%
X105250000Y-56750000D03*
X103250000Y-70750000D03*
X146750000Y-60000000D03*
X110250000Y-66750000D03*
%TO.N,GND*%
X150500000Y-82250000D03*
X151200000Y-117400000D03*
X117800000Y-118200000D03*
X108500000Y-58500000D03*
X149500000Y-90750000D03*
X110400000Y-133400000D03*
X139250000Y-98000000D03*
X136250000Y-100000000D03*
X139000000Y-109250000D03*
X103500000Y-131600000D03*
X125900000Y-115200000D03*
X147500000Y-83750000D03*
X147000000Y-57500000D03*
X106750000Y-64000000D03*
X144500000Y-61750000D03*
X151250000Y-67750000D03*
%TO.N,/BOOT_SEL*%
X144250000Y-65250000D03*
%TO.N,/+3.3V*%
X138250000Y-88000000D03*
X143750000Y-93000000D03*
X137500000Y-71000000D03*
X144000000Y-97500000D03*
X120000000Y-107750000D03*
X106250000Y-71750000D03*
X154750000Y-99250000D03*
X153750000Y-93500000D03*
X138250000Y-93750000D03*
%TO.N,/VBus*%
X149500000Y-70250000D03*
X143750000Y-116750000D03*
X145250000Y-82500000D03*
X115750000Y-125250000D03*
%TO.N,Net-(D6-K)*%
X138500000Y-135750000D03*
X105250000Y-126000000D03*
%TO.N,/TX_RFID*%
X150750000Y-101000000D03*
%TO.N,/DIN_3.3*%
X136500000Y-109000000D03*
X105000000Y-78500000D03*
%TO.N,/GPIO3*%
X114250000Y-85000000D03*
X136000000Y-67000000D03*
%TO.N,/TXD0*%
X142000000Y-79000000D03*
%TO.N,/RXD0*%
X140750000Y-80000000D03*
%TO.N,/GPIO1*%
X132250000Y-66750000D03*
X132300500Y-71757122D03*
%TO.N,/GPIO2*%
X133555000Y-67055000D03*
%TO.N,/GPIO20*%
X111250000Y-83250000D03*
%TO.N,/GPIO19*%
X111250000Y-82250000D03*
%TO.N,Net-(J8-Pin_2)*%
X154250000Y-80000000D03*
X150000000Y-72250000D03*
%TO.N,Net-(Q2-B)*%
X156250000Y-64500000D03*
X149750000Y-57250000D03*
%TO.N,/USB Interface/RTS*%
X146000000Y-66750000D03*
X147000000Y-62250000D03*
%TD*%
D21*
%TO.N,/CHIP_PU*%
X138960000Y-57710000D02*
X144460000Y-57710000D01*
X106250000Y-55750000D02*
X137000000Y-55750000D01*
X110250000Y-66750000D02*
X110250000Y-70590000D01*
X98730000Y-62217106D02*
X103250000Y-66737106D01*
X110250000Y-70590000D02*
X109050000Y-71790000D01*
X98730000Y-61510000D02*
X98730000Y-62217106D01*
X144460000Y-57710000D02*
X146750000Y-60000000D01*
X137000000Y-55750000D02*
X138960000Y-57710000D01*
X103250000Y-66737106D02*
X103250000Y-70750000D01*
X105250000Y-56750000D02*
X106250000Y-55750000D01*
%TO.N,GND*%
X145250000Y-61000000D02*
X149500000Y-61000000D01*
D22*
X139000000Y-109250000D02*
X139500000Y-109250000D01*
D21*
X136250000Y-100000000D02*
X137250000Y-100000000D01*
D23*
X151700000Y-117400000D02*
X151800000Y-117500000D01*
D21*
X144500000Y-61750000D02*
X145250000Y-61000000D01*
D22*
X106750000Y-60250000D02*
X106750000Y-64000000D01*
D21*
X147500000Y-88750000D02*
X149500000Y-90750000D01*
X150500000Y-82250000D02*
X149000000Y-83750000D01*
D22*
X117800000Y-118200000D02*
X120800000Y-115200000D01*
D21*
X149000000Y-83750000D02*
X147500000Y-83750000D01*
D22*
X108500000Y-58500000D02*
X106750000Y-60250000D01*
D21*
X147500000Y-83750000D02*
X147500000Y-88750000D01*
D22*
X120800000Y-115200000D02*
X125900000Y-115200000D01*
X105300000Y-133400000D02*
X103500000Y-131600000D01*
D21*
X137250000Y-100000000D02*
X139250000Y-98000000D01*
X149500000Y-60000000D02*
X147000000Y-57500000D01*
D22*
X110400000Y-133400000D02*
X105300000Y-133400000D01*
D21*
X149500000Y-61000000D02*
X149500000Y-60000000D01*
%TO.N,/BOOT_SEL*%
X134450000Y-85760000D02*
X136500000Y-83710000D01*
X136500000Y-69750000D02*
X141000000Y-65250000D01*
X141000000Y-65250000D02*
X144250000Y-65250000D01*
X136500000Y-83710000D02*
X136500000Y-69750000D01*
D22*
%TO.N,/+3.3V*%
X153750000Y-98250000D02*
X153750000Y-93500000D01*
X154750000Y-99250000D02*
X153750000Y-98250000D01*
D24*
X137500000Y-71000000D02*
X137250000Y-71250000D01*
D22*
X134250000Y-99750000D02*
X111750000Y-99750000D01*
X106250000Y-71750000D02*
X106250000Y-98750000D01*
D24*
X137250000Y-87000000D02*
X138250000Y-88000000D01*
D22*
X143750000Y-97250000D02*
X144000000Y-97500000D01*
D24*
X137250000Y-78500000D02*
X137250000Y-87000000D01*
D22*
X143750000Y-93000000D02*
X143750000Y-97250000D01*
D24*
X137250000Y-71250000D02*
X137250000Y-78500000D01*
D22*
X107250000Y-99750000D02*
X111750000Y-99750000D01*
X119750000Y-107750000D02*
X120000000Y-107750000D01*
X111750000Y-99750000D02*
X119750000Y-107750000D01*
X106250000Y-98750000D02*
X107250000Y-99750000D01*
X138250000Y-95750000D02*
X134250000Y-99750000D01*
X138250000Y-93750000D02*
X138250000Y-95750000D01*
%TO.N,/VBus*%
X143750000Y-116750000D02*
X132750000Y-127750000D01*
X115750000Y-126300000D02*
X122150000Y-132700000D01*
X138500000Y-74250000D02*
X138500000Y-82250000D01*
X138500000Y-82250000D02*
X138750000Y-82500000D01*
X127100000Y-127750000D02*
X122150000Y-132700000D01*
X138750000Y-82500000D02*
X145250000Y-82500000D01*
X115750000Y-125250000D02*
X115750000Y-126300000D01*
X142500000Y-70250000D02*
X142250000Y-70500000D01*
X142250000Y-70500000D02*
X138500000Y-74250000D01*
X132750000Y-127750000D02*
X127100000Y-127750000D01*
X149500000Y-70250000D02*
X142500000Y-70250000D01*
%TO.N,Net-(D6-K)*%
X110750000Y-131500000D02*
X116500000Y-131500000D01*
X137250000Y-137000000D02*
X138500000Y-135750000D01*
X105250000Y-126000000D02*
X110750000Y-131500000D01*
X122000000Y-137000000D02*
X137250000Y-137000000D01*
X116500000Y-131500000D02*
X122000000Y-137000000D01*
D21*
%TO.N,/TX_RFID*%
X150750000Y-101000000D02*
X156000000Y-106250000D01*
X156000000Y-106250000D02*
X156000000Y-107980000D01*
%TO.N,/DIN_3.3*%
X105000000Y-78500000D02*
X105000000Y-99500000D01*
X107000000Y-101500000D02*
X114500000Y-109000000D01*
X114500000Y-109000000D02*
X136500000Y-109000000D01*
X105000000Y-99500000D02*
X107000000Y-101500000D01*
%TO.N,/GPIO3*%
X133500000Y-64500000D02*
X129750000Y-64500000D01*
X129000000Y-65250000D02*
X129000000Y-70250000D01*
X129750000Y-64500000D02*
X129000000Y-65250000D01*
X129000000Y-70250000D02*
X114250000Y-85000000D01*
X136000000Y-67000000D02*
X133500000Y-64500000D01*
D25*
%TO.N,/TXD0*%
X142000000Y-79000000D02*
X150000000Y-79000000D01*
X150000000Y-79000000D02*
X155040000Y-84040000D01*
X155040000Y-84040000D02*
X156750000Y-84040000D01*
D21*
%TO.N,/RXD0*%
X155310000Y-85310000D02*
X156750000Y-85310000D01*
X140750000Y-80000000D02*
X150000000Y-80000000D01*
X150000000Y-80000000D02*
X155310000Y-85310000D01*
%TO.N,/GPIO1*%
X132250000Y-66750000D02*
X132250000Y-71706622D01*
X132250000Y-71706622D02*
X132300500Y-71757122D01*
%TO.N,/GPIO2*%
X133000000Y-72880000D02*
X134450000Y-74330000D01*
X133000000Y-67610000D02*
X133000000Y-72880000D01*
X133555000Y-67055000D02*
X133000000Y-67610000D01*
D25*
%TO.N,/GPIO20*%
X111250000Y-83250000D02*
X120110000Y-92110000D01*
X120110000Y-92110000D02*
X134450000Y-92110000D01*
%TO.N,/GPIO19*%
X110500000Y-82750000D02*
X110500000Y-85750000D01*
X111000000Y-82250000D02*
X110500000Y-82750000D01*
X118130000Y-93380000D02*
X134450000Y-93380000D01*
X111250000Y-82250000D02*
X111000000Y-82250000D01*
X110500000Y-85750000D02*
X118130000Y-93380000D01*
%TO.N,Net-(J8-Pin_2)*%
X154250000Y-80000000D02*
X154250000Y-76500000D01*
X154250000Y-76500000D02*
X150000000Y-72250000D01*
D21*
%TO.N,Net-(Q2-B)*%
X149750000Y-57250000D02*
X156250000Y-63750000D01*
X156250000Y-63750000D02*
X156250000Y-64500000D01*
D25*
%TO.N,/USB Interface/RTS*%
X147000000Y-65750000D02*
X147000000Y-62250000D01*
X146000000Y-66750000D02*
X147000000Y-65750000D01*
%TD*%
%TA.AperFunction,Conductor*%
%TO.N,GND*%
G36*
X105536486Y-55314015D02*
G01*
X105580509Y-55351615D01*
X105602664Y-55405102D01*
X105598122Y-55462818D01*
X105567872Y-55512181D01*
X105266873Y-55813181D01*
X105226645Y-55840061D01*
X105179192Y-55849500D01*
X105155352Y-55849500D01*
X104970197Y-55888855D01*
X104797269Y-55965848D01*
X104644129Y-56077110D01*
X104517466Y-56217783D01*
X104422820Y-56381715D01*
X104364326Y-56561742D01*
X104344540Y-56750000D01*
X104364326Y-56938257D01*
X104422820Y-57118284D01*
X104517466Y-57282216D01*
X104644129Y-57422889D01*
X104797269Y-57534151D01*
X104970197Y-57611144D01*
X105155352Y-57650500D01*
X105155354Y-57650500D01*
X105344646Y-57650500D01*
X105344648Y-57650500D01*
X105468083Y-57624262D01*
X105529803Y-57611144D01*
X105702730Y-57534151D01*
X105702730Y-57534150D01*
X105855870Y-57422889D01*
X105982533Y-57282216D01*
X106077179Y-57118284D01*
X106135674Y-56938257D01*
X106149168Y-56809857D01*
X106160568Y-56769434D01*
X106184802Y-56735142D01*
X106483129Y-56436816D01*
X106523355Y-56409939D01*
X106570808Y-56400500D01*
X136679192Y-56400500D01*
X136726645Y-56409939D01*
X136766873Y-56436819D01*
X138439564Y-58109510D01*
X138452912Y-58126169D01*
X138505831Y-58175864D01*
X138508628Y-58178575D01*
X138528962Y-58198909D01*
X138532443Y-58201609D01*
X138541326Y-58209195D01*
X138574607Y-58240448D01*
X138593198Y-58250668D01*
X138609462Y-58261351D01*
X138626235Y-58274362D01*
X138668138Y-58292495D01*
X138678626Y-58297633D01*
X138718632Y-58319627D01*
X138739197Y-58324906D01*
X138757593Y-58331205D01*
X138777074Y-58339636D01*
X138822178Y-58346779D01*
X138833597Y-58349144D01*
X138877823Y-58360500D01*
X138899045Y-58360500D01*
X138918443Y-58362026D01*
X138939405Y-58365347D01*
X138984863Y-58361049D01*
X138996531Y-58360500D01*
X144139192Y-58360500D01*
X144186645Y-58369939D01*
X144226873Y-58396819D01*
X145815191Y-59985137D01*
X145839431Y-60019434D01*
X145850831Y-60059856D01*
X145864326Y-60188257D01*
X145922820Y-60368284D01*
X146017466Y-60532216D01*
X146144129Y-60672889D01*
X146297269Y-60784151D01*
X146470197Y-60861144D01*
X146655352Y-60900500D01*
X146655354Y-60900500D01*
X146844646Y-60900500D01*
X146844648Y-60900500D01*
X146968084Y-60874262D01*
X147029803Y-60861144D01*
X147202730Y-60784151D01*
X147355871Y-60672888D01*
X147482533Y-60532216D01*
X147577179Y-60368284D01*
X147635674Y-60188256D01*
X147655460Y-60000000D01*
X147635674Y-59811744D01*
X147577179Y-59631716D01*
X147577179Y-59631715D01*
X147482533Y-59467783D01*
X147355870Y-59327110D01*
X147202730Y-59215848D01*
X147029802Y-59138855D01*
X146844648Y-59099500D01*
X146844646Y-59099500D01*
X146820808Y-59099500D01*
X146773355Y-59090061D01*
X146733127Y-59063181D01*
X144980434Y-57310488D01*
X144967091Y-57293833D01*
X144920413Y-57250000D01*
X148844540Y-57250000D01*
X148864326Y-57438257D01*
X148922820Y-57618284D01*
X149017466Y-57782216D01*
X149144129Y-57922889D01*
X149297269Y-58034151D01*
X149470197Y-58111144D01*
X149655352Y-58150500D01*
X149655354Y-58150500D01*
X149679192Y-58150500D01*
X149726645Y-58159939D01*
X149766873Y-58186819D01*
X155461303Y-63881249D01*
X155490144Y-63926519D01*
X155497150Y-63979737D01*
X155481009Y-64030930D01*
X155422820Y-64131715D01*
X155364326Y-64311742D01*
X155344540Y-64499999D01*
X155364326Y-64688257D01*
X155422820Y-64868284D01*
X155517466Y-65032216D01*
X155644129Y-65172889D01*
X155797269Y-65284151D01*
X155970197Y-65361144D01*
X156155352Y-65400500D01*
X156155354Y-65400500D01*
X156344646Y-65400500D01*
X156344648Y-65400500D01*
X156468084Y-65374262D01*
X156529803Y-65361144D01*
X156702730Y-65284151D01*
X156778082Y-65229405D01*
X156855870Y-65172889D01*
X156860432Y-65167823D01*
X156982533Y-65032216D01*
X157077179Y-64868284D01*
X157135674Y-64688256D01*
X157155460Y-64500000D01*
X157135674Y-64311744D01*
X157105332Y-64218363D01*
X157077179Y-64131715D01*
X156982533Y-63967783D01*
X156933500Y-63913327D01*
X156905707Y-63861814D01*
X156905077Y-63827302D01*
X156903252Y-63827360D01*
X156900561Y-63741737D01*
X156900500Y-63737842D01*
X156900500Y-63709081D01*
X156900500Y-63709075D01*
X156899946Y-63704695D01*
X156899030Y-63693054D01*
X156897597Y-63647431D01*
X156891675Y-63627048D01*
X156887732Y-63608011D01*
X156885071Y-63586942D01*
X156868264Y-63544492D01*
X156864483Y-63533448D01*
X156851745Y-63489604D01*
X156851744Y-63489603D01*
X156851744Y-63489601D01*
X156840934Y-63471322D01*
X156832380Y-63453862D01*
X156824568Y-63434129D01*
X156797723Y-63397180D01*
X156791332Y-63387451D01*
X156768081Y-63348135D01*
X156753068Y-63333122D01*
X156740435Y-63318330D01*
X156727963Y-63301163D01*
X156692779Y-63272056D01*
X156684140Y-63264194D01*
X150684808Y-57264862D01*
X150660568Y-57230564D01*
X150649168Y-57190141D01*
X150646980Y-57169326D01*
X150637631Y-57080364D01*
X150635674Y-57061742D01*
X150577179Y-56881715D01*
X150482533Y-56717783D01*
X150355870Y-56577110D01*
X150202730Y-56465848D01*
X150029802Y-56388855D01*
X149844648Y-56349500D01*
X149844646Y-56349500D01*
X149655354Y-56349500D01*
X149655352Y-56349500D01*
X149470197Y-56388855D01*
X149297269Y-56465848D01*
X149144129Y-56577110D01*
X149017466Y-56717783D01*
X148922820Y-56881715D01*
X148864326Y-57061742D01*
X148844540Y-57250000D01*
X144920413Y-57250000D01*
X144914166Y-57244134D01*
X144911369Y-57241423D01*
X144891034Y-57221088D01*
X144887547Y-57218383D01*
X144878671Y-57210801D01*
X144845394Y-57179552D01*
X144826793Y-57169326D01*
X144810532Y-57158645D01*
X144793764Y-57145638D01*
X144751870Y-57127508D01*
X144741379Y-57122369D01*
X144701367Y-57100372D01*
X144680800Y-57095091D01*
X144662398Y-57088791D01*
X144642924Y-57080364D01*
X144597837Y-57073223D01*
X144586398Y-57070854D01*
X144542178Y-57059500D01*
X144542177Y-57059500D01*
X144520955Y-57059500D01*
X144501556Y-57057973D01*
X144480596Y-57054653D01*
X144480595Y-57054653D01*
X144458558Y-57056736D01*
X144435139Y-57058950D01*
X144423470Y-57059500D01*
X139280808Y-57059500D01*
X139233355Y-57050061D01*
X139193127Y-57023181D01*
X137682127Y-55512181D01*
X137651877Y-55462818D01*
X137647335Y-55405102D01*
X137669490Y-55351615D01*
X137713513Y-55314015D01*
X137769808Y-55300500D01*
X158575500Y-55300500D01*
X158637500Y-55317113D01*
X158682887Y-55362500D01*
X158699500Y-55424500D01*
X158699500Y-119256000D01*
X158682887Y-119318000D01*
X158637500Y-119363387D01*
X158575500Y-119380000D01*
X142480728Y-119380000D01*
X142424433Y-119366485D01*
X142380410Y-119328885D01*
X142358255Y-119275398D01*
X142362797Y-119217682D01*
X142393047Y-119168319D01*
X143061866Y-118499500D01*
X143902771Y-117658594D01*
X143931282Y-117637304D01*
X143964665Y-117624988D01*
X144029803Y-117611144D01*
X144029804Y-117611143D01*
X144029806Y-117611143D01*
X144202730Y-117534151D01*
X144355870Y-117422889D01*
X144482533Y-117282216D01*
X144577179Y-117118284D01*
X144577179Y-117118283D01*
X144635674Y-116938256D01*
X144655460Y-116750000D01*
X144635674Y-116561744D01*
X144577179Y-116381716D01*
X144577179Y-116381715D01*
X144482533Y-116217783D01*
X144355870Y-116077110D01*
X144202730Y-115965848D01*
X144029802Y-115888855D01*
X143844648Y-115849500D01*
X143844646Y-115849500D01*
X143655354Y-115849500D01*
X143655352Y-115849500D01*
X143470197Y-115888855D01*
X143297269Y-115965848D01*
X143144129Y-116077110D01*
X143017466Y-116217783D01*
X142922821Y-116381714D01*
X142867478Y-116552040D01*
X142837228Y-116601402D01*
X140094950Y-119343681D01*
X140054722Y-119370561D01*
X140007269Y-119380000D01*
X106680000Y-119380000D01*
X106680000Y-126069270D01*
X106666485Y-126125565D01*
X106628885Y-126169588D01*
X106575398Y-126191743D01*
X106517682Y-126187201D01*
X106468319Y-126156951D01*
X106162771Y-125851403D01*
X106132521Y-125802040D01*
X106077179Y-125631715D01*
X105982533Y-125467783D01*
X105855870Y-125327110D01*
X105702730Y-125215848D01*
X105529802Y-125138855D01*
X105344648Y-125099500D01*
X105344646Y-125099500D01*
X105155354Y-125099500D01*
X105155352Y-125099500D01*
X104970197Y-125138855D01*
X104797269Y-125215848D01*
X104644129Y-125327110D01*
X104517466Y-125467783D01*
X104422820Y-125631715D01*
X104364326Y-125811742D01*
X104344540Y-125999999D01*
X104364326Y-126188257D01*
X104422820Y-126368284D01*
X104517466Y-126532216D01*
X104644129Y-126672889D01*
X104797269Y-126784151D01*
X104970193Y-126861143D01*
X104970196Y-126861143D01*
X104970197Y-126861144D01*
X105035333Y-126874988D01*
X105068714Y-126887303D01*
X105097228Y-126908596D01*
X106643681Y-128455049D01*
X106670561Y-128495277D01*
X106680000Y-128542730D01*
X106680000Y-149575500D01*
X106663387Y-149637500D01*
X106618000Y-149682887D01*
X106556000Y-149699500D01*
X90424500Y-149699500D01*
X90362500Y-149682887D01*
X90317113Y-149637500D01*
X90300500Y-149575500D01*
X90300500Y-120769999D01*
X93244659Y-120769999D01*
X93263976Y-120966133D01*
X93321185Y-121154726D01*
X93321186Y-121154727D01*
X93414090Y-121328538D01*
X93539117Y-121480883D01*
X93691462Y-121605910D01*
X93865273Y-121698814D01*
X94053868Y-121756024D01*
X94250000Y-121775341D01*
X94446132Y-121756024D01*
X94634727Y-121698814D01*
X94808538Y-121605910D01*
X94960883Y-121480883D01*
X95085910Y-121328538D01*
X95178814Y-121154727D01*
X95236024Y-120966132D01*
X95255341Y-120770000D01*
X95236024Y-120573868D01*
X95178814Y-120385273D01*
X95177677Y-120383146D01*
X95176564Y-120377859D01*
X95175268Y-120373586D01*
X95175640Y-120373472D01*
X95163392Y-120315294D01*
X95187768Y-120250382D01*
X95193796Y-120242331D01*
X95244091Y-120107483D01*
X95250500Y-120047873D01*
X95250499Y-118952128D01*
X95244091Y-118892517D01*
X95193796Y-118757669D01*
X95107546Y-118642454D01*
X94992331Y-118556204D01*
X94857483Y-118505909D01*
X94797873Y-118499500D01*
X94797869Y-118499500D01*
X93702130Y-118499500D01*
X93642515Y-118505909D01*
X93507669Y-118556204D01*
X93392454Y-118642454D01*
X93306204Y-118757668D01*
X93255909Y-118892516D01*
X93249500Y-118952130D01*
X93249500Y-120047869D01*
X93255909Y-120107484D01*
X93306204Y-120242332D01*
X93312232Y-120250384D01*
X93336607Y-120315292D01*
X93324360Y-120373474D01*
X93324731Y-120373587D01*
X93323442Y-120377834D01*
X93322326Y-120383139D01*
X93321186Y-120385270D01*
X93263976Y-120573866D01*
X93244659Y-120769999D01*
X90300500Y-120769999D01*
X90300500Y-113060000D01*
X154994659Y-113060000D01*
X155013976Y-113256133D01*
X155071185Y-113444726D01*
X155071186Y-113444727D01*
X155164090Y-113618538D01*
X155289117Y-113770883D01*
X155441462Y-113895910D01*
X155615273Y-113988814D01*
X155803868Y-114046024D01*
X156000000Y-114065341D01*
X156196132Y-114046024D01*
X156384727Y-113988814D01*
X156558538Y-113895910D01*
X156710883Y-113770883D01*
X156835910Y-113618538D01*
X156928814Y-113444727D01*
X156986024Y-113256132D01*
X157005341Y-113060000D01*
X156986024Y-112863868D01*
X156928814Y-112675273D01*
X156835910Y-112501462D01*
X156830153Y-112490691D01*
X156830974Y-112490252D01*
X156812486Y-112452757D01*
X156812489Y-112396440D01*
X156830689Y-112359541D01*
X156829735Y-112359031D01*
X156928351Y-112174530D01*
X156969160Y-112040001D01*
X156969160Y-112040000D01*
X155030840Y-112040000D01*
X155030839Y-112040001D01*
X155071649Y-112174534D01*
X155170264Y-112359030D01*
X155169310Y-112359539D01*
X155187512Y-112396445D01*
X155187514Y-112452760D01*
X155169026Y-112490252D01*
X155169847Y-112490691D01*
X155071185Y-112675273D01*
X155013976Y-112863866D01*
X154994659Y-113060000D01*
X90300500Y-113060000D01*
X90300500Y-78500000D01*
X104094540Y-78500000D01*
X104114326Y-78688257D01*
X104172820Y-78868284D01*
X104267464Y-79032213D01*
X104267467Y-79032216D01*
X104317651Y-79087951D01*
X104341264Y-79126484D01*
X104349500Y-79170922D01*
X104349500Y-99414495D01*
X104347158Y-99435704D01*
X104349439Y-99508262D01*
X104349500Y-99512157D01*
X104349500Y-99540926D01*
X104350053Y-99545307D01*
X104350968Y-99556940D01*
X104352402Y-99602569D01*
X104358323Y-99622950D01*
X104362267Y-99641995D01*
X104364928Y-99663059D01*
X104381737Y-99705515D01*
X104385520Y-99716563D01*
X104398256Y-99760400D01*
X104409061Y-99778670D01*
X104417621Y-99796143D01*
X104425431Y-99815869D01*
X104452267Y-99852808D01*
X104458673Y-99862560D01*
X104481919Y-99901865D01*
X104481921Y-99901867D01*
X104496925Y-99916871D01*
X104509564Y-99931669D01*
X104522037Y-99948837D01*
X104557212Y-99977936D01*
X104565854Y-99985800D01*
X113979564Y-109399510D01*
X113992912Y-109416169D01*
X114045831Y-109465864D01*
X114048628Y-109468575D01*
X114068962Y-109488909D01*
X114072443Y-109491609D01*
X114081326Y-109499195D01*
X114114607Y-109530448D01*
X114133198Y-109540668D01*
X114149462Y-109551351D01*
X114166235Y-109564362D01*
X114208138Y-109582495D01*
X114218626Y-109587633D01*
X114258632Y-109609627D01*
X114279197Y-109614906D01*
X114297593Y-109621205D01*
X114317074Y-109629636D01*
X114362178Y-109636779D01*
X114373597Y-109639144D01*
X114417823Y-109650500D01*
X114439045Y-109650500D01*
X114458443Y-109652026D01*
X114479405Y-109655347D01*
X114524863Y-109651049D01*
X114536531Y-109650500D01*
X135823025Y-109650500D01*
X135861343Y-109656569D01*
X135895907Y-109674180D01*
X136047270Y-109784151D01*
X136047271Y-109784151D01*
X136047272Y-109784152D01*
X136220197Y-109861144D01*
X136405352Y-109900500D01*
X136405354Y-109900500D01*
X136594646Y-109900500D01*
X136594648Y-109900500D01*
X136718084Y-109874262D01*
X136779803Y-109861144D01*
X136952730Y-109784151D01*
X137105871Y-109672888D01*
X137232533Y-109532216D01*
X137327179Y-109368284D01*
X137385674Y-109188256D01*
X137405460Y-109000000D01*
X137385674Y-108811744D01*
X137327179Y-108631716D01*
X137327179Y-108631715D01*
X137232533Y-108467783D01*
X137105870Y-108327110D01*
X136952730Y-108215848D01*
X136779802Y-108138855D01*
X136594648Y-108099500D01*
X136594646Y-108099500D01*
X136405354Y-108099500D01*
X136405352Y-108099500D01*
X136220197Y-108138855D01*
X136047272Y-108215847D01*
X136033986Y-108225500D01*
X135895907Y-108325819D01*
X135861343Y-108343431D01*
X135823025Y-108349500D01*
X120908461Y-108349500D01*
X120846461Y-108332887D01*
X120801074Y-108287500D01*
X120784461Y-108225500D01*
X120801074Y-108163500D01*
X120827179Y-108118284D01*
X120833282Y-108099500D01*
X120885674Y-107938256D01*
X120905460Y-107750000D01*
X120885674Y-107561744D01*
X120827179Y-107381716D01*
X120827179Y-107381715D01*
X120732533Y-107217783D01*
X120605870Y-107077110D01*
X120452730Y-106965848D01*
X120279802Y-106888855D01*
X120094648Y-106849500D01*
X120094646Y-106849500D01*
X119962229Y-106849500D01*
X119914776Y-106840061D01*
X119874548Y-106813181D01*
X114061368Y-101000000D01*
X149844540Y-101000000D01*
X149846102Y-101014862D01*
X149864326Y-101188257D01*
X149922820Y-101368284D01*
X150017466Y-101532216D01*
X150144129Y-101672889D01*
X150297269Y-101784151D01*
X150470197Y-101861144D01*
X150655352Y-101900500D01*
X150655354Y-101900500D01*
X150679192Y-101900500D01*
X150726645Y-101909939D01*
X150766873Y-101936819D01*
X155313181Y-106483127D01*
X155340061Y-106523355D01*
X155349500Y-106570808D01*
X155349500Y-106915858D01*
X155339488Y-106964670D01*
X155311071Y-107005600D01*
X155268835Y-107032039D01*
X155257671Y-107036203D01*
X155257670Y-107036203D01*
X155257669Y-107036204D01*
X155203026Y-107077110D01*
X155142454Y-107122454D01*
X155056204Y-107237668D01*
X155005909Y-107372516D01*
X154999500Y-107432130D01*
X154999500Y-108527869D01*
X155005909Y-108587484D01*
X155056204Y-108722332D01*
X155062232Y-108730384D01*
X155086607Y-108795292D01*
X155074360Y-108853474D01*
X155074731Y-108853587D01*
X155073442Y-108857834D01*
X155072326Y-108863139D01*
X155071186Y-108865270D01*
X155013976Y-109053866D01*
X154994659Y-109249999D01*
X155013976Y-109446133D01*
X155071185Y-109634726D01*
X155169847Y-109819309D01*
X155168923Y-109819802D01*
X155187190Y-109856843D01*
X155187190Y-109913157D01*
X155168923Y-109950197D01*
X155169847Y-109950691D01*
X155071185Y-110135273D01*
X155013976Y-110323866D01*
X154994659Y-110519999D01*
X155013976Y-110716133D01*
X155071185Y-110904726D01*
X155169847Y-111089309D01*
X155169025Y-111089747D01*
X155187512Y-111127231D01*
X155187514Y-111183546D01*
X155169311Y-111220460D01*
X155170264Y-111220970D01*
X155071649Y-111405465D01*
X155030839Y-111539998D01*
X155030840Y-111540000D01*
X156969160Y-111540000D01*
X156969160Y-111539998D01*
X156928350Y-111405465D01*
X156829736Y-111220970D01*
X156830688Y-111220460D01*
X156812486Y-111183543D01*
X156812489Y-111127226D01*
X156830974Y-111089749D01*
X156830153Y-111089310D01*
X156888051Y-110980987D01*
X156928814Y-110904727D01*
X156986024Y-110716132D01*
X157005341Y-110520000D01*
X156986024Y-110323868D01*
X156928814Y-110135273D01*
X156928813Y-110135272D01*
X156830153Y-109950690D01*
X156831076Y-109950196D01*
X156812809Y-109913151D01*
X156812813Y-109856831D01*
X156831077Y-109819804D01*
X156830153Y-109819310D01*
X156908416Y-109672889D01*
X156928814Y-109634727D01*
X156986024Y-109446132D01*
X157005341Y-109250000D01*
X156986024Y-109053868D01*
X156928814Y-108865273D01*
X156927677Y-108863146D01*
X156926564Y-108857859D01*
X156925268Y-108853586D01*
X156925640Y-108853472D01*
X156913392Y-108795294D01*
X156937768Y-108730382D01*
X156943796Y-108722331D01*
X156994091Y-108587483D01*
X157000500Y-108527873D01*
X157000499Y-107432128D01*
X156994091Y-107372517D01*
X156943796Y-107237669D01*
X156857546Y-107122454D01*
X156742331Y-107036204D01*
X156739307Y-107035076D01*
X156731165Y-107032039D01*
X156688929Y-107005600D01*
X156660512Y-106964670D01*
X156650500Y-106915858D01*
X156650500Y-106335504D01*
X156652841Y-106314294D01*
X156650561Y-106241737D01*
X156650500Y-106237842D01*
X156650500Y-106209081D01*
X156650500Y-106209075D01*
X156649946Y-106204695D01*
X156649030Y-106193054D01*
X156647597Y-106147430D01*
X156641675Y-106127047D01*
X156637732Y-106108010D01*
X156635071Y-106086942D01*
X156618266Y-106044498D01*
X156614481Y-106033444D01*
X156601744Y-105989602D01*
X156601744Y-105989601D01*
X156590934Y-105971322D01*
X156582380Y-105953862D01*
X156574568Y-105934129D01*
X156547723Y-105897180D01*
X156541332Y-105887451D01*
X156518081Y-105848135D01*
X156503068Y-105833122D01*
X156490435Y-105818330D01*
X156477963Y-105801163D01*
X156442779Y-105772056D01*
X156434140Y-105764194D01*
X155603535Y-104933589D01*
X155571234Y-104877217D01*
X155571872Y-104812249D01*
X155605274Y-104756522D01*
X155662270Y-104725334D01*
X155727212Y-104727248D01*
X155749999Y-104734160D01*
X155750000Y-104734160D01*
X155750000Y-104015000D01*
X156250000Y-104015000D01*
X156250000Y-104734160D01*
X156250001Y-104734160D01*
X156384534Y-104693350D01*
X156558257Y-104600493D01*
X156710527Y-104475527D01*
X156835493Y-104323257D01*
X156928350Y-104149534D01*
X156969160Y-104015001D01*
X156969160Y-104015000D01*
X156250000Y-104015000D01*
X155750000Y-104015000D01*
X155030839Y-104015000D01*
X155037752Y-104037788D01*
X155039665Y-104102730D01*
X155008477Y-104159726D01*
X154952750Y-104193127D01*
X154887782Y-104193765D01*
X154831410Y-104161464D01*
X153164945Y-102494999D01*
X154994659Y-102494999D01*
X155013976Y-102691133D01*
X155071185Y-102879726D01*
X155169847Y-103064309D01*
X155169025Y-103064747D01*
X155187512Y-103102231D01*
X155187514Y-103158546D01*
X155169311Y-103195460D01*
X155170264Y-103195970D01*
X155071649Y-103380465D01*
X155030839Y-103514998D01*
X155030840Y-103515000D01*
X156969160Y-103515000D01*
X156969160Y-103514998D01*
X156928350Y-103380465D01*
X156829736Y-103195970D01*
X156830688Y-103195460D01*
X156812486Y-103158543D01*
X156812489Y-103102226D01*
X156830974Y-103064749D01*
X156830153Y-103064310D01*
X156888051Y-102955987D01*
X156928814Y-102879727D01*
X156986024Y-102691132D01*
X157005341Y-102495000D01*
X156986024Y-102298868D01*
X156928814Y-102110273D01*
X156927677Y-102108146D01*
X156926564Y-102102859D01*
X156925268Y-102098586D01*
X156925640Y-102098472D01*
X156913392Y-102040294D01*
X156937768Y-101975382D01*
X156943796Y-101967331D01*
X156994091Y-101832483D01*
X157000500Y-101772873D01*
X157000499Y-100677128D01*
X156994091Y-100617517D01*
X156943796Y-100482669D01*
X156857546Y-100367454D01*
X156742331Y-100281204D01*
X156607483Y-100230909D01*
X156547873Y-100224500D01*
X156547869Y-100224500D01*
X155452130Y-100224500D01*
X155392515Y-100230909D01*
X155257670Y-100281202D01*
X155142454Y-100367453D01*
X155056204Y-100482668D01*
X155005909Y-100617515D01*
X155005909Y-100617517D01*
X155000835Y-100664716D01*
X154999500Y-100677130D01*
X154999500Y-101772869D01*
X155005909Y-101832484D01*
X155056204Y-101967332D01*
X155062232Y-101975384D01*
X155086607Y-102040292D01*
X155074360Y-102098474D01*
X155074731Y-102098587D01*
X155073442Y-102102834D01*
X155072326Y-102108139D01*
X155071186Y-102110270D01*
X155013976Y-102298866D01*
X154994659Y-102494999D01*
X153164945Y-102494999D01*
X151684808Y-101014862D01*
X151660568Y-100980564D01*
X151649168Y-100940141D01*
X151635674Y-100811742D01*
X151577179Y-100631715D01*
X151482533Y-100467783D01*
X151355870Y-100327110D01*
X151202730Y-100215848D01*
X151029802Y-100138855D01*
X150844648Y-100099500D01*
X150844646Y-100099500D01*
X150655354Y-100099500D01*
X150655352Y-100099500D01*
X150470197Y-100138855D01*
X150297269Y-100215848D01*
X150144129Y-100327110D01*
X150017466Y-100467783D01*
X149922820Y-100631715D01*
X149864326Y-100811742D01*
X149864325Y-100811744D01*
X149864326Y-100811744D01*
X149844540Y-101000000D01*
X114061368Y-101000000D01*
X113773549Y-100712181D01*
X113743299Y-100662818D01*
X113738757Y-100605102D01*
X113760912Y-100551615D01*
X113804935Y-100514015D01*
X113861230Y-100500500D01*
X134186294Y-100500500D01*
X134204264Y-100501809D01*
X134208320Y-100502402D01*
X134228023Y-100505289D01*
X134277368Y-100500972D01*
X134288176Y-100500500D01*
X134293706Y-100500500D01*
X134293709Y-100500500D01*
X134324550Y-100496894D01*
X134328031Y-100496539D01*
X134402797Y-100489999D01*
X134402797Y-100489998D01*
X134404052Y-100489889D01*
X134423062Y-100485674D01*
X134424250Y-100485241D01*
X134424255Y-100485241D01*
X134494820Y-100459557D01*
X134498095Y-100458419D01*
X134569334Y-100434814D01*
X134569336Y-100434812D01*
X134570536Y-100434415D01*
X134588063Y-100425929D01*
X134589112Y-100425238D01*
X134589117Y-100425237D01*
X134651806Y-100384005D01*
X134654798Y-100382099D01*
X134718656Y-100342712D01*
X134718656Y-100342711D01*
X134719729Y-100342050D01*
X134734824Y-100329753D01*
X134735692Y-100328832D01*
X134735696Y-100328830D01*
X134787185Y-100274253D01*
X134789631Y-100271735D01*
X138735638Y-96325727D01*
X138749256Y-96313957D01*
X138768530Y-96299610D01*
X138800382Y-96261649D01*
X138807668Y-96253697D01*
X138811590Y-96249777D01*
X138830863Y-96225399D01*
X138833030Y-96222739D01*
X138881302Y-96165214D01*
X138881303Y-96165210D01*
X138882119Y-96164239D01*
X138892575Y-96147825D01*
X138893109Y-96146679D01*
X138893111Y-96146677D01*
X138924816Y-96078682D01*
X138926369Y-96075475D01*
X138960040Y-96008433D01*
X138960040Y-96008429D01*
X138960610Y-96007296D01*
X138966999Y-95988917D01*
X138967256Y-95987673D01*
X138982431Y-95914171D01*
X138983186Y-95910767D01*
X139000500Y-95837721D01*
X139000500Y-95837719D01*
X139000790Y-95836495D01*
X139002769Y-95817123D01*
X139002732Y-95815859D01*
X139002733Y-95815856D01*
X139000552Y-95740889D01*
X139000500Y-95737284D01*
X139000500Y-94284322D01*
X139017113Y-94222322D01*
X139077179Y-94118284D01*
X139089554Y-94080197D01*
X139135674Y-93938256D01*
X139155460Y-93750000D01*
X139135674Y-93561744D01*
X139077179Y-93381716D01*
X139077179Y-93381715D01*
X138982533Y-93217783D01*
X138855870Y-93077110D01*
X138749737Y-93000000D01*
X142844540Y-93000000D01*
X142864326Y-93188257D01*
X142922820Y-93368284D01*
X142982887Y-93472322D01*
X142999500Y-93534322D01*
X142999500Y-97186294D01*
X142998191Y-97204264D01*
X142994711Y-97228023D01*
X142999028Y-97277369D01*
X142999500Y-97288176D01*
X142999500Y-97293708D01*
X143003098Y-97324496D01*
X143003464Y-97328081D01*
X143010110Y-97404041D01*
X143014329Y-97423071D01*
X143014758Y-97424251D01*
X143014759Y-97424255D01*
X143040413Y-97494742D01*
X143041582Y-97498107D01*
X143065580Y-97570524D01*
X143074076Y-97588073D01*
X143092880Y-97616663D01*
X143112601Y-97671839D01*
X143114326Y-97688257D01*
X143172820Y-97868284D01*
X143267466Y-98032216D01*
X143394129Y-98172889D01*
X143547269Y-98284151D01*
X143720197Y-98361144D01*
X143905352Y-98400500D01*
X143905354Y-98400500D01*
X144094646Y-98400500D01*
X144094648Y-98400500D01*
X144250488Y-98367375D01*
X144279803Y-98361144D01*
X144452730Y-98284151D01*
X144529984Y-98228023D01*
X144605870Y-98172889D01*
X144732533Y-98032216D01*
X144827179Y-97868284D01*
X144827178Y-97868284D01*
X144885674Y-97688256D01*
X144905460Y-97500000D01*
X144885674Y-97311744D01*
X144827179Y-97131716D01*
X144827179Y-97131715D01*
X144732533Y-96967783D01*
X144605871Y-96827112D01*
X144551616Y-96787694D01*
X144514015Y-96743670D01*
X144500500Y-96687375D01*
X144500500Y-93534322D01*
X144509697Y-93500000D01*
X152844540Y-93500000D01*
X152864326Y-93688257D01*
X152922820Y-93868284D01*
X152982887Y-93972322D01*
X152999500Y-94034322D01*
X152999500Y-98186294D01*
X152998191Y-98204264D01*
X152994711Y-98228023D01*
X152999028Y-98277369D01*
X152999500Y-98288176D01*
X152999500Y-98293708D01*
X153003098Y-98324496D01*
X153003464Y-98328081D01*
X153010110Y-98404041D01*
X153014329Y-98423071D01*
X153014758Y-98424251D01*
X153014759Y-98424255D01*
X153040413Y-98494742D01*
X153041582Y-98498107D01*
X153065580Y-98570524D01*
X153074075Y-98588072D01*
X153115979Y-98651784D01*
X153117889Y-98654782D01*
X153147480Y-98702756D01*
X153157952Y-98719733D01*
X153170248Y-98734826D01*
X153171169Y-98735695D01*
X153171170Y-98735696D01*
X153225746Y-98787185D01*
X153228298Y-98789665D01*
X153837228Y-99398595D01*
X153867478Y-99447958D01*
X153922820Y-99618284D01*
X154017466Y-99782216D01*
X154144129Y-99922889D01*
X154297269Y-100034151D01*
X154470197Y-100111144D01*
X154655352Y-100150500D01*
X154655354Y-100150500D01*
X154844646Y-100150500D01*
X154844648Y-100150500D01*
X154968083Y-100124262D01*
X155029803Y-100111144D01*
X155144214Y-100060204D01*
X155153057Y-100058633D01*
X155159706Y-100053306D01*
X155202730Y-100034151D01*
X155355871Y-99922888D01*
X155482533Y-99782216D01*
X155577179Y-99618284D01*
X155635674Y-99438256D01*
X155655460Y-99250000D01*
X155635674Y-99061744D01*
X155577179Y-98881716D01*
X155577179Y-98881715D01*
X155482533Y-98717783D01*
X155355870Y-98577110D01*
X155202730Y-98465848D01*
X155029803Y-98388855D01*
X154964669Y-98375011D01*
X154931282Y-98362694D01*
X154902769Y-98341402D01*
X154536819Y-97975451D01*
X154509939Y-97935223D01*
X154500500Y-97887770D01*
X154500500Y-94034322D01*
X154517113Y-93972322D01*
X154577179Y-93868284D01*
X154589870Y-93829226D01*
X154635674Y-93688256D01*
X154655460Y-93500000D01*
X154635674Y-93311744D01*
X154605144Y-93217783D01*
X154577179Y-93131715D01*
X154482533Y-92967783D01*
X154355870Y-92827110D01*
X154202730Y-92715848D01*
X154029802Y-92638855D01*
X153844648Y-92599500D01*
X153844646Y-92599500D01*
X153655354Y-92599500D01*
X153655352Y-92599500D01*
X153470197Y-92638855D01*
X153297269Y-92715848D01*
X153144129Y-92827110D01*
X153017466Y-92967783D01*
X152922820Y-93131715D01*
X152864326Y-93311742D01*
X152844540Y-93500000D01*
X144509697Y-93500000D01*
X144517113Y-93472322D01*
X144577179Y-93368284D01*
X144595551Y-93311742D01*
X144635674Y-93188256D01*
X144655460Y-93000000D01*
X144635674Y-92811744D01*
X144600538Y-92703606D01*
X144577179Y-92631715D01*
X144482533Y-92467783D01*
X144355870Y-92327110D01*
X144202730Y-92215848D01*
X144029802Y-92138855D01*
X143844648Y-92099500D01*
X143844646Y-92099500D01*
X143655354Y-92099500D01*
X143655352Y-92099500D01*
X143470197Y-92138855D01*
X143297269Y-92215848D01*
X143144129Y-92327110D01*
X143017466Y-92467783D01*
X142922820Y-92631715D01*
X142864326Y-92811742D01*
X142844540Y-93000000D01*
X138749737Y-93000000D01*
X138702730Y-92965848D01*
X138529802Y-92888855D01*
X138344648Y-92849500D01*
X138344646Y-92849500D01*
X138155354Y-92849500D01*
X138155352Y-92849500D01*
X137970197Y-92888855D01*
X137797269Y-92965848D01*
X137644129Y-93077110D01*
X137517466Y-93217783D01*
X137422820Y-93381715D01*
X137364326Y-93561742D01*
X137344540Y-93749999D01*
X137364326Y-93938257D01*
X137422820Y-94118284D01*
X137482887Y-94222322D01*
X137499500Y-94284322D01*
X137499500Y-95387770D01*
X137490061Y-95435223D01*
X137463181Y-95475451D01*
X133975451Y-98963181D01*
X133935223Y-98990061D01*
X133887770Y-98999500D01*
X111839343Y-98999500D01*
X111817121Y-98997229D01*
X111740869Y-98999448D01*
X111737263Y-98999500D01*
X107612229Y-98999500D01*
X107564776Y-98990061D01*
X107524548Y-98963181D01*
X107036819Y-98475451D01*
X107009939Y-98435223D01*
X107000500Y-98387770D01*
X107000500Y-95920000D01*
X108044659Y-95920000D01*
X108063976Y-96116133D01*
X108121185Y-96304726D01*
X108121186Y-96304727D01*
X108214090Y-96478538D01*
X108339117Y-96630883D01*
X108491462Y-96755910D01*
X108665273Y-96848814D01*
X108853868Y-96906024D01*
X109050000Y-96925341D01*
X109246132Y-96906024D01*
X109434727Y-96848814D01*
X109608538Y-96755910D01*
X109760883Y-96630883D01*
X109885910Y-96478538D01*
X109978814Y-96304727D01*
X110019683Y-96170001D01*
X133480839Y-96170001D01*
X133521649Y-96304534D01*
X133614506Y-96478257D01*
X133739472Y-96630527D01*
X133891742Y-96755493D01*
X134065465Y-96848350D01*
X134199998Y-96889160D01*
X134200000Y-96889160D01*
X134200000Y-96170000D01*
X134700000Y-96170000D01*
X134700000Y-96889160D01*
X134700001Y-96889160D01*
X134834534Y-96848350D01*
X135008257Y-96755493D01*
X135160527Y-96630527D01*
X135285493Y-96478257D01*
X135378350Y-96304534D01*
X135419160Y-96170001D01*
X135419160Y-96170000D01*
X134700000Y-96170000D01*
X134200000Y-96170000D01*
X133480840Y-96170000D01*
X133480839Y-96170001D01*
X110019683Y-96170001D01*
X110036024Y-96116132D01*
X110055341Y-95920000D01*
X110036024Y-95723868D01*
X110019683Y-95669998D01*
X133480839Y-95669998D01*
X133480840Y-95670000D01*
X134200000Y-95670000D01*
X134200000Y-94900000D01*
X134700000Y-94900000D01*
X134700000Y-95670000D01*
X135419160Y-95670000D01*
X135419160Y-95669998D01*
X135378351Y-95535469D01*
X135279735Y-95350969D01*
X135280586Y-95350513D01*
X135262163Y-95313151D01*
X135262167Y-95256831D01*
X135280588Y-95219486D01*
X135279735Y-95219031D01*
X135378351Y-95034530D01*
X135419160Y-94900001D01*
X135419160Y-94900000D01*
X134700000Y-94900000D01*
X134200000Y-94900000D01*
X133480840Y-94900000D01*
X133480839Y-94900001D01*
X133521649Y-95034534D01*
X133620264Y-95219030D01*
X133619413Y-95219484D01*
X133637836Y-95256843D01*
X133637836Y-95313157D01*
X133619413Y-95350515D01*
X133620264Y-95350970D01*
X133521649Y-95535465D01*
X133480839Y-95669998D01*
X110019683Y-95669998D01*
X109978814Y-95535273D01*
X109880153Y-95350690D01*
X109881076Y-95350196D01*
X109862809Y-95313151D01*
X109862813Y-95256831D01*
X109881077Y-95219804D01*
X109880153Y-95219310D01*
X109938051Y-95110987D01*
X109978814Y-95034727D01*
X110036024Y-94846132D01*
X110055341Y-94650000D01*
X110036024Y-94453868D01*
X109978814Y-94265273D01*
X109937486Y-94187953D01*
X109880153Y-94080690D01*
X109881077Y-94080196D01*
X109862811Y-94043160D01*
X109862811Y-93986840D01*
X109881077Y-93949803D01*
X109880153Y-93949310D01*
X109943598Y-93830611D01*
X109978814Y-93764727D01*
X110036024Y-93576132D01*
X110055341Y-93380000D01*
X110036024Y-93183868D01*
X109978814Y-92995273D01*
X109921933Y-92888856D01*
X109880153Y-92810690D01*
X109881077Y-92810196D01*
X109862811Y-92773160D01*
X109862811Y-92716840D01*
X109881077Y-92679803D01*
X109880153Y-92679310D01*
X109938051Y-92570987D01*
X109978814Y-92494727D01*
X110036024Y-92306132D01*
X110055341Y-92110000D01*
X110036024Y-91913868D01*
X109978814Y-91725273D01*
X109880153Y-91540690D01*
X109881076Y-91540196D01*
X109862809Y-91503151D01*
X109862813Y-91446831D01*
X109881077Y-91409804D01*
X109880153Y-91409310D01*
X109938051Y-91300987D01*
X109978814Y-91224727D01*
X110036024Y-91036132D01*
X110055341Y-90840000D01*
X110036024Y-90643868D01*
X109978814Y-90455273D01*
X109885910Y-90281462D01*
X109880153Y-90270691D01*
X109881076Y-90270197D01*
X109862810Y-90233154D01*
X109862811Y-90176837D01*
X109881076Y-90139803D01*
X109880153Y-90139310D01*
X109938051Y-90030987D01*
X109978814Y-89954727D01*
X110036024Y-89766132D01*
X110055341Y-89570000D01*
X110036024Y-89373868D01*
X109978814Y-89185273D01*
X109885910Y-89011462D01*
X109880153Y-89000691D01*
X109881076Y-89000197D01*
X109862810Y-88963154D01*
X109862811Y-88906837D01*
X109881076Y-88869803D01*
X109880153Y-88869310D01*
X109938051Y-88760987D01*
X109978814Y-88684727D01*
X110036024Y-88496132D01*
X110055341Y-88300000D01*
X110036024Y-88103868D01*
X109978814Y-87915273D01*
X109923477Y-87811744D01*
X109880153Y-87730690D01*
X109881077Y-87730196D01*
X109862811Y-87693160D01*
X109862811Y-87636840D01*
X109881077Y-87599803D01*
X109880153Y-87599310D01*
X109976831Y-87418436D01*
X109978814Y-87414727D01*
X110036024Y-87226132D01*
X110055341Y-87030000D01*
X110036024Y-86833868D01*
X109978814Y-86645273D01*
X109943925Y-86580000D01*
X109880153Y-86460690D01*
X109881077Y-86460196D01*
X109862811Y-86423160D01*
X109862811Y-86366840D01*
X109881076Y-86329804D01*
X109880152Y-86329310D01*
X109885910Y-86318538D01*
X109910910Y-86271765D01*
X109948867Y-86228840D01*
X110002073Y-86207562D01*
X110059164Y-86212478D01*
X110107949Y-86242539D01*
X117629196Y-93763787D01*
X117642096Y-93779888D01*
X117693223Y-93827900D01*
X117696020Y-93830611D01*
X117715529Y-93850120D01*
X117718711Y-93852588D01*
X117727571Y-93860155D01*
X117736227Y-93868284D01*
X117759418Y-93890062D01*
X117776970Y-93899711D01*
X117793238Y-93910397D01*
X117809064Y-93922673D01*
X117849146Y-93940017D01*
X117859633Y-93945155D01*
X117897907Y-93966197D01*
X117906410Y-93968379D01*
X117917308Y-93971178D01*
X117935713Y-93977478D01*
X117954104Y-93985437D01*
X117997250Y-93992270D01*
X118008668Y-93994635D01*
X118050981Y-94005500D01*
X118071016Y-94005500D01*
X118090415Y-94007027D01*
X118110196Y-94010160D01*
X118153674Y-94006050D01*
X118165344Y-94005500D01*
X133453723Y-94005500D01*
X133514842Y-94021609D01*
X133560081Y-94065751D01*
X133577686Y-94126457D01*
X133563081Y-94187953D01*
X133521649Y-94265465D01*
X133480839Y-94399998D01*
X133480840Y-94400000D01*
X135419160Y-94400000D01*
X135419160Y-94399998D01*
X135378350Y-94265465D01*
X135279736Y-94080970D01*
X135280688Y-94080460D01*
X135262486Y-94043543D01*
X135262489Y-93987226D01*
X135280974Y-93949749D01*
X135280153Y-93949310D01*
X135343598Y-93830611D01*
X135378814Y-93764727D01*
X135436024Y-93576132D01*
X135455341Y-93380000D01*
X135436024Y-93183868D01*
X135378814Y-92995273D01*
X135321933Y-92888856D01*
X135280153Y-92810690D01*
X135281077Y-92810196D01*
X135262811Y-92773160D01*
X135262811Y-92716840D01*
X135281077Y-92679803D01*
X135280153Y-92679310D01*
X135338051Y-92570987D01*
X135378814Y-92494727D01*
X135436024Y-92306132D01*
X135455341Y-92110000D01*
X135436024Y-91913868D01*
X135378814Y-91725273D01*
X135280153Y-91540690D01*
X135281076Y-91540196D01*
X135262809Y-91503151D01*
X135262813Y-91446831D01*
X135281077Y-91409804D01*
X135280153Y-91409310D01*
X135338051Y-91300987D01*
X135378814Y-91224727D01*
X135436024Y-91036132D01*
X135455341Y-90840000D01*
X135436024Y-90643868D01*
X135378814Y-90455273D01*
X135285910Y-90281462D01*
X135280153Y-90270691D01*
X135281076Y-90270197D01*
X135262810Y-90233154D01*
X135262811Y-90176837D01*
X135281076Y-90139803D01*
X135280153Y-90139310D01*
X135338051Y-90030987D01*
X135378814Y-89954727D01*
X135436024Y-89766132D01*
X135455341Y-89570000D01*
X135436024Y-89373868D01*
X135378814Y-89185273D01*
X135285910Y-89011462D01*
X135280153Y-89000691D01*
X135281076Y-89000197D01*
X135262810Y-88963154D01*
X135262811Y-88906837D01*
X135281076Y-88869803D01*
X135280153Y-88869310D01*
X135338051Y-88760987D01*
X135378814Y-88684727D01*
X135436024Y-88496132D01*
X135455341Y-88300000D01*
X135436024Y-88103868D01*
X135378814Y-87915273D01*
X135323477Y-87811744D01*
X135280153Y-87730690D01*
X135281077Y-87730196D01*
X135262811Y-87693160D01*
X135262811Y-87636840D01*
X135281077Y-87599803D01*
X135280153Y-87599310D01*
X135376831Y-87418436D01*
X135378814Y-87414727D01*
X135436024Y-87226132D01*
X135455341Y-87030000D01*
X135436024Y-86833868D01*
X135378814Y-86645273D01*
X135343925Y-86580000D01*
X135280153Y-86460690D01*
X135281077Y-86460196D01*
X135262811Y-86423160D01*
X135262811Y-86366840D01*
X135281077Y-86329803D01*
X135280153Y-86329310D01*
X135345228Y-86207562D01*
X135378814Y-86144727D01*
X135436024Y-85956132D01*
X135455341Y-85760000D01*
X135453432Y-85740623D01*
X135460083Y-85686698D01*
X135489152Y-85640792D01*
X136337818Y-84792126D01*
X136387182Y-84761876D01*
X136444898Y-84757334D01*
X136498385Y-84779489D01*
X136535985Y-84823512D01*
X136549500Y-84879807D01*
X136549500Y-86975079D01*
X136549274Y-86982566D01*
X136545641Y-87042607D01*
X136556483Y-87101771D01*
X136557610Y-87109172D01*
X136564860Y-87168873D01*
X136568450Y-87178339D01*
X136574475Y-87199952D01*
X136576303Y-87209929D01*
X136600991Y-87264783D01*
X136603856Y-87271701D01*
X136625180Y-87327926D01*
X136625182Y-87327930D01*
X136630941Y-87336273D01*
X136641961Y-87355813D01*
X136646120Y-87365054D01*
X136683216Y-87412405D01*
X136687651Y-87418432D01*
X136721817Y-87467929D01*
X136766847Y-87507822D01*
X136772283Y-87512940D01*
X137323495Y-88064152D01*
X137347734Y-88098449D01*
X137359134Y-88138869D01*
X137364325Y-88188254D01*
X137422820Y-88368284D01*
X137517466Y-88532216D01*
X137644129Y-88672889D01*
X137797269Y-88784151D01*
X137970197Y-88861144D01*
X138155352Y-88900500D01*
X138155354Y-88900500D01*
X138344646Y-88900500D01*
X138344648Y-88900500D01*
X138489065Y-88869803D01*
X138529803Y-88861144D01*
X138702730Y-88784151D01*
X138839576Y-88684727D01*
X138855870Y-88672889D01*
X138982533Y-88532216D01*
X139077179Y-88368284D01*
X139099366Y-88300000D01*
X139135674Y-88188256D01*
X139155460Y-88000000D01*
X139135674Y-87811744D01*
X139105332Y-87718363D01*
X139077179Y-87631715D01*
X138982533Y-87467783D01*
X138855870Y-87327110D01*
X138702730Y-87215848D01*
X138529802Y-87138855D01*
X138374871Y-87105924D01*
X138341484Y-87093607D01*
X138312971Y-87072315D01*
X137986819Y-86746162D01*
X137959939Y-86705934D01*
X137950500Y-86658481D01*
X137950500Y-83061229D01*
X137964015Y-83004934D01*
X138001615Y-82960911D01*
X138055102Y-82938756D01*
X138112818Y-82943298D01*
X138162181Y-82973548D01*
X138174268Y-82985635D01*
X138186044Y-82999260D01*
X138200390Y-83018530D01*
X138238343Y-83050376D01*
X138246322Y-83057689D01*
X138250224Y-83061591D01*
X138274542Y-83080819D01*
X138277298Y-83083063D01*
X138334786Y-83131302D01*
X138334788Y-83131303D01*
X138335757Y-83132116D01*
X138352177Y-83142576D01*
X138353321Y-83143109D01*
X138353323Y-83143111D01*
X138421357Y-83174835D01*
X138424456Y-83176335D01*
X138491567Y-83210040D01*
X138492704Y-83210611D01*
X138511084Y-83216998D01*
X138512321Y-83217253D01*
X138512327Y-83217256D01*
X138585862Y-83232439D01*
X138589209Y-83233181D01*
X138662279Y-83250500D01*
X138662281Y-83250500D01*
X138663505Y-83250790D01*
X138682876Y-83252769D01*
X138684140Y-83252732D01*
X138684144Y-83252733D01*
X138759110Y-83250552D01*
X138762716Y-83250500D01*
X144710663Y-83250500D01*
X144748982Y-83256569D01*
X144783550Y-83274183D01*
X144797271Y-83284152D01*
X144970197Y-83361144D01*
X145155352Y-83400500D01*
X145155354Y-83400500D01*
X145344646Y-83400500D01*
X145344648Y-83400500D01*
X145468083Y-83374262D01*
X145529803Y-83361144D01*
X145702730Y-83284151D01*
X145791027Y-83220000D01*
X145855870Y-83172889D01*
X145956410Y-83061229D01*
X145982533Y-83032216D01*
X146077179Y-82868284D01*
X146135674Y-82688256D01*
X146155460Y-82500000D01*
X146135674Y-82311744D01*
X146105332Y-82218363D01*
X146077179Y-82131715D01*
X145982533Y-81967783D01*
X145855870Y-81827110D01*
X145702730Y-81715848D01*
X145529802Y-81638855D01*
X145344648Y-81599500D01*
X145344646Y-81599500D01*
X145155354Y-81599500D01*
X145155352Y-81599500D01*
X144970197Y-81638855D01*
X144797271Y-81715847D01*
X144783550Y-81725817D01*
X144748982Y-81743431D01*
X144710663Y-81749500D01*
X139374500Y-81749500D01*
X139312500Y-81732887D01*
X139267113Y-81687500D01*
X139250500Y-81625500D01*
X139250500Y-80000000D01*
X139844540Y-80000000D01*
X139864326Y-80188257D01*
X139922820Y-80368284D01*
X140017466Y-80532216D01*
X140144129Y-80672889D01*
X140297269Y-80784151D01*
X140470197Y-80861144D01*
X140655352Y-80900500D01*
X140655354Y-80900500D01*
X140844646Y-80900500D01*
X140844648Y-80900500D01*
X140968083Y-80874262D01*
X141029803Y-80861144D01*
X141202730Y-80784151D01*
X141354092Y-80674180D01*
X141388657Y-80656569D01*
X141426975Y-80650500D01*
X149679192Y-80650500D01*
X149726645Y-80659939D01*
X149766873Y-80686819D01*
X154789564Y-85709510D01*
X154802912Y-85726169D01*
X154855831Y-85775864D01*
X154858628Y-85778575D01*
X154878961Y-85798908D01*
X154882442Y-85801608D01*
X154891328Y-85809197D01*
X154924607Y-85840448D01*
X154943206Y-85850673D01*
X154959466Y-85861354D01*
X154976236Y-85874362D01*
X154988810Y-85879803D01*
X155018129Y-85892491D01*
X155028620Y-85897630D01*
X155068632Y-85919627D01*
X155089196Y-85924906D01*
X155107601Y-85931208D01*
X155127074Y-85939635D01*
X155172171Y-85946777D01*
X155183586Y-85949141D01*
X155227823Y-85960500D01*
X155249045Y-85960500D01*
X155268444Y-85962027D01*
X155270799Y-85962399D01*
X155289405Y-85965347D01*
X155331319Y-85961384D01*
X155334861Y-85961050D01*
X155346530Y-85960500D01*
X155739794Y-85960500D01*
X155800913Y-85976609D01*
X155846152Y-86020751D01*
X155863757Y-86081457D01*
X155849152Y-86142951D01*
X155841873Y-86156568D01*
X155821185Y-86195273D01*
X155763976Y-86383866D01*
X155744659Y-86580000D01*
X155763976Y-86776133D01*
X155821185Y-86964726D01*
X155856075Y-87030000D01*
X155914090Y-87138538D01*
X156039117Y-87290883D01*
X156191462Y-87415910D01*
X156365273Y-87508814D01*
X156553868Y-87566024D01*
X156750000Y-87585341D01*
X156946132Y-87566024D01*
X157134727Y-87508814D01*
X157308538Y-87415910D01*
X157460883Y-87290883D01*
X157585910Y-87138538D01*
X157678814Y-86964727D01*
X157736024Y-86776132D01*
X157755341Y-86580000D01*
X157736024Y-86383868D01*
X157678814Y-86195273D01*
X157651796Y-86144726D01*
X157580153Y-86010690D01*
X157581077Y-86010196D01*
X157562811Y-85973160D01*
X157562811Y-85916840D01*
X157581077Y-85879803D01*
X157580153Y-85879310D01*
X157670912Y-85709510D01*
X157678814Y-85694727D01*
X157736024Y-85506132D01*
X157755341Y-85310000D01*
X157736024Y-85113868D01*
X157678814Y-84925273D01*
X157624422Y-84823512D01*
X157580153Y-84740691D01*
X157581076Y-84740197D01*
X157562810Y-84703154D01*
X157562811Y-84646837D01*
X157581076Y-84609803D01*
X157580153Y-84609310D01*
X157643925Y-84490000D01*
X157678814Y-84424727D01*
X157736024Y-84236132D01*
X157755341Y-84040000D01*
X157736024Y-83843868D01*
X157678814Y-83655273D01*
X157633762Y-83570986D01*
X157580153Y-83470690D01*
X157581076Y-83470196D01*
X157562809Y-83433151D01*
X157562813Y-83376831D01*
X157581077Y-83339804D01*
X157580153Y-83339310D01*
X157643925Y-83220000D01*
X157678814Y-83154727D01*
X157736024Y-82966132D01*
X157755341Y-82770000D01*
X157736024Y-82573868D01*
X157678814Y-82385273D01*
X157677677Y-82383146D01*
X157676564Y-82377859D01*
X157675268Y-82373586D01*
X157675640Y-82373472D01*
X157663392Y-82315294D01*
X157687768Y-82250382D01*
X157693796Y-82242331D01*
X157744091Y-82107483D01*
X157750500Y-82047873D01*
X157750499Y-80952128D01*
X157744091Y-80892517D01*
X157693796Y-80757669D01*
X157607546Y-80642454D01*
X157492331Y-80556204D01*
X157357483Y-80505909D01*
X157297873Y-80499500D01*
X157297869Y-80499500D01*
X156202130Y-80499500D01*
X156142515Y-80505909D01*
X156007669Y-80556204D01*
X155892454Y-80642454D01*
X155806204Y-80757668D01*
X155755909Y-80892516D01*
X155749500Y-80952130D01*
X155749500Y-82047869D01*
X155755909Y-82107484D01*
X155806204Y-82242332D01*
X155812232Y-82250384D01*
X155836607Y-82315292D01*
X155824360Y-82373474D01*
X155824731Y-82373587D01*
X155823442Y-82377834D01*
X155822326Y-82383139D01*
X155821186Y-82385270D01*
X155763976Y-82573866D01*
X155755349Y-82661462D01*
X155744659Y-82770000D01*
X155751088Y-82835273D01*
X155763976Y-82966133D01*
X155799457Y-83083099D01*
X155821186Y-83154727D01*
X155862515Y-83232048D01*
X155877119Y-83293544D01*
X155859514Y-83354249D01*
X155814275Y-83398391D01*
X155753156Y-83414500D01*
X155350453Y-83414500D01*
X155303000Y-83405061D01*
X155262772Y-83378181D01*
X151393331Y-79508740D01*
X151361708Y-79454859D01*
X151360370Y-79392399D01*
X151389656Y-79337213D01*
X151442133Y-79303312D01*
X151504477Y-79299300D01*
X151640415Y-79325500D01*
X152597920Y-79325500D01*
X152597925Y-79325500D01*
X152754718Y-79310528D01*
X152956375Y-79251316D01*
X153143182Y-79155011D01*
X153308386Y-79025092D01*
X153406788Y-78911529D01*
X153455512Y-78877183D01*
X153514635Y-78869542D01*
X153570491Y-78890376D01*
X153610170Y-78934867D01*
X153624500Y-78992734D01*
X153624500Y-79301313D01*
X153616264Y-79345751D01*
X153592652Y-79384282D01*
X153569497Y-79409999D01*
X153517464Y-79467786D01*
X153422820Y-79631715D01*
X153364326Y-79811742D01*
X153344540Y-80000000D01*
X153364326Y-80188257D01*
X153422820Y-80368284D01*
X153517466Y-80532216D01*
X153644129Y-80672889D01*
X153797269Y-80784151D01*
X153970197Y-80861144D01*
X154155352Y-80900500D01*
X154155354Y-80900500D01*
X154344646Y-80900500D01*
X154344648Y-80900500D01*
X154468083Y-80874262D01*
X154529803Y-80861144D01*
X154702730Y-80784151D01*
X154702730Y-80784150D01*
X154855870Y-80672889D01*
X154982533Y-80532216D01*
X155077179Y-80368284D01*
X155100902Y-80295273D01*
X155135674Y-80188256D01*
X155155460Y-80000000D01*
X155135674Y-79811744D01*
X155077179Y-79631716D01*
X155077179Y-79631715D01*
X154982535Y-79467786D01*
X154969427Y-79453229D01*
X154907347Y-79384282D01*
X154883736Y-79345751D01*
X154875500Y-79301313D01*
X154875500Y-78895185D01*
X154890952Y-78835241D01*
X154933457Y-78790236D01*
X154992421Y-78771387D01*
X155053149Y-78783392D01*
X155100507Y-78823258D01*
X155163367Y-78911531D01*
X155190014Y-78948952D01*
X155342122Y-79093986D01*
X155376190Y-79115880D01*
X155518925Y-79207612D01*
X155558080Y-79223287D01*
X155714043Y-79285725D01*
X155842728Y-79310527D01*
X155920414Y-79325500D01*
X155920415Y-79325500D01*
X156677920Y-79325500D01*
X156677925Y-79325500D01*
X156834718Y-79310528D01*
X157036375Y-79251316D01*
X157223182Y-79155011D01*
X157388386Y-79025092D01*
X157526019Y-78866256D01*
X157631104Y-78684244D01*
X157699844Y-78485633D01*
X157729754Y-78277602D01*
X157719754Y-78067670D01*
X157670204Y-77863424D01*
X157653620Y-77827110D01*
X157582897Y-77672247D01*
X157483851Y-77533157D01*
X157460986Y-77501048D01*
X157308878Y-77356014D01*
X157275340Y-77334460D01*
X157132074Y-77242387D01*
X156976109Y-77179949D01*
X156936957Y-77164275D01*
X156936956Y-77164274D01*
X156936954Y-77164274D01*
X156730586Y-77124500D01*
X156730585Y-77124500D01*
X155973075Y-77124500D01*
X155875079Y-77133857D01*
X155816279Y-77139472D01*
X155614626Y-77198683D01*
X155427815Y-77294990D01*
X155262615Y-77424906D01*
X155129171Y-77578908D01*
X155124981Y-77583744D01*
X155106888Y-77615083D01*
X155106887Y-77615084D01*
X155061500Y-77660470D01*
X154999500Y-77677083D01*
X154937500Y-77660470D01*
X154892113Y-77615083D01*
X154875500Y-77553083D01*
X154875500Y-76582744D01*
X154877764Y-76562236D01*
X154875561Y-76492113D01*
X154875500Y-76488219D01*
X154875500Y-76460654D01*
X154875500Y-76460650D01*
X154874997Y-76456670D01*
X154874081Y-76445028D01*
X154872710Y-76401373D01*
X154867118Y-76382126D01*
X154863174Y-76363085D01*
X154860664Y-76343208D01*
X154844579Y-76302583D01*
X154840808Y-76291568D01*
X154828618Y-76249610D01*
X154818414Y-76232355D01*
X154809861Y-76214895D01*
X154806672Y-76206841D01*
X154802486Y-76196268D01*
X154776808Y-76160925D01*
X154770401Y-76151171D01*
X154748170Y-76113580D01*
X154734006Y-76099416D01*
X154721367Y-76084617D01*
X154709595Y-76068413D01*
X154675941Y-76040573D01*
X154667299Y-76032709D01*
X150938960Y-72304369D01*
X150914720Y-72270071D01*
X150903321Y-72229655D01*
X150885674Y-72061744D01*
X150855332Y-71968363D01*
X150827179Y-71881715D01*
X150732533Y-71717783D01*
X150605870Y-71577110D01*
X150452730Y-71465848D01*
X150279802Y-71388855D01*
X150094648Y-71349500D01*
X150094646Y-71349500D01*
X149905354Y-71349500D01*
X149905352Y-71349500D01*
X149720197Y-71388855D01*
X149547269Y-71465848D01*
X149394129Y-71577110D01*
X149267466Y-71717783D01*
X149172820Y-71881715D01*
X149114326Y-72061742D01*
X149094540Y-72250000D01*
X149114326Y-72438257D01*
X149172820Y-72618284D01*
X149267466Y-72782216D01*
X149394129Y-72922889D01*
X149547269Y-73034151D01*
X149720197Y-73111144D01*
X149905352Y-73150500D01*
X149905354Y-73150500D01*
X149964548Y-73150500D01*
X150012001Y-73159939D01*
X150052229Y-73186819D01*
X152828354Y-75962944D01*
X152860373Y-76018255D01*
X152860595Y-76082166D01*
X152828959Y-76137697D01*
X152773870Y-76170099D01*
X152740184Y-76170448D01*
X152740184Y-76174500D01*
X152606148Y-76174500D01*
X152488708Y-76189335D01*
X152341767Y-76247513D01*
X152213913Y-76340405D01*
X152113177Y-76462174D01*
X152045886Y-76605174D01*
X152016272Y-76760414D01*
X152026195Y-76918135D01*
X152040507Y-76962181D01*
X152045049Y-77019897D01*
X152022894Y-77073385D01*
X151978871Y-77110985D01*
X151922576Y-77124500D01*
X151693075Y-77124500D01*
X151595079Y-77133857D01*
X151536279Y-77139472D01*
X151334626Y-77198683D01*
X151147815Y-77294990D01*
X150982615Y-77424906D01*
X150844979Y-77583745D01*
X150739896Y-77765754D01*
X150671155Y-77964366D01*
X150641246Y-78172396D01*
X150651246Y-78382330D01*
X150669679Y-78458311D01*
X150668529Y-78521165D01*
X150636704Y-78575377D01*
X150582382Y-78607015D01*
X150519526Y-78607948D01*
X150464289Y-78577936D01*
X150436774Y-78552097D01*
X150433978Y-78549387D01*
X150414470Y-78529879D01*
X150411290Y-78527412D01*
X150402424Y-78519839D01*
X150370582Y-78489938D01*
X150353024Y-78480285D01*
X150336764Y-78469604D01*
X150320936Y-78457327D01*
X150280851Y-78439980D01*
X150270361Y-78434841D01*
X150232091Y-78413802D01*
X150212691Y-78408821D01*
X150194284Y-78402519D01*
X150175897Y-78394562D01*
X150132758Y-78387729D01*
X150121324Y-78385361D01*
X150079019Y-78374500D01*
X150058984Y-78374500D01*
X150039586Y-78372973D01*
X150032162Y-78371797D01*
X150019805Y-78369840D01*
X150019804Y-78369840D01*
X149986751Y-78372964D01*
X149976325Y-78373950D01*
X149964656Y-78374500D01*
X142703747Y-78374500D01*
X142653312Y-78363780D01*
X142611598Y-78333473D01*
X142605871Y-78327112D01*
X142452730Y-78215849D01*
X142452729Y-78215848D01*
X142452727Y-78215847D01*
X142279802Y-78138855D01*
X142094648Y-78099500D01*
X142094646Y-78099500D01*
X141905354Y-78099500D01*
X141905352Y-78099500D01*
X141720197Y-78138855D01*
X141547269Y-78215848D01*
X141394129Y-78327110D01*
X141267466Y-78467783D01*
X141172820Y-78631715D01*
X141114326Y-78811742D01*
X141093245Y-79012320D01*
X141067637Y-79075700D01*
X141012335Y-79115880D01*
X140944143Y-79120648D01*
X140844648Y-79099500D01*
X140844646Y-79099500D01*
X140655354Y-79099500D01*
X140655352Y-79099500D01*
X140470197Y-79138855D01*
X140297269Y-79215848D01*
X140144129Y-79327110D01*
X140017466Y-79467783D01*
X139922820Y-79631715D01*
X139864326Y-79811742D01*
X139844540Y-80000000D01*
X139250500Y-80000000D01*
X139250500Y-74612230D01*
X139259939Y-74564777D01*
X139286819Y-74524549D01*
X142774549Y-71036819D01*
X142814777Y-71009939D01*
X142862230Y-71000500D01*
X148960663Y-71000500D01*
X148998982Y-71006569D01*
X149033550Y-71024183D01*
X149047271Y-71034152D01*
X149220197Y-71111144D01*
X149405352Y-71150500D01*
X149405354Y-71150500D01*
X149594646Y-71150500D01*
X149594648Y-71150500D01*
X149724481Y-71122903D01*
X149779803Y-71111144D01*
X149952730Y-71034151D01*
X149986055Y-71009939D01*
X150105870Y-70922889D01*
X150136515Y-70888855D01*
X150232533Y-70782216D01*
X150327179Y-70618284D01*
X150385674Y-70438256D01*
X150405460Y-70250000D01*
X150385674Y-70061744D01*
X150338675Y-69917097D01*
X150327179Y-69881715D01*
X150232533Y-69717783D01*
X150105870Y-69577110D01*
X150030565Y-69522398D01*
X150641246Y-69522398D01*
X150651246Y-69732330D01*
X150669874Y-69809117D01*
X150700797Y-69936580D01*
X150788102Y-70127752D01*
X150889821Y-70270595D01*
X150910014Y-70298952D01*
X151062122Y-70443986D01*
X151107217Y-70472967D01*
X151238925Y-70557612D01*
X151278080Y-70573287D01*
X151434043Y-70635725D01*
X151562728Y-70660527D01*
X151640414Y-70675500D01*
X151640415Y-70675500D01*
X151920733Y-70675500D01*
X151973530Y-70687301D01*
X152016277Y-70720460D01*
X152040837Y-70768663D01*
X152042536Y-70822731D01*
X152023604Y-70921978D01*
X152016272Y-70960415D01*
X152026195Y-71118135D01*
X152063017Y-71231462D01*
X152075033Y-71268441D01*
X152151439Y-71388838D01*
X152159715Y-71401878D01*
X152274918Y-71510062D01*
X152413408Y-71586197D01*
X152566480Y-71625500D01*
X152566481Y-71625500D01*
X152684850Y-71625500D01*
X152684852Y-71625500D01*
X152763144Y-71615609D01*
X152802292Y-71610664D01*
X152949232Y-71552486D01*
X153077087Y-71459594D01*
X153177824Y-71337823D01*
X153245114Y-71194826D01*
X153274727Y-71039588D01*
X153272236Y-71000000D01*
X153267385Y-70922888D01*
X153264804Y-70881862D01*
X153215967Y-70731559D01*
X153208923Y-70720460D01*
X153183906Y-70681039D01*
X153155881Y-70636879D01*
X153136931Y-70579794D01*
X153147075Y-70520506D01*
X153183924Y-70472970D01*
X153308386Y-70375092D01*
X153446019Y-70216256D01*
X153551104Y-70034244D01*
X153619844Y-69835633D01*
X153649754Y-69627602D01*
X153644743Y-69522398D01*
X154921246Y-69522398D01*
X154931246Y-69732330D01*
X154949874Y-69809117D01*
X154980797Y-69936580D01*
X155068102Y-70127752D01*
X155169821Y-70270595D01*
X155190014Y-70298952D01*
X155342122Y-70443986D01*
X155387217Y-70472967D01*
X155518925Y-70557612D01*
X155558080Y-70573287D01*
X155714043Y-70635725D01*
X155842728Y-70660527D01*
X155920414Y-70675500D01*
X155920415Y-70675500D01*
X156677920Y-70675500D01*
X156677925Y-70675500D01*
X156834718Y-70660528D01*
X157036375Y-70601316D01*
X157223182Y-70505011D01*
X157388386Y-70375092D01*
X157526019Y-70216256D01*
X157631104Y-70034244D01*
X157699844Y-69835633D01*
X157729754Y-69627602D01*
X157719754Y-69417670D01*
X157670204Y-69213424D01*
X157670202Y-69213419D01*
X157582897Y-69022247D01*
X157460987Y-68851050D01*
X157460986Y-68851048D01*
X157308878Y-68706014D01*
X157276757Y-68685371D01*
X157132074Y-68592387D01*
X156976109Y-68529949D01*
X156936957Y-68514275D01*
X156936956Y-68514274D01*
X156936954Y-68514274D01*
X156730586Y-68474500D01*
X156730585Y-68474500D01*
X155973075Y-68474500D01*
X155875079Y-68483857D01*
X155816279Y-68489472D01*
X155614626Y-68548683D01*
X155427815Y-68644990D01*
X155262615Y-68774906D01*
X155124979Y-68933745D01*
X155019896Y-69115754D01*
X154951155Y-69314366D01*
X154922344Y-69514759D01*
X154921246Y-69522398D01*
X153644743Y-69522398D01*
X153639754Y-69417670D01*
X153590204Y-69213424D01*
X153590202Y-69213419D01*
X153502897Y-69022247D01*
X153380987Y-68851050D01*
X153380986Y-68851048D01*
X153228878Y-68706014D01*
X153196757Y-68685371D01*
X153052074Y-68592387D01*
X152896109Y-68529949D01*
X152856957Y-68514275D01*
X152856956Y-68514274D01*
X152856954Y-68514274D01*
X152650586Y-68474500D01*
X152650585Y-68474500D01*
X151693075Y-68474500D01*
X151595079Y-68483857D01*
X151536279Y-68489472D01*
X151334626Y-68548683D01*
X151147815Y-68644990D01*
X150982615Y-68774906D01*
X150844979Y-68933745D01*
X150739896Y-69115754D01*
X150671155Y-69314366D01*
X150642344Y-69514759D01*
X150641246Y-69522398D01*
X150030565Y-69522398D01*
X149952730Y-69465848D01*
X149779802Y-69388855D01*
X149594648Y-69349500D01*
X149594646Y-69349500D01*
X149405354Y-69349500D01*
X149405352Y-69349500D01*
X149220197Y-69388855D01*
X149047271Y-69465847D01*
X149033550Y-69475817D01*
X148998982Y-69493431D01*
X148960663Y-69499500D01*
X142563706Y-69499500D01*
X142545736Y-69498191D01*
X142531853Y-69496157D01*
X142521977Y-69494711D01*
X142521976Y-69494711D01*
X142472634Y-69499028D01*
X142461827Y-69499500D01*
X142456291Y-69499500D01*
X142425483Y-69503100D01*
X142421900Y-69503466D01*
X142345950Y-69510111D01*
X142326922Y-69514329D01*
X142255270Y-69540407D01*
X142251869Y-69541589D01*
X142179480Y-69565578D01*
X142161927Y-69574076D01*
X142098236Y-69615965D01*
X142095198Y-69617901D01*
X142030277Y-69657947D01*
X142015162Y-69670258D01*
X141962816Y-69725741D01*
X141960305Y-69728326D01*
X141688409Y-70000223D01*
X141688405Y-70000227D01*
X138162181Y-73526450D01*
X138112818Y-73556700D01*
X138055102Y-73561242D01*
X138001615Y-73539087D01*
X137964015Y-73495064D01*
X137950500Y-73438769D01*
X137950500Y-71848953D01*
X137964015Y-71792658D01*
X138001615Y-71748635D01*
X138105870Y-71672889D01*
X138232533Y-71532216D01*
X138327179Y-71368284D01*
X138359620Y-71268441D01*
X138385674Y-71188256D01*
X138405460Y-71000000D01*
X138385674Y-70811744D01*
X138342078Y-70677569D01*
X138327179Y-70631715D01*
X138232533Y-70467783D01*
X138105870Y-70327110D01*
X137952730Y-70215848D01*
X137779802Y-70138855D01*
X137594648Y-70099500D01*
X137594646Y-70099500D01*
X137405354Y-70099500D01*
X137405351Y-70099500D01*
X137389508Y-70102867D01*
X137326647Y-70099901D01*
X137273337Y-70066458D01*
X137243310Y-70011153D01*
X137244299Y-69948229D01*
X137276048Y-69893897D01*
X140419946Y-66749999D01*
X145094540Y-66749999D01*
X145114326Y-66938257D01*
X145172820Y-67118284D01*
X145267466Y-67282216D01*
X145394129Y-67422889D01*
X145547269Y-67534151D01*
X145720197Y-67611144D01*
X145905352Y-67650500D01*
X145905354Y-67650500D01*
X146094646Y-67650500D01*
X146094648Y-67650500D01*
X146218083Y-67624262D01*
X146279803Y-67611144D01*
X146452730Y-67534151D01*
X146605871Y-67422888D01*
X146732533Y-67282216D01*
X146827179Y-67118284D01*
X146885674Y-66938256D01*
X146903321Y-66770344D01*
X146914721Y-66729925D01*
X146938958Y-66695630D01*
X147383786Y-66250802D01*
X147399887Y-66237904D01*
X147401874Y-66235787D01*
X147401877Y-66235786D01*
X147447932Y-66186741D01*
X147450613Y-66183976D01*
X147470120Y-66164470D01*
X147472581Y-66161295D01*
X147480152Y-66152431D01*
X147510062Y-66120582D01*
X147519713Y-66103026D01*
X147530393Y-66086767D01*
X147542674Y-66070936D01*
X147560018Y-66030851D01*
X147565160Y-66020356D01*
X147586197Y-65982092D01*
X147591178Y-65962688D01*
X147597480Y-65944283D01*
X147605438Y-65925895D01*
X147612270Y-65882748D01*
X147614639Y-65871316D01*
X147625500Y-65829020D01*
X147625500Y-65808984D01*
X147627027Y-65789585D01*
X147628194Y-65782216D01*
X147630160Y-65769804D01*
X147626050Y-65726325D01*
X147625500Y-65714656D01*
X147625500Y-62948687D01*
X147633736Y-62904249D01*
X147657347Y-62865717D01*
X147732533Y-62782216D01*
X147827179Y-62618284D01*
X147885674Y-62438256D01*
X147905460Y-62250000D01*
X147885674Y-62061744D01*
X147831407Y-61894727D01*
X147827179Y-61881715D01*
X147732533Y-61717783D01*
X147605870Y-61577110D01*
X147452730Y-61465848D01*
X147279802Y-61388855D01*
X147094648Y-61349500D01*
X147094646Y-61349500D01*
X146905354Y-61349500D01*
X146905352Y-61349500D01*
X146720197Y-61388855D01*
X146547269Y-61465848D01*
X146394129Y-61577110D01*
X146267466Y-61717783D01*
X146172820Y-61881715D01*
X146114326Y-62061742D01*
X146094540Y-62250000D01*
X146114326Y-62438257D01*
X146172820Y-62618284D01*
X146267464Y-62782213D01*
X146267467Y-62782216D01*
X146342652Y-62865717D01*
X146366264Y-62904249D01*
X146374500Y-62948687D01*
X146374500Y-65439548D01*
X146365061Y-65487001D01*
X146338181Y-65527229D01*
X146052228Y-65813181D01*
X146012000Y-65840061D01*
X145964547Y-65849500D01*
X145905352Y-65849500D01*
X145720197Y-65888855D01*
X145547269Y-65965848D01*
X145394129Y-66077110D01*
X145267466Y-66217783D01*
X145172820Y-66381715D01*
X145114326Y-66561742D01*
X145094540Y-66749999D01*
X140419946Y-66749999D01*
X141233126Y-65936819D01*
X141273355Y-65909939D01*
X141320808Y-65900500D01*
X143573025Y-65900500D01*
X143611343Y-65906569D01*
X143645907Y-65924180D01*
X143797270Y-66034151D01*
X143797271Y-66034151D01*
X143797272Y-66034152D01*
X143970197Y-66111144D01*
X144155352Y-66150500D01*
X144155354Y-66150500D01*
X144344646Y-66150500D01*
X144344648Y-66150500D01*
X144485405Y-66120581D01*
X144529803Y-66111144D01*
X144702730Y-66034151D01*
X144721717Y-66020356D01*
X144855870Y-65922889D01*
X144886515Y-65888855D01*
X144982533Y-65782216D01*
X145077179Y-65618284D01*
X145135674Y-65438256D01*
X145155460Y-65250000D01*
X145135674Y-65061744D01*
X145082947Y-64899467D01*
X145077179Y-64881715D01*
X144982533Y-64717783D01*
X144855870Y-64577110D01*
X144702730Y-64465848D01*
X144529802Y-64388855D01*
X144344648Y-64349500D01*
X144344646Y-64349500D01*
X144155354Y-64349500D01*
X144155352Y-64349500D01*
X143970197Y-64388855D01*
X143797272Y-64465847D01*
X143750266Y-64499999D01*
X143645907Y-64575819D01*
X143611343Y-64593431D01*
X143573025Y-64599500D01*
X141085505Y-64599500D01*
X141064295Y-64597158D01*
X140991738Y-64599439D01*
X140987843Y-64599500D01*
X140959071Y-64599500D01*
X140954690Y-64600053D01*
X140943059Y-64600968D01*
X140897428Y-64602402D01*
X140877052Y-64608322D01*
X140858006Y-64612267D01*
X140836939Y-64614928D01*
X140794487Y-64631736D01*
X140783439Y-64635519D01*
X140739600Y-64648256D01*
X140721330Y-64659061D01*
X140703862Y-64667618D01*
X140692463Y-64672132D01*
X140684126Y-64675433D01*
X140647191Y-64702266D01*
X140637435Y-64708675D01*
X140598135Y-64731918D01*
X140583125Y-64746928D01*
X140568336Y-64759558D01*
X140551164Y-64772034D01*
X140522057Y-64807218D01*
X140514196Y-64815856D01*
X136100484Y-69229568D01*
X136083831Y-69242910D01*
X136034133Y-69295833D01*
X136031427Y-69298626D01*
X136011083Y-69318971D01*
X136008376Y-69322460D01*
X136000807Y-69331321D01*
X135969551Y-69364607D01*
X135959322Y-69383212D01*
X135948645Y-69399467D01*
X135935636Y-69416238D01*
X135917506Y-69458132D01*
X135912370Y-69468616D01*
X135890372Y-69508632D01*
X135885091Y-69529199D01*
X135878791Y-69547600D01*
X135870364Y-69567074D01*
X135863223Y-69612161D01*
X135860855Y-69623593D01*
X135850200Y-69665099D01*
X135849500Y-69667824D01*
X135849500Y-69689045D01*
X135847973Y-69708444D01*
X135844653Y-69729403D01*
X135848950Y-69774861D01*
X135849500Y-69786530D01*
X135849500Y-83389192D01*
X135840061Y-83436645D01*
X135813181Y-83476873D01*
X135595390Y-83694663D01*
X135539018Y-83726964D01*
X135474050Y-83726326D01*
X135418323Y-83692924D01*
X135387135Y-83635929D01*
X135389049Y-83570986D01*
X135417598Y-83476873D01*
X135436024Y-83416132D01*
X135455341Y-83220000D01*
X135436024Y-83023868D01*
X135378814Y-82835273D01*
X135343925Y-82770000D01*
X135280153Y-82650690D01*
X135281076Y-82650196D01*
X135262809Y-82613151D01*
X135262813Y-82556831D01*
X135281077Y-82519804D01*
X135280153Y-82519310D01*
X135340972Y-82405525D01*
X135378814Y-82334727D01*
X135436024Y-82146132D01*
X135455341Y-81950000D01*
X135436024Y-81753868D01*
X135378814Y-81565273D01*
X135325671Y-81465849D01*
X135280153Y-81380690D01*
X135281077Y-81380196D01*
X135262811Y-81343160D01*
X135262811Y-81286840D01*
X135281077Y-81249803D01*
X135280153Y-81249310D01*
X135338051Y-81140987D01*
X135378814Y-81064727D01*
X135436024Y-80876132D01*
X135455341Y-80680000D01*
X135436024Y-80483868D01*
X135378814Y-80295273D01*
X135285910Y-80121462D01*
X135280153Y-80110691D01*
X135281076Y-80110197D01*
X135262810Y-80073154D01*
X135262811Y-80016837D01*
X135281076Y-79979803D01*
X135280153Y-79979310D01*
X135369719Y-79811742D01*
X135378814Y-79794727D01*
X135436024Y-79606132D01*
X135455341Y-79410000D01*
X135436024Y-79213868D01*
X135378814Y-79025273D01*
X135378717Y-79025092D01*
X135280153Y-78840690D01*
X135281077Y-78840196D01*
X135262811Y-78803160D01*
X135262811Y-78746840D01*
X135281077Y-78709803D01*
X135280153Y-78709310D01*
X135365633Y-78549387D01*
X135378814Y-78524727D01*
X135436024Y-78336132D01*
X135455341Y-78140000D01*
X135436024Y-77943868D01*
X135378814Y-77755273D01*
X135375904Y-77749829D01*
X135280153Y-77570690D01*
X135281077Y-77570196D01*
X135262811Y-77533160D01*
X135262811Y-77476840D01*
X135281077Y-77439803D01*
X135280153Y-77439310D01*
X135363962Y-77282513D01*
X135378814Y-77254727D01*
X135436024Y-77066132D01*
X135455341Y-76870000D01*
X135436024Y-76673868D01*
X135378814Y-76485273D01*
X135357303Y-76445028D01*
X135280153Y-76300691D01*
X135281076Y-76300197D01*
X135262810Y-76263154D01*
X135262811Y-76206837D01*
X135281076Y-76169803D01*
X135280153Y-76169310D01*
X135360893Y-76018255D01*
X135378814Y-75984727D01*
X135436024Y-75796132D01*
X135455341Y-75600000D01*
X135436024Y-75403868D01*
X135378814Y-75215273D01*
X135280153Y-75030690D01*
X135281077Y-75030196D01*
X135262811Y-74993160D01*
X135262811Y-74936840D01*
X135281077Y-74899803D01*
X135280153Y-74899310D01*
X135338051Y-74790987D01*
X135378814Y-74714727D01*
X135436024Y-74526132D01*
X135455341Y-74330000D01*
X135436024Y-74133868D01*
X135378814Y-73945273D01*
X135280153Y-73760690D01*
X135281077Y-73760196D01*
X135262811Y-73723160D01*
X135262811Y-73666840D01*
X135281077Y-73629803D01*
X135280153Y-73629310D01*
X135351908Y-73495064D01*
X135378814Y-73444727D01*
X135436024Y-73256132D01*
X135455341Y-73060000D01*
X135436024Y-72863868D01*
X135378814Y-72675273D01*
X135348343Y-72618266D01*
X135280153Y-72490690D01*
X135281077Y-72490196D01*
X135262811Y-72453160D01*
X135262811Y-72396840D01*
X135281077Y-72359803D01*
X135280153Y-72359310D01*
X135338580Y-72250000D01*
X135378814Y-72174727D01*
X135436024Y-71986132D01*
X135455341Y-71790000D01*
X135436024Y-71593868D01*
X135378814Y-71405273D01*
X135285910Y-71231462D01*
X135280153Y-71220691D01*
X135281076Y-71220197D01*
X135262810Y-71183154D01*
X135262811Y-71126837D01*
X135281076Y-71089803D01*
X135280153Y-71089310D01*
X135341042Y-70975393D01*
X135378814Y-70904727D01*
X135436024Y-70716132D01*
X135455341Y-70520000D01*
X135436024Y-70323868D01*
X135378814Y-70135273D01*
X135377416Y-70132659D01*
X135376048Y-70126157D01*
X135375268Y-70123586D01*
X135375492Y-70123517D01*
X135363132Y-70064806D01*
X135387511Y-69999891D01*
X135393353Y-69992086D01*
X135443597Y-69857377D01*
X135450000Y-69797824D01*
X135450000Y-69500000D01*
X134324000Y-69500000D01*
X134262000Y-69483387D01*
X134216613Y-69438000D01*
X134200000Y-69376000D01*
X134200000Y-68250000D01*
X134700000Y-68250000D01*
X134700000Y-69000000D01*
X135450000Y-69000000D01*
X135450000Y-68702176D01*
X135443597Y-68642624D01*
X135393352Y-68507910D01*
X135307188Y-68392811D01*
X135192089Y-68306647D01*
X135057375Y-68256402D01*
X134997824Y-68250000D01*
X134700000Y-68250000D01*
X134200000Y-68250000D01*
X133902176Y-68250000D01*
X133842620Y-68256402D01*
X133817832Y-68265648D01*
X133759046Y-68272499D01*
X133703779Y-68251322D01*
X133664624Y-68206941D01*
X133650500Y-68149466D01*
X133650500Y-68055732D01*
X133663050Y-68001374D01*
X133698158Y-67958018D01*
X133748719Y-67934442D01*
X133813837Y-67920600D01*
X133834803Y-67916144D01*
X134007730Y-67839151D01*
X134083431Y-67784151D01*
X134160870Y-67727889D01*
X134287533Y-67587216D01*
X134382179Y-67423284D01*
X134398412Y-67373323D01*
X134440674Y-67243256D01*
X134460460Y-67055000D01*
X134440674Y-66866744D01*
X134395236Y-66726902D01*
X134382179Y-66686715D01*
X134327755Y-66592450D01*
X134311260Y-66535859D01*
X134322760Y-66478045D01*
X134359656Y-66432074D01*
X134413610Y-66408334D01*
X134472430Y-66412189D01*
X134522823Y-66442769D01*
X135065191Y-66985137D01*
X135089431Y-67019434D01*
X135100831Y-67059856D01*
X135114326Y-67188257D01*
X135172820Y-67368284D01*
X135267466Y-67532216D01*
X135394129Y-67672889D01*
X135547269Y-67784151D01*
X135720197Y-67861144D01*
X135905352Y-67900500D01*
X135905354Y-67900500D01*
X136094646Y-67900500D01*
X136094648Y-67900500D01*
X136218084Y-67874262D01*
X136279803Y-67861144D01*
X136452730Y-67784151D01*
X136485971Y-67760000D01*
X136605870Y-67672889D01*
X136732533Y-67532216D01*
X136827179Y-67368284D01*
X136844860Y-67313868D01*
X136885674Y-67188256D01*
X136905460Y-67000000D01*
X136885674Y-66811744D01*
X136847945Y-66695627D01*
X136827179Y-66631715D01*
X136732533Y-66467783D01*
X136605870Y-66327110D01*
X136452730Y-66215848D01*
X136279802Y-66138855D01*
X136094648Y-66099500D01*
X136094646Y-66099500D01*
X136070808Y-66099500D01*
X136023355Y-66090061D01*
X135983127Y-66063181D01*
X134020434Y-64100488D01*
X134007091Y-64083833D01*
X133954166Y-64034134D01*
X133951369Y-64031423D01*
X133931034Y-64011088D01*
X133927547Y-64008383D01*
X133918671Y-64000801D01*
X133885394Y-63969552D01*
X133866793Y-63959326D01*
X133850532Y-63948645D01*
X133833764Y-63935638D01*
X133791870Y-63917508D01*
X133781379Y-63912369D01*
X133741367Y-63890372D01*
X133720800Y-63885091D01*
X133702398Y-63878791D01*
X133682924Y-63870364D01*
X133637837Y-63863223D01*
X133626398Y-63860854D01*
X133582178Y-63849500D01*
X133582177Y-63849500D01*
X133560955Y-63849500D01*
X133541556Y-63847973D01*
X133520596Y-63844653D01*
X133520595Y-63844653D01*
X133498558Y-63846736D01*
X133475139Y-63848950D01*
X133463470Y-63849500D01*
X130874000Y-63849500D01*
X130812000Y-63832887D01*
X130766613Y-63787500D01*
X130750000Y-63725500D01*
X130750000Y-58010000D01*
X112750000Y-58010000D01*
X112750000Y-63960000D01*
X129070691Y-63960000D01*
X129126986Y-63973515D01*
X129171009Y-64011115D01*
X129193164Y-64064602D01*
X129188622Y-64122318D01*
X129158372Y-64171681D01*
X128600484Y-64729568D01*
X128583831Y-64742910D01*
X128534133Y-64795833D01*
X128531427Y-64798626D01*
X128511083Y-64818971D01*
X128508376Y-64822460D01*
X128500807Y-64831321D01*
X128469551Y-64864607D01*
X128459322Y-64883212D01*
X128448645Y-64899467D01*
X128435636Y-64916238D01*
X128417506Y-64958132D01*
X128412370Y-64968616D01*
X128390372Y-65008632D01*
X128385091Y-65029199D01*
X128378791Y-65047600D01*
X128370364Y-65067074D01*
X128363223Y-65112161D01*
X128360855Y-65123598D01*
X128349500Y-65167824D01*
X128349500Y-65189045D01*
X128347973Y-65208444D01*
X128344653Y-65229403D01*
X128348950Y-65274861D01*
X128349500Y-65286530D01*
X128349500Y-69929192D01*
X128340061Y-69976645D01*
X128313181Y-70016873D01*
X114266873Y-84063181D01*
X114226645Y-84090061D01*
X114179192Y-84099500D01*
X114155352Y-84099500D01*
X113970197Y-84138855D01*
X113797269Y-84215848D01*
X113644129Y-84327110D01*
X113526681Y-84457550D01*
X113470785Y-84493160D01*
X113404533Y-84494895D01*
X113346850Y-84462259D01*
X112188960Y-83304369D01*
X112164720Y-83270071D01*
X112153321Y-83229655D01*
X112135674Y-83061744D01*
X112077179Y-82881716D01*
X112077179Y-82881715D01*
X112036928Y-82811999D01*
X112020315Y-82749999D01*
X112036927Y-82688000D01*
X112077179Y-82618284D01*
X112135674Y-82438256D01*
X112155460Y-82250000D01*
X112135674Y-82061744D01*
X112077179Y-81881716D01*
X112077179Y-81881715D01*
X111982533Y-81717783D01*
X111855870Y-81577110D01*
X111702730Y-81465848D01*
X111529802Y-81388855D01*
X111344648Y-81349500D01*
X111344646Y-81349500D01*
X111155354Y-81349500D01*
X111155352Y-81349500D01*
X110970197Y-81388855D01*
X110797269Y-81465848D01*
X110644129Y-81577110D01*
X110517465Y-81717785D01*
X110422821Y-81881714D01*
X110402720Y-81943577D01*
X110372471Y-81992937D01*
X110261055Y-82104353D01*
X110209369Y-82135333D01*
X110149183Y-82138289D01*
X110094709Y-82112525D01*
X110058813Y-82064124D01*
X110049971Y-82004519D01*
X110055341Y-81950000D01*
X110036024Y-81753868D01*
X109978814Y-81565273D01*
X109925671Y-81465849D01*
X109880153Y-81380690D01*
X109881077Y-81380196D01*
X109862811Y-81343160D01*
X109862811Y-81286840D01*
X109881077Y-81249803D01*
X109880153Y-81249310D01*
X109938051Y-81140987D01*
X109978814Y-81064727D01*
X110036024Y-80876132D01*
X110055341Y-80680000D01*
X110036024Y-80483868D01*
X109978814Y-80295273D01*
X109885910Y-80121462D01*
X109880153Y-80110691D01*
X109881076Y-80110197D01*
X109862810Y-80073154D01*
X109862811Y-80016837D01*
X109881076Y-79979803D01*
X109880153Y-79979310D01*
X109969719Y-79811742D01*
X109978814Y-79794727D01*
X110036024Y-79606132D01*
X110055341Y-79410000D01*
X110036024Y-79213868D01*
X109978814Y-79025273D01*
X109978717Y-79025092D01*
X109880153Y-78840690D01*
X109881077Y-78840196D01*
X109862811Y-78803160D01*
X109862811Y-78746840D01*
X109881077Y-78709803D01*
X109880153Y-78709310D01*
X109965633Y-78549387D01*
X109978814Y-78524727D01*
X110036024Y-78336132D01*
X110055341Y-78140000D01*
X110036024Y-77943868D01*
X109978814Y-77755273D01*
X109975904Y-77749829D01*
X109880153Y-77570690D01*
X109881077Y-77570196D01*
X109862811Y-77533160D01*
X109862811Y-77476840D01*
X109881077Y-77439803D01*
X109880153Y-77439310D01*
X109963962Y-77282513D01*
X109978814Y-77254727D01*
X110036024Y-77066132D01*
X110055341Y-76870000D01*
X110036024Y-76673868D01*
X109978814Y-76485273D01*
X109957303Y-76445028D01*
X109880153Y-76300691D01*
X109881076Y-76300197D01*
X109862810Y-76263154D01*
X109862811Y-76206837D01*
X109881076Y-76169803D01*
X109880153Y-76169310D01*
X109960893Y-76018255D01*
X109978814Y-75984727D01*
X110036024Y-75796132D01*
X110055341Y-75600000D01*
X110036024Y-75403868D01*
X109978814Y-75215273D01*
X109880153Y-75030690D01*
X109881077Y-75030196D01*
X109862811Y-74993160D01*
X109862811Y-74936840D01*
X109881077Y-74899803D01*
X109880153Y-74899310D01*
X109938051Y-74790987D01*
X109978814Y-74714727D01*
X110036024Y-74526132D01*
X110055341Y-74330000D01*
X110036024Y-74133868D01*
X109978814Y-73945273D01*
X109880153Y-73760690D01*
X109881077Y-73760196D01*
X109862811Y-73723160D01*
X109862811Y-73666840D01*
X109881077Y-73629803D01*
X109880153Y-73629310D01*
X109951908Y-73495064D01*
X109978814Y-73444727D01*
X110036024Y-73256132D01*
X110055341Y-73060000D01*
X110036024Y-72863868D01*
X109978814Y-72675273D01*
X109948343Y-72618266D01*
X109880153Y-72490690D01*
X109881077Y-72490196D01*
X109862811Y-72453160D01*
X109862811Y-72396840D01*
X109881077Y-72359803D01*
X109880153Y-72359310D01*
X109938580Y-72250000D01*
X109978814Y-72174727D01*
X110036024Y-71986132D01*
X110055341Y-71790000D01*
X110053432Y-71770623D01*
X110060083Y-71716698D01*
X110089152Y-71670792D01*
X110649513Y-71110431D01*
X110666162Y-71097094D01*
X110667936Y-71095204D01*
X110667940Y-71095202D01*
X110715898Y-71044130D01*
X110718546Y-71041398D01*
X110738911Y-71021035D01*
X110741611Y-71017552D01*
X110749187Y-71008681D01*
X110780448Y-70975393D01*
X110790675Y-70956787D01*
X110801348Y-70940539D01*
X110814362Y-70923764D01*
X110832495Y-70881857D01*
X110837625Y-70871387D01*
X110859627Y-70831368D01*
X110864903Y-70810813D01*
X110871206Y-70792402D01*
X110879635Y-70772927D01*
X110886777Y-70727825D01*
X110889140Y-70716418D01*
X110900500Y-70672177D01*
X110900500Y-70650949D01*
X110902027Y-70631550D01*
X110904128Y-70618284D01*
X110905346Y-70610595D01*
X110901050Y-70565148D01*
X110900500Y-70553479D01*
X110900500Y-67420922D01*
X110908736Y-67376484D01*
X110932348Y-67337951D01*
X110982533Y-67282216D01*
X110995360Y-67260000D01*
X111077179Y-67118284D01*
X111077178Y-67118284D01*
X111135674Y-66938256D01*
X111155460Y-66750000D01*
X111135674Y-66561744D01*
X111099378Y-66450037D01*
X111077179Y-66381715D01*
X110982533Y-66217783D01*
X110855870Y-66077110D01*
X110702730Y-65965848D01*
X110529802Y-65888855D01*
X110344648Y-65849500D01*
X110344646Y-65849500D01*
X110155354Y-65849500D01*
X110155352Y-65849500D01*
X109970197Y-65888855D01*
X109797269Y-65965848D01*
X109644129Y-66077110D01*
X109517466Y-66217783D01*
X109422820Y-66381715D01*
X109364326Y-66561742D01*
X109344540Y-66749999D01*
X109364326Y-66938257D01*
X109422820Y-67118284D01*
X109517464Y-67282213D01*
X109517467Y-67282216D01*
X109567651Y-67337951D01*
X109591264Y-67376484D01*
X109599500Y-67420922D01*
X109599500Y-68125500D01*
X109582887Y-68187500D01*
X109537500Y-68232887D01*
X109475500Y-68249500D01*
X108502130Y-68249500D01*
X108442515Y-68255909D01*
X108307669Y-68306204D01*
X108192454Y-68392454D01*
X108106204Y-68507668D01*
X108055909Y-68642516D01*
X108049500Y-68702130D01*
X108049500Y-69797869D01*
X108055909Y-69857484D01*
X108106204Y-69992332D01*
X108112232Y-70000384D01*
X108136607Y-70065292D01*
X108124360Y-70123474D01*
X108124731Y-70123587D01*
X108123442Y-70127834D01*
X108122326Y-70133139D01*
X108121186Y-70135270D01*
X108063976Y-70323866D01*
X108044659Y-70520000D01*
X108063976Y-70716133D01*
X108121185Y-70904726D01*
X108219847Y-71089309D01*
X108218923Y-71089802D01*
X108237190Y-71126843D01*
X108237190Y-71183157D01*
X108218923Y-71220197D01*
X108219847Y-71220691D01*
X108121185Y-71405273D01*
X108063976Y-71593866D01*
X108044659Y-71790000D01*
X108063976Y-71986133D01*
X108121185Y-72174726D01*
X108219847Y-72359309D01*
X108218923Y-72359802D01*
X108237190Y-72396843D01*
X108237190Y-72453157D01*
X108218923Y-72490197D01*
X108219847Y-72490691D01*
X108121185Y-72675273D01*
X108063976Y-72863866D01*
X108044659Y-73060000D01*
X108063976Y-73256133D01*
X108121185Y-73444726D01*
X108219847Y-73629309D01*
X108218923Y-73629802D01*
X108237190Y-73666843D01*
X108237190Y-73723157D01*
X108218923Y-73760197D01*
X108219847Y-73760691D01*
X108121185Y-73945273D01*
X108063976Y-74133866D01*
X108044659Y-74329999D01*
X108063976Y-74526133D01*
X108121185Y-74714726D01*
X108219847Y-74899309D01*
X108218923Y-74899802D01*
X108237188Y-74936834D01*
X108237192Y-74993148D01*
X108218924Y-75030197D01*
X108219847Y-75030691D01*
X108121185Y-75215273D01*
X108063976Y-75403866D01*
X108044659Y-75599999D01*
X108063976Y-75796133D01*
X108121185Y-75984726D01*
X108219847Y-76169310D01*
X108218923Y-76169803D01*
X108237188Y-76206841D01*
X108237190Y-76263151D01*
X108218923Y-76300197D01*
X108219847Y-76300691D01*
X108121185Y-76485273D01*
X108063976Y-76673866D01*
X108044659Y-76869999D01*
X108063976Y-77066133D01*
X108121185Y-77254726D01*
X108219847Y-77439309D01*
X108218923Y-77439802D01*
X108237190Y-77476843D01*
X108237190Y-77533157D01*
X108218923Y-77570197D01*
X108219847Y-77570691D01*
X108121185Y-77755273D01*
X108063976Y-77943866D01*
X108044659Y-78140000D01*
X108063976Y-78336133D01*
X108121185Y-78524726D01*
X108219847Y-78709310D01*
X108218923Y-78709803D01*
X108237188Y-78746841D01*
X108237190Y-78803151D01*
X108218923Y-78840197D01*
X108219847Y-78840691D01*
X108121185Y-79025273D01*
X108063976Y-79213866D01*
X108044659Y-79409999D01*
X108063976Y-79606133D01*
X108121185Y-79794726D01*
X108219847Y-79979309D01*
X108218923Y-79979802D01*
X108237190Y-80016843D01*
X108237190Y-80073157D01*
X108218923Y-80110197D01*
X108219847Y-80110691D01*
X108121185Y-80295273D01*
X108063976Y-80483866D01*
X108044659Y-80680000D01*
X108063976Y-80876133D01*
X108121185Y-81064726D01*
X108219847Y-81249309D01*
X108218923Y-81249802D01*
X108237190Y-81286843D01*
X108237190Y-81343157D01*
X108218923Y-81380197D01*
X108219847Y-81380691D01*
X108121185Y-81565273D01*
X108063976Y-81753866D01*
X108044659Y-81950000D01*
X108063976Y-82146133D01*
X108121185Y-82334726D01*
X108219847Y-82519309D01*
X108218923Y-82519802D01*
X108237190Y-82556843D01*
X108237190Y-82613157D01*
X108218923Y-82650197D01*
X108219847Y-82650691D01*
X108121185Y-82835273D01*
X108063976Y-83023866D01*
X108044659Y-83220000D01*
X108063976Y-83416133D01*
X108121185Y-83604726D01*
X108219847Y-83789309D01*
X108218923Y-83789802D01*
X108237190Y-83826843D01*
X108237190Y-83883157D01*
X108218923Y-83920197D01*
X108219847Y-83920691D01*
X108121185Y-84105273D01*
X108063976Y-84293866D01*
X108044659Y-84490000D01*
X108063976Y-84686133D01*
X108121185Y-84874726D01*
X108219847Y-85059310D01*
X108218923Y-85059803D01*
X108237188Y-85096841D01*
X108237190Y-85153151D01*
X108218923Y-85190197D01*
X108219847Y-85190691D01*
X108121185Y-85375273D01*
X108063976Y-85563866D01*
X108046567Y-85740628D01*
X108044659Y-85760000D01*
X108049110Y-85805195D01*
X108063976Y-85956133D01*
X108121185Y-86144726D01*
X108219847Y-86329309D01*
X108218923Y-86329802D01*
X108237190Y-86366843D01*
X108237190Y-86423157D01*
X108218923Y-86460197D01*
X108219847Y-86460691D01*
X108121185Y-86645273D01*
X108063976Y-86833866D01*
X108044659Y-87029999D01*
X108063976Y-87226133D01*
X108121185Y-87414726D01*
X108219847Y-87599310D01*
X108218923Y-87599803D01*
X108237188Y-87636841D01*
X108237190Y-87693151D01*
X108218923Y-87730197D01*
X108219847Y-87730691D01*
X108121185Y-87915273D01*
X108063976Y-88103866D01*
X108044659Y-88300000D01*
X108063976Y-88496133D01*
X108121185Y-88684726D01*
X108219847Y-88869310D01*
X108218923Y-88869803D01*
X108237188Y-88906841D01*
X108237190Y-88963151D01*
X108218923Y-89000197D01*
X108219847Y-89000691D01*
X108121185Y-89185273D01*
X108063976Y-89373866D01*
X108044659Y-89570000D01*
X108063976Y-89766133D01*
X108121185Y-89954726D01*
X108219847Y-90139310D01*
X108218923Y-90139803D01*
X108237188Y-90176841D01*
X108237190Y-90233151D01*
X108218923Y-90270197D01*
X108219847Y-90270691D01*
X108121185Y-90455273D01*
X108063976Y-90643866D01*
X108044659Y-90839999D01*
X108063976Y-91036133D01*
X108121185Y-91224726D01*
X108219847Y-91409309D01*
X108218923Y-91409802D01*
X108237188Y-91446834D01*
X108237192Y-91503148D01*
X108218924Y-91540197D01*
X108219847Y-91540691D01*
X108121185Y-91725273D01*
X108063976Y-91913866D01*
X108044659Y-92110000D01*
X108063976Y-92306133D01*
X108121185Y-92494726D01*
X108219847Y-92679309D01*
X108218923Y-92679802D01*
X108237190Y-92716843D01*
X108237190Y-92773157D01*
X108218923Y-92810197D01*
X108219847Y-92810691D01*
X108121185Y-92995273D01*
X108063976Y-93183866D01*
X108044659Y-93380000D01*
X108063976Y-93576133D01*
X108121185Y-93764726D01*
X108219847Y-93949309D01*
X108218923Y-93949802D01*
X108237190Y-93986843D01*
X108237190Y-94043157D01*
X108218923Y-94080197D01*
X108219847Y-94080691D01*
X108121185Y-94265273D01*
X108063976Y-94453866D01*
X108044659Y-94650000D01*
X108063976Y-94846133D01*
X108121185Y-95034726D01*
X108219847Y-95219309D01*
X108218923Y-95219802D01*
X108237188Y-95256834D01*
X108237192Y-95313148D01*
X108218924Y-95350197D01*
X108219847Y-95350691D01*
X108121185Y-95535273D01*
X108063976Y-95723866D01*
X108044659Y-95920000D01*
X107000500Y-95920000D01*
X107000500Y-72284322D01*
X107017113Y-72222322D01*
X107077179Y-72118284D01*
X107095551Y-72061742D01*
X107135674Y-71938256D01*
X107155460Y-71750000D01*
X107135674Y-71561744D01*
X107077179Y-71381716D01*
X107077179Y-71381715D01*
X106982533Y-71217783D01*
X106855870Y-71077110D01*
X106702730Y-70965848D01*
X106529802Y-70888855D01*
X106344648Y-70849500D01*
X106344646Y-70849500D01*
X106155354Y-70849500D01*
X106155352Y-70849500D01*
X105970197Y-70888855D01*
X105797269Y-70965848D01*
X105644129Y-71077110D01*
X105517466Y-71217783D01*
X105422820Y-71381715D01*
X105364326Y-71561742D01*
X105344540Y-71750000D01*
X105364326Y-71938257D01*
X105422820Y-72118284D01*
X105482887Y-72222322D01*
X105499500Y-72284322D01*
X105499500Y-77545728D01*
X105484473Y-77604896D01*
X105443035Y-77649723D01*
X105385229Y-77669346D01*
X105325064Y-77659008D01*
X105279803Y-77638856D01*
X105279802Y-77638855D01*
X105279798Y-77638854D01*
X105094648Y-77599500D01*
X105094646Y-77599500D01*
X104905354Y-77599500D01*
X104905352Y-77599500D01*
X104720197Y-77638855D01*
X104547269Y-77715848D01*
X104394129Y-77827110D01*
X104267466Y-77967783D01*
X104172820Y-78131715D01*
X104114326Y-78311742D01*
X104094540Y-78500000D01*
X90300500Y-78500000D01*
X90300500Y-67509999D01*
X97474659Y-67509999D01*
X97493976Y-67706133D01*
X97551185Y-67894726D01*
X97585016Y-67958018D01*
X97644090Y-68068538D01*
X97769117Y-68220883D01*
X97921462Y-68345910D01*
X98095273Y-68438814D01*
X98283868Y-68496024D01*
X98480000Y-68515341D01*
X98676132Y-68496024D01*
X98864727Y-68438814D01*
X98867337Y-68437418D01*
X98873832Y-68436051D01*
X98876414Y-68435268D01*
X98876482Y-68435493D01*
X98935190Y-68423132D01*
X99000106Y-68447510D01*
X99007910Y-68453352D01*
X99142622Y-68503597D01*
X99202176Y-68510000D01*
X99500000Y-68510000D01*
X99500000Y-67760000D01*
X100000000Y-67760000D01*
X100000000Y-68510000D01*
X100297824Y-68510000D01*
X100357375Y-68503597D01*
X100492089Y-68453352D01*
X100607188Y-68367188D01*
X100693352Y-68252089D01*
X100743597Y-68117375D01*
X100750000Y-68057824D01*
X100750000Y-67760000D01*
X100000000Y-67760000D01*
X99500000Y-67760000D01*
X99500000Y-66510000D01*
X100000000Y-66510000D01*
X100000000Y-67260000D01*
X100750000Y-67260000D01*
X100750000Y-66962176D01*
X100743597Y-66902624D01*
X100693352Y-66767910D01*
X100607188Y-66652811D01*
X100492089Y-66566647D01*
X100357375Y-66516402D01*
X100297824Y-66510000D01*
X100000000Y-66510000D01*
X99500000Y-66510000D01*
X99202176Y-66510000D01*
X99142624Y-66516402D01*
X99007908Y-66566648D01*
X99000098Y-66572495D01*
X98935188Y-66596867D01*
X98876480Y-66584507D01*
X98876413Y-66584731D01*
X98873848Y-66583953D01*
X98867341Y-66582583D01*
X98864727Y-66581186D01*
X98676133Y-66523976D01*
X98480000Y-66504659D01*
X98283866Y-66523976D01*
X98095273Y-66581185D01*
X97921463Y-66674089D01*
X97769117Y-66799117D01*
X97644089Y-66951463D01*
X97551185Y-67125273D01*
X97493976Y-67313866D01*
X97474659Y-67509999D01*
X90300500Y-67509999D01*
X90300500Y-61510000D01*
X97724659Y-61510000D01*
X97743976Y-61706133D01*
X97801185Y-61894726D01*
X97894089Y-62068537D01*
X97934169Y-62117375D01*
X98019117Y-62220883D01*
X98037385Y-62235875D01*
X98069967Y-62276954D01*
X98076950Y-62304947D01*
X98078033Y-62304633D01*
X98088323Y-62340052D01*
X98092268Y-62359104D01*
X98094928Y-62380165D01*
X98111737Y-62422621D01*
X98115520Y-62433669D01*
X98128256Y-62477506D01*
X98139061Y-62495776D01*
X98147621Y-62513249D01*
X98155431Y-62532975D01*
X98182267Y-62569914D01*
X98188673Y-62579666D01*
X98211919Y-62618971D01*
X98211921Y-62618972D01*
X98211921Y-62618973D01*
X98226925Y-62633977D01*
X98239564Y-62648775D01*
X98252037Y-62665943D01*
X98287212Y-62695042D01*
X98295854Y-62702906D01*
X102563181Y-66970233D01*
X102590061Y-67010461D01*
X102599500Y-67057914D01*
X102599500Y-70079078D01*
X102591264Y-70123516D01*
X102567651Y-70162048D01*
X102560594Y-70169887D01*
X102517464Y-70217786D01*
X102422820Y-70381715D01*
X102364326Y-70561742D01*
X102348099Y-70716133D01*
X102344540Y-70750000D01*
X102350339Y-70805174D01*
X102364326Y-70938257D01*
X102422820Y-71118284D01*
X102517466Y-71282216D01*
X102644129Y-71422889D01*
X102797269Y-71534151D01*
X102970197Y-71611144D01*
X103155352Y-71650500D01*
X103155354Y-71650500D01*
X103344646Y-71650500D01*
X103344648Y-71650500D01*
X103468084Y-71624262D01*
X103529803Y-71611144D01*
X103702730Y-71534151D01*
X103796740Y-71465849D01*
X103855870Y-71422889D01*
X103874789Y-71401878D01*
X103982533Y-71282216D01*
X104077179Y-71118284D01*
X104135674Y-70938256D01*
X104155460Y-70750000D01*
X104135674Y-70561744D01*
X104097412Y-70443986D01*
X104077179Y-70381715D01*
X103982535Y-70217786D01*
X103939406Y-70169887D01*
X103932348Y-70162048D01*
X103908736Y-70123516D01*
X103900500Y-70079078D01*
X103900500Y-66822610D01*
X103902841Y-66801400D01*
X103900561Y-66728843D01*
X103900500Y-66724948D01*
X103900500Y-66696187D01*
X103900500Y-66696181D01*
X103899946Y-66691801D01*
X103899030Y-66680160D01*
X103897597Y-66634536D01*
X103891675Y-66614153D01*
X103887732Y-66595116D01*
X103885071Y-66574048D01*
X103868266Y-66531604D01*
X103864481Y-66520550D01*
X103859864Y-66504659D01*
X103851744Y-66476707D01*
X103840934Y-66458428D01*
X103832380Y-66440968D01*
X103824568Y-66421235D01*
X103797723Y-66384286D01*
X103791332Y-66374557D01*
X103768081Y-66335241D01*
X103753068Y-66320228D01*
X103740435Y-66305436D01*
X103727963Y-66288269D01*
X103692779Y-66259162D01*
X103684140Y-66251300D01*
X100154521Y-62721681D01*
X100124271Y-62672318D01*
X100119729Y-62614602D01*
X100141884Y-62561115D01*
X100185907Y-62523515D01*
X100242202Y-62510000D01*
X100547824Y-62510000D01*
X100607375Y-62503597D01*
X100742089Y-62453352D01*
X100857188Y-62367188D01*
X100943352Y-62252089D01*
X100993597Y-62117375D01*
X101000000Y-62057824D01*
X101000000Y-61760000D01*
X99874000Y-61760000D01*
X99812000Y-61743387D01*
X99766613Y-61698000D01*
X99750000Y-61636000D01*
X99750000Y-60510000D01*
X100250000Y-60510000D01*
X100250000Y-61260000D01*
X101000000Y-61260000D01*
X101000000Y-60962176D01*
X100993597Y-60902624D01*
X100943352Y-60767910D01*
X100857188Y-60652811D01*
X100742089Y-60566647D01*
X100607375Y-60516402D01*
X100547824Y-60510000D01*
X100250000Y-60510000D01*
X99750000Y-60510000D01*
X99452176Y-60510000D01*
X99392624Y-60516402D01*
X99257908Y-60566648D01*
X99250098Y-60572495D01*
X99185188Y-60596867D01*
X99126480Y-60584507D01*
X99126413Y-60584731D01*
X99123848Y-60583953D01*
X99117341Y-60582583D01*
X99114727Y-60581186D01*
X98926133Y-60523976D01*
X98730000Y-60504659D01*
X98533866Y-60523976D01*
X98345273Y-60581185D01*
X98171463Y-60674089D01*
X98019117Y-60799117D01*
X97894089Y-60951463D01*
X97801185Y-61125273D01*
X97743976Y-61313866D01*
X97724659Y-61510000D01*
X90300500Y-61510000D01*
X90300500Y-55424500D01*
X90317113Y-55362500D01*
X90362500Y-55317113D01*
X90424500Y-55300500D01*
X105480191Y-55300500D01*
X105536486Y-55314015D01*
G37*
%TD.AperFunction*%
%TD*%
M02*
