%TF.GenerationSoftware,KiCad,Pcbnew,7.0.1*%
%TF.CreationDate,2023-08-30T08:57:10+02:00*%
%TF.ProjectId,LAS_V1,4c41535f-5631-42e6-9b69-6361645f7063,rev?*%
%TF.SameCoordinates,Original*%
%TF.FileFunction,Paste,Top*%
%TF.FilePolarity,Positive*%
%FSLAX46Y46*%
G04 Gerber Fmt 4.6, Leading zero omitted, Abs format (unit mm)*
G04 Created by KiCad (PCBNEW 7.0.1) date 2023-08-30 08:57:10*
%MOMM*%
%LPD*%
G01*
G04 APERTURE LIST*
G04 Aperture macros list*
%AMRoundRect*
0 Rectangle with rounded corners*
0 $1 Rounding radius*
0 $2 $3 $4 $5 $6 $7 $8 $9 X,Y pos of 4 corners*
0 Add a 4 corners polygon primitive as box body*
4,1,4,$2,$3,$4,$5,$6,$7,$8,$9,$2,$3,0*
0 Add four circle primitives for the rounded corners*
1,1,$1+$1,$2,$3*
1,1,$1+$1,$4,$5*
1,1,$1+$1,$6,$7*
1,1,$1+$1,$8,$9*
0 Add four rect primitives between the rounded corners*
20,1,$1+$1,$2,$3,$4,$5,0*
20,1,$1+$1,$4,$5,$6,$7,0*
20,1,$1+$1,$6,$7,$8,$9,0*
20,1,$1+$1,$8,$9,$2,$3,0*%
G04 Aperture macros list end*
%ADD10O,2.000000X1.200000*%
%ADD11O,1.800000X1.200000*%
%ADD12R,1.300000X0.300000*%
%ADD13RoundRect,0.250000X-0.625000X0.312500X-0.625000X-0.312500X0.625000X-0.312500X0.625000X0.312500X0*%
%ADD14RoundRect,0.200000X-0.275000X0.200000X-0.275000X-0.200000X0.275000X-0.200000X0.275000X0.200000X0*%
%ADD15RoundRect,0.200000X0.275000X-0.200000X0.275000X0.200000X-0.275000X0.200000X-0.275000X-0.200000X0*%
%ADD16RoundRect,0.243750X0.243750X0.456250X-0.243750X0.456250X-0.243750X-0.456250X0.243750X-0.456250X0*%
%ADD17RoundRect,0.218750X-0.256250X0.218750X-0.256250X-0.218750X0.256250X-0.218750X0.256250X0.218750X0*%
%ADD18RoundRect,0.150000X-0.587500X-0.150000X0.587500X-0.150000X0.587500X0.150000X-0.587500X0.150000X0*%
%ADD19RoundRect,0.225000X-0.250000X0.225000X-0.250000X-0.225000X0.250000X-0.225000X0.250000X0.225000X0*%
%ADD20RoundRect,0.200000X-0.200000X-0.275000X0.200000X-0.275000X0.200000X0.275000X-0.200000X0.275000X0*%
%ADD21R,2.000000X1.500000*%
%ADD22R,2.000000X3.800000*%
%ADD23RoundRect,0.150000X0.150000X-0.825000X0.150000X0.825000X-0.150000X0.825000X-0.150000X-0.825000X0*%
%ADD24R,1.500000X0.900000*%
%ADD25R,0.900000X1.500000*%
%ADD26R,0.900000X0.900000*%
%ADD27RoundRect,0.200000X0.200000X0.275000X-0.200000X0.275000X-0.200000X-0.275000X0.200000X-0.275000X0*%
%ADD28RoundRect,0.225000X-0.225000X-0.250000X0.225000X-0.250000X0.225000X0.250000X-0.225000X0.250000X0*%
%ADD29RoundRect,0.112500X0.112500X-0.187500X0.112500X0.187500X-0.112500X0.187500X-0.112500X-0.187500X0*%
%ADD30RoundRect,0.250000X0.312500X0.625000X-0.312500X0.625000X-0.312500X-0.625000X0.312500X-0.625000X0*%
%ADD31RoundRect,0.250000X-0.312500X-0.625000X0.312500X-0.625000X0.312500X0.625000X-0.312500X0.625000X0*%
%ADD32RoundRect,0.150000X0.150000X-0.587500X0.150000X0.587500X-0.150000X0.587500X-0.150000X-0.587500X0*%
%ADD33RoundRect,0.225000X0.250000X-0.225000X0.250000X0.225000X-0.250000X0.225000X-0.250000X-0.225000X0*%
%ADD34RoundRect,0.250000X-0.600000X0.400000X-0.600000X-0.400000X0.600000X-0.400000X0.600000X0.400000X0*%
%ADD35R,1.100000X2.000000*%
%ADD36RoundRect,0.137500X0.587500X0.137500X-0.587500X0.137500X-0.587500X-0.137500X0.587500X-0.137500X0*%
G04 APERTURE END LIST*
%TO.C,J7*%
G36*
X152027500Y-75800000D02*
G01*
X150727500Y-75800000D01*
X150727500Y-75500000D01*
X152027500Y-75500000D01*
X152027500Y-75800000D01*
G37*
G36*
X152027500Y-75300000D02*
G01*
X150727500Y-75300000D01*
X150727500Y-75000000D01*
X152027500Y-75000000D01*
X152027500Y-75300000D01*
G37*
G36*
X152027500Y-74800000D02*
G01*
X150727500Y-74800000D01*
X150727500Y-74500000D01*
X152027500Y-74500000D01*
X152027500Y-74800000D01*
G37*
G36*
X152027500Y-74300000D02*
G01*
X150727500Y-74300000D01*
X150727500Y-74000000D01*
X152027500Y-74000000D01*
X152027500Y-74300000D01*
G37*
G36*
X152027500Y-73800000D02*
G01*
X150727500Y-73800000D01*
X150727500Y-73500000D01*
X152027500Y-73500000D01*
X152027500Y-73800000D01*
G37*
G36*
X152027500Y-73300000D02*
G01*
X150727500Y-73300000D01*
X150727500Y-73000000D01*
X152027500Y-73000000D01*
X152027500Y-73300000D01*
G37*
G36*
X152027500Y-72800000D02*
G01*
X150727500Y-72800000D01*
X150727500Y-72500000D01*
X152027500Y-72500000D01*
X152027500Y-72800000D01*
G37*
G36*
X152027500Y-72300000D02*
G01*
X150727500Y-72300000D01*
X150727500Y-72000000D01*
X152027500Y-72000000D01*
X152027500Y-72300000D01*
G37*
G36*
X152027500Y-77100000D02*
G01*
X152027500Y-77400000D01*
X150727500Y-77400000D01*
X150727500Y-77100000D01*
X150727500Y-76800000D01*
X152027500Y-76800000D01*
X152027500Y-77100000D01*
G37*
G36*
X152027500Y-76300000D02*
G01*
X152027500Y-76600000D01*
X150727500Y-76600000D01*
X150727500Y-76300000D01*
X150727500Y-76000000D01*
X152027500Y-76000000D01*
X152027500Y-76300000D01*
G37*
G36*
X152027500Y-71500000D02*
G01*
X152027500Y-71800000D01*
X150727500Y-71800000D01*
X150727500Y-71500000D01*
X150727500Y-71200000D01*
X152027500Y-71200000D01*
X152027500Y-71500000D01*
G37*
G36*
X152027500Y-70700000D02*
G01*
X152027500Y-71000000D01*
X150727500Y-71000000D01*
X150727500Y-70700000D01*
X150727500Y-70400000D01*
X152027500Y-70400000D01*
X152027500Y-70700000D01*
G37*
G36*
X156655500Y-77626000D02*
G01*
X156685500Y-77628000D01*
X156715500Y-77632000D01*
X156744500Y-77637000D01*
X156773500Y-77644000D01*
X156802500Y-77652000D01*
X156830500Y-77661000D01*
X156858500Y-77672000D01*
X156885500Y-77685000D01*
X156912500Y-77698000D01*
X156938500Y-77713000D01*
X156963500Y-77729000D01*
X156987500Y-77747000D01*
X157011500Y-77765000D01*
X157033500Y-77785000D01*
X157055500Y-77806000D01*
X157075500Y-77828000D01*
X157094500Y-77851000D01*
X157112500Y-77875000D01*
X157129500Y-77900000D01*
X157145500Y-77925000D01*
X157159500Y-77951000D01*
X157172500Y-77978000D01*
X157184500Y-78006000D01*
X157194500Y-78034000D01*
X157203500Y-78063000D01*
X157210500Y-78092000D01*
X157216500Y-78121000D01*
X157220500Y-78151000D01*
X157223500Y-78180000D01*
X157225500Y-78210000D01*
X157225500Y-78240000D01*
X157223500Y-78270000D01*
X157220500Y-78300000D01*
X157216500Y-78329000D01*
X157210500Y-78359000D01*
X157203500Y-78388000D01*
X157194500Y-78416000D01*
X157184500Y-78444000D01*
X157172500Y-78472000D01*
X157159500Y-78499000D01*
X157145500Y-78525000D01*
X157129500Y-78551000D01*
X157112500Y-78575000D01*
X157094500Y-78599000D01*
X157075500Y-78622000D01*
X157055500Y-78644000D01*
X157033500Y-78665000D01*
X157011500Y-78685000D01*
X156987500Y-78703000D01*
X156963500Y-78721000D01*
X156938500Y-78737000D01*
X156912500Y-78752000D01*
X156885500Y-78766000D01*
X156858500Y-78778000D01*
X156830500Y-78789000D01*
X156802500Y-78798000D01*
X156773500Y-78807000D01*
X156744500Y-78813000D01*
X156715500Y-78818000D01*
X156685500Y-78822000D01*
X156655500Y-78824000D01*
X156625500Y-78825000D01*
X156025500Y-78825000D01*
X155995500Y-78824000D01*
X155965500Y-78822000D01*
X155936500Y-78818000D01*
X155906500Y-78813000D01*
X155877500Y-78807000D01*
X155848500Y-78798000D01*
X155820500Y-78789000D01*
X155792500Y-78778000D01*
X155765500Y-78766000D01*
X155738500Y-78752000D01*
X155712500Y-78737000D01*
X155687500Y-78721000D01*
X155663500Y-78703000D01*
X155639500Y-78685000D01*
X155617500Y-78665000D01*
X155596500Y-78644000D01*
X155575500Y-78622000D01*
X155556500Y-78599000D01*
X155538500Y-78575000D01*
X155521500Y-78551000D01*
X155506500Y-78525000D01*
X155491500Y-78499000D01*
X155478500Y-78472000D01*
X155467500Y-78444000D01*
X155456500Y-78416000D01*
X155448500Y-78388000D01*
X155440500Y-78359000D01*
X155434500Y-78329000D01*
X155430500Y-78300000D01*
X155427500Y-78270000D01*
X155425500Y-78240000D01*
X155425500Y-78210000D01*
X155427500Y-78180000D01*
X155430500Y-78151000D01*
X155434500Y-78121000D01*
X155440500Y-78092000D01*
X155448500Y-78063000D01*
X155456500Y-78034000D01*
X155467500Y-78006000D01*
X155478500Y-77978000D01*
X155491500Y-77951000D01*
X155506500Y-77925000D01*
X155521500Y-77900000D01*
X155538500Y-77875000D01*
X155556500Y-77851000D01*
X155575500Y-77828000D01*
X155596500Y-77806000D01*
X155617500Y-77785000D01*
X155639500Y-77765000D01*
X155663500Y-77747000D01*
X155687500Y-77729000D01*
X155712500Y-77713000D01*
X155738500Y-77698000D01*
X155765500Y-77685000D01*
X155792500Y-77672000D01*
X155820500Y-77661000D01*
X155848500Y-77652000D01*
X155877500Y-77644000D01*
X155906500Y-77637000D01*
X155936500Y-77632000D01*
X155965500Y-77628000D01*
X155995500Y-77626000D01*
X156025500Y-77625000D01*
X156625500Y-77625000D01*
X156655500Y-77626000D01*
G37*
G36*
X152575500Y-77626000D02*
G01*
X152605500Y-77628000D01*
X152635500Y-77632000D01*
X152664500Y-77637000D01*
X152693500Y-77644000D01*
X152722500Y-77652000D01*
X152750500Y-77661000D01*
X152778500Y-77672000D01*
X152806500Y-77685000D01*
X152832500Y-77698000D01*
X152858500Y-77713000D01*
X152883500Y-77729000D01*
X152907500Y-77747000D01*
X152931500Y-77765000D01*
X152953500Y-77785000D01*
X152975500Y-77806000D01*
X152995500Y-77828000D01*
X153014500Y-77851000D01*
X153032500Y-77875000D01*
X153049500Y-77900000D01*
X153065500Y-77925000D01*
X153079500Y-77951000D01*
X153092500Y-77978000D01*
X153104500Y-78006000D01*
X153114500Y-78034000D01*
X153123500Y-78063000D01*
X153130500Y-78092000D01*
X153136500Y-78121000D01*
X153141500Y-78151000D01*
X153144500Y-78180000D01*
X153145500Y-78210000D01*
X153145500Y-78240000D01*
X153144500Y-78270000D01*
X153141500Y-78300000D01*
X153136500Y-78329000D01*
X153130500Y-78359000D01*
X153123500Y-78388000D01*
X153114500Y-78416000D01*
X153104500Y-78444000D01*
X153092500Y-78472000D01*
X153079500Y-78499000D01*
X153065500Y-78525000D01*
X153049500Y-78551000D01*
X153032500Y-78575000D01*
X153014500Y-78599000D01*
X152995500Y-78622000D01*
X152975500Y-78644000D01*
X152953500Y-78665000D01*
X152931500Y-78685000D01*
X152907500Y-78703000D01*
X152883500Y-78721000D01*
X152858500Y-78737000D01*
X152832500Y-78752000D01*
X152806500Y-78766000D01*
X152778500Y-78778000D01*
X152750500Y-78789000D01*
X152722500Y-78798000D01*
X152693500Y-78807000D01*
X152664500Y-78813000D01*
X152635500Y-78818000D01*
X152605500Y-78822000D01*
X152575500Y-78824000D01*
X152545500Y-78825000D01*
X151745500Y-78825000D01*
X151715500Y-78824000D01*
X151685500Y-78822000D01*
X151656500Y-78818000D01*
X151626500Y-78813000D01*
X151597500Y-78807000D01*
X151568500Y-78798000D01*
X151540500Y-78789000D01*
X151512500Y-78778000D01*
X151485500Y-78766000D01*
X151458500Y-78752000D01*
X151432500Y-78737000D01*
X151407500Y-78721000D01*
X151383500Y-78703000D01*
X151360500Y-78685000D01*
X151337500Y-78665000D01*
X151316500Y-78644000D01*
X151295500Y-78622000D01*
X151276500Y-78599000D01*
X151258500Y-78575000D01*
X151241500Y-78551000D01*
X151226500Y-78525000D01*
X151211500Y-78499000D01*
X151198500Y-78472000D01*
X151187500Y-78444000D01*
X151176500Y-78416000D01*
X151168500Y-78388000D01*
X151160500Y-78359000D01*
X151154500Y-78329000D01*
X151150500Y-78300000D01*
X151147500Y-78270000D01*
X151145500Y-78240000D01*
X151145500Y-78210000D01*
X151147500Y-78180000D01*
X151150500Y-78151000D01*
X151154500Y-78121000D01*
X151160500Y-78092000D01*
X151168500Y-78063000D01*
X151176500Y-78034000D01*
X151187500Y-78006000D01*
X151198500Y-77978000D01*
X151211500Y-77951000D01*
X151226500Y-77925000D01*
X151241500Y-77900000D01*
X151258500Y-77875000D01*
X151276500Y-77851000D01*
X151295500Y-77828000D01*
X151316500Y-77806000D01*
X151337500Y-77785000D01*
X151360500Y-77765000D01*
X151383500Y-77747000D01*
X151407500Y-77729000D01*
X151432500Y-77713000D01*
X151458500Y-77698000D01*
X151485500Y-77685000D01*
X151512500Y-77672000D01*
X151540500Y-77661000D01*
X151568500Y-77652000D01*
X151597500Y-77644000D01*
X151626500Y-77637000D01*
X151656500Y-77632000D01*
X151685500Y-77628000D01*
X151715500Y-77626000D01*
X151745500Y-77625000D01*
X152545500Y-77625000D01*
X152575500Y-77626000D01*
G37*
G36*
X152575500Y-68976000D02*
G01*
X152605500Y-68978000D01*
X152635500Y-68982000D01*
X152664500Y-68987000D01*
X152693500Y-68993000D01*
X152722500Y-69002000D01*
X152750500Y-69011000D01*
X152778500Y-69022000D01*
X152806500Y-69034000D01*
X152832500Y-69048000D01*
X152858500Y-69063000D01*
X152883500Y-69079000D01*
X152907500Y-69097000D01*
X152931500Y-69115000D01*
X152953500Y-69135000D01*
X152975500Y-69156000D01*
X152995500Y-69178000D01*
X153014500Y-69201000D01*
X153032500Y-69225000D01*
X153049500Y-69249000D01*
X153065500Y-69275000D01*
X153079500Y-69301000D01*
X153092500Y-69328000D01*
X153104500Y-69356000D01*
X153114500Y-69384000D01*
X153123500Y-69412000D01*
X153130500Y-69441000D01*
X153136500Y-69471000D01*
X153141500Y-69500000D01*
X153144500Y-69530000D01*
X153145500Y-69560000D01*
X153145500Y-69590000D01*
X153144500Y-69620000D01*
X153141500Y-69649000D01*
X153136500Y-69679000D01*
X153130500Y-69708000D01*
X153123500Y-69737000D01*
X153114500Y-69766000D01*
X153104500Y-69794000D01*
X153092500Y-69822000D01*
X153079500Y-69849000D01*
X153065500Y-69875000D01*
X153049500Y-69900000D01*
X153032500Y-69925000D01*
X153014500Y-69949000D01*
X152995500Y-69972000D01*
X152975500Y-69994000D01*
X152953500Y-70015000D01*
X152931500Y-70035000D01*
X152907500Y-70053000D01*
X152883500Y-70071000D01*
X152858500Y-70087000D01*
X152832500Y-70102000D01*
X152806500Y-70115000D01*
X152778500Y-70128000D01*
X152750500Y-70139000D01*
X152722500Y-70148000D01*
X152693500Y-70156000D01*
X152664500Y-70163000D01*
X152635500Y-70168000D01*
X152605500Y-70172000D01*
X152575500Y-70174000D01*
X152545500Y-70175000D01*
X151745500Y-70175000D01*
X151715500Y-70174000D01*
X151685500Y-70172000D01*
X151656500Y-70168000D01*
X151626500Y-70163000D01*
X151597500Y-70156000D01*
X151568500Y-70148000D01*
X151540500Y-70139000D01*
X151512500Y-70128000D01*
X151485500Y-70115000D01*
X151458500Y-70102000D01*
X151432500Y-70087000D01*
X151407500Y-70071000D01*
X151383500Y-70053000D01*
X151360500Y-70035000D01*
X151337500Y-70015000D01*
X151316500Y-69994000D01*
X151295500Y-69972000D01*
X151276500Y-69949000D01*
X151258500Y-69925000D01*
X151241500Y-69900000D01*
X151226500Y-69875000D01*
X151211500Y-69849000D01*
X151198500Y-69822000D01*
X151187500Y-69794000D01*
X151176500Y-69766000D01*
X151168500Y-69737000D01*
X151160500Y-69708000D01*
X151154500Y-69679000D01*
X151150500Y-69649000D01*
X151147500Y-69620000D01*
X151145500Y-69590000D01*
X151145500Y-69560000D01*
X151147500Y-69530000D01*
X151150500Y-69500000D01*
X151154500Y-69471000D01*
X151160500Y-69441000D01*
X151168500Y-69412000D01*
X151176500Y-69384000D01*
X151187500Y-69356000D01*
X151198500Y-69328000D01*
X151211500Y-69301000D01*
X151226500Y-69275000D01*
X151241500Y-69249000D01*
X151258500Y-69225000D01*
X151276500Y-69201000D01*
X151295500Y-69178000D01*
X151316500Y-69156000D01*
X151337500Y-69135000D01*
X151360500Y-69115000D01*
X151383500Y-69097000D01*
X151407500Y-69079000D01*
X151432500Y-69063000D01*
X151458500Y-69048000D01*
X151485500Y-69034000D01*
X151512500Y-69022000D01*
X151540500Y-69011000D01*
X151568500Y-69002000D01*
X151597500Y-68993000D01*
X151626500Y-68987000D01*
X151656500Y-68982000D01*
X151685500Y-68978000D01*
X151715500Y-68976000D01*
X151745500Y-68975000D01*
X152545500Y-68975000D01*
X152575500Y-68976000D01*
G37*
G36*
X156655500Y-68976000D02*
G01*
X156685500Y-68978000D01*
X156715500Y-68982000D01*
X156744500Y-68987000D01*
X156773500Y-68993000D01*
X156802500Y-69002000D01*
X156830500Y-69011000D01*
X156858500Y-69022000D01*
X156885500Y-69034000D01*
X156912500Y-69048000D01*
X156938500Y-69063000D01*
X156963500Y-69079000D01*
X156987500Y-69097000D01*
X157011500Y-69115000D01*
X157033500Y-69135000D01*
X157055500Y-69156000D01*
X157075500Y-69178000D01*
X157094500Y-69201000D01*
X157112500Y-69225000D01*
X157129500Y-69249000D01*
X157145500Y-69275000D01*
X157159500Y-69301000D01*
X157172500Y-69328000D01*
X157184500Y-69356000D01*
X157194500Y-69384000D01*
X157203500Y-69412000D01*
X157210500Y-69441000D01*
X157216500Y-69471000D01*
X157220500Y-69500000D01*
X157223500Y-69530000D01*
X157225500Y-69560000D01*
X157225500Y-69590000D01*
X157223500Y-69620000D01*
X157220500Y-69649000D01*
X157216500Y-69679000D01*
X157210500Y-69708000D01*
X157203500Y-69737000D01*
X157194500Y-69766000D01*
X157184500Y-69794000D01*
X157172500Y-69822000D01*
X157159500Y-69849000D01*
X157145500Y-69875000D01*
X157129500Y-69900000D01*
X157112500Y-69925000D01*
X157094500Y-69949000D01*
X157075500Y-69972000D01*
X157055500Y-69994000D01*
X157033500Y-70015000D01*
X157011500Y-70035000D01*
X156987500Y-70053000D01*
X156963500Y-70071000D01*
X156938500Y-70087000D01*
X156912500Y-70102000D01*
X156885500Y-70115000D01*
X156858500Y-70128000D01*
X156830500Y-70139000D01*
X156802500Y-70148000D01*
X156773500Y-70156000D01*
X156744500Y-70163000D01*
X156715500Y-70168000D01*
X156685500Y-70172000D01*
X156655500Y-70174000D01*
X156625500Y-70175000D01*
X156025500Y-70175000D01*
X155995500Y-70174000D01*
X155965500Y-70172000D01*
X155936500Y-70168000D01*
X155906500Y-70163000D01*
X155877500Y-70156000D01*
X155848500Y-70148000D01*
X155820500Y-70139000D01*
X155792500Y-70128000D01*
X155765500Y-70115000D01*
X155738500Y-70102000D01*
X155712500Y-70087000D01*
X155687500Y-70071000D01*
X155663500Y-70053000D01*
X155639500Y-70035000D01*
X155617500Y-70015000D01*
X155596500Y-69994000D01*
X155575500Y-69972000D01*
X155556500Y-69949000D01*
X155538500Y-69925000D01*
X155521500Y-69900000D01*
X155506500Y-69875000D01*
X155491500Y-69849000D01*
X155478500Y-69822000D01*
X155467500Y-69794000D01*
X155456500Y-69766000D01*
X155448500Y-69737000D01*
X155440500Y-69708000D01*
X155434500Y-69679000D01*
X155430500Y-69649000D01*
X155427500Y-69620000D01*
X155425500Y-69590000D01*
X155425500Y-69560000D01*
X155427500Y-69530000D01*
X155430500Y-69500000D01*
X155434500Y-69471000D01*
X155440500Y-69441000D01*
X155448500Y-69412000D01*
X155456500Y-69384000D01*
X155467500Y-69356000D01*
X155478500Y-69328000D01*
X155491500Y-69301000D01*
X155506500Y-69275000D01*
X155521500Y-69249000D01*
X155538500Y-69225000D01*
X155556500Y-69201000D01*
X155575500Y-69178000D01*
X155596500Y-69156000D01*
X155617500Y-69135000D01*
X155639500Y-69115000D01*
X155663500Y-69097000D01*
X155687500Y-69079000D01*
X155712500Y-69063000D01*
X155738500Y-69048000D01*
X155765500Y-69034000D01*
X155792500Y-69022000D01*
X155820500Y-69011000D01*
X155848500Y-69002000D01*
X155877500Y-68993000D01*
X155906500Y-68987000D01*
X155936500Y-68982000D01*
X155965500Y-68978000D01*
X155995500Y-68976000D01*
X156025500Y-68975000D01*
X156625500Y-68975000D01*
X156655500Y-68976000D01*
G37*
%TD*%
D10*
%TO.C,J7*%
X152145500Y-78225000D03*
X152145500Y-69575000D03*
D11*
X156325500Y-69575000D03*
X156325500Y-78225000D03*
D12*
X151377500Y-77250000D03*
X151377500Y-76450000D03*
X151377500Y-75150000D03*
X151377500Y-74150000D03*
X151377500Y-73650000D03*
X151377500Y-72650000D03*
X151377500Y-71350000D03*
X151377500Y-70550000D03*
X151377500Y-70850000D03*
X151377500Y-71650000D03*
X151377500Y-72150000D03*
X151377500Y-73150000D03*
X151377500Y-74650000D03*
X151377500Y-75650000D03*
X151377500Y-76150000D03*
X151377500Y-76950000D03*
%TD*%
D13*
%TO.C,R2*%
X103000000Y-66547500D03*
X103000000Y-69472500D03*
%TD*%
D14*
%TO.C,R12*%
X110250000Y-63685000D03*
X110250000Y-65335000D03*
%TD*%
D15*
%TO.C,R3*%
X150750000Y-85875000D03*
X150750000Y-84225000D03*
%TD*%
D16*
%TO.C,D1*%
X147400000Y-94865000D03*
X145525000Y-94865000D03*
%TD*%
D17*
%TO.C,D6*%
X100500000Y-119440000D03*
X100500000Y-121015000D03*
%TD*%
D18*
%TO.C,Q3*%
X148525000Y-63550000D03*
X148525000Y-65450000D03*
X150400000Y-64500000D03*
%TD*%
D14*
%TO.C,R21*%
X127250000Y-117675000D03*
X127250000Y-119325000D03*
%TD*%
D19*
%TO.C,C1*%
X105500000Y-66235000D03*
X105500000Y-67785000D03*
%TD*%
D16*
%TO.C,D2*%
X142687500Y-60000000D03*
X140812500Y-60000000D03*
%TD*%
D14*
%TO.C,R24*%
X123250000Y-117925000D03*
X123250000Y-119575000D03*
%TD*%
D18*
%TO.C,Q5*%
X147000000Y-99750000D03*
X147000000Y-101650000D03*
X148875000Y-100700000D03*
%TD*%
D20*
%TO.C,R7*%
X137100000Y-66020000D03*
X138750000Y-66020000D03*
%TD*%
D18*
%TO.C,Q6*%
X141375000Y-105550000D03*
X141375000Y-107450000D03*
X143250000Y-106500000D03*
%TD*%
D14*
%TO.C,R1*%
X137750000Y-105925000D03*
X137750000Y-107575000D03*
%TD*%
D21*
%TO.C,U2*%
X146675000Y-90665000D03*
X146675000Y-88365000D03*
D22*
X140375000Y-88365000D03*
D21*
X146675000Y-86065000D03*
%TD*%
D23*
%TO.C,U3*%
X139055000Y-76725000D03*
X140325000Y-76725000D03*
X141595000Y-76725000D03*
X142865000Y-76725000D03*
X144135000Y-76725000D03*
X145405000Y-76725000D03*
X146675000Y-76725000D03*
X147945000Y-76725000D03*
X147945000Y-71775000D03*
X146675000Y-71775000D03*
X145405000Y-71775000D03*
X144135000Y-71775000D03*
X142865000Y-71775000D03*
X141595000Y-71775000D03*
X140325000Y-71775000D03*
X139055000Y-71775000D03*
%TD*%
D19*
%TO.C,C3*%
X103000000Y-60735000D03*
X103000000Y-62285000D03*
%TD*%
%TO.C,C5*%
X96000000Y-60735000D03*
X96000000Y-62285000D03*
%TD*%
D24*
%TO.C,U1*%
X113000000Y-65500000D03*
X113000000Y-66770000D03*
X113000000Y-68040000D03*
X113000000Y-69310000D03*
X113000000Y-70580000D03*
X113000000Y-71850000D03*
X113000000Y-73120000D03*
X113000000Y-74390000D03*
X113000000Y-75660000D03*
X113000000Y-76930000D03*
X113000000Y-78200000D03*
X113000000Y-79470000D03*
X113000000Y-80740000D03*
X113000000Y-82010000D03*
D25*
X114765000Y-83260000D03*
X116035000Y-83260000D03*
X117305000Y-83260000D03*
X118575000Y-83260000D03*
X119845000Y-83260000D03*
X121115000Y-83260000D03*
X122385000Y-83260000D03*
X123655000Y-83260000D03*
X124925000Y-83260000D03*
X126195000Y-83260000D03*
X127465000Y-83260000D03*
X128735000Y-83260000D03*
D24*
X130500000Y-82010000D03*
X130500000Y-80740000D03*
X130500000Y-79470000D03*
X130500000Y-78200000D03*
X130500000Y-76930000D03*
X130500000Y-75660000D03*
X130500000Y-74390000D03*
X130500000Y-73120000D03*
X130500000Y-71850000D03*
X130500000Y-70580000D03*
X130500000Y-69310000D03*
X130500000Y-68040000D03*
X130500000Y-66770000D03*
X130500000Y-65500000D03*
D26*
X118850000Y-71820000D03*
X118850000Y-73220000D03*
X118850000Y-74620000D03*
X118850000Y-74620000D03*
X120250000Y-71820000D03*
X120250000Y-71820000D03*
X120250000Y-73220000D03*
X120250000Y-74620000D03*
X121650000Y-71820000D03*
X121650000Y-73220000D03*
X121650000Y-74620000D03*
%TD*%
D27*
%TO.C,R10*%
X145825000Y-80500000D03*
X144175000Y-80500000D03*
%TD*%
%TO.C,R4*%
X143787500Y-94865000D03*
X142137500Y-94865000D03*
%TD*%
D14*
%TO.C,R9*%
X96750000Y-124250000D03*
X96750000Y-125900000D03*
%TD*%
D19*
%TO.C,C4*%
X105500000Y-60735000D03*
X105500000Y-62285000D03*
%TD*%
D28*
%TO.C,C8*%
X139725000Y-82750000D03*
X141275000Y-82750000D03*
%TD*%
D16*
%TO.C,D5*%
X142625000Y-67500000D03*
X140750000Y-67500000D03*
%TD*%
D18*
%TO.C,Q2*%
X148525000Y-59100000D03*
X148525000Y-61000000D03*
X150400000Y-60050000D03*
%TD*%
D29*
%TO.C,D7*%
X97730000Y-121357500D03*
X97730000Y-119257500D03*
%TD*%
D18*
%TO.C,Q4*%
X111125000Y-127550000D03*
X111125000Y-129450000D03*
X113000000Y-128500000D03*
%TD*%
D19*
%TO.C,C6*%
X140025000Y-93590000D03*
X140025000Y-95140000D03*
%TD*%
D13*
%TO.C,R29*%
X150750000Y-105787500D03*
X150750000Y-108712500D03*
%TD*%
D30*
%TO.C,R26*%
X144150000Y-99720000D03*
X141225000Y-99720000D03*
%TD*%
D13*
%TO.C,R28*%
X147250000Y-105787500D03*
X147250000Y-108712500D03*
%TD*%
D31*
%TO.C,R27*%
X141225000Y-103010000D03*
X144150000Y-103010000D03*
%TD*%
D20*
%TO.C,R6*%
X137100000Y-63510000D03*
X138750000Y-63510000D03*
%TD*%
D31*
%TO.C,R13*%
X153250000Y-59470000D03*
X156175000Y-59470000D03*
%TD*%
D32*
%TO.C,Q1*%
X99250000Y-127500000D03*
X101150000Y-127500000D03*
X100200000Y-125625000D03*
%TD*%
D20*
%TO.C,R5*%
X137100000Y-61000000D03*
X138750000Y-61000000D03*
%TD*%
D33*
%TO.C,C9*%
X108250000Y-65285000D03*
X108250000Y-63735000D03*
%TD*%
D34*
%TO.C,D11*%
X116250000Y-131750000D03*
X116250000Y-135250000D03*
%TD*%
D27*
%TO.C,R11*%
X155825000Y-67500000D03*
X154175000Y-67500000D03*
%TD*%
D35*
%TO.C,D8*%
X152700000Y-129150000D03*
X150300000Y-129150000D03*
X150300000Y-135350000D03*
X152700000Y-135350000D03*
%TD*%
D16*
%TO.C,D3*%
X142577500Y-63555000D03*
X140702500Y-63555000D03*
%TD*%
D36*
%TO.C,U5*%
X126000000Y-124770000D03*
X126000000Y-122230000D03*
X120500000Y-122230000D03*
X120500000Y-124770000D03*
%TD*%
D31*
%TO.C,R14*%
X153250000Y-62760000D03*
X156175000Y-62760000D03*
%TD*%
D19*
%TO.C,C2*%
X96000000Y-66975000D03*
X96000000Y-68525000D03*
%TD*%
D24*
%TO.C,D4*%
X144200000Y-114400000D03*
X144200000Y-111100000D03*
X139300000Y-111100000D03*
X139300000Y-114400000D03*
%TD*%
D15*
%TO.C,R20*%
X113500000Y-134575000D03*
X113500000Y-132925000D03*
%TD*%
%TO.C,R8*%
X103050000Y-121012500D03*
X103050000Y-119362500D03*
%TD*%
D28*
%TO.C,C7*%
X147700000Y-80300000D03*
X149250000Y-80300000D03*
%TD*%
M02*
